<?xml version="1.0" encoding="utf-8" standalone="no"?>
<!DOCTYPE svg PUBLIC "-//W3C//DTD SVG 1.1//EN"
  "http://www.w3.org/Graphics/SVG/1.1/DTD/svg11.dtd">
<svg xmlns:xlink="http://www.w3.org/1999/xlink" width="460.8pt" height="345.6pt" viewBox="0 0 460.8 345.6" xmlns="http://www.w3.org/2000/svg" version="1.1">
 <metadata>
  <rdf:RDF xmlns:dc="http://purl.org/dc/elements/1.1/" xmlns:cc="http://creativecommons.org/ns#" xmlns:rdf="http://www.w3.org/1999/02/22-rdf-syntax-ns#">
   <cc:Work>
    <dc:type rdf:resource="http://purl.org/dc/dcmitype/StillImage"/>
    <dc:date>2024-01-05T10:25:44.682068</dc:date>
    <dc:format>image/svg+xml</dc:format>
    <dc:creator>
     <cc:Agent>
      <dc:title>Matplotlib v3.5.1, https://matplotlib.org/</dc:title>
     </cc:Agent>
    </dc:creator>
   </cc:Work>
  </rdf:RDF>
 </metadata>
 <defs>
  <style type="text/css">*{stroke-linejoin: round; stroke-linecap: butt}</style>
 </defs>
 <g id="figure_1">
  <g id="patch_1">
   <path d="M 0 345.6 
L 460.8 345.6 
L 460.8 0 
L 0 0 
z
" style="fill: #ffffff"/>
  </g>
  <g id="axes_1">
   <g id="patch_2">
    <path d="M 34.16 291.28 
L 453.192 291.28 
L 453.192 3 
L 34.16 3 
z
" style="fill: #ffffff"/>
   </g>
   <g id="matplotlib.axis_1">
    <g id="xtick_1">
     <g id="line2d_1">
      <path d="M 105.172082 291.28 
L 105.172082 3 
" clip-path="url(#p8c73d5bbaf)" style="fill: none; stroke: #b0b0b0; stroke-width: 0.8; stroke-linecap: square"/>
     </g>
     <g id="line2d_2">
      <defs>
       <path id="mfbd2064aa1" d="M 0 0 
L 0 3.5 
" style="stroke: #000000; stroke-width: 0.8"/>
      </defs>
      <g>
       <use xlink:href="#mfbd2064aa1" x="105.172082" y="291.28" style="stroke: #000000; stroke-width: 0.8"/>
      </g>
     </g>
     <g id="text_1">
      <!-- -2 -->
      <g transform="translate(95.20177 313.476875)scale(0.2 -0.2)">
       <defs>
        <path id="DejaVuSans-2d" d="M 313 2009 
L 1997 2009 
L 1997 1497 
L 313 1497 
L 313 2009 
z
" transform="scale(0.015625)"/>
        <path id="DejaVuSans-32" d="M 1228 531 
L 3431 531 
L 3431 0 
L 469 0 
L 469 531 
Q 828 903 1448 1529 
Q 2069 2156 2228 2338 
Q 2531 2678 2651 2914 
Q 2772 3150 2772 3378 
Q 2772 3750 2511 3984 
Q 2250 4219 1831 4219 
Q 1534 4219 1204 4116 
Q 875 4013 500 3803 
L 500 4441 
Q 881 4594 1212 4672 
Q 1544 4750 1819 4750 
Q 2544 4750 2975 4387 
Q 3406 4025 3406 3419 
Q 3406 3131 3298 2873 
Q 3191 2616 2906 2266 
Q 2828 2175 2409 1742 
Q 1991 1309 1228 531 
z
" transform="scale(0.015625)"/>
       </defs>
       <use xlink:href="#DejaVuSans-2d"/>
       <use xlink:href="#DejaVuSans-32" x="36.083984"/>
      </g>
     </g>
    </g>
    <g id="xtick_2">
     <g id="line2d_3">
      <path d="M 243.676 291.28 
L 243.676 3 
" clip-path="url(#p8c73d5bbaf)" style="fill: none; stroke: #b0b0b0; stroke-width: 0.8; stroke-linecap: square"/>
     </g>
     <g id="line2d_4">
      <g>
       <use xlink:href="#mfbd2064aa1" x="243.676" y="291.28" style="stroke: #000000; stroke-width: 0.8"/>
      </g>
     </g>
     <g id="text_2">
      <!-- 0 -->
      <g transform="translate(237.3135 313.476875)scale(0.2 -0.2)">
       <defs>
        <path id="DejaVuSans-30" d="M 2034 4250 
Q 1547 4250 1301 3770 
Q 1056 3291 1056 2328 
Q 1056 1369 1301 889 
Q 1547 409 2034 409 
Q 2525 409 2770 889 
Q 3016 1369 3016 2328 
Q 3016 3291 2770 3770 
Q 2525 4250 2034 4250 
z
M 2034 4750 
Q 2819 4750 3233 4129 
Q 3647 3509 3647 2328 
Q 3647 1150 3233 529 
Q 2819 -91 2034 -91 
Q 1250 -91 836 529 
Q 422 1150 422 2328 
Q 422 3509 836 4129 
Q 1250 4750 2034 4750 
z
" transform="scale(0.015625)"/>
       </defs>
       <use xlink:href="#DejaVuSans-30"/>
      </g>
     </g>
    </g>
    <g id="xtick_3">
     <g id="line2d_5">
      <path d="M 382.179918 291.28 
L 382.179918 3 
" clip-path="url(#p8c73d5bbaf)" style="fill: none; stroke: #b0b0b0; stroke-width: 0.8; stroke-linecap: square"/>
     </g>
     <g id="line2d_6">
      <g>
       <use xlink:href="#mfbd2064aa1" x="382.179918" y="291.28" style="stroke: #000000; stroke-width: 0.8"/>
      </g>
     </g>
     <g id="text_3">
      <!-- 2 -->
      <g transform="translate(375.817418 313.476875)scale(0.2 -0.2)">
       <use xlink:href="#DejaVuSans-32"/>
      </g>
     </g>
    </g>
    <g id="text_4">
     <!-- log10 of FEvals ratio -->
     <g transform="translate(141.371312 336.833125)scale(0.2 -0.2)">
      <defs>
       <path id="DejaVuSans-6c" d="M 603 4863 
L 1178 4863 
L 1178 0 
L 603 0 
L 603 4863 
z
" transform="scale(0.015625)"/>
       <path id="DejaVuSans-6f" d="M 1959 3097 
Q 1497 3097 1228 2736 
Q 959 2375 959 1747 
Q 959 1119 1226 758 
Q 1494 397 1959 397 
Q 2419 397 2687 759 
Q 2956 1122 2956 1747 
Q 2956 2369 2687 2733 
Q 2419 3097 1959 3097 
z
M 1959 3584 
Q 2709 3584 3137 3096 
Q 3566 2609 3566 1747 
Q 3566 888 3137 398 
Q 2709 -91 1959 -91 
Q 1206 -91 779 398 
Q 353 888 353 1747 
Q 353 2609 779 3096 
Q 1206 3584 1959 3584 
z
" transform="scale(0.015625)"/>
       <path id="DejaVuSans-67" d="M 2906 1791 
Q 2906 2416 2648 2759 
Q 2391 3103 1925 3103 
Q 1463 3103 1205 2759 
Q 947 2416 947 1791 
Q 947 1169 1205 825 
Q 1463 481 1925 481 
Q 2391 481 2648 825 
Q 2906 1169 2906 1791 
z
M 3481 434 
Q 3481 -459 3084 -895 
Q 2688 -1331 1869 -1331 
Q 1566 -1331 1297 -1286 
Q 1028 -1241 775 -1147 
L 775 -588 
Q 1028 -725 1275 -790 
Q 1522 -856 1778 -856 
Q 2344 -856 2625 -561 
Q 2906 -266 2906 331 
L 2906 616 
Q 2728 306 2450 153 
Q 2172 0 1784 0 
Q 1141 0 747 490 
Q 353 981 353 1791 
Q 353 2603 747 3093 
Q 1141 3584 1784 3584 
Q 2172 3584 2450 3431 
Q 2728 3278 2906 2969 
L 2906 3500 
L 3481 3500 
L 3481 434 
z
" transform="scale(0.015625)"/>
       <path id="DejaVuSans-31" d="M 794 531 
L 1825 531 
L 1825 4091 
L 703 3866 
L 703 4441 
L 1819 4666 
L 2450 4666 
L 2450 531 
L 3481 531 
L 3481 0 
L 794 0 
L 794 531 
z
" transform="scale(0.015625)"/>
       <path id="DejaVuSans-20" transform="scale(0.015625)"/>
       <path id="DejaVuSans-66" d="M 2375 4863 
L 2375 4384 
L 1825 4384 
Q 1516 4384 1395 4259 
Q 1275 4134 1275 3809 
L 1275 3500 
L 2222 3500 
L 2222 3053 
L 1275 3053 
L 1275 0 
L 697 0 
L 697 3053 
L 147 3053 
L 147 3500 
L 697 3500 
L 697 3744 
Q 697 4328 969 4595 
Q 1241 4863 1831 4863 
L 2375 4863 
z
" transform="scale(0.015625)"/>
       <path id="DejaVuSans-46" d="M 628 4666 
L 3309 4666 
L 3309 4134 
L 1259 4134 
L 1259 2759 
L 3109 2759 
L 3109 2228 
L 1259 2228 
L 1259 0 
L 628 0 
L 628 4666 
z
" transform="scale(0.015625)"/>
       <path id="DejaVuSans-45" d="M 628 4666 
L 3578 4666 
L 3578 4134 
L 1259 4134 
L 1259 2753 
L 3481 2753 
L 3481 2222 
L 1259 2222 
L 1259 531 
L 3634 531 
L 3634 0 
L 628 0 
L 628 4666 
z
" transform="scale(0.015625)"/>
       <path id="DejaVuSans-76" d="M 191 3500 
L 800 3500 
L 1894 563 
L 2988 3500 
L 3597 3500 
L 2284 0 
L 1503 0 
L 191 3500 
z
" transform="scale(0.015625)"/>
       <path id="DejaVuSans-61" d="M 2194 1759 
Q 1497 1759 1228 1600 
Q 959 1441 959 1056 
Q 959 750 1161 570 
Q 1363 391 1709 391 
Q 2188 391 2477 730 
Q 2766 1069 2766 1631 
L 2766 1759 
L 2194 1759 
z
M 3341 1997 
L 3341 0 
L 2766 0 
L 2766 531 
Q 2569 213 2275 61 
Q 1981 -91 1556 -91 
Q 1019 -91 701 211 
Q 384 513 384 1019 
Q 384 1609 779 1909 
Q 1175 2209 1959 2209 
L 2766 2209 
L 2766 2266 
Q 2766 2663 2505 2880 
Q 2244 3097 1772 3097 
Q 1472 3097 1187 3025 
Q 903 2953 641 2809 
L 641 3341 
Q 956 3463 1253 3523 
Q 1550 3584 1831 3584 
Q 2591 3584 2966 3190 
Q 3341 2797 3341 1997 
z
" transform="scale(0.015625)"/>
       <path id="DejaVuSans-73" d="M 2834 3397 
L 2834 2853 
Q 2591 2978 2328 3040 
Q 2066 3103 1784 3103 
Q 1356 3103 1142 2972 
Q 928 2841 928 2578 
Q 928 2378 1081 2264 
Q 1234 2150 1697 2047 
L 1894 2003 
Q 2506 1872 2764 1633 
Q 3022 1394 3022 966 
Q 3022 478 2636 193 
Q 2250 -91 1575 -91 
Q 1294 -91 989 -36 
Q 684 19 347 128 
L 347 722 
Q 666 556 975 473 
Q 1284 391 1588 391 
Q 1994 391 2212 530 
Q 2431 669 2431 922 
Q 2431 1156 2273 1281 
Q 2116 1406 1581 1522 
L 1381 1569 
Q 847 1681 609 1914 
Q 372 2147 372 2553 
Q 372 3047 722 3315 
Q 1072 3584 1716 3584 
Q 2034 3584 2315 3537 
Q 2597 3491 2834 3397 
z
" transform="scale(0.015625)"/>
       <path id="DejaVuSans-72" d="M 2631 2963 
Q 2534 3019 2420 3045 
Q 2306 3072 2169 3072 
Q 1681 3072 1420 2755 
Q 1159 2438 1159 1844 
L 1159 0 
L 581 0 
L 581 3500 
L 1159 3500 
L 1159 2956 
Q 1341 3275 1631 3429 
Q 1922 3584 2338 3584 
Q 2397 3584 2469 3576 
Q 2541 3569 2628 3553 
L 2631 2963 
z
" transform="scale(0.015625)"/>
       <path id="DejaVuSans-74" d="M 1172 4494 
L 1172 3500 
L 2356 3500 
L 2356 3053 
L 1172 3053 
L 1172 1153 
Q 1172 725 1289 603 
Q 1406 481 1766 481 
L 2356 481 
L 2356 0 
L 1766 0 
Q 1100 0 847 248 
Q 594 497 594 1153 
L 594 3053 
L 172 3053 
L 172 3500 
L 594 3500 
L 594 4494 
L 1172 4494 
z
" transform="scale(0.015625)"/>
       <path id="DejaVuSans-69" d="M 603 3500 
L 1178 3500 
L 1178 0 
L 603 0 
L 603 3500 
z
M 603 4863 
L 1178 4863 
L 1178 4134 
L 603 4134 
L 603 4863 
z
" transform="scale(0.015625)"/>
      </defs>
      <use xlink:href="#DejaVuSans-6c"/>
      <use xlink:href="#DejaVuSans-6f" x="27.783203"/>
      <use xlink:href="#DejaVuSans-67" x="88.964844"/>
      <use xlink:href="#DejaVuSans-31" x="152.441406"/>
      <use xlink:href="#DejaVuSans-30" x="216.064453"/>
      <use xlink:href="#DejaVuSans-20" x="279.6875"/>
      <use xlink:href="#DejaVuSans-6f" x="311.474609"/>
      <use xlink:href="#DejaVuSans-66" x="372.65625"/>
      <use xlink:href="#DejaVuSans-20" x="407.861328"/>
      <use xlink:href="#DejaVuSans-46" x="439.648438"/>
      <use xlink:href="#DejaVuSans-45" x="497.167969"/>
      <use xlink:href="#DejaVuSans-76" x="560.351562"/>
      <use xlink:href="#DejaVuSans-61" x="619.53125"/>
      <use xlink:href="#DejaVuSans-6c" x="680.810547"/>
      <use xlink:href="#DejaVuSans-73" x="708.59375"/>
      <use xlink:href="#DejaVuSans-20" x="760.693359"/>
      <use xlink:href="#DejaVuSans-72" x="792.480469"/>
      <use xlink:href="#DejaVuSans-61" x="833.59375"/>
      <use xlink:href="#DejaVuSans-74" x="894.873047"/>
      <use xlink:href="#DejaVuSans-69" x="934.082031"/>
      <use xlink:href="#DejaVuSans-6f" x="961.865234"/>
     </g>
    </g>
   </g>
   <g id="matplotlib.axis_2">
    <g id="ytick_1">
     <g id="line2d_7">
      <path d="M 34.16 288.453725 
L 453.192 288.453725 
" clip-path="url(#p8c73d5bbaf)" style="fill: none; stroke: #b0b0b0; stroke-width: 0.8; stroke-linecap: square"/>
     </g>
     <g id="line2d_8">
      <defs>
       <path id="m57798d1e12" d="M 0 0 
L -3.5 0 
" style="stroke: #000000; stroke-width: 0.8"/>
      </defs>
      <g>
       <use xlink:href="#m57798d1e12" x="34.16" y="288.453725" style="stroke: #000000; stroke-width: 0.8"/>
      </g>
     </g>
    </g>
    <g id="ytick_2">
     <g id="line2d_9">
      <path d="M 34.16 217.796863 
L 453.192 217.796863 
" clip-path="url(#p8c73d5bbaf)" style="fill: none; stroke: #b0b0b0; stroke-width: 0.8; stroke-linecap: square"/>
     </g>
     <g id="line2d_10">
      <g>
       <use xlink:href="#m57798d1e12" x="34.16" y="217.796863" style="stroke: #000000; stroke-width: 0.8"/>
      </g>
     </g>
    </g>
    <g id="ytick_3">
     <g id="line2d_11">
      <path d="M 34.16 147.14 
L 453.192 147.14 
" clip-path="url(#p8c73d5bbaf)" style="fill: none; stroke: #b0b0b0; stroke-width: 0.8; stroke-linecap: square"/>
     </g>
     <g id="line2d_12">
      <g>
       <use xlink:href="#m57798d1e12" x="34.16" y="147.14" style="stroke: #000000; stroke-width: 0.8"/>
      </g>
     </g>
    </g>
    <g id="ytick_4">
     <g id="line2d_13">
      <path d="M 34.16 76.483137 
L 453.192 76.483137 
" clip-path="url(#p8c73d5bbaf)" style="fill: none; stroke: #b0b0b0; stroke-width: 0.8; stroke-linecap: square"/>
     </g>
     <g id="line2d_14">
      <g>
       <use xlink:href="#m57798d1e12" x="34.16" y="76.483137" style="stroke: #000000; stroke-width: 0.8"/>
      </g>
     </g>
    </g>
    <g id="ytick_5">
     <g id="line2d_15">
      <path d="M 34.16 5.826275 
L 453.192 5.826275 
" clip-path="url(#p8c73d5bbaf)" style="fill: none; stroke: #b0b0b0; stroke-width: 0.8; stroke-linecap: square"/>
     </g>
     <g id="line2d_16">
      <g>
       <use xlink:href="#m57798d1e12" x="34.16" y="5.826275" style="stroke: #000000; stroke-width: 0.8"/>
      </g>
     </g>
    </g>
    <g id="text_5">
     <!-- proportion of trials -->
     <g transform="translate(19.000625 240.14625)rotate(-90)scale(0.2 -0.2)">
      <defs>
       <path id="DejaVuSans-70" d="M 1159 525 
L 1159 -1331 
L 581 -1331 
L 581 3500 
L 1159 3500 
L 1159 2969 
Q 1341 3281 1617 3432 
Q 1894 3584 2278 3584 
Q 2916 3584 3314 3078 
Q 3713 2572 3713 1747 
Q 3713 922 3314 415 
Q 2916 -91 2278 -91 
Q 1894 -91 1617 61 
Q 1341 213 1159 525 
z
M 3116 1747 
Q 3116 2381 2855 2742 
Q 2594 3103 2138 3103 
Q 1681 3103 1420 2742 
Q 1159 2381 1159 1747 
Q 1159 1113 1420 752 
Q 1681 391 2138 391 
Q 2594 391 2855 752 
Q 3116 1113 3116 1747 
z
" transform="scale(0.015625)"/>
       <path id="DejaVuSans-6e" d="M 3513 2113 
L 3513 0 
L 2938 0 
L 2938 2094 
Q 2938 2591 2744 2837 
Q 2550 3084 2163 3084 
Q 1697 3084 1428 2787 
Q 1159 2491 1159 1978 
L 1159 0 
L 581 0 
L 581 3500 
L 1159 3500 
L 1159 2956 
Q 1366 3272 1645 3428 
Q 1925 3584 2291 3584 
Q 2894 3584 3203 3211 
Q 3513 2838 3513 2113 
z
" transform="scale(0.015625)"/>
      </defs>
      <use xlink:href="#DejaVuSans-70"/>
      <use xlink:href="#DejaVuSans-72" x="63.476562"/>
      <use xlink:href="#DejaVuSans-6f" x="102.339844"/>
      <use xlink:href="#DejaVuSans-70" x="163.521484"/>
      <use xlink:href="#DejaVuSans-6f" x="226.998047"/>
      <use xlink:href="#DejaVuSans-72" x="288.179688"/>
      <use xlink:href="#DejaVuSans-74" x="329.292969"/>
      <use xlink:href="#DejaVuSans-69" x="368.501953"/>
      <use xlink:href="#DejaVuSans-6f" x="396.285156"/>
      <use xlink:href="#DejaVuSans-6e" x="457.466797"/>
      <use xlink:href="#DejaVuSans-20" x="520.845703"/>
      <use xlink:href="#DejaVuSans-6f" x="552.632812"/>
      <use xlink:href="#DejaVuSans-66" x="613.814453"/>
      <use xlink:href="#DejaVuSans-20" x="649.019531"/>
      <use xlink:href="#DejaVuSans-74" x="680.806641"/>
      <use xlink:href="#DejaVuSans-72" x="720.015625"/>
      <use xlink:href="#DejaVuSans-69" x="761.128906"/>
      <use xlink:href="#DejaVuSans-61" x="788.912109"/>
      <use xlink:href="#DejaVuSans-6c" x="850.191406"/>
      <use xlink:href="#DejaVuSans-73" x="877.974609"/>
     </g>
    </g>
   </g>
   <g id="line2d_17">
    <path d="M 34.16 279.143645 
L 96.949698 279.077144 
L 96.949698 279.010644 
L 100.79224 278.944143 
L 100.79224 278.877642 
L 106.015299 278.811142 
L 106.015299 278.744641 
L 115.064375 278.678141 
L 115.064375 278.61164 
L 120.203211 278.54514 
L 120.203211 278.478639 
L 125.965971 278.412138 
L 125.965971 278.345638 
L 126.517421 278.279137 
L 126.517421 278.146136 
L 128.526763 278.079636 
L 128.526763 278.013135 
L 129.694964 278.013135 
L 129.694964 277.946634 
L 129.694964 277.880134 
L 129.863683 277.880134 
L 129.863683 277.813633 
L 129.863683 277.747133 
L 131.987559 277.680632 
L 131.987559 277.48113 
L 132.916898 277.48113 
L 132.916898 277.41463 
L 132.916898 277.348129 
L 133.537507 277.281629 
L 133.537507 277.148627 
L 135.074959 277.148627 
L 135.074959 277.082127 
L 135.074959 276.949126 
L 138.112589 276.882625 
L 138.112589 276.749624 
L 138.760565 276.749624 
L 138.760565 276.683123 
L 138.760565 276.616623 
L 140.396281 276.550122 
L 140.396281 276.350621 
L 141.38246 276.28412 
L 141.38246 276.151119 
L 143.457472 276.084618 
L 143.457472 276.018118 
L 144.551256 276.018118 
L 144.551256 275.951617 
L 144.551256 275.818616 
L 146.732542 275.752115 
L 146.732542 275.685615 
L 147.364338 275.619114 
L 147.364338 275.552614 
L 147.809641 275.552614 
L 147.809641 275.486113 
L 147.809641 275.419612 
L 150.392621 275.353112 
L 150.408328 275.220111 
L 150.7106 275.15361 
L 150.7106 275.020609 
L 151.824644 275.020609 
L 151.824644 274.954108 
L 151.90582 274.821107 
L 152.31502 274.754607 
L 152.31502 274.688106 
L 153.244792 274.621606 
L 153.244792 274.555105 
L 153.763815 274.488604 
L 153.763815 274.422104 
L 154.235164 274.355603 
L 154.235164 274.289103 
L 155.438073 274.222602 
L 155.438073 274.089601 
L 156.729381 274.0231 
L 156.74592 273.690597 
L 157.671401 273.624097 
L 157.671401 273.557596 
L 158.711237 273.557596 
L 158.711237 273.491096 
L 158.810246 273.291594 
L 158.959506 273.225093 
L 158.959506 273.158593 
L 159.464288 273.092092 
L 159.464288 273.025592 
L 159.873488 272.959091 
L 159.94849 272.693089 
L 160.288333 272.693089 
L 160.288333 272.626588 
L 160.288333 272.493587 
L 161.243198 272.427087 
L 161.243198 272.360586 
L 161.944296 272.294085 
L 162.047649 272.161084 
L 162.229377 272.161084 
L 162.229377 272.094584 
L 162.229377 271.895082 
L 164.304388 271.828581 
L 164.304388 271.762081 
L 165.02914 271.69558 
L 165.02914 271.62908 
L 165.17621 271.62908 
L 165.17621 271.562579 
L 165.17621 271.496078 
L 165.557726 271.429578 
L 165.557726 271.363077 
L 166.277275 271.296577 
L 166.277275 271.230076 
L 166.533241 271.230076 
L 166.533241 271.163576 
L 166.533241 270.831073 
L 167.822399 270.764572 
L 167.822399 270.698072 
L 167.987086 270.698072 
L 167.987086 270.631571 
L 167.987086 270.56507 
L 168.507298 270.49857 
L 168.507298 270.432069 
L 168.663387 270.365569 
L 168.663387 270.299068 
L 168.940585 270.299068 
L 168.940585 270.232567 
L 168.940585 270.099566 
L 169.632012 270.033066 
L 169.632012 269.966565 
L 170.820931 269.900065 
L 170.820931 269.833564 
L 171.16463 269.833564 
L 171.16463 269.767063 
L 171.16463 269.700563 
L 171.417629 269.634062 
L 171.417629 269.567562 
L 171.557517 269.567562 
L 171.557517 269.501061 
L 171.557517 269.035557 
L 172.349029 268.969057 
L 172.349029 268.836055 
L 173.437863 268.769555 
L 173.437863 268.703054 
L 173.587494 268.636554 
L 173.587494 268.570053 
L 173.828462 268.503552 
L 173.828462 268.503552 
L 173.828462 268.437052 
L 174.151861 268.370551 
L 174.151861 268.304051 
L 174.386564 268.23755 
L 174.424041 267.971548 
L 175.007172 267.971548 
L 175.007172 267.905047 
L 175.007172 267.838547 
L 176.499053 267.772046 
L 176.499053 267.572544 
L 176.931805 267.572544 
L 176.931805 267.506044 
L 177.006901 267.306542 
L 177.459463 267.240042 
L 177.459463 267.173541 
L 177.592837 267.10704 
L 177.678645 266.641536 
L 178.760974 266.575036 
L 178.760974 266.508535 
L 179.408895 266.442035 
L 179.408895 266.375534 
L 179.582254 266.309033 
L 179.582254 266.176032 
L 180.230231 266.109532 
L 180.230231 265.976531 
L 180.467931 265.91003 
L 180.467931 265.843529 
L 181.135249 265.777029 
L 181.135249 265.444526 
L 181.786735 265.378025 
L 181.786735 265.311525 
L 182.677933 265.311525 
L 182.677933 265.245024 
L 182.677933 265.178524 
L 183.076293 265.112023 
L 183.076293 265.045522 
L 183.480001 264.979022 
L 183.480001 264.846021 
L 183.948115 264.77952 
L 183.971713 264.646519 
L 184.095908 264.646519 
L 184.095908 264.580018 
L 184.095908 264.513518 
L 185.151305 264.447017 
L 185.151305 263.715511 
L 185.771446 263.64901 
L 185.819683 263.516009 
L 186.404643 263.449509 
L 186.404643 263.383008 
L 186.807269 263.316507 
L 186.807269 263.250007 
L 187.176826 263.183506 
L 187.176826 263.117006 
L 187.380158 263.117006 
L 187.380158 263.050505 
L 187.380158 262.851003 
L 187.918842 262.784503 
L 188.006203 262.651502 
L 188.796479 262.585001 
L 188.801323 262.452 
L 189.279307 262.385499 
L 189.279307 262.252498 
L 189.787502 262.252498 
L 189.787502 262.185998 
L 189.857202 261.454491 
L 190.349681 261.387991 
L 190.420699 261.25499 
L 190.600409 261.188489 
L 190.700935 261.055488 
L 190.881286 260.988987 
L 190.92257 260.855986 
L 191.228137 260.789486 
L 191.228137 260.722985 
L 191.728546 260.722985 
L 191.728546 260.656484 
L 191.751908 260.523483 
L 191.862514 260.456983 
L 191.876467 260.12448 
L 192.027067 260.057979 
L 192.027067 259.991479 
L 192.295266 259.924978 
L 192.404434 259.592475 
L 192.956297 259.525975 
L 192.956297 259.459474 
L 193.329914 259.392973 
L 193.329914 259.193472 
L 193.599653 259.126971 
L 193.599653 259.060471 
L 193.963111 258.99397 
L 194.046331 258.860969 
L 194.359502 258.794468 
L 194.458051 258.594967 
L 195.11308 258.528466 
L 195.195956 258.395465 
L 195.270958 258.395465 
L 195.270958 258.328964 
L 195.270958 257.530957 
L 195.512532 257.464457 
L 195.512532 257.397956 
L 195.816565 257.331456 
L 195.816565 257.264955 
L 195.946846 257.264955 
L 195.946846 257.198454 
L 195.946846 257.131954 
L 196.14278 257.065453 
L 196.14278 256.998953 
L 196.447254 256.932452 
L 196.447254 256.865952 
L 196.89707 256.799451 
L 197.004196 256.66645 
L 197.131907 256.599949 
L 197.212002 256.400448 
L 197.518324 256.333947 
L 197.580388 256.134445 
L 197.721922 256.067945 
L 197.778722 255.868443 
L 198.070722 255.801942 
L 198.137483 255.668941 
L 198.199047 255.668941 
L 198.199047 255.602441 
L 198.199047 255.53594 
L 198.439754 255.53594 
L 198.439754 255.469439 
L 198.439754 255.136937 
L 198.907504 255.070436 
L 198.920976 254.870934 
L 199.246122 254.804434 
L 199.246122 254.737933 
L 199.544792 254.671433 
L 199.574822 254.471931 
L 199.952189 254.40543 
L 199.952189 254.33893 
L 200.180903 254.272429 
L 200.2432 254.072927 
L 200.356054 254.006427 
L 200.391647 253.873426 
L 200.514766 253.873426 
L 200.514766 253.806925 
L 200.514766 253.607423 
L 200.754414 253.540923 
L 200.859208 253.407922 
L 200.926769 253.341421 
L 200.926769 253.27492 
L 201.158122 253.20842 
L 201.239518 253.008918 
L 201.44896 252.942418 
L 201.44896 252.875917 
L 201.873393 252.809416 
L 201.982166 251.745407 
L 202.342359 251.678907 
L 202.342359 251.612406 
L 202.520262 251.545905 
L 202.520262 251.479405 
L 202.796074 251.412904 
L 202.796074 251.346404 
L 203.299563 251.279903 
L 203.299563 251.213403 
L 203.52485 251.146902 
L 203.52485 250.9474 
L 203.895756 250.8809 
L 203.92321 250.747899 
L 204.326918 250.681398 
L 204.36228 250.548397 
L 204.599098 250.548397 
L 204.599098 250.481896 
L 204.599098 250.215894 
L 204.81863 250.149393 
L 204.81863 250.082893 
L 205.119453 250.016392 
L 205.150962 249.81689 
L 205.591787 249.75039 
L 205.675691 249.617389 
L 205.85043 249.550888 
L 205.85043 249.484388 
L 205.998222 249.484388 
L 205.998222 249.417887 
L 206.108592 249.018884 
L 206.27852 248.952383 
L 206.374174 248.752881 
L 206.593801 248.686381 
L 206.593801 248.61988 
L 206.80029 248.553379 
L 206.887225 248.287377 
L 207.092006 248.220877 
L 207.095345 248.021375 
L 207.244824 248.021375 
L 207.244824 247.954874 
L 207.270113 247.821873 
L 207.465623 247.821873 
L 207.465623 247.755373 
L 207.531076 247.555871 
L 207.664895 247.48937 
L 207.743321 247.356369 
L 207.898375 247.356369 
L 207.898375 247.289869 
L 208.00111 247.156867 
L 208.126655 247.090367 
L 208.227075 246.624863 
L 208.377679 246.558362 
L 208.377679 246.491862 
L 209.130318 246.425361 
L 209.235294 246.092858 
L 209.309282 246.026358 
L 209.383087 245.893356 
L 209.540635 245.826856 
L 209.64824 245.560854 
L 209.704535 245.494353 
L 209.810374 245.361352 
L 210.088699 245.294851 
L 210.088699 245.228351 
L 210.634419 245.16185 
L 210.740133 243.299834 
L 211.115641 243.233333 
L 211.159772 243.100332 
L 211.86217 243.033832 
L 211.914431 242.90083 
L 212.020643 242.90083 
L 212.020643 242.83433 
L 212.087636 242.701329 
L 212.26053 242.634828 
L 212.3535 242.435326 
L 212.442089 242.368826 
L 212.46701 242.235825 
L 213.395599 242.169324 
L 213.481195 241.969822 
L 213.644503 241.903322 
L 213.737761 241.70382 
L 213.803214 241.70382 
L 213.803214 241.637319 
L 213.909489 241.371317 
L 214.176831 241.371317 
L 214.176831 241.304817 
L 214.176831 240.972314 
L 214.44657 240.905813 
L 214.44657 240.839313 
L 214.579188 240.839313 
L 214.579188 240.772812 
L 214.678942 240.57331 
L 214.805991 240.50681 
L 214.877462 240.307308 
L 215.028263 240.240807 
L 215.131697 239.841804 
L 215.456843 239.775303 
L 215.522296 239.642302 
L 215.634072 239.575802 
L 215.634072 239.4428 
L 215.857477 239.3763 
L 215.857477 239.309799 
L 216.054624 239.243299 
L 216.117875 238.644794 
L 216.556945 238.578293 
L 216.599097 238.445292 
L 216.792397 238.378791 
L 216.833998 238.112789 
L 217.022477 238.046288 
L 217.127422 237.846787 
L 217.217372 237.780286 
L 217.286012 237.647285 
L 217.345627 237.647285 
L 217.345627 237.580784 
L 217.345627 237.447783 
L 217.539041 237.381283 
L 217.640008 236.982279 
L 217.660559 236.982279 
L 217.660559 236.915779 
L 217.697394 236.649776 
L 217.866359 236.583276 
L 217.966113 236.383774 
L 217.983534 236.317273 
L 217.995668 236.184272 
L 218.192887 236.117772 
L 218.294261 235.652268 
L 218.419875 235.585767 
L 218.501359 235.452766 
L 218.625639 235.386265 
L 218.721472 235.120263 
L 218.954339 235.053762 
L 219.00844 234.920761 
L 219.138878 234.854261 
L 219.138878 234.78776 
L 219.286671 234.72126 
L 219.295005 234.521758 
L 219.50961 234.455257 
L 219.616091 234.322256 
L 219.660287 234.255755 
L 219.748876 234.056254 
L 219.962559 233.989753 
L 219.962559 233.65725 
L 220.110715 233.65725 
L 220.110715 233.59075 
L 220.133931 233.457749 
L 220.37685 233.391248 
L 220.468991 232.992245 
L 220.600231 232.925744 
L 220.600231 232.859243 
L 220.754071 232.859243 
L 220.754071 232.792743 
L 220.82329 232.593241 
L 221.029997 232.52674 
L 221.134909 232.127737 
L 221.202971 232.127737 
L 221.202971 232.061236 
L 221.312338 231.861735 
L 221.649491 231.795234 
L 221.694015 231.462731 
L 221.957261 231.396231 
L 221.957261 231.32973 
L 222.307633 231.26323 
L 222.353943 231.063728 
L 222.425376 231.063728 
L 222.425376 230.997227 
L 222.425376 230.930727 
L 222.717069 230.864226 
L 222.731544 230.731225 
L 222.829083 230.731225 
L 222.829083 230.664724 
L 222.829083 228.736208 
L 223.080764 228.669707 
L 223.140752 228.403705 
L 223.24973 228.337204 
L 223.352153 228.004701 
L 223.490115 227.938201 
L 223.568082 227.8052 
L 223.72238 227.738699 
L 223.72238 227.672198 
L 224.008675 227.605698 
L 224.091188 227.273195 
L 224.296484 227.206694 
L 224.402029 226.807691 
L 224.420764 226.74119 
L 224.420764 226.67469 
L 224.612249 226.608189 
L 224.612249 226.541689 
L 224.929681 226.475188 
L 224.934421 226.342187 
L 225.302455 226.275686 
L 225.408584 225.810182 
L 225.427913 225.743682 
L 225.512776 225.477679 
L 225.607279 225.411179 
L 225.712137 225.211677 
L 225.942002 225.145176 
L 225.997879 224.613172 
L 226.096327 224.546671 
L 226.202245 224.41367 
L 226.371496 224.34717 
L 226.418526 223.881666 
L 226.619852 223.815165 
L 226.641235 223.682164 
L 226.845139 223.682164 
L 226.845139 223.615663 
L 226.955509 223.349661 
L 227.038139 223.28316 
L 227.13367 223.017158 
L 227.277891 222.950657 
L 227.277891 222.884157 
L 227.517 222.817656 
L 227.524729 222.684655 
L 227.735752 222.618155 
L 227.822768 222.352152 
L 227.927235 222.285652 
L 227.955553 222.152651 
L 228.111867 222.08615 
L 228.217039 221.820148 
L 228.31254 221.820148 
L 228.31254 221.753647 
L 228.31254 221.421144 
L 228.459609 221.354644 
L 228.559063 221.221642 
L 228.575211 221.221642 
L 228.575211 221.155142 
L 228.66847 221.022141 
L 228.745292 220.95564 
L 228.745292 220.822639 
L 228.955895 220.756138 
L 228.988427 220.623137 
L 229.252483 220.556637 
L 229.320451 220.423636 
L 229.488675 220.357135 
L 229.557978 219.958131 
L 229.697345 219.891631 
L 229.762254 219.692129 
L 229.82894 219.692129 
L 229.82894 219.625629 
L 229.938651 219.226625 
L 230.082211 219.226625 
L 230.082211 219.160125 
L 230.13587 218.960623 
L 230.387551 218.894122 
L 230.495157 218.62812 
L 230.72488 218.561619 
L 230.824634 218.362118 
L 230.925097 218.295617 
L 231.023154 217.763612 
L 231.082975 217.697112 
L 231.172864 217.43111 
L 231.244704 217.43111 
L 231.244704 217.364609 
L 231.310901 217.032106 
L 231.481335 216.965606 
L 231.481335 215.635594 
L 231.880242 215.569093 
L 231.986822 215.236591 
L 232.060083 215.17009 
L 232.105435 215.037089 
L 232.203018 214.970588 
L 232.30538 214.505084 
L 232.480621 214.438584 
L 232.586947 214.172581 
L 232.616404 214.172581 
L 232.616404 214.106081 
L 232.719732 213.441075 
L 232.761347 213.441075 
L 232.761347 213.374574 
L 232.770009 213.175073 
L 232.889822 213.108572 
L 232.968529 212.975571 
L 233.02086 212.975571 
L 233.02086 212.90907 
L 233.02086 212.776069 
L 233.159302 212.776069 
L 233.159302 212.709569 
L 233.259056 212.244065 
L 233.29175 212.177564 
L 233.397636 211.978062 
L 233.454222 211.911562 
L 233.556347 211.379557 
L 233.639682 211.313057 
L 233.639682 211.246556 
L 233.758425 211.246556 
L 233.758425 211.180055 
L 233.820558 211.047054 
L 234.024462 210.980554 
L 234.024462 210.847552 
L 234.224725 210.781052 
L 234.224725 210.714551 
L 234.49142 210.648051 
L 234.584678 210.448549 
L 234.676047 210.382048 
L 234.740012 210.249047 
L 234.992304 210.182547 
L 235.101363 209.052037 
L 235.293487 208.985536 
L 235.383941 208.653033 
L 235.476023 208.586533 
L 235.497391 208.320531 
L 235.621695 208.25403 
L 235.723286 207.921527 
L 235.847792 207.855027 
L 235.937032 207.522524 
L 236.098211 207.456023 
L 236.117532 207.256521 
L 236.290282 207.190021 
L 236.372008 206.591516 
L 236.459305 206.525015 
L 236.556744 206.325513 
L 236.64986 206.259013 
L 236.70931 205.92651 
L 236.861616 205.860009 
L 236.964792 205.594007 
L 237.111862 205.527506 
L 237.153355 205.261504 
L 237.320722 205.195003 
L 237.376392 205.062002 
L 237.541535 204.995502 
L 237.64068 204.396997 
L 237.801944 204.330496 
L 237.89328 204.197495 
L 238.053625 204.130994 
L 238.097667 203.997993 
L 238.192544 203.997993 
L 238.192544 203.931493 
L 238.209201 203.332987 
L 238.507476 203.266487 
L 238.594229 203.000484 
L 238.711104 202.933984 
L 238.763194 202.800983 
L 239.039804 202.734482 
L 239.130442 202.335479 
L 239.277558 202.335479 
L 239.277558 202.268978 
L 239.293609 202.135977 
L 239.440104 202.069476 
L 239.513447 201.603972 
L 239.637441 201.537472 
L 239.714744 201.204969 
L 239.802822 201.138468 
L 239.869532 201.005467 
L 239.935004 200.938967 
L 240.011711 200.539963 
L 240.107286 200.473463 
L 240.215204 200.007958 
L 240.278263 200.007958 
L 240.278263 199.941458 
L 240.378017 199.409453 
L 240.409859 199.342953 
L 240.507204 198.810948 
L 240.552574 198.744448 
L 240.651626 198.345444 
L 240.693078 198.278943 
L 240.693078 198.212443 
L 240.809475 198.212443 
L 240.809475 198.145942 
L 240.919041 197.946441 
L 241.106998 197.87994 
L 241.204738 197.480937 
L 241.268656 197.480937 
L 241.268656 197.414436 
L 241.361339 197.214934 
L 241.396444 197.214934 
L 241.396444 197.148434 
L 241.487708 196.882431 
L 241.600988 196.815931 
L 241.67972 196.483428 
L 241.832071 196.416927 
L 241.93199 196.150925 
L 242.0093 196.084424 
L 242.098633 195.751922 
L 242.2086 195.751922 
L 242.2086 195.685421 
L 242.308685 195.286418 
L 242.395988 195.219917 
L 242.50559 194.820913 
L 242.608899 194.754413 
L 242.705283 194.554911 
L 242.743344 194.488411 
L 242.743344 194.355409 
L 242.873933 194.288909 
L 242.979233 193.756904 
L 243.031672 193.690404 
L 243.140513 193.357901 
L 243.17333 193.2914 
L 243.251793 192.958897 
L 243.292321 192.892397 
L 243.292321 192.825896 
L 243.420759 192.759396 
L 243.445533 192.493393 
L 243.676 192.493393 
L 243.676 192.426893 
L 243.676 189.966371 
L 243.826004 189.966371 
L 243.826004 189.899871 
L 243.908246 189.76687 
L 243.959112 189.700369 
L 243.977892 189.500867 
L 244.123786 189.434367 
L 244.215777 189.234865 
L 244.394976 189.168364 
L 244.457232 188.968863 
L 244.558561 188.902362 
L 244.667179 188.436858 
L 244.782359 188.370358 
L 244.884024 188.104355 
L 244.903752 188.104355 
L 244.903752 188.037855 
L 244.982034 187.838353 
L 245.020339 187.771852 
L 245.119913 187.306348 
L 245.152407 187.306348 
L 245.152407 187.239848 
L 245.225308 186.840844 
L 245.347305 186.840844 
L 245.347305 186.774344 
L 245.430023 186.508341 
L 245.586213 186.441841 
L 245.661634 186.042837 
L 245.904852 186.042837 
L 245.904852 185.976337 
L 245.961333 185.776835 
L 246.030775 185.776835 
L 246.030775 185.710334 
L 246.125075 185.24483 
L 246.292932 185.17833 
L 246.339309 184.646325 
L 246.412044 184.579825 
L 246.483027 184.380323 
L 246.589555 184.313822 
L 246.694875 183.914819 
L 246.930604 183.848318 
L 246.999808 183.648817 
L 247.087445 183.582316 
L 247.108043 183.382814 
L 247.218412 183.382814 
L 247.218412 183.316314 
L 247.218412 182.983811 
L 247.33838 182.91731 
L 247.440375 182.784309 
L 247.480105 182.717809 
L 247.499437 182.451806 
L 247.684908 182.385306 
L 247.784827 181.986302 
L 247.961795 181.986302 
L 247.961795 181.919802 
L 248.058391 181.387797 
L 248.274812 181.321296 
L 248.38578 180.855792 
L 248.434705 180.789292 
L 248.525884 180.456789 
L 248.582669 180.390288 
L 248.671258 180.057785 
L 248.700276 180.057785 
L 248.700276 179.991285 
L 248.80247 179.45928 
L 248.883875 179.39278 
L 248.981317 179.126777 
L 249.065616 179.060277 
L 249.159456 178.727774 
L 249.422128 178.661273 
L 249.498471 178.395271 
L 249.643896 178.32877 
L 249.739937 178.195769 
L 249.881722 178.129269 
L 249.920908 177.863266 
L 250.314649 177.796766 
L 250.387208 177.198261 
L 250.493483 177.13176 
L 250.565347 176.932258 
L 250.686472 176.865758 
L 250.785568 176.533255 
L 250.801237 176.533255 
L 250.801237 176.466754 
L 250.882559 176.200752 
L 251.04824 176.134251 
L 251.060169 176.00125 
L 251.162328 175.93475 
L 251.267537 175.469246 
L 251.322281 175.402745 
L 251.417169 175.003742 
L 251.492078 174.937241 
L 251.54294 174.671239 
L 251.634768 174.604738 
L 251.744239 174.405236 
L 251.780694 174.338736 
L 251.882678 174.072734 
L 251.929892 174.006233 
L 252.037663 173.67373 
L 252.058513 173.67373 
L 252.058513 173.60723 
L 252.162179 173.407728 
L 252.18605 173.341227 
L 252.294964 173.141725 
L 252.328252 173.075225 
L 252.328252 172.742722 
L 252.482884 172.676221 
L 252.567901 172.54322 
L 252.692009 172.47672 
L 252.692009 172.410219 
L 252.881964 172.410219 
L 252.881964 172.343719 
L 252.881964 172.277218 
L 253.085868 172.210717 
L 253.179746 172.077716 
L 253.243009 172.011216 
L 253.291164 171.811714 
L 253.46717 171.745213 
L 253.56709 171.612212 
L 253.641812 171.545712 
L 253.719608 171.41271 
L 253.795653 171.41271 
L 253.795653 171.34621 
L 253.875917 171.080208 
L 253.919262 171.013707 
L 253.970512 170.814205 
L 254.064856 170.747705 
L 254.151583 170.548203 
L 254.403264 170.481702 
L 254.462178 170.2157 
L 254.557105 170.1492 
L 254.590653 170.016198 
L 254.735596 170.016198 
L 254.735596 169.949698 
L 254.80024 169.816697 
L 254.958145 169.816697 
L 254.958145 169.750196 
L 255.005372 169.484194 
L 255.088334 169.417693 
L 255.194777 168.952189 
L 255.254903 168.885689 
L 255.354013 168.486685 
L 255.423766 168.420185 
L 255.459312 168.287183 
L 255.601729 168.287183 
L 255.601729 168.220683 
L 255.693016 167.88818 
L 255.853009 167.821679 
L 255.870665 166.624669 
L 256.021044 166.558168 
L 256.095952 166.225666 
L 256.192333 166.159165 
L 256.27928 165.893163 
L 256.411805 165.826662 
L 256.411805 165.760161 
L 256.540242 165.693661 
L 256.632117 165.427659 
L 256.694709 165.427659 
L 256.694709 165.361158 
L 256.768515 165.028655 
L 256.885838 164.962155 
L 256.964449 164.43015 
L 257.014367 164.363649 
L 257.014367 164.297149 
L 257.178512 164.230648 
L 257.255203 164.031146 
L 257.409401 164.031146 
L 257.409401 163.964646 
L 257.496777 163.632143 
L 257.585824 163.565642 
L 257.672146 163.432641 
L 257.963973 163.366141 
L 258.053282 163.100138 
L 258.096217 163.033638 
L 258.203286 162.634634 
L 258.242395 162.568134 
L 258.352546 162.235631 
L 258.475964 162.16913 
L 258.585264 161.903128 
L 258.713702 161.836627 
L 258.807214 161.637126 
L 258.859644 161.570625 
L 258.859644 161.504125 
L 259.031111 161.437624 
L 259.114556 160.573116 
L 259.204259 160.506616 
L 259.255296 160.307114 
L 259.385896 160.240614 
L 259.413077 160.041112 
L 259.576978 159.974611 
L 259.682816 159.708609 
L 259.694951 159.708609 
L 259.694951 159.642108 
L 259.748619 159.243105 
L 259.886721 159.176604 
L 259.992733 158.977103 
L 260.347308 158.910602 
L 260.347308 158.844101 
L 260.486824 158.844101 
L 260.486824 158.777601 
L 260.506861 158.445098 
L 260.645829 158.378597 
L 260.710765 157.979594 
L 260.811063 157.913093 
L 260.908546 157.647091 
L 260.928819 157.580591 
L 260.980504 157.181587 
L 261.075179 157.115087 
L 261.175098 156.849084 
L 261.354121 156.782584 
L 261.401151 156.250579 
L 261.616793 156.184078 
L 261.683475 156.051077 
L 261.905985 155.984577 
L 262.005607 155.785075 
L 262.081063 155.785075 
L 262.081063 155.718574 
L 262.08691 155.585573 
L 262.273215 155.519073 
L 262.378845 154.987068 
L 262.431869 154.920567 
L 262.455415 154.721066 
L 262.717248 154.654565 
L 262.827153 154.322062 
L 262.97527 154.255562 
L 263.0697 153.923059 
L 263.242905 153.856558 
L 263.352437 153.590556 
L 263.377036 153.524055 
L 263.378593 153.391054 
L 263.568051 153.324554 
L 263.667148 153.125052 
L 263.698872 153.058551 
L 263.804782 152.726048 
L 264.098311 152.659548 
L 264.105606 152.526547 
L 264.352032 152.460046 
L 264.409101 152.194044 
L 264.522917 152.127543 
L 264.522917 150.997033 
L 264.73698 150.930533 
L 264.790854 150.797532 
L 265.023357 150.731031 
L 265.02671 150.59803 
L 265.304149 150.531529 
L 265.367797 150.398528 
L 265.43591 150.332028 
L 265.494066 150.132526 
L 265.569135 150.066025 
L 265.679819 149.600521 
L 265.704225 149.534021 
L 265.815331 149.135017 
L 265.832663 149.068517 
L 265.841795 148.869015 
L 266.028412 148.802514 
L 266.092442 148.603013 
L 266.144289 148.536512 
L 266.246411 148.137509 
L 266.423069 148.071008 
L 266.501767 147.672005 
L 266.692909 147.605504 
L 266.773244 147.273001 
L 266.913612 147.206501 
L 266.950986 146.807497 
L 267.105776 146.740997 
L 267.148315 146.474994 
L 267.293353 146.408494 
L 267.355138 146.208992 
L 267.509385 146.208992 
L 267.509385 146.142491 
L 267.568362 145.743488 
L 267.691713 145.676987 
L 267.691713 145.543986 
L 267.868111 145.477486 
L 267.868111 145.410985 
L 268.065329 145.410985 
L 268.065329 145.344484 
L 268.136346 144.679479 
L 268.240699 144.612978 
L 268.313045 144.346976 
L 268.375311 144.280475 
L 268.434361 144.080973 
L 268.538973 144.014473 
L 268.576544 143.814971 
L 269.126045 143.748471 
L 269.159113 143.349467 
L 269.252371 143.282967 
L 269.350883 143.149965 
L 269.518174 143.083465 
L 269.536954 142.950464 
L 269.790538 142.883963 
L 269.790538 142.817463 
L 269.983853 142.750962 
L 270.006373 142.55146 
L 270.294182 142.48496 
L 270.362303 142.218957 
L 270.468927 142.152457 
L 270.579401 141.753453 
L 270.728639 141.686953 
L 270.839718 140.955446 
L 270.957516 140.888946 
L 271.01654 140.755945 
L 271.234125 140.755945 
L 271.234125 140.689444 
L 271.287153 140.489942 
L 271.497784 140.423442 
L 271.603493 140.090939 
L 271.776045 140.090939 
L 271.776045 140.024438 
L 271.859675 139.758436 
L 272.008651 139.691935 
L 272.094002 139.492434 
L 272.172551 139.425933 
L 272.236743 139.292932 
L 272.367835 139.226431 
L 272.469637 138.827428 
L 272.541972 138.760927 
L 272.614223 138.494925 
L 272.701526 138.494925 
L 272.701526 138.428424 
L 272.701526 138.361924 
L 272.862617 138.295423 
L 272.950682 138.029421 
L 273.058499 137.96292 
L 273.146675 137.630418 
L 273.175169 137.630418 
L 273.175169 137.563917 
L 273.208274 137.430916 
L 273.450222 137.364415 
L 273.555367 137.164913 
L 273.707497 137.098413 
L 273.707497 137.031912 
L 273.857876 136.965412 
L 273.961302 136.499908 
L 273.970646 136.499908 
L 273.970646 136.433407 
L 273.970646 136.366907 
L 274.10065 136.366907 
L 274.10065 136.300406 
L 274.10065 136.167405 
L 274.250975 136.100904 
L 274.348188 135.6354 
L 274.402921 135.6354 
L 274.402921 135.5689 
L 274.509564 135.369398 
L 274.552925 135.369398 
L 274.552925 135.302897 
L 274.64257 135.036895 
L 274.744694 134.970394 
L 274.850707 134.770893 
L 274.977177 134.704392 
L 274.9985 134.50489 
L 275.155736 134.43839 
L 275.250181 134.305389 
L 275.437569 134.305389 
L 275.437569 134.238888 
L 275.45685 134.105887 
L 275.712571 134.039386 
L 275.798164 133.839885 
L 275.939238 133.773384 
L 276.018974 133.507382 
L 276.164937 133.440881 
L 276.242066 133.241379 
L 276.433846 133.174879 
L 276.433846 133.108378 
L 276.589327 133.041878 
L 276.589327 132.975377 
L 276.717581 132.975377 
L 276.717581 132.908877 
L 276.803512 131.179862 
L 276.958189 131.113361 
L 277.032382 130.847359 
L 277.111746 130.780858 
L 277.191225 130.647857 
L 277.323662 130.581356 
L 277.378613 130.381855 
L 277.554129 130.381855 
L 277.554129 130.315354 
L 277.629037 129.982851 
L 277.720926 129.916351 
L 277.809847 129.384346 
L 278.045419 129.317845 
L 278.045419 129.251345 
L 278.193988 129.184844 
L 278.287773 129.051843 
L 278.482061 128.985343 
L 278.53913 128.785841 
L 278.812963 128.71934 
L 278.883352 128.519839 
L 278.946434 128.519839 
L 278.946434 128.453338 
L 279.010351 128.187336 
L 279.085011 128.120835 
L 279.194626 127.58883 
L 279.325431 127.52233 
L 279.325431 127.455829 
L 279.460783 127.389329 
L 279.464342 127.256328 
L 279.695735 127.189827 
L 279.796315 126.857324 
L 279.82964 126.857324 
L 279.82964 126.790824 
L 279.886377 126.591322 
L 280.055343 126.524821 
L 280.055343 126.458321 
L 280.259994 126.39182 
L 280.259994 126.39182 
L 280.359226 125.926316 
L 280.481956 125.859815 
L 280.555966 125.660314 
L 280.655528 125.593813 
L 280.743166 125.327811 
L 280.85774 125.26131 
L 280.966083 125.061809 
L 281.112204 124.995308 
L 281.130718 124.862307 
L 281.353778 124.862307 
L 281.353778 124.795806 
L 281.44378 124.1308 
L 281.617988 124.0643 
L 281.728325 123.731797 
L 281.764907 123.665296 
L 281.86898 123.000291 
L 282.061475 122.93379 
L 282.166307 122.667788 
L 282.291336 122.601287 
L 282.388343 122.002782 
L 282.424837 121.936281 
L 282.487404 121.80328 
L 282.661929 121.73678 
L 282.761237 121.071774 
L 282.840679 121.005273 
L 282.840679 120.938773 
L 283.101408 120.872272 
L 283.143665 120.739271 
L 283.410045 120.739271 
L 283.410045 120.67277 
L 283.518434 120.340268 
L 283.716867 120.273767 
L 283.82715 120.007765 
L 284.128747 119.941264 
L 284.239506 119.608761 
L 284.265337 119.542261 
L 284.27605 119.342759 
L 284.414968 119.342759 
L 284.414968 119.276258 
L 284.503038 119.076757 
L 284.558588 119.010256 
L 284.585432 118.877255 
L 284.711602 118.810754 
L 284.736637 118.677753 
L 284.864347 118.677753 
L 284.864347 118.611253 
L 284.883201 118.478251 
L 285.145666 118.411751 
L 285.145666 118.34525 
L 285.286452 118.27875 
L 285.369834 117.547243 
L 285.398409 117.547243 
L 285.398409 117.480743 
L 285.455642 117.14824 
L 285.553201 117.081739 
L 285.583289 116.882238 
L 285.80052 116.815737 
L 285.827831 116.682736 
L 286.077531 116.682736 
L 286.077531 116.616235 
L 286.149565 116.350233 
L 286.193878 116.350233 
L 286.193878 116.283732 
L 286.304709 115.95123 
L 286.361013 115.884729 
L 286.397927 115.552226 
L 286.525932 115.485725 
L 286.597586 115.352724 
L 286.697671 115.286224 
L 286.74759 115.086722 
L 286.88834 115.020221 
L 286.907259 114.88722 
L 287.045372 114.82072 
L 287.100656 114.554717 
L 287.198509 114.488217 
L 287.198509 114.421716 
L 287.324562 114.355216 
L 287.354544 114.089213 
L 287.524149 114.022713 
L 287.609426 113.889712 
L 287.718128 113.823211 
L 287.786285 113.557209 
L 287.959707 113.490708 
L 287.998813 113.357707 
L 288.126934 113.291206 
L 288.205736 113.091705 
L 288.279049 113.025204 
L 288.379918 112.626201 
L 288.431024 112.5597 
L 288.470198 112.426699 
L 288.819276 112.360198 
L 288.912246 111.961195 
L 289.002428 111.894694 
L 289.088644 111.628692 
L 289.162462 111.562191 
L 289.168211 111.42919 
L 289.341186 111.42919 
L 289.341186 111.36269 
L 289.404681 111.096687 
L 289.491439 111.030187 
L 289.573278 110.764185 
L 289.683722 110.764185 
L 289.683722 110.697684 
L 289.683722 110.631183 
L 289.895493 110.564683 
L 290.00603 109.966178 
L 290.035272 109.899677 
L 290.124636 109.633675 
L 290.447056 109.567174 
L 290.550819 109.234671 
L 290.90388 109.168171 
L 291.003294 108.902168 
L 291.04893 108.835668 
L 291.111453 108.636166 
L 291.20922 108.569666 
L 291.20922 108.503165 
L 291.405154 108.436664 
L 291.502644 108.104161 
L 291.652313 108.037661 
L 291.683997 107.838159 
L 292.081042 107.771659 
L 292.118613 107.173153 
L 292.22392 107.106653 
L 292.255974 106.907151 
L 292.345703 106.840651 
L 292.345703 106.77415 
L 292.549335 106.707649 
L 292.549335 106.641149 
L 292.742074 106.574648 
L 292.742074 106.441647 
L 292.992498 106.375146 
L 293.06722 106.042644 
L 293.137228 105.976143 
L 293.166927 105.776641 
L 293.388889 105.710141 
L 293.388889 105.64364 
L 293.548442 105.57714 
L 293.596679 105.377638 
L 293.752347 105.311137 
L 293.862653 105.111636 
L 293.941991 105.045135 
L 294.022086 104.646131 
L 294.111635 104.579631 
L 294.136486 104.313629 
L 294.329126 104.247128 
L 294.395703 103.848125 
L 294.565405 103.781624 
L 294.570239 103.648623 
L 294.725057 103.582122 
L 294.808944 103.382621 
L 294.947566 103.31612 
L 294.978834 103.116618 
L 295.176455 103.050118 
L 295.263506 102.784115 
L 295.489486 102.717615 
L 295.489486 102.451612 
L 295.642237 102.385112 
L 295.74558 102.052609 
L 295.815029 101.986108 
L 295.878778 101.720106 
L 296.071381 101.653606 
L 296.165374 101.454104 
L 296.296336 101.387603 
L 296.319182 101.254602 
L 296.570168 101.188101 
L 296.599658 101.0551 
L 296.732443 100.9886 
L 296.811842 100.789098 
L 297.006491 100.722597 
L 297.011397 100.589596 
L 297.365321 100.523096 
L 297.415239 100.390095 
L 297.545719 100.323594 
L 297.572209 99.658588 
L 298.040185 99.592088 
L 298.128478 99.392586 
L 298.376928 99.326085 
L 298.477932 99.126584 
L 298.580667 99.060083 
L 298.667541 98.860581 
L 298.712309 98.794081 
L 298.712309 98.72758 
L 299.0006 98.66108 
L 299.0006 98.594579 
L 299.151011 98.528078 
L 299.19061 98.129075 
L 299.409058 98.062574 
L 299.435165 97.929573 
L 299.644878 97.863073 
L 299.720361 97.59707 
L 299.95786 97.53057 
L 299.994969 97.198067 
L 300.227808 97.198067 
L 300.227808 97.131566 
L 300.300542 96.865564 
L 300.494122 96.799063 
L 300.596275 96.599562 
L 300.619964 96.533061 
L 300.655961 96.333559 
L 300.779002 96.267059 
L 300.779002 96.134058 
L 300.929794 96.067557 
L 301.013941 95.735054 
L 301.473088 95.668554 
L 301.473088 95.602053 
L 301.807542 95.535552 
L 301.874667 95.26955 
L 302.134266 95.20305 
L 302.200695 94.671045 
L 302.424179 94.604544 
L 302.441784 94.205541 
L 302.674338 94.205541 
L 302.674338 94.13904 
L 302.711277 94.006039 
L 302.808306 93.939539 
L 302.854541 93.740037 
L 303.127517 93.673536 
L 303.212684 93.141532 
L 303.423341 93.075031 
L 303.519883 92.94203 
L 303.680128 92.875529 
L 303.680128 92.809029 
L 303.906771 92.742528 
L 303.906771 92.676028 
L 304.086939 92.609527 
L 304.113047 92.410025 
L 304.555809 92.343525 
L 304.656694 91.944521 
L 304.857862 91.878021 
L 304.958168 91.612018 
L 305.112254 91.612018 
L 305.112254 91.545518 
L 305.213149 90.947013 
L 305.455299 90.880512 
L 305.547783 90.747511 
L 305.614601 90.68101 
L 305.614601 90.61451 
L 306.216751 90.548009 
L 306.216751 90.481509 
L 306.447489 90.415008 
L 306.449102 90.282007 
L 306.650448 90.215506 
L 306.70478 90.016005 
L 306.874209 90.016005 
L 306.874209 89.949504 
L 306.975757 89.816503 
L 307.132214 89.750002 
L 307.170405 89.550501 
L 307.411297 89.484 
L 307.444502 89.350999 
L 307.568295 89.284498 
L 307.622079 88.885495 
L 307.684151 88.885495 
L 307.684151 88.818994 
L 307.79104 88.486491 
L 308.040081 88.419991 
L 308.142368 88.153988 
L 308.212852 88.087488 
L 308.282444 87.821486 
L 308.516489 87.754985 
L 308.519386 87.621984 
L 308.907207 87.555483 
L 308.997711 87.422482 
L 309.083275 87.355982 
L 309.083275 87.22298 
L 309.271108 87.15648 
L 309.271108 87.089979 
L 309.460128 87.023479 
L 309.460128 86.956978 
L 309.590671 86.890478 
L 309.692421 86.757476 
L 309.759163 86.757476 
L 309.759163 86.690976 
L 309.833885 85.427465 
L 310.080096 85.360964 
L 310.166032 85.227963 
L 310.487693 85.161463 
L 310.487693 85.094962 
L 310.658252 85.028461 
L 310.745341 84.762459 
L 311.06701 84.695958 
L 311.154985 84.363456 
L 311.296827 84.296955 
L 311.385275 84.030953 
L 311.535654 84.030953 
L 311.535654 83.964452 
L 311.610562 83.631949 
L 311.808458 83.565449 
L 311.813915 83.432448 
L 311.964939 83.365947 
L 312.062738 83.232946 
L 312.214241 83.166445 
L 312.214241 83.099945 
L 312.495207 83.033444 
L 312.603514 82.634441 
L 312.94675 82.56794 
L 312.986221 82.434939 
L 313.112216 82.368438 
L 313.147391 82.235437 
L 313.35171 82.168937 
L 313.388143 81.969435 
L 313.494821 81.902934 
L 313.520928 81.769933 
L 313.745537 81.703433 
L 313.786928 81.43743 
L 313.914137 81.37093 
L 313.914137 81.237928 
L 314.083971 81.171428 
L 314.1723 80.905426 
L 314.372251 80.838925 
L 314.395359 80.705924 
L 314.616777 80.639423 
L 314.695369 80.506422 
L 315.022483 80.439922 
L 315.095232 80.173919 
L 315.447642 80.107419 
L 315.510567 79.907917 
L 316.132058 79.841416 
L 316.132058 79.774916 
L 316.396018 79.708415 
L 316.401152 79.575414 
L 316.572858 79.508913 
L 316.572858 79.442413 
L 316.818437 79.375912 
L 316.924222 79.242911 
L 317.131403 79.176411 
L 317.131403 79.10991 
L 317.317631 79.043409 
L 317.317631 78.976909 
L 317.57928 78.910408 
L 317.57928 78.843908 
L 317.834628 78.777407 
L 317.834628 78.710907 
L 318.112308 78.644406 
L 318.112308 78.577905 
L 318.250027 78.511405 
L 318.250027 78.444904 
L 318.673033 78.378404 
L 318.673033 78.311903 
L 319.119112 78.245403 
L 319.211276 78.112401 
L 319.406103 78.045901 
L 319.406103 77.9794 
L 319.878816 77.9129 
L 319.878816 77.779899 
L 320.164697 77.713398 
L 320.164697 77.646897 
L 320.601507 77.580397 
L 320.654124 77.380895 
L 320.818759 77.314394 
L 320.818759 77.314394 
L 320.818759 77.247894 
L 321.472605 77.181393 
L 321.580211 77.048392 
L 321.730215 77.048392 
L 321.730215 76.981892 
L 321.730215 76.915391 
L 321.908194 76.84889 
L 321.953828 76.516388 
L 322.550809 76.449887 
L 322.550809 76.383386 
L 323.000186 76.316886 
L 323.047612 75.65188 
L 323.409749 75.585379 
L 323.412934 75.452378 
L 323.522369 75.452378 
L 323.522369 75.385878 
L 323.583343 75.186376 
L 323.715314 75.119875 
L 323.715314 75.053375 
L 324.316975 74.986874 
L 324.316975 74.920374 
L 324.446736 74.920374 
L 324.446736 74.853873 
L 324.44976 74.654371 
L 325.032711 74.587871 
L 325.032711 74.52137 
L 325.49096 74.45487 
L 325.561894 74.321869 
L 325.839248 74.255368 
L 325.839248 74.188867 
L 326.122463 74.122367 
L 326.122463 74.055866 
L 326.387982 73.989366 
L 326.430471 73.723363 
L 326.590024 73.656863 
L 326.644534 73.523862 
L 326.815311 73.457361 
L 326.868581 73.191359 
L 327.96193 73.124858 
L 327.979131 72.991857 
L 328.139576 72.925356 
L 328.139576 72.858856 
L 328.370135 72.792355 
L 328.377227 72.659354 
L 328.886998 72.592854 
L 328.886998 72.326851 
L 329.180422 72.260351 
L 329.180422 72.19385 
L 329.453995 72.127349 
L 329.493249 71.994348 
L 329.894195 71.927848 
L 329.894195 71.861347 
L 330.60608 71.794847 
L 330.706416 71.595345 
L 331.204447 71.528844 
L 331.204447 71.462344 
L 332.094774 71.395843 
L 332.094774 71.329343 
L 332.232192 71.329343 
L 332.232192 71.262842 
L 332.300344 71.129841 
L 332.823414 71.06334 
L 332.837026 70.930339 
L 333.286098 70.863839 
L 333.286098 70.797338 
L 333.799928 70.730837 
L 333.874961 70.464835 
L 334.433125 70.398334 
L 334.433125 70.331834 
L 335.022671 70.265333 
L 335.022671 70.198833 
L 335.242276 70.198833 
L 335.242276 70.132332 
L 335.341741 69.93283 
L 335.577385 69.86633 
L 335.577385 69.799829 
L 335.996566 69.733329 
L 335.996566 69.666828 
L 336.6414 69.666828 
L 336.6414 69.600328 
L 336.6414 69.467326 
L 337.093676 69.400826 
L 337.093676 69.267825 
L 337.325641 69.201324 
L 337.391458 69.068323 
L 337.797413 69.001822 
L 337.797413 68.935322 
L 337.97832 68.935322 
L 337.97832 68.868821 
L 337.97832 68.802321 
L 338.625135 68.73582 
L 338.625135 68.536318 
L 339.068408 68.469818 
L 339.068408 68.403317 
L 339.258332 68.403317 
L 339.258332 68.336817 
L 339.258332 68.270316 
L 340.942584 68.203815 
L 340.942584 68.137315 
L 341.344007 68.070814 
L 341.344007 68.004314 
L 342.213519 67.937813 
L 342.213519 67.871313 
L 342.800744 67.871313 
L 342.800744 67.804812 
L 342.800744 67.671811 
L 343.57286 67.60531 
L 343.598213 67.472309 
L 344.602226 67.405809 
L 344.677072 67.272807 
L 346.054741 67.206307 
L 346.054741 67.139806 
L 346.955719 67.073306 
L 346.955719 67.006805 
L 347.436941 66.940304 
L 347.436941 66.807303 
L 349.238422 66.740803 
L 349.28834 66.4748 
L 349.586122 66.4083 
L 349.635467 66.275299 
L 351.082144 66.208798 
L 351.082144 66.142298 
L 352.239501 66.075797 
L 352.277041 65.876295 
L 353.310997 65.809795 
L 353.310997 65.743294 
L 353.860341 65.676794 
L 353.860341 65.610293 
L 354.496215 65.543792 
L 354.496215 65.477292 
L 355.792878 65.410791 
L 355.792878 65.344291 
L 356.089193 65.344291 
L 356.089193 65.27779 
L 356.089193 65.21129 
L 356.991597 65.144789 
L 357.015525 65.011788 
L 357.488317 65.011788 
L 357.488317 64.945287 
L 357.488317 64.878787 
L 358.706125 64.812286 
L 358.706125 64.745785 
L 359.472052 64.679285 
L 359.472052 64.479783 
L 361.433087 64.413283 
L 361.433087 64.346782 
L 363.202087 64.280281 
L 363.202087 64.213781 
L 363.554691 64.14728 
L 363.554691 64.08078 
L 366.310971 64.014279 
L 366.310971 63.947779 
L 369.516817 63.881278 
L 369.516817 63.814777 
L 370.430952 63.748277 
L 370.430952 63.681776 
L 374.882015 63.615276 
L 374.963223 63.482275 
L 379.185658 63.415774 
L 379.185658 63.349273 
L 382.199961 63.282773 
L 382.199961 63.216272 
L 386.221026 63.149772 
L 386.221026 63.083271 
L 387.250428 63.01677 
L 387.250428 62.95027 
L 390.869741 62.883769 
L 390.869741 62.817269 
L 397.141518 62.750768 
L 397.141518 62.684268 
L 398.398991 62.617767 
L 398.398991 62.551266 
L 403.149621 62.484766 
L 403.149621 62.418265 
L 407.748839 62.351765 
L 407.748839 62.285264 
L 411.697878 62.218764 
L 411.697878 62.152263 
L 436.076769 62.085762 
L 436.076769 62.019262 
L 453.192 62.019262 
L 453.192 62.019262 
" clip-path="url(#p8c73d5bbaf)" style="fill: none; stroke: #000000; stroke-width: 3; stroke-linecap: square"/>
   </g>
   <g id="line2d_18">
    <path clip-path="url(#p8c73d5bbaf)" style="fill: none; stroke: #000000; stroke-width: 3; stroke-linecap: square"/>
   </g>
   <g id="line2d_19">
    <path d="M 34.16 230.84813 
L 197.277336 230.84813 
L 197.277336 230.648111 
L 210.592046 230.648111 
L 210.592046 230.448092 
L 218.643176 230.448092 
L 218.684861 230.048053 
L 224.750861 230.048053 
L 224.750861 229.848033 
L 226.114013 229.848033 
L 226.114013 229.648014 
L 227.222473 229.648014 
L 227.222473 229.447994 
L 228.333764 229.447994 
L 228.333764 229.247975 
L 229.457346 229.247975 
L 229.457346 229.047956 
L 231.677097 229.047956 
L 231.677097 228.847936 
L 232.480235 228.847936 
L 232.480235 228.647917 
L 232.886915 228.647917 
L 232.886915 228.447897 
L 233.864397 228.447897 
L 233.864397 228.247878 
L 234.699986 228.247878 
L 234.699986 228.047858 
L 236.084148 228.047858 
L 236.084148 227.847839 
L 236.230248 227.847839 
L 236.230248 227.64782 
L 236.48019 227.64782 
L 236.48019 227.4478 
L 238.640845 227.4478 
L 238.699941 227.047761 
L 239.253137 227.047761 
L 239.253137 226.847742 
L 239.524383 226.847742 
L 239.524383 226.647722 
L 239.766908 226.647722 
L 239.768437 226.247684 
L 239.891486 226.247684 
L 239.891486 226.047664 
L 240.076834 226.047664 
L 240.076834 225.847645 
L 240.637299 225.847645 
L 240.637299 225.647625 
L 241.114596 225.647625 
L 241.114596 225.247586 
L 241.858792 225.247586 
L 241.858792 225.047567 
L 241.984178 225.047567 
L 241.984178 224.847548 
L 242.296585 224.847548 
L 242.363097 224.447509 
L 243.111769 224.447509 
L 243.111769 224.247489 
L 243.253092 224.247489 
L 243.334348 223.647431 
L 244.174748 223.647431 
L 244.174748 223.447412 
L 245.007067 223.447412 
L 245.007067 223.247392 
L 246.134659 223.247392 
L 246.134659 223.047373 
L 246.391229 223.047373 
L 246.394499 222.647334 
L 246.849736 222.647334 
L 246.849736 222.447314 
L 247.0993 222.447314 
L 247.0993 222.247295 
L 247.51882 222.247295 
L 247.51882 222.047276 
L 247.832247 222.047276 
L 247.926568 221.247198 
L 249.007022 221.247198 
L 249.007022 221.047178 
L 249.922268 221.047178 
L 249.922268 220.847159 
L 250.051998 220.847159 
L 250.14632 220.047081 
L 250.442633 220.047081 
L 250.442633 219.847062 
L 250.94765 219.847062 
L 250.94765 219.647042 
L 251.846155 219.647042 
L 251.86252 219.046984 
L 252.603666 219.046984 
L 252.603666 218.846965 
L 253.135866 218.846965 
L 253.135866 218.646945 
L 253.265601 218.646945 
L 253.305682 218.246906 
L 253.465522 218.246906 
L 253.465522 218.046887 
L 253.641429 218.046887 
L 253.731258 217.446829 
L 254.065907 217.446829 
L 254.073421 217.04679 
L 254.605149 217.04679 
L 254.69947 216.446732 
L 254.76902 216.446732 
L 254.871098 215.646654 
L 255.525433 215.646654 
L 255.525433 215.446634 
L 256.28849 215.446634 
L 256.28849 215.246615 
L 256.514021 215.246615 
L 256.514021 215.046596 
L 256.677033 215.046596 
L 256.70158 214.646557 
L 256.794415 214.646557 
L 256.794415 214.446537 
L 256.999416 214.446537 
L 256.999416 214.246518 
L 257.465477 214.246518 
L 257.465477 214.046498 
L 257.672652 214.046498 
L 257.672652 213.846479 
L 257.829171 213.846479 
L 257.829171 213.64646 
L 258.619057 213.64646 
L 258.626572 213.246421 
L 259.508846 213.246421 
L 259.614479 212.646362 
L 259.802992 212.646362 
L 259.857353 212.246324 
L 260.020366 212.246324 
L 260.078584 211.846285 
L 260.288445 211.846285 
L 260.359079 211.446246 
L 260.453401 211.446246 
L 260.453401 211.246226 
L 260.757889 211.246226 
L 260.757889 211.046207 
L 261.062121 211.046207 
L 261.062121 210.846188 
L 261.227437 210.846188 
L 261.227437 210.646168 
L 261.48667 210.646168 
L 261.580992 210.246129 
L 261.806006 210.246129 
L 261.806006 210.04611 
L 262.099884 210.04611 
L 262.099884 209.646071 
L 262.493121 209.646071 
L 262.542532 209.246032 
L 262.623057 209.246032 
L 262.623057 209.046013 
L 262.839566 209.046013 
L 262.880242 208.445955 
L 263.043255 208.445955 
L 263.043255 208.245935 
L 263.352169 208.245935 
L 263.352169 208.045916 
L 263.541239 208.045916 
L 263.541239 207.845896 
L 263.850193 207.845896 
L 263.885089 207.445857 
L 264.264404 207.445857 
L 264.372988 207.045819 
L 264.380502 207.045819 
L 264.427417 206.64578 
L 264.574798 206.64578 
L 264.574798 206.44576 
L 264.922852 206.44576 
L 264.922852 206.045721 
L 265.07076 206.045721 
L 265.160035 205.645683 
L 265.500579 205.645683 
L 265.508093 205.245644 
L 265.832514 205.245644 
L 265.832514 205.045624 
L 266.666205 205.045624 
L 266.696432 204.645585 
L 266.858771 204.645585 
L 266.960106 204.045527 
L 267.04321 204.045527 
L 267.04321 203.845508 
L 267.425016 203.845508 
L 267.425016 203.645488 
L 267.62203 203.645488 
L 267.630872 203.245449 
L 267.983003 203.245449 
L 267.983003 203.04543 
L 268.473133 203.04543 
L 268.491547 202.645391 
L 268.817534 202.645391 
L 268.911856 202.245352 
L 269.357263 202.245352 
L 269.366105 201.845313 
L 269.506693 201.845313 
L 269.506693 201.645294 
L 270.009538 201.645294 
L 270.009538 201.445275 
L 270.164556 201.445275 
L 270.24508 200.845216 
L 270.476841 200.845216 
L 270.476841 200.645197 
L 270.639854 200.645197 
L 270.639854 200.445177 
L 271.212673 200.445177 
L 271.293197 200.045139 
L 271.500125 200.045139 
L 271.514604 199.44508 
L 271.640502 199.44508 
L 271.734824 198.645003 
L 271.907797 198.645003 
L 271.907797 198.444983 
L 272.246233 198.444983 
L 272.326757 198.044944 
L 272.516098 198.044944 
L 272.516098 197.844925 
L 272.831443 197.844925 
L 272.838957 197.444886 
L 273.032427 197.444886 
L 273.032427 197.244867 
L 273.25838 197.244867 
L 273.295017 196.844828 
L 273.501084 196.844828 
L 273.501084 196.644808 
L 273.692346 196.644808 
L 273.692346 196.444789 
L 273.989939 196.444789 
L 273.989939 196.244769 
L 274.25133 196.244769 
L 274.297999 195.444692 
L 274.416589 195.444692 
L 274.480794 195.044653 
L 274.574755 195.044653 
L 274.574755 194.844633 
L 274.737768 194.844633 
L 274.737768 194.644614 
L 274.993612 194.644614 
L 275.03025 194.244575 
L 275.528912 194.244575 
L 275.528912 194.044556 
L 275.654411 194.044556 
L 275.725171 193.444497 
L 276.562472 193.444497 
L 276.562472 193.244478 
L 276.724116 193.244478 
L 276.724116 193.044459 
L 276.839692 193.044459 
L 276.844417 192.64442 
L 277.028697 192.64442 
L 277.118063 191.244284 
L 277.965717 191.244284 
L 277.965717 191.044264 
L 278.232254 191.044264 
L 278.326576 190.444206 
L 278.395267 190.444206 
L 278.489588 189.844148 
L 278.610798 189.844148 
L 278.712465 189.444109 
L 279.122148 189.444109 
L 279.183225 189.04407 
L 279.377944 189.04407 
L 279.377944 188.844051 
L 279.579232 188.844051 
L 279.659756 188.444012 
L 279.700949 188.444012 
L 279.700949 188.243992 
L 279.867306 188.243992 
L 279.962144 187.643934 
L 280.058567 187.643934 
L 280.058567 187.443915 
L 280.170265 187.443915 
L 280.220467 187.043876 
L 280.34603 187.043876 
L 280.34603 186.843856 
L 280.629026 186.843856 
L 280.657066 186.443817 
L 281.031183 186.443817 
L 281.031183 186.243798 
L 281.203825 186.243798 
L 281.306352 185.64374 
L 281.318012 185.64374 
L 281.353778 185.043682 
L 281.442729 185.043682 
L 281.442729 184.843662 
L 281.666789 184.843662 
L 281.721043 184.243604 
L 281.922765 184.243604 
L 282.003289 183.843565 
L 282.246163 183.843565 
L 282.253677 183.443526 
L 282.409175 183.443526 
L 282.41669 183.043487 
L 282.665047 183.043487 
L 282.745571 182.24341 
L 282.782208 182.24341 
L 282.782208 182.04339 
L 283.195353 182.04339 
L 283.229045 181.643351 
L 283.360333 181.643351 
L 283.396606 181.043293 
L 283.47713 181.043293 
L 283.47713 180.843274 
L 283.705689 180.843274 
L 283.705689 180.643254 
L 283.867261 180.643254 
L 283.89547 180.043196 
L 284.039761 180.043196 
L 284.058522 179.643157 
L 284.31493 179.643157 
L 284.31493 179.443138 
L 284.632844 179.443138 
L 284.72694 179.043099 
L 284.826651 179.043099 
L 284.913944 178.64306 
L 285.078923 178.64306 
L 285.078923 178.44304 
L 285.277924 178.44304 
L 285.277924 178.243021 
L 285.703924 178.243021 
L 285.744166 177.842982 
L 285.88701 177.842982 
L 285.995132 177.242924 
L 286.130783 177.242924 
L 286.239003 176.642866 
L 286.539616 176.642866 
L 286.539616 176.442846 
L 286.704596 176.442846 
L 286.704596 176.242827 
L 286.981285 176.242827 
L 287.017923 175.842788 
L 287.128327 175.842788 
L 287.128327 175.642768 
L 287.372384 175.642768 
L 287.463905 175.04271 
L 287.655166 175.04271 
L 287.712845 174.642671 
L 288.017465 174.642671 
L 288.097989 174.242632 
L 288.169983 174.242632 
L 288.169983 174.042613 
L 288.384439 174.042613 
L 288.47876 173.642574 
L 288.501668 173.642574 
L 288.536824 172.842496 
L 288.692929 172.842496 
L 288.712501 172.242438 
L 288.940035 172.242438 
L 288.940035 172.042419 
L 289.086783 172.042419 
L 289.086783 171.842399 
L 289.230343 171.842399 
L 289.230343 171.64238 
L 289.343066 171.64238 
L 289.425078 171.242341 
L 289.744121 171.242341 
L 289.744121 171.042322 
L 289.988152 171.042322 
L 289.988152 170.842302 
L 290.391183 170.842302 
L 290.447022 170.442263 
L 290.851068 170.442263 
L 290.880357 170.042224 
L 291.021712 170.042224 
L 291.021712 169.842205 
L 291.143668 169.842205 
L 291.192873 169.442166 
L 291.424743 169.442166 
L 291.527877 169.042127 
L 291.561819 169.042127 
L 291.661784 168.24205 
L 291.688622 168.24205 
L 291.75308 167.842011 
L 291.899186 167.842011 
L 291.936953 167.441972 
L 292.09536 167.441972 
L 292.09536 167.241952 
L 292.253232 167.241952 
L 292.354198 166.641894 
L 292.398347 166.641894 
L 292.405862 166.241855 
L 292.577034 166.241855 
L 292.577034 166.041836 
L 292.709902 166.041836 
L 292.769341 165.641797 
L 292.932746 165.641797 
L 292.98507 165.241758 
L 293.340765 165.241758 
L 293.340765 165.041739 
L 293.637394 165.041739 
L 293.743462 164.44168 
L 293.857874 164.44168 
L 293.857874 164.241661 
L 294.01863 164.241661 
L 294.01863 164.041642 
L 294.378527 164.041642 
L 294.378527 163.641603 
L 294.499951 163.641603 
L 294.499951 163.441583 
L 295.088375 163.441583 
L 295.192827 163.041544 
L 295.219318 163.041544 
L 295.313639 162.441486 
L 295.397754 162.441486 
L 295.504901 161.841428 
L 295.804177 161.841428 
L 295.813018 161.441389 
L 295.954681 161.441389 
L 295.954681 161.24137 
L 296.207208 161.24137 
L 296.253187 160.641311 
L 296.329976 160.641311 
L 296.334525 160.241272 
L 296.975057 160.241272 
L 297.026456 159.641214 
L 297.382642 159.641214 
L 297.438678 159.241175 
L 297.673272 159.241175 
L 297.724052 158.641117 
L 298.354711 158.641117 
L 298.416202 158.241078 
L 298.525926 158.241078 
L 298.534768 157.841039 
L 298.652129 157.841039 
L 298.757742 157.441001 
L 298.789472 157.441001 
L 298.809937 156.840942 
L 299.1499 156.840942 
L 299.240741 156.240884 
L 299.298944 156.240884 
L 299.298944 156.040865 
L 299.424488 156.040865 
L 299.432002 155.640826 
L 299.698945 155.640826 
L 299.717384 155.240787 
L 299.827234 155.240787 
L 299.849831 154.640729 
L 300.198017 154.640729 
L 300.265744 154.24069 
L 300.692753 154.24069 
L 300.765501 153.640631 
L 300.884014 153.640631 
L 300.887594 153.040573 
L 301.07646 153.040573 
L 301.101275 152.440515 
L 301.190499 152.440515 
L 301.231577 152.040476 
L 301.351629 152.040476 
L 301.440526 151.440418 
L 301.477163 151.440418 
L 301.477163 151.240398 
L 301.799061 151.240398 
L 301.880195 150.64034 
L 302.172085 150.64034 
L 302.172085 150.440321 
L 302.575116 150.440321 
L 302.609277 150.040282 
L 302.887385 150.040282 
L 302.887385 149.840262 
L 303.043208 149.840262 
L 303.043208 149.640243 
L 303.198666 149.640243 
L 303.207508 149.240204 
L 303.351559 149.240204 
L 303.419993 148.640146 
L 303.695162 148.640146 
L 303.695162 148.440126 
L 303.947745 148.440126 
L 303.947745 148.240107 
L 304.083118 148.240107 
L 304.162275 147.840068 
L 304.198913 147.840068 
L 304.198913 147.640049 
L 304.437444 147.640049 
L 304.474082 147.24001 
L 304.893834 147.24001 
L 304.906262 146.839971 
L 305.110086 146.839971 
L 305.169003 146.239913 
L 305.309293 146.239913 
L 305.309293 146.039893 
L 305.749201 146.039893 
L 305.749201 145.839874 
L 306.014042 145.839874 
L 306.022883 145.439835 
L 306.147863 145.439835 
L 306.147863 145.239815 
L 306.544884 145.239815 
L 306.639206 144.039699 
L 306.792944 144.039699 
L 306.817296 143.63966 
L 307.195975 143.63966 
L 307.195975 143.439641 
L 307.605244 143.439641 
L 307.699565 142.839582 
L 307.90318 142.839582 
L 307.90318 142.639563 
L 308.058896 142.639563 
L 308.092733 142.239524 
L 308.564576 142.239524 
L 308.564576 142.039505 
L 308.703977 142.039505 
L 308.703977 141.839485 
L 308.835016 141.839485 
L 308.871653 141.239427 
L 309.13206 141.239427 
L 309.144781 140.839388 
L 309.514693 140.839388 
L 309.566575 140.439349 
L 309.640576 140.439349 
L 309.640576 140.23933 
L 309.789862 140.23933 
L 309.789862 140.03931 
L 310.558793 140.03931 
L 310.566307 139.639271 
L 310.908109 139.639271 
L 310.908109 139.439252 
L 311.475592 139.439252 
L 311.475592 139.239233 
L 311.619152 139.239233 
L 311.687028 138.439155 
L 312.018319 138.439155 
L 312.018319 138.239135 
L 312.217875 138.239135 
L 312.300752 137.639077 
L 312.38195 137.639077 
L 312.38195 137.439058 
L 312.949434 137.439058 
L 312.949434 137.239038 
L 313.078679 137.239038 
L 313.078679 137.039019 
L 313.542353 137.039019 
L 313.542353 136.838999 
L 314.187433 136.838999 
L 314.187433 136.63898 
L 315.116127 136.63898 
L 315.116127 136.438961 
L 315.683611 136.438961 
L 315.683611 136.238941 
L 316.357728 136.238941 
L 316.357728 136.038922 
L 316.925212 136.038922 
L 317.002809 135.638883 
L 317.570292 135.638883 
L 317.570292 135.438863 
L 453.192 135.438863 
L 453.192 135.438863 
" clip-path="url(#p8c73d5bbaf)" style="fill: none; stroke: #00bfbf; stroke-width: 3; stroke-linecap: square"/>
   </g>
   <g id="line2d_20">
    <path clip-path="url(#p8c73d5bbaf)" style="fill: none; stroke: #00bfbf; stroke-width: 3; stroke-linecap: square"/>
   </g>
   <g id="line2d_21">
    <path d="M 34.555213 153.284075 
L 34.16 153.284075 
L 453.192 153.284075 
L 461.8 153.284075 
" clip-path="url(#p8c73d5bbaf)" style="fill: none; stroke: #bf00bf; stroke-width: 3; stroke-linecap: square"/>
   </g>
   <g id="line2d_22">
    <path d="M 34.555213 5.826275 
L 34.16 5.826275 
L 453.192 5.826275 
L 461.8 5.826275 
" clip-path="url(#p8c73d5bbaf)" style="fill: none; stroke: #ff0000; stroke-width: 3; stroke-linecap: square"/>
   </g>
   <g id="line2d_23">
    <path d="M 243.676 291.28 
L 243.676 3 
" clip-path="url(#p8c73d5bbaf)" style="fill: none; stroke: #000000; stroke-width: 1.5; stroke-linecap: square"/>
   </g>
   <g id="line2d_24">
    <path d="M 34.16 147.14 
L 453.192 147.14 
" clip-path="url(#p8c73d5bbaf)" style="fill: none; stroke-dasharray: 2,3.3; stroke-dashoffset: 0; stroke: #000000; stroke-width: 2"/>
   </g>
   <g id="patch_3">
    <path d="M 34.16 291.28 
L 34.16 3 
" style="fill: none; stroke: #000000; stroke-width: 0.8; stroke-linejoin: miter; stroke-linecap: square"/>
   </g>
   <g id="patch_4">
    <path d="M 453.192 291.28 
L 453.192 3 
" style="fill: none; stroke: #000000; stroke-width: 0.8; stroke-linejoin: miter; stroke-linecap: square"/>
   </g>
   <g id="patch_5">
    <path d="M 34.16 291.28 
L 453.192 291.28 
" style="fill: none; stroke: #000000; stroke-width: 0.8; stroke-linejoin: miter; stroke-linecap: square"/>
   </g>
   <g id="patch_6">
    <path d="M 34.16 3 
L 453.192 3 
" style="fill: none; stroke: #000000; stroke-width: 0.8; stroke-linejoin: miter; stroke-linecap: square"/>
   </g>
   <g id="text_6">
    <!-- f1-f24,5-D -->
    <g transform="translate(343.64261 285.5144)scale(0.2 -0.2)">
     <defs>
      <path id="DejaVuSans-34" d="M 2419 4116 
L 825 1625 
L 2419 1625 
L 2419 4116 
z
M 2253 4666 
L 3047 4666 
L 3047 1625 
L 3713 1625 
L 3713 1100 
L 3047 1100 
L 3047 0 
L 2419 0 
L 2419 1100 
L 313 1100 
L 313 1709 
L 2253 4666 
z
" transform="scale(0.015625)"/>
      <path id="DejaVuSans-2c" d="M 750 794 
L 1409 794 
L 1409 256 
L 897 -744 
L 494 -744 
L 750 256 
L 750 794 
z
" transform="scale(0.015625)"/>
      <path id="DejaVuSans-35" d="M 691 4666 
L 3169 4666 
L 3169 4134 
L 1269 4134 
L 1269 2991 
Q 1406 3038 1543 3061 
Q 1681 3084 1819 3084 
Q 2600 3084 3056 2656 
Q 3513 2228 3513 1497 
Q 3513 744 3044 326 
Q 2575 -91 1722 -91 
Q 1428 -91 1123 -41 
Q 819 9 494 109 
L 494 744 
Q 775 591 1075 516 
Q 1375 441 1709 441 
Q 2250 441 2565 725 
Q 2881 1009 2881 1497 
Q 2881 1984 2565 2268 
Q 2250 2553 1709 2553 
Q 1456 2553 1204 2497 
Q 953 2441 691 2322 
L 691 4666 
z
" transform="scale(0.015625)"/>
      <path id="DejaVuSans-44" d="M 1259 4147 
L 1259 519 
L 2022 519 
Q 2988 519 3436 956 
Q 3884 1394 3884 2338 
Q 3884 3275 3436 3711 
Q 2988 4147 2022 4147 
L 1259 4147 
z
M 628 4666 
L 1925 4666 
Q 3281 4666 3915 4102 
Q 4550 3538 4550 2338 
Q 4550 1131 3912 565 
Q 3275 0 1925 0 
L 628 0 
L 628 4666 
z
" transform="scale(0.015625)"/>
     </defs>
     <use xlink:href="#DejaVuSans-66"/>
     <use xlink:href="#DejaVuSans-31" x="35.205078"/>
     <use xlink:href="#DejaVuSans-2d" x="98.828125"/>
     <use xlink:href="#DejaVuSans-66" x="134.912109"/>
     <use xlink:href="#DejaVuSans-32" x="170.117188"/>
     <use xlink:href="#DejaVuSans-34" x="233.740234"/>
     <use xlink:href="#DejaVuSans-2c" x="297.363281"/>
     <use xlink:href="#DejaVuSans-35" x="329.150391"/>
     <use xlink:href="#DejaVuSans-2d" x="392.773438"/>
     <use xlink:href="#DejaVuSans-44" x="428.857422"/>
    </g>
   </g>
   <g id="text_7">
    <!-- v2.6.3 -->
    <g style="fill: #808080" transform="translate(227.99475 286.317512)scale(0.1 -0.1)">
     <defs>
      <path id="DejaVuSans-2e" d="M 684 794 
L 1344 794 
L 1344 0 
L 684 0 
L 684 794 
z
" transform="scale(0.015625)"/>
      <path id="DejaVuSans-36" d="M 2113 2584 
Q 1688 2584 1439 2293 
Q 1191 2003 1191 1497 
Q 1191 994 1439 701 
Q 1688 409 2113 409 
Q 2538 409 2786 701 
Q 3034 994 3034 1497 
Q 3034 2003 2786 2293 
Q 2538 2584 2113 2584 
z
M 3366 4563 
L 3366 3988 
Q 3128 4100 2886 4159 
Q 2644 4219 2406 4219 
Q 1781 4219 1451 3797 
Q 1122 3375 1075 2522 
Q 1259 2794 1537 2939 
Q 1816 3084 2150 3084 
Q 2853 3084 3261 2657 
Q 3669 2231 3669 1497 
Q 3669 778 3244 343 
Q 2819 -91 2113 -91 
Q 1303 -91 875 529 
Q 447 1150 447 2328 
Q 447 3434 972 4092 
Q 1497 4750 2381 4750 
Q 2619 4750 2861 4703 
Q 3103 4656 3366 4563 
z
" transform="scale(0.015625)"/>
      <path id="DejaVuSans-33" d="M 2597 2516 
Q 3050 2419 3304 2112 
Q 3559 1806 3559 1356 
Q 3559 666 3084 287 
Q 2609 -91 1734 -91 
Q 1441 -91 1130 -33 
Q 819 25 488 141 
L 488 750 
Q 750 597 1062 519 
Q 1375 441 1716 441 
Q 2309 441 2620 675 
Q 2931 909 2931 1356 
Q 2931 1769 2642 2001 
Q 2353 2234 1838 2234 
L 1294 2234 
L 1294 2753 
L 1863 2753 
Q 2328 2753 2575 2939 
Q 2822 3125 2822 3475 
Q 2822 3834 2567 4026 
Q 2313 4219 1838 4219 
Q 1578 4219 1281 4162 
Q 984 4106 628 3988 
L 628 4550 
Q 988 4650 1302 4700 
Q 1616 4750 1894 4750 
Q 2613 4750 3031 4423 
Q 3450 4097 3450 3541 
Q 3450 3153 3228 2886 
Q 3006 2619 2597 2516 
z
" transform="scale(0.015625)"/>
     </defs>
     <use xlink:href="#DejaVuSans-76"/>
     <use xlink:href="#DejaVuSans-32" x="59.179688"/>
     <use xlink:href="#DejaVuSans-2e" x="122.802734"/>
     <use xlink:href="#DejaVuSans-36" x="154.589844"/>
     <use xlink:href="#DejaVuSans-2e" x="218.212891"/>
     <use xlink:href="#DejaVuSans-33" x="250"/>
    </g>
   </g>
   <g id="legend_1">
    <g id="patch_7">
     <path d="M 48.16 136.425 
L 195.61625 136.425 
Q 199.61625 136.425 199.61625 132.425 
L 199.61625 17 
Q 199.61625 13 195.61625 13 
L 48.16 13 
Q 44.16 13 44.16 17 
L 44.16 132.425 
Q 44.16 136.425 48.16 136.425 
z
" style="fill: #ffffff; opacity: 0.2; stroke: #cccccc; stroke-linejoin: miter"/>
    </g>
    <g id="line2d_25">
     <path d="M 52.16 29.196875 
L 72.16 29.196875 
L 92.16 29.196875 
" style="fill: none; stroke: #000000; stroke-width: 3; stroke-linecap: square"/>
    </g>
    <g id="text_8">
     <!-- 1: 18/23 -->
     <g transform="translate(108.16 36.196875)scale(0.2 -0.2)">
      <defs>
       <path id="DejaVuSans-3a" d="M 750 794 
L 1409 794 
L 1409 0 
L 750 0 
L 750 794 
z
M 750 3309 
L 1409 3309 
L 1409 2516 
L 750 2516 
L 750 3309 
z
" transform="scale(0.015625)"/>
       <path id="DejaVuSans-38" d="M 2034 2216 
Q 1584 2216 1326 1975 
Q 1069 1734 1069 1313 
Q 1069 891 1326 650 
Q 1584 409 2034 409 
Q 2484 409 2743 651 
Q 3003 894 3003 1313 
Q 3003 1734 2745 1975 
Q 2488 2216 2034 2216 
z
M 1403 2484 
Q 997 2584 770 2862 
Q 544 3141 544 3541 
Q 544 4100 942 4425 
Q 1341 4750 2034 4750 
Q 2731 4750 3128 4425 
Q 3525 4100 3525 3541 
Q 3525 3141 3298 2862 
Q 3072 2584 2669 2484 
Q 3125 2378 3379 2068 
Q 3634 1759 3634 1313 
Q 3634 634 3220 271 
Q 2806 -91 2034 -91 
Q 1263 -91 848 271 
Q 434 634 434 1313 
Q 434 1759 690 2068 
Q 947 2378 1403 2484 
z
M 1172 3481 
Q 1172 3119 1398 2916 
Q 1625 2713 2034 2713 
Q 2441 2713 2670 2916 
Q 2900 3119 2900 3481 
Q 2900 3844 2670 4047 
Q 2441 4250 2034 4250 
Q 1625 4250 1398 4047 
Q 1172 3844 1172 3481 
z
" transform="scale(0.015625)"/>
       <path id="DejaVuSans-2f" d="M 1625 4666 
L 2156 4666 
L 531 -594 
L 0 -594 
L 1625 4666 
z
" transform="scale(0.015625)"/>
      </defs>
      <use xlink:href="#DejaVuSans-31"/>
      <use xlink:href="#DejaVuSans-3a" x="63.623047"/>
      <use xlink:href="#DejaVuSans-20" x="97.314453"/>
      <use xlink:href="#DejaVuSans-31" x="129.101562"/>
      <use xlink:href="#DejaVuSans-38" x="192.724609"/>
      <use xlink:href="#DejaVuSans-2f" x="256.347656"/>
      <use xlink:href="#DejaVuSans-32" x="290.039062"/>
      <use xlink:href="#DejaVuSans-33" x="353.662109"/>
     </g>
    </g>
    <g id="line2d_26">
     <path d="M 52.16 58.553125 
L 72.16 58.553125 
L 92.16 58.553125 
" style="fill: none; stroke: #00bfbf; stroke-width: 3; stroke-linecap: square"/>
    </g>
    <g id="text_9">
     <!-- -1: 6/10 -->
     <g transform="translate(108.16 65.553125)scale(0.2 -0.2)">
      <use xlink:href="#DejaVuSans-2d"/>
      <use xlink:href="#DejaVuSans-31" x="36.083984"/>
      <use xlink:href="#DejaVuSans-3a" x="99.707031"/>
      <use xlink:href="#DejaVuSans-20" x="133.398438"/>
      <use xlink:href="#DejaVuSans-36" x="165.185547"/>
      <use xlink:href="#DejaVuSans-2f" x="228.808594"/>
      <use xlink:href="#DejaVuSans-31" x="262.5"/>
      <use xlink:href="#DejaVuSans-30" x="326.123047"/>
     </g>
    </g>
    <g id="line2d_27">
     <path d="M 52.16 87.909375 
L 72.16 87.909375 
L 92.16 87.909375 
" style="fill: none; stroke: #bf00bf; stroke-width: 3; stroke-linecap: square"/>
    </g>
    <g id="text_10">
     <!-- -4: 1/3 -->
     <g transform="translate(108.16 94.909375)scale(0.2 -0.2)">
      <use xlink:href="#DejaVuSans-2d"/>
      <use xlink:href="#DejaVuSans-34" x="36.083984"/>
      <use xlink:href="#DejaVuSans-3a" x="99.707031"/>
      <use xlink:href="#DejaVuSans-20" x="133.398438"/>
      <use xlink:href="#DejaVuSans-31" x="165.185547"/>
      <use xlink:href="#DejaVuSans-2f" x="228.808594"/>
      <use xlink:href="#DejaVuSans-33" x="262.5"/>
     </g>
    </g>
    <g id="line2d_28">
     <path d="M 52.16 117.265625 
L 72.16 117.265625 
L 92.16 117.265625 
" style="fill: none; stroke: #ff0000; stroke-width: 3; stroke-linecap: square"/>
    </g>
    <g id="text_11">
     <!-- -8: 1/0 -->
     <g transform="translate(108.16 124.265625)scale(0.2 -0.2)">
      <use xlink:href="#DejaVuSans-2d"/>
      <use xlink:href="#DejaVuSans-38" x="36.083984"/>
      <use xlink:href="#DejaVuSans-3a" x="99.707031"/>
      <use xlink:href="#DejaVuSans-20" x="133.398438"/>
      <use xlink:href="#DejaVuSans-31" x="165.185547"/>
      <use xlink:href="#DejaVuSans-2f" x="228.808594"/>
      <use xlink:href="#DejaVuSans-30" x="262.5"/>
     </g>
    </g>
   </g>
  </g>
 </g>
 <defs>
  <clipPath id="p8c73d5bbaf">
   <rect x="34.16" y="3" width="419.032" height="288.28"/>
  </clipPath>
 </defs>
</svg>
