<?xml version="1.0" encoding="utf-8" standalone="no"?>
<!DOCTYPE svg PUBLIC "-//W3C//DTD SVG 1.1//EN"
  "http://www.w3.org/Graphics/SVG/1.1/DTD/svg11.dtd">
<svg xmlns:xlink="http://www.w3.org/1999/xlink" width="460.8pt" height="345.6pt" viewBox="0 0 460.8 345.6" xmlns="http://www.w3.org/2000/svg" version="1.1">
 <metadata>
  <rdf:RDF xmlns:dc="http://purl.org/dc/elements/1.1/" xmlns:cc="http://creativecommons.org/ns#" xmlns:rdf="http://www.w3.org/1999/02/22-rdf-syntax-ns#">
   <cc:Work>
    <dc:type rdf:resource="http://purl.org/dc/dcmitype/StillImage"/>
    <dc:date>2024-01-05T10:25:50.485579</dc:date>
    <dc:format>image/svg+xml</dc:format>
    <dc:creator>
     <cc:Agent>
      <dc:title>Matplotlib v3.5.1, https://matplotlib.org/</dc:title>
     </cc:Agent>
    </dc:creator>
   </cc:Work>
  </rdf:RDF>
 </metadata>
 <defs>
  <style type="text/css">*{stroke-linejoin: round; stroke-linecap: butt}</style>
 </defs>
 <g id="figure_1">
  <g id="patch_1">
   <path d="M 0 345.6 
L 460.8 345.6 
L 460.8 0 
L 0 0 
z
" style="fill: #ffffff"/>
  </g>
  <g id="axes_1">
   <g id="patch_2">
    <path d="M 34.16 291.28 
L 453.192 291.28 
L 453.192 3 
L 34.16 3 
z
" style="fill: #ffffff"/>
   </g>
   <g id="matplotlib.axis_1">
    <g id="xtick_1">
     <g id="line2d_1">
      <path d="M 114.246376 291.28 
L 114.246376 3 
" clip-path="url(#p0c4da4e604)" style="fill: none; stroke: #b0b0b0; stroke-width: 0.8; stroke-linecap: square"/>
     </g>
     <g id="line2d_2">
      <defs>
       <path id="ma19150a339" d="M 0 0 
L 0 3.5 
" style="stroke: #000000; stroke-width: 0.8"/>
      </defs>
      <g>
       <use xlink:href="#ma19150a339" x="114.246376" y="291.28" style="stroke: #000000; stroke-width: 0.8"/>
      </g>
     </g>
     <g id="text_1">
      <!-- -2 -->
      <g transform="translate(104.276064 313.476875)scale(0.2 -0.2)">
       <defs>
        <path id="DejaVuSans-2d" d="M 313 2009 
L 1997 2009 
L 1997 1497 
L 313 1497 
L 313 2009 
z
" transform="scale(0.015625)"/>
        <path id="DejaVuSans-32" d="M 1228 531 
L 3431 531 
L 3431 0 
L 469 0 
L 469 531 
Q 828 903 1448 1529 
Q 2069 2156 2228 2338 
Q 2531 2678 2651 2914 
Q 2772 3150 2772 3378 
Q 2772 3750 2511 3984 
Q 2250 4219 1831 4219 
Q 1534 4219 1204 4116 
Q 875 4013 500 3803 
L 500 4441 
Q 881 4594 1212 4672 
Q 1544 4750 1819 4750 
Q 2544 4750 2975 4387 
Q 3406 4025 3406 3419 
Q 3406 3131 3298 2873 
Q 3191 2616 2906 2266 
Q 2828 2175 2409 1742 
Q 1991 1309 1228 531 
z
" transform="scale(0.015625)"/>
       </defs>
       <use xlink:href="#DejaVuSans-2d"/>
       <use xlink:href="#DejaVuSans-32" x="36.083984"/>
      </g>
     </g>
    </g>
    <g id="xtick_2">
     <g id="line2d_3">
      <path d="M 243.676 291.28 
L 243.676 3 
" clip-path="url(#p0c4da4e604)" style="fill: none; stroke: #b0b0b0; stroke-width: 0.8; stroke-linecap: square"/>
     </g>
     <g id="line2d_4">
      <g>
       <use xlink:href="#ma19150a339" x="243.676" y="291.28" style="stroke: #000000; stroke-width: 0.8"/>
      </g>
     </g>
     <g id="text_2">
      <!-- 0 -->
      <g transform="translate(237.3135 313.476875)scale(0.2 -0.2)">
       <defs>
        <path id="DejaVuSans-30" d="M 2034 4250 
Q 1547 4250 1301 3770 
Q 1056 3291 1056 2328 
Q 1056 1369 1301 889 
Q 1547 409 2034 409 
Q 2525 409 2770 889 
Q 3016 1369 3016 2328 
Q 3016 3291 2770 3770 
Q 2525 4250 2034 4250 
z
M 2034 4750 
Q 2819 4750 3233 4129 
Q 3647 3509 3647 2328 
Q 3647 1150 3233 529 
Q 2819 -91 2034 -91 
Q 1250 -91 836 529 
Q 422 1150 422 2328 
Q 422 3509 836 4129 
Q 1250 4750 2034 4750 
z
" transform="scale(0.015625)"/>
       </defs>
       <use xlink:href="#DejaVuSans-30"/>
      </g>
     </g>
    </g>
    <g id="xtick_3">
     <g id="line2d_5">
      <path d="M 373.105624 291.28 
L 373.105624 3 
" clip-path="url(#p0c4da4e604)" style="fill: none; stroke: #b0b0b0; stroke-width: 0.8; stroke-linecap: square"/>
     </g>
     <g id="line2d_6">
      <g>
       <use xlink:href="#ma19150a339" x="373.105624" y="291.28" style="stroke: #000000; stroke-width: 0.8"/>
      </g>
     </g>
     <g id="text_3">
      <!-- 2 -->
      <g transform="translate(366.743124 313.476875)scale(0.2 -0.2)">
       <use xlink:href="#DejaVuSans-32"/>
      </g>
     </g>
    </g>
    <g id="text_4">
     <!-- log10 of FEvals ratio -->
     <g transform="translate(141.371312 336.833125)scale(0.2 -0.2)">
      <defs>
       <path id="DejaVuSans-6c" d="M 603 4863 
L 1178 4863 
L 1178 0 
L 603 0 
L 603 4863 
z
" transform="scale(0.015625)"/>
       <path id="DejaVuSans-6f" d="M 1959 3097 
Q 1497 3097 1228 2736 
Q 959 2375 959 1747 
Q 959 1119 1226 758 
Q 1494 397 1959 397 
Q 2419 397 2687 759 
Q 2956 1122 2956 1747 
Q 2956 2369 2687 2733 
Q 2419 3097 1959 3097 
z
M 1959 3584 
Q 2709 3584 3137 3096 
Q 3566 2609 3566 1747 
Q 3566 888 3137 398 
Q 2709 -91 1959 -91 
Q 1206 -91 779 398 
Q 353 888 353 1747 
Q 353 2609 779 3096 
Q 1206 3584 1959 3584 
z
" transform="scale(0.015625)"/>
       <path id="DejaVuSans-67" d="M 2906 1791 
Q 2906 2416 2648 2759 
Q 2391 3103 1925 3103 
Q 1463 3103 1205 2759 
Q 947 2416 947 1791 
Q 947 1169 1205 825 
Q 1463 481 1925 481 
Q 2391 481 2648 825 
Q 2906 1169 2906 1791 
z
M 3481 434 
Q 3481 -459 3084 -895 
Q 2688 -1331 1869 -1331 
Q 1566 -1331 1297 -1286 
Q 1028 -1241 775 -1147 
L 775 -588 
Q 1028 -725 1275 -790 
Q 1522 -856 1778 -856 
Q 2344 -856 2625 -561 
Q 2906 -266 2906 331 
L 2906 616 
Q 2728 306 2450 153 
Q 2172 0 1784 0 
Q 1141 0 747 490 
Q 353 981 353 1791 
Q 353 2603 747 3093 
Q 1141 3584 1784 3584 
Q 2172 3584 2450 3431 
Q 2728 3278 2906 2969 
L 2906 3500 
L 3481 3500 
L 3481 434 
z
" transform="scale(0.015625)"/>
       <path id="DejaVuSans-31" d="M 794 531 
L 1825 531 
L 1825 4091 
L 703 3866 
L 703 4441 
L 1819 4666 
L 2450 4666 
L 2450 531 
L 3481 531 
L 3481 0 
L 794 0 
L 794 531 
z
" transform="scale(0.015625)"/>
       <path id="DejaVuSans-20" transform="scale(0.015625)"/>
       <path id="DejaVuSans-66" d="M 2375 4863 
L 2375 4384 
L 1825 4384 
Q 1516 4384 1395 4259 
Q 1275 4134 1275 3809 
L 1275 3500 
L 2222 3500 
L 2222 3053 
L 1275 3053 
L 1275 0 
L 697 0 
L 697 3053 
L 147 3053 
L 147 3500 
L 697 3500 
L 697 3744 
Q 697 4328 969 4595 
Q 1241 4863 1831 4863 
L 2375 4863 
z
" transform="scale(0.015625)"/>
       <path id="DejaVuSans-46" d="M 628 4666 
L 3309 4666 
L 3309 4134 
L 1259 4134 
L 1259 2759 
L 3109 2759 
L 3109 2228 
L 1259 2228 
L 1259 0 
L 628 0 
L 628 4666 
z
" transform="scale(0.015625)"/>
       <path id="DejaVuSans-45" d="M 628 4666 
L 3578 4666 
L 3578 4134 
L 1259 4134 
L 1259 2753 
L 3481 2753 
L 3481 2222 
L 1259 2222 
L 1259 531 
L 3634 531 
L 3634 0 
L 628 0 
L 628 4666 
z
" transform="scale(0.015625)"/>
       <path id="DejaVuSans-76" d="M 191 3500 
L 800 3500 
L 1894 563 
L 2988 3500 
L 3597 3500 
L 2284 0 
L 1503 0 
L 191 3500 
z
" transform="scale(0.015625)"/>
       <path id="DejaVuSans-61" d="M 2194 1759 
Q 1497 1759 1228 1600 
Q 959 1441 959 1056 
Q 959 750 1161 570 
Q 1363 391 1709 391 
Q 2188 391 2477 730 
Q 2766 1069 2766 1631 
L 2766 1759 
L 2194 1759 
z
M 3341 1997 
L 3341 0 
L 2766 0 
L 2766 531 
Q 2569 213 2275 61 
Q 1981 -91 1556 -91 
Q 1019 -91 701 211 
Q 384 513 384 1019 
Q 384 1609 779 1909 
Q 1175 2209 1959 2209 
L 2766 2209 
L 2766 2266 
Q 2766 2663 2505 2880 
Q 2244 3097 1772 3097 
Q 1472 3097 1187 3025 
Q 903 2953 641 2809 
L 641 3341 
Q 956 3463 1253 3523 
Q 1550 3584 1831 3584 
Q 2591 3584 2966 3190 
Q 3341 2797 3341 1997 
z
" transform="scale(0.015625)"/>
       <path id="DejaVuSans-73" d="M 2834 3397 
L 2834 2853 
Q 2591 2978 2328 3040 
Q 2066 3103 1784 3103 
Q 1356 3103 1142 2972 
Q 928 2841 928 2578 
Q 928 2378 1081 2264 
Q 1234 2150 1697 2047 
L 1894 2003 
Q 2506 1872 2764 1633 
Q 3022 1394 3022 966 
Q 3022 478 2636 193 
Q 2250 -91 1575 -91 
Q 1294 -91 989 -36 
Q 684 19 347 128 
L 347 722 
Q 666 556 975 473 
Q 1284 391 1588 391 
Q 1994 391 2212 530 
Q 2431 669 2431 922 
Q 2431 1156 2273 1281 
Q 2116 1406 1581 1522 
L 1381 1569 
Q 847 1681 609 1914 
Q 372 2147 372 2553 
Q 372 3047 722 3315 
Q 1072 3584 1716 3584 
Q 2034 3584 2315 3537 
Q 2597 3491 2834 3397 
z
" transform="scale(0.015625)"/>
       <path id="DejaVuSans-72" d="M 2631 2963 
Q 2534 3019 2420 3045 
Q 2306 3072 2169 3072 
Q 1681 3072 1420 2755 
Q 1159 2438 1159 1844 
L 1159 0 
L 581 0 
L 581 3500 
L 1159 3500 
L 1159 2956 
Q 1341 3275 1631 3429 
Q 1922 3584 2338 3584 
Q 2397 3584 2469 3576 
Q 2541 3569 2628 3553 
L 2631 2963 
z
" transform="scale(0.015625)"/>
       <path id="DejaVuSans-74" d="M 1172 4494 
L 1172 3500 
L 2356 3500 
L 2356 3053 
L 1172 3053 
L 1172 1153 
Q 1172 725 1289 603 
Q 1406 481 1766 481 
L 2356 481 
L 2356 0 
L 1766 0 
Q 1100 0 847 248 
Q 594 497 594 1153 
L 594 3053 
L 172 3053 
L 172 3500 
L 594 3500 
L 594 4494 
L 1172 4494 
z
" transform="scale(0.015625)"/>
       <path id="DejaVuSans-69" d="M 603 3500 
L 1178 3500 
L 1178 0 
L 603 0 
L 603 3500 
z
M 603 4863 
L 1178 4863 
L 1178 4134 
L 603 4134 
L 603 4863 
z
" transform="scale(0.015625)"/>
      </defs>
      <use xlink:href="#DejaVuSans-6c"/>
      <use xlink:href="#DejaVuSans-6f" x="27.783203"/>
      <use xlink:href="#DejaVuSans-67" x="88.964844"/>
      <use xlink:href="#DejaVuSans-31" x="152.441406"/>
      <use xlink:href="#DejaVuSans-30" x="216.064453"/>
      <use xlink:href="#DejaVuSans-20" x="279.6875"/>
      <use xlink:href="#DejaVuSans-6f" x="311.474609"/>
      <use xlink:href="#DejaVuSans-66" x="372.65625"/>
      <use xlink:href="#DejaVuSans-20" x="407.861328"/>
      <use xlink:href="#DejaVuSans-46" x="439.648438"/>
      <use xlink:href="#DejaVuSans-45" x="497.167969"/>
      <use xlink:href="#DejaVuSans-76" x="560.351562"/>
      <use xlink:href="#DejaVuSans-61" x="619.53125"/>
      <use xlink:href="#DejaVuSans-6c" x="680.810547"/>
      <use xlink:href="#DejaVuSans-73" x="708.59375"/>
      <use xlink:href="#DejaVuSans-20" x="760.693359"/>
      <use xlink:href="#DejaVuSans-72" x="792.480469"/>
      <use xlink:href="#DejaVuSans-61" x="833.59375"/>
      <use xlink:href="#DejaVuSans-74" x="894.873047"/>
      <use xlink:href="#DejaVuSans-69" x="934.082031"/>
      <use xlink:href="#DejaVuSans-6f" x="961.865234"/>
     </g>
    </g>
   </g>
   <g id="matplotlib.axis_2">
    <g id="ytick_1">
     <g id="line2d_7">
      <path d="M 34.16 288.453725 
L 453.192 288.453725 
" clip-path="url(#p0c4da4e604)" style="fill: none; stroke: #b0b0b0; stroke-width: 0.8; stroke-linecap: square"/>
     </g>
     <g id="line2d_8">
      <defs>
       <path id="m4561948bda" d="M 0 0 
L -3.5 0 
" style="stroke: #000000; stroke-width: 0.8"/>
      </defs>
      <g>
       <use xlink:href="#m4561948bda" x="34.16" y="288.453725" style="stroke: #000000; stroke-width: 0.8"/>
      </g>
     </g>
    </g>
    <g id="ytick_2">
     <g id="line2d_9">
      <path d="M 34.16 217.796863 
L 453.192 217.796863 
" clip-path="url(#p0c4da4e604)" style="fill: none; stroke: #b0b0b0; stroke-width: 0.8; stroke-linecap: square"/>
     </g>
     <g id="line2d_10">
      <g>
       <use xlink:href="#m4561948bda" x="34.16" y="217.796863" style="stroke: #000000; stroke-width: 0.8"/>
      </g>
     </g>
    </g>
    <g id="ytick_3">
     <g id="line2d_11">
      <path d="M 34.16 147.14 
L 453.192 147.14 
" clip-path="url(#p0c4da4e604)" style="fill: none; stroke: #b0b0b0; stroke-width: 0.8; stroke-linecap: square"/>
     </g>
     <g id="line2d_12">
      <g>
       <use xlink:href="#m4561948bda" x="34.16" y="147.14" style="stroke: #000000; stroke-width: 0.8"/>
      </g>
     </g>
    </g>
    <g id="ytick_4">
     <g id="line2d_13">
      <path d="M 34.16 76.483137 
L 453.192 76.483137 
" clip-path="url(#p0c4da4e604)" style="fill: none; stroke: #b0b0b0; stroke-width: 0.8; stroke-linecap: square"/>
     </g>
     <g id="line2d_14">
      <g>
       <use xlink:href="#m4561948bda" x="34.16" y="76.483137" style="stroke: #000000; stroke-width: 0.8"/>
      </g>
     </g>
    </g>
    <g id="ytick_5">
     <g id="line2d_15">
      <path d="M 34.16 5.826275 
L 453.192 5.826275 
" clip-path="url(#p0c4da4e604)" style="fill: none; stroke: #b0b0b0; stroke-width: 0.8; stroke-linecap: square"/>
     </g>
     <g id="line2d_16">
      <g>
       <use xlink:href="#m4561948bda" x="34.16" y="5.826275" style="stroke: #000000; stroke-width: 0.8"/>
      </g>
     </g>
    </g>
    <g id="text_5">
     <!-- proportion of trials -->
     <g transform="translate(19.000625 240.14625)rotate(-90)scale(0.2 -0.2)">
      <defs>
       <path id="DejaVuSans-70" d="M 1159 525 
L 1159 -1331 
L 581 -1331 
L 581 3500 
L 1159 3500 
L 1159 2969 
Q 1341 3281 1617 3432 
Q 1894 3584 2278 3584 
Q 2916 3584 3314 3078 
Q 3713 2572 3713 1747 
Q 3713 922 3314 415 
Q 2916 -91 2278 -91 
Q 1894 -91 1617 61 
Q 1341 213 1159 525 
z
M 3116 1747 
Q 3116 2381 2855 2742 
Q 2594 3103 2138 3103 
Q 1681 3103 1420 2742 
Q 1159 2381 1159 1747 
Q 1159 1113 1420 752 
Q 1681 391 2138 391 
Q 2594 391 2855 752 
Q 3116 1113 3116 1747 
z
" transform="scale(0.015625)"/>
       <path id="DejaVuSans-6e" d="M 3513 2113 
L 3513 0 
L 2938 0 
L 2938 2094 
Q 2938 2591 2744 2837 
Q 2550 3084 2163 3084 
Q 1697 3084 1428 2787 
Q 1159 2491 1159 1978 
L 1159 0 
L 581 0 
L 581 3500 
L 1159 3500 
L 1159 2956 
Q 1366 3272 1645 3428 
Q 1925 3584 2291 3584 
Q 2894 3584 3203 3211 
Q 3513 2838 3513 2113 
z
" transform="scale(0.015625)"/>
      </defs>
      <use xlink:href="#DejaVuSans-70"/>
      <use xlink:href="#DejaVuSans-72" x="63.476562"/>
      <use xlink:href="#DejaVuSans-6f" x="102.339844"/>
      <use xlink:href="#DejaVuSans-70" x="163.521484"/>
      <use xlink:href="#DejaVuSans-6f" x="226.998047"/>
      <use xlink:href="#DejaVuSans-72" x="288.179688"/>
      <use xlink:href="#DejaVuSans-74" x="329.292969"/>
      <use xlink:href="#DejaVuSans-69" x="368.501953"/>
      <use xlink:href="#DejaVuSans-6f" x="396.285156"/>
      <use xlink:href="#DejaVuSans-6e" x="457.466797"/>
      <use xlink:href="#DejaVuSans-20" x="520.845703"/>
      <use xlink:href="#DejaVuSans-6f" x="552.632812"/>
      <use xlink:href="#DejaVuSans-66" x="613.814453"/>
      <use xlink:href="#DejaVuSans-20" x="649.019531"/>
      <use xlink:href="#DejaVuSans-74" x="680.806641"/>
      <use xlink:href="#DejaVuSans-72" x="720.015625"/>
      <use xlink:href="#DejaVuSans-69" x="761.128906"/>
      <use xlink:href="#DejaVuSans-61" x="788.912109"/>
      <use xlink:href="#DejaVuSans-6c" x="850.191406"/>
      <use xlink:href="#DejaVuSans-73" x="877.974609"/>
     </g>
    </g>
   </g>
   <g id="line2d_17">
    <path d="M 34.16 268.722035 
L 149.037189 268.722035 
L 149.037189 268.605966 
L 160.921701 268.605966 
L 160.921701 268.489897 
L 162.441276 268.489897 
L 162.441276 268.373829 
L 167.565476 268.373829 
L 167.565476 268.25776 
L 168.518288 268.25776 
L 168.518288 268.141691 
L 169.50454 268.141691 
L 169.50454 268.025622 
L 176.282468 268.025622 
L 176.282468 267.909553 
L 179.914001 267.909553 
L 179.914001 267.561347 
L 180.402801 267.561347 
L 180.402801 267.445278 
L 181.922376 267.445278 
L 181.922376 267.32921 
L 187.046575 267.32921 
L 187.046575 267.213141 
L 187.999388 267.213141 
L 187.999388 266.981003 
L 188.985639 266.981003 
L 188.985639 266.748866 
L 191.798514 266.748866 
L 191.798514 266.400659 
L 193.318088 266.400659 
L 193.318088 266.052453 
L 194.270901 266.052453 
L 194.270901 265.820316 
L 195.763568 265.820316 
L 195.763568 265.704247 
L 198.442288 265.704247 
L 198.442288 265.123903 
L 199.395101 265.123903 
L 199.395101 264.659628 
L 199.8839 264.659628 
L 199.8839 264.42749 
L 200.381352 264.42749 
L 200.381352 264.079284 
L 201.403475 264.079284 
L 201.403475 263.847147 
L 201.665129 263.847147 
L 201.665129 263.731078 
L 204.713801 263.731078 
L 204.713801 263.615009 
L 206.155414 263.615009 
L 206.155414 263.382872 
L 206.527675 263.382872 
L 206.527675 263.150734 
L 207.159281 263.150734 
L 207.159281 262.802528 
L 207.674988 262.802528 
L 207.674988 262.57039 
L 208.466739 262.57039 
L 208.466739 262.222184 
L 210.210912 262.222184 
L 210.210912 262.106115 
L 211.279613 262.106115 
L 211.279613 261.64184 
L 212.799188 261.64184 
L 212.799188 260.71329 
L 213.752001 260.71329 
L 213.752001 260.481152 
L 214.738252 260.481152 
L 214.738252 260.249015 
L 215.042616 260.249015 
L 215.042616 260.016877 
L 215.244667 260.016877 
L 215.264793 259.436533 
L 215.703947 259.436533 
L 215.703947 259.204396 
L 216.313324 259.204396 
L 216.313324 259.088327 
L 217.599403 259.088327 
L 217.600617 258.85619 
L 217.904169 258.85619 
L 217.923387 258.043708 
L 218.73809 258.043708 
L 218.73809 257.811571 
L 218.960268 257.811571 
L 218.960268 257.463364 
L 219.20112 257.463364 
L 219.230129 257.115158 
L 219.38849 257.115158 
L 219.423298 256.302677 
L 219.610667 256.302677 
L 219.610667 255.95447 
L 219.862452 255.95447 
L 219.862452 254.909851 
L 220.049821 254.909851 
L 220.049821 254.677714 
L 220.396909 254.677714 
L 220.396909 254.561645 
L 221.294878 254.561645 
L 221.294878 254.445576 
L 221.516181 254.445576 
L 221.536466 253.981301 
L 221.757908 253.981301 
L 221.758643 253.517026 
L 221.945277 253.517026 
L 221.945277 253.400957 
L 222.197797 253.400957 
L 222.197797 253.16882 
L 224.093254 253.16882 
L 224.1949 252.704545 
L 224.297541 252.704545 
L 224.297541 252.588476 
L 224.644595 252.588476 
L 224.644595 251.892063 
L 224.859107 251.892063 
L 224.866772 251.31172 
L 225.087207 251.31172 
L 225.087207 250.963513 
L 225.579901 250.963513 
L 225.636513 250.615307 
L 225.738324 250.615307 
L 225.801354 250.151032 
L 226.023531 250.151032 
L 226.023531 249.802826 
L 226.1464 249.802826 
L 226.207507 249.570688 
L 226.462685 249.570688 
L 226.462685 249.338551 
L 226.64038 249.338551 
L 226.64038 248.874275 
L 227.156088 248.874275 
L 227.156088 248.642138 
L 227.775913 248.642138 
L 227.88418 247.713588 
L 227.947838 247.713588 
L 227.947838 247.48145 
L 228.106357 247.48145 
L 228.106357 247.017175 
L 228.326792 247.017175 
L 228.397533 245.856487 
L 228.527349 245.856487 
L 228.61971 244.6958 
L 228.749527 244.6958 
L 228.840145 243.883318 
L 228.942693 243.883318 
L 228.977909 243.186906 
L 229.3191 243.186906 
L 229.3191 241.794081 
L 229.453254 241.794081 
L 229.541277 240.401255 
L 229.621078 240.401255 
L 229.675432 239.588774 
L 229.761712 239.588774 
L 229.859603 237.847742 
L 229.874682 237.847742 
L 229.895866 237.383467 
L 229.996368 237.383467 
L 230.08178 236.22278 
L 230.218546 236.22278 
L 230.302215 235.178161 
L 230.336746 235.178161 
L 230.412829 234.829955 
L 230.494926 234.829955 
L 230.550185 233.785336 
L 230.6577 233.785336 
L 230.6577 233.553198 
L 230.772362 233.553198 
L 230.772362 233.088923 
L 230.953332 233.088923 
L 230.992797 232.276442 
L 231.276586 232.276442 
L 231.346921 231.928235 
L 231.545934 231.928235 
L 231.643914 231.580029 
L 231.886242 231.580029 
L 231.886242 231.46396 
L 232.280287 231.46396 
L 232.280287 230.999685 
L 232.552364 230.999685 
L 232.553156 230.767548 
L 232.843324 230.767548 
L 232.881493 230.419341 
L 233.10367 230.419341 
L 233.10367 230.071135 
L 233.49584 230.071135 
L 233.542824 229.142585 
L 233.651549 229.142585 
L 233.718018 227.865828 
L 233.808125 227.865828 
L 233.873726 226.589072 
L 233.937676 226.589072 
L 234.030302 225.544453 
L 234.094161 225.544453 
L 234.125684 225.080178 
L 234.219352 225.080178 
L 234.283155 224.035559 
L 234.505332 224.035559 
L 234.613687 223.339146 
L 234.745278 223.339146 
L 234.75329 222.99094 
L 234.901854 222.99094 
L 235.002194 222.294528 
L 235.438281 222.294528 
L 235.469169 222.06239 
L 235.590613 222.06239 
L 235.590613 221.714184 
L 236.01093 221.714184 
L 236.01093 221.598115 
L 236.161013 221.598115 
L 236.161013 221.482046 
L 236.63595 221.482046 
L 236.63595 221.365977 
L 236.839943 221.365977 
L 236.940924 221.13384 
L 237.066208 221.13384 
L 237.066208 221.017771 
L 237.404487 221.017771 
L 237.496945 220.321358 
L 237.755534 220.321358 
L 237.854181 219.508877 
L 237.967612 219.508877 
L 238.076358 218.928533 
L 238.088145 218.928533 
L 238.088145 218.812464 
L 238.296793 218.812464 
L 238.403487 218.232121 
L 238.625665 218.232121 
L 238.625665 217.883914 
L 238.854432 217.883914 
L 238.94791 217.535708 
L 239.040709 217.535708 
L 239.064819 217.187502 
L 239.172646 217.187502 
L 239.172646 217.071433 
L 239.319585 217.071433 
L 239.371658 216.37502 
L 239.613204 216.37502 
L 239.613204 216.258952 
L 239.822369 216.258952 
L 239.824948 216.026814 
L 240.026875 216.026814 
L 240.05857 215.794676 
L 240.366496 215.794676 
L 240.366496 215.678608 
L 240.536581 215.678608 
L 240.64103 215.330401 
L 240.880578 215.330401 
L 240.960275 214.866126 
L 240.99728 214.866126 
L 240.99728 214.633989 
L 241.138462 214.633989 
L 241.138462 214.285783 
L 241.495305 214.285783 
L 241.577616 213.937576 
L 241.662782 213.937576 
L 241.662782 213.821507 
L 241.818941 213.821507 
L 241.818941 213.705439 
L 242.019 213.705439 
L 242.076049 213.241164 
L 242.181359 213.241164 
L 242.181359 213.125095 
L 242.405536 213.125095 
L 242.460098 212.66082 
L 242.573871 212.66082 
L 242.648687 212.428682 
L 242.834293 212.428682 
L 242.895754 212.196545 
L 243.040937 212.196545 
L 243.144521 211.964407 
L 243.155278 211.964407 
L 243.203297 211.73227 
L 243.453823 211.73227 
L 243.473073 210.919788 
L 243.601177 210.919788 
L 243.676 208.482344 
L 243.747392 208.482344 
L 243.846583 208.250207 
L 243.896435 208.250207 
L 243.986737 207.669863 
L 244.125694 207.669863 
L 244.177215 207.321656 
L 244.313666 207.321656 
L 244.406452 206.741313 
L 244.522442 206.741313 
L 244.556713 206.160969 
L 244.787026 206.160969 
L 244.861813 205.812762 
L 244.900133 205.812762 
L 244.979667 205.464556 
L 245.096413 205.464556 
L 245.171999 204.768143 
L 245.221605 204.768143 
L 245.303472 204.536006 
L 245.374235 204.536006 
L 245.376904 204.303868 
L 245.527719 204.303868 
L 245.581258 203.955662 
L 245.691517 203.955662 
L 245.691517 203.839593 
L 245.810171 203.839593 
L 245.920244 203.607456 
L 246.115945 203.607456 
L 246.115945 203.491387 
L 246.243543 203.491387 
L 246.316852 203.25925 
L 246.488874 203.25925 
L 246.543684 201.982493 
L 246.682482 201.982493 
L 246.736527 201.170012 
L 246.8477 201.170012 
L 246.931486 200.705737 
L 247.046712 200.705737 
L 247.081922 200.473599 
L 247.344906 200.473599 
L 247.439683 200.009324 
L 247.515626 200.009324 
L 247.582603 199.196843 
L 247.701192 199.196843 
L 247.708996 198.848636 
L 247.82173 198.848636 
L 247.82173 198.732568 
L 247.96252 198.732568 
L 247.96252 198.616499 
L 248.097313 198.616499 
L 248.182272 198.384361 
L 248.254472 198.384361 
L 248.308363 198.036155 
L 248.460186 198.036155 
L 248.494606 197.687949 
L 248.585871 197.687949 
L 248.681698 197.339742 
L 248.800199 197.339742 
L 248.860174 196.295123 
L 248.919321 196.295123 
L 248.984457 196.062986 
L 249.08168 196.062986 
L 249.170359 195.830848 
L 249.233591 195.830848 
L 249.233591 195.71478 
L 249.451242 195.71478 
L 249.557104 195.366573 
L 249.629887 195.366573 
L 249.629887 195.250504 
L 249.80428 195.250504 
L 249.873165 194.902298 
L 249.946613 194.902298 
L 250.055599 194.438023 
L 250.106989 194.438023 
L 250.148754 193.857679 
L 250.269348 193.857679 
L 250.326019 193.393404 
L 250.444316 193.393404 
L 250.46791 193.045198 
L 250.560934 193.045198 
L 250.618022 192.81306 
L 250.871899 192.81306 
L 250.980042 192.232717 
L 251.007182 192.232717 
L 251.035396 192.000579 
L 251.243267 192.000579 
L 251.351606 191.072029 
L 251.502677 191.072029 
L 251.502677 190.95596 
L 251.661791 190.95596 
L 251.761387 190.143479 
L 251.872058 190.143479 
L 251.893837 189.911341 
L 251.98936 189.911341 
L 252.009315 189.679204 
L 252.120654 189.679204 
L 252.121926 189.447066 
L 252.24997 189.447066 
L 252.354281 188.866722 
L 252.378044 188.866722 
L 252.378044 188.634585 
L 252.507095 188.634585 
L 252.615807 188.054241 
L 252.643055 188.054241 
L 252.669457 187.706035 
L 252.940436 187.706035 
L 253.033673 187.241759 
L 253.234704 187.241759 
L 253.317398 186.313209 
L 253.353443 186.313209 
L 253.43305 185.732865 
L 253.488687 185.732865 
L 253.575337 185.384659 
L 253.700451 185.384659 
L 253.794354 184.804315 
L 253.832566 184.804315 
L 253.9031 184.572178 
L 254.040833 184.572178 
L 254.085102 184.223971 
L 254.223048 184.223971 
L 254.271839 183.875765 
L 254.41706 183.875765 
L 254.518654 183.41149 
L 254.543873 183.41149 
L 254.628522 182.831146 
L 254.862841 182.831146 
L 254.907646 182.599009 
L 254.993768 182.599009 
L 255.097739 181.090115 
L 255.106854 181.090115 
L 255.190051 180.741908 
L 255.386766 180.741908 
L 255.487433 180.161565 
L 255.532613 180.161565 
L 255.617464 179.581221 
L 255.665348 179.581221 
L 255.681523 179.233014 
L 255.781701 179.233014 
L 255.801013 179.000877 
L 256.046606 179.000877 
L 256.11949 178.188396 
L 256.211228 178.188396 
L 256.301984 177.608052 
L 256.404332 177.608052 
L 256.472054 177.143777 
L 256.570089 177.143777 
L 256.6417 176.679502 
L 256.699393 176.679502 
L 256.766551 176.331295 
L 256.816557 176.331295 
L 256.866138 175.983089 
L 256.934746 175.983089 
L 257.045249 175.634883 
L 257.054613 175.634883 
L 257.105395 175.402745 
L 257.199384 175.402745 
L 257.22634 175.170608 
L 257.423361 175.170608 
L 257.433907 174.706332 
L 257.543949 174.706332 
L 257.614104 174.358126 
L 257.758207 174.358126 
L 257.852448 173.777782 
L 257.893229 173.777782 
L 257.966514 173.313507 
L 258.0329 173.313507 
L 258.067249 172.501026 
L 258.165013 172.501026 
L 258.251481 172.036751 
L 258.293634 172.036751 
L 258.349856 171.456407 
L 258.414008 171.456407 
L 258.494778 170.759994 
L 258.529267 170.759994 
L 258.542233 170.527857 
L 258.641265 170.527857 
L 258.736821 170.063582 
L 258.831242 170.063582 
L 258.896464 169.831444 
L 258.959888 169.831444 
L 259.029507 169.2511 
L 259.098276 169.2511 
L 259.186765 168.902894 
L 259.323775 168.902894 
L 259.357376 168.554688 
L 259.48614 168.554688 
L 259.548328 167.858275 
L 259.602279 167.858275 
L 259.602279 167.742206 
L 259.725936 167.742206 
L 259.782071 167.161863 
L 259.862875 167.161863 
L 259.927438 166.929725 
L 260.014876 166.929725 
L 260.014876 166.813656 
L 260.17267 166.813656 
L 260.213889 166.581519 
L 260.284146 166.581519 
L 260.379127 166.349381 
L 260.460754 166.349381 
L 260.460754 166.233312 
L 260.600024 166.233312 
L 260.659428 165.885106 
L 260.716038 165.885106 
L 260.798452 165.188693 
L 260.835622 165.188693 
L 260.902847 164.840487 
L 261.028497 164.840487 
L 261.134524 164.144075 
L 261.179027 164.144075 
L 261.244264 163.795868 
L 261.365033 163.795868 
L 261.42389 163.331593 
L 261.497699 163.331593 
L 261.601913 162.519112 
L 261.627535 162.519112 
L 261.737589 161.938768 
L 261.878667 161.938768 
L 261.882384 161.70663 
L 262.046425 161.70663 
L 262.109576 161.358424 
L 262.157705 161.358424 
L 262.265877 160.894149 
L 262.272515 160.894149 
L 262.371775 160.081668 
L 262.406958 160.081668 
L 262.50999 159.733461 
L 262.578363 159.733461 
L 262.675479 159.153118 
L 262.701226 159.153118 
L 262.789525 158.804911 
L 262.844468 158.804911 
L 262.844468 158.688842 
L 262.998908 158.688842 
L 263.06803 158.224567 
L 263.1571 158.224567 
L 263.256344 155.787123 
L 263.281642 155.787123 
L 263.37864 155.438917 
L 263.441365 155.438917 
L 263.551712 154.858573 
L 263.606794 154.858573 
L 263.666476 154.394298 
L 263.748812 154.394298 
L 263.836749 153.697885 
L 263.861235 153.697885 
L 263.861235 153.581817 
L 264.085406 153.581817 
L 264.131017 153.23361 
L 264.220484 153.23361 
L 264.281268 152.769335 
L 264.363885 152.769335 
L 264.451224 152.421129 
L 264.573079 152.421129 
L 264.630851 151.956854 
L 264.803408 151.956854 
L 264.908874 151.028304 
L 264.954895 151.028304 
L 264.954895 150.912235 
L 265.12093 150.912235 
L 265.12093 150.796166 
L 265.245264 150.796166 
L 265.245264 150.680097 
L 265.385823 150.680097 
L 265.437696 150.331891 
L 265.528166 150.331891 
L 265.620191 149.751547 
L 265.658502 149.751547 
L 265.658502 149.635479 
L 265.822116 149.635479 
L 265.902866 149.055135 
L 265.968688 149.055135 
L 266.022742 148.822997 
L 266.145703 148.822997 
L 266.244593 147.778378 
L 266.301452 147.778378 
L 266.356117 147.314103 
L 266.423488 147.314103 
L 266.494516 146.849828 
L 266.716146 146.849828 
L 266.810526 146.385553 
L 266.829587 146.385553 
L 266.907172 145.68914 
L 266.970627 145.68914 
L 267.069818 145.340934 
L 267.099564 145.340934 
L 267.137356 145.108797 
L 267.266344 145.108797 
L 267.330501 144.528453 
L 267.438132 144.528453 
L 267.539661 143.948109 
L 267.579069 143.948109 
L 267.669402 143.483834 
L 267.761355 143.483834 
L 267.855655 143.135627 
L 267.947188 143.135627 
L 267.961653 142.90349 
L 268.160133 142.90349 
L 268.25225 142.439215 
L 268.283478 142.439215 
L 268.388961 142.207077 
L 268.43784 142.207077 
L 268.504025 141.858871 
L 268.56627 141.858871 
L 268.56627 141.742802 
L 268.686552 141.742802 
L 268.788818 141.510665 
L 268.814905 141.510665 
L 268.83191 141.162458 
L 269.031506 141.162458 
L 269.093864 140.582115 
L 269.17478 140.582115 
L 269.214103 140.11784 
L 269.327493 140.11784 
L 269.434722 139.189289 
L 269.44083 139.189289 
L 269.450476 138.841083 
L 269.553747 138.841083 
L 269.659736 138.492877 
L 269.696388 138.492877 
L 269.703214 138.14467 
L 269.844116 138.14467 
L 269.902027 137.796464 
L 269.977953 137.796464 
L 270.074172 136.983983 
L 270.126005 136.983983 
L 270.224149 136.403639 
L 270.248252 136.403639 
L 270.256055 136.055433 
L 270.394308 136.055433 
L 270.451384 135.475089 
L 270.672372 135.475089 
L 270.672372 135.35902 
L 271.014299 135.35902 
L 271.09439 135.010814 
L 271.205056 135.010814 
L 271.264206 134.546539 
L 271.423617 134.546539 
L 271.50509 134.314401 
L 271.725551 134.314401 
L 271.77323 134.082264 
L 271.912417 134.082264 
L 271.954574 133.850126 
L 272.07813 133.850126 
L 272.135447 133.617988 
L 272.257757 133.617988 
L 272.360442 133.153713 
L 272.423506 133.153713 
L 272.517751 132.109094 
L 272.580082 132.109094 
L 272.67638 131.412682 
L 272.735645 131.412682 
L 272.760512 131.180544 
L 272.915272 131.180544 
L 272.967278 130.716269 
L 273.046351 130.716269 
L 273.141446 130.251994 
L 273.165122 130.251994 
L 273.217922 129.903788 
L 273.318121 129.903788 
L 273.425645 129.67165 
L 273.45804 129.67165 
L 273.554241 129.207375 
L 273.710113 129.207375 
L 273.739647 128.7431 
L 273.863157 128.7431 
L 273.965977 128.510963 
L 273.980883 128.510963 
L 274.089782 128.046688 
L 274.166861 128.046688 
L 274.256964 127.234206 
L 274.327701 127.234206 
L 274.333809 127.002069 
L 274.455906 127.002069 
L 274.56322 124.680693 
L 274.591043 124.680693 
L 274.697294 124.332487 
L 274.712297 124.332487 
L 274.771775 123.752143 
L 274.847497 123.752143 
L 274.932009 123.403937 
L 274.97728 123.403937 
L 275.080527 123.171799 
L 275.089248 123.171799 
L 275.165889 122.939662 
L 275.253093 122.939662 
L 275.340562 122.707524 
L 275.470368 122.707524 
L 275.579083 122.475387 
L 275.719373 122.475387 
L 275.788762 121.778974 
L 275.901634 121.778974 
L 275.901634 121.662905 
L 276.075101 121.662905 
L 276.07913 121.430768 
L 276.415725 121.430768 
L 276.446277 121.19863 
L 276.547816 121.19863 
L 276.583604 120.734355 
L 276.662341 120.734355 
L 276.771236 120.27008 
L 276.876886 120.27008 
L 276.888158 120.037943 
L 277.013596 120.037943 
L 277.07324 119.805805 
L 277.126262 119.805805 
L 277.21245 119.573668 
L 277.241555 119.573668 
L 277.323289 118.877255 
L 277.365686 118.877255 
L 277.476626 118.529049 
L 277.509414 118.529049 
L 277.56324 117.716567 
L 277.663995 117.716567 
L 277.739598 117.136223 
L 277.792988 117.136223 
L 277.792988 117.020155 
L 277.981606 117.020155 
L 278.065056 116.323742 
L 278.156523 116.323742 
L 278.192384 116.091604 
L 278.318624 116.091604 
L 278.32876 115.859467 
L 278.482422 115.859467 
L 278.482422 115.743398 
L 278.778893 115.743398 
L 278.855816 115.511261 
L 278.971222 115.511261 
L 279.071506 115.163054 
L 279.135864 115.163054 
L 279.245935 114.930917 
L 279.330102 114.930917 
L 279.404143 114.002367 
L 279.49323 114.002367 
L 279.508189 113.65416 
L 279.647286 113.65416 
L 279.740747 113.189885 
L 279.78394 113.189885 
L 279.869302 112.841679 
L 279.940732 112.841679 
L 279.940732 112.72561 
L 280.057412 112.72561 
L 280.057652 112.493473 
L 280.238114 112.493473 
L 280.238114 112.377404 
L 280.43055 112.377404 
L 280.534002 112.029198 
L 280.568758 112.029198 
L 280.659564 111.448854 
L 280.851821 111.448854 
L 280.923638 111.216716 
L 281.009902 111.216716 
L 281.082005 110.86851 
L 281.153046 110.86851 
L 281.261193 110.172097 
L 281.369507 110.172097 
L 281.407463 109.93996 
L 281.586362 109.93996 
L 281.586362 109.823891 
L 281.819226 109.823891 
L 281.879935 109.359616 
L 281.931167 109.359616 
L 282.036085 108.895341 
L 282.331034 108.895341 
L 282.331034 108.779272 
L 282.514659 108.779272 
L 282.608113 108.431066 
L 282.638199 108.431066 
L 282.646005 107.966791 
L 282.802581 107.966791 
L 282.820913 107.734653 
L 283.009795 107.734653 
L 283.009795 107.618584 
L 283.216774 107.618584 
L 283.216774 107.502516 
L 283.446958 107.502516 
L 283.446958 107.386447 
L 283.594019 107.386447 
L 283.688037 106.922172 
L 283.768798 106.922172 
L 283.867664 106.457897 
L 284.072502 106.457897 
L 284.134377 105.993622 
L 284.352875 105.993622 
L 284.353691 105.761484 
L 284.522675 105.761484 
L 284.555872 105.297209 
L 284.67451 105.297209 
L 284.783372 104.949003 
L 284.796259 104.949003 
L 284.815905 104.484728 
L 285.003274 104.484728 
L 285.114112 104.020453 
L 285.119253 104.020453 
L 285.205841 103.788315 
L 285.297597 103.788315 
L 285.408467 102.743696 
L 285.467774 102.743696 
L 285.484723 102.39549 
L 285.579522 102.39549 
L 285.675452 101.815146 
L 285.748346 101.815146 
L 285.857066 101.46694 
L 285.888407 101.46694 
L 285.964109 100.886596 
L 286.07261 100.886596 
L 286.07261 100.770527 
L 286.236102 100.770527 
L 286.236102 100.654458 
L 286.351918 100.654458 
L 286.388908 100.422321 
L 286.531475 100.422321 
L 286.642286 99.725908 
L 286.76851 99.725908 
L 286.76851 99.609839 
L 286.978881 99.609839 
L 286.978881 99.493771 
L 287.093968 99.493771 
L 287.197128 98.913427 
L 287.237311 98.913427 
L 287.237311 98.797358 
L 287.373831 98.797358 
L 287.434948 98.333083 
L 287.496208 98.333083 
L 287.604015 98.100945 
L 287.689038 98.100945 
L 287.733219 97.868808 
L 287.929473 97.868808 
L 288.031351 97.288464 
L 288.064323 97.288464 
L 288.153723 96.824189 
L 288.222019 96.824189 
L 288.271874 96.127776 
L 288.335359 96.127776 
L 288.390088 95.663501 
L 288.50825 95.663501 
L 288.565543 95.315295 
L 288.691286 95.315295 
L 288.692682 94.967089 
L 288.891 94.967089 
L 288.921929 94.038538 
L 289.415017 94.038538 
L 289.415017 93.92247 
L 289.634847 93.92247 
L 289.634847 93.806401 
L 289.786769 93.806401 
L 289.872932 93.109988 
L 289.910741 93.109988 
L 289.963292 92.645713 
L 290.027428 92.645713 
L 290.129923 92.413576 
L 290.138701 92.413576 
L 290.138701 92.297507 
L 290.360106 92.297507 
L 290.413712 91.717163 
L 290.492466 91.717163 
L 290.588138 91.368957 
L 290.685564 91.368957 
L 290.694343 91.136819 
L 290.894684 91.136819 
L 290.894684 91.02075 
L 291.010044 91.02075 
L 291.054771 90.788613 
L 291.123974 90.788613 
L 291.209416 90.440407 
L 291.265594 90.440407 
L 291.341676 90.0922 
L 291.416139 90.0922 
L 291.493098 89.860063 
L 291.543571 89.860063 
L 291.543571 89.743994 
L 291.675698 89.743994 
L 291.77997 89.279719 
L 291.880589 89.279719 
L 291.925373 88.931513 
L 292.345869 88.931513 
L 292.402492 88.467238 
L 292.55866 88.467238 
L 292.643332 88.119031 
L 292.695312 88.119031 
L 292.742064 87.886894 
L 292.833079 87.886894 
L 292.857419 87.422619 
L 292.947212 87.422619 
L 293.026188 87.074412 
L 293.274752 87.074412 
L 293.369547 86.494069 
L 293.426596 86.494069 
L 293.478575 86.029793 
L 293.624388 86.029793 
L 293.669457 85.797656 
L 293.754345 85.797656 
L 293.825171 85.44945 
L 293.919684 85.44945 
L 293.994914 84.869106 
L 294.033912 84.869106 
L 294.033912 84.404831 
L 294.295261 84.404831 
L 294.355453 84.172693 
L 294.608435 84.172693 
L 294.660676 83.708418 
L 294.958077 83.708418 
L 295.049111 83.244143 
L 295.101522 83.244143 
L 295.188572 82.779868 
L 295.307942 82.779868 
L 295.317306 82.431662 
L 295.443939 82.431662 
L 295.443939 82.315593 
L 295.611153 82.315593 
L 295.653987 81.735249 
L 295.732485 81.735249 
L 295.838972 81.503111 
L 295.860753 81.503111 
L 295.939099 81.154905 
L 296.178971 81.154905 
L 296.267977 80.806699 
L 296.302918 80.806699 
L 296.405467 80.574561 
L 296.490649 80.574561 
L 296.562795 80.226355 
L 296.678993 80.226355 
L 296.762746 79.878149 
L 296.898555 79.878149 
L 296.907504 79.646011 
L 297.011003 79.646011 
L 297.014475 79.413874 
L 297.160995 79.413874 
L 297.264771 79.065667 
L 297.366392 79.065667 
L 297.444431 78.601392 
L 297.573158 78.601392 
L 297.573158 78.485324 
L 297.779418 78.485324 
L 297.831398 78.137117 
L 297.955718 78.137117 
L 298.059364 77.440705 
L 298.101946 77.440705 
L 298.20881 76.97643 
L 298.444518 76.97643 
L 298.496277 76.744292 
L 298.653551 76.744292 
L 298.701897 76.396086 
L 298.961257 76.396086 
L 299.020754 76.163948 
L 299.106115 76.163948 
L 299.19179 75.815742 
L 299.303951 75.815742 
L 299.303951 75.699673 
L 299.477386 75.699673 
L 299.477386 75.583604 
L 299.686407 75.583604 
L 299.796762 75.00326 
L 299.833056 75.00326 
L 299.897939 74.771123 
L 300.211944 74.771123 
L 300.211944 74.655054 
L 300.54761 74.655054 
L 300.54761 74.538985 
L 300.726118 74.538985 
L 300.758289 74.306848 
L 301.395342 74.306848 
L 301.451927 74.07471 
L 301.509381 74.07471 
L 301.609946 73.610435 
L 302.002469 73.610435 
L 302.002469 73.494366 
L 302.198009 73.494366 
L 302.251836 73.262229 
L 302.401199 73.262229 
L 302.401199 73.14616 
L 302.552853 73.14616 
L 302.561632 72.914023 
L 302.686807 72.914023 
L 302.686807 72.797954 
L 303.079917 72.797954 
L 303.079917 72.681885 
L 304.018272 72.681885 
L 304.084809 72.333679 
L 304.22567 72.333679 
L 304.22567 72.21761 
L 304.337722 72.21761 
L 304.389702 71.869404 
L 304.634273 71.869404 
L 304.634273 71.753335 
L 304.843258 71.753335 
L 304.849366 71.521197 
L 305.090817 71.521197 
L 305.090817 71.405129 
L 305.253285 71.405129 
L 305.253285 71.28906 
L 305.447566 71.28906 
L 305.553847 70.940854 
L 305.716815 70.940854 
L 305.741216 70.708716 
L 305.862203 70.708716 
L 305.862203 70.592647 
L 306.032275 70.592647 
L 306.032275 70.36051 
L 306.275036 70.36051 
L 306.355066 70.128372 
L 306.446851 70.128372 
L 306.53107 69.896235 
L 306.700533 69.896235 
L 306.700533 69.780166 
L 307.260942 69.780166 
L 307.324229 69.315891 
L 307.889193 69.315891 
L 307.922429 69.083753 
L 308.007587 69.083753 
L 308.007587 68.967685 
L 308.213432 68.967685 
L 308.222796 68.735547 
L 308.390812 68.735547 
L 308.390812 68.503409 
L 308.647998 68.503409 
L 308.647998 68.387341 
L 308.834181 68.387341 
L 308.834181 68.271272 
L 309.054338 68.271272 
L 309.134697 67.806997 
L 309.265586 67.806997 
L 309.331975 67.458791 
L 309.719992 67.458791 
L 309.740479 67.226653 
L 309.864442 67.226653 
L 309.91183 66.878447 
L 310.733637 66.878447 
L 310.733637 66.762378 
L 311.309044 66.762378 
L 311.309044 66.646309 
L 312.154081 66.646309 
L 312.154081 66.53024 
L 312.339305 66.53024 
L 312.420508 66.298103 
L 312.796954 66.298103 
L 312.796954 66.182034 
L 313.256509 66.182034 
L 313.256509 66.065965 
L 314.198616 66.065965 
L 314.28677 65.833828 
L 314.853969 65.833828 
L 314.886273 65.485621 
L 315.10845 65.485621 
L 315.10845 65.137415 
L 315.547604 65.137415 
L 315.592297 64.789209 
L 316.349095 64.789209 
L 316.349095 64.67314 
L 316.990299 64.67314 
L 316.990299 64.441003 
L 317.366767 64.441003 
L 317.443061 64.208865 
L 318.318948 64.208865 
L 318.318948 64.092796 
L 318.958486 64.092796 
L 318.958486 63.976727 
L 319.234219 63.976727 
L 319.234219 63.860659 
L 319.606023 63.860659 
L 319.606023 63.74459 
L 320.22361 63.74459 
L 320.229718 63.512452 
L 320.576176 63.512452 
L 320.635881 63.280315 
L 320.827918 63.280315 
L 320.831746 63.048177 
L 321.882299 63.048177 
L 321.882299 62.932109 
L 324.041155 62.932109 
L 324.041155 62.81604 
L 324.214534 62.81604 
L 324.214534 62.699971 
L 324.756214 62.699971 
L 324.756214 62.583902 
L 325.244794 62.583902 
L 325.244794 62.467833 
L 327.269012 62.467833 
L 327.269012 62.351765 
L 329.221578 62.351765 
L 329.221578 62.235696 
L 330.478421 62.235696 
L 330.478421 62.119627 
L 338.86478 62.119627 
L 338.86478 62.003558 
L 340.057276 62.003558 
L 340.057276 61.88749 
L 342.560255 61.88749 
L 342.560255 61.771421 
L 343.023285 61.771421 
L 343.023285 61.655352 
L 343.210654 61.655352 
L 343.210654 61.539283 
L 343.383043 61.539283 
L 343.383043 61.423215 
L 343.522255 61.423215 
L 343.522255 61.307146 
L 345.358631 61.307146 
L 345.358631 61.191077 
L 346.306856 61.191077 
L 346.306856 61.075008 
L 349.623519 61.075008 
L 349.623519 60.958939 
L 349.95952 60.958939 
L 349.95952 60.842871 
L 353.646135 60.842871 
L 353.646135 60.726802 
L 353.818533 60.726802 
L 353.818533 60.610733 
L 356.703658 60.610733 
L 356.703658 60.494664 
L 358.10532 60.494664 
L 358.10532 60.378596 
L 362.225652 60.378596 
L 362.225652 60.262527 
L 364.481833 60.262527 
L 364.481833 60.146458 
L 364.73845 60.146458 
L 364.73845 60.030389 
L 367.946812 60.030389 
L 367.947859 59.798252 
L 370.237965 59.798252 
L 370.237965 59.682183 
L 373.161778 59.682183 
L 373.161778 59.566114 
L 374.384077 59.566114 
L 374.384077 59.450045 
L 380.501057 59.450045 
L 380.501057 59.333977 
L 387.428959 59.333977 
L 387.428959 59.217908 
L 391.336755 59.217908 
L 391.336755 59.101839 
L 394.801734 59.101839 
L 394.801734 58.98577 
L 401.238999 58.98577 
L 401.238999 58.869702 
L 411.853515 58.869702 
L 411.853515 58.753633 
L 438.708438 58.753633 
L 438.708438 58.637564 
L 453.192 58.637564 
L 453.192 58.637564 
" clip-path="url(#p0c4da4e604)" style="fill: none; stroke: #000000; stroke-width: 3; stroke-linecap: square"/>
   </g>
   <g id="line2d_18">
    <path clip-path="url(#p0c4da4e604)" style="fill: none; stroke: #000000; stroke-width: 3; stroke-linecap: square"/>
   </g>
   <g id="line2d_19">
    <path d="M 34.402504 288.453725 
L 34.16 288.453725 
L 453.192 288.453725 
L 461.8 288.453725 
" clip-path="url(#p0c4da4e604)" style="fill: none; stroke: #00bfbf; stroke-width: 3; stroke-linecap: square"/>
   </g>
   <g id="line2d_20"/>
   <g id="line2d_21"/>
   <g id="line2d_22">
    <path d="M 243.676 291.28 
L 243.676 3 
" clip-path="url(#p0c4da4e604)" style="fill: none; stroke: #000000; stroke-width: 1.5; stroke-linecap: square"/>
   </g>
   <g id="line2d_23">
    <path d="M 34.16 147.14 
L 453.192 147.14 
" clip-path="url(#p0c4da4e604)" style="fill: none; stroke-dasharray: 2,3.3; stroke-dashoffset: 0; stroke: #000000; stroke-width: 2"/>
   </g>
   <g id="patch_3">
    <path d="M 34.16 291.28 
L 34.16 3 
" style="fill: none; stroke: #000000; stroke-width: 0.8; stroke-linejoin: miter; stroke-linecap: square"/>
   </g>
   <g id="patch_4">
    <path d="M 453.192 291.28 
L 453.192 3 
" style="fill: none; stroke: #000000; stroke-width: 0.8; stroke-linejoin: miter; stroke-linecap: square"/>
   </g>
   <g id="patch_5">
    <path d="M 34.16 291.28 
L 453.192 291.28 
" style="fill: none; stroke: #000000; stroke-width: 0.8; stroke-linejoin: miter; stroke-linecap: square"/>
   </g>
   <g id="patch_6">
    <path d="M 34.16 3 
L 453.192 3 
" style="fill: none; stroke: #000000; stroke-width: 0.8; stroke-linejoin: miter; stroke-linecap: square"/>
   </g>
   <g id="text_6">
    <!-- f1-f24,20-D -->
    <g transform="translate(330.91761 285.5144)scale(0.2 -0.2)">
     <defs>
      <path id="DejaVuSans-34" d="M 2419 4116 
L 825 1625 
L 2419 1625 
L 2419 4116 
z
M 2253 4666 
L 3047 4666 
L 3047 1625 
L 3713 1625 
L 3713 1100 
L 3047 1100 
L 3047 0 
L 2419 0 
L 2419 1100 
L 313 1100 
L 313 1709 
L 2253 4666 
z
" transform="scale(0.015625)"/>
      <path id="DejaVuSans-2c" d="M 750 794 
L 1409 794 
L 1409 256 
L 897 -744 
L 494 -744 
L 750 256 
L 750 794 
z
" transform="scale(0.015625)"/>
      <path id="DejaVuSans-44" d="M 1259 4147 
L 1259 519 
L 2022 519 
Q 2988 519 3436 956 
Q 3884 1394 3884 2338 
Q 3884 3275 3436 3711 
Q 2988 4147 2022 4147 
L 1259 4147 
z
M 628 4666 
L 1925 4666 
Q 3281 4666 3915 4102 
Q 4550 3538 4550 2338 
Q 4550 1131 3912 565 
Q 3275 0 1925 0 
L 628 0 
L 628 4666 
z
" transform="scale(0.015625)"/>
     </defs>
     <use xlink:href="#DejaVuSans-66"/>
     <use xlink:href="#DejaVuSans-31" x="35.205078"/>
     <use xlink:href="#DejaVuSans-2d" x="98.828125"/>
     <use xlink:href="#DejaVuSans-66" x="134.912109"/>
     <use xlink:href="#DejaVuSans-32" x="170.117188"/>
     <use xlink:href="#DejaVuSans-34" x="233.740234"/>
     <use xlink:href="#DejaVuSans-2c" x="297.363281"/>
     <use xlink:href="#DejaVuSans-32" x="329.150391"/>
     <use xlink:href="#DejaVuSans-30" x="392.773438"/>
     <use xlink:href="#DejaVuSans-2d" x="456.396484"/>
     <use xlink:href="#DejaVuSans-44" x="492.480469"/>
    </g>
   </g>
   <g id="text_7">
    <!-- v2.6.3 -->
    <g style="fill: #808080" transform="translate(227.99475 286.317512)scale(0.1 -0.1)">
     <defs>
      <path id="DejaVuSans-2e" d="M 684 794 
L 1344 794 
L 1344 0 
L 684 0 
L 684 794 
z
" transform="scale(0.015625)"/>
      <path id="DejaVuSans-36" d="M 2113 2584 
Q 1688 2584 1439 2293 
Q 1191 2003 1191 1497 
Q 1191 994 1439 701 
Q 1688 409 2113 409 
Q 2538 409 2786 701 
Q 3034 994 3034 1497 
Q 3034 2003 2786 2293 
Q 2538 2584 2113 2584 
z
M 3366 4563 
L 3366 3988 
Q 3128 4100 2886 4159 
Q 2644 4219 2406 4219 
Q 1781 4219 1451 3797 
Q 1122 3375 1075 2522 
Q 1259 2794 1537 2939 
Q 1816 3084 2150 3084 
Q 2853 3084 3261 2657 
Q 3669 2231 3669 1497 
Q 3669 778 3244 343 
Q 2819 -91 2113 -91 
Q 1303 -91 875 529 
Q 447 1150 447 2328 
Q 447 3434 972 4092 
Q 1497 4750 2381 4750 
Q 2619 4750 2861 4703 
Q 3103 4656 3366 4563 
z
" transform="scale(0.015625)"/>
      <path id="DejaVuSans-33" d="M 2597 2516 
Q 3050 2419 3304 2112 
Q 3559 1806 3559 1356 
Q 3559 666 3084 287 
Q 2609 -91 1734 -91 
Q 1441 -91 1130 -33 
Q 819 25 488 141 
L 488 750 
Q 750 597 1062 519 
Q 1375 441 1716 441 
Q 2309 441 2620 675 
Q 2931 909 2931 1356 
Q 2931 1769 2642 2001 
Q 2353 2234 1838 2234 
L 1294 2234 
L 1294 2753 
L 1863 2753 
Q 2328 2753 2575 2939 
Q 2822 3125 2822 3475 
Q 2822 3834 2567 4026 
Q 2313 4219 1838 4219 
Q 1578 4219 1281 4162 
Q 984 4106 628 3988 
L 628 4550 
Q 988 4650 1302 4700 
Q 1616 4750 1894 4750 
Q 2613 4750 3031 4423 
Q 3450 4097 3450 3541 
Q 3450 3153 3228 2886 
Q 3006 2619 2597 2516 
z
" transform="scale(0.015625)"/>
     </defs>
     <use xlink:href="#DejaVuSans-76"/>
     <use xlink:href="#DejaVuSans-32" x="59.179688"/>
     <use xlink:href="#DejaVuSans-2e" x="122.802734"/>
     <use xlink:href="#DejaVuSans-36" x="154.589844"/>
     <use xlink:href="#DejaVuSans-2e" x="218.212891"/>
     <use xlink:href="#DejaVuSans-33" x="250"/>
    </g>
   </g>
   <g id="legend_1">
    <g id="patch_7">
     <path d="M 48.16 136.425 
L 195.61625 136.425 
Q 199.61625 136.425 199.61625 132.425 
L 199.61625 17 
Q 199.61625 13 195.61625 13 
L 48.16 13 
Q 44.16 13 44.16 17 
L 44.16 132.425 
Q 44.16 136.425 48.16 136.425 
z
" style="fill: #ffffff; opacity: 0.2; stroke: #cccccc; stroke-linejoin: miter"/>
    </g>
    <g id="line2d_24">
     <path d="M 52.16 29.196875 
L 72.16 29.196875 
L 92.16 29.196875 
" style="fill: none; stroke: #000000; stroke-width: 3; stroke-linecap: square"/>
    </g>
    <g id="text_8">
     <!-- 1: 12/12 -->
     <g transform="translate(108.16 36.196875)scale(0.2 -0.2)">
      <defs>
       <path id="DejaVuSans-3a" d="M 750 794 
L 1409 794 
L 1409 0 
L 750 0 
L 750 794 
z
M 750 3309 
L 1409 3309 
L 1409 2516 
L 750 2516 
L 750 3309 
z
" transform="scale(0.015625)"/>
       <path id="DejaVuSans-2f" d="M 1625 4666 
L 2156 4666 
L 531 -594 
L 0 -594 
L 1625 4666 
z
" transform="scale(0.015625)"/>
      </defs>
      <use xlink:href="#DejaVuSans-31"/>
      <use xlink:href="#DejaVuSans-3a" x="63.623047"/>
      <use xlink:href="#DejaVuSans-20" x="97.314453"/>
      <use xlink:href="#DejaVuSans-31" x="129.101562"/>
      <use xlink:href="#DejaVuSans-32" x="192.724609"/>
      <use xlink:href="#DejaVuSans-2f" x="256.347656"/>
      <use xlink:href="#DejaVuSans-31" x="290.039062"/>
      <use xlink:href="#DejaVuSans-32" x="353.662109"/>
     </g>
    </g>
    <g id="line2d_25">
     <path d="M 52.16 58.553125 
L 72.16 58.553125 
L 92.16 58.553125 
" style="fill: none; stroke: #00bfbf; stroke-width: 3; stroke-linecap: square"/>
    </g>
    <g id="text_9">
     <!-- -1: 0/4 -->
     <g transform="translate(108.16 65.553125)scale(0.2 -0.2)">
      <use xlink:href="#DejaVuSans-2d"/>
      <use xlink:href="#DejaVuSans-31" x="36.083984"/>
      <use xlink:href="#DejaVuSans-3a" x="99.707031"/>
      <use xlink:href="#DejaVuSans-20" x="133.398438"/>
      <use xlink:href="#DejaVuSans-30" x="165.185547"/>
      <use xlink:href="#DejaVuSans-2f" x="228.808594"/>
      <use xlink:href="#DejaVuSans-34" x="262.5"/>
     </g>
    </g>
    <g id="line2d_26">
     <path d="M 52.16 87.909375 
L 72.16 87.909375 
L 92.16 87.909375 
" style="fill: none; stroke: #bf00bf; stroke-width: 3; stroke-linecap: square"/>
    </g>
    <g id="text_10">
     <!-- -4: 0/0 -->
     <g transform="translate(108.16 94.909375)scale(0.2 -0.2)">
      <use xlink:href="#DejaVuSans-2d"/>
      <use xlink:href="#DejaVuSans-34" x="36.083984"/>
      <use xlink:href="#DejaVuSans-3a" x="99.707031"/>
      <use xlink:href="#DejaVuSans-20" x="133.398438"/>
      <use xlink:href="#DejaVuSans-30" x="165.185547"/>
      <use xlink:href="#DejaVuSans-2f" x="228.808594"/>
      <use xlink:href="#DejaVuSans-30" x="262.5"/>
     </g>
    </g>
    <g id="line2d_27">
     <path d="M 52.16 117.265625 
L 72.16 117.265625 
L 92.16 117.265625 
" style="fill: none; stroke: #ff0000; stroke-width: 3; stroke-linecap: square"/>
    </g>
    <g id="text_11">
     <!-- -8: 0/0 -->
     <g transform="translate(108.16 124.265625)scale(0.2 -0.2)">
      <defs>
       <path id="DejaVuSans-38" d="M 2034 2216 
Q 1584 2216 1326 1975 
Q 1069 1734 1069 1313 
Q 1069 891 1326 650 
Q 1584 409 2034 409 
Q 2484 409 2743 651 
Q 3003 894 3003 1313 
Q 3003 1734 2745 1975 
Q 2488 2216 2034 2216 
z
M 1403 2484 
Q 997 2584 770 2862 
Q 544 3141 544 3541 
Q 544 4100 942 4425 
Q 1341 4750 2034 4750 
Q 2731 4750 3128 4425 
Q 3525 4100 3525 3541 
Q 3525 3141 3298 2862 
Q 3072 2584 2669 2484 
Q 3125 2378 3379 2068 
Q 3634 1759 3634 1313 
Q 3634 634 3220 271 
Q 2806 -91 2034 -91 
Q 1263 -91 848 271 
Q 434 634 434 1313 
Q 434 1759 690 2068 
Q 947 2378 1403 2484 
z
M 1172 3481 
Q 1172 3119 1398 2916 
Q 1625 2713 2034 2713 
Q 2441 2713 2670 2916 
Q 2900 3119 2900 3481 
Q 2900 3844 2670 4047 
Q 2441 4250 2034 4250 
Q 1625 4250 1398 4047 
Q 1172 3844 1172 3481 
z
" transform="scale(0.015625)"/>
      </defs>
      <use xlink:href="#DejaVuSans-2d"/>
      <use xlink:href="#DejaVuSans-38" x="36.083984"/>
      <use xlink:href="#DejaVuSans-3a" x="99.707031"/>
      <use xlink:href="#DejaVuSans-20" x="133.398438"/>
      <use xlink:href="#DejaVuSans-30" x="165.185547"/>
      <use xlink:href="#DejaVuSans-2f" x="228.808594"/>
      <use xlink:href="#DejaVuSans-30" x="262.5"/>
     </g>
    </g>
   </g>
  </g>
 </g>
 <defs>
  <clipPath id="p0c4da4e604">
   <rect x="34.16" y="3" width="419.032" height="288.28"/>
  </clipPath>
 </defs>
</svg>
