<?xml version="1.0" encoding="utf-8" standalone="no"?>
<!DOCTYPE svg PUBLIC "-//W3C//DTD SVG 1.1//EN"
  "http://www.w3.org/Graphics/SVG/1.1/DTD/svg11.dtd">
<svg xmlns:xlink="http://www.w3.org/1999/xlink" width="460.8pt" height="345.6pt" viewBox="0 0 460.8 345.6" xmlns="http://www.w3.org/2000/svg" version="1.1">
 <metadata>
  <rdf:RDF xmlns:dc="http://purl.org/dc/elements/1.1/" xmlns:cc="http://creativecommons.org/ns#" xmlns:rdf="http://www.w3.org/1999/02/22-rdf-syntax-ns#">
   <cc:Work>
    <dc:type rdf:resource="http://purl.org/dc/dcmitype/StillImage"/>
    <dc:date>2024-01-05T10:25:38.568193</dc:date>
    <dc:format>image/svg+xml</dc:format>
    <dc:creator>
     <cc:Agent>
      <dc:title>Matplotlib v3.5.1, https://matplotlib.org/</dc:title>
     </cc:Agent>
    </dc:creator>
   </cc:Work>
  </rdf:RDF>
 </metadata>
 <defs>
  <style type="text/css">*{stroke-linejoin: round; stroke-linecap: butt}</style>
 </defs>
 <g id="figure_1">
  <g id="patch_1">
   <path d="M 0 345.6 
L 460.8 345.6 
L 460.8 0 
L 0 0 
z
" style="fill: #ffffff"/>
  </g>
  <g id="axes_1">
   <g id="patch_2">
    <path d="M 34.16 291.28 
L 453.192 291.28 
L 453.192 3 
L 34.16 3 
z
" style="fill: #ffffff"/>
   </g>
   <g id="matplotlib.axis_1">
    <g id="xtick_1">
     <g id="line2d_1">
      <path d="M 129.676976 291.28 
L 129.676976 3 
" clip-path="url(#p009be275a4)" style="fill: none; stroke: #b0b0b0; stroke-width: 0.8; stroke-linecap: square"/>
     </g>
     <g id="line2d_2">
      <defs>
       <path id="m1c0b553b5a" d="M 0 0 
L 0 3.5 
" style="stroke: #000000; stroke-width: 0.8"/>
      </defs>
      <g>
       <use xlink:href="#m1c0b553b5a" x="129.676976" y="291.28" style="stroke: #000000; stroke-width: 0.8"/>
      </g>
     </g>
     <g id="text_1">
      <!-- -1 -->
      <g transform="translate(119.706664 313.476875)scale(0.2 -0.2)">
       <defs>
        <path id="DejaVuSans-2d" d="M 313 2009 
L 1997 2009 
L 1997 1497 
L 313 1497 
L 313 2009 
z
" transform="scale(0.015625)"/>
        <path id="DejaVuSans-31" d="M 794 531 
L 1825 531 
L 1825 4091 
L 703 3866 
L 703 4441 
L 1819 4666 
L 2450 4666 
L 2450 531 
L 3481 531 
L 3481 0 
L 794 0 
L 794 531 
z
" transform="scale(0.015625)"/>
       </defs>
       <use xlink:href="#DejaVuSans-2d"/>
       <use xlink:href="#DejaVuSans-31" x="36.083984"/>
      </g>
     </g>
    </g>
    <g id="xtick_2">
     <g id="line2d_3">
      <path d="M 243.676 291.28 
L 243.676 3 
" clip-path="url(#p009be275a4)" style="fill: none; stroke: #b0b0b0; stroke-width: 0.8; stroke-linecap: square"/>
     </g>
     <g id="line2d_4">
      <g>
       <use xlink:href="#m1c0b553b5a" x="243.676" y="291.28" style="stroke: #000000; stroke-width: 0.8"/>
      </g>
     </g>
     <g id="text_2">
      <!-- 0 -->
      <g transform="translate(237.3135 313.476875)scale(0.2 -0.2)">
       <defs>
        <path id="DejaVuSans-30" d="M 2034 4250 
Q 1547 4250 1301 3770 
Q 1056 3291 1056 2328 
Q 1056 1369 1301 889 
Q 1547 409 2034 409 
Q 2525 409 2770 889 
Q 3016 1369 3016 2328 
Q 3016 3291 2770 3770 
Q 2525 4250 2034 4250 
z
M 2034 4750 
Q 2819 4750 3233 4129 
Q 3647 3509 3647 2328 
Q 3647 1150 3233 529 
Q 2819 -91 2034 -91 
Q 1250 -91 836 529 
Q 422 1150 422 2328 
Q 422 3509 836 4129 
Q 1250 4750 2034 4750 
z
" transform="scale(0.015625)"/>
       </defs>
       <use xlink:href="#DejaVuSans-30"/>
      </g>
     </g>
    </g>
    <g id="xtick_3">
     <g id="line2d_5">
      <path d="M 357.675024 291.28 
L 357.675024 3 
" clip-path="url(#p009be275a4)" style="fill: none; stroke: #b0b0b0; stroke-width: 0.8; stroke-linecap: square"/>
     </g>
     <g id="line2d_6">
      <g>
       <use xlink:href="#m1c0b553b5a" x="357.675024" y="291.28" style="stroke: #000000; stroke-width: 0.8"/>
      </g>
     </g>
     <g id="text_3">
      <!-- 1 -->
      <g transform="translate(351.312524 313.476875)scale(0.2 -0.2)">
       <use xlink:href="#DejaVuSans-31"/>
      </g>
     </g>
    </g>
    <g id="xtick_4">
     <g id="line2d_7">
      <defs>
       <path id="m0e41a137a3" d="M 0 0 
L 0 2 
" style="stroke: #000000; stroke-width: 0.6"/>
      </defs>
      <g>
       <use xlink:href="#m0e41a137a3" x="49.995078" y="291.28" style="stroke: #000000; stroke-width: 0.6"/>
      </g>
     </g>
    </g>
    <g id="xtick_5">
     <g id="line2d_8">
      <g>
       <use xlink:href="#m0e41a137a3" x="70.069309" y="291.28" style="stroke: #000000; stroke-width: 0.6"/>
      </g>
     </g>
    </g>
    <g id="xtick_6">
     <g id="line2d_9">
      <g>
       <use xlink:href="#m0e41a137a3" x="84.312203" y="291.28" style="stroke: #000000; stroke-width: 0.6"/>
      </g>
     </g>
    </g>
    <g id="xtick_7">
     <g id="line2d_10">
      <g>
       <use xlink:href="#m0e41a137a3" x="95.35985" y="291.28" style="stroke: #000000; stroke-width: 0.6"/>
      </g>
     </g>
    </g>
    <g id="xtick_8">
     <g id="line2d_11">
      <g>
       <use xlink:href="#m0e41a137a3" x="104.386435" y="291.28" style="stroke: #000000; stroke-width: 0.6"/>
      </g>
     </g>
    </g>
    <g id="xtick_9">
     <g id="line2d_12">
      <g>
       <use xlink:href="#m0e41a137a3" x="112.018304" y="291.28" style="stroke: #000000; stroke-width: 0.6"/>
      </g>
     </g>
    </g>
    <g id="xtick_10">
     <g id="line2d_13">
      <g>
       <use xlink:href="#m0e41a137a3" x="118.629329" y="291.28" style="stroke: #000000; stroke-width: 0.6"/>
      </g>
     </g>
    </g>
    <g id="xtick_11">
     <g id="line2d_14">
      <g>
       <use xlink:href="#m0e41a137a3" x="124.460667" y="291.28" style="stroke: #000000; stroke-width: 0.6"/>
      </g>
     </g>
    </g>
    <g id="xtick_12">
     <g id="line2d_15">
      <g>
       <use xlink:href="#m0e41a137a3" x="163.994102" y="291.28" style="stroke: #000000; stroke-width: 0.6"/>
      </g>
     </g>
    </g>
    <g id="xtick_13">
     <g id="line2d_16">
      <g>
       <use xlink:href="#m0e41a137a3" x="184.068333" y="291.28" style="stroke: #000000; stroke-width: 0.6"/>
      </g>
     </g>
    </g>
    <g id="xtick_14">
     <g id="line2d_17">
      <g>
       <use xlink:href="#m0e41a137a3" x="198.311227" y="291.28" style="stroke: #000000; stroke-width: 0.6"/>
      </g>
     </g>
    </g>
    <g id="xtick_15">
     <g id="line2d_18">
      <g>
       <use xlink:href="#m0e41a137a3" x="209.358874" y="291.28" style="stroke: #000000; stroke-width: 0.6"/>
      </g>
     </g>
    </g>
    <g id="xtick_16">
     <g id="line2d_19">
      <g>
       <use xlink:href="#m0e41a137a3" x="218.385459" y="291.28" style="stroke: #000000; stroke-width: 0.6"/>
      </g>
     </g>
    </g>
    <g id="xtick_17">
     <g id="line2d_20">
      <g>
       <use xlink:href="#m0e41a137a3" x="226.017328" y="291.28" style="stroke: #000000; stroke-width: 0.6"/>
      </g>
     </g>
    </g>
    <g id="xtick_18">
     <g id="line2d_21">
      <g>
       <use xlink:href="#m0e41a137a3" x="232.628353" y="291.28" style="stroke: #000000; stroke-width: 0.6"/>
      </g>
     </g>
    </g>
    <g id="xtick_19">
     <g id="line2d_22">
      <g>
       <use xlink:href="#m0e41a137a3" x="238.459691" y="291.28" style="stroke: #000000; stroke-width: 0.6"/>
      </g>
     </g>
    </g>
    <g id="xtick_20">
     <g id="line2d_23">
      <g>
       <use xlink:href="#m0e41a137a3" x="277.993126" y="291.28" style="stroke: #000000; stroke-width: 0.6"/>
      </g>
     </g>
    </g>
    <g id="xtick_21">
     <g id="line2d_24">
      <g>
       <use xlink:href="#m0e41a137a3" x="298.067357" y="291.28" style="stroke: #000000; stroke-width: 0.6"/>
      </g>
     </g>
    </g>
    <g id="xtick_22">
     <g id="line2d_25">
      <g>
       <use xlink:href="#m0e41a137a3" x="312.310251" y="291.28" style="stroke: #000000; stroke-width: 0.6"/>
      </g>
     </g>
    </g>
    <g id="xtick_23">
     <g id="line2d_26">
      <g>
       <use xlink:href="#m0e41a137a3" x="323.357898" y="291.28" style="stroke: #000000; stroke-width: 0.6"/>
      </g>
     </g>
    </g>
    <g id="xtick_24">
     <g id="line2d_27">
      <g>
       <use xlink:href="#m0e41a137a3" x="332.384483" y="291.28" style="stroke: #000000; stroke-width: 0.6"/>
      </g>
     </g>
    </g>
    <g id="xtick_25">
     <g id="line2d_28">
      <g>
       <use xlink:href="#m0e41a137a3" x="340.016352" y="291.28" style="stroke: #000000; stroke-width: 0.6"/>
      </g>
     </g>
    </g>
    <g id="xtick_26">
     <g id="line2d_29">
      <g>
       <use xlink:href="#m0e41a137a3" x="346.627377" y="291.28" style="stroke: #000000; stroke-width: 0.6"/>
      </g>
     </g>
    </g>
    <g id="xtick_27">
     <g id="line2d_30">
      <g>
       <use xlink:href="#m0e41a137a3" x="352.458715" y="291.28" style="stroke: #000000; stroke-width: 0.6"/>
      </g>
     </g>
    </g>
    <g id="xtick_28">
     <g id="line2d_31">
      <g>
       <use xlink:href="#m0e41a137a3" x="391.99215" y="291.28" style="stroke: #000000; stroke-width: 0.6"/>
      </g>
     </g>
    </g>
    <g id="xtick_29">
     <g id="line2d_32">
      <g>
       <use xlink:href="#m0e41a137a3" x="412.066381" y="291.28" style="stroke: #000000; stroke-width: 0.6"/>
      </g>
     </g>
    </g>
    <g id="xtick_30">
     <g id="line2d_33">
      <g>
       <use xlink:href="#m0e41a137a3" x="426.309275" y="291.28" style="stroke: #000000; stroke-width: 0.6"/>
      </g>
     </g>
    </g>
    <g id="xtick_31">
     <g id="line2d_34">
      <g>
       <use xlink:href="#m0e41a137a3" x="437.356922" y="291.28" style="stroke: #000000; stroke-width: 0.6"/>
      </g>
     </g>
    </g>
    <g id="xtick_32">
     <g id="line2d_35">
      <g>
       <use xlink:href="#m0e41a137a3" x="446.383507" y="291.28" style="stroke: #000000; stroke-width: 0.6"/>
      </g>
     </g>
    </g>
    <g id="text_4">
     <!-- log10 of FEvals ratio -->
     <g transform="translate(141.371312 336.833125)scale(0.2 -0.2)">
      <defs>
       <path id="DejaVuSans-6c" d="M 603 4863 
L 1178 4863 
L 1178 0 
L 603 0 
L 603 4863 
z
" transform="scale(0.015625)"/>
       <path id="DejaVuSans-6f" d="M 1959 3097 
Q 1497 3097 1228 2736 
Q 959 2375 959 1747 
Q 959 1119 1226 758 
Q 1494 397 1959 397 
Q 2419 397 2687 759 
Q 2956 1122 2956 1747 
Q 2956 2369 2687 2733 
Q 2419 3097 1959 3097 
z
M 1959 3584 
Q 2709 3584 3137 3096 
Q 3566 2609 3566 1747 
Q 3566 888 3137 398 
Q 2709 -91 1959 -91 
Q 1206 -91 779 398 
Q 353 888 353 1747 
Q 353 2609 779 3096 
Q 1206 3584 1959 3584 
z
" transform="scale(0.015625)"/>
       <path id="DejaVuSans-67" d="M 2906 1791 
Q 2906 2416 2648 2759 
Q 2391 3103 1925 3103 
Q 1463 3103 1205 2759 
Q 947 2416 947 1791 
Q 947 1169 1205 825 
Q 1463 481 1925 481 
Q 2391 481 2648 825 
Q 2906 1169 2906 1791 
z
M 3481 434 
Q 3481 -459 3084 -895 
Q 2688 -1331 1869 -1331 
Q 1566 -1331 1297 -1286 
Q 1028 -1241 775 -1147 
L 775 -588 
Q 1028 -725 1275 -790 
Q 1522 -856 1778 -856 
Q 2344 -856 2625 -561 
Q 2906 -266 2906 331 
L 2906 616 
Q 2728 306 2450 153 
Q 2172 0 1784 0 
Q 1141 0 747 490 
Q 353 981 353 1791 
Q 353 2603 747 3093 
Q 1141 3584 1784 3584 
Q 2172 3584 2450 3431 
Q 2728 3278 2906 2969 
L 2906 3500 
L 3481 3500 
L 3481 434 
z
" transform="scale(0.015625)"/>
       <path id="DejaVuSans-20" transform="scale(0.015625)"/>
       <path id="DejaVuSans-66" d="M 2375 4863 
L 2375 4384 
L 1825 4384 
Q 1516 4384 1395 4259 
Q 1275 4134 1275 3809 
L 1275 3500 
L 2222 3500 
L 2222 3053 
L 1275 3053 
L 1275 0 
L 697 0 
L 697 3053 
L 147 3053 
L 147 3500 
L 697 3500 
L 697 3744 
Q 697 4328 969 4595 
Q 1241 4863 1831 4863 
L 2375 4863 
z
" transform="scale(0.015625)"/>
       <path id="DejaVuSans-46" d="M 628 4666 
L 3309 4666 
L 3309 4134 
L 1259 4134 
L 1259 2759 
L 3109 2759 
L 3109 2228 
L 1259 2228 
L 1259 0 
L 628 0 
L 628 4666 
z
" transform="scale(0.015625)"/>
       <path id="DejaVuSans-45" d="M 628 4666 
L 3578 4666 
L 3578 4134 
L 1259 4134 
L 1259 2753 
L 3481 2753 
L 3481 2222 
L 1259 2222 
L 1259 531 
L 3634 531 
L 3634 0 
L 628 0 
L 628 4666 
z
" transform="scale(0.015625)"/>
       <path id="DejaVuSans-76" d="M 191 3500 
L 800 3500 
L 1894 563 
L 2988 3500 
L 3597 3500 
L 2284 0 
L 1503 0 
L 191 3500 
z
" transform="scale(0.015625)"/>
       <path id="DejaVuSans-61" d="M 2194 1759 
Q 1497 1759 1228 1600 
Q 959 1441 959 1056 
Q 959 750 1161 570 
Q 1363 391 1709 391 
Q 2188 391 2477 730 
Q 2766 1069 2766 1631 
L 2766 1759 
L 2194 1759 
z
M 3341 1997 
L 3341 0 
L 2766 0 
L 2766 531 
Q 2569 213 2275 61 
Q 1981 -91 1556 -91 
Q 1019 -91 701 211 
Q 384 513 384 1019 
Q 384 1609 779 1909 
Q 1175 2209 1959 2209 
L 2766 2209 
L 2766 2266 
Q 2766 2663 2505 2880 
Q 2244 3097 1772 3097 
Q 1472 3097 1187 3025 
Q 903 2953 641 2809 
L 641 3341 
Q 956 3463 1253 3523 
Q 1550 3584 1831 3584 
Q 2591 3584 2966 3190 
Q 3341 2797 3341 1997 
z
" transform="scale(0.015625)"/>
       <path id="DejaVuSans-73" d="M 2834 3397 
L 2834 2853 
Q 2591 2978 2328 3040 
Q 2066 3103 1784 3103 
Q 1356 3103 1142 2972 
Q 928 2841 928 2578 
Q 928 2378 1081 2264 
Q 1234 2150 1697 2047 
L 1894 2003 
Q 2506 1872 2764 1633 
Q 3022 1394 3022 966 
Q 3022 478 2636 193 
Q 2250 -91 1575 -91 
Q 1294 -91 989 -36 
Q 684 19 347 128 
L 347 722 
Q 666 556 975 473 
Q 1284 391 1588 391 
Q 1994 391 2212 530 
Q 2431 669 2431 922 
Q 2431 1156 2273 1281 
Q 2116 1406 1581 1522 
L 1381 1569 
Q 847 1681 609 1914 
Q 372 2147 372 2553 
Q 372 3047 722 3315 
Q 1072 3584 1716 3584 
Q 2034 3584 2315 3537 
Q 2597 3491 2834 3397 
z
" transform="scale(0.015625)"/>
       <path id="DejaVuSans-72" d="M 2631 2963 
Q 2534 3019 2420 3045 
Q 2306 3072 2169 3072 
Q 1681 3072 1420 2755 
Q 1159 2438 1159 1844 
L 1159 0 
L 581 0 
L 581 3500 
L 1159 3500 
L 1159 2956 
Q 1341 3275 1631 3429 
Q 1922 3584 2338 3584 
Q 2397 3584 2469 3576 
Q 2541 3569 2628 3553 
L 2631 2963 
z
" transform="scale(0.015625)"/>
       <path id="DejaVuSans-74" d="M 1172 4494 
L 1172 3500 
L 2356 3500 
L 2356 3053 
L 1172 3053 
L 1172 1153 
Q 1172 725 1289 603 
Q 1406 481 1766 481 
L 2356 481 
L 2356 0 
L 1766 0 
Q 1100 0 847 248 
Q 594 497 594 1153 
L 594 3053 
L 172 3053 
L 172 3500 
L 594 3500 
L 594 4494 
L 1172 4494 
z
" transform="scale(0.015625)"/>
       <path id="DejaVuSans-69" d="M 603 3500 
L 1178 3500 
L 1178 0 
L 603 0 
L 603 3500 
z
M 603 4863 
L 1178 4863 
L 1178 4134 
L 603 4134 
L 603 4863 
z
" transform="scale(0.015625)"/>
      </defs>
      <use xlink:href="#DejaVuSans-6c"/>
      <use xlink:href="#DejaVuSans-6f" x="27.783203"/>
      <use xlink:href="#DejaVuSans-67" x="88.964844"/>
      <use xlink:href="#DejaVuSans-31" x="152.441406"/>
      <use xlink:href="#DejaVuSans-30" x="216.064453"/>
      <use xlink:href="#DejaVuSans-20" x="279.6875"/>
      <use xlink:href="#DejaVuSans-6f" x="311.474609"/>
      <use xlink:href="#DejaVuSans-66" x="372.65625"/>
      <use xlink:href="#DejaVuSans-20" x="407.861328"/>
      <use xlink:href="#DejaVuSans-46" x="439.648438"/>
      <use xlink:href="#DejaVuSans-45" x="497.167969"/>
      <use xlink:href="#DejaVuSans-76" x="560.351562"/>
      <use xlink:href="#DejaVuSans-61" x="619.53125"/>
      <use xlink:href="#DejaVuSans-6c" x="680.810547"/>
      <use xlink:href="#DejaVuSans-73" x="708.59375"/>
      <use xlink:href="#DejaVuSans-20" x="760.693359"/>
      <use xlink:href="#DejaVuSans-72" x="792.480469"/>
      <use xlink:href="#DejaVuSans-61" x="833.59375"/>
      <use xlink:href="#DejaVuSans-74" x="894.873047"/>
      <use xlink:href="#DejaVuSans-69" x="934.082031"/>
      <use xlink:href="#DejaVuSans-6f" x="961.865234"/>
     </g>
    </g>
   </g>
   <g id="matplotlib.axis_2">
    <g id="ytick_1">
     <g id="line2d_36">
      <path d="M 34.16 288.453725 
L 453.192 288.453725 
" clip-path="url(#p009be275a4)" style="fill: none; stroke: #b0b0b0; stroke-width: 0.8; stroke-linecap: square"/>
     </g>
     <g id="line2d_37">
      <defs>
       <path id="mdf344b43b8" d="M 0 0 
L -3.5 0 
" style="stroke: #000000; stroke-width: 0.8"/>
      </defs>
      <g>
       <use xlink:href="#mdf344b43b8" x="34.16" y="288.453725" style="stroke: #000000; stroke-width: 0.8"/>
      </g>
     </g>
    </g>
    <g id="ytick_2">
     <g id="line2d_38">
      <path d="M 34.16 217.796863 
L 453.192 217.796863 
" clip-path="url(#p009be275a4)" style="fill: none; stroke: #b0b0b0; stroke-width: 0.8; stroke-linecap: square"/>
     </g>
     <g id="line2d_39">
      <g>
       <use xlink:href="#mdf344b43b8" x="34.16" y="217.796863" style="stroke: #000000; stroke-width: 0.8"/>
      </g>
     </g>
    </g>
    <g id="ytick_3">
     <g id="line2d_40">
      <path d="M 34.16 147.14 
L 453.192 147.14 
" clip-path="url(#p009be275a4)" style="fill: none; stroke: #b0b0b0; stroke-width: 0.8; stroke-linecap: square"/>
     </g>
     <g id="line2d_41">
      <g>
       <use xlink:href="#mdf344b43b8" x="34.16" y="147.14" style="stroke: #000000; stroke-width: 0.8"/>
      </g>
     </g>
    </g>
    <g id="ytick_4">
     <g id="line2d_42">
      <path d="M 34.16 76.483137 
L 453.192 76.483137 
" clip-path="url(#p009be275a4)" style="fill: none; stroke: #b0b0b0; stroke-width: 0.8; stroke-linecap: square"/>
     </g>
     <g id="line2d_43">
      <g>
       <use xlink:href="#mdf344b43b8" x="34.16" y="76.483137" style="stroke: #000000; stroke-width: 0.8"/>
      </g>
     </g>
    </g>
    <g id="ytick_5">
     <g id="line2d_44">
      <path d="M 34.16 5.826275 
L 453.192 5.826275 
" clip-path="url(#p009be275a4)" style="fill: none; stroke: #b0b0b0; stroke-width: 0.8; stroke-linecap: square"/>
     </g>
     <g id="line2d_45">
      <g>
       <use xlink:href="#mdf344b43b8" x="34.16" y="5.826275" style="stroke: #000000; stroke-width: 0.8"/>
      </g>
     </g>
    </g>
    <g id="text_5">
     <!-- proportion of trials -->
     <g transform="translate(19.000625 240.14625)rotate(-90)scale(0.2 -0.2)">
      <defs>
       <path id="DejaVuSans-70" d="M 1159 525 
L 1159 -1331 
L 581 -1331 
L 581 3500 
L 1159 3500 
L 1159 2969 
Q 1341 3281 1617 3432 
Q 1894 3584 2278 3584 
Q 2916 3584 3314 3078 
Q 3713 2572 3713 1747 
Q 3713 922 3314 415 
Q 2916 -91 2278 -91 
Q 1894 -91 1617 61 
Q 1341 213 1159 525 
z
M 3116 1747 
Q 3116 2381 2855 2742 
Q 2594 3103 2138 3103 
Q 1681 3103 1420 2742 
Q 1159 2381 1159 1747 
Q 1159 1113 1420 752 
Q 1681 391 2138 391 
Q 2594 391 2855 752 
Q 3116 1113 3116 1747 
z
" transform="scale(0.015625)"/>
       <path id="DejaVuSans-6e" d="M 3513 2113 
L 3513 0 
L 2938 0 
L 2938 2094 
Q 2938 2591 2744 2837 
Q 2550 3084 2163 3084 
Q 1697 3084 1428 2787 
Q 1159 2491 1159 1978 
L 1159 0 
L 581 0 
L 581 3500 
L 1159 3500 
L 1159 2956 
Q 1366 3272 1645 3428 
Q 1925 3584 2291 3584 
Q 2894 3584 3203 3211 
Q 3513 2838 3513 2113 
z
" transform="scale(0.015625)"/>
      </defs>
      <use xlink:href="#DejaVuSans-70"/>
      <use xlink:href="#DejaVuSans-72" x="63.476562"/>
      <use xlink:href="#DejaVuSans-6f" x="102.339844"/>
      <use xlink:href="#DejaVuSans-70" x="163.521484"/>
      <use xlink:href="#DejaVuSans-6f" x="226.998047"/>
      <use xlink:href="#DejaVuSans-72" x="288.179688"/>
      <use xlink:href="#DejaVuSans-74" x="329.292969"/>
      <use xlink:href="#DejaVuSans-69" x="368.501953"/>
      <use xlink:href="#DejaVuSans-6f" x="396.285156"/>
      <use xlink:href="#DejaVuSans-6e" x="457.466797"/>
      <use xlink:href="#DejaVuSans-20" x="520.845703"/>
      <use xlink:href="#DejaVuSans-6f" x="552.632812"/>
      <use xlink:href="#DejaVuSans-66" x="613.814453"/>
      <use xlink:href="#DejaVuSans-20" x="649.019531"/>
      <use xlink:href="#DejaVuSans-74" x="680.806641"/>
      <use xlink:href="#DejaVuSans-72" x="720.015625"/>
      <use xlink:href="#DejaVuSans-69" x="761.128906"/>
      <use xlink:href="#DejaVuSans-61" x="788.912109"/>
      <use xlink:href="#DejaVuSans-6c" x="850.191406"/>
      <use xlink:href="#DejaVuSans-73" x="877.974609"/>
     </g>
    </g>
   </g>
   <g id="line2d_46">
    <path d="M 34.16 267.899002 
L 56.323999 267.899002 
L 56.323999 266.871266 
L 75.285619 266.871266 
L 75.285619 265.843529 
L 90.641125 265.843529 
L 90.641125 264.815793 
L 106.407497 264.815793 
L 106.407497 263.788057 
L 109.602744 263.788057 
L 109.602744 262.760321 
L 110.715356 262.760321 
L 110.715356 262.246453 
L 116.687545 262.246453 
L 116.687545 260.19098 
L 120.650391 260.19098 
L 120.650391 259.163244 
L 124.95825 259.163244 
L 124.95825 258.649376 
L 129.676976 258.649376 
L 129.676976 258.135508 
L 134.893285 258.135508 
L 134.893285 257.107772 
L 140.724623 257.107772 
L 140.724623 256.080036 
L 143.91987 256.080036 
L 143.91987 255.566168 
L 145.032482 255.566168 
L 145.032482 255.052299 
L 151.004671 255.052299 
L 151.004671 252.996827 
L 154.967517 252.996827 
L 154.967517 251.969091 
L 160.798855 251.969091 
L 160.798855 251.455223 
L 163.994102 251.455223 
L 163.994102 248.885882 
L 165.106714 248.885882 
L 165.106714 247.858146 
L 169.210411 247.858146 
L 169.210411 246.83041 
L 171.078902 246.83041 
L 171.078902 245.802674 
L 175.041749 245.802674 
L 175.041749 244.774938 
L 184.068333 244.774938 
L 184.068333 243.747201 
L 185.321796 243.747201 
L 185.321796 242.719465 
L 186.981476 242.719465 
L 186.981476 242.205597 
L 189.284643 242.205597 
L 189.284643 238.094652 
L 195.11598 238.094652 
L 195.11598 237.580784 
L 198.311227 237.580784 
L 198.311227 235.525312 
L 202.100661 235.525312 
L 202.100661 235.011444 
L 203.527537 235.011444 
L 203.527537 234.497576 
L 205.396028 234.497576 
L 205.396028 233.46984 
L 205.943096 233.46984 
L 205.943096 232.955971 
L 209.358874 232.955971 
L 209.358874 231.414367 
L 215.190212 231.414367 
L 215.190212 230.386631 
L 218.385459 230.386631 
L 218.385459 229.358895 
L 219.498071 229.358895 
L 219.498071 228.845027 
L 221.062281 228.845027 
L 221.062281 228.331159 
L 223.601768 228.331159 
L 223.601768 224.734082 
L 225.47026 224.734082 
L 225.47026 222.67861 
L 229.433106 222.67861 
L 229.433106 221.650873 
L 232.628353 221.650873 
L 232.628353 220.623137 
L 237.064975 220.623137 
L 237.064975 220.109269 
L 238.459691 220.109269 
L 238.459691 219.595401 
L 241.372834 219.595401 
L 241.372834 219.081533 
L 243.676 219.081533 
L 243.676 212.915116 
L 246.941523 212.915116 
L 246.941523 212.401248 
L 247.345022 212.401248 
L 247.345022 211.373512 
L 251.307869 211.373512 
L 251.307869 210.859643 
L 252.18416 210.859643 
L 252.18416 210.345775 
L 252.702585 210.345775 
L 252.702585 209.318039 
L 257.918894 209.318039 
L 257.918894 207.776435 
L 260.334453 207.776435 
L 260.334453 207.262567 
L 262.464207 207.262567 
L 262.464207 206.234831 
L 262.63762 206.234831 
L 262.63762 205.720963 
L 263.750232 205.720963 
L 263.750232 205.207094 
L 265.302998 205.207094 
L 265.302998 204.693226 
L 265.550763 204.693226 
L 265.550763 204.179358 
L 265.903142 204.179358 
L 265.903142 203.66549 
L 266.427054 203.66549 
L 266.427054 203.151622 
L 268.670536 203.151622 
L 268.670536 202.637754 
L 269.581569 202.637754 
L 269.581569 202.123886 
L 272.776816 202.123886 
L 272.776816 200.068414 
L 277.993126 200.068414 
L 277.993126 195.957469 
L 279.861617 195.957469 
L 279.861617 194.929733 
L 280.669948 194.929733 
L 280.669948 194.415865 
L 283.824463 194.415865 
L 283.824463 193.901996 
L 290.07052 193.901996 
L 290.07052 193.388128 
L 291.456332 193.388128 
L 291.456332 192.87426 
L 293.438059 192.87426 
L 293.438059 192.360392 
L 293.759498 192.360392 
L 293.759498 191.846524 
L 294.651579 191.846524 
L 294.651579 190.818788 
L 297.025021 190.818788 
L 297.025021 190.30492 
L 297.284588 190.30492 
L 297.284588 189.791052 
L 298.067357 189.791052 
L 298.067357 184.652371 
L 298.562949 184.652371 
L 298.562949 184.138503 
L 300.652126 184.138503 
L 300.652126 183.624635 
L 301.73638 183.624635 
L 301.73638 182.596898 
L 301.930487 182.596898 
L 301.964498 181.569162 
L 304.039546 181.569162 
L 304.039546 180.541426 
L 305.332037 180.541426 
L 305.332037 180.027558 
L 305.699226 180.027558 
L 305.699226 179.51369 
L 307.305069 179.51369 
L 307.305069 178.485954 
L 308.002392 178.485954 
L 308.002392 177.972086 
L 309.770764 177.972086 
L 309.770764 176.944349 
L 311.267915 176.944349 
L 311.267915 176.430481 
L 312.310251 176.430481 
L 312.310251 175.402745 
L 318.141589 175.402745 
L 318.141589 174.375009 
L 318.395352 174.375009 
L 318.395352 173.861141 
L 319.94212 173.861141 
L 319.94212 171.805668 
L 322.245286 171.805668 
L 322.245286 171.2918 
L 323.793569 171.2918 
L 323.793569 170.777932 
L 325.510809 170.777932 
L 325.510809 170.264064 
L 327.168174 170.264064 
L 327.168174 169.236328 
L 332.384483 169.236328 
L 332.384483 168.208592 
L 335.061305 168.208592 
L 335.061305 166.666988 
L 340.016352 166.666988 
L 340.016352 166.153119 
L 343.162875 166.153119 
L 343.162875 165.639251 
L 348.561092 165.639251 
L 348.561092 165.125383 
L 349.042936 165.125383 
L 349.042936 164.097647 
L 350.376942 164.097647 
L 350.376942 163.583779 
L 351.346103 163.583779 
L 351.346103 162.556043 
L 351.655303 162.556043 
L 351.655303 162.042175 
L 352.458715 162.042175 
L 352.458715 158.445098 
L 354.611625 158.445098 
L 354.611625 157.417362 
L 355.056853 157.417362 
L 355.135537 156.389626 
L 355.775159 156.389626 
L 355.775159 155.875758 
L 357.05352 155.875758 
L 357.05352 155.361889 
L 360.45507 155.361889 
L 360.45507 154.848021 
L 372.532946 154.848021 
L 372.532946 154.334153 
L 374.333477 154.334153 
L 374.333477 151.764813 
L 376.636644 151.764813 
L 376.636644 150.223209 
L 379.902166 150.223209 
L 379.902166 148.681604 
L 389.452662 148.681604 
L 389.452662 147.653868 
L 394.407709 147.653868 
L 394.407709 147.14 
L 396.710875 147.14 
L 396.710875 146.626132 
L 399.976398 146.626132 
L 399.976398 146.112264 
L 406.850072 146.112264 
L 406.850072 145.084528 
L 428.724835 145.084528 
L 428.724835 144.056791 
L 431.028001 144.056791 
L 431.028001 143.029055 
L 434.293524 143.029055 
L 434.293524 142.001319 
L 453.192 142.001319 
L 453.192 142.001319 
" clip-path="url(#p009be275a4)" style="fill: none; stroke: #000000; stroke-width: 3; stroke-linecap: square"/>
   </g>
   <g id="line2d_47">
    <path clip-path="url(#p009be275a4)" style="fill: none; stroke: #000000; stroke-width: 3; stroke-linecap: square"/>
   </g>
   <g id="line2d_48">
    <path d="M 34.16 288.453725 
L 214.766358 288.453725 
L 214.766358 287.197603 
L 218.420398 287.197603 
L 218.420398 285.941481 
L 220.26998 285.941481 
L 220.26998 284.685359 
L 223.924021 284.685359 
L 223.924021 283.429237 
L 225.246105 283.429237 
L 225.246105 282.173115 
L 225.915562 282.173115 
L 225.915562 280.916993 
L 227.524641 280.916993 
L 227.524641 279.660871 
L 228.900146 279.660871 
L 228.900146 278.404749 
L 231.178682 278.404749 
L 231.178682 277.148627 
L 231.419184 277.148627 
L 231.419184 275.892505 
L 231.830626 275.892505 
L 231.830626 274.636383 
L 235.387387 274.636383 
L 235.484667 272.124139 
L 236.395309 272.124139 
L 236.395309 270.868017 
L 237.24357 270.868017 
L 237.24357 269.611895 
L 237.751237 269.611895 
L 237.751237 268.355773 
L 238.673846 268.355773 
L 238.673846 267.099651 
L 239.459549 267.099651 
L 239.459549 264.587407 
L 240.891009 264.587407 
L 240.891009 263.331285 
L 241.405278 263.331285 
L 241.405278 262.075163 
L 242.747193 262.075163 
L 242.747193 260.819041 
L 242.97983 260.819041 
L 242.97983 259.562919 
L 243.11359 259.562919 
L 243.11359 257.050675 
L 244.497013 257.050675 
L 244.497013 255.794553 
L 245.867134 255.794553 
L 245.867134 254.538431 
L 247.723318 254.538431 
L 247.723318 253.282309 
L 248.145671 253.282309 
L 248.151054 250.770065 
L 248.900442 250.770065 
L 248.900442 249.513943 
L 249.311262 249.513943 
L 249.311262 248.257821 
L 250.001854 248.257821 
L 250.001854 247.001699 
L 250.5178 247.001699 
L 250.608753 243.233333 
L 250.673067 243.233333 
L 250.673067 241.977211 
L 252.451655 241.977211 
L 252.451655 240.721089 
L 253.958287 240.721089 
L 253.958287 239.464967 
L 254.171841 239.464967 
L 254.171841 238.208845 
L 254.307838 238.208845 
L 254.327108 235.696601 
L 254.814884 235.696601 
L 254.814884 234.440479 
L 255.646217 234.440479 
L 255.646217 233.184357 
L 257.125291 233.184357 
L 257.13766 230.672113 
L 258.372266 230.672113 
L 258.372266 229.415991 
L 259.461909 229.415991 
L 259.527888 226.903747 
L 259.791009 226.903747 
L 259.791009 225.647625 
L 260.080578 225.647625 
L 260.080578 223.135381 
L 260.22845 223.135381 
L 260.22845 221.879259 
L 260.779332 221.879259 
L 260.791701 219.367015 
L 261.667004 219.367015 
L 261.667004 218.110893 
L 261.822272 218.110893 
L 261.822272 216.854771 
L 261.936761 216.854771 
L 261.936761 214.342527 
L 262.069545 214.342527 
L 262.069545 213.086405 
L 263.181929 213.086405 
L 263.181929 211.830283 
L 264.438034 211.830283 
L 264.438034 210.574161 
L 264.809291 210.574161 
L 264.809291 209.318039 
L 265.077634 209.318039 
L 265.118042 206.805795 
L 266.37553 206.805795 
L 266.37553 205.549673 
L 266.716571 205.549673 
L 266.716571 204.293551 
L 266.974225 204.293551 
L 266.974225 203.037429 
L 268.274495 203.037429 
L 268.286864 200.525185 
L 270.312914 200.525185 
L 270.312914 199.269063 
L 270.581257 199.269063 
L 270.677092 196.756819 
L 271.022555 196.756819 
L 271.022555 195.500697 
L 271.138829 195.500697 
L 271.138829 194.244575 
L 271.294097 194.244575 
L 271.294097 192.988453 
L 272.296141 192.988453 
L 272.296141 191.732331 
L 272.995012 191.732331 
L 272.995012 190.476209 
L 273.15028 190.476209 
L 273.15028 189.220087 
L 274.004453 189.220087 
L 274.004453 186.707843 
L 275.289039 186.707843 
L 275.289039 185.451721 
L 275.557382 185.451721 
L 275.557382 184.195599 
L 276.943167 184.195599 
L 276.943167 182.939477 
L 277.567575 182.939477 
L 277.567575 181.683355 
L 277.74632 181.683355 
L 277.835918 177.914989 
L 278.651478 177.914989 
L 278.651478 175.402745 
L 279.041917 175.402745 
L 279.041917 174.146623 
L 279.602503 174.146623 
L 279.614873 171.634379 
L 280.148917 171.634379 
L 280.148917 170.378257 
L 281.521297 170.378257 
L 281.521297 169.122135 
L 281.87356 169.122135 
L 281.87356 167.866013 
L 282.005101 167.866013 
L 282.005101 166.609891 
L 282.141903 166.609891 
L 282.141903 165.353769 
L 283.688942 165.353769 
L 283.688942 164.097647 
L 285.062704 164.097647 
L 285.062704 162.841525 
L 285.217971 162.841525 
L 285.217971 161.585403 
L 287.024919 161.585403 
L 287.024919 160.329281 
L 287.794171 160.329281 
L 287.794171 159.073159 
L 288.062514 159.073159 
L 288.062514 157.817037 
L 289.502482 157.817037 
L 289.502482 155.304793 
L 289.709729 155.304793 
L 289.770825 151.536427 
L 289.864997 151.536427 
L 289.864997 150.280305 
L 291.670195 150.280305 
L 291.682564 147.768061 
L 292.001045 147.768061 
L 292.001045 146.511939 
L 292.772524 146.511939 
L 292.772524 145.255817 
L 293.087369 145.255817 
L 293.087369 143.999695 
L 294.072792 143.999695 
L 294.072792 142.743573 
L 294.279581 142.743573 
L 294.279581 141.487451 
L 294.539946 141.487451 
L 294.539946 140.231329 
L 294.808289 140.231329 
L 294.808289 138.975207 
L 296.31722 138.975207 
L 296.32959 136.462963 
L 298.276147 136.462963 
L 298.276147 135.206841 
L 298.585565 135.206841 
L 298.590991 132.694597 
L 298.719818 132.694597 
L 298.719818 131.438475 
L 300.560734 131.438475 
L 300.560734 130.182353 
L 300.716001 130.182353 
L 300.716001 128.926231 
L 300.829076 128.926231 
L 300.829076 127.670109 
L 300.984344 127.670109 
L 300.984344 126.413987 
L 302.44671 126.413987 
L 302.44671 125.157865 
L 303.252272 125.157865 
L 303.252272 123.901743 
L 303.567117 123.901743 
L 303.567117 122.645621 
L 304.506177 122.645621 
L 304.506177 121.389499 
L 305.530808 121.389499 
L 305.530808 120.133377 
L 305.845653 120.133377 
L 305.845653 118.877255 
L 306.214488 118.877255 
L 306.214488 116.365011 
L 307.168224 116.365011 
L 307.180594 113.852767 
L 307.436567 113.852767 
L 307.448937 111.340523 
L 307.950332 111.340523 
L 307.950332 110.084401 
L 309.570822 110.084401 
L 309.570822 108.828279 
L 309.836793 108.828279 
L 309.839165 106.316035 
L 310.151637 106.316035 
L 310.151637 105.059913 
L 311.251952 105.059913 
L 311.251952 103.803791 
L 311.416092 103.803791 
L 311.416092 102.547669 
L 312.926457 102.547669 
L 312.926457 101.291547 
L 313.161601 101.291547 
L 313.161601 100.035425 
L 315.204994 100.035425 
L 315.204994 98.779303 
L 315.757404 98.779303 
L 315.757404 97.523181 
L 316.072249 97.523181 
L 316.072249 96.267059 
L 316.919714 96.267059 
L 316.919714 95.010937 
L 317.272739 95.010937 
L 317.272739 93.754815 
L 317.428007 93.754815 
L 317.465716 89.986449 
L 317.78056 89.986449 
L 317.78056 87.474205 
L 318.665223 87.474205 
L 318.665223 86.218083 
L 319.510978 86.218083 
L 319.510978 84.961961 
L 321.895839 84.961961 
L 321.895839 83.705839 
L 322.503179 83.705839 
L 322.503179 82.449717 
L 322.818024 82.449717 
L 322.818024 81.193595 
L 323.641348 81.193595 
L 323.641348 79.937473 
L 323.88023 79.937473 
L 323.8926 77.425229 
L 324.174375 77.425229 
L 324.174375 76.169107 
L 325.43159 76.169107 
L 325.43159 74.912985 
L 325.919885 74.912985 
L 325.919885 73.656863 
L 326.282828 73.656863 
L 326.282828 72.400741 
L 327.139901 72.400741 
L 327.139901 69.888497 
L 328.48036 69.888497 
L 328.523967 67.376253 
L 328.679234 67.376253 
L 328.679234 66.120131 
L 328.838811 66.120131 
L 328.838811 64.864009 
L 328.994079 64.864009 
L 328.994079 63.607887 
L 330.225869 63.607887 
L 330.225869 62.351765 
L 332.177365 62.351765 
L 332.177365 61.095643 
L 334.400971 61.095643 
L 334.400971 59.839521 
L 335.131458 59.839521 
L 335.143827 57.327277 
L 335.446302 57.327277 
L 335.458672 54.815033 
L 336.109283 54.815033 
L 336.14648 51.046667 
L 337.534055 51.046667 
L 337.534055 49.790545 
L 337.8489 49.790545 
L 337.854792 46.022179 
L 338.198152 46.022179 
L 338.198152 44.766057 
L 338.35342 44.766057 
L 338.35342 43.509935 
L 341.146747 43.509935 
L 341.146747 42.253813 
L 342.892256 42.253813 
L 342.892256 40.997691 
L 344.805643 40.997691 
L 344.818013 38.485447 
L 347.167534 38.485447 
L 347.20824 35.973203 
L 347.322801 35.973203 
L 347.322801 34.717081 
L 348.913043 34.717081 
L 348.913043 33.460959 
L 349.068311 33.460959 
L 349.068311 32.204837 
L 353.775025 32.204837 
L 353.787394 29.692593 
L 355.520534 29.692593 
L 355.532903 27.180349 
L 356.177622 27.180349 
L 356.177622 25.924227 
L 357.923131 25.924227 
L 357.923131 24.668105 
L 453.192 24.668105 
L 453.192 24.668105 
" clip-path="url(#p009be275a4)" style="fill: none; stroke: #00bfbf; stroke-width: 3; stroke-linecap: square"/>
   </g>
   <g id="line2d_49">
    <path clip-path="url(#p009be275a4)" style="fill: none; stroke: #00bfbf; stroke-width: 3; stroke-linecap: square"/>
   </g>
   <g id="line2d_50"/>
   <g id="line2d_51"/>
   <g id="line2d_52">
    <path d="M 243.676 291.28 
L 243.676 3 
" clip-path="url(#p009be275a4)" style="fill: none; stroke: #000000; stroke-width: 1.5; stroke-linecap: square"/>
   </g>
   <g id="line2d_53">
    <path d="M 34.16 147.14 
L 453.192 147.14 
" clip-path="url(#p009be275a4)" style="fill: none; stroke-dasharray: 2,3.3; stroke-dashoffset: 0; stroke: #000000; stroke-width: 2"/>
   </g>
   <g id="patch_3">
    <path d="M 34.16 291.28 
L 34.16 3 
" style="fill: none; stroke: #000000; stroke-width: 0.8; stroke-linejoin: miter; stroke-linecap: square"/>
   </g>
   <g id="patch_4">
    <path d="M 453.192 291.28 
L 453.192 3 
" style="fill: none; stroke: #000000; stroke-width: 0.8; stroke-linejoin: miter; stroke-linecap: square"/>
   </g>
   <g id="patch_5">
    <path d="M 34.16 291.28 
L 453.192 291.28 
" style="fill: none; stroke: #000000; stroke-width: 0.8; stroke-linejoin: miter; stroke-linecap: square"/>
   </g>
   <g id="patch_6">
    <path d="M 34.16 3 
L 453.192 3 
" style="fill: none; stroke: #000000; stroke-width: 0.8; stroke-linejoin: miter; stroke-linecap: square"/>
   </g>
   <g id="text_6">
    <!-- f10-f14,5-D -->
    <g transform="translate(330.91761 285.5144)scale(0.2 -0.2)">
     <defs>
      <path id="DejaVuSans-34" d="M 2419 4116 
L 825 1625 
L 2419 1625 
L 2419 4116 
z
M 2253 4666 
L 3047 4666 
L 3047 1625 
L 3713 1625 
L 3713 1100 
L 3047 1100 
L 3047 0 
L 2419 0 
L 2419 1100 
L 313 1100 
L 313 1709 
L 2253 4666 
z
" transform="scale(0.015625)"/>
      <path id="DejaVuSans-2c" d="M 750 794 
L 1409 794 
L 1409 256 
L 897 -744 
L 494 -744 
L 750 256 
L 750 794 
z
" transform="scale(0.015625)"/>
      <path id="DejaVuSans-35" d="M 691 4666 
L 3169 4666 
L 3169 4134 
L 1269 4134 
L 1269 2991 
Q 1406 3038 1543 3061 
Q 1681 3084 1819 3084 
Q 2600 3084 3056 2656 
Q 3513 2228 3513 1497 
Q 3513 744 3044 326 
Q 2575 -91 1722 -91 
Q 1428 -91 1123 -41 
Q 819 9 494 109 
L 494 744 
Q 775 591 1075 516 
Q 1375 441 1709 441 
Q 2250 441 2565 725 
Q 2881 1009 2881 1497 
Q 2881 1984 2565 2268 
Q 2250 2553 1709 2553 
Q 1456 2553 1204 2497 
Q 953 2441 691 2322 
L 691 4666 
z
" transform="scale(0.015625)"/>
      <path id="DejaVuSans-44" d="M 1259 4147 
L 1259 519 
L 2022 519 
Q 2988 519 3436 956 
Q 3884 1394 3884 2338 
Q 3884 3275 3436 3711 
Q 2988 4147 2022 4147 
L 1259 4147 
z
M 628 4666 
L 1925 4666 
Q 3281 4666 3915 4102 
Q 4550 3538 4550 2338 
Q 4550 1131 3912 565 
Q 3275 0 1925 0 
L 628 0 
L 628 4666 
z
" transform="scale(0.015625)"/>
     </defs>
     <use xlink:href="#DejaVuSans-66"/>
     <use xlink:href="#DejaVuSans-31" x="35.205078"/>
     <use xlink:href="#DejaVuSans-30" x="98.828125"/>
     <use xlink:href="#DejaVuSans-2d" x="162.451172"/>
     <use xlink:href="#DejaVuSans-66" x="198.535156"/>
     <use xlink:href="#DejaVuSans-31" x="233.740234"/>
     <use xlink:href="#DejaVuSans-34" x="297.363281"/>
     <use xlink:href="#DejaVuSans-2c" x="360.986328"/>
     <use xlink:href="#DejaVuSans-35" x="392.773438"/>
     <use xlink:href="#DejaVuSans-2d" x="456.396484"/>
     <use xlink:href="#DejaVuSans-44" x="492.480469"/>
    </g>
   </g>
   <g id="text_7">
    <!-- v2.6.3 -->
    <g style="fill: #808080" transform="translate(227.99475 286.317512)scale(0.1 -0.1)">
     <defs>
      <path id="DejaVuSans-32" d="M 1228 531 
L 3431 531 
L 3431 0 
L 469 0 
L 469 531 
Q 828 903 1448 1529 
Q 2069 2156 2228 2338 
Q 2531 2678 2651 2914 
Q 2772 3150 2772 3378 
Q 2772 3750 2511 3984 
Q 2250 4219 1831 4219 
Q 1534 4219 1204 4116 
Q 875 4013 500 3803 
L 500 4441 
Q 881 4594 1212 4672 
Q 1544 4750 1819 4750 
Q 2544 4750 2975 4387 
Q 3406 4025 3406 3419 
Q 3406 3131 3298 2873 
Q 3191 2616 2906 2266 
Q 2828 2175 2409 1742 
Q 1991 1309 1228 531 
z
" transform="scale(0.015625)"/>
      <path id="DejaVuSans-2e" d="M 684 794 
L 1344 794 
L 1344 0 
L 684 0 
L 684 794 
z
" transform="scale(0.015625)"/>
      <path id="DejaVuSans-36" d="M 2113 2584 
Q 1688 2584 1439 2293 
Q 1191 2003 1191 1497 
Q 1191 994 1439 701 
Q 1688 409 2113 409 
Q 2538 409 2786 701 
Q 3034 994 3034 1497 
Q 3034 2003 2786 2293 
Q 2538 2584 2113 2584 
z
M 3366 4563 
L 3366 3988 
Q 3128 4100 2886 4159 
Q 2644 4219 2406 4219 
Q 1781 4219 1451 3797 
Q 1122 3375 1075 2522 
Q 1259 2794 1537 2939 
Q 1816 3084 2150 3084 
Q 2853 3084 3261 2657 
Q 3669 2231 3669 1497 
Q 3669 778 3244 343 
Q 2819 -91 2113 -91 
Q 1303 -91 875 529 
Q 447 1150 447 2328 
Q 447 3434 972 4092 
Q 1497 4750 2381 4750 
Q 2619 4750 2861 4703 
Q 3103 4656 3366 4563 
z
" transform="scale(0.015625)"/>
      <path id="DejaVuSans-33" d="M 2597 2516 
Q 3050 2419 3304 2112 
Q 3559 1806 3559 1356 
Q 3559 666 3084 287 
Q 2609 -91 1734 -91 
Q 1441 -91 1130 -33 
Q 819 25 488 141 
L 488 750 
Q 750 597 1062 519 
Q 1375 441 1716 441 
Q 2309 441 2620 675 
Q 2931 909 2931 1356 
Q 2931 1769 2642 2001 
Q 2353 2234 1838 2234 
L 1294 2234 
L 1294 2753 
L 1863 2753 
Q 2328 2753 2575 2939 
Q 2822 3125 2822 3475 
Q 2822 3834 2567 4026 
Q 2313 4219 1838 4219 
Q 1578 4219 1281 4162 
Q 984 4106 628 3988 
L 628 4550 
Q 988 4650 1302 4700 
Q 1616 4750 1894 4750 
Q 2613 4750 3031 4423 
Q 3450 4097 3450 3541 
Q 3450 3153 3228 2886 
Q 3006 2619 2597 2516 
z
" transform="scale(0.015625)"/>
     </defs>
     <use xlink:href="#DejaVuSans-76"/>
     <use xlink:href="#DejaVuSans-32" x="59.179688"/>
     <use xlink:href="#DejaVuSans-2e" x="122.802734"/>
     <use xlink:href="#DejaVuSans-36" x="154.589844"/>
     <use xlink:href="#DejaVuSans-2e" x="218.212891"/>
     <use xlink:href="#DejaVuSans-33" x="250"/>
    </g>
   </g>
   <g id="legend_1">
    <g id="patch_7">
     <path d="M 48.16 136.425 
L 177.381875 136.425 
Q 181.381875 136.425 181.381875 132.425 
L 181.381875 17 
Q 181.381875 13 177.381875 13 
L 48.16 13 
Q 44.16 13 44.16 17 
L 44.16 132.425 
Q 44.16 136.425 48.16 136.425 
z
" style="fill: #ffffff; opacity: 0.2; stroke: #cccccc; stroke-linejoin: miter"/>
    </g>
    <g id="line2d_54">
     <path d="M 52.16 29.196875 
L 72.16 29.196875 
L 92.16 29.196875 
" style="fill: none; stroke: #000000; stroke-width: 3; stroke-linecap: square"/>
    </g>
    <g id="text_8">
     <!-- 1: 2/4 -->
     <g transform="translate(108.16 36.196875)scale(0.2 -0.2)">
      <defs>
       <path id="DejaVuSans-3a" d="M 750 794 
L 1409 794 
L 1409 0 
L 750 0 
L 750 794 
z
M 750 3309 
L 1409 3309 
L 1409 2516 
L 750 2516 
L 750 3309 
z
" transform="scale(0.015625)"/>
       <path id="DejaVuSans-2f" d="M 1625 4666 
L 2156 4666 
L 531 -594 
L 0 -594 
L 1625 4666 
z
" transform="scale(0.015625)"/>
      </defs>
      <use xlink:href="#DejaVuSans-31"/>
      <use xlink:href="#DejaVuSans-3a" x="63.623047"/>
      <use xlink:href="#DejaVuSans-20" x="97.314453"/>
      <use xlink:href="#DejaVuSans-32" x="129.101562"/>
      <use xlink:href="#DejaVuSans-2f" x="192.724609"/>
      <use xlink:href="#DejaVuSans-34" x="226.416016"/>
     </g>
    </g>
    <g id="line2d_55">
     <path d="M 52.16 58.553125 
L 72.16 58.553125 
L 92.16 58.553125 
" style="fill: none; stroke: #00bfbf; stroke-width: 3; stroke-linecap: square"/>
    </g>
    <g id="text_9">
     <!-- -1: 1/1 -->
     <g transform="translate(108.16 65.553125)scale(0.2 -0.2)">
      <use xlink:href="#DejaVuSans-2d"/>
      <use xlink:href="#DejaVuSans-31" x="36.083984"/>
      <use xlink:href="#DejaVuSans-3a" x="99.707031"/>
      <use xlink:href="#DejaVuSans-20" x="133.398438"/>
      <use xlink:href="#DejaVuSans-31" x="165.185547"/>
      <use xlink:href="#DejaVuSans-2f" x="228.808594"/>
      <use xlink:href="#DejaVuSans-31" x="262.5"/>
     </g>
    </g>
    <g id="line2d_56">
     <path d="M 52.16 87.909375 
L 72.16 87.909375 
L 92.16 87.909375 
" style="fill: none; stroke: #bf00bf; stroke-width: 3; stroke-linecap: square"/>
    </g>
    <g id="text_10">
     <!-- -4: 0/0 -->
     <g transform="translate(108.16 94.909375)scale(0.2 -0.2)">
      <use xlink:href="#DejaVuSans-2d"/>
      <use xlink:href="#DejaVuSans-34" x="36.083984"/>
      <use xlink:href="#DejaVuSans-3a" x="99.707031"/>
      <use xlink:href="#DejaVuSans-20" x="133.398438"/>
      <use xlink:href="#DejaVuSans-30" x="165.185547"/>
      <use xlink:href="#DejaVuSans-2f" x="228.808594"/>
      <use xlink:href="#DejaVuSans-30" x="262.5"/>
     </g>
    </g>
    <g id="line2d_57">
     <path d="M 52.16 117.265625 
L 72.16 117.265625 
L 92.16 117.265625 
" style="fill: none; stroke: #ff0000; stroke-width: 3; stroke-linecap: square"/>
    </g>
    <g id="text_11">
     <!-- -8: 0/0 -->
     <g transform="translate(108.16 124.265625)scale(0.2 -0.2)">
      <defs>
       <path id="DejaVuSans-38" d="M 2034 2216 
Q 1584 2216 1326 1975 
Q 1069 1734 1069 1313 
Q 1069 891 1326 650 
Q 1584 409 2034 409 
Q 2484 409 2743 651 
Q 3003 894 3003 1313 
Q 3003 1734 2745 1975 
Q 2488 2216 2034 2216 
z
M 1403 2484 
Q 997 2584 770 2862 
Q 544 3141 544 3541 
Q 544 4100 942 4425 
Q 1341 4750 2034 4750 
Q 2731 4750 3128 4425 
Q 3525 4100 3525 3541 
Q 3525 3141 3298 2862 
Q 3072 2584 2669 2484 
Q 3125 2378 3379 2068 
Q 3634 1759 3634 1313 
Q 3634 634 3220 271 
Q 2806 -91 2034 -91 
Q 1263 -91 848 271 
Q 434 634 434 1313 
Q 434 1759 690 2068 
Q 947 2378 1403 2484 
z
M 1172 3481 
Q 1172 3119 1398 2916 
Q 1625 2713 2034 2713 
Q 2441 2713 2670 2916 
Q 2900 3119 2900 3481 
Q 2900 3844 2670 4047 
Q 2441 4250 2034 4250 
Q 1625 4250 1398 4047 
Q 1172 3844 1172 3481 
z
" transform="scale(0.015625)"/>
      </defs>
      <use xlink:href="#DejaVuSans-2d"/>
      <use xlink:href="#DejaVuSans-38" x="36.083984"/>
      <use xlink:href="#DejaVuSans-3a" x="99.707031"/>
      <use xlink:href="#DejaVuSans-20" x="133.398438"/>
      <use xlink:href="#DejaVuSans-30" x="165.185547"/>
      <use xlink:href="#DejaVuSans-2f" x="228.808594"/>
      <use xlink:href="#DejaVuSans-30" x="262.5"/>
     </g>
    </g>
   </g>
  </g>
 </g>
 <defs>
  <clipPath id="p009be275a4">
   <rect x="34.16" y="3" width="419.032" height="288.28"/>
  </clipPath>
 </defs>
</svg>
