<?xml version="1.0" encoding="utf-8" standalone="no"?>
<!DOCTYPE svg PUBLIC "-//W3C//DTD SVG 1.1//EN"
  "http://www.w3.org/Graphics/SVG/1.1/DTD/svg11.dtd">
<svg xmlns:xlink="http://www.w3.org/1999/xlink" width="460.8pt" height="345.6pt" viewBox="0 0 460.8 345.6" xmlns="http://www.w3.org/2000/svg" version="1.1">
 <metadata>
  <rdf:RDF xmlns:dc="http://purl.org/dc/elements/1.1/" xmlns:cc="http://creativecommons.org/ns#" xmlns:rdf="http://www.w3.org/1999/02/22-rdf-syntax-ns#">
   <cc:Work>
    <dc:type rdf:resource="http://purl.org/dc/dcmitype/StillImage"/>
    <dc:date>2024-01-05T10:25:43.233522</dc:date>
    <dc:format>image/svg+xml</dc:format>
    <dc:creator>
     <cc:Agent>
      <dc:title>Matplotlib v3.5.1, https://matplotlib.org/</dc:title>
     </cc:Agent>
    </dc:creator>
   </cc:Work>
  </rdf:RDF>
 </metadata>
 <defs>
  <style type="text/css">*{stroke-linejoin: round; stroke-linecap: butt}</style>
 </defs>
 <g id="figure_1">
  <g id="patch_1">
   <path d="M 0 345.6 
L 460.8 345.6 
L 460.8 0 
L 0 0 
z
" style="fill: #ffffff"/>
  </g>
  <g id="axes_1">
   <g id="patch_2">
    <path d="M 34.16 291.28 
L 453.192 291.28 
L 453.192 3 
L 34.16 3 
z
" style="fill: #ffffff"/>
   </g>
   <g id="matplotlib.axis_1">
    <g id="xtick_1">
     <g id="line2d_1">
      <path d="M 154.422041 291.28 
L 154.422041 3 
" clip-path="url(#p61a40a3102)" style="fill: none; stroke: #b0b0b0; stroke-width: 0.8; stroke-linecap: square"/>
     </g>
     <g id="line2d_2">
      <defs>
       <path id="meb283e1c8f" d="M 0 0 
L 0 3.5 
" style="stroke: #000000; stroke-width: 0.8"/>
      </defs>
      <g>
       <use xlink:href="#meb283e1c8f" x="154.422041" y="291.28" style="stroke: #000000; stroke-width: 0.8"/>
      </g>
     </g>
     <g id="text_1">
      <!-- -1 -->
      <g transform="translate(144.451729 313.476875)scale(0.2 -0.2)">
       <defs>
        <path id="DejaVuSans-2d" d="M 313 2009 
L 1997 2009 
L 1997 1497 
L 313 1497 
L 313 2009 
z
" transform="scale(0.015625)"/>
        <path id="DejaVuSans-31" d="M 794 531 
L 1825 531 
L 1825 4091 
L 703 3866 
L 703 4441 
L 1819 4666 
L 2450 4666 
L 2450 531 
L 3481 531 
L 3481 0 
L 794 0 
L 794 531 
z
" transform="scale(0.015625)"/>
       </defs>
       <use xlink:href="#DejaVuSans-2d"/>
       <use xlink:href="#DejaVuSans-31" x="36.083984"/>
      </g>
     </g>
    </g>
    <g id="xtick_2">
     <g id="line2d_3">
      <path d="M 332.929959 291.28 
L 332.929959 3 
" clip-path="url(#p61a40a3102)" style="fill: none; stroke: #b0b0b0; stroke-width: 0.8; stroke-linecap: square"/>
     </g>
     <g id="line2d_4">
      <g>
       <use xlink:href="#meb283e1c8f" x="332.929959" y="291.28" style="stroke: #000000; stroke-width: 0.8"/>
      </g>
     </g>
     <g id="text_2">
      <!-- 1 -->
      <g transform="translate(326.567459 313.476875)scale(0.2 -0.2)">
       <use xlink:href="#DejaVuSans-31"/>
      </g>
     </g>
    </g>
    <g id="xtick_3">
     <g id="line2d_5">
      <defs>
       <path id="m70709da749" d="M 0 0 
L 0 2 
" style="stroke: #000000; stroke-width: 0.6"/>
      </defs>
      <g>
       <use xlink:href="#m70709da749" x="38.299964" y="291.28" style="stroke: #000000; stroke-width: 0.6"/>
      </g>
     </g>
    </g>
    <g id="xtick_4">
     <g id="line2d_6">
      <g>
       <use xlink:href="#m70709da749" x="45.367204" y="291.28" style="stroke: #000000; stroke-width: 0.6"/>
      </g>
     </g>
    </g>
    <g id="xtick_5">
     <g id="line2d_7">
      <g>
       <use xlink:href="#m70709da749" x="51.34247" y="291.28" style="stroke: #000000; stroke-width: 0.6"/>
      </g>
     </g>
    </g>
    <g id="xtick_6">
     <g id="line2d_8">
      <g>
       <use xlink:href="#m70709da749" x="56.51848" y="291.28" style="stroke: #000000; stroke-width: 0.6"/>
      </g>
     </g>
    </g>
    <g id="xtick_7">
     <g id="line2d_9">
      <g>
       <use xlink:href="#m70709da749" x="61.084046" y="291.28" style="stroke: #000000; stroke-width: 0.6"/>
      </g>
     </g>
    </g>
    <g id="xtick_8">
     <g id="line2d_10">
      <g>
       <use xlink:href="#m70709da749" x="92.036202" y="291.28" style="stroke: #000000; stroke-width: 0.6"/>
      </g>
     </g>
    </g>
    <g id="xtick_9">
     <g id="line2d_11">
      <g>
       <use xlink:href="#m70709da749" x="107.753044" y="291.28" style="stroke: #000000; stroke-width: 0.6"/>
      </g>
     </g>
    </g>
    <g id="xtick_10">
     <g id="line2d_12">
      <g>
       <use xlink:href="#m70709da749" x="118.90432" y="291.28" style="stroke: #000000; stroke-width: 0.6"/>
      </g>
     </g>
    </g>
    <g id="xtick_11">
     <g id="line2d_13">
      <g>
       <use xlink:href="#m70709da749" x="127.553923" y="291.28" style="stroke: #000000; stroke-width: 0.6"/>
      </g>
     </g>
    </g>
    <g id="xtick_12">
     <g id="line2d_14">
      <g>
       <use xlink:href="#m70709da749" x="134.621162" y="291.28" style="stroke: #000000; stroke-width: 0.6"/>
      </g>
     </g>
    </g>
    <g id="xtick_13">
     <g id="line2d_15">
      <g>
       <use xlink:href="#m70709da749" x="140.596428" y="291.28" style="stroke: #000000; stroke-width: 0.6"/>
      </g>
     </g>
    </g>
    <g id="xtick_14">
     <g id="line2d_16">
      <g>
       <use xlink:href="#m70709da749" x="145.772439" y="291.28" style="stroke: #000000; stroke-width: 0.6"/>
      </g>
     </g>
    </g>
    <g id="xtick_15">
     <g id="line2d_17">
      <g>
       <use xlink:href="#m70709da749" x="150.338004" y="291.28" style="stroke: #000000; stroke-width: 0.6"/>
      </g>
     </g>
    </g>
    <g id="xtick_16">
     <g id="line2d_18">
      <g>
       <use xlink:href="#m70709da749" x="181.29016" y="291.28" style="stroke: #000000; stroke-width: 0.6"/>
      </g>
     </g>
    </g>
    <g id="xtick_17">
     <g id="line2d_19">
      <g>
       <use xlink:href="#m70709da749" x="197.007002" y="291.28" style="stroke: #000000; stroke-width: 0.6"/>
      </g>
     </g>
    </g>
    <g id="xtick_18">
     <g id="line2d_20">
      <g>
       <use xlink:href="#m70709da749" x="208.158279" y="291.28" style="stroke: #000000; stroke-width: 0.6"/>
      </g>
     </g>
    </g>
    <g id="xtick_19">
     <g id="line2d_21">
      <g>
       <use xlink:href="#m70709da749" x="216.807881" y="291.28" style="stroke: #000000; stroke-width: 0.6"/>
      </g>
     </g>
    </g>
    <g id="xtick_20">
     <g id="line2d_22">
      <g>
       <use xlink:href="#m70709da749" x="223.875121" y="291.28" style="stroke: #000000; stroke-width: 0.6"/>
      </g>
     </g>
    </g>
    <g id="xtick_21">
     <g id="line2d_23">
      <g>
       <use xlink:href="#m70709da749" x="229.850387" y="291.28" style="stroke: #000000; stroke-width: 0.6"/>
      </g>
     </g>
    </g>
    <g id="xtick_22">
     <g id="line2d_24">
      <g>
       <use xlink:href="#m70709da749" x="235.026398" y="291.28" style="stroke: #000000; stroke-width: 0.6"/>
      </g>
     </g>
    </g>
    <g id="xtick_23">
     <g id="line2d_25">
      <g>
       <use xlink:href="#m70709da749" x="239.591963" y="291.28" style="stroke: #000000; stroke-width: 0.6"/>
      </g>
     </g>
    </g>
    <g id="xtick_24">
     <g id="line2d_26">
      <g>
       <use xlink:href="#m70709da749" x="270.544119" y="291.28" style="stroke: #000000; stroke-width: 0.6"/>
      </g>
     </g>
    </g>
    <g id="xtick_25">
     <g id="line2d_27">
      <g>
       <use xlink:href="#m70709da749" x="286.260961" y="291.28" style="stroke: #000000; stroke-width: 0.6"/>
      </g>
     </g>
    </g>
    <g id="xtick_26">
     <g id="line2d_28">
      <g>
       <use xlink:href="#m70709da749" x="297.412238" y="291.28" style="stroke: #000000; stroke-width: 0.6"/>
      </g>
     </g>
    </g>
    <g id="xtick_27">
     <g id="line2d_29">
      <g>
       <use xlink:href="#m70709da749" x="306.06184" y="291.28" style="stroke: #000000; stroke-width: 0.6"/>
      </g>
     </g>
    </g>
    <g id="xtick_28">
     <g id="line2d_30">
      <g>
       <use xlink:href="#m70709da749" x="313.129079" y="291.28" style="stroke: #000000; stroke-width: 0.6"/>
      </g>
     </g>
    </g>
    <g id="xtick_29">
     <g id="line2d_31">
      <g>
       <use xlink:href="#m70709da749" x="319.104345" y="291.28" style="stroke: #000000; stroke-width: 0.6"/>
      </g>
     </g>
    </g>
    <g id="xtick_30">
     <g id="line2d_32">
      <g>
       <use xlink:href="#m70709da749" x="324.280356" y="291.28" style="stroke: #000000; stroke-width: 0.6"/>
      </g>
     </g>
    </g>
    <g id="xtick_31">
     <g id="line2d_33">
      <g>
       <use xlink:href="#m70709da749" x="328.845921" y="291.28" style="stroke: #000000; stroke-width: 0.6"/>
      </g>
     </g>
    </g>
    <g id="xtick_32">
     <g id="line2d_34">
      <g>
       <use xlink:href="#m70709da749" x="359.798077" y="291.28" style="stroke: #000000; stroke-width: 0.6"/>
      </g>
     </g>
    </g>
    <g id="xtick_33">
     <g id="line2d_35">
      <g>
       <use xlink:href="#m70709da749" x="375.514919" y="291.28" style="stroke: #000000; stroke-width: 0.6"/>
      </g>
     </g>
    </g>
    <g id="xtick_34">
     <g id="line2d_36">
      <g>
       <use xlink:href="#m70709da749" x="386.666196" y="291.28" style="stroke: #000000; stroke-width: 0.6"/>
      </g>
     </g>
    </g>
    <g id="xtick_35">
     <g id="line2d_37">
      <g>
       <use xlink:href="#m70709da749" x="395.315798" y="291.28" style="stroke: #000000; stroke-width: 0.6"/>
      </g>
     </g>
    </g>
    <g id="xtick_36">
     <g id="line2d_38">
      <g>
       <use xlink:href="#m70709da749" x="402.383038" y="291.28" style="stroke: #000000; stroke-width: 0.6"/>
      </g>
     </g>
    </g>
    <g id="xtick_37">
     <g id="line2d_39">
      <g>
       <use xlink:href="#m70709da749" x="408.358304" y="291.28" style="stroke: #000000; stroke-width: 0.6"/>
      </g>
     </g>
    </g>
    <g id="xtick_38">
     <g id="line2d_40">
      <g>
       <use xlink:href="#m70709da749" x="413.534315" y="291.28" style="stroke: #000000; stroke-width: 0.6"/>
      </g>
     </g>
    </g>
    <g id="xtick_39">
     <g id="line2d_41">
      <g>
       <use xlink:href="#m70709da749" x="418.09988" y="291.28" style="stroke: #000000; stroke-width: 0.6"/>
      </g>
     </g>
    </g>
    <g id="xtick_40">
     <g id="line2d_42">
      <g>
       <use xlink:href="#m70709da749" x="449.052036" y="291.28" style="stroke: #000000; stroke-width: 0.6"/>
      </g>
     </g>
    </g>
    <g id="text_3">
     <!-- log10 of FEvals ratio -->
     <g transform="translate(141.371312 336.833125)scale(0.2 -0.2)">
      <defs>
       <path id="DejaVuSans-6c" d="M 603 4863 
L 1178 4863 
L 1178 0 
L 603 0 
L 603 4863 
z
" transform="scale(0.015625)"/>
       <path id="DejaVuSans-6f" d="M 1959 3097 
Q 1497 3097 1228 2736 
Q 959 2375 959 1747 
Q 959 1119 1226 758 
Q 1494 397 1959 397 
Q 2419 397 2687 759 
Q 2956 1122 2956 1747 
Q 2956 2369 2687 2733 
Q 2419 3097 1959 3097 
z
M 1959 3584 
Q 2709 3584 3137 3096 
Q 3566 2609 3566 1747 
Q 3566 888 3137 398 
Q 2709 -91 1959 -91 
Q 1206 -91 779 398 
Q 353 888 353 1747 
Q 353 2609 779 3096 
Q 1206 3584 1959 3584 
z
" transform="scale(0.015625)"/>
       <path id="DejaVuSans-67" d="M 2906 1791 
Q 2906 2416 2648 2759 
Q 2391 3103 1925 3103 
Q 1463 3103 1205 2759 
Q 947 2416 947 1791 
Q 947 1169 1205 825 
Q 1463 481 1925 481 
Q 2391 481 2648 825 
Q 2906 1169 2906 1791 
z
M 3481 434 
Q 3481 -459 3084 -895 
Q 2688 -1331 1869 -1331 
Q 1566 -1331 1297 -1286 
Q 1028 -1241 775 -1147 
L 775 -588 
Q 1028 -725 1275 -790 
Q 1522 -856 1778 -856 
Q 2344 -856 2625 -561 
Q 2906 -266 2906 331 
L 2906 616 
Q 2728 306 2450 153 
Q 2172 0 1784 0 
Q 1141 0 747 490 
Q 353 981 353 1791 
Q 353 2603 747 3093 
Q 1141 3584 1784 3584 
Q 2172 3584 2450 3431 
Q 2728 3278 2906 2969 
L 2906 3500 
L 3481 3500 
L 3481 434 
z
" transform="scale(0.015625)"/>
       <path id="DejaVuSans-30" d="M 2034 4250 
Q 1547 4250 1301 3770 
Q 1056 3291 1056 2328 
Q 1056 1369 1301 889 
Q 1547 409 2034 409 
Q 2525 409 2770 889 
Q 3016 1369 3016 2328 
Q 3016 3291 2770 3770 
Q 2525 4250 2034 4250 
z
M 2034 4750 
Q 2819 4750 3233 4129 
Q 3647 3509 3647 2328 
Q 3647 1150 3233 529 
Q 2819 -91 2034 -91 
Q 1250 -91 836 529 
Q 422 1150 422 2328 
Q 422 3509 836 4129 
Q 1250 4750 2034 4750 
z
" transform="scale(0.015625)"/>
       <path id="DejaVuSans-20" transform="scale(0.015625)"/>
       <path id="DejaVuSans-66" d="M 2375 4863 
L 2375 4384 
L 1825 4384 
Q 1516 4384 1395 4259 
Q 1275 4134 1275 3809 
L 1275 3500 
L 2222 3500 
L 2222 3053 
L 1275 3053 
L 1275 0 
L 697 0 
L 697 3053 
L 147 3053 
L 147 3500 
L 697 3500 
L 697 3744 
Q 697 4328 969 4595 
Q 1241 4863 1831 4863 
L 2375 4863 
z
" transform="scale(0.015625)"/>
       <path id="DejaVuSans-46" d="M 628 4666 
L 3309 4666 
L 3309 4134 
L 1259 4134 
L 1259 2759 
L 3109 2759 
L 3109 2228 
L 1259 2228 
L 1259 0 
L 628 0 
L 628 4666 
z
" transform="scale(0.015625)"/>
       <path id="DejaVuSans-45" d="M 628 4666 
L 3578 4666 
L 3578 4134 
L 1259 4134 
L 1259 2753 
L 3481 2753 
L 3481 2222 
L 1259 2222 
L 1259 531 
L 3634 531 
L 3634 0 
L 628 0 
L 628 4666 
z
" transform="scale(0.015625)"/>
       <path id="DejaVuSans-76" d="M 191 3500 
L 800 3500 
L 1894 563 
L 2988 3500 
L 3597 3500 
L 2284 0 
L 1503 0 
L 191 3500 
z
" transform="scale(0.015625)"/>
       <path id="DejaVuSans-61" d="M 2194 1759 
Q 1497 1759 1228 1600 
Q 959 1441 959 1056 
Q 959 750 1161 570 
Q 1363 391 1709 391 
Q 2188 391 2477 730 
Q 2766 1069 2766 1631 
L 2766 1759 
L 2194 1759 
z
M 3341 1997 
L 3341 0 
L 2766 0 
L 2766 531 
Q 2569 213 2275 61 
Q 1981 -91 1556 -91 
Q 1019 -91 701 211 
Q 384 513 384 1019 
Q 384 1609 779 1909 
Q 1175 2209 1959 2209 
L 2766 2209 
L 2766 2266 
Q 2766 2663 2505 2880 
Q 2244 3097 1772 3097 
Q 1472 3097 1187 3025 
Q 903 2953 641 2809 
L 641 3341 
Q 956 3463 1253 3523 
Q 1550 3584 1831 3584 
Q 2591 3584 2966 3190 
Q 3341 2797 3341 1997 
z
" transform="scale(0.015625)"/>
       <path id="DejaVuSans-73" d="M 2834 3397 
L 2834 2853 
Q 2591 2978 2328 3040 
Q 2066 3103 1784 3103 
Q 1356 3103 1142 2972 
Q 928 2841 928 2578 
Q 928 2378 1081 2264 
Q 1234 2150 1697 2047 
L 1894 2003 
Q 2506 1872 2764 1633 
Q 3022 1394 3022 966 
Q 3022 478 2636 193 
Q 2250 -91 1575 -91 
Q 1294 -91 989 -36 
Q 684 19 347 128 
L 347 722 
Q 666 556 975 473 
Q 1284 391 1588 391 
Q 1994 391 2212 530 
Q 2431 669 2431 922 
Q 2431 1156 2273 1281 
Q 2116 1406 1581 1522 
L 1381 1569 
Q 847 1681 609 1914 
Q 372 2147 372 2553 
Q 372 3047 722 3315 
Q 1072 3584 1716 3584 
Q 2034 3584 2315 3537 
Q 2597 3491 2834 3397 
z
" transform="scale(0.015625)"/>
       <path id="DejaVuSans-72" d="M 2631 2963 
Q 2534 3019 2420 3045 
Q 2306 3072 2169 3072 
Q 1681 3072 1420 2755 
Q 1159 2438 1159 1844 
L 1159 0 
L 581 0 
L 581 3500 
L 1159 3500 
L 1159 2956 
Q 1341 3275 1631 3429 
Q 1922 3584 2338 3584 
Q 2397 3584 2469 3576 
Q 2541 3569 2628 3553 
L 2631 2963 
z
" transform="scale(0.015625)"/>
       <path id="DejaVuSans-74" d="M 1172 4494 
L 1172 3500 
L 2356 3500 
L 2356 3053 
L 1172 3053 
L 1172 1153 
Q 1172 725 1289 603 
Q 1406 481 1766 481 
L 2356 481 
L 2356 0 
L 1766 0 
Q 1100 0 847 248 
Q 594 497 594 1153 
L 594 3053 
L 172 3053 
L 172 3500 
L 594 3500 
L 594 4494 
L 1172 4494 
z
" transform="scale(0.015625)"/>
       <path id="DejaVuSans-69" d="M 603 3500 
L 1178 3500 
L 1178 0 
L 603 0 
L 603 3500 
z
M 603 4863 
L 1178 4863 
L 1178 4134 
L 603 4134 
L 603 4863 
z
" transform="scale(0.015625)"/>
      </defs>
      <use xlink:href="#DejaVuSans-6c"/>
      <use xlink:href="#DejaVuSans-6f" x="27.783203"/>
      <use xlink:href="#DejaVuSans-67" x="88.964844"/>
      <use xlink:href="#DejaVuSans-31" x="152.441406"/>
      <use xlink:href="#DejaVuSans-30" x="216.064453"/>
      <use xlink:href="#DejaVuSans-20" x="279.6875"/>
      <use xlink:href="#DejaVuSans-6f" x="311.474609"/>
      <use xlink:href="#DejaVuSans-66" x="372.65625"/>
      <use xlink:href="#DejaVuSans-20" x="407.861328"/>
      <use xlink:href="#DejaVuSans-46" x="439.648438"/>
      <use xlink:href="#DejaVuSans-45" x="497.167969"/>
      <use xlink:href="#DejaVuSans-76" x="560.351562"/>
      <use xlink:href="#DejaVuSans-61" x="619.53125"/>
      <use xlink:href="#DejaVuSans-6c" x="680.810547"/>
      <use xlink:href="#DejaVuSans-73" x="708.59375"/>
      <use xlink:href="#DejaVuSans-20" x="760.693359"/>
      <use xlink:href="#DejaVuSans-72" x="792.480469"/>
      <use xlink:href="#DejaVuSans-61" x="833.59375"/>
      <use xlink:href="#DejaVuSans-74" x="894.873047"/>
      <use xlink:href="#DejaVuSans-69" x="934.082031"/>
      <use xlink:href="#DejaVuSans-6f" x="961.865234"/>
     </g>
    </g>
   </g>
   <g id="matplotlib.axis_2">
    <g id="ytick_1">
     <g id="line2d_43">
      <path d="M 34.16 288.453725 
L 453.192 288.453725 
" clip-path="url(#p61a40a3102)" style="fill: none; stroke: #b0b0b0; stroke-width: 0.8; stroke-linecap: square"/>
     </g>
     <g id="line2d_44">
      <defs>
       <path id="m53ba5fe83e" d="M 0 0 
L -3.5 0 
" style="stroke: #000000; stroke-width: 0.8"/>
      </defs>
      <g>
       <use xlink:href="#m53ba5fe83e" x="34.16" y="288.453725" style="stroke: #000000; stroke-width: 0.8"/>
      </g>
     </g>
    </g>
    <g id="ytick_2">
     <g id="line2d_45">
      <path d="M 34.16 217.796863 
L 453.192 217.796863 
" clip-path="url(#p61a40a3102)" style="fill: none; stroke: #b0b0b0; stroke-width: 0.8; stroke-linecap: square"/>
     </g>
     <g id="line2d_46">
      <g>
       <use xlink:href="#m53ba5fe83e" x="34.16" y="217.796863" style="stroke: #000000; stroke-width: 0.8"/>
      </g>
     </g>
    </g>
    <g id="ytick_3">
     <g id="line2d_47">
      <path d="M 34.16 147.14 
L 453.192 147.14 
" clip-path="url(#p61a40a3102)" style="fill: none; stroke: #b0b0b0; stroke-width: 0.8; stroke-linecap: square"/>
     </g>
     <g id="line2d_48">
      <g>
       <use xlink:href="#m53ba5fe83e" x="34.16" y="147.14" style="stroke: #000000; stroke-width: 0.8"/>
      </g>
     </g>
    </g>
    <g id="ytick_4">
     <g id="line2d_49">
      <path d="M 34.16 76.483137 
L 453.192 76.483137 
" clip-path="url(#p61a40a3102)" style="fill: none; stroke: #b0b0b0; stroke-width: 0.8; stroke-linecap: square"/>
     </g>
     <g id="line2d_50">
      <g>
       <use xlink:href="#m53ba5fe83e" x="34.16" y="76.483137" style="stroke: #000000; stroke-width: 0.8"/>
      </g>
     </g>
    </g>
    <g id="ytick_5">
     <g id="line2d_51">
      <path d="M 34.16 5.826275 
L 453.192 5.826275 
" clip-path="url(#p61a40a3102)" style="fill: none; stroke: #b0b0b0; stroke-width: 0.8; stroke-linecap: square"/>
     </g>
     <g id="line2d_52">
      <g>
       <use xlink:href="#m53ba5fe83e" x="34.16" y="5.826275" style="stroke: #000000; stroke-width: 0.8"/>
      </g>
     </g>
    </g>
    <g id="text_4">
     <!-- proportion of trials -->
     <g transform="translate(19.000625 240.14625)rotate(-90)scale(0.2 -0.2)">
      <defs>
       <path id="DejaVuSans-70" d="M 1159 525 
L 1159 -1331 
L 581 -1331 
L 581 3500 
L 1159 3500 
L 1159 2969 
Q 1341 3281 1617 3432 
Q 1894 3584 2278 3584 
Q 2916 3584 3314 3078 
Q 3713 2572 3713 1747 
Q 3713 922 3314 415 
Q 2916 -91 2278 -91 
Q 1894 -91 1617 61 
Q 1341 213 1159 525 
z
M 3116 1747 
Q 3116 2381 2855 2742 
Q 2594 3103 2138 3103 
Q 1681 3103 1420 2742 
Q 1159 2381 1159 1747 
Q 1159 1113 1420 752 
Q 1681 391 2138 391 
Q 2594 391 2855 752 
Q 3116 1113 3116 1747 
z
" transform="scale(0.015625)"/>
       <path id="DejaVuSans-6e" d="M 3513 2113 
L 3513 0 
L 2938 0 
L 2938 2094 
Q 2938 2591 2744 2837 
Q 2550 3084 2163 3084 
Q 1697 3084 1428 2787 
Q 1159 2491 1159 1978 
L 1159 0 
L 581 0 
L 581 3500 
L 1159 3500 
L 1159 2956 
Q 1366 3272 1645 3428 
Q 1925 3584 2291 3584 
Q 2894 3584 3203 3211 
Q 3513 2838 3513 2113 
z
" transform="scale(0.015625)"/>
      </defs>
      <use xlink:href="#DejaVuSans-70"/>
      <use xlink:href="#DejaVuSans-72" x="63.476562"/>
      <use xlink:href="#DejaVuSans-6f" x="102.339844"/>
      <use xlink:href="#DejaVuSans-70" x="163.521484"/>
      <use xlink:href="#DejaVuSans-6f" x="226.998047"/>
      <use xlink:href="#DejaVuSans-72" x="288.179688"/>
      <use xlink:href="#DejaVuSans-74" x="329.292969"/>
      <use xlink:href="#DejaVuSans-69" x="368.501953"/>
      <use xlink:href="#DejaVuSans-6f" x="396.285156"/>
      <use xlink:href="#DejaVuSans-6e" x="457.466797"/>
      <use xlink:href="#DejaVuSans-20" x="520.845703"/>
      <use xlink:href="#DejaVuSans-6f" x="552.632812"/>
      <use xlink:href="#DejaVuSans-66" x="613.814453"/>
      <use xlink:href="#DejaVuSans-20" x="649.019531"/>
      <use xlink:href="#DejaVuSans-74" x="680.806641"/>
      <use xlink:href="#DejaVuSans-72" x="720.015625"/>
      <use xlink:href="#DejaVuSans-69" x="761.128906"/>
      <use xlink:href="#DejaVuSans-61" x="788.912109"/>
      <use xlink:href="#DejaVuSans-6c" x="850.191406"/>
      <use xlink:href="#DejaVuSans-73" x="877.974609"/>
     </g>
    </g>
   </g>
   <g id="line2d_53">
    <path d="M 34.16 248.969008 
L 50.475521 248.969008 
L 50.475521 248.553379 
L 54.570832 248.553379 
L 54.570832 248.137751 
L 58.723355 248.137751 
L 58.723355 247.722122 
L 59.523214 247.722122 
L 59.523214 247.306494 
L 65.419714 247.306494 
L 65.419714 246.890865 
L 66.254845 246.890865 
L 66.254845 246.475236 
L 77.91756 246.475236 
L 77.91756 246.059608 
L 89.413583 246.059608 
L 89.413583 245.643979 
L 91.967857 245.643979 
L 91.967857 245.228351 
L 92.678582 245.228351 
L 92.678582 244.397093 
L 96.773893 244.397093 
L 96.773893 243.565836 
L 100.926416 243.565836 
L 100.926416 242.734579 
L 101.726275 242.734579 
L 101.726275 241.903322 
L 107.622775 241.903322 
L 107.622775 241.072065 
L 108.457906 241.072065 
L 108.457906 240.240807 
L 119.35433 240.240807 
L 119.35433 239.825179 
L 119.546701 239.825179 
L 119.546701 239.40955 
L 120.120621 239.40955 
L 120.120621 238.578293 
L 123.449642 238.578293 
L 123.449642 238.162664 
L 123.642012 238.162664 
L 123.642012 237.747036 
L 127.602165 237.747036 
L 127.602165 237.331407 
L 127.794535 237.331407 
L 127.794535 236.915779 
L 128.402023 236.915779 
L 128.402023 236.50015 
L 128.594393 236.50015 
L 128.594393 236.084521 
L 131.616644 236.084521 
L 131.616644 235.253264 
L 134.170918 235.253264 
L 134.170918 234.422007 
L 134.298524 234.422007 
L 134.298524 234.006378 
L 134.490894 234.006378 
L 134.490894 233.59075 
L 135.133655 233.59075 
L 135.133655 233.175121 
L 135.326025 233.175121 
L 135.326025 232.759493 
L 144.584874 232.759493 
L 144.584874 232.343864 
L 146.125905 232.343864 
L 146.125905 231.512607 
L 146.79637 231.512607 
L 146.79637 231.096978 
L 146.98874 231.096978 
L 146.98874 230.681349 
L 150.221216 230.681349 
L 150.221216 229.850092 
L 154.373739 229.850092 
L 154.422041 228.603206 
L 155.173598 228.603206 
L 155.173598 227.771949 
L 158.292393 227.771949 
L 158.292393 227.356321 
L 158.484763 227.356321 
L 158.484763 226.940692 
L 160.846667 226.940692 
L 160.846667 226.525063 
L 161.039037 226.525063 
L 161.070098 225.278178 
L 161.810512 225.278178 
L 161.905229 224.031292 
L 165.905823 224.031292 
L 165.905823 223.615663 
L 166.887427 223.615663 
L 166.887427 222.784406 
L 167.83182 222.784406 
L 167.83182 222.368777 
L 170.058346 222.368777 
L 170.058346 221.953149 
L 170.858205 221.953149 
L 170.858205 221.53752 
L 171.927131 221.53752 
L 171.927131 221.121892 
L 172.945661 221.121892 
L 172.945661 220.706263 
L 173.548773 220.706263 
L 173.567944 219.459377 
L 174.222921 219.459377 
L 174.222921 219.043749 
L 175.537029 219.043749 
L 175.537029 218.62812 
L 175.68583 218.62812 
L 175.68583 218.212491 
L 176.079654 218.212491 
L 176.079654 217.796863 
L 176.724595 217.796863 
L 176.754705 216.549977 
L 176.879512 216.549977 
L 176.879512 216.134348 
L 177.040973 216.134348 
L 177.040973 215.71872 
L 177.589836 215.71872 
L 177.589836 215.303091 
L 178.788486 215.303091 
L 178.788486 214.887463 
L 181.193496 214.887463 
L 181.193496 214.471834 
L 181.585584 214.471834 
L 181.585584 214.056205 
L 181.993354 214.056205 
L 181.993354 213.640577 
L 182.776013 213.640577 
L 182.776013 213.224948 
L 183.385941 213.224948 
L 183.385941 212.809319 
L 183.611144 212.809319 
L 183.611144 212.393691 
L 184.186632 212.393691 
L 184.186632 211.978062 
L 185.063967 211.978062 
L 185.063967 211.146805 
L 185.374197 211.146805 
L 185.374197 210.731176 
L 185.680895 210.731176 
L 185.680895 210.315548 
L 187.169834 210.315548 
L 187.169834 209.899919 
L 187.618242 209.899919 
L 187.618242 209.068662 
L 187.843982 209.068662 
L 187.889854 208.237405 
L 188.724986 208.237405 
L 188.724986 207.821776 
L 189.252551 207.821776 
L 189.252551 207.406148 
L 189.833418 207.406148 
L 189.833418 206.990519 
L 190.633277 206.990519 
L 190.633277 206.57489 
L 194.0238 206.57489 
L 194.0238 206.159262 
L 195.273859 206.159262 
L 195.273859 205.743633 
L 196.525474 205.743633 
L 196.529777 204.496747 
L 197.007002 204.496747 
L 197.007002 204.081119 
L 197.364908 204.081119 
L 197.364908 203.66549 
L 197.988384 203.66549 
L 197.988384 202.834233 
L 199.383164 202.834233 
L 199.383164 202.418604 
L 200.3877 202.418604 
L 200.3877 202.002976 
L 200.748574 202.002976 
L 200.748574 201.587347 
L 201.091039 201.587347 
L 201.091039 200.75609 
L 203.18682 200.75609 
L 203.18682 200.340461 
L 203.302849 200.340461 
L 203.302849 199.924833 
L 204.64973 199.924833 
L 204.64973 199.509204 
L 205.175076 199.509204 
L 205.175076 199.093576 
L 205.656604 199.093576 
L 205.656604 198.262318 
L 206.467484 198.262318 
L 206.467484 197.84669 
L 206.637986 197.84669 
L 206.637986 197.431061 
L 206.769882 197.431061 
L 206.769882 197.015433 
L 207.752385 197.015433 
L 207.822671 196.184175 
L 208.434336 196.184175 
L 208.434336 195.768547 
L 209.027623 195.768547 
L 209.027623 195.352918 
L 209.220332 195.352918 
L 209.324156 194.521661 
L 209.740642 194.521661 
L 209.740642 194.106032 
L 210.146535 194.106032 
L 210.146535 193.274775 
L 210.562795 193.274775 
L 210.562795 192.859146 
L 210.832615 192.859146 
L 210.832615 192.443518 
L 211.054751 192.443518 
L 211.054751 192.027889 
L 211.883724 192.027889 
L 211.883724 191.612261 
L 212.529647 191.612261 
L 212.529647 191.196632 
L 213.824679 191.196632 
L 213.824679 190.781003 
L 214.437998 190.781003 
L 214.437998 190.365375 
L 214.715318 190.365375 
L 214.715318 189.949746 
L 215.287588 189.949746 
L 215.287588 189.534118 
L 215.515177 189.534118 
L 215.515177 189.118489 
L 216.68217 189.118489 
L 216.68217 188.70286 
L 216.807881 188.70286 
L 216.807881 187.871603 
L 217.470504 187.871603 
L 217.482029 187.040346 
L 217.659839 187.040346 
L 217.659839 186.624717 
L 218.270791 186.624717 
L 218.270791 186.209089 
L 218.390244 186.209089 
L 218.390244 185.79346 
L 218.796138 185.79346 
L 218.796138 185.377832 
L 220.523646 185.377832 
L 220.523646 184.962203 
L 220.891918 184.962203 
L 220.891918 184.546574 
L 221.373446 184.546574 
L 221.411677 183.715317 
L 222.246809 183.715317 
L 222.246809 183.299689 
L 223.077921 183.299689 
L 223.077921 182.88406 
L 223.378529 182.88406 
L 223.378529 182.468431 
L 223.539513 182.468431 
L 223.539513 182.052803 
L 223.875121 182.052803 
L 223.875121 181.637174 
L 224.21366 181.637174 
L 224.21366 181.221546 
L 225.452801 181.221546 
L 225.452801 180.805917 
L 226.645587 180.805917 
L 226.645587 180.390288 
L 227.307672 180.390288 
L 227.307672 179.97466 
L 227.44574 179.97466 
L 227.44574 179.559031 
L 227.959158 179.559031 
L 227.959158 177.896517 
L 229.021211 177.896517 
L 229.021211 177.480888 
L 229.422068 177.480888 
L 229.422068 177.06526 
L 229.548112 177.06526 
L 229.548112 176.649631 
L 229.754795 176.649631 
L 229.754795 176.234002 
L 230.428942 176.234002 
L 230.48412 175.402745 
L 230.740899 175.402745 
L 230.740899 174.987116 
L 232.076597 174.987116 
L 232.076597 174.571488 
L 233.135169 174.571488 
L 233.135169 173.740231 
L 233.376681 173.740231 
L 233.376681 173.324602 
L 233.586776 173.324602 
L 233.586776 172.908973 
L 233.700635 172.908973 
L 233.700635 172.493345 
L 233.909523 172.493345 
L 233.909523 172.077716 
L 234.500494 172.077716 
L 234.500494 171.662088 
L 234.620504 171.662088 
L 234.620504 170.83083 
L 234.893422 170.83083 
L 234.893422 170.415202 
L 235.109848 170.415202 
L 235.109848 169.999573 
L 235.69328 169.999573 
L 235.69328 169.583945 
L 235.876375 169.583945 
L 235.876375 169.168316 
L 236.60876 169.168316 
L 236.60876 168.337059 
L 237.460718 168.337059 
L 237.460718 167.92143 
L 238.923627 167.92143 
L 238.923627 167.505802 
L 239.591963 167.505802 
L 239.591963 167.090173 
L 239.796515 167.090173 
L 239.796515 166.674544 
L 240.396994 166.674544 
L 240.396994 166.258916 
L 240.692798 166.258916 
L 240.692798 165.843287 
L 241.232125 165.843287 
L 241.232125 165.427659 
L 241.589781 165.427659 
L 241.589781 165.01203 
L 241.784771 165.01203 
L 241.784771 164.596401 
L 241.913765 164.596401 
L 241.913765 164.180773 
L 242.026283 164.180773 
L 242.026283 163.765144 
L 242.155707 163.765144 
L 242.155707 163.349516 
L 242.424912 163.349516 
L 242.424912 162.933887 
L 242.642272 162.933887 
L 242.642272 162.518258 
L 243.676 162.518258 
L 243.676 161.687001 
L 244.947016 161.687001 
L 244.947016 161.271373 
L 245.258363 161.271373 
L 245.258363 160.024487 
L 245.405547 160.024487 
L 245.405547 159.608858 
L 246.177675 159.608858 
L 246.177675 158.777601 
L 247.108551 158.777601 
L 247.108551 158.361972 
L 247.372398 158.361972 
L 247.372398 157.946344 
L 247.959821 157.946344 
L 247.959821 157.530715 
L 248.241565 157.530715 
L 248.241565 156.699458 
L 248.571461 156.699458 
L 248.571461 156.283829 
L 249.926673 156.283829 
L 249.926673 155.868201 
L 250.434373 155.868201 
L 250.434373 155.452572 
L 251.081779 155.452572 
L 251.081779 155.036943 
L 251.674116 155.036943 
L 251.724621 153.790058 
L 252.83902 153.790058 
L 252.89484 152.9588 
L 253.17756 152.9588 
L 253.17756 152.543172 
L 253.417576 152.543172 
L 253.417576 151.711915 
L 254.087626 151.711915 
L 254.087626 151.296286 
L 254.313859 151.296286 
L 254.313859 150.880657 
L 254.640469 150.880657 
L 254.640469 150.465029 
L 254.827277 150.465029 
L 254.827277 150.0494 
L 257.743125 150.0494 
L 257.743125 149.633772 
L 258.385967 149.633772 
L 258.385967 149.218143 
L 259.392842 149.218143 
L 259.392842 148.802514 
L 260.374224 148.802514 
L 260.454895 147.555629 
L 260.729612 147.555629 
L 260.729612 147.14 
L 260.855751 147.14 
L 260.855751 146.724371 
L 261.714644 146.724371 
L 261.714644 146.308743 
L 263.177553 146.308743 
L 263.177553 145.893114 
L 263.476879 145.893114 
L 263.476879 145.477486 
L 263.958407 145.477486 
L 263.958407 145.061857 
L 264.390863 145.061857 
L 264.390863 144.646228 
L 264.747895 144.646228 
L 264.747895 144.2306 
L 265.58365 144.2306 
L 265.630906 143.399343 
L 265.978554 143.399343 
L 265.978554 141.736828 
L 266.210804 141.736828 
L 266.280209 140.905571 
L 266.460082 140.905571 
L 266.460082 140.489942 
L 266.798621 140.489942 
L 266.798621 140.074314 
L 266.945138 140.074314 
L 266.945138 139.658685 
L 268.137924 139.658685 
L 268.137924 139.243057 
L 268.894402 139.243057 
L 268.894402 138.411799 
L 269.023826 138.411799 
L 269.023826 137.996171 
L 269.31346 137.996171 
L 269.31346 137.580542 
L 272.007028 137.580542 
L 272.007028 137.164913 
L 272.126481 137.164913 
L 272.20982 135.918028 
L 272.6399 135.918028 
L 272.6399 135.08677 
L 273.013903 135.08677 
L 273.013903 134.671142 
L 273.673486 134.671142 
L 273.673486 134.255513 
L 274.070412 134.255513 
L 274.070412 133.839885 
L 274.628156 133.839885 
L 274.628156 133.008627 
L 275.335705 133.008627 
L 275.335705 132.592999 
L 275.72013 132.592999 
L 275.72013 131.761742 
L 277.302492 131.761742 
L 277.302492 131.346113 
L 278.368956 131.346113 
L 278.368956 130.930484 
L 278.542235 130.930484 
L 278.542235 130.099227 
L 278.673411 130.099227 
L 278.673411 129.683599 
L 282.185406 129.683599 
L 282.185406 129.26797 
L 282.381475 129.26797 
L 282.381475 128.852341 
L 283.277758 128.852341 
L 283.277758 128.021084 
L 283.718246 128.021084 
L 283.718246 127.605456 
L 284.220358 127.605456 
L 284.220358 127.189827 
L 284.369732 127.189827 
L 284.369732 126.774198 
L 284.611244 126.774198 
L 284.611244 125.942941 
L 286.260961 125.942941 
L 286.260961 124.696055 
L 287.112918 124.696055 
L 287.112918 124.280427 
L 289.787254 124.280427 
L 289.787254 123.864798 
L 290.344998 123.864798 
L 290.344998 123.44917 
L 290.826526 123.44917 
L 290.826526 122.617912 
L 292.659865 122.617912 
L 292.659865 122.202284 
L 292.772396 122.202284 
L 292.772396 121.786655 
L 293.019334 121.786655 
L 293.019334 121.371027 
L 293.148328 121.371027 
L 293.175825 120.124141 
L 295.891945 120.124141 
L 296.002537 118.877255 
L 296.181579 118.877255 
L 296.181579 118.045998 
L 296.760752 118.045998 
L 296.760752 117.630369 
L 297.648566 117.630369 
L 297.648566 117.21474 
L 298.324338 117.21474 
L 298.324338 116.799112 
L 298.47429 116.799112 
L 298.47429 115.967855 
L 301.221847 115.967855 
L 301.221847 115.552226 
L 301.357589 115.552226 
L 301.357589 115.136597 
L 302.275813 115.136597 
L 302.307698 114.30534 
L 302.82976 114.30534 
L 302.82976 113.889712 
L 305.112279 113.889712 
L 305.112279 113.474083 
L 306.913797 113.474083 
L 306.913797 112.642826 
L 308.215866 112.642826 
L 308.215866 112.227197 
L 308.376707 112.227197 
L 308.376707 111.811569 
L 308.563514 111.811569 
L 308.563514 110.980311 
L 309.045042 110.980311 
L 309.045042 110.564683 
L 310.145877 110.564683 
L 310.145877 109.733426 
L 311.366844 109.733426 
L 311.366844 109.317797 
L 314.400095 109.317797 
L 314.400095 108.902168 
L 314.591989 108.902168 
L 314.591989 108.48654 
L 315.22486 108.48654 
L 315.22486 108.070911 
L 316.561631 108.070911 
L 316.655373 106.824025 
L 316.913791 106.824025 
L 316.913791 106.408397 
L 317.08453 106.408397 
L 317.08453 105.992768 
L 317.213117 105.992768 
L 317.213117 105.57714 
L 319.887453 105.57714 
L 319.947042 104.745882 
L 322.630639 104.745882 
L 322.630639 103.914625 
L 325.862719 103.914625 
L 325.862719 103.498997 
L 326.303207 103.498997 
L 326.303207 103.083368 
L 328.845921 103.083368 
L 328.845921 101.836482 
L 331.167723 101.836482 
L 331.167723 101.005225 
L 332.372215 101.005225 
L 332.372215 100.589596 
L 334.200974 100.589596 
L 334.200974 99.758339 
L 338.587497 99.758339 
L 338.587497 99.34271 
L 340.909299 99.34271 
L 340.909299 98.927082 
L 341.059251 98.927082 
L 341.059251 98.511453 
L 343.94255 98.511453 
L 343.94255 98.095825 
L 349.498758 98.095825 
L 349.498758 97.680196 
L 352.730838 97.680196 
L 352.730838 97.264567 
L 359.146591 97.264567 
L 359.146591 96.848939 
L 365.2156 96.848939 
L 365.2156 96.43331 
L 371.430882 96.43331 
L 371.430882 96.017682 
L 373.752684 96.017682 
L 373.752684 95.602053 
L 376.785935 95.602053 
L 376.785935 95.186424 
L 453.192 95.186424 
L 453.192 95.186424 
" clip-path="url(#p61a40a3102)" style="fill: none; stroke: #000000; stroke-width: 3; stroke-linecap: square"/>
   </g>
   <g id="line2d_54">
    <path clip-path="url(#p61a40a3102)" style="fill: none; stroke: #000000; stroke-width: 3; stroke-linecap: square"/>
   </g>
   <g id="line2d_55">
    <path d="M 34.16 162.841525 
L 251.990609 162.841525 
L 251.990609 162.143679 
L 254.227028 162.143679 
L 254.227028 161.445834 
L 255.868153 161.445834 
L 255.868153 160.747988 
L 258.104571 160.747988 
L 258.104571 160.050143 
L 260.583398 160.050143 
L 260.583398 159.352297 
L 264.114198 159.352297 
L 264.21798 157.956606 
L 264.460941 157.956606 
L 264.460941 157.258761 
L 265.69164 157.258761 
L 265.69164 156.560915 
L 267.042484 156.560915 
L 267.042484 155.863069 
L 267.928058 155.863069 
L 267.991741 154.467378 
L 268.095523 154.467378 
L 268.095523 153.769533 
L 268.374567 153.769533 
L 268.374567 153.071687 
L 269.278903 153.071687 
L 269.278903 152.373842 
L 269.677093 152.373842 
L 269.677093 151.675996 
L 270.610985 151.675996 
L 270.610985 150.978151 
L 273.554636 150.978151 
L 273.554636 150.280305 
L 274.284429 150.280305 
L 274.284429 149.582459 
L 274.538347 149.582459 
L 274.549743 148.186768 
L 275.635273 148.186768 
L 275.659006 146.791077 
L 276.774766 146.791077 
L 276.786161 145.395386 
L 276.967356 145.395386 
L 276.967356 144.697541 
L 277.815228 144.697541 
L 277.91901 142.604004 
L 279.166073 142.604004 
L 279.269855 141.208313 
L 279.536549 141.208313 
L 279.536549 140.510467 
L 280.06197 140.510467 
L 280.06197 139.812622 
L 280.498155 139.812622 
L 280.601937 138.416931 
L 280.845965 138.416931 
L 280.845965 137.719085 
L 281.80264 137.719085 
L 281.849859 136.323394 
L 282.745495 136.323394 
L 282.745495 135.625548 
L 283.082383 135.625548 
L 283.142532 133.532012 
L 283.378124 133.532012 
L 283.378124 132.834166 
L 284.039058 132.834166 
L 284.086278 131.438475 
L 284.728968 131.438475 
L 284.728968 130.740629 
L 284.981913 130.740629 
L 284.981913 130.042784 
L 286.061051 130.042784 
L 286.061051 129.344938 
L 286.269383 129.344938 
L 286.269383 128.647093 
L 286.41834 128.647093 
L 286.41834 127.949247 
L 286.661936 127.949247 
L 286.765718 125.85571 
L 286.777114 125.85571 
L 286.777114 125.157865 
L 287.869594 125.157865 
L 287.869594 124.460019 
L 288.312587 124.460019 
L 288.312587 123.762174 
L 288.505801 123.762174 
L 288.505801 123.064328 
L 288.700993 123.064328 
L 288.700993 122.366483 
L 288.832025 122.366483 
L 288.832025 121.668637 
L 289.360037 121.668637 
L 289.438754 120.272946 
L 289.94914 120.272946 
L 290.052922 118.877255 
L 290.106012 118.877255 
L 290.106012 118.179409 
L 290.395429 118.179409 
L 290.442648 116.783718 
L 290.710881 116.783718 
L 290.775583 115.388027 
L 290.937412 115.388027 
L 290.937412 114.690182 
L 291.338284 114.690182 
L 291.338284 113.992336 
L 291.820457 113.992336 
L 291.820457 113.29449 
L 292.042964 113.29449 
L 292.042964 112.596645 
L 292.175103 112.596645 
L 292.236227 109.805263 
L 292.709569 109.805263 
L 292.709569 109.107417 
L 292.969554 109.107417 
L 293.073335 107.711726 
L 293.926229 107.711726 
L 294.03001 105.618189 
L 294.07723 105.618189 
L 294.07723 104.920344 
L 294.653126 104.920344 
L 294.653126 104.222498 
L 294.862172 104.222498 
L 294.972865 102.128962 
L 295.512035 102.128962 
L 295.512035 101.431116 
L 295.698001 101.431116 
L 295.698001 100.73327 
L 296.052646 100.73327 
L 296.052646 100.035425 
L 296.462383 100.035425 
L 296.462383 99.337579 
L 297.293782 99.337579 
L 297.293782 98.639734 
L 297.842823 98.639734 
L 297.842823 97.941888 
L 298.206744 97.941888 
L 298.21814 96.546197 
L 298.392971 96.546197 
L 298.496753 95.150506 
L 298.532449 95.150506 
L 298.532449 94.45266 
L 299.489124 94.45266 
L 299.536343 93.056969 
L 299.993183 93.056969 
L 300.096965 91.661278 
L 300.431979 91.661278 
L 300.431979 90.963433 
L 300.824582 90.963433 
L 300.928364 89.567741 
L 301.471361 89.567741 
L 301.493948 88.17205 
L 301.720366 88.17205 
L 301.720366 87.474205 
L 302.013618 87.474205 
L 302.013618 86.776359 
L 302.202751 86.776359 
L 302.202751 86.078514 
L 302.533056 86.078514 
L 302.533056 85.380668 
L 303.364462 85.380668 
L 303.364462 84.682823 
L 303.8839 84.682823 
L 303.955866 83.287131 
L 304.476613 83.287131 
L 304.514362 81.89144 
L 304.696545 81.89144 
L 304.696545 81.193595 
L 305.215983 81.193595 
L 305.215983 80.495749 
L 305.348904 80.495749 
L 305.348904 79.797904 
L 305.471037 79.797904 
L 305.556078 77.006521 
L 305.827458 77.006521 
L 305.876134 75.61083 
L 306.080294 75.61083 
L 306.080294 74.912985 
L 306.387477 74.912985 
L 306.413892 73.517294 
L 306.872333 73.517294 
L 306.872333 72.819448 
L 307.15954 72.819448 
L 307.226978 71.423757 
L 308.204415 71.423757 
L 308.204415 70.725911 
L 308.559061 70.725911 
L 308.559061 70.028066 
L 309.937779 70.028066 
L 309.937779 69.33022 
L 310.860325 69.33022 
L 310.871721 67.934529 
L 311.379763 67.934529 
L 311.391159 66.538838 
L 311.537991 66.538838 
L 311.543853 65.143147 
L 312.36939 65.143147 
L 312.36939 64.445301 
L 312.894698 64.445301 
L 312.894698 63.747456 
L 313.323321 63.747456 
L 313.334717 62.351765 
L 314.147529 62.351765 
L 314.22678 60.956074 
L 314.368196 60.956074 
L 314.379591 59.560382 
L 314.666967 59.560382 
L 314.734237 57.466846 
L 315.172391 57.466846 
L 315.172391 56.769 
L 315.903781 56.769 
L 315.903781 56.071155 
L 316.523236 56.071155 
L 316.610525 54.675464 
L 317.167943 54.675464 
L 317.254626 53.279772 
L 317.655399 53.279772 
L 317.687381 51.884081 
L 317.855318 51.884081 
L 317.855318 51.186236 
L 318.010045 51.186236 
L 318.010045 50.48839 
L 318.124618 50.48839 
L 318.171837 49.092699 
L 318.586708 49.092699 
L 318.691275 46.999162 
L 319.067473 46.999162 
L 319.067473 46.301317 
L 319.586911 46.301317 
L 319.630939 44.905626 
L 320.390561 44.905626 
L 320.401956 43.509935 
L 320.587613 43.509935 
L 320.675813 41.416398 
L 321.030459 41.416398 
L 321.030459 40.718552 
L 321.530469 40.718552 
L 321.632488 39.322861 
L 321.679708 39.322861 
L 321.679708 38.625016 
L 321.987134 38.625016 
L 322.034353 37.229325 
L 322.575343 37.229325 
L 322.59136 35.833634 
L 322.929989 35.833634 
L 322.929989 35.135788 
L 323.110799 35.135788 
L 323.110799 34.437942 
L 323.677764 34.437942 
L 323.677764 33.740097 
L 324.019099 33.740097 
L 324.030495 32.344406 
L 324.191572 32.344406 
L 324.191572 31.64656 
L 324.71101 31.64656 
L 324.761884 29.553023 
L 325.022971 29.553023 
L 325.054356 28.157332 
L 325.542409 28.157332 
L 325.542409 27.459487 
L 326.099231 27.459487 
L 326.099231 26.761641 
L 326.453877 26.761641 
L 326.453877 26.063796 
L 326.654568 26.063796 
L 326.698178 24.668105 
L 327.306303 24.668105 
L 327.306303 23.970259 
L 327.485967 23.970259 
L 327.485967 23.272413 
L 327.654853 23.272413 
L 327.702073 21.178877 
L 328.037692 21.178877 
L 328.054088 19.783186 
L 328.530841 19.783186 
L 328.597708 18.387495 
L 328.885487 18.387495 
L 328.885487 17.689649 
L 330.326717 17.689649 
L 330.326717 16.991803 
L 331.058106 16.991803 
L 331.058106 16.293958 
L 331.283391 16.293958 
L 331.330611 14.898267 
L 332.014781 14.898267 
L 332.121596 12.80473 
L 332.226247 12.80473 
L 332.226247 12.106885 
L 332.957636 12.106885 
L 332.957636 11.409039 
L 333.721807 11.409039 
L 333.721807 10.711193 
L 334.553206 10.711193 
L 334.553206 10.013348 
L 335.750134 10.013348 
L 335.750134 9.315502 
L 336.481524 9.315502 
L 336.481524 8.617657 
L 337.350346 8.617657 
L 337.350346 7.919811 
L 338.081735 7.919811 
L 338.181745 6.52412 
L 338.913135 6.52412 
L 338.913135 5.826275 
L 453.192 5.826275 
L 453.192 5.826275 
" clip-path="url(#p61a40a3102)" style="fill: none; stroke: #00bfbf; stroke-width: 3; stroke-linecap: square"/>
   </g>
   <g id="line2d_56">
    <path clip-path="url(#p61a40a3102)" style="fill: none; stroke: #00bfbf; stroke-width: 3; stroke-linecap: square"/>
   </g>
   <g id="line2d_57">
    <path d="M 36.042925 5.826275 
L 34.16 5.826275 
L 453.192 5.826275 
L 461.8 5.826275 
" clip-path="url(#p61a40a3102)" style="fill: none; stroke: #bf00bf; stroke-width: 3; stroke-linecap: square"/>
   </g>
   <g id="line2d_58">
    <path d="M 36.042925 5.826275 
L 34.16 5.826275 
L 453.192 5.826275 
L 461.8 5.826275 
" clip-path="url(#p61a40a3102)" style="fill: none; stroke: #ff0000; stroke-width: 3; stroke-linecap: square"/>
   </g>
   <g id="line2d_59">
    <path d="M 243.676 291.28 
L 243.676 3 
" clip-path="url(#p61a40a3102)" style="fill: none; stroke: #000000; stroke-width: 1.5; stroke-linecap: square"/>
   </g>
   <g id="line2d_60">
    <path d="M 34.16 147.14 
L 453.192 147.14 
" clip-path="url(#p61a40a3102)" style="fill: none; stroke-dasharray: 2,3.3; stroke-dashoffset: 0; stroke: #000000; stroke-width: 2"/>
   </g>
   <g id="patch_3">
    <path d="M 34.16 291.28 
L 34.16 3 
" style="fill: none; stroke: #000000; stroke-width: 0.8; stroke-linejoin: miter; stroke-linecap: square"/>
   </g>
   <g id="patch_4">
    <path d="M 453.192 291.28 
L 453.192 3 
" style="fill: none; stroke: #000000; stroke-width: 0.8; stroke-linejoin: miter; stroke-linecap: square"/>
   </g>
   <g id="patch_5">
    <path d="M 34.16 291.28 
L 453.192 291.28 
" style="fill: none; stroke: #000000; stroke-width: 0.8; stroke-linejoin: miter; stroke-linecap: square"/>
   </g>
   <g id="patch_6">
    <path d="M 34.16 3 
L 453.192 3 
" style="fill: none; stroke: #000000; stroke-width: 0.8; stroke-linejoin: miter; stroke-linecap: square"/>
   </g>
   <g id="text_5">
    <!-- f1-f5,5-D -->
    <g transform="translate(356.36761 285.5144)scale(0.2 -0.2)">
     <defs>
      <path id="DejaVuSans-35" d="M 691 4666 
L 3169 4666 
L 3169 4134 
L 1269 4134 
L 1269 2991 
Q 1406 3038 1543 3061 
Q 1681 3084 1819 3084 
Q 2600 3084 3056 2656 
Q 3513 2228 3513 1497 
Q 3513 744 3044 326 
Q 2575 -91 1722 -91 
Q 1428 -91 1123 -41 
Q 819 9 494 109 
L 494 744 
Q 775 591 1075 516 
Q 1375 441 1709 441 
Q 2250 441 2565 725 
Q 2881 1009 2881 1497 
Q 2881 1984 2565 2268 
Q 2250 2553 1709 2553 
Q 1456 2553 1204 2497 
Q 953 2441 691 2322 
L 691 4666 
z
" transform="scale(0.015625)"/>
      <path id="DejaVuSans-2c" d="M 750 794 
L 1409 794 
L 1409 256 
L 897 -744 
L 494 -744 
L 750 256 
L 750 794 
z
" transform="scale(0.015625)"/>
      <path id="DejaVuSans-44" d="M 1259 4147 
L 1259 519 
L 2022 519 
Q 2988 519 3436 956 
Q 3884 1394 3884 2338 
Q 3884 3275 3436 3711 
Q 2988 4147 2022 4147 
L 1259 4147 
z
M 628 4666 
L 1925 4666 
Q 3281 4666 3915 4102 
Q 4550 3538 4550 2338 
Q 4550 1131 3912 565 
Q 3275 0 1925 0 
L 628 0 
L 628 4666 
z
" transform="scale(0.015625)"/>
     </defs>
     <use xlink:href="#DejaVuSans-66"/>
     <use xlink:href="#DejaVuSans-31" x="35.205078"/>
     <use xlink:href="#DejaVuSans-2d" x="98.828125"/>
     <use xlink:href="#DejaVuSans-66" x="134.912109"/>
     <use xlink:href="#DejaVuSans-35" x="170.117188"/>
     <use xlink:href="#DejaVuSans-2c" x="233.740234"/>
     <use xlink:href="#DejaVuSans-35" x="265.527344"/>
     <use xlink:href="#DejaVuSans-2d" x="329.150391"/>
     <use xlink:href="#DejaVuSans-44" x="365.234375"/>
    </g>
   </g>
   <g id="text_6">
    <!-- v2.6.3 -->
    <g style="fill: #808080" transform="translate(227.99475 286.317512)scale(0.1 -0.1)">
     <defs>
      <path id="DejaVuSans-32" d="M 1228 531 
L 3431 531 
L 3431 0 
L 469 0 
L 469 531 
Q 828 903 1448 1529 
Q 2069 2156 2228 2338 
Q 2531 2678 2651 2914 
Q 2772 3150 2772 3378 
Q 2772 3750 2511 3984 
Q 2250 4219 1831 4219 
Q 1534 4219 1204 4116 
Q 875 4013 500 3803 
L 500 4441 
Q 881 4594 1212 4672 
Q 1544 4750 1819 4750 
Q 2544 4750 2975 4387 
Q 3406 4025 3406 3419 
Q 3406 3131 3298 2873 
Q 3191 2616 2906 2266 
Q 2828 2175 2409 1742 
Q 1991 1309 1228 531 
z
" transform="scale(0.015625)"/>
      <path id="DejaVuSans-2e" d="M 684 794 
L 1344 794 
L 1344 0 
L 684 0 
L 684 794 
z
" transform="scale(0.015625)"/>
      <path id="DejaVuSans-36" d="M 2113 2584 
Q 1688 2584 1439 2293 
Q 1191 2003 1191 1497 
Q 1191 994 1439 701 
Q 1688 409 2113 409 
Q 2538 409 2786 701 
Q 3034 994 3034 1497 
Q 3034 2003 2786 2293 
Q 2538 2584 2113 2584 
z
M 3366 4563 
L 3366 3988 
Q 3128 4100 2886 4159 
Q 2644 4219 2406 4219 
Q 1781 4219 1451 3797 
Q 1122 3375 1075 2522 
Q 1259 2794 1537 2939 
Q 1816 3084 2150 3084 
Q 2853 3084 3261 2657 
Q 3669 2231 3669 1497 
Q 3669 778 3244 343 
Q 2819 -91 2113 -91 
Q 1303 -91 875 529 
Q 447 1150 447 2328 
Q 447 3434 972 4092 
Q 1497 4750 2381 4750 
Q 2619 4750 2861 4703 
Q 3103 4656 3366 4563 
z
" transform="scale(0.015625)"/>
      <path id="DejaVuSans-33" d="M 2597 2516 
Q 3050 2419 3304 2112 
Q 3559 1806 3559 1356 
Q 3559 666 3084 287 
Q 2609 -91 1734 -91 
Q 1441 -91 1130 -33 
Q 819 25 488 141 
L 488 750 
Q 750 597 1062 519 
Q 1375 441 1716 441 
Q 2309 441 2620 675 
Q 2931 909 2931 1356 
Q 2931 1769 2642 2001 
Q 2353 2234 1838 2234 
L 1294 2234 
L 1294 2753 
L 1863 2753 
Q 2328 2753 2575 2939 
Q 2822 3125 2822 3475 
Q 2822 3834 2567 4026 
Q 2313 4219 1838 4219 
Q 1578 4219 1281 4162 
Q 984 4106 628 3988 
L 628 4550 
Q 988 4650 1302 4700 
Q 1616 4750 1894 4750 
Q 2613 4750 3031 4423 
Q 3450 4097 3450 3541 
Q 3450 3153 3228 2886 
Q 3006 2619 2597 2516 
z
" transform="scale(0.015625)"/>
     </defs>
     <use xlink:href="#DejaVuSans-76"/>
     <use xlink:href="#DejaVuSans-32" x="59.179688"/>
     <use xlink:href="#DejaVuSans-2e" x="122.802734"/>
     <use xlink:href="#DejaVuSans-36" x="154.589844"/>
     <use xlink:href="#DejaVuSans-2e" x="218.212891"/>
     <use xlink:href="#DejaVuSans-33" x="250"/>
    </g>
   </g>
   <g id="legend_1">
    <g id="patch_7">
     <path d="M 48.16 136.425 
L 177.381875 136.425 
Q 181.381875 136.425 181.381875 132.425 
L 181.381875 17 
Q 181.381875 13 177.381875 13 
L 48.16 13 
Q 44.16 13 44.16 17 
L 44.16 132.425 
Q 44.16 136.425 48.16 136.425 
z
" style="fill: #ffffff; opacity: 0.2; stroke: #cccccc; stroke-linejoin: miter"/>
    </g>
    <g id="line2d_61">
     <path d="M 52.16 29.196875 
L 72.16 29.196875 
L 92.16 29.196875 
" style="fill: none; stroke: #000000; stroke-width: 3; stroke-linecap: square"/>
    </g>
    <g id="text_7">
     <!-- 1: 3/5 -->
     <g transform="translate(108.16 36.196875)scale(0.2 -0.2)">
      <defs>
       <path id="DejaVuSans-3a" d="M 750 794 
L 1409 794 
L 1409 0 
L 750 0 
L 750 794 
z
M 750 3309 
L 1409 3309 
L 1409 2516 
L 750 2516 
L 750 3309 
z
" transform="scale(0.015625)"/>
       <path id="DejaVuSans-2f" d="M 1625 4666 
L 2156 4666 
L 531 -594 
L 0 -594 
L 1625 4666 
z
" transform="scale(0.015625)"/>
      </defs>
      <use xlink:href="#DejaVuSans-31"/>
      <use xlink:href="#DejaVuSans-3a" x="63.623047"/>
      <use xlink:href="#DejaVuSans-20" x="97.314453"/>
      <use xlink:href="#DejaVuSans-33" x="129.101562"/>
      <use xlink:href="#DejaVuSans-2f" x="192.724609"/>
      <use xlink:href="#DejaVuSans-35" x="226.416016"/>
     </g>
    </g>
    <g id="line2d_62">
     <path d="M 52.16 58.553125 
L 72.16 58.553125 
L 92.16 58.553125 
" style="fill: none; stroke: #00bfbf; stroke-width: 3; stroke-linecap: square"/>
    </g>
    <g id="text_8">
     <!-- -1: 2/1 -->
     <g transform="translate(108.16 65.553125)scale(0.2 -0.2)">
      <use xlink:href="#DejaVuSans-2d"/>
      <use xlink:href="#DejaVuSans-31" x="36.083984"/>
      <use xlink:href="#DejaVuSans-3a" x="99.707031"/>
      <use xlink:href="#DejaVuSans-20" x="133.398438"/>
      <use xlink:href="#DejaVuSans-32" x="165.185547"/>
      <use xlink:href="#DejaVuSans-2f" x="228.808594"/>
      <use xlink:href="#DejaVuSans-31" x="262.5"/>
     </g>
    </g>
    <g id="line2d_63">
     <path d="M 52.16 87.909375 
L 72.16 87.909375 
L 92.16 87.909375 
" style="fill: none; stroke: #bf00bf; stroke-width: 3; stroke-linecap: square"/>
    </g>
    <g id="text_9">
     <!-- -4: 1/0 -->
     <g transform="translate(108.16 94.909375)scale(0.2 -0.2)">
      <defs>
       <path id="DejaVuSans-34" d="M 2419 4116 
L 825 1625 
L 2419 1625 
L 2419 4116 
z
M 2253 4666 
L 3047 4666 
L 3047 1625 
L 3713 1625 
L 3713 1100 
L 3047 1100 
L 3047 0 
L 2419 0 
L 2419 1100 
L 313 1100 
L 313 1709 
L 2253 4666 
z
" transform="scale(0.015625)"/>
      </defs>
      <use xlink:href="#DejaVuSans-2d"/>
      <use xlink:href="#DejaVuSans-34" x="36.083984"/>
      <use xlink:href="#DejaVuSans-3a" x="99.707031"/>
      <use xlink:href="#DejaVuSans-20" x="133.398438"/>
      <use xlink:href="#DejaVuSans-31" x="165.185547"/>
      <use xlink:href="#DejaVuSans-2f" x="228.808594"/>
      <use xlink:href="#DejaVuSans-30" x="262.5"/>
     </g>
    </g>
    <g id="line2d_64">
     <path d="M 52.16 117.265625 
L 72.16 117.265625 
L 92.16 117.265625 
" style="fill: none; stroke: #ff0000; stroke-width: 3; stroke-linecap: square"/>
    </g>
    <g id="text_10">
     <!-- -8: 1/0 -->
     <g transform="translate(108.16 124.265625)scale(0.2 -0.2)">
      <defs>
       <path id="DejaVuSans-38" d="M 2034 2216 
Q 1584 2216 1326 1975 
Q 1069 1734 1069 1313 
Q 1069 891 1326 650 
Q 1584 409 2034 409 
Q 2484 409 2743 651 
Q 3003 894 3003 1313 
Q 3003 1734 2745 1975 
Q 2488 2216 2034 2216 
z
M 1403 2484 
Q 997 2584 770 2862 
Q 544 3141 544 3541 
Q 544 4100 942 4425 
Q 1341 4750 2034 4750 
Q 2731 4750 3128 4425 
Q 3525 4100 3525 3541 
Q 3525 3141 3298 2862 
Q 3072 2584 2669 2484 
Q 3125 2378 3379 2068 
Q 3634 1759 3634 1313 
Q 3634 634 3220 271 
Q 2806 -91 2034 -91 
Q 1263 -91 848 271 
Q 434 634 434 1313 
Q 434 1759 690 2068 
Q 947 2378 1403 2484 
z
M 1172 3481 
Q 1172 3119 1398 2916 
Q 1625 2713 2034 2713 
Q 2441 2713 2670 2916 
Q 2900 3119 2900 3481 
Q 2900 3844 2670 4047 
Q 2441 4250 2034 4250 
Q 1625 4250 1398 4047 
Q 1172 3844 1172 3481 
z
" transform="scale(0.015625)"/>
      </defs>
      <use xlink:href="#DejaVuSans-2d"/>
      <use xlink:href="#DejaVuSans-38" x="36.083984"/>
      <use xlink:href="#DejaVuSans-3a" x="99.707031"/>
      <use xlink:href="#DejaVuSans-20" x="133.398438"/>
      <use xlink:href="#DejaVuSans-31" x="165.185547"/>
      <use xlink:href="#DejaVuSans-2f" x="228.808594"/>
      <use xlink:href="#DejaVuSans-30" x="262.5"/>
     </g>
    </g>
   </g>
  </g>
 </g>
 <defs>
  <clipPath id="p61a40a3102">
   <rect x="34.16" y="3" width="419.032" height="288.28"/>
  </clipPath>
 </defs>
</svg>
