<?xml version="1.0" encoding="utf-8" standalone="no"?>
<!DOCTYPE svg PUBLIC "-//W3C//DTD SVG 1.1//EN"
  "http://www.w3.org/Graphics/SVG/1.1/DTD/svg11.dtd">
<svg xmlns:xlink="http://www.w3.org/1999/xlink" width="460.8pt" height="345.6pt" viewBox="0 0 460.8 345.6" xmlns="http://www.w3.org/2000/svg" version="1.1">
 <metadata>
  <rdf:RDF xmlns:dc="http://purl.org/dc/elements/1.1/" xmlns:cc="http://creativecommons.org/ns#" xmlns:rdf="http://www.w3.org/1999/02/22-rdf-syntax-ns#">
   <cc:Work>
    <dc:type rdf:resource="http://purl.org/dc/dcmitype/StillImage"/>
    <dc:date>2024-01-05T10:25:41.181775</dc:date>
    <dc:format>image/svg+xml</dc:format>
    <dc:creator>
     <cc:Agent>
      <dc:title>Matplotlib v3.5.1, https://matplotlib.org/</dc:title>
     </cc:Agent>
    </dc:creator>
   </cc:Work>
  </rdf:RDF>
 </metadata>
 <defs>
  <style type="text/css">*{stroke-linejoin: round; stroke-linecap: butt}</style>
 </defs>
 <g id="figure_1">
  <g id="patch_1">
   <path d="M 0 345.6 
L 460.8 345.6 
L 460.8 0 
L 0 0 
z
" style="fill: #ffffff"/>
  </g>
  <g id="axes_1">
   <g id="patch_2">
    <path d="M 34.16 291.28 
L 453.192 291.28 
L 453.192 3 
L 34.16 3 
z
" style="fill: #ffffff"/>
   </g>
   <g id="matplotlib.axis_1">
    <g id="xtick_1">
     <g id="line2d_1">
      <path d="M 104.510555 291.28 
L 104.510555 3 
" clip-path="url(#p24fbbc79e7)" style="fill: none; stroke: #b0b0b0; stroke-width: 0.8; stroke-linecap: square"/>
     </g>
     <g id="line2d_2">
      <defs>
       <path id="md5ec0c5a9b" d="M 0 0 
L 0 3.5 
" style="stroke: #000000; stroke-width: 0.8"/>
      </defs>
      <g>
       <use xlink:href="#md5ec0c5a9b" x="104.510555" y="291.28" style="stroke: #000000; stroke-width: 0.8"/>
      </g>
     </g>
     <g id="text_1">
      <!-- -2 -->
      <g transform="translate(94.540243 313.476875)scale(0.2 -0.2)">
       <defs>
        <path id="DejaVuSans-2d" d="M 313 2009 
L 1997 2009 
L 1997 1497 
L 313 1497 
L 313 2009 
z
" transform="scale(0.015625)"/>
        <path id="DejaVuSans-32" d="M 1228 531 
L 3431 531 
L 3431 0 
L 469 0 
L 469 531 
Q 828 903 1448 1529 
Q 2069 2156 2228 2338 
Q 2531 2678 2651 2914 
Q 2772 3150 2772 3378 
Q 2772 3750 2511 3984 
Q 2250 4219 1831 4219 
Q 1534 4219 1204 4116 
Q 875 4013 500 3803 
L 500 4441 
Q 881 4594 1212 4672 
Q 1544 4750 1819 4750 
Q 2544 4750 2975 4387 
Q 3406 4025 3406 3419 
Q 3406 3131 3298 2873 
Q 3191 2616 2906 2266 
Q 2828 2175 2409 1742 
Q 1991 1309 1228 531 
z
" transform="scale(0.015625)"/>
       </defs>
       <use xlink:href="#DejaVuSans-2d"/>
       <use xlink:href="#DejaVuSans-32" x="36.083984"/>
      </g>
     </g>
    </g>
    <g id="xtick_2">
     <g id="line2d_3">
      <path d="M 243.676 291.28 
L 243.676 3 
" clip-path="url(#p24fbbc79e7)" style="fill: none; stroke: #b0b0b0; stroke-width: 0.8; stroke-linecap: square"/>
     </g>
     <g id="line2d_4">
      <g>
       <use xlink:href="#md5ec0c5a9b" x="243.676" y="291.28" style="stroke: #000000; stroke-width: 0.8"/>
      </g>
     </g>
     <g id="text_2">
      <!-- 0 -->
      <g transform="translate(237.3135 313.476875)scale(0.2 -0.2)">
       <defs>
        <path id="DejaVuSans-30" d="M 2034 4250 
Q 1547 4250 1301 3770 
Q 1056 3291 1056 2328 
Q 1056 1369 1301 889 
Q 1547 409 2034 409 
Q 2525 409 2770 889 
Q 3016 1369 3016 2328 
Q 3016 3291 2770 3770 
Q 2525 4250 2034 4250 
z
M 2034 4750 
Q 2819 4750 3233 4129 
Q 3647 3509 3647 2328 
Q 3647 1150 3233 529 
Q 2819 -91 2034 -91 
Q 1250 -91 836 529 
Q 422 1150 422 2328 
Q 422 3509 836 4129 
Q 1250 4750 2034 4750 
z
" transform="scale(0.015625)"/>
       </defs>
       <use xlink:href="#DejaVuSans-30"/>
      </g>
     </g>
    </g>
    <g id="xtick_3">
     <g id="line2d_5">
      <path d="M 382.841445 291.28 
L 382.841445 3 
" clip-path="url(#p24fbbc79e7)" style="fill: none; stroke: #b0b0b0; stroke-width: 0.8; stroke-linecap: square"/>
     </g>
     <g id="line2d_6">
      <g>
       <use xlink:href="#md5ec0c5a9b" x="382.841445" y="291.28" style="stroke: #000000; stroke-width: 0.8"/>
      </g>
     </g>
     <g id="text_3">
      <!-- 2 -->
      <g transform="translate(376.478945 313.476875)scale(0.2 -0.2)">
       <use xlink:href="#DejaVuSans-32"/>
      </g>
     </g>
    </g>
    <g id="text_4">
     <!-- log10 of FEvals ratio -->
     <g transform="translate(141.371312 336.833125)scale(0.2 -0.2)">
      <defs>
       <path id="DejaVuSans-6c" d="M 603 4863 
L 1178 4863 
L 1178 0 
L 603 0 
L 603 4863 
z
" transform="scale(0.015625)"/>
       <path id="DejaVuSans-6f" d="M 1959 3097 
Q 1497 3097 1228 2736 
Q 959 2375 959 1747 
Q 959 1119 1226 758 
Q 1494 397 1959 397 
Q 2419 397 2687 759 
Q 2956 1122 2956 1747 
Q 2956 2369 2687 2733 
Q 2419 3097 1959 3097 
z
M 1959 3584 
Q 2709 3584 3137 3096 
Q 3566 2609 3566 1747 
Q 3566 888 3137 398 
Q 2709 -91 1959 -91 
Q 1206 -91 779 398 
Q 353 888 353 1747 
Q 353 2609 779 3096 
Q 1206 3584 1959 3584 
z
" transform="scale(0.015625)"/>
       <path id="DejaVuSans-67" d="M 2906 1791 
Q 2906 2416 2648 2759 
Q 2391 3103 1925 3103 
Q 1463 3103 1205 2759 
Q 947 2416 947 1791 
Q 947 1169 1205 825 
Q 1463 481 1925 481 
Q 2391 481 2648 825 
Q 2906 1169 2906 1791 
z
M 3481 434 
Q 3481 -459 3084 -895 
Q 2688 -1331 1869 -1331 
Q 1566 -1331 1297 -1286 
Q 1028 -1241 775 -1147 
L 775 -588 
Q 1028 -725 1275 -790 
Q 1522 -856 1778 -856 
Q 2344 -856 2625 -561 
Q 2906 -266 2906 331 
L 2906 616 
Q 2728 306 2450 153 
Q 2172 0 1784 0 
Q 1141 0 747 490 
Q 353 981 353 1791 
Q 353 2603 747 3093 
Q 1141 3584 1784 3584 
Q 2172 3584 2450 3431 
Q 2728 3278 2906 2969 
L 2906 3500 
L 3481 3500 
L 3481 434 
z
" transform="scale(0.015625)"/>
       <path id="DejaVuSans-31" d="M 794 531 
L 1825 531 
L 1825 4091 
L 703 3866 
L 703 4441 
L 1819 4666 
L 2450 4666 
L 2450 531 
L 3481 531 
L 3481 0 
L 794 0 
L 794 531 
z
" transform="scale(0.015625)"/>
       <path id="DejaVuSans-20" transform="scale(0.015625)"/>
       <path id="DejaVuSans-66" d="M 2375 4863 
L 2375 4384 
L 1825 4384 
Q 1516 4384 1395 4259 
Q 1275 4134 1275 3809 
L 1275 3500 
L 2222 3500 
L 2222 3053 
L 1275 3053 
L 1275 0 
L 697 0 
L 697 3053 
L 147 3053 
L 147 3500 
L 697 3500 
L 697 3744 
Q 697 4328 969 4595 
Q 1241 4863 1831 4863 
L 2375 4863 
z
" transform="scale(0.015625)"/>
       <path id="DejaVuSans-46" d="M 628 4666 
L 3309 4666 
L 3309 4134 
L 1259 4134 
L 1259 2759 
L 3109 2759 
L 3109 2228 
L 1259 2228 
L 1259 0 
L 628 0 
L 628 4666 
z
" transform="scale(0.015625)"/>
       <path id="DejaVuSans-45" d="M 628 4666 
L 3578 4666 
L 3578 4134 
L 1259 4134 
L 1259 2753 
L 3481 2753 
L 3481 2222 
L 1259 2222 
L 1259 531 
L 3634 531 
L 3634 0 
L 628 0 
L 628 4666 
z
" transform="scale(0.015625)"/>
       <path id="DejaVuSans-76" d="M 191 3500 
L 800 3500 
L 1894 563 
L 2988 3500 
L 3597 3500 
L 2284 0 
L 1503 0 
L 191 3500 
z
" transform="scale(0.015625)"/>
       <path id="DejaVuSans-61" d="M 2194 1759 
Q 1497 1759 1228 1600 
Q 959 1441 959 1056 
Q 959 750 1161 570 
Q 1363 391 1709 391 
Q 2188 391 2477 730 
Q 2766 1069 2766 1631 
L 2766 1759 
L 2194 1759 
z
M 3341 1997 
L 3341 0 
L 2766 0 
L 2766 531 
Q 2569 213 2275 61 
Q 1981 -91 1556 -91 
Q 1019 -91 701 211 
Q 384 513 384 1019 
Q 384 1609 779 1909 
Q 1175 2209 1959 2209 
L 2766 2209 
L 2766 2266 
Q 2766 2663 2505 2880 
Q 2244 3097 1772 3097 
Q 1472 3097 1187 3025 
Q 903 2953 641 2809 
L 641 3341 
Q 956 3463 1253 3523 
Q 1550 3584 1831 3584 
Q 2591 3584 2966 3190 
Q 3341 2797 3341 1997 
z
" transform="scale(0.015625)"/>
       <path id="DejaVuSans-73" d="M 2834 3397 
L 2834 2853 
Q 2591 2978 2328 3040 
Q 2066 3103 1784 3103 
Q 1356 3103 1142 2972 
Q 928 2841 928 2578 
Q 928 2378 1081 2264 
Q 1234 2150 1697 2047 
L 1894 2003 
Q 2506 1872 2764 1633 
Q 3022 1394 3022 966 
Q 3022 478 2636 193 
Q 2250 -91 1575 -91 
Q 1294 -91 989 -36 
Q 684 19 347 128 
L 347 722 
Q 666 556 975 473 
Q 1284 391 1588 391 
Q 1994 391 2212 530 
Q 2431 669 2431 922 
Q 2431 1156 2273 1281 
Q 2116 1406 1581 1522 
L 1381 1569 
Q 847 1681 609 1914 
Q 372 2147 372 2553 
Q 372 3047 722 3315 
Q 1072 3584 1716 3584 
Q 2034 3584 2315 3537 
Q 2597 3491 2834 3397 
z
" transform="scale(0.015625)"/>
       <path id="DejaVuSans-72" d="M 2631 2963 
Q 2534 3019 2420 3045 
Q 2306 3072 2169 3072 
Q 1681 3072 1420 2755 
Q 1159 2438 1159 1844 
L 1159 0 
L 581 0 
L 581 3500 
L 1159 3500 
L 1159 2956 
Q 1341 3275 1631 3429 
Q 1922 3584 2338 3584 
Q 2397 3584 2469 3576 
Q 2541 3569 2628 3553 
L 2631 2963 
z
" transform="scale(0.015625)"/>
       <path id="DejaVuSans-74" d="M 1172 4494 
L 1172 3500 
L 2356 3500 
L 2356 3053 
L 1172 3053 
L 1172 1153 
Q 1172 725 1289 603 
Q 1406 481 1766 481 
L 2356 481 
L 2356 0 
L 1766 0 
Q 1100 0 847 248 
Q 594 497 594 1153 
L 594 3053 
L 172 3053 
L 172 3500 
L 594 3500 
L 594 4494 
L 1172 4494 
z
" transform="scale(0.015625)"/>
       <path id="DejaVuSans-69" d="M 603 3500 
L 1178 3500 
L 1178 0 
L 603 0 
L 603 3500 
z
M 603 4863 
L 1178 4863 
L 1178 4134 
L 603 4134 
L 603 4863 
z
" transform="scale(0.015625)"/>
      </defs>
      <use xlink:href="#DejaVuSans-6c"/>
      <use xlink:href="#DejaVuSans-6f" x="27.783203"/>
      <use xlink:href="#DejaVuSans-67" x="88.964844"/>
      <use xlink:href="#DejaVuSans-31" x="152.441406"/>
      <use xlink:href="#DejaVuSans-30" x="216.064453"/>
      <use xlink:href="#DejaVuSans-20" x="279.6875"/>
      <use xlink:href="#DejaVuSans-6f" x="311.474609"/>
      <use xlink:href="#DejaVuSans-66" x="372.65625"/>
      <use xlink:href="#DejaVuSans-20" x="407.861328"/>
      <use xlink:href="#DejaVuSans-46" x="439.648438"/>
      <use xlink:href="#DejaVuSans-45" x="497.167969"/>
      <use xlink:href="#DejaVuSans-76" x="560.351562"/>
      <use xlink:href="#DejaVuSans-61" x="619.53125"/>
      <use xlink:href="#DejaVuSans-6c" x="680.810547"/>
      <use xlink:href="#DejaVuSans-73" x="708.59375"/>
      <use xlink:href="#DejaVuSans-20" x="760.693359"/>
      <use xlink:href="#DejaVuSans-72" x="792.480469"/>
      <use xlink:href="#DejaVuSans-61" x="833.59375"/>
      <use xlink:href="#DejaVuSans-74" x="894.873047"/>
      <use xlink:href="#DejaVuSans-69" x="934.082031"/>
      <use xlink:href="#DejaVuSans-6f" x="961.865234"/>
     </g>
    </g>
   </g>
   <g id="matplotlib.axis_2">
    <g id="ytick_1">
     <g id="line2d_7">
      <path d="M 34.16 288.453725 
L 453.192 288.453725 
" clip-path="url(#p24fbbc79e7)" style="fill: none; stroke: #b0b0b0; stroke-width: 0.8; stroke-linecap: square"/>
     </g>
     <g id="line2d_8">
      <defs>
       <path id="md04eaff973" d="M 0 0 
L -3.5 0 
" style="stroke: #000000; stroke-width: 0.8"/>
      </defs>
      <g>
       <use xlink:href="#md04eaff973" x="34.16" y="288.453725" style="stroke: #000000; stroke-width: 0.8"/>
      </g>
     </g>
    </g>
    <g id="ytick_2">
     <g id="line2d_9">
      <path d="M 34.16 217.796863 
L 453.192 217.796863 
" clip-path="url(#p24fbbc79e7)" style="fill: none; stroke: #b0b0b0; stroke-width: 0.8; stroke-linecap: square"/>
     </g>
     <g id="line2d_10">
      <g>
       <use xlink:href="#md04eaff973" x="34.16" y="217.796863" style="stroke: #000000; stroke-width: 0.8"/>
      </g>
     </g>
    </g>
    <g id="ytick_3">
     <g id="line2d_11">
      <path d="M 34.16 147.14 
L 453.192 147.14 
" clip-path="url(#p24fbbc79e7)" style="fill: none; stroke: #b0b0b0; stroke-width: 0.8; stroke-linecap: square"/>
     </g>
     <g id="line2d_12">
      <g>
       <use xlink:href="#md04eaff973" x="34.16" y="147.14" style="stroke: #000000; stroke-width: 0.8"/>
      </g>
     </g>
    </g>
    <g id="ytick_4">
     <g id="line2d_13">
      <path d="M 34.16 76.483137 
L 453.192 76.483137 
" clip-path="url(#p24fbbc79e7)" style="fill: none; stroke: #b0b0b0; stroke-width: 0.8; stroke-linecap: square"/>
     </g>
     <g id="line2d_14">
      <g>
       <use xlink:href="#md04eaff973" x="34.16" y="76.483137" style="stroke: #000000; stroke-width: 0.8"/>
      </g>
     </g>
    </g>
    <g id="ytick_5">
     <g id="line2d_15">
      <path d="M 34.16 5.826275 
L 453.192 5.826275 
" clip-path="url(#p24fbbc79e7)" style="fill: none; stroke: #b0b0b0; stroke-width: 0.8; stroke-linecap: square"/>
     </g>
     <g id="line2d_16">
      <g>
       <use xlink:href="#md04eaff973" x="34.16" y="5.826275" style="stroke: #000000; stroke-width: 0.8"/>
      </g>
     </g>
    </g>
    <g id="text_5">
     <!-- proportion of trials -->
     <g transform="translate(19.000625 240.14625)rotate(-90)scale(0.2 -0.2)">
      <defs>
       <path id="DejaVuSans-70" d="M 1159 525 
L 1159 -1331 
L 581 -1331 
L 581 3500 
L 1159 3500 
L 1159 2969 
Q 1341 3281 1617 3432 
Q 1894 3584 2278 3584 
Q 2916 3584 3314 3078 
Q 3713 2572 3713 1747 
Q 3713 922 3314 415 
Q 2916 -91 2278 -91 
Q 1894 -91 1617 61 
Q 1341 213 1159 525 
z
M 3116 1747 
Q 3116 2381 2855 2742 
Q 2594 3103 2138 3103 
Q 1681 3103 1420 2742 
Q 1159 2381 1159 1747 
Q 1159 1113 1420 752 
Q 1681 391 2138 391 
Q 2594 391 2855 752 
Q 3116 1113 3116 1747 
z
" transform="scale(0.015625)"/>
       <path id="DejaVuSans-6e" d="M 3513 2113 
L 3513 0 
L 2938 0 
L 2938 2094 
Q 2938 2591 2744 2837 
Q 2550 3084 2163 3084 
Q 1697 3084 1428 2787 
Q 1159 2491 1159 1978 
L 1159 0 
L 581 0 
L 581 3500 
L 1159 3500 
L 1159 2956 
Q 1366 3272 1645 3428 
Q 1925 3584 2291 3584 
Q 2894 3584 3203 3211 
Q 3513 2838 3513 2113 
z
" transform="scale(0.015625)"/>
      </defs>
      <use xlink:href="#DejaVuSans-70"/>
      <use xlink:href="#DejaVuSans-72" x="63.476562"/>
      <use xlink:href="#DejaVuSans-6f" x="102.339844"/>
      <use xlink:href="#DejaVuSans-70" x="163.521484"/>
      <use xlink:href="#DejaVuSans-6f" x="226.998047"/>
      <use xlink:href="#DejaVuSans-72" x="288.179688"/>
      <use xlink:href="#DejaVuSans-74" x="329.292969"/>
      <use xlink:href="#DejaVuSans-69" x="368.501953"/>
      <use xlink:href="#DejaVuSans-6f" x="396.285156"/>
      <use xlink:href="#DejaVuSans-6e" x="457.466797"/>
      <use xlink:href="#DejaVuSans-20" x="520.845703"/>
      <use xlink:href="#DejaVuSans-6f" x="552.632812"/>
      <use xlink:href="#DejaVuSans-66" x="613.814453"/>
      <use xlink:href="#DejaVuSans-20" x="649.019531"/>
      <use xlink:href="#DejaVuSans-74" x="680.806641"/>
      <use xlink:href="#DejaVuSans-72" x="720.015625"/>
      <use xlink:href="#DejaVuSans-69" x="761.128906"/>
      <use xlink:href="#DejaVuSans-61" x="788.912109"/>
      <use xlink:href="#DejaVuSans-6c" x="850.191406"/>
      <use xlink:href="#DejaVuSans-73" x="877.974609"/>
     </g>
    </g>
   </g>
   <g id="line2d_17">
    <path d="M 34.16 288.453725 
L 113.070122 288.453725 
L 113.070122 288.188348 
L 116.763465 288.188348 
L 116.763465 287.92297 
L 119.613476 287.92297 
L 119.613476 287.657592 
L 125.862677 287.657592 
L 125.862677 287.392214 
L 126.273832 287.392214 
L 126.273832 287.126836 
L 127.976784 287.126836 
L 127.976784 286.861458 
L 131.209416 286.861458 
L 131.209416 286.59608 
L 132.708205 286.59608 
L 132.708205 286.330702 
L 135.105714 286.330702 
L 135.105714 286.065324 
L 138.674948 286.065324 
L 138.674948 285.799947 
L 140.559963 285.799947 
L 140.559963 285.534569 
L 142.368291 285.534569 
L 142.368291 285.269191 
L 142.978805 285.269191 
L 142.978805 285.003813 
L 145.218302 285.003813 
L 145.218302 284.738435 
L 146.269518 284.738435 
L 146.269518 284.473057 
L 147.637144 284.473057 
L 147.637144 284.207679 
L 149.96286 284.207679 
L 149.96286 283.942301 
L 151.467504 283.942301 
L 151.467504 283.676924 
L 151.672382 283.676924 
L 151.672382 283.411546 
L 151.878659 283.411546 
L 151.878659 283.146168 
L 152.812872 283.146168 
L 152.812872 282.88079 
L 153.58161 282.88079 
L 153.58161 282.615412 
L 156.814242 282.615412 
L 156.814242 282.350034 
L 157.260623 282.350034 
L 157.260623 282.084656 
L 158.313032 282.084656 
L 158.313032 281.819278 
L 158.546748 281.819278 
L 158.546748 281.5539 
L 159.062073 281.5539 
L 159.062073 281.288523 
L 159.473228 281.288523 
L 159.548588 280.757767 
L 159.890054 280.757767 
L 159.890054 280.492389 
L 160.71054 280.492389 
L 160.71054 280.227011 
L 161.176179 280.227011 
L 161.176179 279.961633 
L 161.657773 279.961633 
L 161.657773 279.696255 
L 163.925291 279.696255 
L 163.925291 279.430877 
L 164.408812 279.430877 
L 164.408812 279.165499 
L 165.331098 279.165499 
L 165.331098 278.900122 
L 165.907601 278.900122 
L 165.907601 278.634744 
L 166.164789 278.634744 
L 166.164789 278.103988 
L 167.460104 278.103988 
L 167.460104 277.83861 
L 168.305109 277.83861 
L 168.305109 277.573232 
L 168.583631 277.573232 
L 168.583631 277.307854 
L 168.813437 277.307854 
L 168.813437 277.042476 
L 169.27836 277.042476 
L 169.27836 276.777098 
L 170.472958 276.777098 
L 170.472958 276.511721 
L 170.964341 276.511721 
L 171.072506 275.980965 
L 171.213062 275.980965 
L 171.213062 275.715587 
L 172.618869 275.715587 
L 172.618869 275.450209 
L 173.241971 275.450209 
L 173.252735 274.919453 
L 173.759358 274.919453 
L 173.819797 274.388697 
L 176.1782 274.388697 
L 176.1782 273.592564 
L 176.6728 273.592564 
L 176.6728 273.327186 
L 177.143198 273.327186 
L 177.143198 273.061808 
L 177.277208 273.061808 
L 177.363426 272.265674 
L 177.893952 272.265674 
L 177.893952 272.000296 
L 178.777457 272.000296 
L 178.777457 271.734919 
L 180.166035 271.734919 
L 180.166035 271.469541 
L 180.83654 271.469541 
L 180.83654 270.673407 
L 183.686552 270.673407 
L 183.686552 270.408029 
L 184.871778 270.408029 
L 184.871778 269.611895 
L 185.49488 269.611895 
L 185.543347 269.08114 
L 187.652533 269.08114 
L 187.652533 268.815762 
L 189.530118 268.815762 
L 189.600151 267.488872 
L 189.935753 267.488872 
L 189.935753 267.223494 
L 190.346908 267.223494 
L 190.447914 266.692739 
L 191.61504 266.692739 
L 191.62906 265.896605 
L 191.780379 265.896605 
L 191.780379 265.631227 
L 192.049859 265.631227 
L 192.159549 265.100471 
L 193.089449 265.100471 
L 193.089449 264.835093 
L 193.809288 264.835093 
L 193.809288 264.569716 
L 194.123955 264.569716 
L 194.123955 264.304338 
L 195.039764 264.304338 
L 195.039764 264.03896 
L 195.282492 264.03896 
L 195.282492 263.773582 
L 195.891071 263.773582 
L 195.891071 263.508204 
L 196.781281 263.508204 
L 196.781281 263.242826 
L 196.959101 263.242826 
L 196.959101 262.977448 
L 197.124687 262.977448 
L 197.124687 262.71207 
L 197.305102 262.71207 
L 197.305102 262.446692 
L 197.747789 262.446692 
L 197.747789 262.181315 
L 197.91998 262.181315 
L 197.91998 261.915937 
L 198.223695 261.915937 
L 198.223695 261.385181 
L 198.69368 261.385181 
L 198.69368 261.119803 
L 199.033915 261.119803 
L 199.033915 260.854425 
L 199.178789 260.854425 
L 199.178789 260.589047 
L 199.334011 260.589047 
L 199.334011 260.323669 
L 200.035755 260.323669 
L 200.125768 259.792914 
L 200.308618 259.792914 
L 200.308618 259.262158 
L 200.420593 259.262158 
L 200.420593 258.99678 
L 200.722588 258.99678 
L 200.722588 258.731402 
L 201.017938 258.731402 
L 201.017938 258.466024 
L 201.783027 258.466024 
L 201.783027 256.873757 
L 202.14494 256.873757 
L 202.14494 256.608379 
L 202.305996 256.608379 
L 202.305996 256.343001 
L 202.600822 256.343001 
L 202.600822 256.077623 
L 204.070992 256.077623 
L 204.070992 255.812245 
L 204.412458 255.812245 
L 204.412458 255.016112 
L 204.633038 255.016112 
L 204.633038 254.750734 
L 205.818264 254.750734 
L 205.929161 253.9546 
L 206.099901 253.9546 
L 206.180178 253.423844 
L 206.416688 253.423844 
L 206.416688 253.158466 
L 206.651956 253.158466 
L 206.711513 252.627711 
L 207.830718 252.627711 
L 207.830718 252.362333 
L 207.947271 252.362333 
L 207.947271 252.096955 
L 208.125544 252.096955 
L 208.209087 251.566199 
L 208.975558 251.566199 
L 208.975558 251.300821 
L 209.219296 251.300821 
L 209.300604 250.770065 
L 209.377596 250.770065 
L 209.377596 249.973932 
L 209.514122 249.973932 
L 209.514122 249.708554 
L 209.765527 249.708554 
L 209.765527 249.443176 
L 210.476604 249.443176 
L 210.476604 246.524019 
L 210.960125 246.524019 
L 211.004467 245.993263 
L 211.451508 245.993263 
L 211.451508 245.727885 
L 211.71022 245.727885 
L 211.71022 245.462508 
L 212.292908 245.462508 
L 212.292908 245.19713 
L 212.6516 245.19713 
L 212.6516 244.931752 
L 213.767317 244.931752 
L 213.767317 244.666374 
L 214.035936 244.666374 
L 214.035936 243.87024 
L 214.306964 243.87024 
L 214.306964 243.604862 
L 214.596609 243.604862 
L 214.680509 243.074107 
L 214.891434 243.074107 
L 214.891434 242.808729 
L 215.486745 242.808729 
L 215.486745 242.543351 
L 215.986251 242.543351 
L 215.986251 242.277973 
L 216.705794 242.277973 
L 216.705794 242.012595 
L 217.00062 242.012595 
L 217.00062 241.747217 
L 217.159967 241.747217 
L 217.219867 240.951083 
L 217.46066 240.951083 
L 217.515654 240.420328 
L 218.071174 240.420328 
L 218.071174 239.624194 
L 218.381119 239.624194 
L 218.381119 239.358816 
L 218.836262 239.358816 
L 218.836262 239.093438 
L 219.501175 239.093438 
L 219.545583 238.562683 
L 219.634594 238.562683 
L 219.634594 238.297305 
L 219.796001 238.297305 
L 219.849298 237.501171 
L 220.310671 237.501171 
L 220.310671 237.235793 
L 220.490016 237.235793 
L 220.490016 236.970415 
L 220.644591 236.970415 
L 220.644591 236.705037 
L 221.574492 236.705037 
L 221.574492 236.439659 
L 222.729513 236.439659 
L 222.729513 232.724369 
L 223.042671 232.724369 
L 223.042671 232.458991 
L 223.177216 232.458991 
L 223.177216 232.193613 
L 223.327937 232.193613 
L 223.327937 231.928235 
L 223.472042 231.928235 
L 223.472042 231.662857 
L 223.963129 231.662857 
L 223.963129 231.39748 
L 224.328796 231.39748 
L 224.328796 231.132102 
L 224.456806 231.132102 
L 224.456806 230.866724 
L 225.085464 230.866724 
L 225.085464 230.601346 
L 225.330636 230.601346 
L 225.358944 230.07059 
L 225.496618 230.07059 
L 225.496618 229.805212 
L 225.8573 229.805212 
L 225.913444 228.478323 
L 226.012362 228.478323 
L 226.012362 228.212945 
L 226.177948 228.212945 
L 226.177948 227.947567 
L 226.307188 227.947567 
L 226.307188 227.682189 
L 226.485715 227.682189 
L 226.559873 227.151433 
L 226.971027 227.151433 
L 226.971027 226.886055 
L 227.19957 226.886055 
L 227.19957 226.620678 
L 227.439821 226.620678 
L 227.439821 226.3553 
L 228.037529 226.3553 
L 228.037529 226.089922 
L 228.23916 226.089922 
L 228.23916 225.824544 
L 228.673979 225.824544 
L 228.673979 225.559166 
L 228.79366 225.559166 
L 228.79366 225.293788 
L 229.183593 225.293788 
L 229.183593 225.02841 
L 229.472776 225.02841 
L 229.472776 224.497654 
L 230.071199 224.497654 
L 230.071199 224.232277 
L 230.366025 224.232277 
L 230.432202 223.701521 
L 230.947185 223.701521 
L 230.947185 223.436143 
L 231.113146 223.436143 
L 231.186075 222.640009 
L 231.423091 222.640009 
L 231.423091 221.31312 
L 231.891618 221.31312 
L 231.946837 220.251608 
L 232.14822 220.251608 
L 232.233311 219.720852 
L 232.42715 219.720852 
L 232.4722 218.924719 
L 232.709217 218.924719 
L 232.709217 218.393963 
L 232.838304 218.393963 
L 232.838304 218.128585 
L 233.177744 218.128585 
L 233.242152 217.332451 
L 233.405401 217.332451 
L 233.47404 216.536318 
L 233.562251 216.536318 
L 233.562251 216.27094 
L 233.711056 216.27094 
L 233.711056 215.740184 
L 234.179583 215.740184 
L 234.179583 215.474806 
L 234.3285 215.474806 
L 234.3285 215.209428 
L 234.541256 215.209428 
L 234.595485 214.678673 
L 234.950829 214.678673 
L 235.060408 210.963382 
L 235.277248 210.963382 
L 235.344336 210.432626 
L 235.583226 210.432626 
L 235.583226 209.901871 
L 235.802909 209.901871 
L 235.820242 209.105737 
L 236.081431 209.105737 
L 236.081431 208.840359 
L 236.255006 208.840359 
L 236.288769 208.309603 
L 236.388229 208.309603 
L 236.388229 208.044225 
L 236.746389 208.044225 
L 236.746389 207.778847 
L 237.611854 207.778847 
L 237.611854 206.982714 
L 237.773888 206.982714 
L 237.773888 206.717336 
L 238.166353 206.717336 
L 238.166353 205.125069 
L 239.01766 205.125069 
L 239.01766 204.594313 
L 239.25655 204.594313 
L 239.272678 203.798179 
L 239.493566 203.798179 
L 239.601845 203.002045 
L 239.782749 203.002045 
L 239.851351 202.47129 
L 239.962093 202.47129 
L 239.962093 202.205912 
L 240.090241 202.205912 
L 240.133378 201.1444 
L 240.327257 201.1444 
L 240.432582 200.082889 
L 240.795784 200.082889 
L 240.795784 199.817511 
L 241.146667 199.817511 
L 241.257158 199.021377 
L 241.385556 199.021377 
L 241.385556 198.490621 
L 241.622572 198.490621 
L 241.670186 197.694488 
L 242.091099 197.694488 
L 242.091099 197.42911 
L 242.437327 197.42911 
L 242.5 196.632976 
L 242.738889 196.632976 
L 242.738889 196.10222 
L 242.964923 196.10222 
L 242.975906 195.306087 
L 243.203812 195.306087 
L 243.286067 194.509953 
L 243.440828 194.509953 
L 243.444433 193.713819 
L 243.676 193.713819 
L 243.676 189.202395 
L 243.82672 189.202395 
L 243.909356 188.406262 
L 244.125925 188.406262 
L 244.159521 187.875506 
L 244.39841 187.875506 
L 244.39841 187.34475 
L 244.635426 187.34475 
L 244.650904 186.548616 
L 244.889793 186.548616 
L 244.889793 186.017861 
L 245.060336 186.017861 
L 245.126809 184.690971 
L 245.210309 184.690971 
L 245.232708 184.160215 
L 245.595337 184.160215 
L 245.595337 183.894838 
L 245.949206 183.894838 
L 245.949206 183.62946 
L 246.094842 183.62946 
L 246.094842 183.364082 
L 246.346462 183.364082 
L 246.422063 182.833326 
L 246.496435 182.833326 
L 246.496435 182.567948 
L 246.676732 182.567948 
L 246.676732 182.037192 
L 246.859931 182.037192 
L 246.859931 181.771814 
L 246.975936 181.771814 
L 246.975936 181.506437 
L 247.124435 181.506437 
L 247.235332 180.179547 
L 247.348302 180.179547 
L 247.348302 179.914169 
L 247.498274 179.914169 
L 247.50636 179.383413 
L 247.711238 179.383413 
L 247.745249 178.58728 
L 247.982265 178.58728 
L 247.982265 178.056524 
L 248.237171 178.056524 
L 248.33434 177.26039 
L 248.450792 177.26039 
L 248.450792 176.995012 
L 248.602292 176.995012 
L 248.602292 176.729635 
L 248.724273 176.729635 
L 248.724273 176.464257 
L 248.908749 176.464257 
L 248.908749 176.198879 
L 249.457487 176.198879 
L 249.457487 175.933501 
L 249.60746 175.933501 
L 249.60746 175.668123 
L 250.346357 175.668123 
L 250.419263 174.075856 
L 250.598253 174.075856 
L 250.598253 173.5451 
L 250.835269 173.5451 
L 250.835269 173.014344 
L 251.303796 173.014344 
L 251.303796 172.748966 
L 251.580515 172.748966 
L 251.580515 172.483588 
L 251.743895 172.483588 
L 251.819404 171.422077 
L 252.05642 171.422077 
L 252.0776 170.625943 
L 252.33613 170.625943 
L 252.33613 170.360565 
L 252.524947 170.360565 
L 252.524947 170.095187 
L 252.712983 170.095187 
L 252.735072 169.564432 
L 252.925933 169.564432 
L 252.925933 169.033676 
L 253.130811 169.033676 
L 253.225138 168.50292 
L 253.280784 168.50292 
L 253.337088 167.706786 
L 253.636292 167.706786 
L 253.636292 167.441408 
L 253.964503 167.441408 
L 254.019681 166.910653 
L 254.114475 166.910653 
L 254.201617 166.114519 
L 254.467869 166.114519 
L 254.467869 165.849141 
L 254.788419 165.849141 
L 254.853372 165.053007 
L 255.040039 165.053007 
L 255.040039 164.522252 
L 255.259818 164.522252 
L 255.339244 163.991496 
L 255.40979 163.991496 
L 255.515592 163.46074 
L 255.802732 163.46074 
L 255.802732 163.195362 
L 255.928909 163.195362 
L 256.029473 159.74545 
L 256.148688 159.74545 
L 256.148688 159.480072 
L 256.428415 159.480072 
L 256.428415 159.214694 
L 256.613151 159.214694 
L 256.613151 158.949316 
L 256.763124 158.949316 
L 256.763124 158.683938 
L 257.078074 158.683938 
L 257.078074 158.41856 
L 257.228046 158.41856 
L 257.228046 158.153182 
L 257.502021 158.153182 
L 257.502021 157.887804 
L 257.966944 157.887804 
L 257.966944 157.622427 
L 258.161211 157.622427 
L 258.161211 157.357049 
L 258.272672 157.357049 
L 258.347751 156.295537 
L 258.422644 156.295537 
L 258.422644 156.030159 
L 258.546652 156.030159 
L 258.571876 155.499403 
L 258.764055 155.499403 
L 258.764055 155.234026 
L 258.879484 155.234026 
L 258.914027 154.70327 
L 259.11284 154.70327 
L 259.161542 153.37638 
L 259.278426 153.37638 
L 259.278426 153.111002 
L 259.652925 153.111002 
L 259.652925 152.845625 
L 259.771461 152.845625 
L 259.771461 152.314869 
L 260.070666 152.314869 
L 260.070666 152.049491 
L 260.587249 152.049491 
L 260.587249 151.518735 
L 260.713955 151.518735 
L 260.72688 150.987979 
L 260.892904 150.987979 
L 260.892904 150.722601 
L 261.011223 150.722601 
L 261.011223 150.457224 
L 261.619511 150.457224 
L 261.619511 150.191846 
L 261.769483 150.191846 
L 261.769483 149.926468 
L 261.993056 149.926468 
L 261.993056 149.66109 
L 262.168969 149.66109 
L 262.168969 149.130334 
L 262.382989 149.130334 
L 262.468174 148.3342 
L 262.508381 148.3342 
L 262.508381 148.068823 
L 263.00209 148.068823 
L 263.00209 147.803445 
L 263.21668 147.803445 
L 263.21668 147.538067 
L 264.472514 147.538067 
L 264.472514 147.272689 
L 264.584783 147.272689 
L 264.622487 145.415044 
L 264.837572 145.415044 
L 264.837572 145.149666 
L 265.128686 145.149666 
L 265.128686 144.884288 
L 265.361384 144.884288 
L 265.361384 144.61891 
L 265.527628 144.61891 
L 265.53984 144.088154 
L 265.693666 144.088154 
L 265.797471 143.557399 
L 265.843638 143.557399 
L 265.938782 142.761265 
L 266.251603 142.761265 
L 266.251603 142.495887 
L 266.454526 142.495887 
L 266.454526 142.230509 
L 266.582536 142.230509 
L 266.582536 141.965131 
L 267.041329 141.965131 
L 267.041329 141.168998 
L 267.217682 141.168998 
L 267.260424 140.107486 
L 267.623218 140.107486 
L 267.671579 138.780597 
L 267.922423 138.780597 
L 267.922423 138.515219 
L 268.181818 138.515219 
L 268.219522 136.657573 
L 268.695475 136.657573 
L 268.695475 136.392196 
L 269.280826 136.392196 
L 269.37453 135.330684 
L 269.473512 135.330684 
L 269.473512 135.065306 
L 270.109505 135.065306 
L 270.109505 134.799928 
L 270.328707 134.799928 
L 270.328707 134.53455 
L 270.475424 134.53455 
L 270.475424 134.269172 
L 270.686633 134.269172 
L 270.686633 133.738417 
L 270.874366 133.738417 
L 270.874366 133.473039 
L 271.498083 133.473039 
L 271.498083 133.207661 
L 271.974214 133.207661 
L 271.974214 132.942283 
L 272.308658 132.942283 
L 272.373155 132.411527 
L 272.607163 132.411527 
L 272.607163 132.146149 
L 272.720001 132.146149 
L 272.720001 131.880771 
L 272.840158 131.880771 
L 272.840158 131.615394 
L 273.017493 131.615394 
L 273.017493 131.350016 
L 273.316064 131.350016 
L 273.316064 130.81926 
L 274.002032 130.81926 
L 274.105952 130.023126 
L 274.245965 130.023126 
L 274.245965 129.757748 
L 274.371722 129.757748 
L 274.371722 129.49237 
L 274.54968 129.49237 
L 274.54968 129.226993 
L 274.7004 129.226993 
L 274.770664 128.430859 
L 274.835723 128.430859 
L 274.835723 128.165481 
L 274.999605 128.165481 
L 275.007967 127.634725 
L 275.126679 127.634725 
L 275.126679 127.369347 
L 276.131038 127.369347 
L 276.131038 127.103969 
L 276.367495 127.103969 
L 276.367495 126.838592 
L 276.50346 126.838592 
L 276.50346 126.573214 
L 276.875396 126.573214 
L 276.875396 123.654057 
L 277.117152 123.654057 
L 277.117152 123.388679 
L 277.484371 123.388679 
L 277.514307 122.857923 
L 277.922059 122.857923 
L 277.949294 122.327167 
L 278.209575 122.327167 
L 278.209575 122.06179 
L 278.984581 122.06179 
L 278.984581 121.796412 
L 279.143892 121.796412 
L 279.143892 121.531034 
L 279.294238 121.531034 
L 279.364271 120.7349 
L 279.495701 120.7349 
L 279.495701 120.469522 
L 279.635275 120.469522 
L 279.635275 120.204144 
L 279.825971 120.204144 
L 279.825971 119.938766 
L 280.224913 119.938766 
L 280.224913 119.673389 
L 280.497541 119.673389 
L 280.497541 119.408011 
L 280.790477 119.408011 
L 280.790477 119.142633 
L 280.910633 119.142633 
L 280.910633 118.877255 
L 281.278718 118.877255 
L 281.278718 118.611877 
L 281.533736 118.611877 
L 281.624168 117.01961 
L 281.779962 117.01961 
L 281.779962 116.754232 
L 281.957709 116.754232 
L 281.957709 116.488854 
L 282.490731 116.488854 
L 282.490731 116.223476 
L 282.606726 116.223476 
L 282.606726 115.958098 
L 282.919483 115.958098 
L 282.939542 114.631209 
L 283.332172 114.631209 
L 283.332172 114.365831 
L 284.272816 114.365831 
L 284.272816 114.100453 
L 284.433246 114.100453 
L 284.433246 113.835075 
L 284.737739 113.835075 
L 284.737739 113.569697 
L 285.343734 113.569697 
L 285.343734 113.304319 
L 285.456003 113.304319 
L 285.5124 112.773563 
L 285.568973 112.773563 
L 285.655191 111.712052 
L 285.932337 111.712052 
L 285.932337 111.446674 
L 286.280051 111.446674 
L 286.280051 111.181296 
L 286.42372 111.181296 
L 286.42372 110.915918 
L 286.564886 110.915918 
L 286.564886 110.65054 
L 286.802589 110.65054 
L 286.903153 110.119785 
L 286.95331 110.119785 
L 286.95331 109.589029 
L 287.069222 109.589029 
L 287.113742 109.058273 
L 287.252514 109.058273 
L 287.302095 108.527517 
L 287.987815 108.527517 
L 287.987815 108.262139 
L 288.291149 108.262139 
L 288.291149 107.996761 
L 288.409057 107.996761 
L 288.492084 107.200628 
L 288.522402 107.200628 
L 288.522402 106.93525 
L 289.034891 106.93525 
L 289.034891 106.669872 
L 289.279176 106.669872 
L 289.279176 106.404494 
L 289.623092 106.404494 
L 289.623092 106.139116 
L 289.76239 106.139116 
L 289.76239 105.873738 
L 290.227313 105.873738 
L 290.227313 105.60836 
L 290.70263 105.60836 
L 290.70263 105.342983 
L 291.037123 105.342983 
L 291.037123 105.077605 
L 291.421911 105.077605 
L 291.43625 104.546849 
L 291.731076 104.546849 
L 291.731076 104.281471 
L 291.913294 104.281471 
L 291.913294 104.016093 
L 292.132179 104.016093 
L 292.132179 103.750715 
L 292.312236 103.750715 
L 292.349986 102.423826 
L 292.4257 102.423826 
L 292.4257 102.158448 
L 293.353331 102.158448 
L 293.403307 101.627692 
L 293.786645 101.627692 
L 293.835112 100.831559 
L 294.262551 100.831559 
L 294.262551 100.566181 
L 294.575708 100.566181 
L 294.575708 100.300803 
L 294.76875 100.300803 
L 294.813322 99.770047 
L 295.192451 99.770047 
L 295.192451 99.239291 
L 295.73696 99.239291 
L 295.73696 98.973913 
L 295.944298 98.973913 
L 295.944298 98.708535 
L 296.227353 98.708535 
L 296.227353 98.443158 
L 296.570619 98.443158 
L 296.570619 98.17778 
L 297.26121 98.17778 
L 297.26121 97.912402 
L 297.61593 97.912402 
L 297.621753 97.381646 
L 297.803013 97.381646 
L 297.821882 96.054757 
L 298.07907 96.054757 
L 298.07907 95.789379 
L 298.739678 95.789379 
L 298.842905 95.258623 
L 299.156062 95.258623 
L 299.156062 94.993245 
L 299.555004 94.993245 
L 299.555004 94.727867 
L 299.912198 94.727867 
L 299.912198 94.462489 
L 300.240724 94.462489 
L 300.263961 93.931733 
L 300.891942 93.931733 
L 300.891942 93.666356 
L 301.2878 93.666356 
L 301.2878 93.400978 
L 301.604236 93.400978 
L 301.604236 93.1356 
L 302.41572 93.1356 
L 302.480222 92.339466 
L 302.707579 92.339466 
L 302.719112 91.543332 
L 302.956128 91.543332 
L 302.993243 90.747199 
L 303.113973 90.747199 
L 303.113973 90.481821 
L 303.424655 90.481821 
L 303.424655 90.216443 
L 303.886029 90.216443 
L 303.886029 89.951065 
L 304.585284 89.951065 
L 304.585284 89.685687 
L 305.102428 89.685687 
L 305.102428 89.420309 
L 305.250866 89.420309 
L 305.250866 89.154931 
L 306.383621 89.154931 
L 306.383621 88.889554 
L 306.51546 88.889554 
L 306.51546 88.624176 
L 307.435296 88.624176 
L 307.435296 88.358798 
L 307.827502 88.358798 
L 307.897809 87.828042 
L 309.218766 87.828042 
L 309.309703 87.297286 
L 309.363174 87.297286 
L 309.363174 87.031908 
L 309.699391 87.031908 
L 309.774329 86.501153 
L 310.00773 86.501153 
L 310.074792 84.643507 
L 310.203659 84.643507 
L 310.203659 84.378129 
L 311.1738 84.378129 
L 311.1738 84.112752 
L 311.47728 84.112752 
L 311.57385 83.581996 
L 313.277604 83.581996 
L 313.277604 83.316618 
L 313.684497 83.316618 
L 313.684497 83.05124 
L 314.061562 83.05124 
L 314.118422 82.255106 
L 314.220926 82.255106 
L 314.220926 81.989728 
L 314.408996 81.989728 
L 314.408996 81.724351 
L 314.709913 81.724351 
L 314.709913 81.458973 
L 315.532453 81.458973 
L 315.532453 81.193595 
L 315.798603 81.193595 
L 315.798603 80.928217 
L 316.208702 80.928217 
L 316.208702 80.662839 
L 316.593374 80.662839 
L 316.593374 80.397461 
L 316.743346 80.397461 
L 316.743346 80.132083 
L 316.921031 80.132083 
L 316.921031 79.866705 
L 317.041076 79.866705 
L 317.041076 79.601327 
L 317.167783 79.601327 
L 317.167783 79.33595 
L 317.482243 79.33595 
L 317.482243 79.070572 
L 318.188827 79.070572 
L 318.188827 78.805194 
L 318.467833 78.805194 
L 318.467833 78.539816 
L 318.60621 78.539816 
L 318.60621 78.274438 
L 318.768369 78.274438 
L 318.768369 78.00906 
L 319.031236 78.00906 
L 319.031236 77.743682 
L 320.530025 77.743682 
L 320.530025 77.478304 
L 320.797278 77.478304 
L 320.797278 77.212926 
L 321.187211 77.212926 
L 321.187211 76.682171 
L 321.9523 76.682171 
L 321.9523 76.416793 
L 322.10302 76.416793 
L 322.10302 75.886037 
L 322.298343 75.886037 
L 322.402225 75.355281 
L 322.927533 75.355281 
L 322.927533 75.089903 
L 323.379057 75.089903 
L 323.426709 74.559148 
L 324.060459 74.559148 
L 324.060459 74.29377 
L 324.407529 74.29377 
L 324.407529 74.028392 
L 327.202909 74.028392 
L 327.202909 73.763014 
L 328.381782 73.763014 
L 328.381782 73.497636 
L 329.293986 73.497636 
L 329.293986 72.96688 
L 329.588811 72.96688 
L 329.588811 72.701502 
L 330.878951 72.701502 
L 330.878951 72.436124 
L 331.021278 72.436124 
L 331.021278 72.170747 
L 331.137641 72.170747 
L 331.137641 71.905369 
L 333.714097 71.905369 
L 333.714097 71.639991 
L 334.305773 71.639991 
L 334.305773 71.374613 
L 334.704714 71.374613 
L 334.704714 71.109235 
L 334.989179 71.109235 
L 334.989179 70.843857 
L 335.458964 70.843857 
L 335.458964 70.578479 
L 335.679618 70.578479 
L 335.679618 70.047723 
L 336.437511 70.047723 
L 336.437511 69.782346 
L 337.085425 69.782346 
L 337.085425 69.25159 
L 337.464594 69.25159 
L 337.53986 68.455456 
L 337.732546 68.455456 
L 337.839064 67.659322 
L 339.714856 67.659322 
L 339.714856 67.128567 
L 340.179409 67.128567 
L 340.179409 66.863189 
L 342.684157 66.863189 
L 342.684157 66.597811 
L 343.39055 66.597811 
L 343.39055 66.332433 
L 344.253039 66.332433 
L 344.253039 66.067055 
L 347.711873 66.067055 
L 347.711873 65.801677 
L 349.742613 65.801677 
L 349.792769 64.740166 
L 349.857134 64.740166 
L 349.857134 64.474788 
L 350.091974 64.474788 
L 350.141554 63.944032 
L 351.874351 63.944032 
L 351.874351 63.678654 
L 353.715037 63.678654 
L 353.715037 63.413276 
L 355.025518 63.413276 
L 355.025518 63.147898 
L 359.484509 63.147898 
L 359.484509 62.88252 
L 361.995522 62.88252 
L 361.995522 62.617143 
L 362.394463 62.617143 
L 362.394463 62.351765 
L 364.12726 62.351765 
L 364.12726 62.086387 
L 370.674753 62.086387 
L 370.674753 61.821009 
L 374.642654 61.821009 
L 374.642654 61.555631 
L 375.590281 61.555631 
L 375.590281 61.290253 
L 378.540261 61.290253 
L 378.540261 61.024875 
L 379.832884 61.024875 
L 379.832884 60.759497 
L 382.861584 60.759497 
L 382.861584 60.494119 
L 387.71487 60.494119 
L 387.71487 60.228742 
L 391.572773 60.228742 
L 391.572773 59.963364 
L 393.977101 59.963364 
L 393.977101 59.697986 
L 398.298424 59.697986 
L 398.298424 59.432608 
L 399.137984 59.432608 
L 399.137984 59.16723 
L 406.23001 59.16723 
L 406.23001 58.901852 
L 408.532489 58.901852 
L 408.532489 58.636474 
L 410.551333 58.636474 
L 410.551333 58.371096 
L 412.50039 58.371096 
L 412.50039 58.105718 
L 417.69062 58.105718 
L 417.69062 57.840341 
L 436.99572 57.840341 
L 436.99572 57.574963 
L 453.192 57.574963 
L 453.192 57.574963 
" clip-path="url(#p24fbbc79e7)" style="fill: none; stroke: #000000; stroke-width: 3; stroke-linecap: square"/>
   </g>
   <g id="line2d_18">
    <path clip-path="url(#p24fbbc79e7)" style="fill: none; stroke: #000000; stroke-width: 3; stroke-linecap: square"/>
   </g>
   <g id="line2d_19">
    <path d="M 34.16 245.147906 
L 224.660471 245.147906 
L 224.660471 244.00828 
L 227.143887 244.00828 
L 227.143887 242.868653 
L 239.504554 242.868653 
L 239.504554 241.729026 
L 239.87341 241.729026 
L 239.87341 240.589399 
L 241.850112 240.589399 
L 241.850112 239.449772 
L 242.356826 239.449772 
L 242.356826 238.310145 
L 254.717494 238.310145 
L 254.717494 237.170519 
L 257.063052 237.170519 
L 257.063052 236.030892 
L 259.584468 236.030892 
L 259.584468 234.891265 
L 261.311267 234.891265 
L 261.311267 233.751638 
L 262.944704 233.751638 
L 262.944704 232.612011 
L 263.446147 232.612011 
L 263.446147 231.472385 
L 265.172946 231.472385 
L 265.172946 230.332758 
L 266.806383 230.332758 
L 266.806383 229.193131 
L 283.384107 229.193131 
L 283.384107 228.053504 
L 283.549874 228.053504 
L 283.549874 226.913877 
L 285.110906 226.913877 
L 285.110906 225.77425 
L 285.276673 225.77425 
L 285.276673 224.634624 
L 286.744342 224.634624 
L 286.744342 223.494997 
L 286.91011 223.494997 
L 286.91011 222.35537 
L 289.643586 222.35537 
L 289.643586 221.215743 
L 291.370385 221.215743 
L 291.370385 220.076116 
L 293.003822 220.076116 
L 293.003822 218.93649 
L 293.91799 218.93649 
L 293.91799 217.796863 
L 294.742698 217.796863 
L 294.742698 216.657236 
L 295.554472 216.657236 
L 295.554472 215.517609 
L 295.644789 215.517609 
L 295.644789 214.377982 
L 296.204376 214.377982 
L 296.204376 213.238355 
L 297.278226 213.238355 
L 297.278226 212.098729 
L 297.281271 212.098729 
L 297.281271 210.959102 
L 297.931175 210.959102 
L 297.931175 209.819475 
L 298.914707 209.819475 
L 298.914707 208.679848 
L 299.564612 208.679848 
L 299.564612 207.540221 
L 299.966523 207.540221 
L 299.966523 206.400595 
L 301.693322 206.400595 
L 301.693322 205.260968 
L 303.326759 205.260968 
L 303.326759 204.121341 
L 309.955638 204.121341 
L 309.955638 202.981714 
L 453.192 202.981714 
" clip-path="url(#p24fbbc79e7)" style="fill: none; stroke: #00bfbf; stroke-width: 3; stroke-linecap: square"/>
   </g>
   <g id="line2d_20">
    <path clip-path="url(#p24fbbc79e7)" style="fill: none; stroke: #00bfbf; stroke-width: 3; stroke-linecap: square"/>
   </g>
   <g id="line2d_21">
    <path d="M 34.568519 288.453725 
L 34.16 288.453725 
L 453.192 288.453725 
L 461.8 288.453725 
" clip-path="url(#p24fbbc79e7)" style="fill: none; stroke: #bf00bf; stroke-width: 3; stroke-linecap: square"/>
   </g>
   <g id="line2d_22"/>
   <g id="line2d_23">
    <path d="M 243.676 291.28 
L 243.676 3 
" clip-path="url(#p24fbbc79e7)" style="fill: none; stroke: #000000; stroke-width: 1.5; stroke-linecap: square"/>
   </g>
   <g id="line2d_24">
    <path d="M 34.16 147.14 
L 453.192 147.14 
" clip-path="url(#p24fbbc79e7)" style="fill: none; stroke-dasharray: 2,3.3; stroke-dashoffset: 0; stroke: #000000; stroke-width: 2"/>
   </g>
   <g id="patch_3">
    <path d="M 34.16 291.28 
L 34.16 3 
" style="fill: none; stroke: #000000; stroke-width: 0.8; stroke-linejoin: miter; stroke-linecap: square"/>
   </g>
   <g id="patch_4">
    <path d="M 453.192 291.28 
L 453.192 3 
" style="fill: none; stroke: #000000; stroke-width: 0.8; stroke-linejoin: miter; stroke-linecap: square"/>
   </g>
   <g id="patch_5">
    <path d="M 34.16 291.28 
L 453.192 291.28 
" style="fill: none; stroke: #000000; stroke-width: 0.8; stroke-linejoin: miter; stroke-linecap: square"/>
   </g>
   <g id="patch_6">
    <path d="M 34.16 3 
L 453.192 3 
" style="fill: none; stroke: #000000; stroke-width: 0.8; stroke-linejoin: miter; stroke-linecap: square"/>
   </g>
   <g id="text_6">
    <!-- f20-f24,5-D -->
    <g transform="translate(330.91761 285.5144)scale(0.2 -0.2)">
     <defs>
      <path id="DejaVuSans-34" d="M 2419 4116 
L 825 1625 
L 2419 1625 
L 2419 4116 
z
M 2253 4666 
L 3047 4666 
L 3047 1625 
L 3713 1625 
L 3713 1100 
L 3047 1100 
L 3047 0 
L 2419 0 
L 2419 1100 
L 313 1100 
L 313 1709 
L 2253 4666 
z
" transform="scale(0.015625)"/>
      <path id="DejaVuSans-2c" d="M 750 794 
L 1409 794 
L 1409 256 
L 897 -744 
L 494 -744 
L 750 256 
L 750 794 
z
" transform="scale(0.015625)"/>
      <path id="DejaVuSans-35" d="M 691 4666 
L 3169 4666 
L 3169 4134 
L 1269 4134 
L 1269 2991 
Q 1406 3038 1543 3061 
Q 1681 3084 1819 3084 
Q 2600 3084 3056 2656 
Q 3513 2228 3513 1497 
Q 3513 744 3044 326 
Q 2575 -91 1722 -91 
Q 1428 -91 1123 -41 
Q 819 9 494 109 
L 494 744 
Q 775 591 1075 516 
Q 1375 441 1709 441 
Q 2250 441 2565 725 
Q 2881 1009 2881 1497 
Q 2881 1984 2565 2268 
Q 2250 2553 1709 2553 
Q 1456 2553 1204 2497 
Q 953 2441 691 2322 
L 691 4666 
z
" transform="scale(0.015625)"/>
      <path id="DejaVuSans-44" d="M 1259 4147 
L 1259 519 
L 2022 519 
Q 2988 519 3436 956 
Q 3884 1394 3884 2338 
Q 3884 3275 3436 3711 
Q 2988 4147 2022 4147 
L 1259 4147 
z
M 628 4666 
L 1925 4666 
Q 3281 4666 3915 4102 
Q 4550 3538 4550 2338 
Q 4550 1131 3912 565 
Q 3275 0 1925 0 
L 628 0 
L 628 4666 
z
" transform="scale(0.015625)"/>
     </defs>
     <use xlink:href="#DejaVuSans-66"/>
     <use xlink:href="#DejaVuSans-32" x="35.205078"/>
     <use xlink:href="#DejaVuSans-30" x="98.828125"/>
     <use xlink:href="#DejaVuSans-2d" x="162.451172"/>
     <use xlink:href="#DejaVuSans-66" x="198.535156"/>
     <use xlink:href="#DejaVuSans-32" x="233.740234"/>
     <use xlink:href="#DejaVuSans-34" x="297.363281"/>
     <use xlink:href="#DejaVuSans-2c" x="360.986328"/>
     <use xlink:href="#DejaVuSans-35" x="392.773438"/>
     <use xlink:href="#DejaVuSans-2d" x="456.396484"/>
     <use xlink:href="#DejaVuSans-44" x="492.480469"/>
    </g>
   </g>
   <g id="text_7">
    <!-- v2.6.3 -->
    <g style="fill: #808080" transform="translate(227.99475 286.317512)scale(0.1 -0.1)">
     <defs>
      <path id="DejaVuSans-2e" d="M 684 794 
L 1344 794 
L 1344 0 
L 684 0 
L 684 794 
z
" transform="scale(0.015625)"/>
      <path id="DejaVuSans-36" d="M 2113 2584 
Q 1688 2584 1439 2293 
Q 1191 2003 1191 1497 
Q 1191 994 1439 701 
Q 1688 409 2113 409 
Q 2538 409 2786 701 
Q 3034 994 3034 1497 
Q 3034 2003 2786 2293 
Q 2538 2584 2113 2584 
z
M 3366 4563 
L 3366 3988 
Q 3128 4100 2886 4159 
Q 2644 4219 2406 4219 
Q 1781 4219 1451 3797 
Q 1122 3375 1075 2522 
Q 1259 2794 1537 2939 
Q 1816 3084 2150 3084 
Q 2853 3084 3261 2657 
Q 3669 2231 3669 1497 
Q 3669 778 3244 343 
Q 2819 -91 2113 -91 
Q 1303 -91 875 529 
Q 447 1150 447 2328 
Q 447 3434 972 4092 
Q 1497 4750 2381 4750 
Q 2619 4750 2861 4703 
Q 3103 4656 3366 4563 
z
" transform="scale(0.015625)"/>
      <path id="DejaVuSans-33" d="M 2597 2516 
Q 3050 2419 3304 2112 
Q 3559 1806 3559 1356 
Q 3559 666 3084 287 
Q 2609 -91 1734 -91 
Q 1441 -91 1130 -33 
Q 819 25 488 141 
L 488 750 
Q 750 597 1062 519 
Q 1375 441 1716 441 
Q 2309 441 2620 675 
Q 2931 909 2931 1356 
Q 2931 1769 2642 2001 
Q 2353 2234 1838 2234 
L 1294 2234 
L 1294 2753 
L 1863 2753 
Q 2328 2753 2575 2939 
Q 2822 3125 2822 3475 
Q 2822 3834 2567 4026 
Q 2313 4219 1838 4219 
Q 1578 4219 1281 4162 
Q 984 4106 628 3988 
L 628 4550 
Q 988 4650 1302 4700 
Q 1616 4750 1894 4750 
Q 2613 4750 3031 4423 
Q 3450 4097 3450 3541 
Q 3450 3153 3228 2886 
Q 3006 2619 2597 2516 
z
" transform="scale(0.015625)"/>
     </defs>
     <use xlink:href="#DejaVuSans-76"/>
     <use xlink:href="#DejaVuSans-32" x="59.179688"/>
     <use xlink:href="#DejaVuSans-2e" x="122.802734"/>
     <use xlink:href="#DejaVuSans-36" x="154.589844"/>
     <use xlink:href="#DejaVuSans-2e" x="218.212891"/>
     <use xlink:href="#DejaVuSans-33" x="250"/>
    </g>
   </g>
   <g id="legend_1">
    <g id="patch_7">
     <path d="M 48.16 136.425 
L 177.381875 136.425 
Q 181.381875 136.425 181.381875 132.425 
L 181.381875 17 
Q 181.381875 13 177.381875 13 
L 48.16 13 
Q 44.16 13 44.16 17 
L 44.16 132.425 
Q 44.16 136.425 48.16 136.425 
z
" style="fill: #ffffff; opacity: 0.2; stroke: #cccccc; stroke-linejoin: miter"/>
    </g>
    <g id="line2d_25">
     <path d="M 52.16 29.196875 
L 72.16 29.196875 
L 92.16 29.196875 
" style="fill: none; stroke: #000000; stroke-width: 3; stroke-linecap: square"/>
    </g>
    <g id="text_8">
     <!-- 1: 4/5 -->
     <g transform="translate(108.16 36.196875)scale(0.2 -0.2)">
      <defs>
       <path id="DejaVuSans-3a" d="M 750 794 
L 1409 794 
L 1409 0 
L 750 0 
L 750 794 
z
M 750 3309 
L 1409 3309 
L 1409 2516 
L 750 2516 
L 750 3309 
z
" transform="scale(0.015625)"/>
       <path id="DejaVuSans-2f" d="M 1625 4666 
L 2156 4666 
L 531 -594 
L 0 -594 
L 1625 4666 
z
" transform="scale(0.015625)"/>
      </defs>
      <use xlink:href="#DejaVuSans-31"/>
      <use xlink:href="#DejaVuSans-3a" x="63.623047"/>
      <use xlink:href="#DejaVuSans-20" x="97.314453"/>
      <use xlink:href="#DejaVuSans-34" x="129.101562"/>
      <use xlink:href="#DejaVuSans-2f" x="192.724609"/>
      <use xlink:href="#DejaVuSans-35" x="226.416016"/>
     </g>
    </g>
    <g id="line2d_26">
     <path d="M 52.16 58.553125 
L 72.16 58.553125 
L 92.16 58.553125 
" style="fill: none; stroke: #00bfbf; stroke-width: 3; stroke-linecap: square"/>
    </g>
    <g id="text_9">
     <!-- -1: 2/2 -->
     <g transform="translate(108.16 65.553125)scale(0.2 -0.2)">
      <use xlink:href="#DejaVuSans-2d"/>
      <use xlink:href="#DejaVuSans-31" x="36.083984"/>
      <use xlink:href="#DejaVuSans-3a" x="99.707031"/>
      <use xlink:href="#DejaVuSans-20" x="133.398438"/>
      <use xlink:href="#DejaVuSans-32" x="165.185547"/>
      <use xlink:href="#DejaVuSans-2f" x="228.808594"/>
      <use xlink:href="#DejaVuSans-32" x="262.5"/>
     </g>
    </g>
    <g id="line2d_27">
     <path d="M 52.16 87.909375 
L 72.16 87.909375 
L 92.16 87.909375 
" style="fill: none; stroke: #bf00bf; stroke-width: 3; stroke-linecap: square"/>
    </g>
    <g id="text_10">
     <!-- -4: 0/2 -->
     <g transform="translate(108.16 94.909375)scale(0.2 -0.2)">
      <use xlink:href="#DejaVuSans-2d"/>
      <use xlink:href="#DejaVuSans-34" x="36.083984"/>
      <use xlink:href="#DejaVuSans-3a" x="99.707031"/>
      <use xlink:href="#DejaVuSans-20" x="133.398438"/>
      <use xlink:href="#DejaVuSans-30" x="165.185547"/>
      <use xlink:href="#DejaVuSans-2f" x="228.808594"/>
      <use xlink:href="#DejaVuSans-32" x="262.5"/>
     </g>
    </g>
    <g id="line2d_28">
     <path d="M 52.16 117.265625 
L 72.16 117.265625 
L 92.16 117.265625 
" style="fill: none; stroke: #ff0000; stroke-width: 3; stroke-linecap: square"/>
    </g>
    <g id="text_11">
     <!-- -8: 0/0 -->
     <g transform="translate(108.16 124.265625)scale(0.2 -0.2)">
      <defs>
       <path id="DejaVuSans-38" d="M 2034 2216 
Q 1584 2216 1326 1975 
Q 1069 1734 1069 1313 
Q 1069 891 1326 650 
Q 1584 409 2034 409 
Q 2484 409 2743 651 
Q 3003 894 3003 1313 
Q 3003 1734 2745 1975 
Q 2488 2216 2034 2216 
z
M 1403 2484 
Q 997 2584 770 2862 
Q 544 3141 544 3541 
Q 544 4100 942 4425 
Q 1341 4750 2034 4750 
Q 2731 4750 3128 4425 
Q 3525 4100 3525 3541 
Q 3525 3141 3298 2862 
Q 3072 2584 2669 2484 
Q 3125 2378 3379 2068 
Q 3634 1759 3634 1313 
Q 3634 634 3220 271 
Q 2806 -91 2034 -91 
Q 1263 -91 848 271 
Q 434 634 434 1313 
Q 434 1759 690 2068 
Q 947 2378 1403 2484 
z
M 1172 3481 
Q 1172 3119 1398 2916 
Q 1625 2713 2034 2713 
Q 2441 2713 2670 2916 
Q 2900 3119 2900 3481 
Q 2900 3844 2670 4047 
Q 2441 4250 2034 4250 
Q 1625 4250 1398 4047 
Q 1172 3844 1172 3481 
z
" transform="scale(0.015625)"/>
      </defs>
      <use xlink:href="#DejaVuSans-2d"/>
      <use xlink:href="#DejaVuSans-38" x="36.083984"/>
      <use xlink:href="#DejaVuSans-3a" x="99.707031"/>
      <use xlink:href="#DejaVuSans-20" x="133.398438"/>
      <use xlink:href="#DejaVuSans-30" x="165.185547"/>
      <use xlink:href="#DejaVuSans-2f" x="228.808594"/>
      <use xlink:href="#DejaVuSans-30" x="262.5"/>
     </g>
    </g>
   </g>
  </g>
 </g>
 <defs>
  <clipPath id="p24fbbc79e7">
   <rect x="34.16" y="3" width="419.032" height="288.28"/>
  </clipPath>
 </defs>
</svg>
