<?xml version="1.0" encoding="utf-8" standalone="no"?>
<!DOCTYPE svg PUBLIC "-//W3C//DTD SVG 1.1//EN"
  "http://www.w3.org/Graphics/SVG/1.1/DTD/svg11.dtd">
<svg xmlns:xlink="http://www.w3.org/1999/xlink" width="460.8pt" height="345.6pt" viewBox="0 0 460.8 345.6" xmlns="http://www.w3.org/2000/svg" version="1.1">
 <metadata>
  <rdf:RDF xmlns:dc="http://purl.org/dc/elements/1.1/" xmlns:cc="http://creativecommons.org/ns#" xmlns:rdf="http://www.w3.org/1999/02/22-rdf-syntax-ns#">
   <cc:Work>
    <dc:type rdf:resource="http://purl.org/dc/dcmitype/StillImage"/>
    <dc:date>2024-01-05T10:25:45.435110</dc:date>
    <dc:format>image/svg+xml</dc:format>
    <dc:creator>
     <cc:Agent>
      <dc:title>Matplotlib v3.5.1, https://matplotlib.org/</dc:title>
     </cc:Agent>
    </dc:creator>
   </cc:Work>
  </rdf:RDF>
 </metadata>
 <defs>
  <style type="text/css">*{stroke-linejoin: round; stroke-linecap: butt}</style>
 </defs>
 <g id="figure_1">
  <g id="patch_1">
   <path d="M 0 345.6 
L 460.8 345.6 
L 460.8 0 
L 0 0 
z
" style="fill: #ffffff"/>
  </g>
  <g id="axes_1">
   <g id="patch_2">
    <path d="M 34.16 291.28 
L 453.192 291.28 
L 453.192 3 
L 34.16 3 
z
" style="fill: #ffffff"/>
   </g>
   <g id="matplotlib.axis_1">
    <g id="xtick_1">
     <g id="line2d_1">
      <path d="M 114.246376 291.28 
L 114.246376 3 
" clip-path="url(#p0f356af10a)" style="fill: none; stroke: #b0b0b0; stroke-width: 0.8; stroke-linecap: square"/>
     </g>
     <g id="line2d_2">
      <defs>
       <path id="m0ed8694d2a" d="M 0 0 
L 0 3.5 
" style="stroke: #000000; stroke-width: 0.8"/>
      </defs>
      <g>
       <use xlink:href="#m0ed8694d2a" x="114.246376" y="291.28" style="stroke: #000000; stroke-width: 0.8"/>
      </g>
     </g>
     <g id="text_1">
      <!-- -2 -->
      <g transform="translate(104.276064 313.476875)scale(0.2 -0.2)">
       <defs>
        <path id="DejaVuSans-2d" d="M 313 2009 
L 1997 2009 
L 1997 1497 
L 313 1497 
L 313 2009 
z
" transform="scale(0.015625)"/>
        <path id="DejaVuSans-32" d="M 1228 531 
L 3431 531 
L 3431 0 
L 469 0 
L 469 531 
Q 828 903 1448 1529 
Q 2069 2156 2228 2338 
Q 2531 2678 2651 2914 
Q 2772 3150 2772 3378 
Q 2772 3750 2511 3984 
Q 2250 4219 1831 4219 
Q 1534 4219 1204 4116 
Q 875 4013 500 3803 
L 500 4441 
Q 881 4594 1212 4672 
Q 1544 4750 1819 4750 
Q 2544 4750 2975 4387 
Q 3406 4025 3406 3419 
Q 3406 3131 3298 2873 
Q 3191 2616 2906 2266 
Q 2828 2175 2409 1742 
Q 1991 1309 1228 531 
z
" transform="scale(0.015625)"/>
       </defs>
       <use xlink:href="#DejaVuSans-2d"/>
       <use xlink:href="#DejaVuSans-32" x="36.083984"/>
      </g>
     </g>
    </g>
    <g id="xtick_2">
     <g id="line2d_3">
      <path d="M 243.676 291.28 
L 243.676 3 
" clip-path="url(#p0f356af10a)" style="fill: none; stroke: #b0b0b0; stroke-width: 0.8; stroke-linecap: square"/>
     </g>
     <g id="line2d_4">
      <g>
       <use xlink:href="#m0ed8694d2a" x="243.676" y="291.28" style="stroke: #000000; stroke-width: 0.8"/>
      </g>
     </g>
     <g id="text_2">
      <!-- 0 -->
      <g transform="translate(237.3135 313.476875)scale(0.2 -0.2)">
       <defs>
        <path id="DejaVuSans-30" d="M 2034 4250 
Q 1547 4250 1301 3770 
Q 1056 3291 1056 2328 
Q 1056 1369 1301 889 
Q 1547 409 2034 409 
Q 2525 409 2770 889 
Q 3016 1369 3016 2328 
Q 3016 3291 2770 3770 
Q 2525 4250 2034 4250 
z
M 2034 4750 
Q 2819 4750 3233 4129 
Q 3647 3509 3647 2328 
Q 3647 1150 3233 529 
Q 2819 -91 2034 -91 
Q 1250 -91 836 529 
Q 422 1150 422 2328 
Q 422 3509 836 4129 
Q 1250 4750 2034 4750 
z
" transform="scale(0.015625)"/>
       </defs>
       <use xlink:href="#DejaVuSans-30"/>
      </g>
     </g>
    </g>
    <g id="xtick_3">
     <g id="line2d_5">
      <path d="M 373.105624 291.28 
L 373.105624 3 
" clip-path="url(#p0f356af10a)" style="fill: none; stroke: #b0b0b0; stroke-width: 0.8; stroke-linecap: square"/>
     </g>
     <g id="line2d_6">
      <g>
       <use xlink:href="#m0ed8694d2a" x="373.105624" y="291.28" style="stroke: #000000; stroke-width: 0.8"/>
      </g>
     </g>
     <g id="text_3">
      <!-- 2 -->
      <g transform="translate(366.743124 313.476875)scale(0.2 -0.2)">
       <use xlink:href="#DejaVuSans-32"/>
      </g>
     </g>
    </g>
    <g id="text_4">
     <!-- log10 of FEvals ratio -->
     <g transform="translate(141.371312 336.833125)scale(0.2 -0.2)">
      <defs>
       <path id="DejaVuSans-6c" d="M 603 4863 
L 1178 4863 
L 1178 0 
L 603 0 
L 603 4863 
z
" transform="scale(0.015625)"/>
       <path id="DejaVuSans-6f" d="M 1959 3097 
Q 1497 3097 1228 2736 
Q 959 2375 959 1747 
Q 959 1119 1226 758 
Q 1494 397 1959 397 
Q 2419 397 2687 759 
Q 2956 1122 2956 1747 
Q 2956 2369 2687 2733 
Q 2419 3097 1959 3097 
z
M 1959 3584 
Q 2709 3584 3137 3096 
Q 3566 2609 3566 1747 
Q 3566 888 3137 398 
Q 2709 -91 1959 -91 
Q 1206 -91 779 398 
Q 353 888 353 1747 
Q 353 2609 779 3096 
Q 1206 3584 1959 3584 
z
" transform="scale(0.015625)"/>
       <path id="DejaVuSans-67" d="M 2906 1791 
Q 2906 2416 2648 2759 
Q 2391 3103 1925 3103 
Q 1463 3103 1205 2759 
Q 947 2416 947 1791 
Q 947 1169 1205 825 
Q 1463 481 1925 481 
Q 2391 481 2648 825 
Q 2906 1169 2906 1791 
z
M 3481 434 
Q 3481 -459 3084 -895 
Q 2688 -1331 1869 -1331 
Q 1566 -1331 1297 -1286 
Q 1028 -1241 775 -1147 
L 775 -588 
Q 1028 -725 1275 -790 
Q 1522 -856 1778 -856 
Q 2344 -856 2625 -561 
Q 2906 -266 2906 331 
L 2906 616 
Q 2728 306 2450 153 
Q 2172 0 1784 0 
Q 1141 0 747 490 
Q 353 981 353 1791 
Q 353 2603 747 3093 
Q 1141 3584 1784 3584 
Q 2172 3584 2450 3431 
Q 2728 3278 2906 2969 
L 2906 3500 
L 3481 3500 
L 3481 434 
z
" transform="scale(0.015625)"/>
       <path id="DejaVuSans-31" d="M 794 531 
L 1825 531 
L 1825 4091 
L 703 3866 
L 703 4441 
L 1819 4666 
L 2450 4666 
L 2450 531 
L 3481 531 
L 3481 0 
L 794 0 
L 794 531 
z
" transform="scale(0.015625)"/>
       <path id="DejaVuSans-20" transform="scale(0.015625)"/>
       <path id="DejaVuSans-66" d="M 2375 4863 
L 2375 4384 
L 1825 4384 
Q 1516 4384 1395 4259 
Q 1275 4134 1275 3809 
L 1275 3500 
L 2222 3500 
L 2222 3053 
L 1275 3053 
L 1275 0 
L 697 0 
L 697 3053 
L 147 3053 
L 147 3500 
L 697 3500 
L 697 3744 
Q 697 4328 969 4595 
Q 1241 4863 1831 4863 
L 2375 4863 
z
" transform="scale(0.015625)"/>
       <path id="DejaVuSans-46" d="M 628 4666 
L 3309 4666 
L 3309 4134 
L 1259 4134 
L 1259 2759 
L 3109 2759 
L 3109 2228 
L 1259 2228 
L 1259 0 
L 628 0 
L 628 4666 
z
" transform="scale(0.015625)"/>
       <path id="DejaVuSans-45" d="M 628 4666 
L 3578 4666 
L 3578 4134 
L 1259 4134 
L 1259 2753 
L 3481 2753 
L 3481 2222 
L 1259 2222 
L 1259 531 
L 3634 531 
L 3634 0 
L 628 0 
L 628 4666 
z
" transform="scale(0.015625)"/>
       <path id="DejaVuSans-76" d="M 191 3500 
L 800 3500 
L 1894 563 
L 2988 3500 
L 3597 3500 
L 2284 0 
L 1503 0 
L 191 3500 
z
" transform="scale(0.015625)"/>
       <path id="DejaVuSans-61" d="M 2194 1759 
Q 1497 1759 1228 1600 
Q 959 1441 959 1056 
Q 959 750 1161 570 
Q 1363 391 1709 391 
Q 2188 391 2477 730 
Q 2766 1069 2766 1631 
L 2766 1759 
L 2194 1759 
z
M 3341 1997 
L 3341 0 
L 2766 0 
L 2766 531 
Q 2569 213 2275 61 
Q 1981 -91 1556 -91 
Q 1019 -91 701 211 
Q 384 513 384 1019 
Q 384 1609 779 1909 
Q 1175 2209 1959 2209 
L 2766 2209 
L 2766 2266 
Q 2766 2663 2505 2880 
Q 2244 3097 1772 3097 
Q 1472 3097 1187 3025 
Q 903 2953 641 2809 
L 641 3341 
Q 956 3463 1253 3523 
Q 1550 3584 1831 3584 
Q 2591 3584 2966 3190 
Q 3341 2797 3341 1997 
z
" transform="scale(0.015625)"/>
       <path id="DejaVuSans-73" d="M 2834 3397 
L 2834 2853 
Q 2591 2978 2328 3040 
Q 2066 3103 1784 3103 
Q 1356 3103 1142 2972 
Q 928 2841 928 2578 
Q 928 2378 1081 2264 
Q 1234 2150 1697 2047 
L 1894 2003 
Q 2506 1872 2764 1633 
Q 3022 1394 3022 966 
Q 3022 478 2636 193 
Q 2250 -91 1575 -91 
Q 1294 -91 989 -36 
Q 684 19 347 128 
L 347 722 
Q 666 556 975 473 
Q 1284 391 1588 391 
Q 1994 391 2212 530 
Q 2431 669 2431 922 
Q 2431 1156 2273 1281 
Q 2116 1406 1581 1522 
L 1381 1569 
Q 847 1681 609 1914 
Q 372 2147 372 2553 
Q 372 3047 722 3315 
Q 1072 3584 1716 3584 
Q 2034 3584 2315 3537 
Q 2597 3491 2834 3397 
z
" transform="scale(0.015625)"/>
       <path id="DejaVuSans-72" d="M 2631 2963 
Q 2534 3019 2420 3045 
Q 2306 3072 2169 3072 
Q 1681 3072 1420 2755 
Q 1159 2438 1159 1844 
L 1159 0 
L 581 0 
L 581 3500 
L 1159 3500 
L 1159 2956 
Q 1341 3275 1631 3429 
Q 1922 3584 2338 3584 
Q 2397 3584 2469 3576 
Q 2541 3569 2628 3553 
L 2631 2963 
z
" transform="scale(0.015625)"/>
       <path id="DejaVuSans-74" d="M 1172 4494 
L 1172 3500 
L 2356 3500 
L 2356 3053 
L 1172 3053 
L 1172 1153 
Q 1172 725 1289 603 
Q 1406 481 1766 481 
L 2356 481 
L 2356 0 
L 1766 0 
Q 1100 0 847 248 
Q 594 497 594 1153 
L 594 3053 
L 172 3053 
L 172 3500 
L 594 3500 
L 594 4494 
L 1172 4494 
z
" transform="scale(0.015625)"/>
       <path id="DejaVuSans-69" d="M 603 3500 
L 1178 3500 
L 1178 0 
L 603 0 
L 603 3500 
z
M 603 4863 
L 1178 4863 
L 1178 4134 
L 603 4134 
L 603 4863 
z
" transform="scale(0.015625)"/>
      </defs>
      <use xlink:href="#DejaVuSans-6c"/>
      <use xlink:href="#DejaVuSans-6f" x="27.783203"/>
      <use xlink:href="#DejaVuSans-67" x="88.964844"/>
      <use xlink:href="#DejaVuSans-31" x="152.441406"/>
      <use xlink:href="#DejaVuSans-30" x="216.064453"/>
      <use xlink:href="#DejaVuSans-20" x="279.6875"/>
      <use xlink:href="#DejaVuSans-6f" x="311.474609"/>
      <use xlink:href="#DejaVuSans-66" x="372.65625"/>
      <use xlink:href="#DejaVuSans-20" x="407.861328"/>
      <use xlink:href="#DejaVuSans-46" x="439.648438"/>
      <use xlink:href="#DejaVuSans-45" x="497.167969"/>
      <use xlink:href="#DejaVuSans-76" x="560.351562"/>
      <use xlink:href="#DejaVuSans-61" x="619.53125"/>
      <use xlink:href="#DejaVuSans-6c" x="680.810547"/>
      <use xlink:href="#DejaVuSans-73" x="708.59375"/>
      <use xlink:href="#DejaVuSans-20" x="760.693359"/>
      <use xlink:href="#DejaVuSans-72" x="792.480469"/>
      <use xlink:href="#DejaVuSans-61" x="833.59375"/>
      <use xlink:href="#DejaVuSans-74" x="894.873047"/>
      <use xlink:href="#DejaVuSans-69" x="934.082031"/>
      <use xlink:href="#DejaVuSans-6f" x="961.865234"/>
     </g>
    </g>
   </g>
   <g id="matplotlib.axis_2">
    <g id="ytick_1">
     <g id="line2d_7">
      <path d="M 34.16 288.453725 
L 453.192 288.453725 
" clip-path="url(#p0f356af10a)" style="fill: none; stroke: #b0b0b0; stroke-width: 0.8; stroke-linecap: square"/>
     </g>
     <g id="line2d_8">
      <defs>
       <path id="m306e5e79ea" d="M 0 0 
L -3.5 0 
" style="stroke: #000000; stroke-width: 0.8"/>
      </defs>
      <g>
       <use xlink:href="#m306e5e79ea" x="34.16" y="288.453725" style="stroke: #000000; stroke-width: 0.8"/>
      </g>
     </g>
    </g>
    <g id="ytick_2">
     <g id="line2d_9">
      <path d="M 34.16 217.796863 
L 453.192 217.796863 
" clip-path="url(#p0f356af10a)" style="fill: none; stroke: #b0b0b0; stroke-width: 0.8; stroke-linecap: square"/>
     </g>
     <g id="line2d_10">
      <g>
       <use xlink:href="#m306e5e79ea" x="34.16" y="217.796863" style="stroke: #000000; stroke-width: 0.8"/>
      </g>
     </g>
    </g>
    <g id="ytick_3">
     <g id="line2d_11">
      <path d="M 34.16 147.14 
L 453.192 147.14 
" clip-path="url(#p0f356af10a)" style="fill: none; stroke: #b0b0b0; stroke-width: 0.8; stroke-linecap: square"/>
     </g>
     <g id="line2d_12">
      <g>
       <use xlink:href="#m306e5e79ea" x="34.16" y="147.14" style="stroke: #000000; stroke-width: 0.8"/>
      </g>
     </g>
    </g>
    <g id="ytick_4">
     <g id="line2d_13">
      <path d="M 34.16 76.483137 
L 453.192 76.483137 
" clip-path="url(#p0f356af10a)" style="fill: none; stroke: #b0b0b0; stroke-width: 0.8; stroke-linecap: square"/>
     </g>
     <g id="line2d_14">
      <g>
       <use xlink:href="#m306e5e79ea" x="34.16" y="76.483137" style="stroke: #000000; stroke-width: 0.8"/>
      </g>
     </g>
    </g>
    <g id="ytick_5">
     <g id="line2d_15">
      <path d="M 34.16 5.826275 
L 453.192 5.826275 
" clip-path="url(#p0f356af10a)" style="fill: none; stroke: #b0b0b0; stroke-width: 0.8; stroke-linecap: square"/>
     </g>
     <g id="line2d_16">
      <g>
       <use xlink:href="#m306e5e79ea" x="34.16" y="5.826275" style="stroke: #000000; stroke-width: 0.8"/>
      </g>
     </g>
    </g>
    <g id="text_5">
     <!-- proportion of trials -->
     <g transform="translate(19.000625 240.14625)rotate(-90)scale(0.2 -0.2)">
      <defs>
       <path id="DejaVuSans-70" d="M 1159 525 
L 1159 -1331 
L 581 -1331 
L 581 3500 
L 1159 3500 
L 1159 2969 
Q 1341 3281 1617 3432 
Q 1894 3584 2278 3584 
Q 2916 3584 3314 3078 
Q 3713 2572 3713 1747 
Q 3713 922 3314 415 
Q 2916 -91 2278 -91 
Q 1894 -91 1617 61 
Q 1341 213 1159 525 
z
M 3116 1747 
Q 3116 2381 2855 2742 
Q 2594 3103 2138 3103 
Q 1681 3103 1420 2742 
Q 1159 2381 1159 1747 
Q 1159 1113 1420 752 
Q 1681 391 2138 391 
Q 2594 391 2855 752 
Q 3116 1113 3116 1747 
z
" transform="scale(0.015625)"/>
       <path id="DejaVuSans-6e" d="M 3513 2113 
L 3513 0 
L 2938 0 
L 2938 2094 
Q 2938 2591 2744 2837 
Q 2550 3084 2163 3084 
Q 1697 3084 1428 2787 
Q 1159 2491 1159 1978 
L 1159 0 
L 581 0 
L 581 3500 
L 1159 3500 
L 1159 2956 
Q 1366 3272 1645 3428 
Q 1925 3584 2291 3584 
Q 2894 3584 3203 3211 
Q 3513 2838 3513 2113 
z
" transform="scale(0.015625)"/>
      </defs>
      <use xlink:href="#DejaVuSans-70"/>
      <use xlink:href="#DejaVuSans-72" x="63.476562"/>
      <use xlink:href="#DejaVuSans-6f" x="102.339844"/>
      <use xlink:href="#DejaVuSans-70" x="163.521484"/>
      <use xlink:href="#DejaVuSans-6f" x="226.998047"/>
      <use xlink:href="#DejaVuSans-72" x="288.179688"/>
      <use xlink:href="#DejaVuSans-74" x="329.292969"/>
      <use xlink:href="#DejaVuSans-69" x="368.501953"/>
      <use xlink:href="#DejaVuSans-6f" x="396.285156"/>
      <use xlink:href="#DejaVuSans-6e" x="457.466797"/>
      <use xlink:href="#DejaVuSans-20" x="520.845703"/>
      <use xlink:href="#DejaVuSans-6f" x="552.632812"/>
      <use xlink:href="#DejaVuSans-66" x="613.814453"/>
      <use xlink:href="#DejaVuSans-20" x="649.019531"/>
      <use xlink:href="#DejaVuSans-74" x="680.806641"/>
      <use xlink:href="#DejaVuSans-72" x="720.015625"/>
      <use xlink:href="#DejaVuSans-69" x="761.128906"/>
      <use xlink:href="#DejaVuSans-61" x="788.912109"/>
      <use xlink:href="#DejaVuSans-6c" x="850.191406"/>
      <use xlink:href="#DejaVuSans-73" x="877.974609"/>
     </g>
    </g>
   </g>
   <g id="line2d_17">
    <path d="M 34.16 235.642436 
L 48.643562 235.642436 
L 48.643562 235.526367 
L 75.498485 235.526367 
L 75.498485 235.410298 
L 86.113001 235.410298 
L 86.113001 235.29423 
L 92.550266 235.29423 
L 92.550266 235.178161 
L 96.015245 235.178161 
L 96.015245 235.062092 
L 99.923041 235.062092 
L 99.923041 234.946023 
L 106.850943 234.946023 
L 106.850943 234.829955 
L 112.967923 234.829955 
L 112.967923 234.713886 
L 114.190222 234.713886 
L 114.190222 234.597817 
L 117.114035 234.597817 
L 117.114035 234.481748 
L 119.404141 234.481748 
L 119.405188 234.249611 
L 122.61355 234.249611 
L 122.61355 234.133542 
L 122.870167 234.133542 
L 122.870167 234.017473 
L 125.126348 234.017473 
L 125.126348 233.901404 
L 129.24668 233.901404 
L 129.24668 233.785336 
L 130.648342 233.785336 
L 130.648342 233.669267 
L 133.533467 233.669267 
L 133.533467 233.553198 
L 133.705865 233.553198 
L 133.705865 233.437129 
L 137.39248 233.437129 
L 137.39248 233.321061 
L 137.728481 233.321061 
L 137.728481 233.204992 
L 141.045144 233.204992 
L 141.045144 233.088923 
L 141.993369 233.088923 
L 141.993369 232.972854 
L 143.829745 232.972854 
L 143.829745 232.856785 
L 143.968957 232.856785 
L 143.968957 232.740717 
L 144.141346 232.740717 
L 144.141346 232.624648 
L 144.328715 232.624648 
L 144.328715 232.508579 
L 144.791745 232.508579 
L 144.791745 232.39251 
L 147.294724 232.39251 
L 147.294724 232.276442 
L 148.48722 232.276442 
L 148.48722 232.160373 
L 156.873579 232.160373 
L 156.873579 232.044304 
L 158.130422 232.044304 
L 158.130422 231.928235 
L 160.082988 231.928235 
L 160.082988 231.812167 
L 162.107206 231.812167 
L 162.107206 231.696098 
L 162.595786 231.696098 
L 162.595786 231.580029 
L 163.137466 231.580029 
L 163.137466 231.46396 
L 163.310845 231.46396 
L 163.310845 231.347891 
L 165.469701 231.347891 
L 165.469701 231.231823 
L 166.520254 231.231823 
L 166.524082 230.999685 
L 166.716119 230.999685 
L 166.775824 230.767548 
L 167.122282 230.767548 
L 167.12839 230.53541 
L 167.745977 230.53541 
L 167.745977 230.419341 
L 168.117781 230.419341 
L 168.117781 230.303273 
L 168.393514 230.303273 
L 168.393514 230.187204 
L 169.033052 230.187204 
L 169.033052 230.071135 
L 169.908939 230.071135 
L 169.985233 229.838997 
L 170.361701 229.838997 
L 170.361701 229.60686 
L 171.002905 229.60686 
L 171.002905 229.490791 
L 171.759703 229.490791 
L 171.804396 229.142585 
L 172.24355 229.142585 
L 172.24355 228.794379 
L 172.465727 228.794379 
L 172.498031 228.446172 
L 173.06523 228.446172 
L 173.153384 228.214035 
L 174.095491 228.214035 
L 174.095491 228.097966 
L 174.555046 228.097966 
L 174.555046 227.981897 
L 174.931492 227.981897 
L 175.012695 227.74976 
L 175.197919 227.74976 
L 175.197919 227.633691 
L 176.042956 227.633691 
L 176.042956 227.517622 
L 176.618363 227.517622 
L 176.618363 227.401553 
L 177.44017 227.401553 
L 177.487558 227.053347 
L 177.611521 227.053347 
L 177.632008 226.821209 
L 178.020025 226.821209 
L 178.086414 226.473003 
L 178.217303 226.473003 
L 178.297662 226.008728 
L 178.517819 226.008728 
L 178.517819 225.892659 
L 178.704002 225.892659 
L 178.704002 225.776591 
L 178.961188 225.776591 
L 178.961188 225.544453 
L 179.129204 225.544453 
L 179.138568 225.312315 
L 179.344413 225.312315 
L 179.429571 225.080178 
L 179.462807 225.080178 
L 179.462807 224.964109 
L 180.027771 224.964109 
L 180.091058 224.499834 
L 180.651467 224.499834 
L 180.651467 224.383765 
L 180.82093 224.383765 
L 180.905149 224.151628 
L 180.996934 224.151628 
L 181.076964 223.91949 
L 181.319725 223.91949 
L 181.319725 223.687353 
L 181.489797 223.687353 
L 181.489797 223.571284 
L 181.610784 223.571284 
L 181.635185 223.339146 
L 181.798153 223.339146 
L 181.904434 222.99094 
L 182.098715 222.99094 
L 182.098715 222.874871 
L 182.261183 222.874871 
L 182.261183 222.758803 
L 182.502634 222.758803 
L 182.508742 222.526665 
L 182.717727 222.526665 
L 182.717727 222.410596 
L 182.962298 222.410596 
L 183.014278 222.06239 
L 183.12633 222.06239 
L 183.12633 221.946321 
L 183.267191 221.946321 
L 183.333728 221.598115 
L 184.272083 221.598115 
L 184.272083 221.482046 
L 184.665193 221.482046 
L 184.665193 221.365977 
L 184.790368 221.365977 
L 184.799147 221.13384 
L 184.950801 221.13384 
L 184.950801 221.017771 
L 185.100164 221.017771 
L 185.153991 220.785634 
L 185.349531 220.785634 
L 185.349531 220.669565 
L 185.742054 220.669565 
L 185.842619 220.20529 
L 185.900073 220.20529 
L 185.956658 219.973152 
L 186.593711 219.973152 
L 186.625882 219.741015 
L 186.80439 219.741015 
L 186.80439 219.624946 
L 187.140056 219.624946 
L 187.140056 219.508877 
L 187.454061 219.508877 
L 187.555238 219.160671 
L 187.572654 219.160671 
L 187.665593 218.696396 
L 187.874614 218.696396 
L 187.874614 218.580327 
L 188.048049 218.580327 
L 188.048049 218.464258 
L 188.16021 218.464258 
L 188.245885 218.116052 
L 188.331246 218.116052 
L 188.390743 217.883914 
L 188.650103 217.883914 
L 188.698449 217.535708 
L 188.855723 217.535708 
L 188.907482 217.30357 
L 189.14319 217.30357 
L 189.250054 216.839295 
L 189.292636 216.839295 
L 189.396282 216.142883 
L 189.520602 216.142883 
L 189.572582 215.794676 
L 189.778842 215.794676 
L 189.778842 215.678608 
L 189.907569 215.678608 
L 189.985608 215.214333 
L 190.087229 215.214333 
L 190.191005 214.866126 
L 190.337525 214.866126 
L 190.444496 214.51792 
L 190.453445 214.51792 
L 190.453445 214.401851 
L 190.589254 214.401851 
L 190.673007 214.053645 
L 190.789205 214.053645 
L 190.861351 213.705439 
L 190.946533 213.705439 
L 191.049082 213.473301 
L 191.084023 213.473301 
L 191.173029 213.125095 
L 191.412901 213.125095 
L 191.513028 212.66082 
L 191.619515 212.66082 
L 191.729796 212.080476 
L 191.740847 212.080476 
L 191.740847 211.964407 
L 191.908061 211.964407 
L 191.908061 211.848338 
L 192.034694 211.848338 
L 192.044058 211.500132 
L 192.163428 211.500132 
L 192.250478 211.035857 
L 192.302889 211.035857 
L 192.393923 210.571582 
L 192.691324 210.571582 
L 192.743565 210.107307 
L 192.996547 210.107307 
L 193.056739 209.875169 
L 193.318088 209.875169 
L 193.380337 209.062688 
L 193.432316 209.062688 
L 193.526829 208.714482 
L 193.596821 208.714482 
L 193.682543 208.366275 
L 193.727612 208.366275 
L 193.727612 208.250207 
L 193.873425 208.250207 
L 193.982453 207.669863 
L 194.011396 207.669863 
L 194.077248 207.205588 
L 194.325812 207.205588 
L 194.404788 206.857381 
L 194.494581 206.857381 
L 194.518921 206.393106 
L 194.609936 206.393106 
L 194.708668 205.928831 
L 194.79334 205.928831 
L 194.79334 205.812762 
L 194.949508 205.812762 
L 195.006131 205.348487 
L 195.426627 205.348487 
L 195.471411 205.000281 
L 195.57203 205.000281 
L 195.676302 204.536006 
L 195.808429 204.536006 
L 195.858902 204.303868 
L 195.935861 204.303868 
L 196.010324 204.071731 
L 196.065118 204.071731 
L 196.142584 203.723525 
L 196.195002 203.723525 
L 196.297229 203.375318 
L 196.341956 203.375318 
L 196.341956 203.25925 
L 196.457316 203.25925 
L 196.457316 203.143181 
L 196.657657 203.143181 
L 196.763862 202.794974 
L 196.848381 202.794974 
L 196.938288 202.446768 
L 196.983115 202.446768 
L 196.991894 201.982493 
L 197.213299 201.982493 
L 197.222077 201.750356 
L 197.324572 201.750356 
L 197.427088 201.28608 
L 197.441259 201.28608 
L 197.534475 200.705737 
L 197.565231 200.705737 
L 197.565231 200.473599 
L 197.717153 200.473599 
L 197.717153 200.35753 
L 197.936983 200.35753 
L 197.936983 200.241462 
L 198.430071 200.241462 
L 198.461 199.312911 
L 198.659318 199.312911 
L 198.660714 198.964705 
L 198.786457 198.964705 
L 198.84375 198.616499 
L 198.961912 198.616499 
L 199.016641 198.152224 
L 199.080126 198.152224 
L 199.129981 197.455811 
L 199.198277 197.455811 
L 199.287677 196.991536 
L 199.320649 196.991536 
L 199.422527 196.411192 
L 199.618781 196.411192 
L 199.662962 196.179055 
L 199.747985 196.179055 
L 199.855792 195.946917 
L 199.917052 195.946917 
L 199.978169 195.482642 
L 200.114689 195.482642 
L 200.201941 195.018367 
L 200.241752 195.018367 
L 200.258032 194.786229 
L 200.373119 194.786229 
L 200.373119 194.670161 
L 200.58349 194.670161 
L 200.58349 194.554092 
L 200.709714 194.554092 
L 200.820525 193.857679 
L 200.963092 193.857679 
L 201.000082 193.625542 
L 201.115898 193.625542 
L 201.115898 193.509473 
L 201.27939 193.509473 
L 201.387891 193.277335 
L 201.396888 193.277335 
L 201.494934 192.696992 
L 201.567093 192.696992 
L 201.676548 192.348785 
L 201.713349 192.348785 
L 201.772478 191.88451 
L 201.867277 191.88451 
L 201.943533 191.420235 
L 201.983734 191.420235 
L 202.054403 190.491685 
L 202.146159 190.491685 
L 202.237888 190.143479 
L 202.261169 190.143479 
L 202.348726 189.795272 
L 202.536095 189.795272 
L 202.600373 189.09886 
L 202.67749 189.09886 
L 202.67749 188.982791 
L 202.796128 188.982791 
L 202.829325 188.518516 
L 202.998309 188.518516 
L 202.999125 188.286378 
L 203.217623 188.286378 
L 203.279498 187.822103 
L 203.484336 187.822103 
L 203.583202 187.357828 
L 203.663963 187.357828 
L 203.757981 186.893553 
L 203.905042 186.893553 
L 203.905042 186.777484 
L 204.135226 186.777484 
L 204.135226 186.661416 
L 204.342205 186.661416 
L 204.342205 186.545347 
L 204.531087 186.545347 
L 204.549419 186.313209 
L 204.705995 186.313209 
L 204.743887 185.732865 
L 204.822827 185.732865 
L 204.837341 185.500728 
L 205.020966 185.500728 
L 205.020966 185.384659 
L 205.315915 185.384659 
L 205.420833 184.920384 
L 205.472065 184.920384 
L 205.532774 184.456109 
L 205.765638 184.456109 
L 205.765638 184.34004 
L 205.944537 184.34004 
L 205.982493 184.107903 
L 206.090807 184.107903 
L 206.198954 183.41149 
L 206.269995 183.41149 
L 206.342098 183.063284 
L 206.428362 183.063284 
L 206.500179 182.831146 
L 206.692436 182.831146 
L 206.783242 182.250802 
L 206.817998 182.250802 
L 206.92145 181.902596 
L 207.113886 181.902596 
L 207.113886 181.786527 
L 207.294348 181.786527 
L 207.294588 181.55439 
L 207.411268 181.55439 
L 207.482698 181.322252 
L 207.540029 181.322252 
L 207.620617 180.857977 
L 207.663757 180.857977 
L 207.704714 180.62584 
L 207.843811 180.62584 
L 207.951864 180.045496 
L 207.999837 180.045496 
L 208.106065 179.233014 
L 208.216136 179.233014 
L 208.289418 178.884808 
L 208.380778 178.884808 
L 208.380778 178.768739 
L 208.496184 178.768739 
L 208.573107 178.536602 
L 208.869578 178.536602 
L 208.869578 178.420533 
L 209.02324 178.420533 
L 209.033376 178.188396 
L 209.159616 178.188396 
L 209.195477 177.956258 
L 209.286944 177.956258 
L 209.370394 177.259845 
L 209.559012 177.259845 
L 209.653333 176.79557 
L 209.681309 176.79557 
L 209.78876 176.447364 
L 209.809909 176.447364 
L 209.888075 175.518814 
L 209.986314 175.518814 
L 210.089231 174.822401 
L 210.110445 174.822401 
L 210.13955 174.590264 
L 210.225738 174.590264 
L 210.27876 174.358126 
L 210.338404 174.358126 
L 210.338404 174.242057 
L 210.463842 174.242057 
L 210.475114 174.00992 
L 210.580764 174.00992 
L 210.689659 173.545645 
L 210.768396 173.545645 
L 210.804184 173.08137 
L 210.905723 173.08137 
L 210.936275 172.849232 
L 211.27287 172.849232 
L 211.276899 172.617095 
L 211.450366 172.617095 
L 211.450366 172.501026 
L 211.563238 172.501026 
L 211.632627 171.804613 
L 211.772917 171.804613 
L 211.881632 171.572476 
L 212.011438 171.572476 
L 212.098907 171.340338 
L 212.186111 171.340338 
L 212.271473 170.992132 
L 212.37472 170.992132 
L 212.430433 170.643926 
L 212.504503 170.643926 
L 212.611819 170.295719 
L 212.632205 170.295719 
L 212.736801 169.715375 
L 212.760957 169.715375 
L 212.840409 167.510069 
L 212.88827 167.510069 
L 212.896094 167.277931 
L 213.018191 167.277931 
L 213.105313 166.813656 
L 213.155839 166.813656 
L 213.262218 166.117244 
L 213.275388 166.117244 
L 213.386023 165.652969 
L 213.488843 165.652969 
L 213.488843 165.5369 
L 213.612353 165.5369 
L 213.641887 165.072625 
L 213.797759 165.072625 
L 213.89396 164.60835 
L 213.926355 164.60835 
L 214.033879 164.376212 
L 214.134078 164.376212 
L 214.216661 163.795868 
L 214.287398 163.795868 
L 214.384722 163.447662 
L 214.417348 163.447662 
L 214.436728 163.099456 
L 214.591488 163.099456 
L 214.677937 162.635181 
L 214.711616 162.635181 
L 214.771918 162.170906 
L 214.834249 162.170906 
L 214.928494 161.126287 
L 214.991558 161.126287 
L 215.094243 160.662012 
L 215.216553 160.662012 
L 215.27387 160.429874 
L 215.397426 160.429874 
L 215.439583 160.197736 
L 215.57877 160.197736 
L 215.626449 159.965599 
L 215.84691 159.965599 
L 215.928383 159.733461 
L 216.087794 159.733461 
L 216.146944 159.269186 
L 216.25761 159.269186 
L 216.337701 158.92098 
L 216.679628 158.92098 
L 216.679628 158.804911 
L 216.900616 158.804911 
L 216.957692 158.224567 
L 217.095945 158.224567 
L 217.17129 157.412086 
L 217.225995 157.412086 
L 217.31297 156.715673 
L 217.371469 156.715673 
L 217.449973 156.251398 
L 217.507884 156.251398 
L 217.507884 156.13533 
L 217.648786 156.13533 
L 217.701147 155.554986 
L 217.798253 155.554986 
L 217.901524 155.322848 
L 217.909489 155.322848 
L 217.923387 154.278229 
L 218.024507 154.278229 
L 218.024507 154.16216 
L 218.137897 154.16216 
L 218.17722 153.697885 
L 218.258136 153.697885 
L 218.320494 153.117542 
L 218.52009 153.117542 
L 218.563182 152.653266 
L 218.665448 152.653266 
L 218.665448 152.537198 
L 218.78573 152.537198 
L 218.847975 152.30506 
L 218.899776 152.30506 
L 218.963039 151.956854 
L 219.068522 151.956854 
L 219.113424 151.608648 
L 219.190144 151.608648 
L 219.191867 151.37651 
L 219.390347 151.37651 
L 219.496345 151.028304 
L 219.55866 151.028304 
L 219.590645 150.796166 
L 219.682598 150.796166 
L 219.772931 150.331891 
L 219.812339 150.331891 
L 219.913868 149.751547 
L 220.021499 149.751547 
L 220.085656 149.171203 
L 220.214644 149.171203 
L 220.311604 148.706928 
L 220.381373 148.706928 
L 220.479278 148.358722 
L 220.514466 148.358722 
L 220.605872 147.546241 
L 220.635854 147.546241 
L 220.635854 147.430172 
L 220.857484 147.430172 
L 220.928512 146.965897 
L 220.995883 146.965897 
L 221.050548 146.501622 
L 221.107407 146.501622 
L 221.206297 145.457003 
L 221.329258 145.457003 
L 221.383312 145.224865 
L 221.449134 145.224865 
L 221.529884 144.644521 
L 221.693498 144.644521 
L 221.773264 144.064178 
L 221.823834 144.064178 
L 221.91525 143.715971 
L 221.966177 143.715971 
L 221.966177 143.599903 
L 222.106736 143.599903 
L 222.106736 143.483834 
L 222.23107 143.483834 
L 222.23107 143.367765 
L 222.397105 143.367765 
L 222.501135 142.671352 
L 222.523033 142.671352 
L 222.548592 142.323146 
L 222.721149 142.323146 
L 222.778921 141.858871 
L 222.900776 141.858871 
L 222.988115 141.510665 
L 223.070732 141.510665 
L 223.131516 141.04639 
L 223.220983 141.04639 
L 223.266594 140.698183 
L 223.490765 140.698183 
L 223.540511 140.001771 
L 223.603188 140.001771 
L 223.685524 139.769633 
L 223.720086 139.769633 
L 223.812633 139.073221 
L 223.893557 139.073221 
L 223.97336 138.725014 
L 224.022715 138.725014 
L 224.113212 138.260739 
L 224.1698 138.260739 
L 224.1949 136.055433 
L 224.28397 136.055433 
L 224.353092 135.591158 
L 224.507532 135.591158 
L 224.584527 135.242951 
L 224.650774 135.242951 
L 224.760752 134.778676 
L 224.7693 134.778676 
L 224.84201 134.43047 
L 224.886866 134.43047 
L 224.980225 134.082264 
L 225.0016 134.082264 
L 225.086123 133.269782 
L 225.121264 133.269782 
L 225.194295 132.921576 
L 225.242424 132.921576 
L 225.305575 132.57337 
L 225.469616 132.57337 
L 225.473333 132.341232 
L 225.614411 132.341232 
L 225.724465 131.760888 
L 225.750087 131.760888 
L 225.854301 130.948407 
L 225.92811 130.948407 
L 225.986967 130.484132 
L 226.107736 130.484132 
L 226.217476 130.019857 
L 226.22684 130.019857 
L 226.323503 129.439513 
L 226.449153 129.439513 
L 226.553548 128.975238 
L 226.582675 128.975238 
L 226.692572 128.278825 
L 226.71946 128.278825 
L 226.751976 128.046688 
L 226.891246 128.046688 
L 226.972873 127.81455 
L 227.067854 127.81455 
L 227.138111 127.582413 
L 227.17933 127.582413 
L 227.17933 127.466344 
L 227.337124 127.466344 
L 227.424562 127.234206 
L 227.489125 127.234206 
L 227.584524 126.886 
L 227.604189 126.886 
L 227.626064 126.537794 
L 227.749721 126.537794 
L 227.82793 126.189587 
L 227.86231 126.189587 
L 227.86586 125.725312 
L 227.994624 125.725312 
L 228.028225 125.377106 
L 228.165235 125.377106 
L 228.253724 125.0289 
L 228.322493 125.0289 
L 228.392112 124.448556 
L 228.455536 124.448556 
L 228.520758 124.216418 
L 228.615179 124.216418 
L 228.710735 123.752143 
L 228.809767 123.752143 
L 228.909748 123.171799 
L 228.930188 123.171799 
L 229.012825 122.475387 
L 229.056071 122.475387 
L 229.164503 122.011112 
L 229.179045 122.011112 
L 229.284751 121.662905 
L 229.294115 121.662905 
L 229.385486 120.850424 
L 229.420504 120.850424 
L 229.499552 120.386149 
L 229.559286 120.386149 
L 229.593793 119.921874 
L 229.737896 119.921874 
L 229.808051 119.573668 
L 229.918093 119.573668 
L 229.928639 119.109392 
L 230.12566 119.109392 
L 230.152616 118.877255 
L 230.246605 118.877255 
L 230.306751 118.529049 
L 230.401787 118.529049 
L 230.485862 118.180842 
L 230.525951 118.180842 
L 230.585845 117.716567 
L 230.652607 117.716567 
L 230.736417 117.252292 
L 230.781911 117.252292 
L 230.879946 117.020155 
L 230.92338 117.020155 
L 230.947668 116.671948 
L 231.050016 116.671948 
L 231.140772 116.091604 
L 231.23251 116.091604 
L 231.305394 115.279123 
L 231.550987 115.279123 
L 231.570299 115.046986 
L 231.670477 115.046986 
L 231.740644 114.466642 
L 231.796986 114.466642 
L 231.881945 113.770229 
L 231.96458 113.770229 
L 231.965234 113.538092 
L 232.161949 113.538092 
L 232.254261 113.073816 
L 232.280287 113.073816 
L 232.358232 111.680991 
L 232.444354 111.680991 
L 232.489159 111.448854 
L 232.723478 111.448854 
L 232.833346 110.752441 
L 232.887603 110.752441 
L 232.93494 110.404235 
L 233.080161 110.404235 
L 233.128952 110.056029 
L 233.266898 110.056029 
L 233.311167 109.707822 
L 233.4489 109.707822 
L 233.557646 109.359616 
L 233.562546 109.359616 
L 233.651549 108.895341 
L 233.776663 108.895341 
L 233.863313 108.547135 
L 233.91895 108.547135 
L 233.998557 107.966791 
L 234.034602 107.966791 
L 234.117296 107.038241 
L 234.318327 107.038241 
L 234.411564 106.573965 
L 234.682543 106.573965 
L 234.740958 105.993622 
L 234.805308 105.993622 
L 234.844905 105.645415 
L 234.973956 105.645415 
L 235.067348 104.949003 
L 235.10203 104.949003 
L 235.10203 104.832934 
L 235.230074 104.832934 
L 235.231346 104.600796 
L 235.342685 104.600796 
L 235.36264 104.368659 
L 235.458163 104.368659 
L 235.479942 104.136521 
L 235.590613 104.136521 
L 235.690209 103.32404 
L 235.849323 103.32404 
L 235.849323 103.207971 
L 236.000394 103.207971 
L 236.108733 102.279421 
L 236.316604 102.279421 
L 236.371958 101.931215 
L 236.428813 101.931215 
L 236.480101 101.46694 
L 236.733978 101.46694 
L 236.791066 101.234802 
L 236.88409 101.234802 
L 236.907684 100.886596 
L 237.025981 100.886596 
L 237.082652 100.422321 
L 237.203246 100.422321 
L 237.296401 99.725908 
L 237.404487 99.725908 
L 237.497514 99.145564 
L 237.54772 99.145564 
L 237.54772 99.029496 
L 237.722113 99.029496 
L 237.794896 98.797358 
L 237.858604 98.797358 
L 237.900758 98.56522 
L 238.118409 98.56522 
L 238.181641 98.333083 
L 238.27032 98.333083 
L 238.367543 98.100945 
L 238.432679 98.100945 
L 238.491826 97.868808 
L 238.551801 97.868808 
L 238.551801 96.940258 
L 238.670302 96.940258 
L 238.766129 96.592051 
L 238.857394 96.592051 
L 238.891814 96.243845 
L 239.043637 96.243845 
L 239.097528 95.895639 
L 239.169728 95.895639 
L 239.254687 95.663501 
L 239.38948 95.663501 
L 239.38948 95.547432 
L 239.53027 95.547432 
L 239.53027 95.431364 
L 239.643004 95.431364 
L 239.650808 95.083157 
L 239.769397 95.083157 
L 239.836374 94.270676 
L 239.912317 94.270676 
L 240.007094 93.806401 
L 240.270078 93.806401 
L 240.305288 93.574263 
L 240.420514 93.574263 
L 240.5043 93.109988 
L 240.615473 93.109988 
L 240.669518 92.297507 
L 240.808316 92.297507 
L 240.863126 91.02075 
L 241.035148 91.02075 
L 241.108457 90.788613 
L 241.236055 90.788613 
L 241.236055 90.672544 
L 241.431756 90.672544 
L 241.541829 90.440407 
L 241.660483 90.440407 
L 241.770742 90.208269 
L 241.773268 90.208269 
L 241.824281 89.976132 
L 241.975096 89.976132 
L 242.048528 89.627925 
L 242.130395 89.627925 
L 242.209974 88.931513 
L 242.255587 88.931513 
L 242.255587 88.815444 
L 242.372333 88.815444 
L 242.451867 88.467238 
L 242.490187 88.467238 
L 242.564974 88.119031 
L 242.795287 88.119031 
L 242.829558 87.538687 
L 242.945548 87.538687 
L 243.038334 86.958344 
L 243.174785 86.958344 
L 243.226306 86.610137 
L 243.365263 86.610137 
L 243.455565 86.029793 
L 243.505417 86.029793 
L 243.604608 85.797656 
L 243.676 85.797656 
L 243.750823 83.360212 
L 243.878927 83.360212 
L 243.898177 82.54773 
L 244.148703 82.54773 
L 244.207479 82.199524 
L 244.311063 82.199524 
L 244.311063 82.083455 
L 244.456246 82.083455 
L 244.517707 81.851318 
L 244.703313 81.851318 
L 244.778129 81.61918 
L 244.891902 81.61918 
L 244.946464 81.154905 
L 245.170641 81.154905 
L 245.275951 80.922768 
L 245.283754 80.922768 
L 245.333 80.574561 
L 245.533059 80.574561 
L 245.533059 80.458493 
L 245.689218 80.458493 
L 245.774384 80.110286 
L 245.856695 80.110286 
L 245.856695 79.994217 
L 246.213538 79.994217 
L 246.213538 79.646011 
L 246.35472 79.646011 
L 246.435715 79.065667 
L 246.471422 79.065667 
L 246.471422 78.949599 
L 246.71097 78.949599 
L 246.815419 78.601392 
L 246.985504 78.601392 
L 246.985504 78.485324 
L 247.29343 78.485324 
L 247.325125 78.253186 
L 247.527052 78.253186 
L 247.529631 78.021048 
L 247.738796 78.021048 
L 247.738796 77.90498 
L 247.980342 77.90498 
L 248.032415 77.208567 
L 248.179354 77.208567 
L 248.287181 76.860361 
L 248.311291 76.860361 
L 248.40409 76.512154 
L 248.497568 76.512154 
L 248.497568 76.396086 
L 248.726335 76.396086 
L 248.726335 76.047879 
L 248.948513 76.047879 
L 249.055207 75.467536 
L 249.263855 75.467536 
L 249.275642 74.887192 
L 249.384388 74.887192 
L 249.384388 74.771123 
L 249.497819 74.771123 
L 249.596466 73.958642 
L 249.855055 73.958642 
L 249.947513 73.262229 
L 250.285792 73.262229 
L 250.285792 73.14616 
L 250.411076 73.14616 
L 250.512057 72.914023 
L 250.71605 72.914023 
L 250.71605 72.797954 
L 251.190987 72.797954 
L 251.190987 72.681885 
L 251.34107 72.681885 
L 251.34107 72.565816 
L 251.761387 72.565816 
L 251.761387 72.21761 
L 251.882831 72.21761 
L 251.913719 71.985472 
L 252.349806 71.985472 
L 252.450146 71.28906 
L 252.59871 71.28906 
L 252.606722 70.940854 
L 252.738313 70.940854 
L 252.846668 70.244441 
L 253.068845 70.244441 
L 253.132648 69.199822 
L 253.226316 69.199822 
L 253.321698 68.271272 
L 253.371743 68.271272 
L 253.478274 67.226653 
L 253.512343 67.226653 
L 253.543875 66.414172 
L 253.633982 66.414172 
L 253.700451 65.137415 
L 253.809176 65.137415 
L 253.85616 64.208865 
L 254.24833 64.208865 
L 254.24833 63.860659 
L 254.470507 63.860659 
L 254.508676 63.512452 
L 254.798844 63.512452 
L 254.799636 63.280315 
L 255.071713 63.280315 
L 255.071713 62.81604 
L 255.465758 62.81604 
L 255.465758 62.699971 
L 255.708086 62.699971 
L 255.806066 62.351765 
L 256.005079 62.351765 
L 256.075414 62.003558 
L 256.359203 62.003558 
L 256.398668 61.191077 
L 256.579638 61.191077 
L 256.579638 60.726802 
L 256.6943 60.726802 
L 256.805017 59.566114 
L 256.857074 59.566114 
L 256.939171 59.217908 
L 257.015254 59.217908 
L 257.049785 58.405427 
L 257.133454 58.405427 
L 257.133454 58.05722 
L 257.27022 58.05722 
L 257.355632 56.896533 
L 257.456134 56.896533 
L 257.492397 55.039432 
L 257.590288 55.039432 
L 257.680779 54.110882 
L 257.730922 54.110882 
L 257.810723 53.41447 
L 257.860739 53.41447 
L 257.898746 52.485919 
L 258.0329 52.485919 
L 258.0329 51.093094 
L 258.374091 51.093094 
L 258.409307 50.396682 
L 258.511855 50.396682 
L 258.602473 49.5842 
L 258.73229 49.5842 
L 258.824651 48.423513 
L 258.954467 48.423513 
L 259.025208 47.262825 
L 259.245643 47.262825 
L 259.245643 46.79855 
L 259.404162 46.79855 
L 259.46782 45.87 
L 259.540097 45.87 
L 259.576087 45.637862 
L 260.195912 45.637862 
L 260.195912 45.405725 
L 260.71162 45.405725 
L 260.71162 44.941449 
L 260.889315 44.941449 
L 260.889315 44.709312 
L 261.144493 44.709312 
L 261.2056 44.477174 
L 261.328469 44.477174 
L 261.328469 44.128968 
L 261.550646 44.128968 
L 261.613676 43.664693 
L 261.715487 43.664693 
L 261.772099 43.316487 
L 262.264793 43.316487 
L 262.264793 42.96828 
L 262.485228 42.96828 
L 262.492893 42.387937 
L 262.707405 42.387937 
L 262.707405 41.691524 
L 263.054459 41.691524 
L 263.1571 41.227249 
L 263.258746 41.227249 
L 263.258746 41.11118 
L 265.154203 41.11118 
L 265.154203 40.879043 
L 265.406723 40.879043 
L 265.406723 40.762974 
L 265.593357 40.762974 
L 265.594092 40.298699 
L 265.815534 40.298699 
L 265.835819 39.834424 
L 266.057122 39.834424 
L 266.057122 39.718355 
L 266.955091 39.718355 
L 266.955091 39.602286 
L 267.302179 39.602286 
L 267.302179 39.370149 
L 267.489548 39.370149 
L 267.489548 38.32553 
L 267.741333 38.32553 
L 267.741333 37.977323 
L 267.928702 37.977323 
L 267.96351 37.164842 
L 268.121871 37.164842 
L 268.15088 36.816636 
L 268.391732 36.816636 
L 268.391732 36.468429 
L 268.61391 36.468429 
L 268.61391 36.236292 
L 269.428613 36.236292 
L 269.447831 35.42381 
L 269.751383 35.42381 
L 269.752597 35.191673 
L 271.038676 35.191673 
L 271.038676 35.075604 
L 271.648053 35.075604 
L 271.648053 34.843467 
L 272.087207 34.843467 
L 272.107333 34.263123 
L 272.309384 34.263123 
L 272.309384 34.030985 
L 272.613748 34.030985 
L 272.613748 33.798848 
L 273.599999 33.798848 
L 273.599999 33.56671 
L 274.552812 33.56671 
L 274.552812 32.63816 
L 276.072387 32.63816 
L 276.072387 32.173885 
L 277.141088 32.173885 
L 277.141088 32.057816 
L 278.885261 32.057816 
L 278.885261 31.70961 
L 279.677012 31.70961 
L 279.677012 31.477472 
L 280.192719 31.477472 
L 280.192719 31.129266 
L 280.824325 31.129266 
L 280.824325 30.897128 
L 281.196586 30.897128 
L 281.196586 30.664991 
L 282.638199 30.664991 
L 282.638199 30.548922 
L 285.686871 30.548922 
L 285.686871 30.432853 
L 285.948525 30.432853 
L 285.948525 30.200716 
L 286.970648 30.200716 
L 286.970648 29.85251 
L 287.4681 29.85251 
L 287.4681 29.620372 
L 287.956899 29.620372 
L 287.956899 29.156097 
L 288.909712 29.156097 
L 288.909712 28.575753 
L 291.588432 28.575753 
L 291.588432 28.459684 
L 293.081099 28.459684 
L 293.081099 28.227547 
L 294.033912 28.227547 
L 294.033912 27.879341 
L 295.553486 27.879341 
L 295.553486 27.531134 
L 298.366361 27.531134 
L 298.366361 27.298997 
L 299.352612 27.298997 
L 299.352612 27.066859 
L 300.305425 27.066859 
L 300.305425 26.95079 
L 305.429624 26.95079 
L 305.429624 26.834722 
L 306.949199 26.834722 
L 306.949199 26.718653 
L 307.437999 26.718653 
L 307.437999 26.370447 
L 311.069532 26.370447 
L 311.069532 26.254378 
L 317.84746 26.254378 
L 317.84746 26.138309 
L 318.833712 26.138309 
L 318.833712 26.02224 
L 319.786524 26.02224 
L 319.786524 25.906171 
L 324.910724 25.906171 
L 324.910724 25.790103 
L 326.430299 25.790103 
L 326.430299 25.674034 
L 338.314811 25.674034 
L 338.314811 25.557965 
L 453.192 25.557965 
L 453.192 25.557965 
" clip-path="url(#p0f356af10a)" style="fill: none; stroke: #000000; stroke-width: 3; stroke-linecap: square"/>
   </g>
   <g id="line2d_18">
    <path clip-path="url(#p0f356af10a)" style="fill: none; stroke: #000000; stroke-width: 3; stroke-linecap: square"/>
   </g>
   <g id="line2d_19">
    <path d="M 34.402504 5.826275 
L 34.16 5.826275 
L 453.192 5.826275 
L 461.8 5.826275 
" clip-path="url(#p0f356af10a)" style="fill: none; stroke: #00bfbf; stroke-width: 3; stroke-linecap: square"/>
   </g>
   <g id="line2d_20"/>
   <g id="line2d_21"/>
   <g id="line2d_22">
    <path d="M 243.676 291.28 
L 243.676 3 
" clip-path="url(#p0f356af10a)" style="fill: none; stroke: #000000; stroke-width: 1.5; stroke-linecap: square"/>
   </g>
   <g id="line2d_23">
    <path d="M 34.16 147.14 
L 453.192 147.14 
" clip-path="url(#p0f356af10a)" style="fill: none; stroke-dasharray: 2,3.3; stroke-dashoffset: 0; stroke: #000000; stroke-width: 2"/>
   </g>
   <g id="patch_3">
    <path d="M 34.16 291.28 
L 34.16 3 
" style="fill: none; stroke: #000000; stroke-width: 0.8; stroke-linejoin: miter; stroke-linecap: square"/>
   </g>
   <g id="patch_4">
    <path d="M 453.192 291.28 
L 453.192 3 
" style="fill: none; stroke: #000000; stroke-width: 0.8; stroke-linejoin: miter; stroke-linecap: square"/>
   </g>
   <g id="patch_5">
    <path d="M 34.16 291.28 
L 453.192 291.28 
" style="fill: none; stroke: #000000; stroke-width: 0.8; stroke-linejoin: miter; stroke-linecap: square"/>
   </g>
   <g id="patch_6">
    <path d="M 34.16 3 
L 453.192 3 
" style="fill: none; stroke: #000000; stroke-width: 0.8; stroke-linejoin: miter; stroke-linecap: square"/>
   </g>
   <g id="text_6">
    <!-- f1-f24,20-D -->
    <g transform="translate(330.91761 285.5144)scale(0.2 -0.2)">
     <defs>
      <path id="DejaVuSans-34" d="M 2419 4116 
L 825 1625 
L 2419 1625 
L 2419 4116 
z
M 2253 4666 
L 3047 4666 
L 3047 1625 
L 3713 1625 
L 3713 1100 
L 3047 1100 
L 3047 0 
L 2419 0 
L 2419 1100 
L 313 1100 
L 313 1709 
L 2253 4666 
z
" transform="scale(0.015625)"/>
      <path id="DejaVuSans-2c" d="M 750 794 
L 1409 794 
L 1409 256 
L 897 -744 
L 494 -744 
L 750 256 
L 750 794 
z
" transform="scale(0.015625)"/>
      <path id="DejaVuSans-44" d="M 1259 4147 
L 1259 519 
L 2022 519 
Q 2988 519 3436 956 
Q 3884 1394 3884 2338 
Q 3884 3275 3436 3711 
Q 2988 4147 2022 4147 
L 1259 4147 
z
M 628 4666 
L 1925 4666 
Q 3281 4666 3915 4102 
Q 4550 3538 4550 2338 
Q 4550 1131 3912 565 
Q 3275 0 1925 0 
L 628 0 
L 628 4666 
z
" transform="scale(0.015625)"/>
     </defs>
     <use xlink:href="#DejaVuSans-66"/>
     <use xlink:href="#DejaVuSans-31" x="35.205078"/>
     <use xlink:href="#DejaVuSans-2d" x="98.828125"/>
     <use xlink:href="#DejaVuSans-66" x="134.912109"/>
     <use xlink:href="#DejaVuSans-32" x="170.117188"/>
     <use xlink:href="#DejaVuSans-34" x="233.740234"/>
     <use xlink:href="#DejaVuSans-2c" x="297.363281"/>
     <use xlink:href="#DejaVuSans-32" x="329.150391"/>
     <use xlink:href="#DejaVuSans-30" x="392.773438"/>
     <use xlink:href="#DejaVuSans-2d" x="456.396484"/>
     <use xlink:href="#DejaVuSans-44" x="492.480469"/>
    </g>
   </g>
   <g id="text_7">
    <!-- v2.6.3 -->
    <g style="fill: #808080" transform="translate(227.99475 286.317512)scale(0.1 -0.1)">
     <defs>
      <path id="DejaVuSans-2e" d="M 684 794 
L 1344 794 
L 1344 0 
L 684 0 
L 684 794 
z
" transform="scale(0.015625)"/>
      <path id="DejaVuSans-36" d="M 2113 2584 
Q 1688 2584 1439 2293 
Q 1191 2003 1191 1497 
Q 1191 994 1439 701 
Q 1688 409 2113 409 
Q 2538 409 2786 701 
Q 3034 994 3034 1497 
Q 3034 2003 2786 2293 
Q 2538 2584 2113 2584 
z
M 3366 4563 
L 3366 3988 
Q 3128 4100 2886 4159 
Q 2644 4219 2406 4219 
Q 1781 4219 1451 3797 
Q 1122 3375 1075 2522 
Q 1259 2794 1537 2939 
Q 1816 3084 2150 3084 
Q 2853 3084 3261 2657 
Q 3669 2231 3669 1497 
Q 3669 778 3244 343 
Q 2819 -91 2113 -91 
Q 1303 -91 875 529 
Q 447 1150 447 2328 
Q 447 3434 972 4092 
Q 1497 4750 2381 4750 
Q 2619 4750 2861 4703 
Q 3103 4656 3366 4563 
z
" transform="scale(0.015625)"/>
      <path id="DejaVuSans-33" d="M 2597 2516 
Q 3050 2419 3304 2112 
Q 3559 1806 3559 1356 
Q 3559 666 3084 287 
Q 2609 -91 1734 -91 
Q 1441 -91 1130 -33 
Q 819 25 488 141 
L 488 750 
Q 750 597 1062 519 
Q 1375 441 1716 441 
Q 2309 441 2620 675 
Q 2931 909 2931 1356 
Q 2931 1769 2642 2001 
Q 2353 2234 1838 2234 
L 1294 2234 
L 1294 2753 
L 1863 2753 
Q 2328 2753 2575 2939 
Q 2822 3125 2822 3475 
Q 2822 3834 2567 4026 
Q 2313 4219 1838 4219 
Q 1578 4219 1281 4162 
Q 984 4106 628 3988 
L 628 4550 
Q 988 4650 1302 4700 
Q 1616 4750 1894 4750 
Q 2613 4750 3031 4423 
Q 3450 4097 3450 3541 
Q 3450 3153 3228 2886 
Q 3006 2619 2597 2516 
z
" transform="scale(0.015625)"/>
     </defs>
     <use xlink:href="#DejaVuSans-76"/>
     <use xlink:href="#DejaVuSans-32" x="59.179688"/>
     <use xlink:href="#DejaVuSans-2e" x="122.802734"/>
     <use xlink:href="#DejaVuSans-36" x="154.589844"/>
     <use xlink:href="#DejaVuSans-2e" x="218.212891"/>
     <use xlink:href="#DejaVuSans-33" x="250"/>
    </g>
   </g>
   <g id="legend_1">
    <g id="patch_7">
     <path d="M 48.16 136.425 
L 195.61625 136.425 
Q 199.61625 136.425 199.61625 132.425 
L 199.61625 17 
Q 199.61625 13 195.61625 13 
L 48.16 13 
Q 44.16 13 44.16 17 
L 44.16 132.425 
Q 44.16 136.425 48.16 136.425 
z
" style="fill: #ffffff; opacity: 0.2; stroke: #cccccc; stroke-linejoin: miter"/>
    </g>
    <g id="line2d_24">
     <path d="M 52.16 29.196875 
L 72.16 29.196875 
L 92.16 29.196875 
" style="fill: none; stroke: #000000; stroke-width: 3; stroke-linecap: square"/>
    </g>
    <g id="text_8">
     <!-- 1: 12/12 -->
     <g transform="translate(108.16 36.196875)scale(0.2 -0.2)">
      <defs>
       <path id="DejaVuSans-3a" d="M 750 794 
L 1409 794 
L 1409 0 
L 750 0 
L 750 794 
z
M 750 3309 
L 1409 3309 
L 1409 2516 
L 750 2516 
L 750 3309 
z
" transform="scale(0.015625)"/>
       <path id="DejaVuSans-2f" d="M 1625 4666 
L 2156 4666 
L 531 -594 
L 0 -594 
L 1625 4666 
z
" transform="scale(0.015625)"/>
      </defs>
      <use xlink:href="#DejaVuSans-31"/>
      <use xlink:href="#DejaVuSans-3a" x="63.623047"/>
      <use xlink:href="#DejaVuSans-20" x="97.314453"/>
      <use xlink:href="#DejaVuSans-31" x="129.101562"/>
      <use xlink:href="#DejaVuSans-32" x="192.724609"/>
      <use xlink:href="#DejaVuSans-2f" x="256.347656"/>
      <use xlink:href="#DejaVuSans-31" x="290.039062"/>
      <use xlink:href="#DejaVuSans-32" x="353.662109"/>
     </g>
    </g>
    <g id="line2d_25">
     <path d="M 52.16 58.553125 
L 72.16 58.553125 
L 92.16 58.553125 
" style="fill: none; stroke: #00bfbf; stroke-width: 3; stroke-linecap: square"/>
    </g>
    <g id="text_9">
     <!-- -1: 4/0 -->
     <g transform="translate(108.16 65.553125)scale(0.2 -0.2)">
      <use xlink:href="#DejaVuSans-2d"/>
      <use xlink:href="#DejaVuSans-31" x="36.083984"/>
      <use xlink:href="#DejaVuSans-3a" x="99.707031"/>
      <use xlink:href="#DejaVuSans-20" x="133.398438"/>
      <use xlink:href="#DejaVuSans-34" x="165.185547"/>
      <use xlink:href="#DejaVuSans-2f" x="228.808594"/>
      <use xlink:href="#DejaVuSans-30" x="262.5"/>
     </g>
    </g>
    <g id="line2d_26">
     <path d="M 52.16 87.909375 
L 72.16 87.909375 
L 92.16 87.909375 
" style="fill: none; stroke: #bf00bf; stroke-width: 3; stroke-linecap: square"/>
    </g>
    <g id="text_10">
     <!-- -4: 0/0 -->
     <g transform="translate(108.16 94.909375)scale(0.2 -0.2)">
      <use xlink:href="#DejaVuSans-2d"/>
      <use xlink:href="#DejaVuSans-34" x="36.083984"/>
      <use xlink:href="#DejaVuSans-3a" x="99.707031"/>
      <use xlink:href="#DejaVuSans-20" x="133.398438"/>
      <use xlink:href="#DejaVuSans-30" x="165.185547"/>
      <use xlink:href="#DejaVuSans-2f" x="228.808594"/>
      <use xlink:href="#DejaVuSans-30" x="262.5"/>
     </g>
    </g>
    <g id="line2d_27">
     <path d="M 52.16 117.265625 
L 72.16 117.265625 
L 92.16 117.265625 
" style="fill: none; stroke: #ff0000; stroke-width: 3; stroke-linecap: square"/>
    </g>
    <g id="text_11">
     <!-- -8: 0/0 -->
     <g transform="translate(108.16 124.265625)scale(0.2 -0.2)">
      <defs>
       <path id="DejaVuSans-38" d="M 2034 2216 
Q 1584 2216 1326 1975 
Q 1069 1734 1069 1313 
Q 1069 891 1326 650 
Q 1584 409 2034 409 
Q 2484 409 2743 651 
Q 3003 894 3003 1313 
Q 3003 1734 2745 1975 
Q 2488 2216 2034 2216 
z
M 1403 2484 
Q 997 2584 770 2862 
Q 544 3141 544 3541 
Q 544 4100 942 4425 
Q 1341 4750 2034 4750 
Q 2731 4750 3128 4425 
Q 3525 4100 3525 3541 
Q 3525 3141 3298 2862 
Q 3072 2584 2669 2484 
Q 3125 2378 3379 2068 
Q 3634 1759 3634 1313 
Q 3634 634 3220 271 
Q 2806 -91 2034 -91 
Q 1263 -91 848 271 
Q 434 634 434 1313 
Q 434 1759 690 2068 
Q 947 2378 1403 2484 
z
M 1172 3481 
Q 1172 3119 1398 2916 
Q 1625 2713 2034 2713 
Q 2441 2713 2670 2916 
Q 2900 3119 2900 3481 
Q 2900 3844 2670 4047 
Q 2441 4250 2034 4250 
Q 1625 4250 1398 4047 
Q 1172 3844 1172 3481 
z
" transform="scale(0.015625)"/>
      </defs>
      <use xlink:href="#DejaVuSans-2d"/>
      <use xlink:href="#DejaVuSans-38" x="36.083984"/>
      <use xlink:href="#DejaVuSans-3a" x="99.707031"/>
      <use xlink:href="#DejaVuSans-20" x="133.398438"/>
      <use xlink:href="#DejaVuSans-30" x="165.185547"/>
      <use xlink:href="#DejaVuSans-2f" x="228.808594"/>
      <use xlink:href="#DejaVuSans-30" x="262.5"/>
     </g>
    </g>
   </g>
  </g>
 </g>
 <defs>
  <clipPath id="p0f356af10a">
   <rect x="34.16" y="3" width="419.032" height="288.28"/>
  </clipPath>
 </defs>
</svg>
