<?xml version="1.0" encoding="utf-8" standalone="no"?>
<!DOCTYPE svg PUBLIC "-//W3C//DTD SVG 1.1//EN"
  "http://www.w3.org/Graphics/SVG/1.1/DTD/svg11.dtd">
<svg xmlns:xlink="http://www.w3.org/1999/xlink" width="460.8pt" height="345.6pt" viewBox="0 0 460.8 345.6" xmlns="http://www.w3.org/2000/svg" version="1.1">
 <metadata>
  <rdf:RDF xmlns:dc="http://purl.org/dc/elements/1.1/" xmlns:cc="http://creativecommons.org/ns#" xmlns:rdf="http://www.w3.org/1999/02/22-rdf-syntax-ns#">
   <cc:Work>
    <dc:type rdf:resource="http://purl.org/dc/dcmitype/StillImage"/>
    <dc:date>2024-01-05T10:25:49.009848</dc:date>
    <dc:format>image/svg+xml</dc:format>
    <dc:creator>
     <cc:Agent>
      <dc:title>Matplotlib v3.5.1, https://matplotlib.org/</dc:title>
     </cc:Agent>
    </dc:creator>
   </cc:Work>
  </rdf:RDF>
 </metadata>
 <defs>
  <style type="text/css">*{stroke-linejoin: round; stroke-linecap: butt}</style>
 </defs>
 <g id="figure_1">
  <g id="patch_1">
   <path d="M 0 345.6 
L 460.8 345.6 
L 460.8 0 
L 0 0 
z
" style="fill: #ffffff"/>
  </g>
  <g id="axes_1">
   <g id="patch_2">
    <path d="M 34.16 291.28 
L 453.192 291.28 
L 453.192 3 
L 34.16 3 
z
" style="fill: #ffffff"/>
   </g>
   <g id="matplotlib.axis_1">
    <g id="xtick_1">
     <g id="line2d_1">
      <path d="M 112.174988 291.28 
L 112.174988 3 
" clip-path="url(#p039a5321c7)" style="fill: none; stroke: #b0b0b0; stroke-width: 0.8; stroke-linecap: square"/>
     </g>
     <g id="line2d_2">
      <defs>
       <path id="mbb6e5df0ef" d="M 0 0 
L 0 3.5 
" style="stroke: #000000; stroke-width: 0.8"/>
      </defs>
      <g>
       <use xlink:href="#mbb6e5df0ef" x="112.174988" y="291.28" style="stroke: #000000; stroke-width: 0.8"/>
      </g>
     </g>
     <g id="text_1">
      <!-- -2 -->
      <g transform="translate(102.204676 313.476875)scale(0.2 -0.2)">
       <defs>
        <path id="DejaVuSans-2d" d="M 313 2009 
L 1997 2009 
L 1997 1497 
L 313 1497 
L 313 2009 
z
" transform="scale(0.015625)"/>
        <path id="DejaVuSans-32" d="M 1228 531 
L 3431 531 
L 3431 0 
L 469 0 
L 469 531 
Q 828 903 1448 1529 
Q 2069 2156 2228 2338 
Q 2531 2678 2651 2914 
Q 2772 3150 2772 3378 
Q 2772 3750 2511 3984 
Q 2250 4219 1831 4219 
Q 1534 4219 1204 4116 
Q 875 4013 500 3803 
L 500 4441 
Q 881 4594 1212 4672 
Q 1544 4750 1819 4750 
Q 2544 4750 2975 4387 
Q 3406 4025 3406 3419 
Q 3406 3131 3298 2873 
Q 3191 2616 2906 2266 
Q 2828 2175 2409 1742 
Q 1991 1309 1228 531 
z
" transform="scale(0.015625)"/>
       </defs>
       <use xlink:href="#DejaVuSans-2d"/>
       <use xlink:href="#DejaVuSans-32" x="36.083984"/>
      </g>
     </g>
    </g>
    <g id="xtick_2">
     <g id="line2d_3">
      <path d="M 243.676 291.28 
L 243.676 3 
" clip-path="url(#p039a5321c7)" style="fill: none; stroke: #b0b0b0; stroke-width: 0.8; stroke-linecap: square"/>
     </g>
     <g id="line2d_4">
      <g>
       <use xlink:href="#mbb6e5df0ef" x="243.676" y="291.28" style="stroke: #000000; stroke-width: 0.8"/>
      </g>
     </g>
     <g id="text_2">
      <!-- 0 -->
      <g transform="translate(237.3135 313.476875)scale(0.2 -0.2)">
       <defs>
        <path id="DejaVuSans-30" d="M 2034 4250 
Q 1547 4250 1301 3770 
Q 1056 3291 1056 2328 
Q 1056 1369 1301 889 
Q 1547 409 2034 409 
Q 2525 409 2770 889 
Q 3016 1369 3016 2328 
Q 3016 3291 2770 3770 
Q 2525 4250 2034 4250 
z
M 2034 4750 
Q 2819 4750 3233 4129 
Q 3647 3509 3647 2328 
Q 3647 1150 3233 529 
Q 2819 -91 2034 -91 
Q 1250 -91 836 529 
Q 422 1150 422 2328 
Q 422 3509 836 4129 
Q 1250 4750 2034 4750 
z
" transform="scale(0.015625)"/>
       </defs>
       <use xlink:href="#DejaVuSans-30"/>
      </g>
     </g>
    </g>
    <g id="xtick_3">
     <g id="line2d_5">
      <path d="M 375.177012 291.28 
L 375.177012 3 
" clip-path="url(#p039a5321c7)" style="fill: none; stroke: #b0b0b0; stroke-width: 0.8; stroke-linecap: square"/>
     </g>
     <g id="line2d_6">
      <g>
       <use xlink:href="#mbb6e5df0ef" x="375.177012" y="291.28" style="stroke: #000000; stroke-width: 0.8"/>
      </g>
     </g>
     <g id="text_3">
      <!-- 2 -->
      <g transform="translate(368.814512 313.476875)scale(0.2 -0.2)">
       <use xlink:href="#DejaVuSans-32"/>
      </g>
     </g>
    </g>
    <g id="text_4">
     <!-- log10 of FEvals ratio -->
     <g transform="translate(141.371312 336.833125)scale(0.2 -0.2)">
      <defs>
       <path id="DejaVuSans-6c" d="M 603 4863 
L 1178 4863 
L 1178 0 
L 603 0 
L 603 4863 
z
" transform="scale(0.015625)"/>
       <path id="DejaVuSans-6f" d="M 1959 3097 
Q 1497 3097 1228 2736 
Q 959 2375 959 1747 
Q 959 1119 1226 758 
Q 1494 397 1959 397 
Q 2419 397 2687 759 
Q 2956 1122 2956 1747 
Q 2956 2369 2687 2733 
Q 2419 3097 1959 3097 
z
M 1959 3584 
Q 2709 3584 3137 3096 
Q 3566 2609 3566 1747 
Q 3566 888 3137 398 
Q 2709 -91 1959 -91 
Q 1206 -91 779 398 
Q 353 888 353 1747 
Q 353 2609 779 3096 
Q 1206 3584 1959 3584 
z
" transform="scale(0.015625)"/>
       <path id="DejaVuSans-67" d="M 2906 1791 
Q 2906 2416 2648 2759 
Q 2391 3103 1925 3103 
Q 1463 3103 1205 2759 
Q 947 2416 947 1791 
Q 947 1169 1205 825 
Q 1463 481 1925 481 
Q 2391 481 2648 825 
Q 2906 1169 2906 1791 
z
M 3481 434 
Q 3481 -459 3084 -895 
Q 2688 -1331 1869 -1331 
Q 1566 -1331 1297 -1286 
Q 1028 -1241 775 -1147 
L 775 -588 
Q 1028 -725 1275 -790 
Q 1522 -856 1778 -856 
Q 2344 -856 2625 -561 
Q 2906 -266 2906 331 
L 2906 616 
Q 2728 306 2450 153 
Q 2172 0 1784 0 
Q 1141 0 747 490 
Q 353 981 353 1791 
Q 353 2603 747 3093 
Q 1141 3584 1784 3584 
Q 2172 3584 2450 3431 
Q 2728 3278 2906 2969 
L 2906 3500 
L 3481 3500 
L 3481 434 
z
" transform="scale(0.015625)"/>
       <path id="DejaVuSans-31" d="M 794 531 
L 1825 531 
L 1825 4091 
L 703 3866 
L 703 4441 
L 1819 4666 
L 2450 4666 
L 2450 531 
L 3481 531 
L 3481 0 
L 794 0 
L 794 531 
z
" transform="scale(0.015625)"/>
       <path id="DejaVuSans-20" transform="scale(0.015625)"/>
       <path id="DejaVuSans-66" d="M 2375 4863 
L 2375 4384 
L 1825 4384 
Q 1516 4384 1395 4259 
Q 1275 4134 1275 3809 
L 1275 3500 
L 2222 3500 
L 2222 3053 
L 1275 3053 
L 1275 0 
L 697 0 
L 697 3053 
L 147 3053 
L 147 3500 
L 697 3500 
L 697 3744 
Q 697 4328 969 4595 
Q 1241 4863 1831 4863 
L 2375 4863 
z
" transform="scale(0.015625)"/>
       <path id="DejaVuSans-46" d="M 628 4666 
L 3309 4666 
L 3309 4134 
L 1259 4134 
L 1259 2759 
L 3109 2759 
L 3109 2228 
L 1259 2228 
L 1259 0 
L 628 0 
L 628 4666 
z
" transform="scale(0.015625)"/>
       <path id="DejaVuSans-45" d="M 628 4666 
L 3578 4666 
L 3578 4134 
L 1259 4134 
L 1259 2753 
L 3481 2753 
L 3481 2222 
L 1259 2222 
L 1259 531 
L 3634 531 
L 3634 0 
L 628 0 
L 628 4666 
z
" transform="scale(0.015625)"/>
       <path id="DejaVuSans-76" d="M 191 3500 
L 800 3500 
L 1894 563 
L 2988 3500 
L 3597 3500 
L 2284 0 
L 1503 0 
L 191 3500 
z
" transform="scale(0.015625)"/>
       <path id="DejaVuSans-61" d="M 2194 1759 
Q 1497 1759 1228 1600 
Q 959 1441 959 1056 
Q 959 750 1161 570 
Q 1363 391 1709 391 
Q 2188 391 2477 730 
Q 2766 1069 2766 1631 
L 2766 1759 
L 2194 1759 
z
M 3341 1997 
L 3341 0 
L 2766 0 
L 2766 531 
Q 2569 213 2275 61 
Q 1981 -91 1556 -91 
Q 1019 -91 701 211 
Q 384 513 384 1019 
Q 384 1609 779 1909 
Q 1175 2209 1959 2209 
L 2766 2209 
L 2766 2266 
Q 2766 2663 2505 2880 
Q 2244 3097 1772 3097 
Q 1472 3097 1187 3025 
Q 903 2953 641 2809 
L 641 3341 
Q 956 3463 1253 3523 
Q 1550 3584 1831 3584 
Q 2591 3584 2966 3190 
Q 3341 2797 3341 1997 
z
" transform="scale(0.015625)"/>
       <path id="DejaVuSans-73" d="M 2834 3397 
L 2834 2853 
Q 2591 2978 2328 3040 
Q 2066 3103 1784 3103 
Q 1356 3103 1142 2972 
Q 928 2841 928 2578 
Q 928 2378 1081 2264 
Q 1234 2150 1697 2047 
L 1894 2003 
Q 2506 1872 2764 1633 
Q 3022 1394 3022 966 
Q 3022 478 2636 193 
Q 2250 -91 1575 -91 
Q 1294 -91 989 -36 
Q 684 19 347 128 
L 347 722 
Q 666 556 975 473 
Q 1284 391 1588 391 
Q 1994 391 2212 530 
Q 2431 669 2431 922 
Q 2431 1156 2273 1281 
Q 2116 1406 1581 1522 
L 1381 1569 
Q 847 1681 609 1914 
Q 372 2147 372 2553 
Q 372 3047 722 3315 
Q 1072 3584 1716 3584 
Q 2034 3584 2315 3537 
Q 2597 3491 2834 3397 
z
" transform="scale(0.015625)"/>
       <path id="DejaVuSans-72" d="M 2631 2963 
Q 2534 3019 2420 3045 
Q 2306 3072 2169 3072 
Q 1681 3072 1420 2755 
Q 1159 2438 1159 1844 
L 1159 0 
L 581 0 
L 581 3500 
L 1159 3500 
L 1159 2956 
Q 1341 3275 1631 3429 
Q 1922 3584 2338 3584 
Q 2397 3584 2469 3576 
Q 2541 3569 2628 3553 
L 2631 2963 
z
" transform="scale(0.015625)"/>
       <path id="DejaVuSans-74" d="M 1172 4494 
L 1172 3500 
L 2356 3500 
L 2356 3053 
L 1172 3053 
L 1172 1153 
Q 1172 725 1289 603 
Q 1406 481 1766 481 
L 2356 481 
L 2356 0 
L 1766 0 
Q 1100 0 847 248 
Q 594 497 594 1153 
L 594 3053 
L 172 3053 
L 172 3500 
L 594 3500 
L 594 4494 
L 1172 4494 
z
" transform="scale(0.015625)"/>
       <path id="DejaVuSans-69" d="M 603 3500 
L 1178 3500 
L 1178 0 
L 603 0 
L 603 3500 
z
M 603 4863 
L 1178 4863 
L 1178 4134 
L 603 4134 
L 603 4863 
z
" transform="scale(0.015625)"/>
      </defs>
      <use xlink:href="#DejaVuSans-6c"/>
      <use xlink:href="#DejaVuSans-6f" x="27.783203"/>
      <use xlink:href="#DejaVuSans-67" x="88.964844"/>
      <use xlink:href="#DejaVuSans-31" x="152.441406"/>
      <use xlink:href="#DejaVuSans-30" x="216.064453"/>
      <use xlink:href="#DejaVuSans-20" x="279.6875"/>
      <use xlink:href="#DejaVuSans-6f" x="311.474609"/>
      <use xlink:href="#DejaVuSans-66" x="372.65625"/>
      <use xlink:href="#DejaVuSans-20" x="407.861328"/>
      <use xlink:href="#DejaVuSans-46" x="439.648438"/>
      <use xlink:href="#DejaVuSans-45" x="497.167969"/>
      <use xlink:href="#DejaVuSans-76" x="560.351562"/>
      <use xlink:href="#DejaVuSans-61" x="619.53125"/>
      <use xlink:href="#DejaVuSans-6c" x="680.810547"/>
      <use xlink:href="#DejaVuSans-73" x="708.59375"/>
      <use xlink:href="#DejaVuSans-20" x="760.693359"/>
      <use xlink:href="#DejaVuSans-72" x="792.480469"/>
      <use xlink:href="#DejaVuSans-61" x="833.59375"/>
      <use xlink:href="#DejaVuSans-74" x="894.873047"/>
      <use xlink:href="#DejaVuSans-69" x="934.082031"/>
      <use xlink:href="#DejaVuSans-6f" x="961.865234"/>
     </g>
    </g>
   </g>
   <g id="matplotlib.axis_2">
    <g id="ytick_1">
     <g id="line2d_7">
      <path d="M 34.16 288.453725 
L 453.192 288.453725 
" clip-path="url(#p039a5321c7)" style="fill: none; stroke: #b0b0b0; stroke-width: 0.8; stroke-linecap: square"/>
     </g>
     <g id="line2d_8">
      <defs>
       <path id="md998338741" d="M 0 0 
L -3.5 0 
" style="stroke: #000000; stroke-width: 0.8"/>
      </defs>
      <g>
       <use xlink:href="#md998338741" x="34.16" y="288.453725" style="stroke: #000000; stroke-width: 0.8"/>
      </g>
     </g>
    </g>
    <g id="ytick_2">
     <g id="line2d_9">
      <path d="M 34.16 217.796863 
L 453.192 217.796863 
" clip-path="url(#p039a5321c7)" style="fill: none; stroke: #b0b0b0; stroke-width: 0.8; stroke-linecap: square"/>
     </g>
     <g id="line2d_10">
      <g>
       <use xlink:href="#md998338741" x="34.16" y="217.796863" style="stroke: #000000; stroke-width: 0.8"/>
      </g>
     </g>
    </g>
    <g id="ytick_3">
     <g id="line2d_11">
      <path d="M 34.16 147.14 
L 453.192 147.14 
" clip-path="url(#p039a5321c7)" style="fill: none; stroke: #b0b0b0; stroke-width: 0.8; stroke-linecap: square"/>
     </g>
     <g id="line2d_12">
      <g>
       <use xlink:href="#md998338741" x="34.16" y="147.14" style="stroke: #000000; stroke-width: 0.8"/>
      </g>
     </g>
    </g>
    <g id="ytick_4">
     <g id="line2d_13">
      <path d="M 34.16 76.483137 
L 453.192 76.483137 
" clip-path="url(#p039a5321c7)" style="fill: none; stroke: #b0b0b0; stroke-width: 0.8; stroke-linecap: square"/>
     </g>
     <g id="line2d_14">
      <g>
       <use xlink:href="#md998338741" x="34.16" y="76.483137" style="stroke: #000000; stroke-width: 0.8"/>
      </g>
     </g>
    </g>
    <g id="ytick_5">
     <g id="line2d_15">
      <path d="M 34.16 5.826275 
L 453.192 5.826275 
" clip-path="url(#p039a5321c7)" style="fill: none; stroke: #b0b0b0; stroke-width: 0.8; stroke-linecap: square"/>
     </g>
     <g id="line2d_16">
      <g>
       <use xlink:href="#md998338741" x="34.16" y="5.826275" style="stroke: #000000; stroke-width: 0.8"/>
      </g>
     </g>
    </g>
    <g id="text_5">
     <!-- proportion of trials -->
     <g transform="translate(19.000625 240.14625)rotate(-90)scale(0.2 -0.2)">
      <defs>
       <path id="DejaVuSans-70" d="M 1159 525 
L 1159 -1331 
L 581 -1331 
L 581 3500 
L 1159 3500 
L 1159 2969 
Q 1341 3281 1617 3432 
Q 1894 3584 2278 3584 
Q 2916 3584 3314 3078 
Q 3713 2572 3713 1747 
Q 3713 922 3314 415 
Q 2916 -91 2278 -91 
Q 1894 -91 1617 61 
Q 1341 213 1159 525 
z
M 3116 1747 
Q 3116 2381 2855 2742 
Q 2594 3103 2138 3103 
Q 1681 3103 1420 2742 
Q 1159 2381 1159 1747 
Q 1159 1113 1420 752 
Q 1681 391 2138 391 
Q 2594 391 2855 752 
Q 3116 1113 3116 1747 
z
" transform="scale(0.015625)"/>
       <path id="DejaVuSans-6e" d="M 3513 2113 
L 3513 0 
L 2938 0 
L 2938 2094 
Q 2938 2591 2744 2837 
Q 2550 3084 2163 3084 
Q 1697 3084 1428 2787 
Q 1159 2491 1159 1978 
L 1159 0 
L 581 0 
L 581 3500 
L 1159 3500 
L 1159 2956 
Q 1366 3272 1645 3428 
Q 1925 3584 2291 3584 
Q 2894 3584 3203 3211 
Q 3513 2838 3513 2113 
z
" transform="scale(0.015625)"/>
      </defs>
      <use xlink:href="#DejaVuSans-70"/>
      <use xlink:href="#DejaVuSans-72" x="63.476562"/>
      <use xlink:href="#DejaVuSans-6f" x="102.339844"/>
      <use xlink:href="#DejaVuSans-70" x="163.521484"/>
      <use xlink:href="#DejaVuSans-6f" x="226.998047"/>
      <use xlink:href="#DejaVuSans-72" x="288.179688"/>
      <use xlink:href="#DejaVuSans-74" x="329.292969"/>
      <use xlink:href="#DejaVuSans-69" x="368.501953"/>
      <use xlink:href="#DejaVuSans-6f" x="396.285156"/>
      <use xlink:href="#DejaVuSans-6e" x="457.466797"/>
      <use xlink:href="#DejaVuSans-20" x="520.845703"/>
      <use xlink:href="#DejaVuSans-6f" x="552.632812"/>
      <use xlink:href="#DejaVuSans-66" x="613.814453"/>
      <use xlink:href="#DejaVuSans-20" x="649.019531"/>
      <use xlink:href="#DejaVuSans-74" x="680.806641"/>
      <use xlink:href="#DejaVuSans-72" x="720.015625"/>
      <use xlink:href="#DejaVuSans-69" x="761.128906"/>
      <use xlink:href="#DejaVuSans-61" x="788.912109"/>
      <use xlink:href="#DejaVuSans-6c" x="850.191406"/>
      <use xlink:href="#DejaVuSans-73" x="877.974609"/>
     </g>
    </g>
   </g>
   <g id="line2d_17">
    <path d="M 34.16 267.518359 
L 214.584368 267.518359 
L 214.584368 266.820513 
L 214.810101 266.820513 
L 214.810101 265.773745 
L 215.256283 265.773745 
L 215.256283 265.075899 
L 217.182074 265.075899 
L 217.182074 264.726977 
L 218.338985 264.726977 
L 218.338985 264.029131 
L 218.564718 264.029131 
L 218.564718 262.982363 
L 218.809425 262.982363 
L 218.809425 262.284517 
L 218.999793 262.284517 
L 219.035158 259.842058 
L 219.225526 259.842058 
L 219.225526 258.795289 
L 219.48134 258.795289 
L 219.48134 258.097444 
L 219.671708 258.097444 
L 219.671708 257.399598 
L 220.936691 257.399598 
L 220.936691 257.050675 
L 221.182145 257.050675 
L 221.182145 256.35283 
L 221.407131 256.35283 
L 221.407878 254.957139 
L 221.597499 254.957139 
L 221.597499 254.608216 
L 221.854061 254.608216 
L 221.854061 253.91037 
L 223.779852 253.91037 
L 223.779852 253.561448 
L 224.340017 253.561448 
L 224.340017 251.467911 
L 224.56575 251.467911 
L 224.56575 250.07222 
L 224.789712 250.07222 
L 224.789712 249.025451 
L 225.451249 249.025451 
L 225.515289 247.62976 
L 225.741022 247.62976 
L 225.741022 246.582992 
L 226.187204 246.582992 
L 226.187204 245.885146 
L 227.631448 245.885146 
L 227.631448 243.79161 
L 227.857181 243.79161 
L 227.857181 242.395919 
L 228.081143 242.395919 
L 228.153016 238.906691 
L 228.284911 238.906691 
L 228.378749 235.417463 
L 228.510644 235.417463 
L 228.602712 232.975004 
L 228.734606 232.975004 
L 228.742681 231.23039 
L 229.089332 231.23039 
L 229.089332 229.136853 
L 229.225634 229.136853 
L 229.315066 224.94978 
L 229.396144 224.94978 
L 229.451367 222.856243 
L 229.539028 222.856243 
L 229.638486 217.622401 
L 229.675329 217.622401 
L 229.77744 215.877787 
L 229.864219 215.877787 
L 229.864219 213.086405 
L 230.003173 213.086405 
L 230.088181 209.9461 
L 230.123265 209.9461 
L 230.200565 208.899332 
L 230.336867 208.899332 
L 230.34012 206.10795 
L 230.449355 206.10795 
L 230.449355 205.410104 
L 230.565853 205.410104 
L 230.565853 204.014413 
L 230.749718 204.014413 
L 230.789816 201.571954 
L 231.451353 201.571954 
L 231.451353 200.874108 
L 232.375147 200.874108 
L 232.375147 200.525185 
L 232.708738 200.525185 
L 232.708738 199.82734 
L 232.934471 199.82734 
L 232.934471 198.780571 
L 233.332917 198.780571 
L 233.380653 195.989189 
L 233.491118 195.989189 
L 233.55865 192.499961 
L 233.650199 192.499961 
L 233.716851 189.010733 
L 233.782613 189.010733 
L 233.875932 186.568274 
L 233.940813 186.568274 
L 233.940813 185.521506 
L 234.099895 185.521506 
L 234.132832 183.776892 
L 234.358565 183.776892 
L 234.44415 182.032278 
L 234.602351 182.032278 
L 234.602351 181.334432 
L 234.761432 181.334432 
L 234.804747 179.938741 
L 235.306444 179.938741 
L 235.306444 179.589818 
L 236.730539 179.589818 
L 236.730539 179.240896 
L 237.761009 179.240896 
L 237.761009 177.147359 
L 237.986742 177.147359 
L 237.986742 175.751668 
L 238.210704 175.751668 
L 238.319106 174.007054 
L 238.544839 174.007054 
L 238.544839 172.960286 
L 238.777268 172.960286 
L 238.872242 171.913517 
L 238.991021 171.913517 
L 238.991021 171.215672 
L 240.872119 171.215672 
L 240.916813 170.168903 
L 241.097852 170.168903 
L 241.097852 169.122135 
L 241.544034 169.122135 
L 241.544034 168.42429 
L 243.450267 168.42429 
L 243.469825 165.98183 
L 243.676 165.98183 
L 243.676 164.586139 
L 243.899963 164.586139 
L 243.899963 163.539371 
L 244.132891 163.539371 
L 244.132891 162.841525 
L 244.358624 162.841525 
L 244.358624 161.794757 
L 244.5615 161.794757 
L 244.5615 161.096911 
L 244.804806 161.096911 
L 244.804806 160.399066 
L 245.119145 160.399066 
L 245.119145 160.050143 
L 246.533891 160.050143 
L 246.533891 157.956606 
L 246.730598 157.956606 
L 246.759624 156.211992 
L 246.983587 156.211992 
L 246.983587 155.165224 
L 247.590582 155.165224 
L 247.645124 154.118456 
L 248.382499 154.118456 
L 248.382499 153.769533 
L 248.761809 153.769533 
L 248.761809 153.42061 
L 253.183433 153.42061 
L 253.183433 153.071687 
L 254.441415 153.071687 
L 254.441415 152.722764 
L 256.244585 152.722764 
L 256.244585 152.373842 
L 257.036502 152.373842 
L 257.036502 152.024919 
L 257.415811 152.024919 
L 257.415811 151.675996 
L 260.005024 151.675996 
L 260.005024 151.327073 
L 260.187526 151.327073 
L 260.187526 150.978151 
L 261.007284 150.978151 
L 261.007284 150.629228 
L 261.15058 150.629228 
L 261.15058 150.280305 
L 261.459145 150.280305 
L 261.525426 149.582459 
L 261.707927 149.582459 
L 261.707927 149.233537 
L 261.837436 149.233537 
L 261.837436 148.884614 
L 262.527685 148.884614 
L 262.586462 148.186768 
L 262.670982 148.186768 
L 262.670982 147.837846 
L 262.893968 147.837846 
L 262.979547 147.14 
L 263.095418 147.14 
L 263.095418 146.791077 
L 263.378379 146.791077 
L 263.378379 146.442154 
L 263.757689 146.442154 
L 263.775041 145.744309 
L 263.925766 145.744309 
L 263.925766 145.046463 
L 264.070056 145.046463 
L 264.151499 143.650772 
L 264.412037 143.650772 
L 264.414369 142.952927 
L 264.597681 142.952927 
L 264.597681 142.255081 
L 264.78371 142.255081 
L 264.78371 141.906158 
L 264.966211 141.906158 
L 264.966211 141.557236 
L 265.295442 141.557236 
L 265.295442 141.208313 
L 265.590458 141.208313 
L 265.590458 140.85939 
L 265.78597 140.85939 
L 265.78597 140.510467 
L 265.929266 140.510467 
L 265.932439 139.812622 
L 266.197877 139.812622 
L 266.237831 139.114776 
L 266.380379 139.114776 
L 266.380379 138.765853 
L 266.523472 138.765853 
L 266.523472 138.416931 
L 267.200137 138.416931 
L 267.200137 138.068008 
L 267.343434 138.068008 
L 267.444212 137.370162 
L 267.651998 137.370162 
L 267.709067 136.323394 
L 268.179313 136.323394 
L 268.179313 135.974471 
L 268.553727 135.974471 
L 268.553727 135.625548 
L 268.848742 135.625548 
L 268.848742 135.276626 
L 268.964613 135.276626 
L 268.964613 134.927703 
L 269.086821 134.927703 
L 269.190723 134.229857 
L 269.437295 134.229857 
L 269.437295 133.880934 
L 269.967894 133.880934 
L 269.967894 133.532012 
L 270.262909 133.532012 
L 270.262909 133.183089 
L 270.467148 133.183089 
L 270.467148 132.834166 
L 270.604891 132.834166 
L 270.604891 132.485243 
L 270.821907 132.485243 
L 270.821907 132.136321 
L 272.222898 132.136321 
L 272.222898 131.787398 
L 272.532677 131.787398 
L 272.532677 131.438475 
L 272.715178 131.438475 
L 272.715178 131.089552 
L 273.200715 131.089552 
L 273.22598 130.391707 
L 273.383217 130.391707 
L 273.436055 129.693861 
L 273.534936 129.693861 
L 273.637065 128.996015 
L 273.678233 128.996015 
L 273.678233 128.647093 
L 273.792513 128.647093 
L 273.792513 128.29817 
L 273.986798 128.29817 
L 273.986798 127.949247 
L 274.202975 127.949247 
L 274.202975 127.600324 
L 274.346272 127.600324 
L 274.346272 127.251402 
L 274.576524 127.251402 
L 274.654836 126.553556 
L 274.746381 126.553556 
L 274.746381 126.204633 
L 274.956456 126.204633 
L 275.046964 125.506788 
L 275.237332 125.506788 
L 275.237332 125.157865 
L 275.42162 125.157865 
L 275.42162 124.808942 
L 275.583125 124.808942 
L 275.669852 124.111097 
L 276.089659 124.111097 
L 276.089659 123.762174 
L 276.302694 123.762174 
L 276.302694 123.413251 
L 276.597709 123.413251 
L 276.597709 123.064328 
L 276.93969 123.064328 
L 276.970732 122.366483 
L 277.103526 122.366483 
L 277.190254 121.668637 
L 277.265748 121.668637 
L 277.265748 121.319714 
L 277.419684 121.319714 
L 277.419684 120.970792 
L 277.54713 120.970792 
L 277.607729 120.272946 
L 278.004666 120.272946 
L 278.01757 119.5751 
L 278.207938 119.5751 
L 278.214741 118.877255 
L 279.418833 118.877255 
L 279.418833 118.528332 
L 279.628908 118.528332 
L 279.628908 118.179409 
L 279.971865 118.179409 
L 279.971865 117.830487 
L 280.361811 117.830487 
L 280.448538 116.783718 
L 280.639903 116.783718 
L 280.639903 116.434795 
L 281.24925 116.434795 
L 281.24925 116.085873 
L 281.752828 116.085873 
L 281.862705 115.039104 
L 283.264885 115.039104 
L 283.264885 114.690182 
L 283.447387 114.690182 
L 283.447387 114.341259 
L 284.267145 114.341259 
L 284.328389 113.643413 
L 284.410442 113.643413 
L 284.510891 112.945568 
L 284.719006 112.945568 
L 284.723434 112.247722 
L 285.003866 112.247722 
L 285.004696 111.549877 
L 285.176384 111.549877 
L 285.187197 110.852031 
L 285.330649 110.852031 
L 285.330649 110.503108 
L 285.473945 110.503108 
L 285.474307 109.805263 
L 285.664675 109.805263 
L 285.753633 109.107417 
L 285.777287 109.107417 
L 285.78251 108.409572 
L 285.963708 108.409572 
L 286.014979 107.01388 
L 286.150252 107.01388 
L 286.153829 106.316035 
L 286.34761 106.316035 
L 286.421671 105.618189 
L 286.458817 105.618189 
L 286.458817 105.269267 
L 286.631746 105.269267 
L 286.631746 104.920344 
L 287.034902 104.920344 
L 287.034902 104.571421 
L 287.217333 104.571421 
L 287.297688 103.873575 
L 287.329918 103.873575 
L 287.329918 103.524653 
L 287.671899 103.524653 
L 287.671899 103.17573 
L 287.847027 103.17573 
L 287.934465 102.128962 
L 288.098406 102.128962 
L 288.197505 101.082193 
L 288.393421 101.082193 
L 288.393421 100.73327 
L 288.726382 100.73327 
L 288.778816 98.639734 
L 288.865544 98.639734 
L 288.966946 96.89512 
L 288.985585 96.89512 
L 289.069728 96.197274 
L 289.105691 96.197274 
L 289.105691 95.848351 
L 289.411709 95.848351 
L 289.413128 94.801583 
L 290.370371 94.801583 
L 290.370371 94.45266 
L 290.555972 94.45266 
L 290.555972 94.103738 
L 290.704073 94.103738 
L 290.769235 93.405892 
L 291.338919 93.405892 
L 291.338919 93.056969 
L 291.767577 93.056969 
L 291.767577 92.708046 
L 291.916883 92.708046 
L 292.027217 91.661278 
L 292.180171 91.661278 
L 292.258361 90.963433 
L 292.443884 90.963433 
L 292.443884 90.61451 
L 293.340977 90.61451 
L 293.340977 90.265587 
L 293.527316 90.265587 
L 293.527316 89.916664 
L 294.556645 89.916664 
L 294.556645 89.567741 
L 294.785298 89.567741 
L 294.785298 89.218819 
L 295.778794 89.218819 
L 295.778794 88.869896 
L 296.012978 88.869896 
L 296.012978 88.520973 
L 296.442322 88.520973 
L 296.485841 87.474205 
L 296.673786 87.474205 
L 296.695916 86.776359 
L 297.109658 86.776359 
L 297.109658 86.427436 
L 297.527251 86.427436 
L 297.549345 85.729591 
L 297.75942 85.729591 
L 297.75942 85.380668 
L 298.225652 85.380668 
L 298.304939 84.682823 
L 298.435727 84.682823 
L 298.435727 84.3339 
L 298.842986 84.3339 
L 298.929714 83.287131 
L 298.972978 83.287131 
L 298.972978 82.938209 
L 299.37362 82.938209 
L 299.37362 82.589286 
L 299.533411 82.589286 
L 299.533411 82.240363 
L 299.90649 82.240363 
L 300.003851 81.193595 
L 300.080264 81.193595 
L 300.080264 80.844672 
L 300.194219 80.844672 
L 300.194219 80.495749 
L 300.37043 80.495749 
L 300.37043 80.146826 
L 300.582796 80.146826 
L 300.669524 79.448981 
L 300.797714 79.448981 
L 300.797714 79.100058 
L 302.319081 79.100058 
L 302.376572 78.402213 
L 303.189282 78.402213 
L 303.189282 78.05329 
L 303.341036 78.05329 
L 303.341036 77.704367 
L 304.983988 77.704367 
L 304.983988 77.355444 
L 306.073698 77.355444 
L 306.073698 77.006521 
L 306.544138 77.006521 
L 306.544138 76.657599 
L 306.709715 76.657599 
L 306.734506 75.959753 
L 307.451434 75.959753 
L 307.537001 75.261908 
L 308.916859 75.261908 
L 308.916859 74.912985 
L 309.037148 74.912985 
L 309.037148 74.564062 
L 310.100652 74.564062 
L 310.100652 74.215139 
L 310.382731 74.215139 
L 310.382731 73.866216 
L 310.776958 73.866216 
L 310.797773 73.168371 
L 310.971866 73.168371 
L 310.971866 72.819448 
L 311.806826 72.819448 
L 311.806826 72.470525 
L 313.250002 72.470525 
L 313.250002 72.121603 
L 313.903164 72.121603 
L 313.903164 71.77268 
L 315.327258 71.77268 
L 315.327258 71.423757 
L 315.9931 71.423757 
L 316.02592 70.376989 
L 316.251653 70.376989 
L 316.251653 69.33022 
L 316.697835 69.33022 
L 316.697835 68.632375 
L 317.512153 68.632375 
L 317.512153 68.283452 
L 318.546112 68.283452 
L 318.623627 67.585606 
L 319.513532 67.585606 
L 319.513532 67.236684 
L 320.163305 67.236684 
L 320.163305 66.887761 
L 320.443451 66.887761 
L 320.443451 66.538838 
L 321.806885 66.538838 
L 321.867545 65.840992 
L 322.066545 65.840992 
L 322.066545 65.49207 
L 323.133911 65.49207 
L 323.133911 65.143147 
L 325.327317 65.143147 
L 325.327317 64.794224 
L 326.05382 64.794224 
L 326.05382 64.445301 
L 328.606832 64.445301 
L 328.606832 64.096379 
L 330.590648 64.096379 
L 330.590648 63.747456 
L 331.867604 63.747456 
L 331.867604 63.398533 
L 340.388179 63.398533 
L 340.388179 63.04961 
L 341.599759 63.04961 
L 341.599759 62.700687 
L 344.142796 62.700687 
L 344.142796 62.351765 
L 344.613237 62.351765 
L 344.613237 62.002842 
L 344.803604 62.002842 
L 344.803604 61.653919 
L 344.978752 61.653919 
L 344.978752 61.304996 
L 345.120192 61.304996 
L 345.120192 60.956074 
L 346.985957 60.956074 
L 346.985957 60.607151 
L 347.949357 60.607151 
L 347.949357 60.258228 
L 351.3191 60.258228 
L 351.3191 59.909305 
L 351.660479 59.909305 
L 351.660479 59.560382 
L 355.406094 59.560382 
L 355.406094 59.21146 
L 355.581252 59.21146 
L 355.581252 58.862537 
L 358.512549 58.862537 
L 358.512549 58.513614 
L 359.936644 58.513614 
L 359.936644 58.164691 
L 364.122918 58.164691 
L 364.122918 57.815769 
L 366.415206 57.815769 
L 366.415206 57.466846 
L 366.67593 57.466846 
L 366.67593 57.117923 
L 369.935639 57.117923 
L 369.936703 56.420077 
L 372.263459 56.420077 
L 372.263459 56.071155 
L 375.234065 56.071155 
L 375.234065 55.722232 
L 376.475926 55.722232 
L 376.475926 55.373309 
L 382.690802 55.373309 
L 382.690802 55.024386 
L 389.729577 55.024386 
L 389.729577 54.675464 
L 393.699914 54.675464 
L 393.699914 54.326541 
L 397.220346 54.326541 
L 397.220346 53.977618 
L 403.760634 53.977618 
L 403.760634 53.628695 
L 414.545024 53.628695 
L 414.545024 53.279772 
L 441.829732 53.279772 
L 441.829732 52.93085 
L 453.192 52.93085 
L 453.192 52.93085 
" clip-path="url(#p039a5321c7)" style="fill: none; stroke: #000000; stroke-width: 3; stroke-linecap: square"/>
   </g>
   <g id="line2d_18">
    <path clip-path="url(#p039a5321c7)" style="fill: none; stroke: #000000; stroke-width: 3; stroke-linecap: square"/>
   </g>
   <g id="line2d_19"/>
   <g id="line2d_20"/>
   <g id="line2d_21"/>
   <g id="line2d_22">
    <path d="M 243.676 291.28 
L 243.676 3 
" clip-path="url(#p039a5321c7)" style="fill: none; stroke: #000000; stroke-width: 1.5; stroke-linecap: square"/>
   </g>
   <g id="line2d_23">
    <path d="M 34.16 147.14 
L 453.192 147.14 
" clip-path="url(#p039a5321c7)" style="fill: none; stroke-dasharray: 2,3.3; stroke-dashoffset: 0; stroke: #000000; stroke-width: 2"/>
   </g>
   <g id="patch_3">
    <path d="M 34.16 291.28 
L 34.16 3 
" style="fill: none; stroke: #000000; stroke-width: 0.8; stroke-linejoin: miter; stroke-linecap: square"/>
   </g>
   <g id="patch_4">
    <path d="M 453.192 291.28 
L 453.192 3 
" style="fill: none; stroke: #000000; stroke-width: 0.8; stroke-linejoin: miter; stroke-linecap: square"/>
   </g>
   <g id="patch_5">
    <path d="M 34.16 291.28 
L 453.192 291.28 
" style="fill: none; stroke: #000000; stroke-width: 0.8; stroke-linejoin: miter; stroke-linecap: square"/>
   </g>
   <g id="patch_6">
    <path d="M 34.16 3 
L 453.192 3 
" style="fill: none; stroke: #000000; stroke-width: 0.8; stroke-linejoin: miter; stroke-linecap: square"/>
   </g>
   <g id="text_6">
    <!-- f15-f19,20-D -->
    <g transform="translate(318.19261 285.5144)scale(0.2 -0.2)">
     <defs>
      <path id="DejaVuSans-35" d="M 691 4666 
L 3169 4666 
L 3169 4134 
L 1269 4134 
L 1269 2991 
Q 1406 3038 1543 3061 
Q 1681 3084 1819 3084 
Q 2600 3084 3056 2656 
Q 3513 2228 3513 1497 
Q 3513 744 3044 326 
Q 2575 -91 1722 -91 
Q 1428 -91 1123 -41 
Q 819 9 494 109 
L 494 744 
Q 775 591 1075 516 
Q 1375 441 1709 441 
Q 2250 441 2565 725 
Q 2881 1009 2881 1497 
Q 2881 1984 2565 2268 
Q 2250 2553 1709 2553 
Q 1456 2553 1204 2497 
Q 953 2441 691 2322 
L 691 4666 
z
" transform="scale(0.015625)"/>
      <path id="DejaVuSans-39" d="M 703 97 
L 703 672 
Q 941 559 1184 500 
Q 1428 441 1663 441 
Q 2288 441 2617 861 
Q 2947 1281 2994 2138 
Q 2813 1869 2534 1725 
Q 2256 1581 1919 1581 
Q 1219 1581 811 2004 
Q 403 2428 403 3163 
Q 403 3881 828 4315 
Q 1253 4750 1959 4750 
Q 2769 4750 3195 4129 
Q 3622 3509 3622 2328 
Q 3622 1225 3098 567 
Q 2575 -91 1691 -91 
Q 1453 -91 1209 -44 
Q 966 3 703 97 
z
M 1959 2075 
Q 2384 2075 2632 2365 
Q 2881 2656 2881 3163 
Q 2881 3666 2632 3958 
Q 2384 4250 1959 4250 
Q 1534 4250 1286 3958 
Q 1038 3666 1038 3163 
Q 1038 2656 1286 2365 
Q 1534 2075 1959 2075 
z
" transform="scale(0.015625)"/>
      <path id="DejaVuSans-2c" d="M 750 794 
L 1409 794 
L 1409 256 
L 897 -744 
L 494 -744 
L 750 256 
L 750 794 
z
" transform="scale(0.015625)"/>
      <path id="DejaVuSans-44" d="M 1259 4147 
L 1259 519 
L 2022 519 
Q 2988 519 3436 956 
Q 3884 1394 3884 2338 
Q 3884 3275 3436 3711 
Q 2988 4147 2022 4147 
L 1259 4147 
z
M 628 4666 
L 1925 4666 
Q 3281 4666 3915 4102 
Q 4550 3538 4550 2338 
Q 4550 1131 3912 565 
Q 3275 0 1925 0 
L 628 0 
L 628 4666 
z
" transform="scale(0.015625)"/>
     </defs>
     <use xlink:href="#DejaVuSans-66"/>
     <use xlink:href="#DejaVuSans-31" x="35.205078"/>
     <use xlink:href="#DejaVuSans-35" x="98.828125"/>
     <use xlink:href="#DejaVuSans-2d" x="162.451172"/>
     <use xlink:href="#DejaVuSans-66" x="198.535156"/>
     <use xlink:href="#DejaVuSans-31" x="233.740234"/>
     <use xlink:href="#DejaVuSans-39" x="297.363281"/>
     <use xlink:href="#DejaVuSans-2c" x="360.986328"/>
     <use xlink:href="#DejaVuSans-32" x="392.773438"/>
     <use xlink:href="#DejaVuSans-30" x="456.396484"/>
     <use xlink:href="#DejaVuSans-2d" x="520.019531"/>
     <use xlink:href="#DejaVuSans-44" x="556.103516"/>
    </g>
   </g>
   <g id="text_7">
    <!-- v2.6.3 -->
    <g style="fill: #808080" transform="translate(227.99475 286.317512)scale(0.1 -0.1)">
     <defs>
      <path id="DejaVuSans-2e" d="M 684 794 
L 1344 794 
L 1344 0 
L 684 0 
L 684 794 
z
" transform="scale(0.015625)"/>
      <path id="DejaVuSans-36" d="M 2113 2584 
Q 1688 2584 1439 2293 
Q 1191 2003 1191 1497 
Q 1191 994 1439 701 
Q 1688 409 2113 409 
Q 2538 409 2786 701 
Q 3034 994 3034 1497 
Q 3034 2003 2786 2293 
Q 2538 2584 2113 2584 
z
M 3366 4563 
L 3366 3988 
Q 3128 4100 2886 4159 
Q 2644 4219 2406 4219 
Q 1781 4219 1451 3797 
Q 1122 3375 1075 2522 
Q 1259 2794 1537 2939 
Q 1816 3084 2150 3084 
Q 2853 3084 3261 2657 
Q 3669 2231 3669 1497 
Q 3669 778 3244 343 
Q 2819 -91 2113 -91 
Q 1303 -91 875 529 
Q 447 1150 447 2328 
Q 447 3434 972 4092 
Q 1497 4750 2381 4750 
Q 2619 4750 2861 4703 
Q 3103 4656 3366 4563 
z
" transform="scale(0.015625)"/>
      <path id="DejaVuSans-33" d="M 2597 2516 
Q 3050 2419 3304 2112 
Q 3559 1806 3559 1356 
Q 3559 666 3084 287 
Q 2609 -91 1734 -91 
Q 1441 -91 1130 -33 
Q 819 25 488 141 
L 488 750 
Q 750 597 1062 519 
Q 1375 441 1716 441 
Q 2309 441 2620 675 
Q 2931 909 2931 1356 
Q 2931 1769 2642 2001 
Q 2353 2234 1838 2234 
L 1294 2234 
L 1294 2753 
L 1863 2753 
Q 2328 2753 2575 2939 
Q 2822 3125 2822 3475 
Q 2822 3834 2567 4026 
Q 2313 4219 1838 4219 
Q 1578 4219 1281 4162 
Q 984 4106 628 3988 
L 628 4550 
Q 988 4650 1302 4700 
Q 1616 4750 1894 4750 
Q 2613 4750 3031 4423 
Q 3450 4097 3450 3541 
Q 3450 3153 3228 2886 
Q 3006 2619 2597 2516 
z
" transform="scale(0.015625)"/>
     </defs>
     <use xlink:href="#DejaVuSans-76"/>
     <use xlink:href="#DejaVuSans-32" x="59.179688"/>
     <use xlink:href="#DejaVuSans-2e" x="122.802734"/>
     <use xlink:href="#DejaVuSans-36" x="154.589844"/>
     <use xlink:href="#DejaVuSans-2e" x="218.212891"/>
     <use xlink:href="#DejaVuSans-33" x="250"/>
    </g>
   </g>
   <g id="legend_1">
    <g id="patch_7">
     <path d="M 48.16 136.425 
L 177.381875 136.425 
Q 181.381875 136.425 181.381875 132.425 
L 181.381875 17 
Q 181.381875 13 177.381875 13 
L 48.16 13 
Q 44.16 13 44.16 17 
L 44.16 132.425 
Q 44.16 136.425 48.16 136.425 
z
" style="fill: #ffffff; opacity: 0.2; stroke: #cccccc; stroke-linejoin: miter"/>
    </g>
    <g id="line2d_24">
     <path d="M 52.16 29.196875 
L 72.16 29.196875 
L 92.16 29.196875 
" style="fill: none; stroke: #000000; stroke-width: 3; stroke-linecap: square"/>
    </g>
    <g id="text_8">
     <!-- 1: 4/4 -->
     <g transform="translate(108.16 36.196875)scale(0.2 -0.2)">
      <defs>
       <path id="DejaVuSans-3a" d="M 750 794 
L 1409 794 
L 1409 0 
L 750 0 
L 750 794 
z
M 750 3309 
L 1409 3309 
L 1409 2516 
L 750 2516 
L 750 3309 
z
" transform="scale(0.015625)"/>
       <path id="DejaVuSans-34" d="M 2419 4116 
L 825 1625 
L 2419 1625 
L 2419 4116 
z
M 2253 4666 
L 3047 4666 
L 3047 1625 
L 3713 1625 
L 3713 1100 
L 3047 1100 
L 3047 0 
L 2419 0 
L 2419 1100 
L 313 1100 
L 313 1709 
L 2253 4666 
z
" transform="scale(0.015625)"/>
       <path id="DejaVuSans-2f" d="M 1625 4666 
L 2156 4666 
L 531 -594 
L 0 -594 
L 1625 4666 
z
" transform="scale(0.015625)"/>
      </defs>
      <use xlink:href="#DejaVuSans-31"/>
      <use xlink:href="#DejaVuSans-3a" x="63.623047"/>
      <use xlink:href="#DejaVuSans-20" x="97.314453"/>
      <use xlink:href="#DejaVuSans-34" x="129.101562"/>
      <use xlink:href="#DejaVuSans-2f" x="192.724609"/>
      <use xlink:href="#DejaVuSans-34" x="226.416016"/>
     </g>
    </g>
    <g id="line2d_25">
     <path d="M 52.16 58.553125 
L 72.16 58.553125 
L 92.16 58.553125 
" style="fill: none; stroke: #00bfbf; stroke-width: 3; stroke-linecap: square"/>
    </g>
    <g id="text_9">
     <!-- -1: 0/0 -->
     <g transform="translate(108.16 65.553125)scale(0.2 -0.2)">
      <use xlink:href="#DejaVuSans-2d"/>
      <use xlink:href="#DejaVuSans-31" x="36.083984"/>
      <use xlink:href="#DejaVuSans-3a" x="99.707031"/>
      <use xlink:href="#DejaVuSans-20" x="133.398438"/>
      <use xlink:href="#DejaVuSans-30" x="165.185547"/>
      <use xlink:href="#DejaVuSans-2f" x="228.808594"/>
      <use xlink:href="#DejaVuSans-30" x="262.5"/>
     </g>
    </g>
    <g id="line2d_26">
     <path d="M 52.16 87.909375 
L 72.16 87.909375 
L 92.16 87.909375 
" style="fill: none; stroke: #bf00bf; stroke-width: 3; stroke-linecap: square"/>
    </g>
    <g id="text_10">
     <!-- -4: 0/0 -->
     <g transform="translate(108.16 94.909375)scale(0.2 -0.2)">
      <use xlink:href="#DejaVuSans-2d"/>
      <use xlink:href="#DejaVuSans-34" x="36.083984"/>
      <use xlink:href="#DejaVuSans-3a" x="99.707031"/>
      <use xlink:href="#DejaVuSans-20" x="133.398438"/>
      <use xlink:href="#DejaVuSans-30" x="165.185547"/>
      <use xlink:href="#DejaVuSans-2f" x="228.808594"/>
      <use xlink:href="#DejaVuSans-30" x="262.5"/>
     </g>
    </g>
    <g id="line2d_27">
     <path d="M 52.16 117.265625 
L 72.16 117.265625 
L 92.16 117.265625 
" style="fill: none; stroke: #ff0000; stroke-width: 3; stroke-linecap: square"/>
    </g>
    <g id="text_11">
     <!-- -8: 0/0 -->
     <g transform="translate(108.16 124.265625)scale(0.2 -0.2)">
      <defs>
       <path id="DejaVuSans-38" d="M 2034 2216 
Q 1584 2216 1326 1975 
Q 1069 1734 1069 1313 
Q 1069 891 1326 650 
Q 1584 409 2034 409 
Q 2484 409 2743 651 
Q 3003 894 3003 1313 
Q 3003 1734 2745 1975 
Q 2488 2216 2034 2216 
z
M 1403 2484 
Q 997 2584 770 2862 
Q 544 3141 544 3541 
Q 544 4100 942 4425 
Q 1341 4750 2034 4750 
Q 2731 4750 3128 4425 
Q 3525 4100 3525 3541 
Q 3525 3141 3298 2862 
Q 3072 2584 2669 2484 
Q 3125 2378 3379 2068 
Q 3634 1759 3634 1313 
Q 3634 634 3220 271 
Q 2806 -91 2034 -91 
Q 1263 -91 848 271 
Q 434 634 434 1313 
Q 434 1759 690 2068 
Q 947 2378 1403 2484 
z
M 1172 3481 
Q 1172 3119 1398 2916 
Q 1625 2713 2034 2713 
Q 2441 2713 2670 2916 
Q 2900 3119 2900 3481 
Q 2900 3844 2670 4047 
Q 2441 4250 2034 4250 
Q 1625 4250 1398 4047 
Q 1172 3844 1172 3481 
z
" transform="scale(0.015625)"/>
      </defs>
      <use xlink:href="#DejaVuSans-2d"/>
      <use xlink:href="#DejaVuSans-38" x="36.083984"/>
      <use xlink:href="#DejaVuSans-3a" x="99.707031"/>
      <use xlink:href="#DejaVuSans-20" x="133.398438"/>
      <use xlink:href="#DejaVuSans-30" x="165.185547"/>
      <use xlink:href="#DejaVuSans-2f" x="228.808594"/>
      <use xlink:href="#DejaVuSans-30" x="262.5"/>
     </g>
    </g>
   </g>
  </g>
 </g>
 <defs>
  <clipPath id="p039a5321c7">
   <rect x="34.16" y="3" width="419.032" height="288.28"/>
  </clipPath>
 </defs>
</svg>
