<?xml version="1.0" encoding="utf-8" standalone="no"?>
<!DOCTYPE svg PUBLIC "-//W3C//DTD SVG 1.1//EN"
  "http://www.w3.org/Graphics/SVG/1.1/DTD/svg11.dtd">
<svg xmlns:xlink="http://www.w3.org/1999/xlink" width="460.8pt" height="345.6pt" viewBox="0 0 460.8 345.6" xmlns="http://www.w3.org/2000/svg" version="1.1">
 <metadata>
  <rdf:RDF xmlns:dc="http://purl.org/dc/elements/1.1/" xmlns:cc="http://creativecommons.org/ns#" xmlns:rdf="http://www.w3.org/1999/02/22-rdf-syntax-ns#">
   <cc:Work>
    <dc:type rdf:resource="http://purl.org/dc/dcmitype/StillImage"/>
    <dc:date>2024-01-05T10:25:41.973100</dc:date>
    <dc:format>image/svg+xml</dc:format>
    <dc:creator>
     <cc:Agent>
      <dc:title>Matplotlib v3.5.1, https://matplotlib.org/</dc:title>
     </cc:Agent>
    </dc:creator>
   </cc:Work>
  </rdf:RDF>
 </metadata>
 <defs>
  <style type="text/css">*{stroke-linejoin: round; stroke-linecap: butt}</style>
 </defs>
 <g id="figure_1">
  <g id="patch_1">
   <path d="M 0 345.6 
L 460.8 345.6 
L 460.8 0 
L 0 0 
z
" style="fill: #ffffff"/>
  </g>
  <g id="axes_1">
   <g id="patch_2">
    <path d="M 34.16 291.28 
L 453.192 291.28 
L 453.192 3 
L 34.16 3 
z
" style="fill: #ffffff"/>
   </g>
   <g id="matplotlib.axis_1">
    <g id="xtick_1">
     <g id="line2d_1">
      <path d="M 159.822051 291.28 
L 159.822051 3 
" clip-path="url(#p659d8a43f0)" style="fill: none; stroke: #b0b0b0; stroke-width: 0.8; stroke-linecap: square"/>
     </g>
     <g id="line2d_2">
      <defs>
       <path id="me70e916cfa" d="M 0 0 
L 0 3.5 
" style="stroke: #000000; stroke-width: 0.8"/>
      </defs>
      <g>
       <use xlink:href="#me70e916cfa" x="159.822051" y="291.28" style="stroke: #000000; stroke-width: 0.8"/>
      </g>
     </g>
     <g id="text_1">
      <!-- -1 -->
      <g transform="translate(149.851738 313.476875)scale(0.2 -0.2)">
       <defs>
        <path id="DejaVuSans-2d" d="M 313 2009 
L 1997 2009 
L 1997 1497 
L 313 1497 
L 313 2009 
z
" transform="scale(0.015625)"/>
        <path id="DejaVuSans-31" d="M 794 531 
L 1825 531 
L 1825 4091 
L 703 3866 
L 703 4441 
L 1819 4666 
L 2450 4666 
L 2450 531 
L 3481 531 
L 3481 0 
L 794 0 
L 794 531 
z
" transform="scale(0.015625)"/>
       </defs>
       <use xlink:href="#DejaVuSans-2d"/>
       <use xlink:href="#DejaVuSans-31" x="36.083984"/>
      </g>
     </g>
    </g>
    <g id="xtick_2">
     <g id="line2d_3">
      <path d="M 327.529949 291.28 
L 327.529949 3 
" clip-path="url(#p659d8a43f0)" style="fill: none; stroke: #b0b0b0; stroke-width: 0.8; stroke-linecap: square"/>
     </g>
     <g id="line2d_4">
      <g>
       <use xlink:href="#me70e916cfa" x="327.529949" y="291.28" style="stroke: #000000; stroke-width: 0.8"/>
      </g>
     </g>
     <g id="text_2">
      <!-- 1 -->
      <g transform="translate(321.167449 313.476875)scale(0.2 -0.2)">
       <use xlink:href="#DejaVuSans-31"/>
      </g>
     </g>
    </g>
    <g id="xtick_3">
     <g id="line2d_5">
      <defs>
       <path id="m4a11865825" d="M 0 0 
L 0 2 
" style="stroke: #000000; stroke-width: 0.6"/>
      </defs>
      <g>
       <use xlink:href="#m4a11865825" x="42.59926" y="291.28" style="stroke: #000000; stroke-width: 0.6"/>
      </g>
     </g>
    </g>
    <g id="xtick_4">
     <g id="line2d_6">
      <g>
       <use xlink:href="#m4a11865825" x="50.725547" y="291.28" style="stroke: #000000; stroke-width: 0.6"/>
      </g>
     </g>
    </g>
    <g id="xtick_5">
     <g id="line2d_7">
      <g>
       <use xlink:href="#m4a11865825" x="57.365207" y="291.28" style="stroke: #000000; stroke-width: 0.6"/>
      </g>
     </g>
    </g>
    <g id="xtick_6">
     <g id="line2d_8">
      <g>
       <use xlink:href="#m4a11865825" x="62.97896" y="291.28" style="stroke: #000000; stroke-width: 0.6"/>
      </g>
     </g>
    </g>
    <g id="xtick_7">
     <g id="line2d_9">
      <g>
       <use xlink:href="#m4a11865825" x="67.841814" y="291.28" style="stroke: #000000; stroke-width: 0.6"/>
      </g>
     </g>
    </g>
    <g id="xtick_8">
     <g id="line2d_10">
      <g>
       <use xlink:href="#m4a11865825" x="72.131155" y="291.28" style="stroke: #000000; stroke-width: 0.6"/>
      </g>
     </g>
    </g>
    <g id="xtick_9">
     <g id="line2d_11">
      <g>
       <use xlink:href="#m4a11865825" x="101.210655" y="291.28" style="stroke: #000000; stroke-width: 0.6"/>
      </g>
     </g>
    </g>
    <g id="xtick_10">
     <g id="line2d_12">
      <g>
       <use xlink:href="#m4a11865825" x="115.976603" y="291.28" style="stroke: #000000; stroke-width: 0.6"/>
      </g>
     </g>
    </g>
    <g id="xtick_11">
     <g id="line2d_13">
      <g>
       <use xlink:href="#m4a11865825" x="126.453209" y="291.28" style="stroke: #000000; stroke-width: 0.6"/>
      </g>
     </g>
    </g>
    <g id="xtick_12">
     <g id="line2d_14">
      <g>
       <use xlink:href="#m4a11865825" x="134.579497" y="291.28" style="stroke: #000000; stroke-width: 0.6"/>
      </g>
     </g>
    </g>
    <g id="xtick_13">
     <g id="line2d_15">
      <g>
       <use xlink:href="#m4a11865825" x="141.219157" y="291.28" style="stroke: #000000; stroke-width: 0.6"/>
      </g>
     </g>
    </g>
    <g id="xtick_14">
     <g id="line2d_16">
      <g>
       <use xlink:href="#m4a11865825" x="146.83291" y="291.28" style="stroke: #000000; stroke-width: 0.6"/>
      </g>
     </g>
    </g>
    <g id="xtick_15">
     <g id="line2d_17">
      <g>
       <use xlink:href="#m4a11865825" x="151.695763" y="291.28" style="stroke: #000000; stroke-width: 0.6"/>
      </g>
     </g>
    </g>
    <g id="xtick_16">
     <g id="line2d_18">
      <g>
       <use xlink:href="#m4a11865825" x="155.985104" y="291.28" style="stroke: #000000; stroke-width: 0.6"/>
      </g>
     </g>
    </g>
    <g id="xtick_17">
     <g id="line2d_19">
      <g>
       <use xlink:href="#m4a11865825" x="185.064605" y="291.28" style="stroke: #000000; stroke-width: 0.6"/>
      </g>
     </g>
    </g>
    <g id="xtick_18">
     <g id="line2d_20">
      <g>
       <use xlink:href="#m4a11865825" x="199.830552" y="291.28" style="stroke: #000000; stroke-width: 0.6"/>
      </g>
     </g>
    </g>
    <g id="xtick_19">
     <g id="line2d_21">
      <g>
       <use xlink:href="#m4a11865825" x="210.307159" y="291.28" style="stroke: #000000; stroke-width: 0.6"/>
      </g>
     </g>
    </g>
    <g id="xtick_20">
     <g id="line2d_22">
      <g>
       <use xlink:href="#m4a11865825" x="218.433446" y="291.28" style="stroke: #000000; stroke-width: 0.6"/>
      </g>
     </g>
    </g>
    <g id="xtick_21">
     <g id="line2d_23">
      <g>
       <use xlink:href="#m4a11865825" x="225.073106" y="291.28" style="stroke: #000000; stroke-width: 0.6"/>
      </g>
     </g>
    </g>
    <g id="xtick_22">
     <g id="line2d_24">
      <g>
       <use xlink:href="#m4a11865825" x="230.686859" y="291.28" style="stroke: #000000; stroke-width: 0.6"/>
      </g>
     </g>
    </g>
    <g id="xtick_23">
     <g id="line2d_25">
      <g>
       <use xlink:href="#m4a11865825" x="235.549713" y="291.28" style="stroke: #000000; stroke-width: 0.6"/>
      </g>
     </g>
    </g>
    <g id="xtick_24">
     <g id="line2d_26">
      <g>
       <use xlink:href="#m4a11865825" x="239.839054" y="291.28" style="stroke: #000000; stroke-width: 0.6"/>
      </g>
     </g>
    </g>
    <g id="xtick_25">
     <g id="line2d_27">
      <g>
       <use xlink:href="#m4a11865825" x="268.918554" y="291.28" style="stroke: #000000; stroke-width: 0.6"/>
      </g>
     </g>
    </g>
    <g id="xtick_26">
     <g id="line2d_28">
      <g>
       <use xlink:href="#m4a11865825" x="283.684502" y="291.28" style="stroke: #000000; stroke-width: 0.6"/>
      </g>
     </g>
    </g>
    <g id="xtick_27">
     <g id="line2d_29">
      <g>
       <use xlink:href="#m4a11865825" x="294.161108" y="291.28" style="stroke: #000000; stroke-width: 0.6"/>
      </g>
     </g>
    </g>
    <g id="xtick_28">
     <g id="line2d_30">
      <g>
       <use xlink:href="#m4a11865825" x="302.287395" y="291.28" style="stroke: #000000; stroke-width: 0.6"/>
      </g>
     </g>
    </g>
    <g id="xtick_29">
     <g id="line2d_31">
      <g>
       <use xlink:href="#m4a11865825" x="308.927056" y="291.28" style="stroke: #000000; stroke-width: 0.6"/>
      </g>
     </g>
    </g>
    <g id="xtick_30">
     <g id="line2d_32">
      <g>
       <use xlink:href="#m4a11865825" x="314.540808" y="291.28" style="stroke: #000000; stroke-width: 0.6"/>
      </g>
     </g>
    </g>
    <g id="xtick_31">
     <g id="line2d_33">
      <g>
       <use xlink:href="#m4a11865825" x="319.403662" y="291.28" style="stroke: #000000; stroke-width: 0.6"/>
      </g>
     </g>
    </g>
    <g id="xtick_32">
     <g id="line2d_34">
      <g>
       <use xlink:href="#m4a11865825" x="323.693003" y="291.28" style="stroke: #000000; stroke-width: 0.6"/>
      </g>
     </g>
    </g>
    <g id="xtick_33">
     <g id="line2d_35">
      <g>
       <use xlink:href="#m4a11865825" x="352.772503" y="291.28" style="stroke: #000000; stroke-width: 0.6"/>
      </g>
     </g>
    </g>
    <g id="xtick_34">
     <g id="line2d_36">
      <g>
       <use xlink:href="#m4a11865825" x="367.538451" y="291.28" style="stroke: #000000; stroke-width: 0.6"/>
      </g>
     </g>
    </g>
    <g id="xtick_35">
     <g id="line2d_37">
      <g>
       <use xlink:href="#m4a11865825" x="378.015057" y="291.28" style="stroke: #000000; stroke-width: 0.6"/>
      </g>
     </g>
    </g>
    <g id="xtick_36">
     <g id="line2d_38">
      <g>
       <use xlink:href="#m4a11865825" x="386.141345" y="291.28" style="stroke: #000000; stroke-width: 0.6"/>
      </g>
     </g>
    </g>
    <g id="xtick_37">
     <g id="line2d_39">
      <g>
       <use xlink:href="#m4a11865825" x="392.781005" y="291.28" style="stroke: #000000; stroke-width: 0.6"/>
      </g>
     </g>
    </g>
    <g id="xtick_38">
     <g id="line2d_40">
      <g>
       <use xlink:href="#m4a11865825" x="398.394758" y="291.28" style="stroke: #000000; stroke-width: 0.6"/>
      </g>
     </g>
    </g>
    <g id="xtick_39">
     <g id="line2d_41">
      <g>
       <use xlink:href="#m4a11865825" x="403.257611" y="291.28" style="stroke: #000000; stroke-width: 0.6"/>
      </g>
     </g>
    </g>
    <g id="xtick_40">
     <g id="line2d_42">
      <g>
       <use xlink:href="#m4a11865825" x="407.546952" y="291.28" style="stroke: #000000; stroke-width: 0.6"/>
      </g>
     </g>
    </g>
    <g id="xtick_41">
     <g id="line2d_43">
      <g>
       <use xlink:href="#m4a11865825" x="436.626453" y="291.28" style="stroke: #000000; stroke-width: 0.6"/>
      </g>
     </g>
    </g>
    <g id="xtick_42">
     <g id="line2d_44">
      <g>
       <use xlink:href="#m4a11865825" x="451.3924" y="291.28" style="stroke: #000000; stroke-width: 0.6"/>
      </g>
     </g>
    </g>
    <g id="text_3">
     <!-- log10 of FEvals ratio -->
     <g transform="translate(141.371312 336.833125)scale(0.2 -0.2)">
      <defs>
       <path id="DejaVuSans-6c" d="M 603 4863 
L 1178 4863 
L 1178 0 
L 603 0 
L 603 4863 
z
" transform="scale(0.015625)"/>
       <path id="DejaVuSans-6f" d="M 1959 3097 
Q 1497 3097 1228 2736 
Q 959 2375 959 1747 
Q 959 1119 1226 758 
Q 1494 397 1959 397 
Q 2419 397 2687 759 
Q 2956 1122 2956 1747 
Q 2956 2369 2687 2733 
Q 2419 3097 1959 3097 
z
M 1959 3584 
Q 2709 3584 3137 3096 
Q 3566 2609 3566 1747 
Q 3566 888 3137 398 
Q 2709 -91 1959 -91 
Q 1206 -91 779 398 
Q 353 888 353 1747 
Q 353 2609 779 3096 
Q 1206 3584 1959 3584 
z
" transform="scale(0.015625)"/>
       <path id="DejaVuSans-67" d="M 2906 1791 
Q 2906 2416 2648 2759 
Q 2391 3103 1925 3103 
Q 1463 3103 1205 2759 
Q 947 2416 947 1791 
Q 947 1169 1205 825 
Q 1463 481 1925 481 
Q 2391 481 2648 825 
Q 2906 1169 2906 1791 
z
M 3481 434 
Q 3481 -459 3084 -895 
Q 2688 -1331 1869 -1331 
Q 1566 -1331 1297 -1286 
Q 1028 -1241 775 -1147 
L 775 -588 
Q 1028 -725 1275 -790 
Q 1522 -856 1778 -856 
Q 2344 -856 2625 -561 
Q 2906 -266 2906 331 
L 2906 616 
Q 2728 306 2450 153 
Q 2172 0 1784 0 
Q 1141 0 747 490 
Q 353 981 353 1791 
Q 353 2603 747 3093 
Q 1141 3584 1784 3584 
Q 2172 3584 2450 3431 
Q 2728 3278 2906 2969 
L 2906 3500 
L 3481 3500 
L 3481 434 
z
" transform="scale(0.015625)"/>
       <path id="DejaVuSans-30" d="M 2034 4250 
Q 1547 4250 1301 3770 
Q 1056 3291 1056 2328 
Q 1056 1369 1301 889 
Q 1547 409 2034 409 
Q 2525 409 2770 889 
Q 3016 1369 3016 2328 
Q 3016 3291 2770 3770 
Q 2525 4250 2034 4250 
z
M 2034 4750 
Q 2819 4750 3233 4129 
Q 3647 3509 3647 2328 
Q 3647 1150 3233 529 
Q 2819 -91 2034 -91 
Q 1250 -91 836 529 
Q 422 1150 422 2328 
Q 422 3509 836 4129 
Q 1250 4750 2034 4750 
z
" transform="scale(0.015625)"/>
       <path id="DejaVuSans-20" transform="scale(0.015625)"/>
       <path id="DejaVuSans-66" d="M 2375 4863 
L 2375 4384 
L 1825 4384 
Q 1516 4384 1395 4259 
Q 1275 4134 1275 3809 
L 1275 3500 
L 2222 3500 
L 2222 3053 
L 1275 3053 
L 1275 0 
L 697 0 
L 697 3053 
L 147 3053 
L 147 3500 
L 697 3500 
L 697 3744 
Q 697 4328 969 4595 
Q 1241 4863 1831 4863 
L 2375 4863 
z
" transform="scale(0.015625)"/>
       <path id="DejaVuSans-46" d="M 628 4666 
L 3309 4666 
L 3309 4134 
L 1259 4134 
L 1259 2759 
L 3109 2759 
L 3109 2228 
L 1259 2228 
L 1259 0 
L 628 0 
L 628 4666 
z
" transform="scale(0.015625)"/>
       <path id="DejaVuSans-45" d="M 628 4666 
L 3578 4666 
L 3578 4134 
L 1259 4134 
L 1259 2753 
L 3481 2753 
L 3481 2222 
L 1259 2222 
L 1259 531 
L 3634 531 
L 3634 0 
L 628 0 
L 628 4666 
z
" transform="scale(0.015625)"/>
       <path id="DejaVuSans-76" d="M 191 3500 
L 800 3500 
L 1894 563 
L 2988 3500 
L 3597 3500 
L 2284 0 
L 1503 0 
L 191 3500 
z
" transform="scale(0.015625)"/>
       <path id="DejaVuSans-61" d="M 2194 1759 
Q 1497 1759 1228 1600 
Q 959 1441 959 1056 
Q 959 750 1161 570 
Q 1363 391 1709 391 
Q 2188 391 2477 730 
Q 2766 1069 2766 1631 
L 2766 1759 
L 2194 1759 
z
M 3341 1997 
L 3341 0 
L 2766 0 
L 2766 531 
Q 2569 213 2275 61 
Q 1981 -91 1556 -91 
Q 1019 -91 701 211 
Q 384 513 384 1019 
Q 384 1609 779 1909 
Q 1175 2209 1959 2209 
L 2766 2209 
L 2766 2266 
Q 2766 2663 2505 2880 
Q 2244 3097 1772 3097 
Q 1472 3097 1187 3025 
Q 903 2953 641 2809 
L 641 3341 
Q 956 3463 1253 3523 
Q 1550 3584 1831 3584 
Q 2591 3584 2966 3190 
Q 3341 2797 3341 1997 
z
" transform="scale(0.015625)"/>
       <path id="DejaVuSans-73" d="M 2834 3397 
L 2834 2853 
Q 2591 2978 2328 3040 
Q 2066 3103 1784 3103 
Q 1356 3103 1142 2972 
Q 928 2841 928 2578 
Q 928 2378 1081 2264 
Q 1234 2150 1697 2047 
L 1894 2003 
Q 2506 1872 2764 1633 
Q 3022 1394 3022 966 
Q 3022 478 2636 193 
Q 2250 -91 1575 -91 
Q 1294 -91 989 -36 
Q 684 19 347 128 
L 347 722 
Q 666 556 975 473 
Q 1284 391 1588 391 
Q 1994 391 2212 530 
Q 2431 669 2431 922 
Q 2431 1156 2273 1281 
Q 2116 1406 1581 1522 
L 1381 1569 
Q 847 1681 609 1914 
Q 372 2147 372 2553 
Q 372 3047 722 3315 
Q 1072 3584 1716 3584 
Q 2034 3584 2315 3537 
Q 2597 3491 2834 3397 
z
" transform="scale(0.015625)"/>
       <path id="DejaVuSans-72" d="M 2631 2963 
Q 2534 3019 2420 3045 
Q 2306 3072 2169 3072 
Q 1681 3072 1420 2755 
Q 1159 2438 1159 1844 
L 1159 0 
L 581 0 
L 581 3500 
L 1159 3500 
L 1159 2956 
Q 1341 3275 1631 3429 
Q 1922 3584 2338 3584 
Q 2397 3584 2469 3576 
Q 2541 3569 2628 3553 
L 2631 2963 
z
" transform="scale(0.015625)"/>
       <path id="DejaVuSans-74" d="M 1172 4494 
L 1172 3500 
L 2356 3500 
L 2356 3053 
L 1172 3053 
L 1172 1153 
Q 1172 725 1289 603 
Q 1406 481 1766 481 
L 2356 481 
L 2356 0 
L 1766 0 
Q 1100 0 847 248 
Q 594 497 594 1153 
L 594 3053 
L 172 3053 
L 172 3500 
L 594 3500 
L 594 4494 
L 1172 4494 
z
" transform="scale(0.015625)"/>
       <path id="DejaVuSans-69" d="M 603 3500 
L 1178 3500 
L 1178 0 
L 603 0 
L 603 3500 
z
M 603 4863 
L 1178 4863 
L 1178 4134 
L 603 4134 
L 603 4863 
z
" transform="scale(0.015625)"/>
      </defs>
      <use xlink:href="#DejaVuSans-6c"/>
      <use xlink:href="#DejaVuSans-6f" x="27.783203"/>
      <use xlink:href="#DejaVuSans-67" x="88.964844"/>
      <use xlink:href="#DejaVuSans-31" x="152.441406"/>
      <use xlink:href="#DejaVuSans-30" x="216.064453"/>
      <use xlink:href="#DejaVuSans-20" x="279.6875"/>
      <use xlink:href="#DejaVuSans-6f" x="311.474609"/>
      <use xlink:href="#DejaVuSans-66" x="372.65625"/>
      <use xlink:href="#DejaVuSans-20" x="407.861328"/>
      <use xlink:href="#DejaVuSans-46" x="439.648438"/>
      <use xlink:href="#DejaVuSans-45" x="497.167969"/>
      <use xlink:href="#DejaVuSans-76" x="560.351562"/>
      <use xlink:href="#DejaVuSans-61" x="619.53125"/>
      <use xlink:href="#DejaVuSans-6c" x="680.810547"/>
      <use xlink:href="#DejaVuSans-73" x="708.59375"/>
      <use xlink:href="#DejaVuSans-20" x="760.693359"/>
      <use xlink:href="#DejaVuSans-72" x="792.480469"/>
      <use xlink:href="#DejaVuSans-61" x="833.59375"/>
      <use xlink:href="#DejaVuSans-74" x="894.873047"/>
      <use xlink:href="#DejaVuSans-69" x="934.082031"/>
      <use xlink:href="#DejaVuSans-6f" x="961.865234"/>
     </g>
    </g>
   </g>
   <g id="matplotlib.axis_2">
    <g id="ytick_1">
     <g id="line2d_45">
      <path d="M 34.16 288.453725 
L 453.192 288.453725 
" clip-path="url(#p659d8a43f0)" style="fill: none; stroke: #b0b0b0; stroke-width: 0.8; stroke-linecap: square"/>
     </g>
     <g id="line2d_46">
      <defs>
       <path id="me5f9f652f5" d="M 0 0 
L -3.5 0 
" style="stroke: #000000; stroke-width: 0.8"/>
      </defs>
      <g>
       <use xlink:href="#me5f9f652f5" x="34.16" y="288.453725" style="stroke: #000000; stroke-width: 0.8"/>
      </g>
     </g>
    </g>
    <g id="ytick_2">
     <g id="line2d_47">
      <path d="M 34.16 217.796863 
L 453.192 217.796863 
" clip-path="url(#p659d8a43f0)" style="fill: none; stroke: #b0b0b0; stroke-width: 0.8; stroke-linecap: square"/>
     </g>
     <g id="line2d_48">
      <g>
       <use xlink:href="#me5f9f652f5" x="34.16" y="217.796863" style="stroke: #000000; stroke-width: 0.8"/>
      </g>
     </g>
    </g>
    <g id="ytick_3">
     <g id="line2d_49">
      <path d="M 34.16 147.14 
L 453.192 147.14 
" clip-path="url(#p659d8a43f0)" style="fill: none; stroke: #b0b0b0; stroke-width: 0.8; stroke-linecap: square"/>
     </g>
     <g id="line2d_50">
      <g>
       <use xlink:href="#me5f9f652f5" x="34.16" y="147.14" style="stroke: #000000; stroke-width: 0.8"/>
      </g>
     </g>
    </g>
    <g id="ytick_4">
     <g id="line2d_51">
      <path d="M 34.16 76.483137 
L 453.192 76.483137 
" clip-path="url(#p659d8a43f0)" style="fill: none; stroke: #b0b0b0; stroke-width: 0.8; stroke-linecap: square"/>
     </g>
     <g id="line2d_52">
      <g>
       <use xlink:href="#me5f9f652f5" x="34.16" y="76.483137" style="stroke: #000000; stroke-width: 0.8"/>
      </g>
     </g>
    </g>
    <g id="ytick_5">
     <g id="line2d_53">
      <path d="M 34.16 5.826275 
L 453.192 5.826275 
" clip-path="url(#p659d8a43f0)" style="fill: none; stroke: #b0b0b0; stroke-width: 0.8; stroke-linecap: square"/>
     </g>
     <g id="line2d_54">
      <g>
       <use xlink:href="#me5f9f652f5" x="34.16" y="5.826275" style="stroke: #000000; stroke-width: 0.8"/>
      </g>
     </g>
    </g>
    <g id="text_4">
     <!-- proportion of trials -->
     <g transform="translate(19.000625 240.14625)rotate(-90)scale(0.2 -0.2)">
      <defs>
       <path id="DejaVuSans-70" d="M 1159 525 
L 1159 -1331 
L 581 -1331 
L 581 3500 
L 1159 3500 
L 1159 2969 
Q 1341 3281 1617 3432 
Q 1894 3584 2278 3584 
Q 2916 3584 3314 3078 
Q 3713 2572 3713 1747 
Q 3713 922 3314 415 
Q 2916 -91 2278 -91 
Q 1894 -91 1617 61 
Q 1341 213 1159 525 
z
M 3116 1747 
Q 3116 2381 2855 2742 
Q 2594 3103 2138 3103 
Q 1681 3103 1420 2742 
Q 1159 2381 1159 1747 
Q 1159 1113 1420 752 
Q 1681 391 2138 391 
Q 2594 391 2855 752 
Q 3116 1113 3116 1747 
z
" transform="scale(0.015625)"/>
       <path id="DejaVuSans-6e" d="M 3513 2113 
L 3513 0 
L 2938 0 
L 2938 2094 
Q 2938 2591 2744 2837 
Q 2550 3084 2163 3084 
Q 1697 3084 1428 2787 
Q 1159 2491 1159 1978 
L 1159 0 
L 581 0 
L 581 3500 
L 1159 3500 
L 1159 2956 
Q 1366 3272 1645 3428 
Q 1925 3584 2291 3584 
Q 2894 3584 3203 3211 
Q 3513 2838 3513 2113 
z
" transform="scale(0.015625)"/>
      </defs>
      <use xlink:href="#DejaVuSans-70"/>
      <use xlink:href="#DejaVuSans-72" x="63.476562"/>
      <use xlink:href="#DejaVuSans-6f" x="102.339844"/>
      <use xlink:href="#DejaVuSans-70" x="163.521484"/>
      <use xlink:href="#DejaVuSans-6f" x="226.998047"/>
      <use xlink:href="#DejaVuSans-72" x="288.179688"/>
      <use xlink:href="#DejaVuSans-74" x="329.292969"/>
      <use xlink:href="#DejaVuSans-69" x="368.501953"/>
      <use xlink:href="#DejaVuSans-6f" x="396.285156"/>
      <use xlink:href="#DejaVuSans-6e" x="457.466797"/>
      <use xlink:href="#DejaVuSans-20" x="520.845703"/>
      <use xlink:href="#DejaVuSans-6f" x="552.632812"/>
      <use xlink:href="#DejaVuSans-66" x="613.814453"/>
      <use xlink:href="#DejaVuSans-20" x="649.019531"/>
      <use xlink:href="#DejaVuSans-74" x="680.806641"/>
      <use xlink:href="#DejaVuSans-72" x="720.015625"/>
      <use xlink:href="#DejaVuSans-69" x="761.128906"/>
      <use xlink:href="#DejaVuSans-61" x="788.912109"/>
      <use xlink:href="#DejaVuSans-6c" x="850.191406"/>
      <use xlink:href="#DejaVuSans-73" x="877.974609"/>
     </g>
    </g>
   </g>
   <g id="line2d_55">
    <path d="M 34.16 287.114259 
L 108.437704 287.114259 
L 108.437704 286.310579 
L 112.176092 286.310579 
L 112.176092 285.506899 
L 118.619432 285.506899 
L 118.619432 284.703219 
L 123.650495 284.703219 
L 123.650495 283.899539 
L 132.4575 283.899539 
L 132.4575 283.363752 
L 133.680258 283.363752 
L 133.680258 283.095859 
L 136.832832 283.095859 
L 136.832832 282.560072 
L 137.418646 282.560072 
L 137.418646 282.292179 
L 138.416443 282.292179 
L 138.416443 281.488499 
L 142.253389 281.488499 
L 142.253389 280.952713 
L 143.861986 280.952713 
L 143.861986 280.684819 
L 144.710913 280.684819 
L 144.710913 280.416926 
L 145.056103 280.416926 
L 145.056103 279.881139 
L 148.446206 279.881139 
L 148.446206 279.613246 
L 148.624286 279.613246 
L 148.624286 279.077459 
L 148.893049 279.077459 
L 148.893049 278.809566 
L 149.086245 278.809566 
L 149.086245 278.541673 
L 152.184594 278.541673 
L 152.184594 278.273779 
L 154.506802 278.273779 
L 154.506802 278.005886 
L 156.35111 278.005886 
L 156.35111 276.398526 
L 156.635993 276.398526 
L 156.635993 276.130633 
L 157.309516 276.130633 
L 157.309516 275.594846 
L 158.627934 275.594846 
L 158.627934 275.326953 
L 159.100892 275.326953 
L 159.100892 274.791166 
L 159.71815 274.791166 
L 159.71815 274.523273 
L 160.877699 274.523273 
L 160.877699 274.25538 
L 162.858584 274.25538 
L 162.858584 273.719593 
L 163.658997 273.719593 
L 163.658997 273.183806 
L 165.073439 273.183806 
L 165.073439 272.915913 
L 167.049099 272.915913 
L 167.049099 272.64802 
L 168.737191 272.64802 
L 168.737191 272.380126 
L 169.816302 272.380126 
L 169.816302 271.84434 
L 169.953467 271.84434 
L 169.953467 271.576446 
L 170.787487 271.576446 
L 170.787487 271.04066 
L 171.354305 271.04066 
L 171.354305 270.772766 
L 172.811192 270.772766 
L 172.811192 268.62962 
L 174.328799 268.62962 
L 174.328799 268.361727 
L 174.816321 268.361727 
L 174.816321 268.093833 
L 175.111997 268.093833 
L 175.111997 267.82594 
L 177.024106 267.82594 
L 177.024106 267.558047 
L 177.230827 267.558047 
L 177.230827 267.290153 
L 178.424944 267.290153 
L 178.424944 266.21858 
L 179.105662 266.21858 
L 179.191653 265.682793 
L 179.302512 265.682793 
L 179.302512 265.4149 
L 179.749356 265.4149 
L 179.749356 265.147007 
L 180.937479 265.147007 
L 180.937479 264.61122 
L 181.399438 264.61122 
L 181.399438 264.343327 
L 181.593665 264.343327 
L 181.593665 263.80754 
L 182.069715 263.80754 
L 182.069715 263.539647 
L 182.261891 263.539647 
L 182.261891 263.271754 
L 182.55207 263.271754 
L 182.55207 263.00386 
L 182.942608 263.00386 
L 183.0409 262.468074 
L 183.40677 262.468074 
L 183.480994 261.932287 
L 184.080293 261.932287 
L 184.080293 261.664394 
L 184.61221 261.664394 
L 184.61221 261.3965 
L 184.873437 261.3965 
L 184.873437 261.128607 
L 185.064605 261.128607 
L 185.064605 259.253354 
L 185.54696 259.253354 
L 185.54696 258.98546 
L 186.120253 258.98546 
L 186.120253 258.717567 
L 186.488927 258.717567 
L 186.488927 258.449674 
L 186.819995 258.449674 
L 186.819995 258.181781 
L 187.31794 258.181781 
L 187.414924 257.645994 
L 187.955594 257.645994 
L 188.032362 257.110207 
L 188.101138 257.110207 
L 188.101138 256.574421 
L 188.454707 256.574421 
L 188.454707 256.306527 
L 188.901551 256.306527 
L 188.901551 256.038634 
L 189.48424 256.038634 
L 189.48424 255.502847 
L 189.622709 255.502847 
L 189.622709 255.234954 
L 190.983106 255.234954 
L 190.983106 254.967061 
L 191.414086 254.967061 
L 191.414086 254.431274 
L 191.704265 254.431274 
L 191.704265 254.163381 
L 191.844216 254.163381 
L 191.844216 253.895487 
L 192.193095 253.895487 
L 192.291653 253.359701 
L 192.407694 253.359701 
L 192.407694 253.091807 
L 192.738497 253.091807 
L 192.738497 252.823914 
L 193.190892 252.823914 
L 193.190892 251.216554 
L 193.310883 251.216554 
L 193.310883 250.948661 
L 194.515304 250.948661 
L 194.515304 250.680768 
L 194.786066 250.680768 
L 194.786066 250.412874 
L 195.058856 250.412874 
L 195.058856 249.609194 
L 195.272447 249.609194 
L 195.272447 249.341301 
L 195.507968 249.341301 
L 195.541211 248.805514 
L 196.030041 248.805514 
L 196.030041 248.537621 
L 196.359612 248.537621 
L 196.359612 248.001834 
L 196.596859 248.001834 
L 196.596859 247.733941 
L 196.974635 247.733941 
L 197.027838 246.930261 
L 197.558265 246.930261 
L 197.663208 246.394474 
L 197.828251 246.394474 
L 197.828251 246.126581 
L 198.053746 246.126581 
L 198.053746 245.590795 
L 198.636435 245.590795 
L 198.636435 245.322901 
L 198.931314 245.322901 
L 199.024932 244.787115 
L 199.109394 244.787115 
L 199.109394 244.519221 
L 199.563198 244.519221 
L 199.563198 243.983435 
L 200.039248 243.983435 
L 200.071841 243.447648 
L 200.354551 243.447648 
L 200.354551 242.911861 
L 200.630965 242.911861 
L 200.723083 242.108181 
L 201.459713 242.108181 
L 201.459713 241.840288 
L 201.846254 241.840288 
L 201.846254 241.572395 
L 202.04313 241.572395 
L 202.04313 241.304501 
L 202.473381 241.304501 
L 202.473381 241.036608 
L 202.669702 241.036608 
L 202.669702 240.768715 
L 203.667498 240.768715 
L 203.667498 239.161355 
L 203.795503 239.161355 
L 203.795503 238.893462 
L 204.199147 238.893462 
L 204.199147 238.625568 
L 205.217405 238.625568 
L 205.217405 238.357675 
L 205.346012 238.357675 
L 205.427131 237.553995 
L 205.584641 237.553995 
L 205.584641 237.286102 
L 205.749054 237.286102 
L 205.77161 236.750315 
L 207.263156 236.750315 
L 207.312269 235.946635 
L 207.425191 235.946635 
L 207.504445 235.410848 
L 207.585059 235.410848 
L 207.585059 235.142955 
L 209.0844 235.142955 
L 209.113042 234.339275 
L 209.281251 234.339275 
L 209.281251 234.071382 
L 209.506746 234.071382 
L 209.586 233.535595 
L 209.721345 233.535595 
L 209.721345 232.999809 
L 210.230571 232.999809 
L 210.307159 231.928235 
L 211.003792 231.928235 
L 211.003792 231.660342 
L 211.141179 231.660342 
L 211.141179 231.392449 
L 211.615706 231.392449 
L 211.638488 230.856662 
L 211.953862 230.856662 
L 212.027981 230.320875 
L 212.089401 230.320875 
L 212.175122 229.249302 
L 212.819693 229.249302 
L 212.819693 228.713515 
L 213.249286 228.713515 
L 213.353779 227.909836 
L 213.459733 227.909836 
L 213.459733 227.641942 
L 214.144105 227.641942 
L 214.144105 227.374049 
L 214.382908 227.374049 
L 214.382908 227.106156 
L 214.569333 227.106156 
L 214.675754 226.570369 
L 214.962506 226.570369 
L 214.962506 226.034582 
L 215.141902 226.034582 
L 215.170012 225.230902 
L 215.354094 225.230902 
L 215.354094 224.963009 
L 215.575721 224.963009 
L 215.575721 224.695116 
L 215.920911 224.695116 
L 215.920911 224.427222 
L 216.255017 224.427222 
L 216.321706 223.891436 
L 216.464463 223.891436 
L 216.464463 223.623542 
L 217.059045 223.623542 
L 217.059045 223.087756 
L 217.377798 223.087756 
L 217.377798 222.819862 
L 217.721684 222.819862 
L 217.721684 222.551969 
L 217.858121 222.551969 
L 217.944616 221.480396 
L 218.297813 221.480396 
L 218.297813 221.212503 
L 218.433446 221.212503 
L 218.433446 218.265676 
L 218.88029 218.265676 
L 218.88029 217.997783 
L 219.018006 217.997783 
L 219.018006 217.729889 
L 219.459353 217.729889 
L 219.459353 217.461996 
L 219.861759 217.461996 
L 219.961669 216.658316 
L 220.30141 216.658316 
L 220.338053 216.12253 
L 221.428336 216.12253 
L 221.512798 215.31885 
L 221.556843 215.31885 
L 221.556843 215.050956 
L 221.683004 215.050956 
L 221.683004 214.783063 
L 221.797434 214.783063 
L 221.797434 214.51517 
L 222.090426 214.51517 
L 222.090426 214.247276 
L 222.270392 214.247276 
L 222.339039 213.443596 
L 222.756774 213.443596 
L 222.756774 213.175703 
L 223.02351 213.175703 
L 223.02351 212.90781 
L 223.2963 212.90781 
L 223.2963 212.372023 
L 223.429941 212.372023 
L 223.529995 211.836236 
L 224.066534 211.836236 
L 224.119184 211.30045 
L 224.480065 211.30045 
L 224.480065 211.032556 
L 224.640848 211.032556 
L 224.640848 210.764663 
L 225.073106 210.764663 
L 225.073106 210.228876 
L 225.251186 210.228876 
L 225.251186 209.960983 
L 225.37161 209.960983 
L 225.391163 209.425197 
L 225.504085 209.425197 
L 225.597105 208.88941 
L 226.714372 208.88941 
L 226.810025 208.353623 
L 226.828497 208.353623 
L 226.828497 208.08573 
L 227.215919 208.08573 
L 227.215919 207.549943 
L 227.443386 207.549943 
L 227.443386 207.28205 
L 227.585641 207.28205 
L 227.585641 207.014157 
L 228.174324 207.014157 
L 228.276692 205.942583 
L 228.386053 205.942583 
L 228.386053 205.67469 
L 228.525494 205.67469 
L 228.623526 204.87101 
L 228.910052 204.87101 
L 228.910052 203.799437 
L 229.298715 203.799437 
L 229.298715 203.531544 
L 229.783411 203.531544 
L 229.837932 202.45997 
L 229.965701 202.45997 
L 229.965701 202.192077 
L 230.248785 202.192077 
L 230.248785 201.924184 
L 230.409568 201.924184 
L 230.459959 201.388397 
L 231.103458 201.388397 
L 231.103458 201.120504 
L 231.318686 201.120504 
L 231.422587 200.04893 
L 231.742507 200.04893 
L 231.824992 199.513144 
L 231.989405 199.513144 
L 231.989405 198.977357 
L 232.134929 198.977357 
L 232.134929 198.709464 
L 232.554823 198.709464 
L 232.554823 198.44157 
L 232.667745 198.44157 
L 232.667745 198.173677 
L 232.855831 198.173677 
L 232.940194 197.637891 
L 233.199394 197.637891 
L 233.199394 197.369997 
L 233.526008 197.369997 
L 233.544584 196.834211 
L 233.772906 196.834211 
L 233.772906 196.566317 
L 233.906548 196.566317 
L 233.906548 196.298424 
L 234.7493 196.298424 
L 234.831939 195.494744 
L 234.937643 195.494744 
L 234.937643 195.226851 
L 235.139757 195.226851 
L 235.139757 194.958957 
L 235.727793 194.958957 
L 235.747097 194.155277 
L 235.980692 194.155277 
L 235.980692 193.887384 
L 236.368114 193.887384 
L 236.368114 193.351597 
L 236.512341 193.351597 
L 236.512341 193.083704 
L 236.673976 193.083704 
L 236.718283 192.547917 
L 237.03634 192.547917 
L 237.05651 192.012131 
L 237.417676 192.012131 
L 237.417676 191.744238 
L 237.66424 191.744238 
L 237.66424 191.476344 
L 238.062247 191.476344 
L 238.062247 191.208451 
L 238.505825 191.208451 
L 238.586246 190.672664 
L 239.290899 190.672664 
L 239.290899 190.404771 
L 239.485485 190.404771 
L 239.485485 190.136878 
L 239.625462 190.136878 
L 239.625462 189.868984 
L 239.969348 189.868984 
L 240.06412 189.333198 
L 240.20506 189.333198 
L 240.20506 188.797411 
L 240.337728 188.797411 
L 240.39294 188.261624 
L 240.565315 188.261624 
L 240.565315 187.993731 
L 240.802895 187.993731 
L 240.802895 187.725838 
L 241.01419 187.725838 
L 241.0263 187.190051 
L 241.163465 187.190051 
L 241.174973 186.654264 
L 241.560852 186.654264 
L 241.594444 185.850585 
L 241.707017 185.850585 
L 241.707017 185.582691 
L 241.899194 185.582691 
L 241.899194 185.314798 
L 242.219113 185.314798 
L 242.219113 185.046905 
L 242.341884 185.046905 
L 242.388024 184.511118 
L 242.704814 184.511118 
L 242.720737 183.707438 
L 243.676 183.707438 
L 243.676 181.832185 
L 244.040784 181.832185 
L 244.040784 181.564291 
L 244.621957 181.564291 
L 244.731648 181.028505 
L 245.000412 181.028505 
L 245.000412 180.760611 
L 245.543964 180.760611 
L 245.543964 180.492718 
L 245.699704 180.492718 
L 245.793158 179.689038 
L 245.976805 179.689038 
L 246.026319 179.153252 
L 246.443202 179.153252 
L 246.443202 178.885358 
L 246.571615 178.885358 
L 246.571615 178.617465 
L 246.84472 178.617465 
L 246.84472 178.081678 
L 246.988947 178.081678 
L 246.988947 177.813785 
L 247.616847 177.813785 
L 247.616847 177.545892 
L 247.769265 177.545892 
L 247.769265 177.277998 
L 248.110604 177.277998 
L 248.110604 177.010105 
L 248.234105 177.010105 
L 248.234105 176.742212 
L 248.649713 176.742212 
L 248.649713 176.474318 
L 248.982432 176.474318 
L 248.982432 176.206425 
L 249.244486 176.206425 
L 249.289753 175.670638 
L 249.438092 175.670638 
L 249.438092 175.402745 
L 249.75966 175.402745 
L 249.75966 174.866958 
L 250.31566 174.866958 
L 250.31566 174.599065 
L 250.633717 174.599065 
L 250.633717 174.331172 
L 251.330721 174.331172 
L 251.330721 174.063279 
L 251.802287 174.063279 
L 251.802287 173.795385 
L 252.228226 173.795385 
L 252.228226 173.527492 
L 252.388101 173.527492 
L 252.388101 173.259599 
L 252.740124 173.259599 
L 252.828195 172.455919 
L 252.934523 172.455919 
L 253.001446 171.920132 
L 253.769263 171.920132 
L 253.825992 171.116452 
L 253.951516 171.116452 
L 253.951516 170.848559 
L 254.1123 170.848559 
L 254.152606 170.312772 
L 254.442786 170.312772 
L 254.442786 170.044879 
L 255.013206 170.044879 
L 255.013206 169.776985 
L 255.743135 169.776985 
L 255.743135 169.509092 
L 255.929413 169.509092 
L 255.929413 168.705412 
L 256.665141 168.705412 
L 256.736478 167.901732 
L 256.851419 167.901732 
L 256.851419 167.633839 
L 257.33702 167.633839 
L 257.33702 167.365946 
L 257.56438 167.365946 
L 257.56438 167.098052 
L 258.203145 167.098052 
L 258.203145 166.830159 
L 258.441948 166.830159 
L 258.441948 166.026479 
L 258.831441 166.026479 
L 258.876009 165.490692 
L 259.24236 165.490692 
L 259.319515 164.954906 
L 259.444897 164.954906 
L 259.529112 164.151226 
L 259.697841 164.151226 
L 259.766359 163.347546 
L 260.11842 163.347546 
L 260.11842 163.079652 
L 260.989651 163.079652 
L 261.084777 162.275972 
L 261.177639 162.275972 
L 261.177639 162.008079 
L 261.600601 162.008079 
L 261.600601 161.740186 
L 262.206709 161.740186 
L 262.278894 161.204399 
L 262.527054 161.204399 
L 262.540239 160.668613 
L 262.692731 160.668613 
L 262.692731 160.400719 
L 262.906794 160.400719 
L 262.906794 160.132826 
L 263.057903 160.132826 
L 263.057903 159.864933 
L 263.304801 159.864933 
L 263.304801 159.329146 
L 263.862505 159.329146 
L 263.862505 159.061253 
L 264.0557 159.061253 
L 264.0557 158.525466 
L 264.268047 158.525466 
L 264.302598 157.721786 
L 264.728039 157.721786 
L 264.791428 157.185999 
L 265.081608 157.185999 
L 265.081608 156.650213 
L 265.778611 156.650213 
L 265.870461 156.114426 
L 266.219741 156.114426 
L 266.219741 155.310746 
L 266.386602 155.310746 
L 266.386602 155.042853 
L 266.859423 155.042853 
L 266.859423 154.77496 
L 267.044581 154.77496 
L 267.044581 154.239173 
L 267.532946 154.239173 
L 267.532946 153.97128 
L 267.843615 153.97128 
L 267.947368 152.631813 
L 268.040986 152.631813 
L 268.040986 152.36392 
L 268.204466 152.36392 
L 268.204466 152.096026 
L 268.918554 152.096026 
L 268.918554 151.292346 
L 269.501243 151.292346 
L 269.524513 150.75656 
L 269.864511 150.75656 
L 269.941579 150.220773 
L 270.274346 150.220773 
L 270.319392 149.684987 
L 270.819019 149.684987 
L 270.819019 149.417093 
L 271.21936 149.417093 
L 271.276887 148.881307 
L 271.502425 148.881307 
L 271.546095 148.34552 
L 271.639784 148.34552 
L 271.685756 147.809733 
L 271.813335 147.809733 
L 271.833494 147.273947 
L 272.273145 147.273947 
L 272.347957 146.470267 
L 272.969092 146.470267 
L 272.969092 146.202373 
L 273.207895 146.202373 
L 273.293886 145.398693 
L 273.35589 145.398693 
L 273.35589 145.1308 
L 273.507842 145.1308 
L 273.596391 144.595013 
L 274.029413 144.595013 
L 274.029413 144.32712 
L 274.532307 144.32712 
L 274.629765 143.52344 
L 274.827889 143.52344 
L 274.827889 143.255547 
L 275.296869 143.255547 
L 275.296869 142.987654 
L 275.558214 142.987654 
L 275.558214 142.451867 
L 275.989193 142.451867 
L 275.989193 141.91608 
L 276.438047 141.91608 
L 276.438047 141.648187 
L 276.556011 141.648187 
L 276.580263 140.844507 
L 277.044841 140.844507 
L 277.044841 140.040827 
L 277.701027 140.040827 
L 277.711955 139.237147 
L 277.982678 139.237147 
L 277.982678 138.969254 
L 278.177077 138.969254 
L 278.177077 138.70136 
L 278.320436 138.70136 
L 278.320436 138.433467 
L 278.473154 138.433467 
L 278.55637 137.094001 
L 278.628452 137.094001 
L 278.715937 136.558214 
L 278.960621 136.558214 
L 278.960621 136.290321 
L 279.435246 136.290321 
L 279.435246 136.022427 
L 279.596029 136.022427 
L 279.596029 135.754534 
L 280.294399 135.754534 
L 280.294399 135.486641 
L 281.010917 135.486641 
L 281.010917 135.218747 
L 281.295625 135.218747 
L 281.295625 134.950854 
L 281.602946 134.950854 
L 281.602946 134.682961 
L 281.793336 134.682961 
L 281.793336 134.415067 
L 282.838591 134.415067 
L 282.838591 134.147174 
L 283.015331 134.147174 
L 283.015331 133.879281 
L 283.684502 133.879281 
L 283.788551 133.343494 
L 284.738622 133.343494 
L 284.738622 133.075601 
L 284.899405 133.075601 
L 284.940395 132.539814 
L 285.08534 132.539814 
L 285.08534 132.271921 
L 285.457088 132.271921 
L 285.457088 132.004028 
L 285.633408 132.004028 
L 285.633408 131.736134 
L 285.827314 131.736134 
L 285.827314 131.468241 
L 286.306931 131.468241 
L 286.306931 131.200348 
L 286.599441 131.200348 
L 286.61751 130.664561 
L 286.78572 130.664561 
L 286.78572 130.396668 
L 287.290608 130.396668 
L 287.290608 130.128774 
L 287.507384 130.128774 
L 287.507384 129.860881 
L 288.242606 129.860881 
L 288.332221 129.057201 
L 288.715565 129.057201 
L 288.715565 128.789308 
L 289.005744 128.789308 
L 289.005744 128.521414 
L 289.298254 128.521414 
L 289.298254 127.717734 
L 289.751776 127.717734 
L 289.751776 127.449841 
L 290.324162 127.449841 
L 290.324162 127.181948 
L 290.86377 127.181948 
L 290.86377 126.914054 
L 291.337415 126.914054 
L 291.414378 126.378268 
L 291.919335 126.378268 
L 292.010938 125.842481 
L 292.293144 125.842481 
L 292.293144 125.574588 
L 293.334877 125.574588 
L 293.334877 125.306695 
L 293.549038 125.306695 
L 293.571867 124.770908 
L 294.070854 124.770908 
L 294.161108 123.967228 
L 294.419571 123.967228 
L 294.419571 123.699335 
L 295.055152 123.699335 
L 295.055152 123.431441 
L 295.368112 123.431441 
L 295.368112 122.895655 
L 295.758076 122.895655 
L 295.758076 122.627761 
L 295.999796 122.627761 
L 295.999796 122.359868 
L 296.368894 122.359868 
L 296.368894 122.091975 
L 296.527997 122.091975 
L 296.56312 121.288295 
L 296.769667 121.288295 
L 296.769667 121.020401 
L 297.019038 121.020401 
L 297.019038 120.752508 
L 297.172518 120.752508 
L 297.172518 120.484615 
L 297.297064 120.484615 
L 297.297064 120.216721 
L 297.59497 120.216721 
L 297.59497 119.948828 
L 297.734607 119.948828 
L 297.805878 119.413042 
L 297.848044 119.413042 
L 297.848044 119.145148 
L 298.450449 119.145148 
L 298.450449 118.609362 
L 299.600417 118.609362 
L 299.70767 118.073575 
L 299.774861 118.073575 
L 299.784903 117.269895 
L 300.308878 117.269895 
L 300.308878 117.002002 
L 300.43342 117.002002 
L 300.43342 116.734108 
L 300.982401 116.734108 
L 301.061452 116.198322 
L 301.566237 116.198322 
L 301.576524 115.662535 
L 302.287395 115.662535 
L 302.287395 114.590962 
L 302.483716 114.590962 
L 302.483716 114.323068 
L 302.60044 114.323068 
L 302.60044 114.055175 
L 302.848152 114.055175 
L 302.848152 113.787282 
L 303.391035 113.787282 
L 303.481512 112.715709 
L 304.036954 112.715709 
L 304.036954 112.447815 
L 304.199666 112.447815 
L 304.199666 112.179922 
L 304.540731 112.179922 
L 304.540731 111.912029 
L 304.710476 111.912029 
L 304.710476 111.644135 
L 305.009495 111.644135 
L 305.009495 111.376242 
L 305.488909 111.376242 
L 305.488909 111.108349 
L 306.035485 111.108349 
L 306.035485 110.840455 
L 306.204137 110.840455 
L 306.204137 110.572562 
L 306.414521 110.572562 
L 306.414521 110.036775 
L 306.808706 110.036775 
L 306.808706 109.768882 
L 307.11911 109.768882 
L 307.11911 109.500989 
L 307.232922 109.500989 
L 307.232922 108.965202 
L 307.583808 108.965202 
L 307.583808 108.697309 
L 307.758776 108.697309 
L 307.758776 108.429415 
L 307.919559 108.429415 
L 307.919559 108.161522 
L 308.257331 108.161522 
L 308.257331 107.893629 
L 308.746324 107.893629 
L 308.746324 107.625736 
L 308.927056 107.625736 
L 308.927056 107.089949 
L 309.503042 107.089949 
L 309.609952 106.554162 
L 309.910789 106.554162 
L 309.910789 106.286269 
L 310.262678 106.286269 
L 310.262678 106.018376 
L 310.665964 106.018376 
L 310.665964 105.750482 
L 310.896038 105.750482 
L 310.896038 105.482589 
L 311.160546 105.482589 
L 311.192158 104.946802 
L 311.505963 104.946802 
L 311.505963 104.678909 
L 311.841995 104.678909 
L 311.841995 104.143122 
L 312.410076 104.143122 
L 312.474399 103.607336 
L 312.598091 103.607336 
L 312.598091 103.339442 
L 313.01032 103.339442 
L 313.023201 102.535762 
L 314.064758 102.535762 
L 314.114294 101.732083 
L 314.460372 101.732083 
L 314.540808 100.928403 
L 315.274179 100.928403 
L 315.274179 100.660509 
L 315.664888 100.660509 
L 315.696501 99.588936 
L 316.021254 99.588936 
L 316.021254 99.321043 
L 316.138152 99.321043 
L 316.138152 99.053149 
L 316.332185 99.053149 
L 316.332185 98.785256 
L 316.594226 98.785256 
L 316.594226 98.517363 
L 316.759145 98.517363 
L 316.856386 97.713683 
L 317.392505 97.713683 
L 317.392505 97.445789 
L 317.514663 97.445789 
L 317.514663 96.910003 
L 318.075306 96.910003 
L 318.176433 96.106323 
L 318.188448 96.106323 
L 318.188448 95.83843 
L 318.3466 95.83843 
L 318.3466 95.570536 
L 318.481656 95.570536 
L 318.481656 95.302643 
L 318.636954 95.302643 
L 318.674548 94.766856 
L 319.685006 94.766856 
L 319.685006 94.498963 
L 319.897194 94.498963 
L 319.994595 93.695283 
L 320.322707 93.695283 
L 320.322707 93.42739 
L 321.180468 93.42739 
L 321.180468 93.159496 
L 321.611448 93.159496 
L 321.611448 92.62371 
L 321.735302 92.62371 
L 321.746968 92.087923 
L 321.873301 92.087923 
L 321.904913 91.552136 
L 322.188307 91.552136 
L 322.188307 91.284243 
L 323.693003 91.284243 
L 323.783481 90.21267 
L 324.081606 90.21267 
L 324.185662 89.676883 
L 324.425368 89.676883 
L 324.425368 89.40899 
L 324.781668 89.40899 
L 324.88712 88.873203 
L 325.276614 88.873203 
L 325.276614 88.337417 
L 325.554888 88.337417 
L 325.620595 87.80163 
L 326.181006 87.80163 
L 326.181006 87.533737 
L 326.332262 87.533737 
L 326.363874 86.99795 
L 326.482294 86.99795 
L 326.504959 86.462163 
L 326.665742 86.462163 
L 326.665742 86.19427 
L 327.09897 86.19427 
L 327.137094 85.39059 
L 327.600496 85.39059 
L 327.600496 85.122697 
L 327.892314 85.122697 
L 327.892314 84.854803 
L 328.055553 84.854803 
L 328.087165 84.319017 
L 328.182036 84.319017 
L 328.247948 83.515337 
L 328.519916 83.515337 
L 328.519916 83.247444 
L 328.929711 83.247444 
L 329.036663 82.17587 
L 329.306756 82.17587 
L 329.306756 81.907977 
L 329.487487 81.907977 
L 329.487487 81.640084 
L 329.670024 81.640084 
L 329.670024 81.37219 
L 329.905327 81.37219 
L 329.905327 81.104297 
L 330.06611 81.104297 
L 330.089596 80.300617 
L 331.409643 80.300617 
L 331.409643 80.032724 
L 331.735476 80.032724 
L 331.735476 79.76483 
L 332.368837 79.76483 
L 332.368837 79.496937 
L 332.523197 79.496937 
L 332.523197 79.229044 
L 332.774605 79.229044 
L 332.774605 78.96115 
L 333.157125 78.96115 
L 333.162016 78.425364 
L 333.402901 78.425364 
L 333.402901 78.15747 
L 334.74067 78.15747 
L 334.74067 77.889577 
L 335.138123 77.889577 
L 335.138123 77.621684 
L 335.37403 77.621684 
L 335.37403 77.353791 
L 335.749099 77.353791 
L 335.749099 77.085897 
L 335.946416 77.085897 
L 335.946416 76.550111 
L 336.821489 76.550111 
L 336.885201 75.746431 
L 338.372083 75.746431 
L 338.458951 74.942751 
L 339.597084 74.942751 
L 339.597084 74.674857 
L 339.783362 74.674857 
L 339.783362 73.871177 
L 340.18913 73.871177 
L 340.221857 73.335391 
L 340.370304 73.335391 
L 340.432055 72.799604 
L 340.591852 72.799604 
L 340.591852 72.531711 
L 341.320375 72.531711 
L 341.320375 72.263817 
L 341.481158 72.263817 
L 341.481158 71.995924 
L 341.864918 71.995924 
L 341.864918 71.728031 
L 342.187026 71.728031 
L 342.187026 71.460138 
L 342.827789 71.460138 
L 342.827789 71.192244 
L 343.163624 71.192244 
L 343.163624 70.924351 
L 343.712133 70.924351 
L 343.712133 70.656458 
L 344.072703 70.656458 
L 344.138707 70.120671 
L 344.345493 70.120671 
L 344.409995 69.049098 
L 344.646216 69.049098 
L 344.646216 68.781204 
L 345.73388 68.781204 
L 345.73388 68.513311 
L 345.917371 68.513311 
L 345.948983 67.977524 
L 346.228157 67.977524 
L 346.228157 67.709631 
L 346.685598 67.709631 
L 346.685598 67.441738 
L 346.854002 67.441738 
L 346.854002 67.173844 
L 347.440208 67.173844 
L 347.540552 66.638058 
L 347.767145 66.638058 
L 347.767145 66.370164 
L 348.073569 66.370164 
L 348.073569 66.102271 
L 348.935557 66.102271 
L 348.935557 65.834378 
L 349.660092 65.834378 
L 349.660092 65.566485 
L 350.987063 65.566485 
L 350.987063 65.298591 
L 351.269379 65.298591 
L 351.269379 65.030698 
L 351.620423 65.030698 
L 351.636905 64.494911 
L 352.772503 64.494911 
L 352.851586 63.691231 
L 354.669747 63.691231 
L 354.669747 63.423338 
L 354.955078 63.423338 
L 354.955078 63.155445 
L 357.427851 63.155445 
L 357.427851 62.887551 
L 357.643205 62.887551 
L 357.643205 62.619658 
L 357.862257 62.619658 
L 357.862257 62.351765 
L 358.645455 62.351765 
L 358.645455 61.815978 
L 358.963116 61.815978 
L 358.963116 61.548085 
L 359.182193 61.548085 
L 359.182193 61.280191 
L 361.451545 61.280191 
L 361.451545 61.012298 
L 361.661929 61.012298 
L 361.661929 60.744405 
L 361.93761 60.744405 
L 361.93761 60.476511 
L 364.636423 60.476511 
L 364.667122 59.940725 
L 366.084796 59.940725 
L 366.084796 59.672832 
L 367.641616 59.672832 
L 367.641616 59.404938 
L 369.315257 59.404938 
L 369.315257 58.869152 
L 373.638586 58.869152 
L 373.729063 58.333365 
L 375.175908 58.333365 
L 375.175908 57.797578 
L 376.427876 57.797578 
L 376.427876 57.529685 
L 376.61308 57.529685 
L 376.61308 57.261792 
L 377.093051 57.261792 
L 377.093051 56.993898 
L 377.366661 56.993898 
L 377.366661 56.726005 
L 378.914296 56.726005 
L 378.914296 56.458112 
L 379.43307 56.458112 
L 379.43307 56.190218 
L 380.341155 56.190218 
L 380.341155 55.922325 
L 380.913515 55.922325 
L 380.913515 55.654432 
L 382.960584 55.654432 
L 382.960584 55.386538 
L 383.888009 55.386538 
L 383.888009 55.118645 
L 385.405617 55.118645 
L 385.405617 54.850752 
L 388.404533 54.850752 
L 388.404533 54.582858 
L 388.636218 54.582858 
L 388.636218 54.314965 
L 392.132608 54.314965 
L 392.168935 53.779179 
L 395.679463 53.779179 
L 395.679463 53.511285 
L 396.050744 53.511285 
L 396.050744 53.243392 
L 402.547211 53.243392 
L 402.547211 52.975499 
L 414.824729 52.975499 
L 414.824729 52.707605 
L 417.523542 52.707605 
L 417.523542 52.439712 
L 420.528736 52.439712 
L 420.528736 52.171819 
L 429.500199 52.171819 
L 429.500199 51.903925 
L 433.228275 51.903925 
L 433.228275 51.636032 
L 436.775129 51.636032 
L 436.775129 51.368139 
L 453.192 51.368139 
L 453.192 51.368139 
" clip-path="url(#p659d8a43f0)" style="fill: none; stroke: #000000; stroke-width: 3; stroke-linecap: square"/>
   </g>
   <g id="line2d_56">
    <path clip-path="url(#p659d8a43f0)" style="fill: none; stroke: #000000; stroke-width: 3; stroke-linecap: square"/>
   </g>
   <g id="line2d_57">
    <path d="M 34.16 234.983667 
L 187.494034 234.983667 
L 187.494034 234.219809 
L 203.616191 234.219809 
L 203.616191 233.455951 
L 213.364927 233.455951 
L 213.364927 232.692093 
L 213.415402 232.692093 
L 213.415402 231.928235 
L 238.942664 231.928235 
L 238.942664 231.164377 
L 453.192 231.164377 
" clip-path="url(#p659d8a43f0)" style="fill: none; stroke: #00bfbf; stroke-width: 3; stroke-linecap: square"/>
   </g>
   <g id="line2d_58">
    <path clip-path="url(#p659d8a43f0)" style="fill: none; stroke: #00bfbf; stroke-width: 3; stroke-linecap: square"/>
   </g>
   <g id="line2d_59"/>
   <g id="line2d_60"/>
   <g id="line2d_61">
    <path d="M 243.676 291.28 
L 243.676 3 
" clip-path="url(#p659d8a43f0)" style="fill: none; stroke: #000000; stroke-width: 1.5; stroke-linecap: square"/>
   </g>
   <g id="line2d_62">
    <path d="M 34.16 147.14 
L 453.192 147.14 
" clip-path="url(#p659d8a43f0)" style="fill: none; stroke-dasharray: 2,3.3; stroke-dashoffset: 0; stroke: #000000; stroke-width: 2"/>
   </g>
   <g id="patch_3">
    <path d="M 34.16 291.28 
L 34.16 3 
" style="fill: none; stroke: #000000; stroke-width: 0.8; stroke-linejoin: miter; stroke-linecap: square"/>
   </g>
   <g id="patch_4">
    <path d="M 453.192 291.28 
L 453.192 3 
" style="fill: none; stroke: #000000; stroke-width: 0.8; stroke-linejoin: miter; stroke-linecap: square"/>
   </g>
   <g id="patch_5">
    <path d="M 34.16 291.28 
L 453.192 291.28 
" style="fill: none; stroke: #000000; stroke-width: 0.8; stroke-linejoin: miter; stroke-linecap: square"/>
   </g>
   <g id="patch_6">
    <path d="M 34.16 3 
L 453.192 3 
" style="fill: none; stroke: #000000; stroke-width: 0.8; stroke-linejoin: miter; stroke-linecap: square"/>
   </g>
   <g id="text_5">
    <!-- f15-f19,5-D -->
    <g transform="translate(330.91761 285.5144)scale(0.2 -0.2)">
     <defs>
      <path id="DejaVuSans-35" d="M 691 4666 
L 3169 4666 
L 3169 4134 
L 1269 4134 
L 1269 2991 
Q 1406 3038 1543 3061 
Q 1681 3084 1819 3084 
Q 2600 3084 3056 2656 
Q 3513 2228 3513 1497 
Q 3513 744 3044 326 
Q 2575 -91 1722 -91 
Q 1428 -91 1123 -41 
Q 819 9 494 109 
L 494 744 
Q 775 591 1075 516 
Q 1375 441 1709 441 
Q 2250 441 2565 725 
Q 2881 1009 2881 1497 
Q 2881 1984 2565 2268 
Q 2250 2553 1709 2553 
Q 1456 2553 1204 2497 
Q 953 2441 691 2322 
L 691 4666 
z
" transform="scale(0.015625)"/>
      <path id="DejaVuSans-39" d="M 703 97 
L 703 672 
Q 941 559 1184 500 
Q 1428 441 1663 441 
Q 2288 441 2617 861 
Q 2947 1281 2994 2138 
Q 2813 1869 2534 1725 
Q 2256 1581 1919 1581 
Q 1219 1581 811 2004 
Q 403 2428 403 3163 
Q 403 3881 828 4315 
Q 1253 4750 1959 4750 
Q 2769 4750 3195 4129 
Q 3622 3509 3622 2328 
Q 3622 1225 3098 567 
Q 2575 -91 1691 -91 
Q 1453 -91 1209 -44 
Q 966 3 703 97 
z
M 1959 2075 
Q 2384 2075 2632 2365 
Q 2881 2656 2881 3163 
Q 2881 3666 2632 3958 
Q 2384 4250 1959 4250 
Q 1534 4250 1286 3958 
Q 1038 3666 1038 3163 
Q 1038 2656 1286 2365 
Q 1534 2075 1959 2075 
z
" transform="scale(0.015625)"/>
      <path id="DejaVuSans-2c" d="M 750 794 
L 1409 794 
L 1409 256 
L 897 -744 
L 494 -744 
L 750 256 
L 750 794 
z
" transform="scale(0.015625)"/>
      <path id="DejaVuSans-44" d="M 1259 4147 
L 1259 519 
L 2022 519 
Q 2988 519 3436 956 
Q 3884 1394 3884 2338 
Q 3884 3275 3436 3711 
Q 2988 4147 2022 4147 
L 1259 4147 
z
M 628 4666 
L 1925 4666 
Q 3281 4666 3915 4102 
Q 4550 3538 4550 2338 
Q 4550 1131 3912 565 
Q 3275 0 1925 0 
L 628 0 
L 628 4666 
z
" transform="scale(0.015625)"/>
     </defs>
     <use xlink:href="#DejaVuSans-66"/>
     <use xlink:href="#DejaVuSans-31" x="35.205078"/>
     <use xlink:href="#DejaVuSans-35" x="98.828125"/>
     <use xlink:href="#DejaVuSans-2d" x="162.451172"/>
     <use xlink:href="#DejaVuSans-66" x="198.535156"/>
     <use xlink:href="#DejaVuSans-31" x="233.740234"/>
     <use xlink:href="#DejaVuSans-39" x="297.363281"/>
     <use xlink:href="#DejaVuSans-2c" x="360.986328"/>
     <use xlink:href="#DejaVuSans-35" x="392.773438"/>
     <use xlink:href="#DejaVuSans-2d" x="456.396484"/>
     <use xlink:href="#DejaVuSans-44" x="492.480469"/>
    </g>
   </g>
   <g id="text_6">
    <!-- v2.6.3 -->
    <g style="fill: #808080" transform="translate(227.99475 286.317512)scale(0.1 -0.1)">
     <defs>
      <path id="DejaVuSans-32" d="M 1228 531 
L 3431 531 
L 3431 0 
L 469 0 
L 469 531 
Q 828 903 1448 1529 
Q 2069 2156 2228 2338 
Q 2531 2678 2651 2914 
Q 2772 3150 2772 3378 
Q 2772 3750 2511 3984 
Q 2250 4219 1831 4219 
Q 1534 4219 1204 4116 
Q 875 4013 500 3803 
L 500 4441 
Q 881 4594 1212 4672 
Q 1544 4750 1819 4750 
Q 2544 4750 2975 4387 
Q 3406 4025 3406 3419 
Q 3406 3131 3298 2873 
Q 3191 2616 2906 2266 
Q 2828 2175 2409 1742 
Q 1991 1309 1228 531 
z
" transform="scale(0.015625)"/>
      <path id="DejaVuSans-2e" d="M 684 794 
L 1344 794 
L 1344 0 
L 684 0 
L 684 794 
z
" transform="scale(0.015625)"/>
      <path id="DejaVuSans-36" d="M 2113 2584 
Q 1688 2584 1439 2293 
Q 1191 2003 1191 1497 
Q 1191 994 1439 701 
Q 1688 409 2113 409 
Q 2538 409 2786 701 
Q 3034 994 3034 1497 
Q 3034 2003 2786 2293 
Q 2538 2584 2113 2584 
z
M 3366 4563 
L 3366 3988 
Q 3128 4100 2886 4159 
Q 2644 4219 2406 4219 
Q 1781 4219 1451 3797 
Q 1122 3375 1075 2522 
Q 1259 2794 1537 2939 
Q 1816 3084 2150 3084 
Q 2853 3084 3261 2657 
Q 3669 2231 3669 1497 
Q 3669 778 3244 343 
Q 2819 -91 2113 -91 
Q 1303 -91 875 529 
Q 447 1150 447 2328 
Q 447 3434 972 4092 
Q 1497 4750 2381 4750 
Q 2619 4750 2861 4703 
Q 3103 4656 3366 4563 
z
" transform="scale(0.015625)"/>
      <path id="DejaVuSans-33" d="M 2597 2516 
Q 3050 2419 3304 2112 
Q 3559 1806 3559 1356 
Q 3559 666 3084 287 
Q 2609 -91 1734 -91 
Q 1441 -91 1130 -33 
Q 819 25 488 141 
L 488 750 
Q 750 597 1062 519 
Q 1375 441 1716 441 
Q 2309 441 2620 675 
Q 2931 909 2931 1356 
Q 2931 1769 2642 2001 
Q 2353 2234 1838 2234 
L 1294 2234 
L 1294 2753 
L 1863 2753 
Q 2328 2753 2575 2939 
Q 2822 3125 2822 3475 
Q 2822 3834 2567 4026 
Q 2313 4219 1838 4219 
Q 1578 4219 1281 4162 
Q 984 4106 628 3988 
L 628 4550 
Q 988 4650 1302 4700 
Q 1616 4750 1894 4750 
Q 2613 4750 3031 4423 
Q 3450 4097 3450 3541 
Q 3450 3153 3228 2886 
Q 3006 2619 2597 2516 
z
" transform="scale(0.015625)"/>
     </defs>
     <use xlink:href="#DejaVuSans-76"/>
     <use xlink:href="#DejaVuSans-32" x="59.179688"/>
     <use xlink:href="#DejaVuSans-2e" x="122.802734"/>
     <use xlink:href="#DejaVuSans-36" x="154.589844"/>
     <use xlink:href="#DejaVuSans-2e" x="218.212891"/>
     <use xlink:href="#DejaVuSans-33" x="250"/>
    </g>
   </g>
   <g id="legend_1">
    <g id="patch_7">
     <path d="M 48.16 136.425 
L 177.381875 136.425 
Q 181.381875 136.425 181.381875 132.425 
L 181.381875 17 
Q 181.381875 13 177.381875 13 
L 48.16 13 
Q 44.16 13 44.16 17 
L 44.16 132.425 
Q 44.16 136.425 48.16 136.425 
z
" style="fill: #ffffff; opacity: 0.2; stroke: #cccccc; stroke-linejoin: miter"/>
    </g>
    <g id="line2d_63">
     <path d="M 52.16 29.196875 
L 72.16 29.196875 
L 92.16 29.196875 
" style="fill: none; stroke: #000000; stroke-width: 3; stroke-linecap: square"/>
    </g>
    <g id="text_7">
     <!-- 1: 5/5 -->
     <g transform="translate(108.16 36.196875)scale(0.2 -0.2)">
      <defs>
       <path id="DejaVuSans-3a" d="M 750 794 
L 1409 794 
L 1409 0 
L 750 0 
L 750 794 
z
M 750 3309 
L 1409 3309 
L 1409 2516 
L 750 2516 
L 750 3309 
z
" transform="scale(0.015625)"/>
       <path id="DejaVuSans-2f" d="M 1625 4666 
L 2156 4666 
L 531 -594 
L 0 -594 
L 1625 4666 
z
" transform="scale(0.015625)"/>
      </defs>
      <use xlink:href="#DejaVuSans-31"/>
      <use xlink:href="#DejaVuSans-3a" x="63.623047"/>
      <use xlink:href="#DejaVuSans-20" x="97.314453"/>
      <use xlink:href="#DejaVuSans-35" x="129.101562"/>
      <use xlink:href="#DejaVuSans-2f" x="192.724609"/>
      <use xlink:href="#DejaVuSans-35" x="226.416016"/>
     </g>
    </g>
    <g id="line2d_64">
     <path d="M 52.16 58.553125 
L 72.16 58.553125 
L 92.16 58.553125 
" style="fill: none; stroke: #00bfbf; stroke-width: 3; stroke-linecap: square"/>
    </g>
    <g id="text_8">
     <!-- -1: 1/4 -->
     <g transform="translate(108.16 65.553125)scale(0.2 -0.2)">
      <defs>
       <path id="DejaVuSans-34" d="M 2419 4116 
L 825 1625 
L 2419 1625 
L 2419 4116 
z
M 2253 4666 
L 3047 4666 
L 3047 1625 
L 3713 1625 
L 3713 1100 
L 3047 1100 
L 3047 0 
L 2419 0 
L 2419 1100 
L 313 1100 
L 313 1709 
L 2253 4666 
z
" transform="scale(0.015625)"/>
      </defs>
      <use xlink:href="#DejaVuSans-2d"/>
      <use xlink:href="#DejaVuSans-31" x="36.083984"/>
      <use xlink:href="#DejaVuSans-3a" x="99.707031"/>
      <use xlink:href="#DejaVuSans-20" x="133.398438"/>
      <use xlink:href="#DejaVuSans-31" x="165.185547"/>
      <use xlink:href="#DejaVuSans-2f" x="228.808594"/>
      <use xlink:href="#DejaVuSans-34" x="262.5"/>
     </g>
    </g>
    <g id="line2d_65">
     <path d="M 52.16 87.909375 
L 72.16 87.909375 
L 92.16 87.909375 
" style="fill: none; stroke: #bf00bf; stroke-width: 3; stroke-linecap: square"/>
    </g>
    <g id="text_9">
     <!-- -4: 0/0 -->
     <g transform="translate(108.16 94.909375)scale(0.2 -0.2)">
      <use xlink:href="#DejaVuSans-2d"/>
      <use xlink:href="#DejaVuSans-34" x="36.083984"/>
      <use xlink:href="#DejaVuSans-3a" x="99.707031"/>
      <use xlink:href="#DejaVuSans-20" x="133.398438"/>
      <use xlink:href="#DejaVuSans-30" x="165.185547"/>
      <use xlink:href="#DejaVuSans-2f" x="228.808594"/>
      <use xlink:href="#DejaVuSans-30" x="262.5"/>
     </g>
    </g>
    <g id="line2d_66">
     <path d="M 52.16 117.265625 
L 72.16 117.265625 
L 92.16 117.265625 
" style="fill: none; stroke: #ff0000; stroke-width: 3; stroke-linecap: square"/>
    </g>
    <g id="text_10">
     <!-- -8: 0/0 -->
     <g transform="translate(108.16 124.265625)scale(0.2 -0.2)">
      <defs>
       <path id="DejaVuSans-38" d="M 2034 2216 
Q 1584 2216 1326 1975 
Q 1069 1734 1069 1313 
Q 1069 891 1326 650 
Q 1584 409 2034 409 
Q 2484 409 2743 651 
Q 3003 894 3003 1313 
Q 3003 1734 2745 1975 
Q 2488 2216 2034 2216 
z
M 1403 2484 
Q 997 2584 770 2862 
Q 544 3141 544 3541 
Q 544 4100 942 4425 
Q 1341 4750 2034 4750 
Q 2731 4750 3128 4425 
Q 3525 4100 3525 3541 
Q 3525 3141 3298 2862 
Q 3072 2584 2669 2484 
Q 3125 2378 3379 2068 
Q 3634 1759 3634 1313 
Q 3634 634 3220 271 
Q 2806 -91 2034 -91 
Q 1263 -91 848 271 
Q 434 634 434 1313 
Q 434 1759 690 2068 
Q 947 2378 1403 2484 
z
M 1172 3481 
Q 1172 3119 1398 2916 
Q 1625 2713 2034 2713 
Q 2441 2713 2670 2916 
Q 2900 3119 2900 3481 
Q 2900 3844 2670 4047 
Q 2441 4250 2034 4250 
Q 1625 4250 1398 4047 
Q 1172 3844 1172 3481 
z
" transform="scale(0.015625)"/>
      </defs>
      <use xlink:href="#DejaVuSans-2d"/>
      <use xlink:href="#DejaVuSans-38" x="36.083984"/>
      <use xlink:href="#DejaVuSans-3a" x="99.707031"/>
      <use xlink:href="#DejaVuSans-20" x="133.398438"/>
      <use xlink:href="#DejaVuSans-30" x="165.185547"/>
      <use xlink:href="#DejaVuSans-2f" x="228.808594"/>
      <use xlink:href="#DejaVuSans-30" x="262.5"/>
     </g>
    </g>
   </g>
  </g>
 </g>
 <defs>
  <clipPath id="p659d8a43f0">
   <rect x="34.16" y="3" width="419.032" height="288.28"/>
  </clipPath>
 </defs>
</svg>
