<?xml version="1.0" encoding="utf-8" standalone="no"?>
<!DOCTYPE svg PUBLIC "-//W3C//DTD SVG 1.1//EN"
  "http://www.w3.org/Graphics/SVG/1.1/DTD/svg11.dtd">
<svg xmlns:xlink="http://www.w3.org/1999/xlink" width="460.8pt" height="345.6pt" viewBox="0 0 460.8 345.6" xmlns="http://www.w3.org/2000/svg" version="1.1">
 <metadata>
  <rdf:RDF xmlns:dc="http://purl.org/dc/elements/1.1/" xmlns:cc="http://creativecommons.org/ns#" xmlns:rdf="http://www.w3.org/1999/02/22-rdf-syntax-ns#">
   <cc:Work>
    <dc:type rdf:resource="http://purl.org/dc/dcmitype/StillImage"/>
    <dc:date>2024-01-05T10:25:37.334622</dc:date>
    <dc:format>image/svg+xml</dc:format>
    <dc:creator>
     <cc:Agent>
      <dc:title>Matplotlib v3.5.1, https://matplotlib.org/</dc:title>
     </cc:Agent>
    </dc:creator>
   </cc:Work>
  </rdf:RDF>
 </metadata>
 <defs>
  <style type="text/css">*{stroke-linejoin: round; stroke-linecap: butt}</style>
 </defs>
 <g id="figure_1">
  <g id="patch_1">
   <path d="M 0 345.6 
L 460.8 345.6 
L 460.8 0 
L 0 0 
z
" style="fill: #ffffff"/>
  </g>
  <g id="axes_1">
   <g id="patch_2">
    <path d="M 34.16 291.28 
L 453.192 291.28 
L 453.192 3 
L 34.16 3 
z
" style="fill: #ffffff"/>
   </g>
   <g id="matplotlib.axis_1">
    <g id="xtick_1">
     <g id="line2d_1">
      <path d="M 105.172082 291.28 
L 105.172082 3 
" clip-path="url(#p1c9cb0d957)" style="fill: none; stroke: #b0b0b0; stroke-width: 0.8; stroke-linecap: square"/>
     </g>
     <g id="line2d_2">
      <defs>
       <path id="m4a1445a975" d="M 0 0 
L 0 3.5 
" style="stroke: #000000; stroke-width: 0.8"/>
      </defs>
      <g>
       <use xlink:href="#m4a1445a975" x="105.172082" y="291.28" style="stroke: #000000; stroke-width: 0.8"/>
      </g>
     </g>
     <g id="text_1">
      <!-- -2 -->
      <g transform="translate(95.20177 313.476875)scale(0.2 -0.2)">
       <defs>
        <path id="DejaVuSans-2d" d="M 313 2009 
L 1997 2009 
L 1997 1497 
L 313 1497 
L 313 2009 
z
" transform="scale(0.015625)"/>
        <path id="DejaVuSans-32" d="M 1228 531 
L 3431 531 
L 3431 0 
L 469 0 
L 469 531 
Q 828 903 1448 1529 
Q 2069 2156 2228 2338 
Q 2531 2678 2651 2914 
Q 2772 3150 2772 3378 
Q 2772 3750 2511 3984 
Q 2250 4219 1831 4219 
Q 1534 4219 1204 4116 
Q 875 4013 500 3803 
L 500 4441 
Q 881 4594 1212 4672 
Q 1544 4750 1819 4750 
Q 2544 4750 2975 4387 
Q 3406 4025 3406 3419 
Q 3406 3131 3298 2873 
Q 3191 2616 2906 2266 
Q 2828 2175 2409 1742 
Q 1991 1309 1228 531 
z
" transform="scale(0.015625)"/>
       </defs>
       <use xlink:href="#DejaVuSans-2d"/>
       <use xlink:href="#DejaVuSans-32" x="36.083984"/>
      </g>
     </g>
    </g>
    <g id="xtick_2">
     <g id="line2d_3">
      <path d="M 243.676 291.28 
L 243.676 3 
" clip-path="url(#p1c9cb0d957)" style="fill: none; stroke: #b0b0b0; stroke-width: 0.8; stroke-linecap: square"/>
     </g>
     <g id="line2d_4">
      <g>
       <use xlink:href="#m4a1445a975" x="243.676" y="291.28" style="stroke: #000000; stroke-width: 0.8"/>
      </g>
     </g>
     <g id="text_2">
      <!-- 0 -->
      <g transform="translate(237.3135 313.476875)scale(0.2 -0.2)">
       <defs>
        <path id="DejaVuSans-30" d="M 2034 4250 
Q 1547 4250 1301 3770 
Q 1056 3291 1056 2328 
Q 1056 1369 1301 889 
Q 1547 409 2034 409 
Q 2525 409 2770 889 
Q 3016 1369 3016 2328 
Q 3016 3291 2770 3770 
Q 2525 4250 2034 4250 
z
M 2034 4750 
Q 2819 4750 3233 4129 
Q 3647 3509 3647 2328 
Q 3647 1150 3233 529 
Q 2819 -91 2034 -91 
Q 1250 -91 836 529 
Q 422 1150 422 2328 
Q 422 3509 836 4129 
Q 1250 4750 2034 4750 
z
" transform="scale(0.015625)"/>
       </defs>
       <use xlink:href="#DejaVuSans-30"/>
      </g>
     </g>
    </g>
    <g id="xtick_3">
     <g id="line2d_5">
      <path d="M 382.179918 291.28 
L 382.179918 3 
" clip-path="url(#p1c9cb0d957)" style="fill: none; stroke: #b0b0b0; stroke-width: 0.8; stroke-linecap: square"/>
     </g>
     <g id="line2d_6">
      <g>
       <use xlink:href="#m4a1445a975" x="382.179918" y="291.28" style="stroke: #000000; stroke-width: 0.8"/>
      </g>
     </g>
     <g id="text_3">
      <!-- 2 -->
      <g transform="translate(375.817418 313.476875)scale(0.2 -0.2)">
       <use xlink:href="#DejaVuSans-32"/>
      </g>
     </g>
    </g>
    <g id="text_4">
     <!-- log10 of FEvals ratio -->
     <g transform="translate(141.371312 336.833125)scale(0.2 -0.2)">
      <defs>
       <path id="DejaVuSans-6c" d="M 603 4863 
L 1178 4863 
L 1178 0 
L 603 0 
L 603 4863 
z
" transform="scale(0.015625)"/>
       <path id="DejaVuSans-6f" d="M 1959 3097 
Q 1497 3097 1228 2736 
Q 959 2375 959 1747 
Q 959 1119 1226 758 
Q 1494 397 1959 397 
Q 2419 397 2687 759 
Q 2956 1122 2956 1747 
Q 2956 2369 2687 2733 
Q 2419 3097 1959 3097 
z
M 1959 3584 
Q 2709 3584 3137 3096 
Q 3566 2609 3566 1747 
Q 3566 888 3137 398 
Q 2709 -91 1959 -91 
Q 1206 -91 779 398 
Q 353 888 353 1747 
Q 353 2609 779 3096 
Q 1206 3584 1959 3584 
z
" transform="scale(0.015625)"/>
       <path id="DejaVuSans-67" d="M 2906 1791 
Q 2906 2416 2648 2759 
Q 2391 3103 1925 3103 
Q 1463 3103 1205 2759 
Q 947 2416 947 1791 
Q 947 1169 1205 825 
Q 1463 481 1925 481 
Q 2391 481 2648 825 
Q 2906 1169 2906 1791 
z
M 3481 434 
Q 3481 -459 3084 -895 
Q 2688 -1331 1869 -1331 
Q 1566 -1331 1297 -1286 
Q 1028 -1241 775 -1147 
L 775 -588 
Q 1028 -725 1275 -790 
Q 1522 -856 1778 -856 
Q 2344 -856 2625 -561 
Q 2906 -266 2906 331 
L 2906 616 
Q 2728 306 2450 153 
Q 2172 0 1784 0 
Q 1141 0 747 490 
Q 353 981 353 1791 
Q 353 2603 747 3093 
Q 1141 3584 1784 3584 
Q 2172 3584 2450 3431 
Q 2728 3278 2906 2969 
L 2906 3500 
L 3481 3500 
L 3481 434 
z
" transform="scale(0.015625)"/>
       <path id="DejaVuSans-31" d="M 794 531 
L 1825 531 
L 1825 4091 
L 703 3866 
L 703 4441 
L 1819 4666 
L 2450 4666 
L 2450 531 
L 3481 531 
L 3481 0 
L 794 0 
L 794 531 
z
" transform="scale(0.015625)"/>
       <path id="DejaVuSans-20" transform="scale(0.015625)"/>
       <path id="DejaVuSans-66" d="M 2375 4863 
L 2375 4384 
L 1825 4384 
Q 1516 4384 1395 4259 
Q 1275 4134 1275 3809 
L 1275 3500 
L 2222 3500 
L 2222 3053 
L 1275 3053 
L 1275 0 
L 697 0 
L 697 3053 
L 147 3053 
L 147 3500 
L 697 3500 
L 697 3744 
Q 697 4328 969 4595 
Q 1241 4863 1831 4863 
L 2375 4863 
z
" transform="scale(0.015625)"/>
       <path id="DejaVuSans-46" d="M 628 4666 
L 3309 4666 
L 3309 4134 
L 1259 4134 
L 1259 2759 
L 3109 2759 
L 3109 2228 
L 1259 2228 
L 1259 0 
L 628 0 
L 628 4666 
z
" transform="scale(0.015625)"/>
       <path id="DejaVuSans-45" d="M 628 4666 
L 3578 4666 
L 3578 4134 
L 1259 4134 
L 1259 2753 
L 3481 2753 
L 3481 2222 
L 1259 2222 
L 1259 531 
L 3634 531 
L 3634 0 
L 628 0 
L 628 4666 
z
" transform="scale(0.015625)"/>
       <path id="DejaVuSans-76" d="M 191 3500 
L 800 3500 
L 1894 563 
L 2988 3500 
L 3597 3500 
L 2284 0 
L 1503 0 
L 191 3500 
z
" transform="scale(0.015625)"/>
       <path id="DejaVuSans-61" d="M 2194 1759 
Q 1497 1759 1228 1600 
Q 959 1441 959 1056 
Q 959 750 1161 570 
Q 1363 391 1709 391 
Q 2188 391 2477 730 
Q 2766 1069 2766 1631 
L 2766 1759 
L 2194 1759 
z
M 3341 1997 
L 3341 0 
L 2766 0 
L 2766 531 
Q 2569 213 2275 61 
Q 1981 -91 1556 -91 
Q 1019 -91 701 211 
Q 384 513 384 1019 
Q 384 1609 779 1909 
Q 1175 2209 1959 2209 
L 2766 2209 
L 2766 2266 
Q 2766 2663 2505 2880 
Q 2244 3097 1772 3097 
Q 1472 3097 1187 3025 
Q 903 2953 641 2809 
L 641 3341 
Q 956 3463 1253 3523 
Q 1550 3584 1831 3584 
Q 2591 3584 2966 3190 
Q 3341 2797 3341 1997 
z
" transform="scale(0.015625)"/>
       <path id="DejaVuSans-73" d="M 2834 3397 
L 2834 2853 
Q 2591 2978 2328 3040 
Q 2066 3103 1784 3103 
Q 1356 3103 1142 2972 
Q 928 2841 928 2578 
Q 928 2378 1081 2264 
Q 1234 2150 1697 2047 
L 1894 2003 
Q 2506 1872 2764 1633 
Q 3022 1394 3022 966 
Q 3022 478 2636 193 
Q 2250 -91 1575 -91 
Q 1294 -91 989 -36 
Q 684 19 347 128 
L 347 722 
Q 666 556 975 473 
Q 1284 391 1588 391 
Q 1994 391 2212 530 
Q 2431 669 2431 922 
Q 2431 1156 2273 1281 
Q 2116 1406 1581 1522 
L 1381 1569 
Q 847 1681 609 1914 
Q 372 2147 372 2553 
Q 372 3047 722 3315 
Q 1072 3584 1716 3584 
Q 2034 3584 2315 3537 
Q 2597 3491 2834 3397 
z
" transform="scale(0.015625)"/>
       <path id="DejaVuSans-72" d="M 2631 2963 
Q 2534 3019 2420 3045 
Q 2306 3072 2169 3072 
Q 1681 3072 1420 2755 
Q 1159 2438 1159 1844 
L 1159 0 
L 581 0 
L 581 3500 
L 1159 3500 
L 1159 2956 
Q 1341 3275 1631 3429 
Q 1922 3584 2338 3584 
Q 2397 3584 2469 3576 
Q 2541 3569 2628 3553 
L 2631 2963 
z
" transform="scale(0.015625)"/>
       <path id="DejaVuSans-74" d="M 1172 4494 
L 1172 3500 
L 2356 3500 
L 2356 3053 
L 1172 3053 
L 1172 1153 
Q 1172 725 1289 603 
Q 1406 481 1766 481 
L 2356 481 
L 2356 0 
L 1766 0 
Q 1100 0 847 248 
Q 594 497 594 1153 
L 594 3053 
L 172 3053 
L 172 3500 
L 594 3500 
L 594 4494 
L 1172 4494 
z
" transform="scale(0.015625)"/>
       <path id="DejaVuSans-69" d="M 603 3500 
L 1178 3500 
L 1178 0 
L 603 0 
L 603 3500 
z
M 603 4863 
L 1178 4863 
L 1178 4134 
L 603 4134 
L 603 4863 
z
" transform="scale(0.015625)"/>
      </defs>
      <use xlink:href="#DejaVuSans-6c"/>
      <use xlink:href="#DejaVuSans-6f" x="27.783203"/>
      <use xlink:href="#DejaVuSans-67" x="88.964844"/>
      <use xlink:href="#DejaVuSans-31" x="152.441406"/>
      <use xlink:href="#DejaVuSans-30" x="216.064453"/>
      <use xlink:href="#DejaVuSans-20" x="279.6875"/>
      <use xlink:href="#DejaVuSans-6f" x="311.474609"/>
      <use xlink:href="#DejaVuSans-66" x="372.65625"/>
      <use xlink:href="#DejaVuSans-20" x="407.861328"/>
      <use xlink:href="#DejaVuSans-46" x="439.648438"/>
      <use xlink:href="#DejaVuSans-45" x="497.167969"/>
      <use xlink:href="#DejaVuSans-76" x="560.351562"/>
      <use xlink:href="#DejaVuSans-61" x="619.53125"/>
      <use xlink:href="#DejaVuSans-6c" x="680.810547"/>
      <use xlink:href="#DejaVuSans-73" x="708.59375"/>
      <use xlink:href="#DejaVuSans-20" x="760.693359"/>
      <use xlink:href="#DejaVuSans-72" x="792.480469"/>
      <use xlink:href="#DejaVuSans-61" x="833.59375"/>
      <use xlink:href="#DejaVuSans-74" x="894.873047"/>
      <use xlink:href="#DejaVuSans-69" x="934.082031"/>
      <use xlink:href="#DejaVuSans-6f" x="961.865234"/>
     </g>
    </g>
   </g>
   <g id="matplotlib.axis_2">
    <g id="ytick_1">
     <g id="line2d_7">
      <path d="M 34.16 288.453725 
L 453.192 288.453725 
" clip-path="url(#p1c9cb0d957)" style="fill: none; stroke: #b0b0b0; stroke-width: 0.8; stroke-linecap: square"/>
     </g>
     <g id="line2d_8">
      <defs>
       <path id="mac0f5b995a" d="M 0 0 
L -3.5 0 
" style="stroke: #000000; stroke-width: 0.8"/>
      </defs>
      <g>
       <use xlink:href="#mac0f5b995a" x="34.16" y="288.453725" style="stroke: #000000; stroke-width: 0.8"/>
      </g>
     </g>
    </g>
    <g id="ytick_2">
     <g id="line2d_9">
      <path d="M 34.16 217.796863 
L 453.192 217.796863 
" clip-path="url(#p1c9cb0d957)" style="fill: none; stroke: #b0b0b0; stroke-width: 0.8; stroke-linecap: square"/>
     </g>
     <g id="line2d_10">
      <g>
       <use xlink:href="#mac0f5b995a" x="34.16" y="217.796863" style="stroke: #000000; stroke-width: 0.8"/>
      </g>
     </g>
    </g>
    <g id="ytick_3">
     <g id="line2d_11">
      <path d="M 34.16 147.14 
L 453.192 147.14 
" clip-path="url(#p1c9cb0d957)" style="fill: none; stroke: #b0b0b0; stroke-width: 0.8; stroke-linecap: square"/>
     </g>
     <g id="line2d_12">
      <g>
       <use xlink:href="#mac0f5b995a" x="34.16" y="147.14" style="stroke: #000000; stroke-width: 0.8"/>
      </g>
     </g>
    </g>
    <g id="ytick_4">
     <g id="line2d_13">
      <path d="M 34.16 76.483137 
L 453.192 76.483137 
" clip-path="url(#p1c9cb0d957)" style="fill: none; stroke: #b0b0b0; stroke-width: 0.8; stroke-linecap: square"/>
     </g>
     <g id="line2d_14">
      <g>
       <use xlink:href="#mac0f5b995a" x="34.16" y="76.483137" style="stroke: #000000; stroke-width: 0.8"/>
      </g>
     </g>
    </g>
    <g id="ytick_5">
     <g id="line2d_15">
      <path d="M 34.16 5.826275 
L 453.192 5.826275 
" clip-path="url(#p1c9cb0d957)" style="fill: none; stroke: #b0b0b0; stroke-width: 0.8; stroke-linecap: square"/>
     </g>
     <g id="line2d_16">
      <g>
       <use xlink:href="#mac0f5b995a" x="34.16" y="5.826275" style="stroke: #000000; stroke-width: 0.8"/>
      </g>
     </g>
    </g>
    <g id="text_5">
     <!-- proportion of trials -->
     <g transform="translate(19.000625 240.14625)rotate(-90)scale(0.2 -0.2)">
      <defs>
       <path id="DejaVuSans-70" d="M 1159 525 
L 1159 -1331 
L 581 -1331 
L 581 3500 
L 1159 3500 
L 1159 2969 
Q 1341 3281 1617 3432 
Q 1894 3584 2278 3584 
Q 2916 3584 3314 3078 
Q 3713 2572 3713 1747 
Q 3713 922 3314 415 
Q 2916 -91 2278 -91 
Q 1894 -91 1617 61 
Q 1341 213 1159 525 
z
M 3116 1747 
Q 3116 2381 2855 2742 
Q 2594 3103 2138 3103 
Q 1681 3103 1420 2742 
Q 1159 2381 1159 1747 
Q 1159 1113 1420 752 
Q 1681 391 2138 391 
Q 2594 391 2855 752 
Q 3116 1113 3116 1747 
z
" transform="scale(0.015625)"/>
       <path id="DejaVuSans-6e" d="M 3513 2113 
L 3513 0 
L 2938 0 
L 2938 2094 
Q 2938 2591 2744 2837 
Q 2550 3084 2163 3084 
Q 1697 3084 1428 2787 
Q 1159 2491 1159 1978 
L 1159 0 
L 581 0 
L 581 3500 
L 1159 3500 
L 1159 2956 
Q 1366 3272 1645 3428 
Q 1925 3584 2291 3584 
Q 2894 3584 3203 3211 
Q 3513 2838 3513 2113 
z
" transform="scale(0.015625)"/>
      </defs>
      <use xlink:href="#DejaVuSans-70"/>
      <use xlink:href="#DejaVuSans-72" x="63.476562"/>
      <use xlink:href="#DejaVuSans-6f" x="102.339844"/>
      <use xlink:href="#DejaVuSans-70" x="163.521484"/>
      <use xlink:href="#DejaVuSans-6f" x="226.998047"/>
      <use xlink:href="#DejaVuSans-72" x="288.179688"/>
      <use xlink:href="#DejaVuSans-74" x="329.292969"/>
      <use xlink:href="#DejaVuSans-69" x="368.501953"/>
      <use xlink:href="#DejaVuSans-6f" x="396.285156"/>
      <use xlink:href="#DejaVuSans-6e" x="457.466797"/>
      <use xlink:href="#DejaVuSans-20" x="520.845703"/>
      <use xlink:href="#DejaVuSans-6f" x="552.632812"/>
      <use xlink:href="#DejaVuSans-66" x="613.814453"/>
      <use xlink:href="#DejaVuSans-20" x="649.019531"/>
      <use xlink:href="#DejaVuSans-74" x="680.806641"/>
      <use xlink:href="#DejaVuSans-72" x="720.015625"/>
      <use xlink:href="#DejaVuSans-69" x="761.128906"/>
      <use xlink:href="#DejaVuSans-61" x="788.912109"/>
      <use xlink:href="#DejaVuSans-6c" x="850.191406"/>
      <use xlink:href="#DejaVuSans-73" x="877.974609"/>
     </g>
    </g>
   </g>
   <g id="line2d_17">
    <path d="M 34.16 232.260738 
L 70.488564 232.194238 
L 70.488564 232.127737 
L 77.593913 232.061236 
L 77.593913 231.994736 
L 81.894695 231.928235 
L 81.894695 231.861735 
L 87.131599 231.795234 
L 87.131599 231.728734 
L 89.788578 231.662233 
L 89.788578 231.595732 
L 94.08936 231.529232 
L 94.08936 231.462731 
L 97.619691 231.396231 
L 97.619691 231.32973 
L 100.321823 231.26323 
L 100.321823 231.196729 
L 102.330424 231.130228 
L 102.330424 231.063728 
L 107.554374 230.997227 
L 107.554374 230.930727 
L 109.45282 230.864226 
L 109.45282 230.797725 
L 112.469985 230.731225 
L 112.469985 230.664724 
L 116.921048 230.598224 
L 116.921048 230.531723 
L 117.835183 230.465223 
L 117.835183 230.398722 
L 121.041029 230.332221 
L 121.07103 230.19922 
L 123.958573 230.13272 
L 123.958573 230.066219 
L 125.521868 229.999719 
L 125.521868 229.933218 
L 126.626611 229.866717 
L 126.626611 229.800217 
L 127.879948 229.800217 
L 127.879948 229.733716 
L 127.879948 229.600715 
L 128.645875 229.534215 
L 128.645875 229.467714 
L 129.863683 229.401213 
L 129.863683 229.268212 
L 130.360403 229.201712 
L 130.360403 229.135211 
L 131.262807 229.06871 
L 131.262807 228.935709 
L 131.987559 228.869209 
L 131.987559 228.802708 
L 133.265695 228.736208 
L 133.265695 228.669707 
L 133.88805 228.603206 
L 133.88805 228.536706 
L 134.160037 228.470205 
L 134.160037 228.403705 
L 135.074959 228.403705 
L 135.074959 228.337204 
L 135.112499 228.204203 
L 136.269856 228.137702 
L 136.344578 228.004701 
L 137.765878 227.938201 
L 137.765878 227.8717 
L 138.06366 227.8052 
L 138.113578 227.539197 
L 139.915059 227.472697 
L 139.915059 227.339696 
L 140.396281 227.273195 
L 140.396281 227.206694 
L 141.297259 227.140194 
L 141.297259 227.073693 
L 142.674928 227.007193 
L 142.749774 226.874191 
L 143.753787 226.807691 
L 143.77914 226.67469 
L 144.551256 226.608189 
L 144.551256 226.408687 
L 145.439463 226.342187 
L 145.439463 226.275686 
L 146.235668 226.209186 
L 146.235668 226.142685 
L 147.631323 226.076185 
L 147.631323 226.009684 
L 148.093668 226.009684 
L 148.093668 225.943183 
L 148.093668 225.876683 
L 148.46452 225.810182 
L 148.46452 225.743682 
L 148.726865 225.743682 
L 148.726865 225.677181 
L 148.726865 225.54418 
L 149.37368 225.477679 
L 149.37368 225.344678 
L 149.732441 225.278178 
L 149.732441 225.211677 
L 150.026359 225.145176 
L 150.066555 225.012175 
L 150.258324 225.012175 
L 150.258324 224.945675 
L 150.333233 224.812674 
L 150.7106 224.812674 
L 150.7106 224.746173 
L 150.7106 224.613172 
L 151.435352 224.546671 
L 151.435352 224.480171 
L 151.862863 224.41367 
L 151.862863 224.34717 
L 152.109724 224.280669 
L 152.109724 224.081167 
L 152.796881 224.014667 
L 152.796881 223.948166 
L 153.079993 223.881666 
L 153.079993 223.815165 
L 153.511813 223.748664 
L 153.577124 223.482662 
L 154.082611 223.416161 
L 154.082611 223.349661 
L 154.528586 223.28316 
L 154.528586 223.21666 
L 155.051656 223.150159 
L 155.119808 222.950657 
L 155.941144 222.884157 
L 155.941144 222.817656 
L 156.63011 222.751156 
L 156.645584 222.618155 
L 156.74592 222.618155 
L 156.74592 222.551654 
L 156.74592 222.485153 
L 157.457805 222.418653 
L 157.457805 222.352152 
L 157.858751 222.285652 
L 157.898005 222.152651 
L 158.171578 222.08615 
L 158.171578 222.019649 
L 158.465002 221.953149 
L 158.465002 221.687146 
L 158.974773 221.620646 
L 159.060581 221.421144 
L 159.238531 221.354644 
L 159.238531 221.288143 
L 159.39007 221.221642 
L 159.39007 221.155142 
L 160.483419 221.088641 
L 160.546138 220.756138 
L 160.761976 220.689638 
L 160.818592 220.556637 
L 160.921529 220.556637 
L 160.921529 220.490136 
L 160.964018 220.290634 
L 161.229537 220.224134 
L 161.249458 220.091133 
L 161.568345 220.024632 
L 161.568345 219.958131 
L 161.86104 219.891631 
L 161.879819 219.75863 
L 162.585307 219.692129 
L 162.585307 219.625629 
L 162.905264 219.559128 
L 162.905264 219.359626 
L 163.328231 219.293126 
L 163.328231 219.226625 
L 163.673651 219.160125 
L 163.768657 219.027123 
L 163.829631 218.960623 
L 163.939066 218.761121 
L 163.969279 218.694621 
L 163.969279 218.62812 
L 164.304388 218.62812 
L 164.304388 218.561619 
L 164.351814 217.963114 
L 164.801191 217.896614 
L 164.801191 217.830113 
L 165.398172 217.763612 
L 165.469913 217.364609 
L 165.621785 217.364609 
L 165.621785 217.298108 
L 165.621785 217.231608 
L 165.879395 217.165107 
L 165.903927 217.032106 
L 166.533241 217.032106 
L 166.533241 216.965606 
L 166.533241 216.899105 
L 166.715569 216.832604 
L 166.750493 216.699603 
L 167.187303 216.633103 
L 167.225425 216.500101 
L 167.473184 216.500101 
L 167.473184 216.433601 
L 167.473184 216.3671 
L 167.945897 216.3006 
L 167.945897 216.234099 
L 168.140724 216.167599 
L 168.232888 216.034597 
L 168.678967 215.968097 
L 168.678967 215.901596 
L 169.101973 215.835096 
L 169.120142 215.702095 
L 169.311083 215.635594 
L 169.311083 215.569093 
L 169.573782 215.502593 
L 169.573782 215.436092 
L 169.776759 215.369592 
L 169.776759 215.303091 
L 170.092669 215.236591 
L 170.092669 215.17009 
L 170.300298 215.103589 
L 170.300298 215.037089 
L 170.533563 214.970588 
L 170.533563 214.904088 
L 170.779142 214.837587 
L 170.800537 214.704586 
L 170.955982 214.638085 
L 170.955982 214.571585 
L 171.219942 214.505084 
L 171.219942 214.438584 
L 171.841433 214.372083 
L 171.904358 214.172581 
L 172.256768 214.106081 
L 172.329517 213.840078 
L 172.656631 213.773578 
L 172.735223 213.640577 
L 172.956641 213.574076 
L 172.979749 213.441075 
L 173.1797 213.374574 
L 173.279235 213.042072 
L 173.437863 213.042072 
L 173.437863 212.975571 
L 173.466411 212.84257 
L 173.568428 212.776069 
L 173.625018 212.510067 
L 173.857179 212.443566 
L 173.963857 212.244065 
L 174.00029 212.177564 
L 174.00029 212.111063 
L 174.204609 212.044563 
L 174.261699 211.845061 
L 174.40525 211.778561 
L 174.40525 211.71206 
L 174.748486 211.645559 
L 174.856793 211.246556 
L 175.137759 211.180055 
L 175.137759 211.113555 
L 175.289262 211.047054 
L 175.387061 210.914053 
L 175.538085 210.847552 
L 175.578168 210.648051 
L 175.791356 210.58155 
L 175.816346 210.249047 
L 176.000909 210.182547 
L 176.100904 209.916544 
L 176.28499 209.850044 
L 176.28499 209.584042 
L 176.606659 209.517541 
L 176.693748 209.251539 
L 176.864307 209.185038 
L 176.864307 209.118537 
L 177.185968 209.052037 
L 177.271904 208.919036 
L 177.518115 208.852535 
L 177.592837 207.522524 
L 177.761329 207.456023 
L 177.780109 207.323022 
L 177.966454 207.256521 
L 177.966454 207.190021 
L 178.134513 207.12352 
L 178.134513 207.05702 
L 178.268725 207.05702 
L 178.268725 206.990519 
L 178.354289 206.791017 
L 178.564235 206.724517 
L 178.564235 206.658016 
L 178.835511 206.591516 
L 178.857469 206.458514 
L 179.085604 206.392014 
L 179.139148 206.192512 
L 179.209632 206.126012 
L 179.311919 205.860009 
L 179.56096 205.793509 
L 179.667849 205.394505 
L 179.729921 205.394505 
L 179.729921 205.328005 
L 179.829444 204.929001 
L 179.940703 204.862501 
L 179.960559 204.729499 
L 180.200375 204.662999 
L 180.219786 204.529998 
L 180.376243 204.463497 
L 180.477791 204.263995 
L 180.664781 204.197495 
L 180.727659 203.997993 
L 180.904511 203.931493 
L 180.997917 203.798491 
L 181.266462 203.731991 
L 181.266462 203.66549 
L 181.768446 203.59899 
L 181.804217 203.465988 
L 182.008239 203.399488 
L 182.008239 203.332987 
L 182.148774 203.266487 
L 182.239746 202.667982 
L 182.415261 202.601481 
L 182.494138 202.401979 
L 182.695306 202.335479 
L 182.796191 201.936475 
L 183.238953 201.869975 
L 183.319261 201.603972 
L 183.455461 201.537472 
L 183.455461 201.470971 
L 183.752181 201.404471 
L 183.832117 201.271469 
L 184.024741 201.204969 
L 184.024741 201.138468 
L 184.139316 201.138468 
L 184.139316 201.071968 
L 184.24443 200.539963 
L 184.520568 200.473463 
L 184.545641 200.273961 
L 184.677662 200.20746 
L 184.677662 200.074459 
L 184.913551 200.007958 
L 184.965077 199.608955 
L 185.151305 199.608955 
L 185.151305 199.542454 
L 185.217734 199.07695 
L 185.477333 199.01045 
L 185.544458 198.744448 
L 185.878912 198.677947 
L 185.878912 198.611446 
L 186.338059 198.544946 
L 186.422206 198.212443 
L 186.572998 198.145942 
L 186.618706 197.946441 
L 186.718476 197.87994 
L 186.755725 197.613938 
L 186.857878 197.547437 
L 186.911 197.414436 
L 187.100381 197.347935 
L 187.124192 197.081933 
L 187.380158 197.015433 
L 187.39414 196.74943 
L 187.631639 196.68293 
L 187.707122 196.416927 
L 187.916835 196.350427 
L 187.942942 196.217426 
L 188.16139 196.150925 
L 188.204202 195.685421 
L 188.459664 195.61892 
L 188.459664 195.55242 
L 188.652433 195.485919 
L 188.701126 195.286418 
L 188.801323 195.219917 
L 188.894981 195.020415 
L 189.054417 194.953915 
L 189.054417 194.887414 
L 189.277731 194.820913 
L 189.311815 194.687912 
L 189.779791 194.621412 
L 189.846072 193.889905 
L 189.986679 193.823405 
L 189.992475 193.690404 
L 190.345509 193.623903 
L 190.425584 193.490902 
L 190.540158 193.490902 
L 190.540158 193.424401 
L 190.619557 193.2914 
L 190.752342 193.2249 
L 190.781832 193.091899 
L 191.032818 193.025398 
L 191.055664 192.892397 
L 191.186626 192.825896 
L 191.280619 192.626394 
L 191.473222 192.559894 
L 191.536971 192.293892 
L 191.60642 192.227391 
L 191.711413 191.828388 
L 191.862514 191.828388 
L 191.862514 191.761887 
L 191.862514 191.562385 
L 192.088494 191.495885 
L 192.178141 191.163382 
L 192.404434 191.096881 
L 192.435733 190.897379 
L 192.569595 190.830879 
L 192.660853 190.631377 
L 192.786595 190.564877 
L 192.826121 190.431875 
L 192.956297 190.431875 
L 192.956297 190.365375 
L 193.022874 190.032872 
L 193.215514 189.966371 
L 193.269823 189.633869 
L 193.329914 189.633869 
L 193.329914 189.567368 
L 193.410009 189.234865 
L 193.489347 189.168364 
L 193.599653 188.968863 
L 193.755321 188.902362 
L 193.826061 188.63636 
L 194.100197 188.569859 
L 194.185073 188.436858 
L 194.214772 188.436858 
L 194.214772 188.370358 
L 194.320209 188.037855 
L 194.359502 187.971354 
L 194.462829 187.838353 
L 194.609926 187.838353 
L 194.609926 187.771852 
L 194.65724 187.638851 
L 194.807849 187.572351 
L 194.807849 187.50585 
L 195.012426 187.439349 
L 195.108824 187.239848 
L 195.158033 187.173347 
L 195.233387 187.040346 
L 195.270958 187.040346 
L 195.270958 186.973845 
L 195.270958 186.508341 
L 195.668003 186.441841 
L 195.718467 186.175839 
L 195.849356 186.175839 
L 195.849356 186.109338 
L 195.946846 185.843336 
L 196.14278 185.776835 
L 196.240547 185.577333 
L 196.30307 185.510833 
L 196.37851 185.17833 
L 196.54001 185.111829 
L 196.54001 185.045329 
L 196.80209 184.978828 
L 196.904944 184.712826 
L 197.227364 184.646325 
L 197.337677 184.313822 
L 197.34597 184.313822 
L 197.34597 184.247322 
L 197.456507 183.715317 
L 197.668278 183.648817 
L 197.778722 183.449315 
L 197.833673 183.382814 
L 197.89624 183.183313 
L 197.948247 183.116812 
L 198.010814 182.85081 
L 198.189538 182.784309 
L 198.2896 182.451806 
L 198.375558 182.385306 
L 198.439754 182.052803 
L 198.532724 181.986302 
L 198.627026 181.853301 
L 198.920976 181.7868 
L 199.030942 181.387797 
L 199.072951 181.321296 
L 199.155583 181.055294 
L 199.27293 180.988794 
L 199.353187 180.855792 
L 199.495151 180.789292 
L 199.574822 180.58979 
L 199.633872 180.52329 
L 199.742574 180.323788 
L 199.879659 180.257287 
L 199.879659 180.190787 
L 199.998431 180.124286 
L 200.034504 179.858284 
L 200.158836 179.791783 
L 200.257283 179.592281 
L 200.306628 179.525781 
L 200.308413 179.39278 
L 200.46366 179.326279 
L 200.489049 179.193278 
L 200.60441 179.193278 
L 200.60441 179.126777 
L 200.663288 178.927276 
L 200.826068 178.860775 
L 200.857288 178.727774 
L 200.960341 178.661273 
L 201.047291 178.26227 
L 201.13112 178.195769 
L 201.202435 177.863266 
L 201.259504 177.796766 
L 201.274469 177.597264 
L 201.55148 177.530764 
L 201.62053 177.397762 
L 201.781947 177.331262 
L 201.839016 177.13176 
L 201.896521 177.06526 
L 201.982166 176.267253 
L 202.03847 176.200752 
L 202.094599 175.93475 
L 202.272755 175.868249 
L 202.272755 175.801749 
L 202.487653 175.735248 
L 202.487653 175.602247 
L 202.640398 175.535746 
L 202.664521 175.402745 
L 202.793412 175.336245 
L 202.848962 175.136743 
L 202.937032 175.136743 
L 202.937032 175.070242 
L 202.937032 174.937241 
L 203.07595 174.937241 
L 203.07595 174.87074 
L 203.161758 174.405236 
L 203.272162 174.338736 
L 203.272162 174.272235 
L 203.52485 174.272235 
L 203.52485 174.205735 
L 203.635133 174.006233 
L 203.833566 173.939732 
L 203.941955 173.540729 
L 204.250592 173.474228 
L 204.314153 173.341227 
L 204.544646 173.274727 
L 204.65333 172.676221 
L 204.690071 172.609721 
L 204.705319 172.47672 
L 204.927163 172.410219 
L 205.022707 172.011216 
L 205.045776 172.011216 
L 205.045776 171.944715 
L 205.150962 171.612212 
L 205.26919 171.545712 
L 205.290525 171.34621 
L 205.48302 171.279709 
L 205.587093 170.614704 
L 205.623675 170.548203 
L 205.734012 170.2157 
L 205.90822 170.1492 
L 205.998222 169.417693 
L 206.239796 169.351193 
L 206.252027 169.218191 
L 206.479444 169.151691 
L 206.523576 168.952189 
L 206.608834 168.952189 
L 206.608834 168.885689 
L 206.696472 168.686187 
L 206.796034 168.619686 
L 206.870044 168.420185 
L 206.992774 168.353684 
L 207.092006 167.821679 
L 207.300824 167.755179 
L 207.300824 167.688678 
L 207.477237 167.622178 
L 207.555685 167.289675 
L 207.647563 167.223174 
L 207.697869 167.023672 
L 207.891217 166.957172 
L 207.898375 166.824171 
L 208.073234 166.75767 
L 208.157374 166.624669 
L 208.227075 166.558168 
L 208.28765 166.092664 
L 208.341649 166.092664 
L 208.341649 166.026164 
L 208.405566 165.760161 
L 208.535259 165.693661 
L 208.596107 165.494159 
L 208.864747 165.427659 
L 208.869939 165.294657 
L 209.064227 165.228157 
L 209.170503 165.028655 
L 209.477517 164.962155 
L 209.565625 164.762653 
L 209.596656 164.696152 
L 209.676789 164.297149 
L 209.73034 164.230648 
L 209.797871 163.898145 
L 209.998544 163.831645 
L 210.089766 163.632143 
L 210.240254 163.565642 
L 210.333357 163.29964 
L 210.393811 163.23314 
L 210.393811 163.166639 
L 210.548488 163.100138 
L 210.634419 161.304623 
L 210.787867 161.238122 
L 210.787867 161.171622 
L 211.004586 161.105121 
L 211.109934 160.97212 
L 211.187063 160.905619 
L 211.267615 160.772618 
L 211.375238 160.706118 
L 211.431542 160.440115 
L 211.586536 160.373615 
L 211.639429 160.240614 
L 211.89515 160.174113 
L 211.914431 159.974611 
L 212.196264 159.908111 
L 212.217718 159.77511 
L 212.370039 159.708609 
L 212.374823 159.575608 
L 212.501293 159.509107 
L 212.607306 159.309606 
L 212.70943 159.243105 
L 212.799075 158.910602 
L 212.949079 158.844101 
L 213.037137 158.445098 
L 213.082121 158.445098 
L 213.082121 158.378597 
L 213.126191 158.112595 
L 213.25135 158.112595 
L 213.25135 158.046095 
L 213.25135 157.913093 
L 213.381354 157.913093 
L 213.381354 157.846593 
L 213.490048 157.381089 
L 213.525183 157.314588 
L 213.525183 157.248088 
L 213.6975 157.181587 
L 213.800722 156.982085 
L 214.010941 156.915585 
L 214.010941 156.849084 
L 214.176831 156.782584 
L 214.28352 156.38358 
L 214.332032 156.31708 
L 214.401318 156.184078 
L 214.473982 156.117578 
L 214.535701 155.918076 
L 214.650474 155.918076 
L 214.650474 155.851576 
L 214.743158 155.652074 
L 214.810028 155.585573 
L 214.882363 155.386072 
L 214.938283 155.319571 
L 214.984165 155.053569 
L 215.115257 154.987068 
L 215.182802 154.787566 
L 215.26115 154.721066 
L 215.343349 154.588065 
L 215.492325 154.521564 
L 215.575955 154.189061 
L 215.779308 154.122561 
L 215.854216 153.856558 
L 216.064847 153.790058 
L 216.117875 153.524055 
L 216.394484 153.457555 
L 216.501554 153.324554 
L 216.521582 153.258053 
L 216.623361 152.593047 
L 216.772599 152.526547 
L 216.883073 152.127543 
L 216.989697 152.061043 
L 217.057818 151.79504 
L 217.345627 151.72854 
L 217.372114 151.462537 
L 217.585275 151.396037 
L 217.585275 151.329536 
L 217.833826 151.263036 
L 217.833826 151.196535 
L 218.001117 151.130035 
L 218.099629 150.997033 
L 218.192887 150.930533 
L 218.225955 150.531529 
L 218.775456 150.465029 
L 218.862806 150.199027 
L 218.965826 150.132526 
L 219.057192 149.800023 
L 219.111301 149.733522 
L 219.215654 149.534021 
L 219.249425 149.46752 
L 219.286671 148.869015 
L 219.544833 148.802514 
L 219.544833 148.736014 
L 219.660287 148.736014 
L 219.660287 148.669513 
L 219.678411 148.536512 
L 219.783638 148.536512 
L 219.783638 148.470012 
L 219.842615 148.071008 
L 219.996862 148.071008 
L 219.996862 148.004507 
L 220.093039 147.805006 
L 220.212151 147.738505 
L 220.302621 147.472503 
L 220.421739 147.406002 
L 220.438388 147.073499 
L 220.578756 147.006999 
L 220.659091 146.674496 
L 220.850233 146.607995 
L 220.928931 146.208992 
L 221.105589 146.142491 
L 221.209014 145.676987 
L 221.323588 145.610487 
L 221.375039 145.410985 
L 221.519045 145.344484 
L 221.613736 144.81248 
L 221.659684 144.745979 
L 221.762996 144.280475 
L 221.785889 144.213975 
L 221.857934 144.080973 
L 221.91609 144.014473 
L 221.984203 143.814971 
L 222.093698 143.748471 
L 222.093698 143.68197 
L 222.328643 143.615469 
L 222.347861 143.482468 
L 222.61502 143.415968 
L 222.70585 143.282967 
L 222.829083 143.282967 
L 222.829083 143.216466 
L 222.866607 142.085956 
L 222.978343 142.019456 
L 222.999968 141.819954 
L 223.246394 141.753453 
L 223.253689 141.620452 
L 223.547218 141.553952 
L 223.653128 141.221449 
L 223.684852 141.154948 
L 223.783949 140.955446 
L 223.973407 140.888946 
L 224.008675 140.556443 
L 224.109095 140.556443 
L 224.109095 140.489942 
L 224.109095 140.423442 
L 224.2823 140.356941 
L 224.37673 140.024438 
L 224.524847 139.957938 
L 224.634752 139.625435 
L 224.896585 139.558934 
L 224.973155 139.226431 
L 225.053863 139.159931 
L 225.110932 138.694427 
L 225.270937 138.627926 
L 225.346393 138.428424 
L 225.446015 138.361924 
L 225.446015 138.295423 
L 225.668525 138.228923 
L 225.735207 138.095922 
L 225.950849 138.029421 
L 225.997879 137.497416 
L 226.176902 137.430916 
L 226.276821 137.164913 
L 226.371496 137.098413 
L 226.462003 136.433407 
L 226.543373 136.366907 
L 226.641235 136.100904 
L 226.677901 136.034404 
L 226.719035 135.834902 
L 226.845139 135.834902 
L 226.845139 135.768401 
L 226.865176 135.435899 
L 227.326361 135.369398 
L 227.359267 135.236397 
L 227.465279 135.236397 
L 227.465279 135.169896 
L 227.529339 135.036895 
L 227.604247 134.970394 
L 227.71071 134.43839 
L 227.775022 134.371889 
L 227.793979 134.238888 
L 227.938923 134.238888 
L 227.938923 134.172388 
L 227.970766 133.972886 
L 228.107593 133.906385 
L 228.162536 133.706884 
L 228.237444 133.706884 
L 228.237444 133.640383 
L 228.320889 132.842376 
L 228.492356 132.775875 
L 228.544786 132.509873 
L 228.659667 132.443373 
L 228.766736 132.310371 
L 228.872717 132.243871 
L 228.939472 132.044369 
L 229.046786 131.977869 
L 229.148714 131.445864 
L 229.238626 131.379363 
L 229.298718 131.113361 
L 229.377279 131.113361 
L 229.377279 131.04686 
L 229.452989 130.847359 
L 229.766176 130.780858 
L 229.86769 130.514856 
L 229.942599 130.448355 
L 229.942599 130.248854 
L 230.100567 130.182353 
L 230.188374 129.982851 
L 230.346267 129.916351 
L 230.456233 129.384346 
L 230.538063 129.317845 
L 230.583485 129.118344 
L 230.653035 129.051843 
L 230.756584 128.71934 
L 230.811758 128.65284 
L 230.820303 128.519839 
L 230.984204 128.453338 
L 231.077732 128.253836 
L 231.159667 128.187336 
L 231.262602 127.921333 
L 231.330956 127.921333 
L 231.330956 127.854833 
L 231.38125 127.655331 
L 231.481335 127.58883 
L 231.481335 127.58883 
L 231.498991 126.458321 
L 231.658984 126.39182 
L 231.750271 125.992817 
L 231.928234 125.926316 
L 232.016823 125.527313 
L 232.097097 125.460812 
L 232.206596 125.128309 
L 232.262567 125.128309 
L 232.262567 125.061809 
L 232.36598 124.596304 
L 232.393855 124.596304 
L 232.393855 124.529804 
L 232.393855 124.463303 
L 232.616404 124.396803 
L 232.616404 124.263802 
L 232.794895 124.197301 
L 232.889822 123.997799 
L 232.948736 123.931299 
L 232.948736 123.798298 
L 233.200417 123.731797 
L 233.295863 123.465795 
L 233.395782 123.399294 
L 233.476083 123.133292 
L 233.556347 123.133292 
L 233.556347 123.066791 
L 233.632392 122.800789 
L 233.763054 122.734288 
L 233.78491 122.601287 
L 233.980554 122.534787 
L 234.060836 122.335285 
L 234.116873 122.268784 
L 234.172254 122.135783 
L 234.31301 122.069283 
L 234.31301 122.002782 
L 234.470036 122.002782 
L 234.470036 121.936281 
L 234.470036 121.869781 
L 234.681974 121.80328 
L 234.784099 121.670279 
L 234.909608 121.603779 
L 234.909608 121.537278 
L 235.023748 121.537278 
L 235.023748 121.470777 
L 235.057036 121.005273 
L 235.168691 120.938773 
L 235.229006 120.739271 
L 235.293487 120.739271 
L 235.293487 120.67277 
L 235.340337 120.340268 
L 235.45068 120.273767 
L 235.469322 120.140766 
L 235.571306 120.074265 
L 235.646456 119.741762 
L 235.730285 119.675262 
L 235.831088 119.40926 
L 235.887226 119.342759 
L 235.97445 118.943755 
L 236.032331 118.877255 
L 236.117532 118.411751 
L 236.190266 118.34525 
L 236.291831 118.212249 
L 236.371297 118.145749 
L 236.480989 117.946247 
L 236.550763 117.879746 
L 236.626224 117.480743 
L 236.726144 117.414242 
L 236.786653 117.21474 
L 236.91891 117.14824 
L 237.024407 116.549735 
L 237.354242 116.483234 
L 237.454212 116.217232 
L 237.483626 116.150731 
L 237.483626 116.084231 
L 237.708104 116.01773 
L 237.772736 115.884729 
L 237.921995 115.818228 
L 237.929872 115.618727 
L 238.192544 115.552226 
L 238.286384 115.219723 
L 238.370683 115.153223 
L 238.468125 114.88722 
L 238.54953 114.82072 
L 238.651724 114.222215 
L 238.738038 114.155714 
L 238.826116 113.75671 
L 238.869232 113.75671 
L 238.869232 113.69021 
L 238.96622 113.291206 
L 239.039804 113.291206 
L 239.039804 113.224706 
L 239.13651 112.892203 
L 239.352633 112.825702 
L 239.390205 112.293698 
L 239.568389 112.227197 
L 239.667092 111.894694 
L 239.852563 111.828194 
L 239.911625 111.42919 
L 240.021155 111.36269 
L 240.021155 111.296189 
L 240.133588 111.296189 
L 240.133588 111.229689 
L 240.243957 110.830685 
L 240.264555 110.764185 
L 240.352192 110.564683 
L 240.421396 110.498182 
L 240.507204 110.365181 
L 240.689532 110.298681 
L 240.762445 109.966178 
L 240.868973 109.899677 
L 240.94299 109.633675 
L 241.018232 109.567174 
L 241.127005 109.03517 
L 241.268656 108.968669 
L 241.321225 108.503165 
L 241.4136 108.436664 
L 241.447148 108.237163 
L 241.692265 108.170662 
L 241.775848 107.771659 
L 241.927516 107.705158 
L 242.004695 107.439156 
L 242.133316 107.372655 
L 242.24111 106.77415 
L 242.276876 106.707649 
L 242.369966 106.375146 
L 242.448248 106.375146 
L 242.448248 106.308646 
L 242.477086 105.976143 
L 242.582216 105.909642 
L 242.689822 105.710141 
L 242.705731 105.64364 
L 242.804178 105.311137 
L 242.957024 105.244637 
L 243.058688 105.045135 
L 243.194778 104.978634 
L 243.281649 104.779133 
L 243.374738 104.712632 
L 243.443754 104.44663 
L 243.525996 104.44663 
L 243.525996 104.380129 
L 243.525996 104.313629 
L 243.676 104.313629 
L 243.676 104.247128 
L 243.676 101.786607 
L 243.910054 101.720106 
L 243.940056 101.454104 
L 244.064079 101.387603 
L 244.145943 101.0551 
L 244.19745 100.9886 
L 244.228644 100.656097 
L 244.362915 100.589596 
L 244.464917 100.190593 
L 244.478067 100.190593 
L 244.478067 100.124092 
L 244.48093 99.924591 
L 244.608656 99.924591 
L 244.608656 99.85809 
L 244.646717 99.658588 
L 244.743101 99.592088 
L 244.84641 99.392586 
L 244.87919 99.326085 
L 244.956012 99.060083 
L 245.043315 98.993582 
L 245.1434 98.528078 
L 245.294693 98.461578 
L 245.395082 98.129075 
L 245.422824 98.062574 
L 245.519929 97.863073 
L 245.67228 97.796572 
L 245.762281 97.397569 
L 245.874293 97.331068 
L 245.955556 97.065066 
L 246.048794 96.998565 
L 246.147262 96.666062 
L 246.200595 96.599562 
L 246.245002 96.40006 
L 246.432959 96.333559 
L 246.542525 96.067557 
L 246.686084 96.001057 
L 246.775463 95.602053 
L 246.802677 95.535552 
L 246.904 95.20305 
L 246.942141 95.136549 
L 247.052523 94.405043 
L 247.073737 94.405043 
L 247.073737 94.338542 
L 247.136796 94.205541 
L 247.201782 94.205541 
L 247.201782 94.13904 
L 247.297497 93.740037 
L 247.340289 93.740037 
L 247.340289 93.673536 
L 247.42655 93.274533 
L 247.549178 93.208032 
L 247.637256 93.008531 
L 247.714559 92.94203 
L 247.730788 92.676028 
L 247.838553 92.676028 
L 247.838553 92.609527 
L 247.945861 92.144023 
L 248.074442 92.077522 
L 248.074442 91.944521 
L 248.270453 91.878021 
L 248.312196 91.545518 
L 248.588806 91.479017 
L 248.688725 91.279516 
L 248.809327 91.213015 
L 248.857691 90.947013 
L 249.159456 90.880512 
L 249.254333 90.215506 
L 249.422128 90.149006 
L 249.45872 90.016005 
L 249.592208 89.949504 
L 249.592208 89.883003 
L 249.71132 89.883003 
L 249.71132 89.816503 
L 249.810465 89.284498 
L 249.975608 89.217998 
L 250.043639 89.018496 
L 250.224196 88.951995 
L 250.32246 88.685993 
L 250.387208 88.685993 
L 250.387208 88.619493 
L 250.490384 88.419991 
L 250.64269 88.35349 
L 250.725776 87.954487 
L 250.824152 87.887986 
L 250.929128 87.688484 
L 250.982787 87.621984 
L 251.086051 87.023479 
L 251.24375 86.956978 
L 251.253789 86.823977 
L 251.414968 86.757476 
L 251.511666 86.358473 
L 251.633663 86.291972 
L 251.744239 85.959469 
L 251.854609 85.959469 
L 251.854609 85.892969 
L 251.884761 85.626967 
L 251.975896 85.560466 
L 252.058513 85.294464 
L 252.250637 85.227963 
L 252.359696 84.097453 
L 252.611988 84.030953 
L 252.71335 83.831451 
L 252.767322 83.831451 
L 252.767322 83.76495 
L 252.86058 83.631949 
L 253.127275 83.565449 
L 253.207355 83.432448 
L 253.327538 83.432448 
L 253.327538 83.365947 
L 253.327538 83.299446 
L 253.531442 83.232946 
L 253.593575 83.033444 
L 253.741673 82.966943 
L 253.829465 82.56794 
L 253.894424 82.501439 
L 253.954364 82.235437 
L 254.06025 82.168937 
L 254.162175 81.636932 
L 254.192698 81.636932 
L 254.192698 81.570431 
L 254.192698 81.503931 
L 254.33114 81.503931 
L 254.33114 81.43743 
L 254.383471 81.237928 
L 254.477434 81.171428 
L 254.581991 81.038427 
L 254.590653 81.038427 
L 254.590653 80.971926 
L 254.693788 80.439922 
L 254.735596 80.439922 
L 254.735596 80.373421 
L 254.826542 79.907917 
L 254.998843 79.841416 
L 255.104362 79.508913 
L 255.145913 79.442413 
L 255.246565 79.176411 
L 255.349408 79.10991 
L 255.404365 78.777407 
L 255.549682 78.710907 
L 255.549682 78.644406 
L 255.870665 78.577905 
L 255.870665 78.577905 
L 255.96784 77.247894 
L 256.067883 77.181393 
L 256.107296 76.84889 
L 256.188257 76.78239 
L 256.269025 76.582888 
L 256.328846 76.516388 
L 256.426903 75.984383 
L 256.527366 75.917882 
L 256.62712 75.718381 
L 256.856843 75.65188 
L 256.964449 75.385878 
L 257.21613 75.319377 
L 257.269789 75.053375 
L 257.423306 74.986874 
L 257.52306 74.587871 
L 257.605002 74.52137 
L 257.683998 74.321869 
L 257.811709 74.255368 
L 257.863325 73.922865 
L 258.031549 73.856364 
L 258.099517 73.723363 
L 258.363573 73.656863 
L 258.396105 73.523862 
L 258.606708 73.457361 
L 258.68353 73.191359 
L 258.776789 73.191359 
L 258.776789 73.124858 
L 258.792937 72.991857 
L 258.920701 72.925356 
L 258.920701 72.858856 
L 259.03946 72.858856 
L 259.03946 72.792355 
L 259.134961 72.393352 
L 259.236679 72.326851 
L 259.299858 72.127349 
L 259.424765 72.060849 
L 259.534953 71.728346 
L 259.658007 71.661845 
L 259.658007 71.595345 
L 259.835 71.528844 
L 259.870753 71.395843 
L 260.165734 71.329343 
L 260.21833 71.196341 
L 260.302865 71.129841 
L 260.396491 70.863839 
L 260.464008 70.863839 
L 260.464008 70.797338 
L 260.506861 70.597836 
L 260.732148 70.531336 
L 260.784571 70.398334 
L 260.950841 70.331834 
L 260.980504 69.93283 
L 261.149755 69.86633 
L 261.255673 69.733329 
L 261.354121 69.666828 
L 261.409998 69.134824 
L 261.639863 69.068323 
L 261.744721 68.868821 
L 261.839224 68.802321 
L 261.948676 68.336817 
L 261.979791 68.336817 
L 261.979791 68.270316 
L 262.049545 68.004314 
L 262.417579 67.937813 
L 262.422319 67.804812 
L 262.739751 67.738311 
L 262.803835 67.60531 
L 262.938272 67.53881 
L 263.038025 67.139806 
L 263.222141 67.073306 
L 263.295165 66.740803 
L 263.387848 66.674302 
L 263.387848 66.607802 
L 263.675657 66.541301 
L 263.783918 66.4083 
L 263.927338 66.341799 
L 264.008789 66.142298 
L 264.077342 66.075797 
L 264.153885 65.876295 
L 264.231702 65.809795 
L 264.287027 65.543792 
L 264.522917 65.477292 
L 264.522917 65.477292 
L 264.620456 63.482275 
L 264.760671 63.415774 
L 264.760671 63.349273 
L 264.926624 63.349273 
L 264.926624 63.282773 
L 264.998057 63.083271 
L 265.110735 63.01677 
L 265.110735 62.95027 
L 265.525923 62.883769 
L 265.525923 62.817269 
L 265.657985 62.817269 
L 265.657985 62.750768 
L 265.702509 62.484766 
L 266.039662 62.418265 
L 266.149029 62.152263 
L 266.253875 62.085762 
L 266.361704 61.686759 
L 266.597929 61.620258 
L 266.597929 61.420757 
L 266.837577 61.354256 
L 266.930261 60.955253 
L 267.066043 60.888752 
L 267.066043 60.822251 
L 267.241285 60.755751 
L 267.241285 60.62275 
L 267.389441 60.62275 
L 267.389441 60.556249 
L 267.442485 60.223746 
L 267.626259 60.157246 
L 267.735909 59.891243 
L 267.868111 59.824743 
L 267.868111 59.758242 
L 268.065329 59.691742 
L 268.090319 59.49224 
L 268.253177 59.425739 
L 268.34356 59.292738 
L 268.474084 59.226238 
L 268.474084 59.159737 
L 268.70757 59.093236 
L 268.804328 58.827234 
L 268.932125 58.760734 
L 268.986759 58.627732 
L 269.159113 58.561232 
L 269.187367 58.095728 
L 269.368466 58.029227 
L 269.385887 57.829725 
L 269.485641 57.763225 
L 269.485641 57.763225 
L 269.554852 57.630224 
L 269.654606 57.630224 
L 269.654606 57.563723 
L 269.762235 57.031719 
L 269.812959 56.965218 
L 269.874172 56.832217 
L 270.006373 56.832217 
L 270.006373 56.765716 
L 270.065988 56.566215 
L 270.153443 56.499714 
L 270.224578 56.366713 
L 270.329523 56.300212 
L 270.410081 56.167211 
L 270.528503 56.10071 
L 270.559603 55.901209 
L 270.752903 55.834708 
L 270.795055 55.701707 
L 271.234125 55.635206 
L 271.297376 55.036701 
L 271.494523 54.970201 
L 271.549057 54.8372 
L 271.717928 54.8372 
L 271.717928 54.770699 
L 271.731256 54.637698 
L 271.895157 54.571197 
L 271.895157 54.504697 
L 272.220303 54.438196 
L 272.323737 54.039193 
L 272.474538 53.972692 
L 272.546009 53.77319 
L 272.673058 53.70669 
L 272.772812 53.440687 
L 272.968867 53.374187 
L 272.968867 53.307686 
L 273.175169 53.307686 
L 273.175169 53.241186 
L 273.175169 52.908683 
L 273.442511 52.908683 
L 273.442511 52.842182 
L 273.548786 52.57618 
L 273.707497 52.509679 
L 273.748058 52.310178 
L 273.915988 52.243677 
L 273.956401 52.110676 
L 274.88499 52.044175 
L 274.979871 51.844674 
L 275.001443 51.778173 
L 275.09147 51.645172 
L 275.264364 51.578671 
L 275.331357 51.37917 
L 275.48983 51.312669 
L 275.48983 51.246168 
L 276.192228 51.179668 
L 276.278512 50.980166 
L 276.717581 50.913666 
L 276.717581 49.11815 
L 277.263301 49.051649 
L 277.263301 48.985149 
L 277.541626 48.918648 
L 277.647465 48.785647 
L 277.70376 48.719146 
L 277.811365 48.453144 
L 277.968913 48.386644 
L 278.059089 48.187142 
L 278.136512 48.120641 
L 278.221682 47.854639 
L 278.974321 47.788138 
L 279.057466 47.655137 
L 279.124925 47.655137 
L 279.124925 47.588637 
L 279.234892 47.123133 
L 279.453625 47.056632 
L 279.453625 46.923631 
L 279.687105 46.85713 
L 279.714023 46.724129 
L 279.886377 46.657629 
L 279.886377 46.458127 
L 280.107176 46.391626 
L 280.107176 46.258625 
L 280.259994 46.192125 
L 280.318272 45.992623 
L 280.481956 45.926122 
L 280.55171 45.726621 
L 280.758199 45.66012 
L 280.758199 45.593619 
L 280.977826 45.527119 
L 281.07348 45.327617 
L 281.243408 45.261116 
L 281.353778 44.795612 
L 281.540006 44.729112 
L 281.540006 44.662611 
L 281.760213 44.596111 
L 281.762978 44.46311 
L 282.201038 44.46311 
L 282.201038 44.396609 
L 282.244976 44.197107 
L 282.556968 44.130607 
L 282.556968 44.064106 
L 282.752902 44.064106 
L 282.752902 43.997606 
L 282.752902 43.731603 
L 283.025082 43.665103 
L 283.092744 43.532101 
L 283.456244 43.465601 
L 283.456244 43.3991 
L 283.82715 43.3326 
L 283.918774 43.066597 
L 284.27605 43.000097 
L 284.27605 42.933596 
L 284.619776 42.867096 
L 284.619776 42.800595 
L 284.849351 42.734095 
L 284.849351 42.667594 
L 285.270737 42.601093 
L 285.369834 41.603585 
L 285.478607 41.537084 
L 285.478607 41.470584 
L 285.90304 41.404083 
L 285.90304 41.337582 
L 286.112482 41.271082 
L 286.193878 41.07158 
L 286.425231 41.00508 
L 286.492792 40.805578 
L 286.725791 40.739077 
L 286.725791 40.672577 
L 286.837234 40.672577 
L 286.837234 40.606076 
L 286.837234 40.406574 
L 286.995946 40.340074 
L 287.019215 40.207073 
L 287.171097 40.140572 
L 287.193164 39.94107 
L 287.519015 39.87457 
L 287.519015 39.808069 
L 287.777178 39.808069 
L 287.777178 39.741569 
L 287.807208 39.608567 
L 288.105878 39.542067 
L 288.105878 39.475566 
L 288.431024 39.409066 
L 288.444496 39.209564 
L 288.912246 39.143063 
L 288.912246 38.74406 
L 289.152953 38.74406 
L 289.152953 38.677559 
L 289.214517 38.544558 
L 289.38589 38.478058 
L 289.38589 38.411557 
L 289.573278 38.411557 
L 289.573278 38.345057 
L 289.630078 38.212055 
L 289.771612 38.145555 
L 289.833676 37.946053 
L 290.139998 37.879552 
L 290.220093 37.680051 
L 290.347804 37.61355 
L 290.45493 37.480549 
L 290.904746 37.414048 
L 290.928172 37.281047 
L 291.233782 37.214547 
L 291.233782 37.148046 
L 291.405154 37.148046 
L 291.405154 37.081546 
L 291.405154 37.015045 
L 291.682682 36.948544 
L 291.682682 36.882044 
L 291.851823 36.815543 
L 291.851823 36.749043 
L 292.081042 36.749043 
L 292.081042 36.682542 
L 292.156044 35.818035 
L 292.454658 35.751534 
L 292.454658 35.685033 
L 292.940407 35.618533 
L 292.992498 35.485532 
L 293.305669 35.419031 
L 293.388889 35.28603 
L 293.752347 35.219529 
L 293.833523 35.086528 
L 294.022086 35.086528 
L 294.022086 35.020028 
L 294.022086 34.887027 
L 294.395703 34.820526 
L 294.395703 34.754025 
L 294.947566 34.687525 
L 295.056734 34.355022 
L 295.324933 34.288521 
L 295.377978 34.15552 
L 295.489486 34.08902 
L 295.600092 33.690016 
L 295.623454 33.690016 
L 295.623454 33.623516 
L 295.623454 33.557015 
L 296.227579 33.490514 
L 296.227579 33.424014 
L 296.470714 33.357513 
L 296.544884 33.224512 
L 296.751591 33.158012 
L 296.839747 33.02501 
L 297.002319 32.95851 
L 297.002319 32.892009 
L 297.494798 32.825509 
L 297.564498 32.027502 
L 298.072693 32.027502 
L 298.072693 31.961001 
L 298.087568 31.828 
L 298.555521 31.761499 
L 298.555521 31.694999 
L 299.345797 31.628498 
L 299.433158 31.495497 
L 299.971842 31.428997 
L 299.971842 31.162994 
L 300.300542 31.096494 
L 300.300542 31.029993 
L 300.795783 30.963493 
L 300.795783 30.896992 
L 301.253777 30.830491 
L 301.253777 30.763991 
L 301.580554 30.69749 
L 301.580554 30.63099 
L 302.200695 30.564489 
L 302.200695 29.832983 
L 303.256092 29.766482 
L 303.256092 29.633481 
L 303.403885 29.56698 
L 303.403885 29.50048 
L 303.871999 29.433979 
L 303.871999 29.300978 
L 304.275707 29.234478 
L 304.275707 29.167977 
L 304.674067 29.101476 
L 304.674067 28.968475 
L 305.877334 28.901975 
L 305.877334 28.835474 
L 306.216751 28.835474 
L 306.216751 28.768973 
L 306.216751 28.502971 
L 306.884069 28.436471 
L 306.959399 28.303469 
L 307.121769 28.303469 
L 307.121769 28.236969 
L 307.19526 28.103968 
L 307.769746 28.103968 
L 307.769746 28.037467 
L 307.793846 27.904466 
L 308.266046 27.837965 
L 308.266046 27.771465 
L 309.145351 27.704964 
L 309.145351 27.638464 
L 309.759163 27.571963 
L 309.775702 27.106459 
L 309.924961 27.039958 
L 309.924961 26.973458 
L 310.360698 26.906957 
L 310.420195 26.707456 
L 310.852947 26.707456 
L 310.852947 26.640955 
L 310.852947 26.507954 
L 312.344828 26.441453 
L 312.344828 26.308452 
L 312.927959 26.308452 
L 312.927959 26.241952 
L 313.013767 25.975949 
L 313.260291 25.909449 
L 313.260291 25.842948 
L 313.523538 25.842948 
L 313.523538 25.776448 
L 313.523538 25.709947 
L 313.775219 25.643446 
L 313.775219 25.576946 
L 314.395359 25.510445 
L 314.395359 25.443945 
L 315.002971 25.443945 
L 315.002971 25.377444 
L 315.002971 25.310943 
L 315.794483 25.244443 
L 315.794483 24.712438 
L 316.042022 24.645938 
L 316.042022 24.579437 
L 316.18737 24.579437 
L 316.18737 24.512937 
L 316.18737 24.446436 
L 317.317631 24.379935 
L 317.317631 24.313435 
L 318.182701 24.246934 
L 318.182701 24.180434 
L 318.411415 24.113933 
L 318.411415 24.113933 
L 318.411415 23.980932 
L 318.695442 23.914431 
L 318.695442 23.847931 
L 319.23546 23.78143 
L 319.23546 23.71493 
L 319.364914 23.71493 
L 319.364914 23.648429 
L 319.364914 23.581928 
L 320.560597 23.515428 
L 320.560597 23.448927 
L 320.818759 23.448927 
L 320.818759 23.382427 
L 320.818759 23.049924 
L 321.648487 22.983423 
L 321.648487 22.916923 
L 321.953828 22.850422 
L 321.953828 22.783922 
L 322.17579 22.783922 
L 322.17579 22.717421 
L 322.17579 22.65092 
L 322.566389 22.58442 
L 322.566389 22.517919 
L 324.446736 22.451419 
L 324.446736 22.384918 
L 325.122623 22.384918 
L 325.122623 22.318418 
L 325.122623 22.118916 
L 325.407704 22.052415 
L 325.407704 21.985915 
L 326.108802 21.919414 
L 326.108802 21.852913 
L 327.063667 21.786413 
L 327.063667 21.586911 
L 327.437284 21.520411 
L 327.478512 21.320909 
L 327.887712 21.254408 
L 327.893777 21.121407 
L 328.400587 21.054907 
L 328.400587 20.988406 
L 328.633193 20.921905 
L 328.640763 20.722404 
L 330.124858 20.655903 
L 330.124858 20.589403 
L 330.60608 20.589403 
L 330.60608 20.522902 
L 330.622619 20.2569 
L 331.913927 20.190399 
L 331.913927 20.057398 
L 333.116836 19.990897 
L 333.116836 19.924397 
L 333.588185 19.857896 
L 333.588185 19.791396 
L 334.107208 19.724895 
L 334.107208 19.658394 
L 335.03698 19.591894 
L 335.03698 19.525393 
L 335.44618 19.458893 
L 335.527356 19.259391 
L 336.6414 19.259391 
L 336.6414 19.19289 
L 336.6414 19.12639 
L 336.943672 19.059889 
L 336.959379 18.926888 
L 339.542359 18.860388 
L 339.542359 18.727386 
L 340.136922 18.660886 
L 340.136922 18.594385 
L 341.665676 18.527885 
L 341.665676 18.461384 
L 342.800744 18.461384 
L 342.800744 18.394884 
L 342.800744 18.261882 
L 344.50214 18.195382 
L 344.50214 18.128881 
L 345.96954 18.128881 
L 345.96954 18.062381 
L 345.96954 17.99588 
L 346.955719 17.929379 
L 346.955719 17.729878 
L 348.591435 17.663377 
L 348.591435 17.530376 
L 349.239411 17.530376 
L 349.239411 17.463875 
L 349.239411 17.397375 
L 352.277041 17.330874 
L 352.277041 17.131373 
L 353.814493 17.131373 
L 353.814493 17.064872 
L 353.814493 16.998371 
L 354.435102 16.931871 
L 354.435102 16.79887 
L 355.364441 16.79887 
L 355.364441 16.732369 
L 355.364441 16.599368 
L 357.488317 16.532867 
L 357.488317 16.399866 
L 357.657036 16.399866 
L 357.657036 16.333366 
L 357.657036 16.266865 
L 360.520093 16.200364 
L 360.520093 16.133864 
L 360.834579 16.133864 
L 360.834579 16.067363 
L 360.929293 15.934362 
L 363.367885 15.867862 
L 363.367885 15.801361 
L 369.985253 15.73486 
L 369.985253 15.66836 
L 373.661039 15.601859 
L 373.661039 15.535359 
L 381.984678 15.468858 
L 381.984678 15.402358 
L 387.180368 15.335857 
L 387.180368 15.269356 
L 393.579846 15.202856 
L 393.579846 15.136355 
L 453.192 15.136355 
L 453.192 15.136355 
" clip-path="url(#p1c9cb0d957)" style="fill: none; stroke: #000000; stroke-width: 3; stroke-linecap: square"/>
   </g>
   <g id="line2d_18">
    <path clip-path="url(#p1c9cb0d957)" style="fill: none; stroke: #000000; stroke-width: 3; stroke-linecap: square"/>
   </g>
   <g id="line2d_19">
    <path d="M 34.16 158.841137 
L 169.781708 158.841137 
L 169.781708 158.641117 
L 170.349191 158.641117 
L 170.426788 158.241078 
L 170.994272 158.241078 
L 170.994272 158.041059 
L 171.668389 158.041059 
L 171.668389 157.841039 
L 172.235873 157.841039 
L 172.235873 157.64102 
L 173.164567 157.64102 
L 173.164567 157.441001 
L 173.809647 157.441001 
L 173.809647 157.240981 
L 174.273321 157.240981 
L 174.273321 157.040962 
L 174.402566 157.040962 
L 174.402566 156.840942 
L 174.97005 156.840942 
L 175.051248 156.440903 
L 175.097488 156.440903 
L 175.134125 156.040865 
L 175.333681 156.040865 
L 175.333681 155.840845 
L 175.664972 155.840845 
L 175.732848 155.040767 
L 175.876408 155.040767 
L 175.876408 154.840748 
L 176.443891 154.840748 
L 176.443891 154.640729 
L 176.785693 154.640729 
L 176.793207 154.24069 
L 177.562138 154.24069 
L 177.562138 154.04067 
L 177.711424 154.04067 
L 177.785425 153.640631 
L 177.837307 153.640631 
L 177.837307 153.440612 
L 178.207219 153.440612 
L 178.21994 153.040573 
L 178.480347 153.040573 
L 178.516984 152.440515 
L 178.648023 152.440515 
L 178.648023 152.240495 
L 178.787424 152.240495 
L 178.787424 152.040476 
L 179.259267 152.040476 
L 179.293104 151.640437 
L 179.44882 151.640437 
L 179.44882 151.440418 
L 179.652435 151.440418 
L 179.746756 150.840359 
L 180.156025 150.840359 
L 180.156025 150.64034 
L 180.534704 150.64034 
L 180.559056 150.240301 
L 180.712794 150.240301 
L 180.807116 149.040185 
L 181.204137 149.040185 
L 181.204137 148.840165 
L 181.329117 148.840165 
L 181.337958 148.440126 
L 181.602799 148.440126 
L 181.602799 148.240107 
L 182.042707 148.240107 
L 182.042707 148.040087 
L 182.182997 148.040087 
L 182.241914 147.440029 
L 182.445738 147.440029 
L 182.458166 147.03999 
L 182.877918 147.03999 
L 182.914556 146.639951 
L 183.153087 146.639951 
L 183.189725 146.239913 
L 183.268882 146.239913 
L 183.268882 146.039893 
L 183.404255 146.039893 
L 183.404255 145.839874 
L 183.656838 145.839874 
L 183.656838 145.639854 
L 183.932007 145.639854 
L 184.000441 145.039796 
L 184.144492 145.039796 
L 184.153334 144.639757 
L 184.308792 144.639757 
L 184.308792 144.439738 
L 184.464615 144.439738 
L 184.464615 144.239718 
L 184.742723 144.239718 
L 184.776884 143.839679 
L 185.179915 143.839679 
L 185.179915 143.63966 
L 185.471805 143.63966 
L 185.552939 143.039602 
L 185.874837 143.039602 
L 185.934465 142.439543 
L 186.000371 142.439543 
L 186.000371 142.239524 
L 186.120423 142.239524 
L 186.161501 141.839485 
L 186.250725 141.839485 
L 186.27554 141.239427 
L 186.464406 141.239427 
L 186.467986 140.639369 
L 186.586499 140.639369 
L 186.659247 140.03931 
L 187.086256 140.03931 
L 187.153983 139.639271 
L 187.502169 139.639271 
L 187.524766 139.039213 
L 187.634616 139.039213 
L 187.653055 138.639174 
L 187.919998 138.639174 
L 187.927512 138.239135 
L 188.053056 138.239135 
L 188.118774 137.639077 
L 188.2021 137.639077 
L 188.2021 137.439058 
L 188.542063 137.439058 
L 188.594258 136.63898 
L 188.699871 136.63898 
L 188.699871 136.438961 
L 188.817232 136.438961 
L 188.826074 136.038922 
L 188.935798 136.038922 
L 188.997289 135.638883 
L 189.627948 135.638883 
L 189.678728 135.038825 
L 189.913322 135.038825 
L 189.969358 134.638786 
L 190.325544 134.638786 
L 190.376943 134.038728 
L 191.017475 134.038728 
L 191.098813 133.438669 
L 191.13595 133.438669 
L 191.144792 133.03863 
L 191.397319 133.03863 
L 191.397319 132.838611 
L 191.538982 132.838611 
L 191.547823 132.438572 
L 191.847099 132.438572 
L 191.954246 131.838514 
L 192.038361 131.838514 
L 192.132682 131.238456 
L 192.159173 131.238456 
L 192.263625 130.838417 
L 192.852049 130.838417 
L 192.852049 130.638397 
L 192.973473 130.638397 
L 192.973473 130.238358 
L 193.33337 130.238358 
L 193.33337 130.038339 
L 193.494126 130.038339 
L 193.494126 129.83832 
L 193.608538 129.83832 
L 193.714606 129.238261 
L 194.011235 129.238261 
L 194.011235 129.038242 
L 194.36693 129.038242 
L 194.419254 128.638203 
L 194.582659 128.638203 
L 194.642098 128.238164 
L 194.774966 128.238164 
L 194.774966 128.038145 
L 194.946138 128.038145 
L 195.018297 127.238067 
L 195.098768 127.238067 
L 195.098768 127.038048 
L 195.25664 127.038048 
L 195.25664 126.838028 
L 195.415047 126.838028 
L 195.452814 126.437989 
L 195.59892 126.437989 
L 195.692723 125.637912 
L 195.729361 125.637912 
L 195.824123 125.037853 
L 195.927257 125.037853 
L 195.927257 124.837834 
L 196.159127 124.837834 
L 196.208332 124.437795 
L 196.330288 124.437795 
L 196.330288 124.237776 
L 196.471643 124.237776 
L 196.500932 123.837737 
L 196.904978 123.837737 
L 196.960817 123.437698 
L 197.363848 123.437698 
L 197.363848 123.237678 
L 197.607879 123.237678 
L 197.607879 123.037659 
L 197.926922 123.037659 
L 198.008934 122.63762 
L 198.121657 122.63762 
L 198.121657 122.437601 
L 198.265217 122.437601 
L 198.265217 122.237581 
L 198.411965 122.237581 
L 198.411965 122.037562 
L 198.639499 122.037562 
L 198.659071 121.437504 
L 198.815176 121.437504 
L 198.87324 120.437406 
L 198.967561 120.437406 
L 198.967561 120.237387 
L 199.182017 120.237387 
L 199.254011 119.837348 
L 199.334535 119.837348 
L 199.334535 119.637329 
L 199.639155 119.637329 
L 199.696834 119.23729 
L 199.888095 119.23729 
L 199.979616 118.637232 
L 200.223673 118.637232 
L 200.334077 118.237193 
L 200.370715 118.237193 
L 200.370715 118.037173 
L 200.647404 118.037173 
L 200.647404 117.837154 
L 200.812384 117.837154 
L 200.812384 117.637134 
L 201.112997 117.637134 
L 201.221217 117.037076 
L 201.356868 117.037076 
L 201.46499 116.437018 
L 201.607834 116.437018 
L 201.648076 116.036979 
L 202.074076 116.036979 
L 202.074076 115.83696 
L 202.273077 115.83696 
L 202.273077 115.63694 
L 202.438056 115.63694 
L 202.525349 115.236901 
L 202.62506 115.236901 
L 202.719156 114.836862 
L 203.03707 114.836862 
L 203.03707 114.636843 
L 203.293478 114.636843 
L 203.312239 114.236804 
L 203.45653 114.236804 
L 203.484739 113.636746 
L 203.646311 113.636746 
L 203.646311 113.436726 
L 203.87487 113.436726 
L 203.960757 112.836668 
L 203.991667 112.836668 
L 203.991667 112.636649 
L 204.122955 112.636649 
L 204.156647 112.23661 
L 204.569792 112.23661 
L 204.650316 111.436532 
L 204.686953 111.436532 
L 204.686953 111.236513 
L 204.93531 111.236513 
L 204.942825 110.836474 
L 205.098323 110.836474 
L 205.105837 110.436435 
L 205.348711 110.436435 
L 205.429235 110.036396 
L 205.630957 110.036396 
L 205.685211 109.436338 
L 205.909271 109.436338 
L 206.007064 108.83628 
L 206.033988 108.83628 
L 206.100532 108.236221 
L 206.148175 108.236221 
L 206.148175 108.036202 
L 206.320817 108.036202 
L 206.320817 107.836183 
L 206.694934 107.836183 
L 206.722974 107.436144 
L 207.00597 107.436144 
L 207.00597 107.236124 
L 207.131533 107.236124 
L 207.181735 106.836085 
L 207.293433 106.836085 
L 207.389856 106.436047 
L 207.426493 106.436047 
L 207.484694 106.036008 
L 207.651051 106.036008 
L 207.692244 105.635969 
L 207.772768 105.635969 
L 207.772768 105.435949 
L 207.974056 105.435949 
L 207.974056 105.23593 
L 208.168775 105.23593 
L 208.229852 104.835891 
L 208.639535 104.835891 
L 208.741202 104.435852 
L 208.862412 104.435852 
L 208.956733 103.835794 
L 209.025424 103.835794 
L 209.119746 103.235736 
L 209.386283 103.235736 
L 209.386283 103.035716 
L 210.233937 103.035716 
L 210.323303 101.63558 
L 210.507583 101.63558 
L 210.512308 101.235541 
L 210.627884 101.235541 
L 210.627884 101.035522 
L 210.789528 101.035522 
L 210.789528 100.835503 
L 211.626829 100.835503 
L 211.697589 100.235444 
L 211.823088 100.235444 
L 211.823088 100.035425 
L 212.32175 100.035425 
L 212.358388 99.635386 
L 212.614232 99.635386 
L 212.614232 99.435367 
L 212.777245 99.435367 
L 212.871206 99.035328 
L 212.935411 99.035328 
L 212.935411 98.835308 
L 213.054001 98.835308 
L 213.10067 98.035231 
L 213.362061 98.035231 
L 213.362061 97.835211 
L 213.659654 97.835211 
L 213.659654 97.635192 
L 213.850916 97.635192 
L 213.850916 97.435172 
L 214.056983 97.435172 
L 214.09362 97.035133 
L 214.319573 97.035133 
L 214.319573 96.835114 
L 214.513043 96.835114 
L 214.520557 96.435075 
L 214.835902 96.435075 
L 214.835902 96.235056 
L 215.025243 96.235056 
L 215.105767 95.835017 
L 215.444203 95.835017 
L 215.444203 95.634997 
L 215.617176 95.634997 
L 215.711498 94.83492 
L 215.837396 94.83492 
L 215.851875 94.234861 
L 216.058803 94.234861 
L 216.139327 93.834823 
L 216.712146 93.834823 
L 216.712146 93.634803 
L 216.875159 93.634803 
L 216.875159 93.434784 
L 217.10692 93.434784 
L 217.187444 92.834725 
L 217.342462 92.834725 
L 217.342462 92.634706 
L 217.845307 92.634706 
L 217.845307 92.434687 
L 217.985895 92.434687 
L 217.994737 92.034648 
L 218.440144 92.034648 
L 218.534466 91.634609 
L 218.860453 91.634609 
L 218.878867 91.23457 
L 219.368997 91.23457 
L 219.368997 91.034551 
L 219.721128 91.034551 
L 219.72997 90.634512 
L 219.926984 90.634512 
L 219.926984 90.434492 
L 220.30879 90.434492 
L 220.391894 90.034453 
L 220.471803 90.034453 
L 220.493229 89.634415 
L 220.655568 89.634415 
L 220.685795 89.234376 
L 221.519486 89.234376 
L 221.519486 89.034356 
L 221.843907 89.034356 
L 221.851421 88.634317 
L 222.191965 88.634317 
L 222.28124 88.234279 
L 222.429148 88.234279 
L 222.429148 87.83424 
L 222.777202 87.83424 
L 222.777202 87.63422 
L 222.924583 87.63422 
L 222.979012 87.034162 
L 223.087596 87.034162 
L 223.087596 86.834143 
L 223.466911 86.834143 
L 223.501807 86.434104 
L 223.810761 86.434104 
L 223.810761 86.234084 
L 223.999831 86.234084 
L 223.999831 86.034065 
L 224.308745 86.034065 
L 224.308745 85.834045 
L 224.471758 85.834045 
L 224.512434 85.233987 
L 224.728943 85.233987 
L 224.809468 84.833948 
L 224.858879 84.833948 
L 224.858879 84.633929 
L 225.252116 84.633929 
L 225.252116 84.23389 
L 225.545994 84.23389 
L 225.545994 84.033871 
L 225.771008 84.033871 
L 225.86533 83.633832 
L 226.124563 83.633832 
L 226.124563 83.433812 
L 226.289879 83.433812 
L 226.289879 83.233793 
L 226.594111 83.233793 
L 226.594111 83.033774 
L 226.898599 83.033774 
L 226.992921 82.633735 
L 227.063555 82.633735 
L 227.063555 82.433715 
L 227.273416 82.433715 
L 227.331634 82.033676 
L 227.494647 82.033676 
L 227.549008 81.633638 
L 227.737521 81.633638 
L 227.843154 81.033579 
L 228.725428 81.033579 
L 228.732943 80.63354 
L 229.522829 80.63354 
L 229.522829 80.433521 
L 229.679348 80.433521 
L 229.679348 80.233502 
L 229.886523 80.233502 
L 229.886523 80.033482 
L 230.352584 80.033482 
L 230.352584 79.833463 
L 230.557585 79.833463 
L 230.65042 79.433424 
L 230.674967 79.433424 
L 230.674967 79.233404 
L 230.837979 79.233404 
L 230.837979 79.033385 
L 231.06351 79.033385 
L 231.06351 78.833366 
L 231.826567 78.833366 
L 231.826567 78.633346 
L 232.480902 78.633346 
L 232.58298 77.833268 
L 232.65253 77.833268 
L 232.746851 77.23321 
L 233.278579 77.23321 
L 233.286093 76.833171 
L 233.620742 76.833171 
L 233.710571 76.233113 
L 233.886478 76.233113 
L 233.886478 76.033094 
L 234.046318 76.033094 
L 234.086399 75.633055 
L 234.216134 75.633055 
L 234.216134 75.433035 
L 234.748334 75.433035 
L 234.748334 75.233016 
L 235.48948 75.233016 
L 235.505845 74.632958 
L 236.40435 74.632958 
L 236.40435 74.432938 
L 236.909367 74.432938 
L 236.909367 74.232919 
L 237.20568 74.232919 
L 237.300002 73.432841 
L 237.429732 73.432841 
L 237.429732 73.232822 
L 238.344978 73.232822 
L 238.344978 73.032802 
L 239.425432 73.032802 
L 239.519753 72.232724 
L 239.83318 72.232724 
L 239.83318 72.032705 
L 240.2527 72.032705 
L 240.2527 71.832686 
L 240.502264 71.832686 
L 240.502264 71.632666 
L 240.957501 71.632666 
L 240.960771 71.232627 
L 241.217341 71.232627 
L 241.217341 71.032608 
L 242.344933 71.032608 
L 242.344933 70.832588 
L 243.177252 70.832588 
L 243.177252 70.632569 
L 244.017652 70.632569 
L 244.098908 70.032511 
L 244.240231 70.032511 
L 244.240231 69.832491 
L 244.988903 69.832491 
L 245.055415 69.432452 
L 245.367822 69.432452 
L 245.367822 69.232433 
L 245.493208 69.232433 
L 245.493208 69.032414 
L 246.237404 69.032414 
L 246.237404 68.632375 
L 246.714701 68.632375 
L 246.714701 68.432355 
L 247.275166 68.432355 
L 247.275166 68.232336 
L 247.460514 68.232336 
L 247.460514 68.032316 
L 247.583563 68.032316 
L 247.585092 67.632278 
L 247.827617 67.632278 
L 247.827617 67.432258 
L 248.098863 67.432258 
L 248.098863 67.232239 
L 248.652059 67.232239 
L 248.711155 66.8322 
L 250.87181 66.8322 
L 250.87181 66.63218 
L 251.121752 66.63218 
L 251.121752 66.432161 
L 251.267852 66.432161 
L 251.267852 66.232142 
L 252.652014 66.232142 
L 252.652014 66.032122 
L 253.487603 66.032122 
L 253.487603 65.832103 
L 254.465085 65.832103 
L 254.465085 65.632083 
L 254.871765 65.632083 
L 254.871765 65.432064 
L 255.674903 65.432064 
L 255.674903 65.232044 
L 257.894654 65.232044 
L 257.894654 65.032025 
L 259.018236 65.032025 
L 259.018236 64.832006 
L 260.129527 64.832006 
L 260.129527 64.631986 
L 261.237987 64.631986 
L 261.237987 64.431967 
L 262.601139 64.431967 
L 262.601139 64.231947 
L 268.667139 64.231947 
L 268.708824 63.831908 
L 276.759954 63.831908 
L 276.759954 63.631889 
L 290.074664 63.631889 
L 290.074664 63.43187 
L 453.192 63.43187 
L 453.192 63.43187 
" clip-path="url(#p1c9cb0d957)" style="fill: none; stroke: #00bfbf; stroke-width: 3; stroke-linecap: square"/>
   </g>
   <g id="line2d_20">
    <path clip-path="url(#p1c9cb0d957)" style="fill: none; stroke: #00bfbf; stroke-width: 3; stroke-linecap: square"/>
   </g>
   <g id="line2d_21">
    <path d="M 34.555213 140.995925 
L 34.16 140.995925 
L 453.192 140.995925 
L 461.8 140.995925 
" clip-path="url(#p1c9cb0d957)" style="fill: none; stroke: #bf00bf; stroke-width: 3; stroke-linecap: square"/>
   </g>
   <g id="line2d_22">
    <path d="M 34.555213 288.453725 
L 34.16 288.453725 
L 453.192 288.453725 
L 461.8 288.453725 
" clip-path="url(#p1c9cb0d957)" style="fill: none; stroke: #ff0000; stroke-width: 3; stroke-linecap: square"/>
   </g>
   <g id="line2d_23">
    <path d="M 243.676 291.28 
L 243.676 3 
" clip-path="url(#p1c9cb0d957)" style="fill: none; stroke: #000000; stroke-width: 1.5; stroke-linecap: square"/>
   </g>
   <g id="line2d_24">
    <path d="M 34.16 147.14 
L 453.192 147.14 
" clip-path="url(#p1c9cb0d957)" style="fill: none; stroke-dasharray: 2,3.3; stroke-dashoffset: 0; stroke: #000000; stroke-width: 2"/>
   </g>
   <g id="patch_3">
    <path d="M 34.16 291.28 
L 34.16 3 
" style="fill: none; stroke: #000000; stroke-width: 0.8; stroke-linejoin: miter; stroke-linecap: square"/>
   </g>
   <g id="patch_4">
    <path d="M 453.192 291.28 
L 453.192 3 
" style="fill: none; stroke: #000000; stroke-width: 0.8; stroke-linejoin: miter; stroke-linecap: square"/>
   </g>
   <g id="patch_5">
    <path d="M 34.16 291.28 
L 453.192 291.28 
" style="fill: none; stroke: #000000; stroke-width: 0.8; stroke-linejoin: miter; stroke-linecap: square"/>
   </g>
   <g id="patch_6">
    <path d="M 34.16 3 
L 453.192 3 
" style="fill: none; stroke: #000000; stroke-width: 0.8; stroke-linejoin: miter; stroke-linecap: square"/>
   </g>
   <g id="text_6">
    <!-- f1-f24,5-D -->
    <g transform="translate(343.64261 285.5144)scale(0.2 -0.2)">
     <defs>
      <path id="DejaVuSans-34" d="M 2419 4116 
L 825 1625 
L 2419 1625 
L 2419 4116 
z
M 2253 4666 
L 3047 4666 
L 3047 1625 
L 3713 1625 
L 3713 1100 
L 3047 1100 
L 3047 0 
L 2419 0 
L 2419 1100 
L 313 1100 
L 313 1709 
L 2253 4666 
z
" transform="scale(0.015625)"/>
      <path id="DejaVuSans-2c" d="M 750 794 
L 1409 794 
L 1409 256 
L 897 -744 
L 494 -744 
L 750 256 
L 750 794 
z
" transform="scale(0.015625)"/>
      <path id="DejaVuSans-35" d="M 691 4666 
L 3169 4666 
L 3169 4134 
L 1269 4134 
L 1269 2991 
Q 1406 3038 1543 3061 
Q 1681 3084 1819 3084 
Q 2600 3084 3056 2656 
Q 3513 2228 3513 1497 
Q 3513 744 3044 326 
Q 2575 -91 1722 -91 
Q 1428 -91 1123 -41 
Q 819 9 494 109 
L 494 744 
Q 775 591 1075 516 
Q 1375 441 1709 441 
Q 2250 441 2565 725 
Q 2881 1009 2881 1497 
Q 2881 1984 2565 2268 
Q 2250 2553 1709 2553 
Q 1456 2553 1204 2497 
Q 953 2441 691 2322 
L 691 4666 
z
" transform="scale(0.015625)"/>
      <path id="DejaVuSans-44" d="M 1259 4147 
L 1259 519 
L 2022 519 
Q 2988 519 3436 956 
Q 3884 1394 3884 2338 
Q 3884 3275 3436 3711 
Q 2988 4147 2022 4147 
L 1259 4147 
z
M 628 4666 
L 1925 4666 
Q 3281 4666 3915 4102 
Q 4550 3538 4550 2338 
Q 4550 1131 3912 565 
Q 3275 0 1925 0 
L 628 0 
L 628 4666 
z
" transform="scale(0.015625)"/>
     </defs>
     <use xlink:href="#DejaVuSans-66"/>
     <use xlink:href="#DejaVuSans-31" x="35.205078"/>
     <use xlink:href="#DejaVuSans-2d" x="98.828125"/>
     <use xlink:href="#DejaVuSans-66" x="134.912109"/>
     <use xlink:href="#DejaVuSans-32" x="170.117188"/>
     <use xlink:href="#DejaVuSans-34" x="233.740234"/>
     <use xlink:href="#DejaVuSans-2c" x="297.363281"/>
     <use xlink:href="#DejaVuSans-35" x="329.150391"/>
     <use xlink:href="#DejaVuSans-2d" x="392.773438"/>
     <use xlink:href="#DejaVuSans-44" x="428.857422"/>
    </g>
   </g>
   <g id="text_7">
    <!-- v2.6.3 -->
    <g style="fill: #808080" transform="translate(227.99475 286.317512)scale(0.1 -0.1)">
     <defs>
      <path id="DejaVuSans-2e" d="M 684 794 
L 1344 794 
L 1344 0 
L 684 0 
L 684 794 
z
" transform="scale(0.015625)"/>
      <path id="DejaVuSans-36" d="M 2113 2584 
Q 1688 2584 1439 2293 
Q 1191 2003 1191 1497 
Q 1191 994 1439 701 
Q 1688 409 2113 409 
Q 2538 409 2786 701 
Q 3034 994 3034 1497 
Q 3034 2003 2786 2293 
Q 2538 2584 2113 2584 
z
M 3366 4563 
L 3366 3988 
Q 3128 4100 2886 4159 
Q 2644 4219 2406 4219 
Q 1781 4219 1451 3797 
Q 1122 3375 1075 2522 
Q 1259 2794 1537 2939 
Q 1816 3084 2150 3084 
Q 2853 3084 3261 2657 
Q 3669 2231 3669 1497 
Q 3669 778 3244 343 
Q 2819 -91 2113 -91 
Q 1303 -91 875 529 
Q 447 1150 447 2328 
Q 447 3434 972 4092 
Q 1497 4750 2381 4750 
Q 2619 4750 2861 4703 
Q 3103 4656 3366 4563 
z
" transform="scale(0.015625)"/>
      <path id="DejaVuSans-33" d="M 2597 2516 
Q 3050 2419 3304 2112 
Q 3559 1806 3559 1356 
Q 3559 666 3084 287 
Q 2609 -91 1734 -91 
Q 1441 -91 1130 -33 
Q 819 25 488 141 
L 488 750 
Q 750 597 1062 519 
Q 1375 441 1716 441 
Q 2309 441 2620 675 
Q 2931 909 2931 1356 
Q 2931 1769 2642 2001 
Q 2353 2234 1838 2234 
L 1294 2234 
L 1294 2753 
L 1863 2753 
Q 2328 2753 2575 2939 
Q 2822 3125 2822 3475 
Q 2822 3834 2567 4026 
Q 2313 4219 1838 4219 
Q 1578 4219 1281 4162 
Q 984 4106 628 3988 
L 628 4550 
Q 988 4650 1302 4700 
Q 1616 4750 1894 4750 
Q 2613 4750 3031 4423 
Q 3450 4097 3450 3541 
Q 3450 3153 3228 2886 
Q 3006 2619 2597 2516 
z
" transform="scale(0.015625)"/>
     </defs>
     <use xlink:href="#DejaVuSans-76"/>
     <use xlink:href="#DejaVuSans-32" x="59.179688"/>
     <use xlink:href="#DejaVuSans-2e" x="122.802734"/>
     <use xlink:href="#DejaVuSans-36" x="154.589844"/>
     <use xlink:href="#DejaVuSans-2e" x="218.212891"/>
     <use xlink:href="#DejaVuSans-33" x="250"/>
    </g>
   </g>
   <g id="legend_1">
    <g id="patch_7">
     <path d="M 291.73575 281.28 
L 439.192 281.28 
Q 443.192 281.28 443.192 277.28 
L 443.192 161.855 
Q 443.192 157.855 439.192 157.855 
L 291.73575 157.855 
Q 287.73575 157.855 287.73575 161.855 
L 287.73575 277.28 
Q 287.73575 281.28 291.73575 281.28 
z
" style="fill: #ffffff; opacity: 0.2; stroke: #cccccc; stroke-linejoin: miter"/>
    </g>
    <g id="line2d_25">
     <path d="M 295.73575 174.051875 
L 315.73575 174.051875 
L 335.73575 174.051875 
" style="fill: none; stroke: #000000; stroke-width: 3; stroke-linecap: square"/>
    </g>
    <g id="text_8">
     <!-- 1: 23/18 -->
     <g transform="translate(351.73575 181.051875)scale(0.2 -0.2)">
      <defs>
       <path id="DejaVuSans-3a" d="M 750 794 
L 1409 794 
L 1409 0 
L 750 0 
L 750 794 
z
M 750 3309 
L 1409 3309 
L 1409 2516 
L 750 2516 
L 750 3309 
z
" transform="scale(0.015625)"/>
       <path id="DejaVuSans-2f" d="M 1625 4666 
L 2156 4666 
L 531 -594 
L 0 -594 
L 1625 4666 
z
" transform="scale(0.015625)"/>
       <path id="DejaVuSans-38" d="M 2034 2216 
Q 1584 2216 1326 1975 
Q 1069 1734 1069 1313 
Q 1069 891 1326 650 
Q 1584 409 2034 409 
Q 2484 409 2743 651 
Q 3003 894 3003 1313 
Q 3003 1734 2745 1975 
Q 2488 2216 2034 2216 
z
M 1403 2484 
Q 997 2584 770 2862 
Q 544 3141 544 3541 
Q 544 4100 942 4425 
Q 1341 4750 2034 4750 
Q 2731 4750 3128 4425 
Q 3525 4100 3525 3541 
Q 3525 3141 3298 2862 
Q 3072 2584 2669 2484 
Q 3125 2378 3379 2068 
Q 3634 1759 3634 1313 
Q 3634 634 3220 271 
Q 2806 -91 2034 -91 
Q 1263 -91 848 271 
Q 434 634 434 1313 
Q 434 1759 690 2068 
Q 947 2378 1403 2484 
z
M 1172 3481 
Q 1172 3119 1398 2916 
Q 1625 2713 2034 2713 
Q 2441 2713 2670 2916 
Q 2900 3119 2900 3481 
Q 2900 3844 2670 4047 
Q 2441 4250 2034 4250 
Q 1625 4250 1398 4047 
Q 1172 3844 1172 3481 
z
" transform="scale(0.015625)"/>
      </defs>
      <use xlink:href="#DejaVuSans-31"/>
      <use xlink:href="#DejaVuSans-3a" x="63.623047"/>
      <use xlink:href="#DejaVuSans-20" x="97.314453"/>
      <use xlink:href="#DejaVuSans-32" x="129.101562"/>
      <use xlink:href="#DejaVuSans-33" x="192.724609"/>
      <use xlink:href="#DejaVuSans-2f" x="256.347656"/>
      <use xlink:href="#DejaVuSans-31" x="290.039062"/>
      <use xlink:href="#DejaVuSans-38" x="353.662109"/>
     </g>
    </g>
    <g id="line2d_26">
     <path d="M 295.73575 203.408125 
L 315.73575 203.408125 
L 335.73575 203.408125 
" style="fill: none; stroke: #00bfbf; stroke-width: 3; stroke-linecap: square"/>
    </g>
    <g id="text_9">
     <!-- -1: 10/6 -->
     <g transform="translate(351.73575 210.408125)scale(0.2 -0.2)">
      <use xlink:href="#DejaVuSans-2d"/>
      <use xlink:href="#DejaVuSans-31" x="36.083984"/>
      <use xlink:href="#DejaVuSans-3a" x="99.707031"/>
      <use xlink:href="#DejaVuSans-20" x="133.398438"/>
      <use xlink:href="#DejaVuSans-31" x="165.185547"/>
      <use xlink:href="#DejaVuSans-30" x="228.808594"/>
      <use xlink:href="#DejaVuSans-2f" x="292.431641"/>
      <use xlink:href="#DejaVuSans-36" x="326.123047"/>
     </g>
    </g>
    <g id="line2d_27">
     <path d="M 295.73575 232.764375 
L 315.73575 232.764375 
L 335.73575 232.764375 
" style="fill: none; stroke: #bf00bf; stroke-width: 3; stroke-linecap: square"/>
    </g>
    <g id="text_10">
     <!-- -4: 3/1 -->
     <g transform="translate(351.73575 239.764375)scale(0.2 -0.2)">
      <use xlink:href="#DejaVuSans-2d"/>
      <use xlink:href="#DejaVuSans-34" x="36.083984"/>
      <use xlink:href="#DejaVuSans-3a" x="99.707031"/>
      <use xlink:href="#DejaVuSans-20" x="133.398438"/>
      <use xlink:href="#DejaVuSans-33" x="165.185547"/>
      <use xlink:href="#DejaVuSans-2f" x="228.808594"/>
      <use xlink:href="#DejaVuSans-31" x="262.5"/>
     </g>
    </g>
    <g id="line2d_28">
     <path d="M 295.73575 262.120625 
L 315.73575 262.120625 
L 335.73575 262.120625 
" style="fill: none; stroke: #ff0000; stroke-width: 3; stroke-linecap: square"/>
    </g>
    <g id="text_11">
     <!-- -8: 0/1 -->
     <g transform="translate(351.73575 269.120625)scale(0.2 -0.2)">
      <use xlink:href="#DejaVuSans-2d"/>
      <use xlink:href="#DejaVuSans-38" x="36.083984"/>
      <use xlink:href="#DejaVuSans-3a" x="99.707031"/>
      <use xlink:href="#DejaVuSans-20" x="133.398438"/>
      <use xlink:href="#DejaVuSans-30" x="165.185547"/>
      <use xlink:href="#DejaVuSans-2f" x="228.808594"/>
      <use xlink:href="#DejaVuSans-31" x="262.5"/>
     </g>
    </g>
   </g>
  </g>
 </g>
 <defs>
  <clipPath id="p1c9cb0d957">
   <rect x="34.16" y="3" width="419.032" height="288.28"/>
  </clipPath>
 </defs>
</svg>
