<?xml version="1.0" encoding="utf-8" standalone="no"?>
<!DOCTYPE svg PUBLIC "-//W3C//DTD SVG 1.1//EN"
  "http://www.w3.org/Graphics/SVG/1.1/DTD/svg11.dtd">
<svg xmlns:xlink="http://www.w3.org/1999/xlink" width="460.8pt" height="345.6pt" viewBox="0 0 460.8 345.6" xmlns="http://www.w3.org/2000/svg" version="1.1">
 <metadata>
  <rdf:RDF xmlns:dc="http://purl.org/dc/elements/1.1/" xmlns:cc="http://creativecommons.org/ns#" xmlns:rdf="http://www.w3.org/1999/02/22-rdf-syntax-ns#">
   <cc:Work>
    <dc:type rdf:resource="http://purl.org/dc/dcmitype/StillImage"/>
    <dc:date>2024-01-05T10:25:39.833316</dc:date>
    <dc:format>image/svg+xml</dc:format>
    <dc:creator>
     <cc:Agent>
      <dc:title>Matplotlib v3.5.1, https://matplotlib.org/</dc:title>
     </cc:Agent>
    </dc:creator>
   </cc:Work>
  </rdf:RDF>
 </metadata>
 <defs>
  <style type="text/css">*{stroke-linejoin: round; stroke-linecap: butt}</style>
 </defs>
 <g id="figure_1">
  <g id="patch_1">
   <path d="M 0 345.6 
L 460.8 345.6 
L 460.8 0 
L 0 0 
z
" style="fill: #ffffff"/>
  </g>
  <g id="axes_1">
   <g id="patch_2">
    <path d="M 34.16 291.28 
L 453.192 291.28 
L 453.192 3 
L 34.16 3 
z
" style="fill: #ffffff"/>
   </g>
   <g id="matplotlib.axis_1">
    <g id="xtick_1">
     <g id="line2d_1">
      <path d="M 148.846916 291.28 
L 148.846916 3 
" clip-path="url(#p45c0651910)" style="fill: none; stroke: #b0b0b0; stroke-width: 0.8; stroke-linecap: square"/>
     </g>
     <g id="line2d_2">
      <defs>
       <path id="m60b9ee4353" d="M 0 0 
L 0 3.5 
" style="stroke: #000000; stroke-width: 0.8"/>
      </defs>
      <g>
       <use xlink:href="#m60b9ee4353" x="148.846916" y="291.28" style="stroke: #000000; stroke-width: 0.8"/>
      </g>
     </g>
     <g id="text_1">
      <!-- -1 -->
      <g transform="translate(138.876604 313.476875)scale(0.2 -0.2)">
       <defs>
        <path id="DejaVuSans-2d" d="M 313 2009 
L 1997 2009 
L 1997 1497 
L 313 1497 
L 313 2009 
z
" transform="scale(0.015625)"/>
        <path id="DejaVuSans-31" d="M 794 531 
L 1825 531 
L 1825 4091 
L 703 3866 
L 703 4441 
L 1819 4666 
L 2450 4666 
L 2450 531 
L 3481 531 
L 3481 0 
L 794 0 
L 794 531 
z
" transform="scale(0.015625)"/>
       </defs>
       <use xlink:href="#DejaVuSans-2d"/>
       <use xlink:href="#DejaVuSans-31" x="36.083984"/>
      </g>
     </g>
    </g>
    <g id="xtick_2">
     <g id="line2d_3">
      <path d="M 338.505084 291.28 
L 338.505084 3 
" clip-path="url(#p45c0651910)" style="fill: none; stroke: #b0b0b0; stroke-width: 0.8; stroke-linecap: square"/>
     </g>
     <g id="line2d_4">
      <g>
       <use xlink:href="#m60b9ee4353" x="338.505084" y="291.28" style="stroke: #000000; stroke-width: 0.8"/>
      </g>
     </g>
     <g id="text_2">
      <!-- 1 -->
      <g transform="translate(332.142584 313.476875)scale(0.2 -0.2)">
       <use xlink:href="#DejaVuSans-31"/>
      </g>
     </g>
    </g>
    <g id="xtick_3">
     <g id="line2d_5">
      <defs>
       <path id="md430ff5335" d="M 0 0 
L 0 2 
" style="stroke: #000000; stroke-width: 0.6"/>
      </defs>
      <g>
       <use xlink:href="#md430ff5335" x="39.328622" y="291.28" style="stroke: #000000; stroke-width: 0.6"/>
      </g>
     </g>
    </g>
    <g id="xtick_4">
     <g id="line2d_6">
      <g>
       <use xlink:href="#md430ff5335" x="44.827945" y="291.28" style="stroke: #000000; stroke-width: 0.6"/>
      </g>
     </g>
    </g>
    <g id="xtick_5">
     <g id="line2d_7">
      <g>
       <use xlink:href="#md430ff5335" x="49.678692" y="291.28" style="stroke: #000000; stroke-width: 0.6"/>
      </g>
     </g>
    </g>
    <g id="xtick_6">
     <g id="line2d_8">
      <g>
       <use xlink:href="#md430ff5335" x="82.564231" y="291.28" style="stroke: #000000; stroke-width: 0.6"/>
      </g>
     </g>
    </g>
    <g id="xtick_7">
     <g id="line2d_9">
      <g>
       <use xlink:href="#md430ff5335" x="99.262804" y="291.28" style="stroke: #000000; stroke-width: 0.6"/>
      </g>
     </g>
    </g>
    <g id="xtick_8">
     <g id="line2d_10">
      <g>
       <use xlink:href="#md430ff5335" x="111.11063" y="291.28" style="stroke: #000000; stroke-width: 0.6"/>
      </g>
     </g>
    </g>
    <g id="xtick_9">
     <g id="line2d_11">
      <g>
       <use xlink:href="#md430ff5335" x="120.300518" y="291.28" style="stroke: #000000; stroke-width: 0.6"/>
      </g>
     </g>
    </g>
    <g id="xtick_10">
     <g id="line2d_12">
      <g>
       <use xlink:href="#md430ff5335" x="127.809203" y="291.28" style="stroke: #000000; stroke-width: 0.6"/>
      </g>
     </g>
    </g>
    <g id="xtick_11">
     <g id="line2d_13">
      <g>
       <use xlink:href="#md430ff5335" x="134.157705" y="291.28" style="stroke: #000000; stroke-width: 0.6"/>
      </g>
     </g>
    </g>
    <g id="xtick_12">
     <g id="line2d_14">
      <g>
       <use xlink:href="#md430ff5335" x="139.657029" y="291.28" style="stroke: #000000; stroke-width: 0.6"/>
      </g>
     </g>
    </g>
    <g id="xtick_13">
     <g id="line2d_15">
      <g>
       <use xlink:href="#md430ff5335" x="144.507775" y="291.28" style="stroke: #000000; stroke-width: 0.6"/>
      </g>
     </g>
    </g>
    <g id="xtick_14">
     <g id="line2d_16">
      <g>
       <use xlink:href="#md430ff5335" x="177.393315" y="291.28" style="stroke: #000000; stroke-width: 0.6"/>
      </g>
     </g>
    </g>
    <g id="xtick_15">
     <g id="line2d_17">
      <g>
       <use xlink:href="#md430ff5335" x="194.091888" y="291.28" style="stroke: #000000; stroke-width: 0.6"/>
      </g>
     </g>
    </g>
    <g id="xtick_16">
     <g id="line2d_18">
      <g>
       <use xlink:href="#md430ff5335" x="205.939714" y="291.28" style="stroke: #000000; stroke-width: 0.6"/>
      </g>
     </g>
    </g>
    <g id="xtick_17">
     <g id="line2d_19">
      <g>
       <use xlink:href="#md430ff5335" x="215.129601" y="291.28" style="stroke: #000000; stroke-width: 0.6"/>
      </g>
     </g>
    </g>
    <g id="xtick_18">
     <g id="line2d_20">
      <g>
       <use xlink:href="#md430ff5335" x="222.638286" y="291.28" style="stroke: #000000; stroke-width: 0.6"/>
      </g>
     </g>
    </g>
    <g id="xtick_19">
     <g id="line2d_21">
      <g>
       <use xlink:href="#md430ff5335" x="228.986789" y="291.28" style="stroke: #000000; stroke-width: 0.6"/>
      </g>
     </g>
    </g>
    <g id="xtick_20">
     <g id="line2d_22">
      <g>
       <use xlink:href="#md430ff5335" x="234.486112" y="291.28" style="stroke: #000000; stroke-width: 0.6"/>
      </g>
     </g>
    </g>
    <g id="xtick_21">
     <g id="line2d_23">
      <g>
       <use xlink:href="#md430ff5335" x="239.336859" y="291.28" style="stroke: #000000; stroke-width: 0.6"/>
      </g>
     </g>
    </g>
    <g id="xtick_22">
     <g id="line2d_24">
      <g>
       <use xlink:href="#md430ff5335" x="272.222399" y="291.28" style="stroke: #000000; stroke-width: 0.6"/>
      </g>
     </g>
    </g>
    <g id="xtick_23">
     <g id="line2d_25">
      <g>
       <use xlink:href="#md430ff5335" x="288.920971" y="291.28" style="stroke: #000000; stroke-width: 0.6"/>
      </g>
     </g>
    </g>
    <g id="xtick_24">
     <g id="line2d_26">
      <g>
       <use xlink:href="#md430ff5335" x="300.768797" y="291.28" style="stroke: #000000; stroke-width: 0.6"/>
      </g>
     </g>
    </g>
    <g id="xtick_25">
     <g id="line2d_27">
      <g>
       <use xlink:href="#md430ff5335" x="309.958685" y="291.28" style="stroke: #000000; stroke-width: 0.6"/>
      </g>
     </g>
    </g>
    <g id="xtick_26">
     <g id="line2d_28">
      <g>
       <use xlink:href="#md430ff5335" x="317.46737" y="291.28" style="stroke: #000000; stroke-width: 0.6"/>
      </g>
     </g>
    </g>
    <g id="xtick_27">
     <g id="line2d_29">
      <g>
       <use xlink:href="#md430ff5335" x="323.815873" y="291.28" style="stroke: #000000; stroke-width: 0.6"/>
      </g>
     </g>
    </g>
    <g id="xtick_28">
     <g id="line2d_30">
      <g>
       <use xlink:href="#md430ff5335" x="329.315196" y="291.28" style="stroke: #000000; stroke-width: 0.6"/>
      </g>
     </g>
    </g>
    <g id="xtick_29">
     <g id="line2d_31">
      <g>
       <use xlink:href="#md430ff5335" x="334.165943" y="291.28" style="stroke: #000000; stroke-width: 0.6"/>
      </g>
     </g>
    </g>
    <g id="xtick_30">
     <g id="line2d_32">
      <g>
       <use xlink:href="#md430ff5335" x="367.051482" y="291.28" style="stroke: #000000; stroke-width: 0.6"/>
      </g>
     </g>
    </g>
    <g id="xtick_31">
     <g id="line2d_33">
      <g>
       <use xlink:href="#md430ff5335" x="383.750055" y="291.28" style="stroke: #000000; stroke-width: 0.6"/>
      </g>
     </g>
    </g>
    <g id="xtick_32">
     <g id="line2d_34">
      <g>
       <use xlink:href="#md430ff5335" x="395.597881" y="291.28" style="stroke: #000000; stroke-width: 0.6"/>
      </g>
     </g>
    </g>
    <g id="xtick_33">
     <g id="line2d_35">
      <g>
       <use xlink:href="#md430ff5335" x="404.787769" y="291.28" style="stroke: #000000; stroke-width: 0.6"/>
      </g>
     </g>
    </g>
    <g id="xtick_34">
     <g id="line2d_36">
      <g>
       <use xlink:href="#md430ff5335" x="412.296454" y="291.28" style="stroke: #000000; stroke-width: 0.6"/>
      </g>
     </g>
    </g>
    <g id="xtick_35">
     <g id="line2d_37">
      <g>
       <use xlink:href="#md430ff5335" x="418.644956" y="291.28" style="stroke: #000000; stroke-width: 0.6"/>
      </g>
     </g>
    </g>
    <g id="xtick_36">
     <g id="line2d_38">
      <g>
       <use xlink:href="#md430ff5335" x="424.14428" y="291.28" style="stroke: #000000; stroke-width: 0.6"/>
      </g>
     </g>
    </g>
    <g id="xtick_37">
     <g id="line2d_39">
      <g>
       <use xlink:href="#md430ff5335" x="428.995026" y="291.28" style="stroke: #000000; stroke-width: 0.6"/>
      </g>
     </g>
    </g>
    <g id="text_3">
     <!-- log10 of FEvals ratio -->
     <g transform="translate(141.371312 336.833125)scale(0.2 -0.2)">
      <defs>
       <path id="DejaVuSans-6c" d="M 603 4863 
L 1178 4863 
L 1178 0 
L 603 0 
L 603 4863 
z
" transform="scale(0.015625)"/>
       <path id="DejaVuSans-6f" d="M 1959 3097 
Q 1497 3097 1228 2736 
Q 959 2375 959 1747 
Q 959 1119 1226 758 
Q 1494 397 1959 397 
Q 2419 397 2687 759 
Q 2956 1122 2956 1747 
Q 2956 2369 2687 2733 
Q 2419 3097 1959 3097 
z
M 1959 3584 
Q 2709 3584 3137 3096 
Q 3566 2609 3566 1747 
Q 3566 888 3137 398 
Q 2709 -91 1959 -91 
Q 1206 -91 779 398 
Q 353 888 353 1747 
Q 353 2609 779 3096 
Q 1206 3584 1959 3584 
z
" transform="scale(0.015625)"/>
       <path id="DejaVuSans-67" d="M 2906 1791 
Q 2906 2416 2648 2759 
Q 2391 3103 1925 3103 
Q 1463 3103 1205 2759 
Q 947 2416 947 1791 
Q 947 1169 1205 825 
Q 1463 481 1925 481 
Q 2391 481 2648 825 
Q 2906 1169 2906 1791 
z
M 3481 434 
Q 3481 -459 3084 -895 
Q 2688 -1331 1869 -1331 
Q 1566 -1331 1297 -1286 
Q 1028 -1241 775 -1147 
L 775 -588 
Q 1028 -725 1275 -790 
Q 1522 -856 1778 -856 
Q 2344 -856 2625 -561 
Q 2906 -266 2906 331 
L 2906 616 
Q 2728 306 2450 153 
Q 2172 0 1784 0 
Q 1141 0 747 490 
Q 353 981 353 1791 
Q 353 2603 747 3093 
Q 1141 3584 1784 3584 
Q 2172 3584 2450 3431 
Q 2728 3278 2906 2969 
L 2906 3500 
L 3481 3500 
L 3481 434 
z
" transform="scale(0.015625)"/>
       <path id="DejaVuSans-30" d="M 2034 4250 
Q 1547 4250 1301 3770 
Q 1056 3291 1056 2328 
Q 1056 1369 1301 889 
Q 1547 409 2034 409 
Q 2525 409 2770 889 
Q 3016 1369 3016 2328 
Q 3016 3291 2770 3770 
Q 2525 4250 2034 4250 
z
M 2034 4750 
Q 2819 4750 3233 4129 
Q 3647 3509 3647 2328 
Q 3647 1150 3233 529 
Q 2819 -91 2034 -91 
Q 1250 -91 836 529 
Q 422 1150 422 2328 
Q 422 3509 836 4129 
Q 1250 4750 2034 4750 
z
" transform="scale(0.015625)"/>
       <path id="DejaVuSans-20" transform="scale(0.015625)"/>
       <path id="DejaVuSans-66" d="M 2375 4863 
L 2375 4384 
L 1825 4384 
Q 1516 4384 1395 4259 
Q 1275 4134 1275 3809 
L 1275 3500 
L 2222 3500 
L 2222 3053 
L 1275 3053 
L 1275 0 
L 697 0 
L 697 3053 
L 147 3053 
L 147 3500 
L 697 3500 
L 697 3744 
Q 697 4328 969 4595 
Q 1241 4863 1831 4863 
L 2375 4863 
z
" transform="scale(0.015625)"/>
       <path id="DejaVuSans-46" d="M 628 4666 
L 3309 4666 
L 3309 4134 
L 1259 4134 
L 1259 2759 
L 3109 2759 
L 3109 2228 
L 1259 2228 
L 1259 0 
L 628 0 
L 628 4666 
z
" transform="scale(0.015625)"/>
       <path id="DejaVuSans-45" d="M 628 4666 
L 3578 4666 
L 3578 4134 
L 1259 4134 
L 1259 2753 
L 3481 2753 
L 3481 2222 
L 1259 2222 
L 1259 531 
L 3634 531 
L 3634 0 
L 628 0 
L 628 4666 
z
" transform="scale(0.015625)"/>
       <path id="DejaVuSans-76" d="M 191 3500 
L 800 3500 
L 1894 563 
L 2988 3500 
L 3597 3500 
L 2284 0 
L 1503 0 
L 191 3500 
z
" transform="scale(0.015625)"/>
       <path id="DejaVuSans-61" d="M 2194 1759 
Q 1497 1759 1228 1600 
Q 959 1441 959 1056 
Q 959 750 1161 570 
Q 1363 391 1709 391 
Q 2188 391 2477 730 
Q 2766 1069 2766 1631 
L 2766 1759 
L 2194 1759 
z
M 3341 1997 
L 3341 0 
L 2766 0 
L 2766 531 
Q 2569 213 2275 61 
Q 1981 -91 1556 -91 
Q 1019 -91 701 211 
Q 384 513 384 1019 
Q 384 1609 779 1909 
Q 1175 2209 1959 2209 
L 2766 2209 
L 2766 2266 
Q 2766 2663 2505 2880 
Q 2244 3097 1772 3097 
Q 1472 3097 1187 3025 
Q 903 2953 641 2809 
L 641 3341 
Q 956 3463 1253 3523 
Q 1550 3584 1831 3584 
Q 2591 3584 2966 3190 
Q 3341 2797 3341 1997 
z
" transform="scale(0.015625)"/>
       <path id="DejaVuSans-73" d="M 2834 3397 
L 2834 2853 
Q 2591 2978 2328 3040 
Q 2066 3103 1784 3103 
Q 1356 3103 1142 2972 
Q 928 2841 928 2578 
Q 928 2378 1081 2264 
Q 1234 2150 1697 2047 
L 1894 2003 
Q 2506 1872 2764 1633 
Q 3022 1394 3022 966 
Q 3022 478 2636 193 
Q 2250 -91 1575 -91 
Q 1294 -91 989 -36 
Q 684 19 347 128 
L 347 722 
Q 666 556 975 473 
Q 1284 391 1588 391 
Q 1994 391 2212 530 
Q 2431 669 2431 922 
Q 2431 1156 2273 1281 
Q 2116 1406 1581 1522 
L 1381 1569 
Q 847 1681 609 1914 
Q 372 2147 372 2553 
Q 372 3047 722 3315 
Q 1072 3584 1716 3584 
Q 2034 3584 2315 3537 
Q 2597 3491 2834 3397 
z
" transform="scale(0.015625)"/>
       <path id="DejaVuSans-72" d="M 2631 2963 
Q 2534 3019 2420 3045 
Q 2306 3072 2169 3072 
Q 1681 3072 1420 2755 
Q 1159 2438 1159 1844 
L 1159 0 
L 581 0 
L 581 3500 
L 1159 3500 
L 1159 2956 
Q 1341 3275 1631 3429 
Q 1922 3584 2338 3584 
Q 2397 3584 2469 3576 
Q 2541 3569 2628 3553 
L 2631 2963 
z
" transform="scale(0.015625)"/>
       <path id="DejaVuSans-74" d="M 1172 4494 
L 1172 3500 
L 2356 3500 
L 2356 3053 
L 1172 3053 
L 1172 1153 
Q 1172 725 1289 603 
Q 1406 481 1766 481 
L 2356 481 
L 2356 0 
L 1766 0 
Q 1100 0 847 248 
Q 594 497 594 1153 
L 594 3053 
L 172 3053 
L 172 3500 
L 594 3500 
L 594 4494 
L 1172 4494 
z
" transform="scale(0.015625)"/>
       <path id="DejaVuSans-69" d="M 603 3500 
L 1178 3500 
L 1178 0 
L 603 0 
L 603 3500 
z
M 603 4863 
L 1178 4863 
L 1178 4134 
L 603 4134 
L 603 4863 
z
" transform="scale(0.015625)"/>
      </defs>
      <use xlink:href="#DejaVuSans-6c"/>
      <use xlink:href="#DejaVuSans-6f" x="27.783203"/>
      <use xlink:href="#DejaVuSans-67" x="88.964844"/>
      <use xlink:href="#DejaVuSans-31" x="152.441406"/>
      <use xlink:href="#DejaVuSans-30" x="216.064453"/>
      <use xlink:href="#DejaVuSans-20" x="279.6875"/>
      <use xlink:href="#DejaVuSans-6f" x="311.474609"/>
      <use xlink:href="#DejaVuSans-66" x="372.65625"/>
      <use xlink:href="#DejaVuSans-20" x="407.861328"/>
      <use xlink:href="#DejaVuSans-46" x="439.648438"/>
      <use xlink:href="#DejaVuSans-45" x="497.167969"/>
      <use xlink:href="#DejaVuSans-76" x="560.351562"/>
      <use xlink:href="#DejaVuSans-61" x="619.53125"/>
      <use xlink:href="#DejaVuSans-6c" x="680.810547"/>
      <use xlink:href="#DejaVuSans-73" x="708.59375"/>
      <use xlink:href="#DejaVuSans-20" x="760.693359"/>
      <use xlink:href="#DejaVuSans-72" x="792.480469"/>
      <use xlink:href="#DejaVuSans-61" x="833.59375"/>
      <use xlink:href="#DejaVuSans-74" x="894.873047"/>
      <use xlink:href="#DejaVuSans-69" x="934.082031"/>
      <use xlink:href="#DejaVuSans-6f" x="961.865234"/>
     </g>
    </g>
   </g>
   <g id="matplotlib.axis_2">
    <g id="ytick_1">
     <g id="line2d_40">
      <path d="M 34.16 288.453725 
L 453.192 288.453725 
" clip-path="url(#p45c0651910)" style="fill: none; stroke: #b0b0b0; stroke-width: 0.8; stroke-linecap: square"/>
     </g>
     <g id="line2d_41">
      <defs>
       <path id="m4330114d6c" d="M 0 0 
L -3.5 0 
" style="stroke: #000000; stroke-width: 0.8"/>
      </defs>
      <g>
       <use xlink:href="#m4330114d6c" x="34.16" y="288.453725" style="stroke: #000000; stroke-width: 0.8"/>
      </g>
     </g>
    </g>
    <g id="ytick_2">
     <g id="line2d_42">
      <path d="M 34.16 217.796863 
L 453.192 217.796863 
" clip-path="url(#p45c0651910)" style="fill: none; stroke: #b0b0b0; stroke-width: 0.8; stroke-linecap: square"/>
     </g>
     <g id="line2d_43">
      <g>
       <use xlink:href="#m4330114d6c" x="34.16" y="217.796863" style="stroke: #000000; stroke-width: 0.8"/>
      </g>
     </g>
    </g>
    <g id="ytick_3">
     <g id="line2d_44">
      <path d="M 34.16 147.14 
L 453.192 147.14 
" clip-path="url(#p45c0651910)" style="fill: none; stroke: #b0b0b0; stroke-width: 0.8; stroke-linecap: square"/>
     </g>
     <g id="line2d_45">
      <g>
       <use xlink:href="#m4330114d6c" x="34.16" y="147.14" style="stroke: #000000; stroke-width: 0.8"/>
      </g>
     </g>
    </g>
    <g id="ytick_4">
     <g id="line2d_46">
      <path d="M 34.16 76.483137 
L 453.192 76.483137 
" clip-path="url(#p45c0651910)" style="fill: none; stroke: #b0b0b0; stroke-width: 0.8; stroke-linecap: square"/>
     </g>
     <g id="line2d_47">
      <g>
       <use xlink:href="#m4330114d6c" x="34.16" y="76.483137" style="stroke: #000000; stroke-width: 0.8"/>
      </g>
     </g>
    </g>
    <g id="ytick_5">
     <g id="line2d_48">
      <path d="M 34.16 5.826275 
L 453.192 5.826275 
" clip-path="url(#p45c0651910)" style="fill: none; stroke: #b0b0b0; stroke-width: 0.8; stroke-linecap: square"/>
     </g>
     <g id="line2d_49">
      <g>
       <use xlink:href="#m4330114d6c" x="34.16" y="5.826275" style="stroke: #000000; stroke-width: 0.8"/>
      </g>
     </g>
    </g>
    <g id="text_4">
     <!-- proportion of trials -->
     <g transform="translate(19.000625 240.14625)rotate(-90)scale(0.2 -0.2)">
      <defs>
       <path id="DejaVuSans-70" d="M 1159 525 
L 1159 -1331 
L 581 -1331 
L 581 3500 
L 1159 3500 
L 1159 2969 
Q 1341 3281 1617 3432 
Q 1894 3584 2278 3584 
Q 2916 3584 3314 3078 
Q 3713 2572 3713 1747 
Q 3713 922 3314 415 
Q 2916 -91 2278 -91 
Q 1894 -91 1617 61 
Q 1341 213 1159 525 
z
M 3116 1747 
Q 3116 2381 2855 2742 
Q 2594 3103 2138 3103 
Q 1681 3103 1420 2742 
Q 1159 2381 1159 1747 
Q 1159 1113 1420 752 
Q 1681 391 2138 391 
Q 2594 391 2855 752 
Q 3116 1113 3116 1747 
z
" transform="scale(0.015625)"/>
       <path id="DejaVuSans-6e" d="M 3513 2113 
L 3513 0 
L 2938 0 
L 2938 2094 
Q 2938 2591 2744 2837 
Q 2550 3084 2163 3084 
Q 1697 3084 1428 2787 
Q 1159 2491 1159 1978 
L 1159 0 
L 581 0 
L 581 3500 
L 1159 3500 
L 1159 2956 
Q 1366 3272 1645 3428 
Q 1925 3584 2291 3584 
Q 2894 3584 3203 3211 
Q 3513 2838 3513 2113 
z
" transform="scale(0.015625)"/>
      </defs>
      <use xlink:href="#DejaVuSans-70"/>
      <use xlink:href="#DejaVuSans-72" x="63.476562"/>
      <use xlink:href="#DejaVuSans-6f" x="102.339844"/>
      <use xlink:href="#DejaVuSans-70" x="163.521484"/>
      <use xlink:href="#DejaVuSans-6f" x="226.998047"/>
      <use xlink:href="#DejaVuSans-72" x="288.179688"/>
      <use xlink:href="#DejaVuSans-74" x="329.292969"/>
      <use xlink:href="#DejaVuSans-69" x="368.501953"/>
      <use xlink:href="#DejaVuSans-6f" x="396.285156"/>
      <use xlink:href="#DejaVuSans-6e" x="457.466797"/>
      <use xlink:href="#DejaVuSans-20" x="520.845703"/>
      <use xlink:href="#DejaVuSans-6f" x="552.632812"/>
      <use xlink:href="#DejaVuSans-66" x="613.814453"/>
      <use xlink:href="#DejaVuSans-20" x="649.019531"/>
      <use xlink:href="#DejaVuSans-74" x="680.806641"/>
      <use xlink:href="#DejaVuSans-72" x="720.015625"/>
      <use xlink:href="#DejaVuSans-69" x="761.128906"/>
      <use xlink:href="#DejaVuSans-61" x="788.912109"/>
      <use xlink:href="#DejaVuSans-6c" x="850.191406"/>
      <use xlink:href="#DejaVuSans-73" x="877.974609"/>
     </g>
    </g>
   </g>
   <g id="line2d_50">
    <path d="M 34.16 288.453725 
L 152.383714 288.453725 
L 152.383714 288.139695 
L 157.399864 288.139695 
L 157.399864 287.825664 
L 158.501579 287.825664 
L 158.501579 287.511634 
L 164.008322 287.511634 
L 164.008322 287.197603 
L 164.832774 287.197603 
L 164.832774 286.883573 
L 167.233111 286.883573 
L 167.233111 286.569542 
L 171.71532 286.569542 
L 171.71532 286.255512 
L 175.985186 286.255512 
L 175.985186 285.941481 
L 176.216556 285.941481 
L 176.216556 285.627451 
L 180.555697 285.627451 
L 180.555697 285.31342 
L 183.803485 285.31342 
L 183.803485 284.99939 
L 185.045498 284.99939 
L 185.045498 284.685359 
L 186.434256 284.685359 
L 186.434256 284.371329 
L 187.610282 284.371329 
L 187.610282 284.057298 
L 188.570188 284.057298 
L 188.570188 283.743268 
L 189.842374 283.743268 
L 189.842374 283.429237 
L 191.52598 283.429237 
L 191.52598 283.115207 
L 191.880148 283.115207 
L 191.880148 282.801176 
L 192.111518 282.801176 
L 192.174557 282.173115 
L 192.597329 282.173115 
L 192.597329 281.859085 
L 193.500479 281.859085 
L 193.500479 281.545054 
L 193.82417 281.545054 
L 193.82417 281.231024 
L 194.181515 281.231024 
L 194.181515 280.916993 
L 196.450659 280.916993 
L 196.488039 280.288932 
L 197.157708 280.288932 
L 197.157708 279.974902 
L 200.940459 279.974902 
L 200.940459 279.660871 
L 202.267346 279.660871 
L 202.329218 279.03281 
L 202.915695 279.03281 
L 202.915695 278.71878 
L 203.564272 278.71878 
L 203.564272 278.404749 
L 203.832737 278.404749 
L 203.903764 277.462658 
L 203.969333 277.462658 
L 203.969333 277.148627 
L 204.241174 277.148627 
L 204.241174 276.834597 
L 204.46515 276.834597 
L 204.46515 276.520566 
L 205.737336 276.520566 
L 205.737336 276.206536 
L 206.540947 276.206536 
L 206.598668 275.578475 
L 206.905946 275.578475 
L 206.905946 275.264444 
L 207.247244 275.264444 
L 207.247244 274.950414 
L 208.102603 274.950414 
L 208.102603 274.322353 
L 208.239199 274.322353 
L 208.333973 273.380261 
L 208.470569 273.380261 
L 208.51104 272.43817 
L 208.74241 272.43817 
L 208.74241 272.124139 
L 208.919913 272.124139 
L 208.919913 271.810109 
L 209.399413 271.810109 
L 209.399413 271.496078 
L 209.719132 271.496078 
L 209.719132 271.182048 
L 210.021628 271.182048 
L 210.076477 270.553987 
L 210.244635 270.553987 
L 210.290268 269.925926 
L 211.204371 269.925926 
L 211.204371 269.611895 
L 211.771674 269.611895 
L 211.771674 269.297865 
L 211.894649 269.297865 
L 211.894649 268.983834 
L 212.383001 268.983834 
L 212.383001 268.669804 
L 212.673114 268.669804 
L 212.759342 267.727712 
L 212.80971 267.727712 
L 212.902911 267.099651 
L 213.05267 267.099651 
L 213.081551 266.47159 
L 213.551487 266.47159 
L 213.551487 266.15756 
L 214.415562 266.15756 
L 214.415562 265.843529 
L 214.804036 265.843529 
L 214.804036 265.529499 
L 215.452613 265.529499 
L 215.528371 264.273377 
L 215.705607 264.273377 
L 215.705607 263.959346 
L 216.352823 263.959346 
L 216.352823 263.645316 
L 216.910798 263.645316 
L 216.910798 263.331285 
L 217.138963 263.331285 
L 217.162914 262.389194 
L 217.29951 262.389194 
L 217.29951 262.075163 
L 217.571351 262.075163 
L 217.571351 261.761133 
L 217.78754 261.761133 
L 217.78754 261.447102 
L 218.006021 261.447102 
L 218.012513 260.819041 
L 218.551673 260.819041 
L 218.654598 259.87695 
L 218.688269 259.87695 
L 218.753161 259.248889 
L 218.96011 259.248889 
L 218.96011 258.934858 
L 219.748588 258.934858 
L 219.748588 258.620828 
L 220.044748 258.620828 
L 220.044748 258.306797 
L 220.687605 258.306797 
L 220.687605 257.678736 
L 220.824201 257.678736 
L 220.824201 257.364706 
L 221.02402 257.364706 
L 221.096042 256.736645 
L 221.848472 256.736645 
L 221.848472 256.422614 
L 221.959791 256.422614 
L 221.959791 255.794553 
L 222.096387 255.794553 
L 222.096387 255.480523 
L 222.368228 255.480523 
L 222.435909 254.852462 
L 222.507515 254.852462 
L 222.507515 254.538431 
L 222.800908 254.538431 
L 222.800908 254.224401 
L 223.161389 254.224401 
L 223.161389 253.91037 
L 223.519256 253.91037 
L 223.519256 253.59634 
L 223.783799 253.59634 
L 223.783799 253.282309 
L 224.018454 253.282309 
L 224.018454 252.968279 
L 224.149057 252.968279 
L 224.249824 252.026187 
L 224.343708 252.026187 
L 224.343708 251.712157 
L 224.534548 251.712157 
L 224.534548 251.398126 
L 224.714746 251.398126 
L 224.815685 249.827974 
L 224.851342 249.827974 
L 224.851342 249.513943 
L 225.123183 249.513943 
L 225.123183 249.199913 
L 225.923307 249.199913 
L 225.941587 248.257821 
L 226.078183 248.257821 
L 226.078183 247.943791 
L 226.298932 247.943791 
L 226.350024 247.001699 
L 226.435528 247.001699 
L 226.435528 246.687669 
L 226.707369 246.687669 
L 226.744045 246.059608 
L 226.844362 246.059608 
L 226.844362 245.745577 
L 227.523664 245.745577 
L 227.523664 245.431547 
L 227.662697 245.431547 
L 227.769926 244.803486 
L 227.832029 244.803486 
L 227.832029 244.489455 
L 228.059239 244.489455 
L 228.059239 244.175425 
L 228.588965 244.175425 
L 228.625379 242.919303 
L 228.742052 242.919303 
L 228.742052 242.605272 
L 229.013893 242.605272 
L 229.085551 241.34915 
L 229.275125 241.34915 
L 229.331425 239.464967 
L 229.411721 239.464967 
L 229.411721 239.150937 
L 229.683562 239.150937 
L 229.683562 238.836906 
L 232.08638 238.836906 
L 232.08638 238.522876 
L 232.310667 238.522876 
L 232.310667 238.208845 
L 232.435462 238.208845 
L 232.44749 237.580784 
L 232.779299 237.580784 
L 232.786076 236.952723 
L 233.078765 236.952723 
L 233.148605 236.324662 
L 233.313221 236.324662 
L 233.313221 236.010632 
L 233.529164 236.010632 
L 233.529164 235.696601 
L 233.656062 235.696601 
L 233.670566 234.440479 
L 233.887791 234.440479 
L 233.887791 234.126449 
L 234.095742 234.126449 
L 234.136272 233.184357 
L 234.467523 233.184357 
L 234.467523 232.870327 
L 234.744318 232.870327 
L 234.744318 232.556296 
L 234.956574 232.556296 
L 235.049731 231.928235 
L 235.275867 231.928235 
L 235.323535 230.986144 
L 235.977089 230.986144 
L 236.037398 230.358083 
L 236.580533 230.358083 
L 236.646759 229.415991 
L 236.717357 229.415991 
L 236.811903 228.78793 
L 236.948727 228.78793 
L 236.948727 228.4739 
L 237.356911 228.4739 
L 237.451611 227.531808 
L 237.875642 227.531808 
L 237.971527 226.275686 
L 238.145862 226.275686 
L 238.251716 225.019564 
L 238.372324 225.019564 
L 238.372324 224.705534 
L 238.540243 224.705534 
L 238.649379 223.763442 
L 238.658364 223.763442 
L 238.658364 223.135381 
L 238.79496 223.135381 
L 238.825253 222.50732 
L 239.023362 222.50732 
L 239.066801 221.251198 
L 239.159959 221.251198 
L 239.239383 219.367015 
L 239.306136 219.367015 
L 239.398986 218.424924 
L 239.431799 218.424924 
L 239.534621 217.168802 
L 240.218986 217.168802 
L 240.292016 216.22671 
L 240.630597 216.22671 
L 240.630597 215.91268 
L 240.819184 215.91268 
L 240.819184 215.598649 
L 241.151044 215.598649 
L 241.151044 215.284619 
L 241.287867 215.284619 
L 241.393731 214.342527 
L 241.670553 214.342527 
L 241.670553 213.400436 
L 241.857438 213.400436 
L 241.857438 213.086405 
L 242.214783 213.086405 
L 242.214783 212.772375 
L 242.388903 212.772375 
L 242.388903 212.458344 
L 242.573782 212.458344 
L 242.619323 211.830283 
L 242.735384 211.830283 
L 242.7937 211.202222 
L 242.919246 211.202222 
L 242.987676 209.318039 
L 243.037479 209.318039 
L 243.095119 208.689978 
L 243.150616 208.689978 
L 243.150616 208.375948 
L 243.31442 208.375948 
L 243.326489 207.747887 
L 244.060069 207.747887 
L 244.089391 206.805795 
L 244.215999 206.805795 
L 244.215999 206.491765 
L 244.415135 206.491765 
L 244.521306 205.863704 
L 244.884521 205.863704 
L 244.884521 205.549673 
L 245.020529 205.549673 
L 245.033255 204.921612 
L 245.190975 204.921612 
L 245.190975 204.607582 
L 245.317714 204.607582 
L 245.317714 204.293551 
L 245.464398 204.293551 
L 245.51685 203.66549 
L 245.640844 203.66549 
L 245.697694 202.409368 
L 245.777668 202.409368 
L 245.777668 202.095338 
L 246.029998 202.095338 
L 246.077844 201.467277 
L 246.394996 201.467277 
L 246.394996 201.153246 
L 246.900474 201.153246 
L 246.924535 199.583094 
L 247.029603 199.583094 
L 247.029603 199.269063 
L 247.166426 199.269063 
L 247.166426 198.955033 
L 247.28188 198.955033 
L 247.284859 197.698911 
L 247.489756 197.698911 
L 247.489756 197.38488 
L 247.66563 197.38488 
L 247.724926 196.442789 
L 247.809849 196.442789 
L 247.809849 196.128758 
L 248.347408 196.128758 
L 248.372904 195.500697 
L 248.89611 195.500697 
L 248.911564 194.872636 
L 249.039627 194.872636 
L 249.039627 194.558606 
L 249.165535 194.558606 
L 249.165535 194.244575 
L 249.302358 194.244575 
L 249.302358 193.930545 
L 249.544687 193.930545 
L 249.596134 192.046362 
L 250.125264 192.046362 
L 250.125264 191.418301 
L 250.258073 191.418301 
L 250.258073 190.476209 
L 250.39487 190.476209 
L 250.437721 189.220087 
L 250.516178 189.220087 
L 250.593277 187.335904 
L 250.695851 187.335904 
L 250.695851 187.021874 
L 250.824457 187.021874 
L 250.824457 186.707843 
L 250.940753 186.707843 
L 251.023593 186.079782 
L 251.056186 186.079782 
L 251.093993 185.451721 
L 251.305778 185.451721 
L 251.305778 185.137691 
L 251.648909 185.137691 
L 251.648909 184.82366 
L 251.848045 184.82366 
L 251.848045 184.50963 
L 251.979557 184.50963 
L 251.979557 184.195599 
L 252.155431 184.195599 
L 252.195708 183.567538 
L 252.795208 183.567538 
L 252.820924 182.939477 
L 252.928716 182.939477 
L 253.011413 182.311416 
L 253.192676 182.311416 
L 253.27568 181.683355 
L 253.3295 181.683355 
L 253.368315 181.055294 
L 253.544189 181.055294 
L 253.544189 180.741264 
L 253.678581 180.741264 
L 253.787396 180.113203 
L 253.927286 180.113203 
L 253.927286 179.799172 
L 254.049247 179.799172 
L 254.142738 179.171111 
L 254.248383 179.171111 
L 254.341436 177.600959 
L 254.378824 177.600959 
L 254.419517 176.658867 
L 254.55634 176.658867 
L 254.574214 176.030806 
L 254.776862 176.030806 
L 254.776862 175.716776 
L 254.913685 175.716776 
L 254.939213 175.088715 
L 255.242759 175.088715 
L 255.329103 174.460654 
L 255.504247 174.460654 
L 255.504247 174.146623 
L 255.680121 174.146623 
L 255.680121 173.832593 
L 256.776433 173.832593 
L 256.776433 173.518562 
L 256.952307 173.518562 
L 256.952307 173.204532 
L 257.083386 173.204532 
L 257.083386 172.890501 
L 257.220209 172.890501 
L 257.220209 172.576471 
L 257.429057 172.576471 
L 257.429057 172.26244 
L 257.643097 172.26244 
L 257.753055 171.320349 
L 257.889878 171.320349 
L 257.889878 171.006318 
L 258.137361 171.006318 
L 258.137361 170.692288 
L 258.526903 170.692288 
L 258.526903 170.378257 
L 259.125028 170.378257 
L 259.189697 169.750196 
L 259.283044 169.750196 
L 259.381448 168.808105 
L 259.531389 168.808105 
L 259.641312 167.551983 
L 259.707262 167.551983 
L 259.762619 166.923922 
L 260.00631 166.923922 
L 260.053165 165.6678 
L 260.131313 165.6678 
L 260.131313 165.353769 
L 260.350397 165.353769 
L 260.350397 165.039739 
L 260.580492 165.039739 
L 260.683067 163.783617 
L 260.758229 163.783617 
L 260.758229 163.469586 
L 260.92724 163.469586 
L 260.934103 162.841525 
L 261.115574 162.841525 
L 261.115574 162.527495 
L 261.291448 162.527495 
L 261.291448 162.213464 
L 261.764684 162.213464 
L 261.810317 161.271373 
L 262.265306 161.271373 
L 262.265306 160.957342 
L 262.481618 160.957342 
L 262.584193 159.70122 
L 262.634597 159.70122 
L 262.723199 159.073159 
L 263.241012 159.073159 
L 263.241012 158.759129 
L 263.422098 158.759129 
L 263.445591 158.131068 
L 263.597972 158.131068 
L 263.708285 156.874946 
L 263.855233 156.874946 
L 263.855233 156.560915 
L 264.091767 156.560915 
L 264.091767 156.246885 
L 264.267641 156.246885 
L 264.267641 155.932854 
L 264.70228 155.932854 
L 264.813131 154.990763 
L 264.816545 154.990763 
L 264.919119 153.734641 
L 265.1881 153.734641 
L 265.1881 153.42061 
L 265.452145 153.42061 
L 265.537819 152.792549 
L 265.613815 152.792549 
L 265.683603 151.536427 
L 265.786178 151.536427 
L 265.786178 151.222397 
L 266.695638 151.222397 
L 266.695638 150.594336 
L 267.136294 150.594336 
L 267.136294 150.280305 
L 267.247716 150.280305 
L 267.305966 148.710153 
L 267.501292 148.710153 
L 267.501292 148.396122 
L 267.638116 148.396122 
L 267.638116 148.082092 
L 267.947658 148.082092 
L 267.947658 147.768061 
L 268.886691 147.768061 
L 268.886691 147.454031 
L 269.097784 147.454031 
L 269.175932 146.511939 
L 269.365582 146.511939 
L 269.391298 145.883878 
L 269.749834 145.883878 
L 269.801202 144.941786 
L 269.900331 144.941786 
L 269.900331 144.627756 
L 270.12022 144.627756 
L 270.129472 143.999695 
L 270.232459 143.999695 
L 270.232459 143.685664 
L 270.619621 143.685664 
L 270.653304 142.743573 
L 270.818757 142.743573 
L 270.818757 142.429542 
L 271.077728 142.429542 
L 271.077728 142.115512 
L 271.239032 142.115512 
L 271.239032 141.801481 
L 271.640971 141.801481 
L 271.65096 141.17342 
L 271.827593 141.17342 
L 271.827593 140.85939 
L 271.988399 140.85939 
L 272.066547 139.917298 
L 272.391146 139.917298 
L 272.391146 139.603268 
L 272.589294 139.603268 
L 272.589294 139.289237 
L 273.475006 139.289237 
L 273.552227 138.661176 
L 273.65088 138.661176 
L 273.655021 138.033115 
L 273.840005 138.033115 
L 273.840005 137.719085 
L 273.985887 137.719085 
L 274.028383 136.776993 
L 274.213471 136.776993 
L 274.283925 135.834902 
L 274.440815 135.834902 
L 274.496764 135.206841 
L 274.582438 135.206841 
L 274.582438 134.89281 
L 274.852945 134.89281 
L 274.932105 134.264749 
L 275.205671 134.264749 
L 275.303849 133.322658 
L 275.68197 133.322658 
L 275.68197 133.008627 
L 276.392632 133.008627 
L 276.392632 132.380566 
L 276.536723 132.380566 
L 276.536723 132.066536 
L 277.337994 132.066536 
L 277.387379 131.438475 
L 277.473053 131.438475 
L 277.578474 130.496383 
L 277.653558 130.496383 
L 277.653558 130.182353 
L 278.52562 130.182353 
L 278.52562 129.868322 
L 279.062576 129.868322 
L 279.088292 129.240261 
L 279.694814 129.240261 
L 279.694814 128.926231 
L 280.125189 128.926231 
L 280.125189 128.6122 
L 280.316615 128.6122 
L 280.414068 127.356078 
L 280.515751 127.356078 
L 280.515751 127.042048 
L 280.773766 127.042048 
L 280.872212 125.785926 
L 281.033516 125.785926 
L 281.114339 125.157865 
L 281.4849 125.157865 
L 281.4849 124.843834 
L 281.773323 124.843834 
L 281.875898 123.587712 
L 281.918074 123.587712 
L 281.918074 123.273682 
L 282.319094 123.273682 
L 282.319094 122.959651 
L 282.58543 122.959651 
L 282.589746 122.33159 
L 282.964714 122.33159 
L 282.964714 122.01756 
L 283.294734 122.01756 
L 283.294734 121.703529 
L 283.642237 121.703529 
L 283.696999 121.075468 
L 283.762827 121.075468 
L 283.857702 120.447407 
L 283.910465 120.447407 
L 283.979009 119.191285 
L 284.031206 119.191285 
L 284.031206 118.877255 
L 284.446864 118.877255 
L 284.446864 118.563224 
L 284.585243 118.563224 
L 284.585243 118.249194 
L 284.726589 118.249194 
L 284.726589 117.935163 
L 284.962548 117.935163 
L 285.032827 116.993072 
L 285.159499 116.993072 
L 285.159499 116.365011 
L 285.337517 116.365011 
L 285.337517 116.05098 
L 285.543362 116.05098 
L 285.630847 114.480828 
L 285.671823 114.480828 
L 285.67648 113.852767 
L 286.544327 113.852767 
L 286.544327 113.538736 
L 287.194608 113.538736 
L 287.194608 113.224706 
L 287.397133 113.224706 
L 287.397133 112.910675 
L 287.544775 112.910675 
L 287.617204 112.282614 
L 287.661981 112.282614 
L 287.661981 111.968584 
L 287.829443 111.968584 
L 287.878289 111.026492 
L 288.532443 111.026492 
L 288.532443 110.712462 
L 288.71085 110.712462 
L 288.745347 110.084401 
L 288.920971 110.084401 
L 288.920971 109.77037 
L 289.083481 109.77037 
L 289.083481 109.45634 
L 289.282617 109.45634 
L 289.352038 108.828279 
L 289.437713 108.828279 
L 289.460715 108.200218 
L 289.569548 108.200218 
L 289.666783 107.572157 
L 290.066484 107.572157 
L 290.169059 106.002004 
L 290.232287 106.002004 
L 290.342015 104.745882 
L 290.416648 104.745882 
L 290.416648 104.431852 
L 290.942665 104.431852 
L 290.942665 104.117821 
L 291.337133 104.117821 
L 291.415281 103.48976 
L 291.712102 103.48976 
L 291.790249 102.861699 
L 292.060539 102.861699 
L 292.060539 102.233638 
L 292.189385 102.233638 
L 292.21743 101.605577 
L 292.677332 101.605577 
L 292.677332 101.291547 
L 293.010976 101.291547 
L 293.049573 100.663486 
L 293.136787 100.663486 
L 293.18242 99.407364 
L 293.491482 99.407364 
L 293.491482 99.093333 
L 293.771718 99.093333 
L 293.849866 98.465272 
L 293.9076 98.465272 
L 293.966224 97.837211 
L 294.313337 97.837211 
L 294.313337 97.523181 
L 294.433342 97.523181 
L 294.433342 96.89512 
L 294.550089 96.89512 
L 294.590232 96.267059 
L 294.73859 96.267059 
L 294.73859 95.953028 
L 295.383778 95.953028 
L 295.383778 95.638998 
L 295.631266 95.638998 
L 295.727486 94.696906 
L 295.806731 94.696906 
L 295.88879 92.498693 
L 295.961475 92.498693 
L 295.974958 91.870632 
L 296.382098 91.870632 
L 296.382098 91.556601 
L 296.553305 91.556601 
L 296.573692 90.300479 
L 296.676266 90.300479 
L 296.736113 89.358388 
L 296.821787 89.358388 
L 296.821787 89.044357 
L 297.06077 89.044357 
L 297.111081 88.102266 
L 297.196756 88.102266 
L 297.305539 87.160174 
L 298.085191 87.160174 
L 298.187766 85.904052 
L 298.202277 85.904052 
L 298.202277 85.590022 
L 298.505333 85.590022 
L 298.505333 85.275991 
L 299.069335 85.275991 
L 299.170698 84.3339 
L 299.235827 84.3339 
L 299.256372 83.705839 
L 299.461267 83.705839 
L 299.461267 83.391808 
L 299.581864 83.391808 
L 299.65793 82.763747 
L 299.694689 82.763747 
L 299.694689 82.449717 
L 299.867458 82.449717 
L 299.867458 82.135686 
L 300.370884 82.135686 
L 300.370884 81.821656 
L 300.65462 81.821656 
L 300.700253 81.193595 
L 300.807927 81.193595 
L 300.886074 79.623442 
L 300.964817 79.623442 
L 301.042965 78.995381 
L 301.358551 78.995381 
L 301.395949 78.36732 
L 301.758363 78.36732 
L 301.836511 77.739259 
L 301.934163 77.739259 
L 302.006714 77.111198 
L 302.048953 77.111198 
L 302.067492 76.483137 
L 302.168018 76.483137 
L 302.176601 75.855076 
L 302.309132 75.855076 
L 302.351882 75.227015 
L 303.060724 75.227015 
L 303.138872 74.284924 
L 303.272865 74.284924 
L 303.272865 73.970893 
L 303.435798 73.970893 
L 303.486529 73.342832 
L 303.647833 73.342832 
L 303.647833 73.028802 
L 303.835547 73.028802 
L 303.938764 72.400741 
L 303.984397 72.400741 
L 304.077726 71.77268 
L 304.368748 71.77268 
L 304.368748 71.458649 
L 304.544189 71.458649 
L 304.544189 71.144619 
L 304.835068 71.144619 
L 304.835068 70.830588 
L 305.014232 70.830588 
L 305.014232 70.516558 
L 305.363106 70.516558 
L 305.363106 70.202527 
L 305.546146 70.202527 
L 305.546146 69.888497 
L 305.70745 69.888497 
L 305.743034 69.260436 
L 305.861092 69.260436 
L 305.962173 68.632375 
L 306.206906 68.632375 
L 306.292581 67.376253 
L 306.363797 67.376253 
L 306.449471 66.434161 
L 306.675952 66.434161 
L 306.675952 65.8061 
L 306.965938 65.8061 
L 306.965938 65.49207 
L 307.157343 65.49207 
L 307.254534 64.549978 
L 307.279711 64.549978 
L 307.340906 63.921917 
L 307.858342 63.921917 
L 307.863299 63.293856 
L 308.346757 63.293856 
L 308.442076 62.665795 
L 308.459704 62.665795 
L 308.545378 61.723704 
L 308.630993 61.723704 
L 308.630993 61.409673 
L 309.166665 61.409673 
L 309.166665 61.095643 
L 309.345896 61.095643 
L 309.400523 60.153551 
L 310.154333 60.153551 
L 310.198226 59.52549 
L 310.599935 59.52549 
L 310.599935 59.21146 
L 310.799071 59.21146 
L 310.799071 58.897429 
L 311.065284 58.897429 
L 311.065284 58.583399 
L 311.29346 58.583399 
L 311.29346 58.269368 
L 311.404957 58.269368 
L 311.404957 57.641307 
L 311.561848 57.641307 
L 311.561848 57.327277 
L 312.355393 57.327277 
L 312.398307 56.699216 
L 312.582354 56.699216 
L 312.582354 56.071155 
L 312.739245 56.071155 
L 312.773275 54.815033 
L 312.900549 54.815033 
L 312.900549 54.501002 
L 313.128229 54.501002 
L 313.128229 54.186972 
L 313.360608 54.186972 
L 313.360608 53.872941 
L 313.532791 53.872941 
L 313.532791 53.558911 
L 313.657755 53.558911 
L 313.694095 52.93085 
L 313.841056 52.93085 
L 313.92673 52.302789 
L 314.193785 52.302789 
L 314.193785 51.988758 
L 314.316542 51.988758 
L 314.316542 51.674728 
L 314.625985 51.674728 
L 314.625985 51.360697 
L 314.832892 51.360697 
L 314.835152 50.732636 
L 314.976663 50.732636 
L 315.079237 49.162484 
L 315.157055 49.162484 
L 315.159056 48.534423 
L 315.730831 48.534423 
L 315.730831 48.220392 
L 316.1058 48.220392 
L 316.1058 47.906362 
L 316.261906 47.906362 
L 316.261906 47.592331 
L 316.436732 47.592331 
L 316.436732 46.96427 
L 316.593622 46.96427 
L 316.593622 46.65024 
L 317.387168 46.65024 
L 317.477929 46.022179 
L 318.165416 46.022179 
L 318.165416 45.708148 
L 318.471208 45.708148 
L 318.471208 45.394118 
L 318.689529 45.394118 
L 318.689529 45.080087 
L 318.954981 45.080087 
L 319.039107 44.452026 
L 319.635436 44.452026 
L 319.639836 43.823965 
L 320.216504 43.823965 
L 320.216504 43.509935 
L 320.377808 43.509935 
L 320.419467 42.881874 
L 320.59577 42.881874 
L 320.59577 42.567843 
L 320.744682 42.567843 
L 320.744682 42.253813 
L 321.119651 42.253813 
L 321.146936 41.625752 
L 321.64027 41.625752 
L 321.700616 40.997691 
L 321.8691 40.997691 
L 321.8691 40.36963 
L 322.025991 40.36963 
L 322.075584 39.741569 
L 322.819537 39.741569 
L 322.819537 39.427538 
L 323.179267 39.427538 
L 323.179267 39.113508 
L 323.369432 39.113508 
L 323.452217 38.485447 
L 323.73362 38.485447 
L 323.73362 38.171416 
L 324.070881 38.171416 
L 324.146005 36.915294 
L 325.057688 36.915294 
L 325.085003 36.287233 
L 325.201625 36.287233 
L 325.201625 35.659172 
L 325.358516 35.659172 
L 325.358516 35.345142 
L 326.152061 35.345142 
L 326.152061 35.031111 
L 327.135918 35.031111 
L 327.165357 34.08902 
L 327.454423 34.08902 
L 327.454423 33.774989 
L 327.802771 33.774989 
L 327.905346 32.518867 
L 327.925408 32.518867 
L 327.925408 31.890806 
L 328.399156 31.890806 
L 328.399156 31.576776 
L 329.50325 31.576776 
L 329.50325 31.262745 
L 329.631154 31.262745 
L 329.631154 30.948715 
L 329.959424 30.948715 
L 329.959424 30.634684 
L 330.215476 30.634684 
L 330.215476 30.006623 
L 330.372367 30.006623 
L 330.372367 29.692593 
L 330.595352 29.692593 
L 330.621068 29.064532 
L 330.950929 29.064532 
L 330.950929 28.750501 
L 331.165912 28.750501 
L 331.239561 27.180349 
L 331.3283 27.180349 
L 331.3283 26.866318 
L 331.470924 26.866318 
L 331.470924 26.552288 
L 331.662593 26.552288 
L 331.662593 26.238257 
L 331.84939 26.238257 
L 331.84939 25.924227 
L 332.048527 25.924227 
L 332.121846 25.296166 
L 332.468274 25.296166 
L 332.468274 24.982135 
L 332.835775 24.982135 
L 332.835775 24.668105 
L 333.424207 24.668105 
L 333.424207 24.354074 
L 333.909505 24.354074 
L 333.935221 23.726013 
L 335.163544 23.726013 
L 335.163544 23.411983 
L 335.36268 23.411983 
L 335.448165 22.469891 
L 336.598553 22.469891 
L 336.701127 21.213769 
L 336.972113 21.213769 
L 336.972113 20.899739 
L 337.849626 20.899739 
L 337.849626 20.585708 
L 338.038407 20.585708 
L 338.038407 20.271678 
L 338.1698 20.271678 
L 338.1698 19.957647 
L 338.727384 19.957647 
L 338.805559 19.015556 
L 339.6813 19.015556 
L 339.6813 18.701525 
L 340.24402 18.701525 
L 340.24402 18.387495 
L 341.472805 18.387495 
L 341.472805 18.073464 
L 341.955373 18.073464 
L 342.041537 17.445403 
L 343.466872 17.445403 
L 343.466872 17.131373 
L 345.506432 17.131373 
L 345.506432 16.817342 
L 345.767895 16.817342 
L 345.767895 16.503312 
L 348.362395 16.503312 
L 348.362395 16.189281 
L 350.171968 16.189281 
L 350.171968 15.875251 
L 350.864515 15.875251 
L 350.864515 15.56122 
L 352.86252 15.56122 
L 352.86252 15.24719 
L 353.012373 15.24719 
L 353.012373 14.619129 
L 355.682317 14.619129 
L 355.708033 13.991068 
L 356.545492 13.991068 
L 356.572771 13.363007 
L 356.936355 13.363007 
L 356.936355 13.048976 
L 357.135491 13.048976 
L 357.135491 12.734946 
L 359.660297 12.734946 
L 359.660297 12.420915 
L 360.358344 12.420915 
L 360.358344 12.106885 
L 360.530205 12.106885 
L 360.530205 11.792854 
L 361.188503 11.792854 
L 361.188503 11.478824 
L 362.849735 11.478824 
L 362.849735 11.164793 
L 363.814349 11.164793 
L 363.814349 10.850763 
L 364.750861 10.850763 
L 364.750861 10.536732 
L 367.085788 10.536732 
L 367.085788 10.222702 
L 367.952846 10.222702 
L 367.952846 9.908671 
L 369.398879 9.908671 
L 369.398879 9.594641 
L 369.984285 9.594641 
L 369.984285 9.28061 
L 373.184452 9.28061 
L 373.184452 8.96658 
L 378.194661 8.96658 
L 378.194661 8.652549 
L 381.980234 8.652549 
L 381.980234 8.338519 
L 384.042567 8.338519 
L 384.042567 8.024488 
L 387.838492 8.024488 
L 387.838492 7.710458 
L 392.335728 7.710458 
L 392.335728 7.396427 
L 398.842935 7.396427 
L 398.842935 7.082397 
L 400.354435 7.082397 
L 400.354435 6.768366 
L 417.245906 6.768366 
L 417.245906 6.454336 
L 430.072014 6.454336 
L 430.072014 6.140305 
L 438.867796 6.140305 
L 438.867796 5.826275 
L 453.192 5.826275 
L 453.192 5.826275 
" clip-path="url(#p45c0651910)" style="fill: none; stroke: #000000; stroke-width: 3; stroke-linecap: square"/>
   </g>
   <g id="line2d_51">
    <path clip-path="url(#p45c0651910)" style="fill: none; stroke: #000000; stroke-width: 3; stroke-linecap: square"/>
   </g>
   <g id="line2d_52">
    <path d="M 36.747263 288.453725 
L 34.16 288.453725 
L 453.192 288.453725 
L 461.8 288.453725 
" clip-path="url(#p45c0651910)" style="fill: none; stroke: #00bfbf; stroke-width: 3; stroke-linecap: square"/>
   </g>
   <g id="line2d_53">
    <path d="M 36.747263 288.453725 
L 34.16 288.453725 
L 453.192 288.453725 
L 461.8 288.453725 
" clip-path="url(#p45c0651910)" style="fill: none; stroke: #bf00bf; stroke-width: 3; stroke-linecap: square"/>
   </g>
   <g id="line2d_54"/>
   <g id="line2d_55">
    <path d="M 243.676 291.28 
L 243.676 3 
" clip-path="url(#p45c0651910)" style="fill: none; stroke: #000000; stroke-width: 1.5; stroke-linecap: square"/>
   </g>
   <g id="line2d_56">
    <path d="M 34.16 147.14 
L 453.192 147.14 
" clip-path="url(#p45c0651910)" style="fill: none; stroke-dasharray: 2,3.3; stroke-dashoffset: 0; stroke: #000000; stroke-width: 2"/>
   </g>
   <g id="patch_3">
    <path d="M 34.16 291.28 
L 34.16 3 
" style="fill: none; stroke: #000000; stroke-width: 0.8; stroke-linejoin: miter; stroke-linecap: square"/>
   </g>
   <g id="patch_4">
    <path d="M 453.192 291.28 
L 453.192 3 
" style="fill: none; stroke: #000000; stroke-width: 0.8; stroke-linejoin: miter; stroke-linecap: square"/>
   </g>
   <g id="patch_5">
    <path d="M 34.16 291.28 
L 453.192 291.28 
" style="fill: none; stroke: #000000; stroke-width: 0.8; stroke-linejoin: miter; stroke-linecap: square"/>
   </g>
   <g id="patch_6">
    <path d="M 34.16 3 
L 453.192 3 
" style="fill: none; stroke: #000000; stroke-width: 0.8; stroke-linejoin: miter; stroke-linecap: square"/>
   </g>
   <g id="text_5">
    <!-- f6-f9,5-D -->
    <g transform="translate(356.36761 285.5144)scale(0.2 -0.2)">
     <defs>
      <path id="DejaVuSans-36" d="M 2113 2584 
Q 1688 2584 1439 2293 
Q 1191 2003 1191 1497 
Q 1191 994 1439 701 
Q 1688 409 2113 409 
Q 2538 409 2786 701 
Q 3034 994 3034 1497 
Q 3034 2003 2786 2293 
Q 2538 2584 2113 2584 
z
M 3366 4563 
L 3366 3988 
Q 3128 4100 2886 4159 
Q 2644 4219 2406 4219 
Q 1781 4219 1451 3797 
Q 1122 3375 1075 2522 
Q 1259 2794 1537 2939 
Q 1816 3084 2150 3084 
Q 2853 3084 3261 2657 
Q 3669 2231 3669 1497 
Q 3669 778 3244 343 
Q 2819 -91 2113 -91 
Q 1303 -91 875 529 
Q 447 1150 447 2328 
Q 447 3434 972 4092 
Q 1497 4750 2381 4750 
Q 2619 4750 2861 4703 
Q 3103 4656 3366 4563 
z
" transform="scale(0.015625)"/>
      <path id="DejaVuSans-39" d="M 703 97 
L 703 672 
Q 941 559 1184 500 
Q 1428 441 1663 441 
Q 2288 441 2617 861 
Q 2947 1281 2994 2138 
Q 2813 1869 2534 1725 
Q 2256 1581 1919 1581 
Q 1219 1581 811 2004 
Q 403 2428 403 3163 
Q 403 3881 828 4315 
Q 1253 4750 1959 4750 
Q 2769 4750 3195 4129 
Q 3622 3509 3622 2328 
Q 3622 1225 3098 567 
Q 2575 -91 1691 -91 
Q 1453 -91 1209 -44 
Q 966 3 703 97 
z
M 1959 2075 
Q 2384 2075 2632 2365 
Q 2881 2656 2881 3163 
Q 2881 3666 2632 3958 
Q 2384 4250 1959 4250 
Q 1534 4250 1286 3958 
Q 1038 3666 1038 3163 
Q 1038 2656 1286 2365 
Q 1534 2075 1959 2075 
z
" transform="scale(0.015625)"/>
      <path id="DejaVuSans-2c" d="M 750 794 
L 1409 794 
L 1409 256 
L 897 -744 
L 494 -744 
L 750 256 
L 750 794 
z
" transform="scale(0.015625)"/>
      <path id="DejaVuSans-35" d="M 691 4666 
L 3169 4666 
L 3169 4134 
L 1269 4134 
L 1269 2991 
Q 1406 3038 1543 3061 
Q 1681 3084 1819 3084 
Q 2600 3084 3056 2656 
Q 3513 2228 3513 1497 
Q 3513 744 3044 326 
Q 2575 -91 1722 -91 
Q 1428 -91 1123 -41 
Q 819 9 494 109 
L 494 744 
Q 775 591 1075 516 
Q 1375 441 1709 441 
Q 2250 441 2565 725 
Q 2881 1009 2881 1497 
Q 2881 1984 2565 2268 
Q 2250 2553 1709 2553 
Q 1456 2553 1204 2497 
Q 953 2441 691 2322 
L 691 4666 
z
" transform="scale(0.015625)"/>
      <path id="DejaVuSans-44" d="M 1259 4147 
L 1259 519 
L 2022 519 
Q 2988 519 3436 956 
Q 3884 1394 3884 2338 
Q 3884 3275 3436 3711 
Q 2988 4147 2022 4147 
L 1259 4147 
z
M 628 4666 
L 1925 4666 
Q 3281 4666 3915 4102 
Q 4550 3538 4550 2338 
Q 4550 1131 3912 565 
Q 3275 0 1925 0 
L 628 0 
L 628 4666 
z
" transform="scale(0.015625)"/>
     </defs>
     <use xlink:href="#DejaVuSans-66"/>
     <use xlink:href="#DejaVuSans-36" x="35.205078"/>
     <use xlink:href="#DejaVuSans-2d" x="98.828125"/>
     <use xlink:href="#DejaVuSans-66" x="134.912109"/>
     <use xlink:href="#DejaVuSans-39" x="170.117188"/>
     <use xlink:href="#DejaVuSans-2c" x="233.740234"/>
     <use xlink:href="#DejaVuSans-35" x="265.527344"/>
     <use xlink:href="#DejaVuSans-2d" x="329.150391"/>
     <use xlink:href="#DejaVuSans-44" x="365.234375"/>
    </g>
   </g>
   <g id="text_6">
    <!-- v2.6.3 -->
    <g style="fill: #808080" transform="translate(227.99475 286.317512)scale(0.1 -0.1)">
     <defs>
      <path id="DejaVuSans-32" d="M 1228 531 
L 3431 531 
L 3431 0 
L 469 0 
L 469 531 
Q 828 903 1448 1529 
Q 2069 2156 2228 2338 
Q 2531 2678 2651 2914 
Q 2772 3150 2772 3378 
Q 2772 3750 2511 3984 
Q 2250 4219 1831 4219 
Q 1534 4219 1204 4116 
Q 875 4013 500 3803 
L 500 4441 
Q 881 4594 1212 4672 
Q 1544 4750 1819 4750 
Q 2544 4750 2975 4387 
Q 3406 4025 3406 3419 
Q 3406 3131 3298 2873 
Q 3191 2616 2906 2266 
Q 2828 2175 2409 1742 
Q 1991 1309 1228 531 
z
" transform="scale(0.015625)"/>
      <path id="DejaVuSans-2e" d="M 684 794 
L 1344 794 
L 1344 0 
L 684 0 
L 684 794 
z
" transform="scale(0.015625)"/>
      <path id="DejaVuSans-33" d="M 2597 2516 
Q 3050 2419 3304 2112 
Q 3559 1806 3559 1356 
Q 3559 666 3084 287 
Q 2609 -91 1734 -91 
Q 1441 -91 1130 -33 
Q 819 25 488 141 
L 488 750 
Q 750 597 1062 519 
Q 1375 441 1716 441 
Q 2309 441 2620 675 
Q 2931 909 2931 1356 
Q 2931 1769 2642 2001 
Q 2353 2234 1838 2234 
L 1294 2234 
L 1294 2753 
L 1863 2753 
Q 2328 2753 2575 2939 
Q 2822 3125 2822 3475 
Q 2822 3834 2567 4026 
Q 2313 4219 1838 4219 
Q 1578 4219 1281 4162 
Q 984 4106 628 3988 
L 628 4550 
Q 988 4650 1302 4700 
Q 1616 4750 1894 4750 
Q 2613 4750 3031 4423 
Q 3450 4097 3450 3541 
Q 3450 3153 3228 2886 
Q 3006 2619 2597 2516 
z
" transform="scale(0.015625)"/>
     </defs>
     <use xlink:href="#DejaVuSans-76"/>
     <use xlink:href="#DejaVuSans-32" x="59.179688"/>
     <use xlink:href="#DejaVuSans-2e" x="122.802734"/>
     <use xlink:href="#DejaVuSans-36" x="154.589844"/>
     <use xlink:href="#DejaVuSans-2e" x="218.212891"/>
     <use xlink:href="#DejaVuSans-33" x="250"/>
    </g>
   </g>
   <g id="legend_1">
    <g id="patch_7">
     <path d="M 48.16 136.425 
L 177.381875 136.425 
Q 181.381875 136.425 181.381875 132.425 
L 181.381875 17 
Q 181.381875 13 177.381875 13 
L 48.16 13 
Q 44.16 13 44.16 17 
L 44.16 132.425 
Q 44.16 136.425 48.16 136.425 
z
" style="fill: #ffffff; opacity: 0.2; stroke: #cccccc; stroke-linejoin: miter"/>
    </g>
    <g id="line2d_57">
     <path d="M 52.16 29.196875 
L 72.16 29.196875 
L 92.16 29.196875 
" style="fill: none; stroke: #000000; stroke-width: 3; stroke-linecap: square"/>
    </g>
    <g id="text_7">
     <!-- 1: 4/4 -->
     <g transform="translate(108.16 36.196875)scale(0.2 -0.2)">
      <defs>
       <path id="DejaVuSans-3a" d="M 750 794 
L 1409 794 
L 1409 0 
L 750 0 
L 750 794 
z
M 750 3309 
L 1409 3309 
L 1409 2516 
L 750 2516 
L 750 3309 
z
" transform="scale(0.015625)"/>
       <path id="DejaVuSans-34" d="M 2419 4116 
L 825 1625 
L 2419 1625 
L 2419 4116 
z
M 2253 4666 
L 3047 4666 
L 3047 1625 
L 3713 1625 
L 3713 1100 
L 3047 1100 
L 3047 0 
L 2419 0 
L 2419 1100 
L 313 1100 
L 313 1709 
L 2253 4666 
z
" transform="scale(0.015625)"/>
       <path id="DejaVuSans-2f" d="M 1625 4666 
L 2156 4666 
L 531 -594 
L 0 -594 
L 1625 4666 
z
" transform="scale(0.015625)"/>
      </defs>
      <use xlink:href="#DejaVuSans-31"/>
      <use xlink:href="#DejaVuSans-3a" x="63.623047"/>
      <use xlink:href="#DejaVuSans-20" x="97.314453"/>
      <use xlink:href="#DejaVuSans-34" x="129.101562"/>
      <use xlink:href="#DejaVuSans-2f" x="192.724609"/>
      <use xlink:href="#DejaVuSans-34" x="226.416016"/>
     </g>
    </g>
    <g id="line2d_58">
     <path d="M 52.16 58.553125 
L 72.16 58.553125 
L 92.16 58.553125 
" style="fill: none; stroke: #00bfbf; stroke-width: 3; stroke-linecap: square"/>
    </g>
    <g id="text_8">
     <!-- -1: 0/2 -->
     <g transform="translate(108.16 65.553125)scale(0.2 -0.2)">
      <use xlink:href="#DejaVuSans-2d"/>
      <use xlink:href="#DejaVuSans-31" x="36.083984"/>
      <use xlink:href="#DejaVuSans-3a" x="99.707031"/>
      <use xlink:href="#DejaVuSans-20" x="133.398438"/>
      <use xlink:href="#DejaVuSans-30" x="165.185547"/>
      <use xlink:href="#DejaVuSans-2f" x="228.808594"/>
      <use xlink:href="#DejaVuSans-32" x="262.5"/>
     </g>
    </g>
    <g id="line2d_59">
     <path d="M 52.16 87.909375 
L 72.16 87.909375 
L 92.16 87.909375 
" style="fill: none; stroke: #bf00bf; stroke-width: 3; stroke-linecap: square"/>
    </g>
    <g id="text_9">
     <!-- -4: 0/1 -->
     <g transform="translate(108.16 94.909375)scale(0.2 -0.2)">
      <use xlink:href="#DejaVuSans-2d"/>
      <use xlink:href="#DejaVuSans-34" x="36.083984"/>
      <use xlink:href="#DejaVuSans-3a" x="99.707031"/>
      <use xlink:href="#DejaVuSans-20" x="133.398438"/>
      <use xlink:href="#DejaVuSans-30" x="165.185547"/>
      <use xlink:href="#DejaVuSans-2f" x="228.808594"/>
      <use xlink:href="#DejaVuSans-31" x="262.5"/>
     </g>
    </g>
    <g id="line2d_60">
     <path d="M 52.16 117.265625 
L 72.16 117.265625 
L 92.16 117.265625 
" style="fill: none; stroke: #ff0000; stroke-width: 3; stroke-linecap: square"/>
    </g>
    <g id="text_10">
     <!-- -8: 0/0 -->
     <g transform="translate(108.16 124.265625)scale(0.2 -0.2)">
      <defs>
       <path id="DejaVuSans-38" d="M 2034 2216 
Q 1584 2216 1326 1975 
Q 1069 1734 1069 1313 
Q 1069 891 1326 650 
Q 1584 409 2034 409 
Q 2484 409 2743 651 
Q 3003 894 3003 1313 
Q 3003 1734 2745 1975 
Q 2488 2216 2034 2216 
z
M 1403 2484 
Q 997 2584 770 2862 
Q 544 3141 544 3541 
Q 544 4100 942 4425 
Q 1341 4750 2034 4750 
Q 2731 4750 3128 4425 
Q 3525 4100 3525 3541 
Q 3525 3141 3298 2862 
Q 3072 2584 2669 2484 
Q 3125 2378 3379 2068 
Q 3634 1759 3634 1313 
Q 3634 634 3220 271 
Q 2806 -91 2034 -91 
Q 1263 -91 848 271 
Q 434 634 434 1313 
Q 434 1759 690 2068 
Q 947 2378 1403 2484 
z
M 1172 3481 
Q 1172 3119 1398 2916 
Q 1625 2713 2034 2713 
Q 2441 2713 2670 2916 
Q 2900 3119 2900 3481 
Q 2900 3844 2670 4047 
Q 2441 4250 2034 4250 
Q 1625 4250 1398 4047 
Q 1172 3844 1172 3481 
z
" transform="scale(0.015625)"/>
      </defs>
      <use xlink:href="#DejaVuSans-2d"/>
      <use xlink:href="#DejaVuSans-38" x="36.083984"/>
      <use xlink:href="#DejaVuSans-3a" x="99.707031"/>
      <use xlink:href="#DejaVuSans-20" x="133.398438"/>
      <use xlink:href="#DejaVuSans-30" x="165.185547"/>
      <use xlink:href="#DejaVuSans-2f" x="228.808594"/>
      <use xlink:href="#DejaVuSans-30" x="262.5"/>
     </g>
    </g>
   </g>
  </g>
 </g>
 <defs>
  <clipPath id="p45c0651910">
   <rect x="34.16" y="3" width="419.032" height="288.28"/>
  </clipPath>
 </defs>
</svg>
