<?xml version="1.0" encoding="utf-8" standalone="no"?>
<!DOCTYPE svg PUBLIC "-//W3C//DTD SVG 1.1//EN"
  "http://www.w3.org/Graphics/SVG/1.1/DTD/svg11.dtd">
<svg xmlns:xlink="http://www.w3.org/1999/xlink" width="460.8pt" height="345.6pt" viewBox="0 0 460.8 345.6" xmlns="http://www.w3.org/2000/svg" version="1.1">
 <metadata>
  <rdf:RDF xmlns:dc="http://purl.org/dc/elements/1.1/" xmlns:cc="http://creativecommons.org/ns#" xmlns:rdf="http://www.w3.org/1999/02/22-rdf-syntax-ns#">
   <cc:Work>
    <dc:type rdf:resource="http://purl.org/dc/dcmitype/StillImage"/>
    <dc:date>2024-01-05T10:25:48.235745</dc:date>
    <dc:format>image/svg+xml</dc:format>
    <dc:creator>
     <cc:Agent>
      <dc:title>Matplotlib v3.5.1, https://matplotlib.org/</dc:title>
     </cc:Agent>
    </dc:creator>
   </cc:Work>
  </rdf:RDF>
 </metadata>
 <defs>
  <style type="text/css">*{stroke-linejoin: round; stroke-linecap: butt}</style>
 </defs>
 <g id="figure_1">
  <g id="patch_1">
   <path d="M 0 345.6 
L 460.8 345.6 
L 460.8 0 
L 0 0 
z
" style="fill: #ffffff"/>
  </g>
  <g id="axes_1">
   <g id="patch_2">
    <path d="M 34.16 291.28 
L 453.192 291.28 
L 453.192 3 
L 34.16 3 
z
" style="fill: #ffffff"/>
   </g>
   <g id="matplotlib.axis_1">
    <g id="xtick_1">
     <g id="line2d_1">
      <path d="M 111.791404 291.28 
L 111.791404 3 
" clip-path="url(#p4c17b52097)" style="fill: none; stroke: #b0b0b0; stroke-width: 0.8; stroke-linecap: square"/>
     </g>
     <g id="line2d_2">
      <defs>
       <path id="m94339279da" d="M 0 0 
L 0 3.5 
" style="stroke: #000000; stroke-width: 0.8"/>
      </defs>
      <g>
       <use xlink:href="#m94339279da" x="111.791404" y="291.28" style="stroke: #000000; stroke-width: 0.8"/>
      </g>
     </g>
     <g id="text_1">
      <!-- -1 -->
      <g transform="translate(101.821092 313.476875)scale(0.2 -0.2)">
       <defs>
        <path id="DejaVuSans-2d" d="M 313 2009 
L 1997 2009 
L 1997 1497 
L 313 1497 
L 313 2009 
z
" transform="scale(0.015625)"/>
        <path id="DejaVuSans-31" d="M 794 531 
L 1825 531 
L 1825 4091 
L 703 3866 
L 703 4441 
L 1819 4666 
L 2450 4666 
L 2450 531 
L 3481 531 
L 3481 0 
L 794 0 
L 794 531 
z
" transform="scale(0.015625)"/>
       </defs>
       <use xlink:href="#DejaVuSans-2d"/>
       <use xlink:href="#DejaVuSans-31" x="36.083984"/>
      </g>
     </g>
    </g>
    <g id="xtick_2">
     <g id="line2d_3">
      <path d="M 243.676 291.28 
L 243.676 3 
" clip-path="url(#p4c17b52097)" style="fill: none; stroke: #b0b0b0; stroke-width: 0.8; stroke-linecap: square"/>
     </g>
     <g id="line2d_4">
      <g>
       <use xlink:href="#m94339279da" x="243.676" y="291.28" style="stroke: #000000; stroke-width: 0.8"/>
      </g>
     </g>
     <g id="text_2">
      <!-- 0 -->
      <g transform="translate(237.3135 313.476875)scale(0.2 -0.2)">
       <defs>
        <path id="DejaVuSans-30" d="M 2034 4250 
Q 1547 4250 1301 3770 
Q 1056 3291 1056 2328 
Q 1056 1369 1301 889 
Q 1547 409 2034 409 
Q 2525 409 2770 889 
Q 3016 1369 3016 2328 
Q 3016 3291 2770 3770 
Q 2525 4250 2034 4250 
z
M 2034 4750 
Q 2819 4750 3233 4129 
Q 3647 3509 3647 2328 
Q 3647 1150 3233 529 
Q 2819 -91 2034 -91 
Q 1250 -91 836 529 
Q 422 1150 422 2328 
Q 422 3509 836 4129 
Q 1250 4750 2034 4750 
z
" transform="scale(0.015625)"/>
       </defs>
       <use xlink:href="#DejaVuSans-30"/>
      </g>
     </g>
    </g>
    <g id="xtick_3">
     <g id="line2d_5">
      <path d="M 375.560596 291.28 
L 375.560596 3 
" clip-path="url(#p4c17b52097)" style="fill: none; stroke: #b0b0b0; stroke-width: 0.8; stroke-linecap: square"/>
     </g>
     <g id="line2d_6">
      <g>
       <use xlink:href="#m94339279da" x="375.560596" y="291.28" style="stroke: #000000; stroke-width: 0.8"/>
      </g>
     </g>
     <g id="text_3">
      <!-- 1 -->
      <g transform="translate(369.198096 313.476875)scale(0.2 -0.2)">
       <use xlink:href="#DejaVuSans-31"/>
      </g>
     </g>
    </g>
    <g id="xtick_4">
     <g id="line2d_7">
      <defs>
       <path id="mcd4671405a" d="M 0 0 
L 0 2 
" style="stroke: #000000; stroke-width: 0.6"/>
      </defs>
      <g>
       <use xlink:href="#mcd4671405a" x="42.831752" y="291.28" style="stroke: #000000; stroke-width: 0.6"/>
      </g>
     </g>
    </g>
    <g id="xtick_5">
     <g id="line2d_8">
      <g>
       <use xlink:href="#mcd4671405a" x="59.309247" y="291.28" style="stroke: #000000; stroke-width: 0.6"/>
      </g>
     </g>
    </g>
    <g id="xtick_6">
     <g id="line2d_9">
      <g>
       <use xlink:href="#mcd4671405a" x="72.090185" y="291.28" style="stroke: #000000; stroke-width: 0.6"/>
      </g>
     </g>
    </g>
    <g id="xtick_7">
     <g id="line2d_10">
      <g>
       <use xlink:href="#mcd4671405a" x="82.532972" y="291.28" style="stroke: #000000; stroke-width: 0.6"/>
      </g>
     </g>
    </g>
    <g id="xtick_8">
     <g id="line2d_11">
      <g>
       <use xlink:href="#mcd4671405a" x="91.362222" y="291.28" style="stroke: #000000; stroke-width: 0.6"/>
      </g>
     </g>
    </g>
    <g id="xtick_9">
     <g id="line2d_12">
      <g>
       <use xlink:href="#mcd4671405a" x="99.010466" y="291.28" style="stroke: #000000; stroke-width: 0.6"/>
      </g>
     </g>
    </g>
    <g id="xtick_10">
     <g id="line2d_13">
      <g>
       <use xlink:href="#mcd4671405a" x="105.756696" y="291.28" style="stroke: #000000; stroke-width: 0.6"/>
      </g>
     </g>
    </g>
    <g id="xtick_11">
     <g id="line2d_14">
      <g>
       <use xlink:href="#mcd4671405a" x="151.492624" y="291.28" style="stroke: #000000; stroke-width: 0.6"/>
      </g>
     </g>
    </g>
    <g id="xtick_12">
     <g id="line2d_15">
      <g>
       <use xlink:href="#mcd4671405a" x="174.716348" y="291.28" style="stroke: #000000; stroke-width: 0.6"/>
      </g>
     </g>
    </g>
    <g id="xtick_13">
     <g id="line2d_16">
      <g>
       <use xlink:href="#mcd4671405a" x="191.193843" y="291.28" style="stroke: #000000; stroke-width: 0.6"/>
      </g>
     </g>
    </g>
    <g id="xtick_14">
     <g id="line2d_17">
      <g>
       <use xlink:href="#mcd4671405a" x="203.974781" y="291.28" style="stroke: #000000; stroke-width: 0.6"/>
      </g>
     </g>
    </g>
    <g id="xtick_15">
     <g id="line2d_18">
      <g>
       <use xlink:href="#mcd4671405a" x="214.417567" y="291.28" style="stroke: #000000; stroke-width: 0.6"/>
      </g>
     </g>
    </g>
    <g id="xtick_16">
     <g id="line2d_19">
      <g>
       <use xlink:href="#mcd4671405a" x="223.246818" y="291.28" style="stroke: #000000; stroke-width: 0.6"/>
      </g>
     </g>
    </g>
    <g id="xtick_17">
     <g id="line2d_20">
      <g>
       <use xlink:href="#mcd4671405a" x="230.895062" y="291.28" style="stroke: #000000; stroke-width: 0.6"/>
      </g>
     </g>
    </g>
    <g id="xtick_18">
     <g id="line2d_21">
      <g>
       <use xlink:href="#mcd4671405a" x="237.641292" y="291.28" style="stroke: #000000; stroke-width: 0.6"/>
      </g>
     </g>
    </g>
    <g id="xtick_19">
     <g id="line2d_22">
      <g>
       <use xlink:href="#mcd4671405a" x="283.377219" y="291.28" style="stroke: #000000; stroke-width: 0.6"/>
      </g>
     </g>
    </g>
    <g id="xtick_20">
     <g id="line2d_23">
      <g>
       <use xlink:href="#mcd4671405a" x="306.600944" y="291.28" style="stroke: #000000; stroke-width: 0.6"/>
      </g>
     </g>
    </g>
    <g id="xtick_21">
     <g id="line2d_24">
      <g>
       <use xlink:href="#mcd4671405a" x="323.078439" y="291.28" style="stroke: #000000; stroke-width: 0.6"/>
      </g>
     </g>
    </g>
    <g id="xtick_22">
     <g id="line2d_25">
      <g>
       <use xlink:href="#mcd4671405a" x="335.859376" y="291.28" style="stroke: #000000; stroke-width: 0.6"/>
      </g>
     </g>
    </g>
    <g id="xtick_23">
     <g id="line2d_26">
      <g>
       <use xlink:href="#mcd4671405a" x="346.302163" y="291.28" style="stroke: #000000; stroke-width: 0.6"/>
      </g>
     </g>
    </g>
    <g id="xtick_24">
     <g id="line2d_27">
      <g>
       <use xlink:href="#mcd4671405a" x="355.131413" y="291.28" style="stroke: #000000; stroke-width: 0.6"/>
      </g>
     </g>
    </g>
    <g id="xtick_25">
     <g id="line2d_28">
      <g>
       <use xlink:href="#mcd4671405a" x="362.779658" y="291.28" style="stroke: #000000; stroke-width: 0.6"/>
      </g>
     </g>
    </g>
    <g id="xtick_26">
     <g id="line2d_29">
      <g>
       <use xlink:href="#mcd4671405a" x="369.525888" y="291.28" style="stroke: #000000; stroke-width: 0.6"/>
      </g>
     </g>
    </g>
    <g id="xtick_27">
     <g id="line2d_30">
      <g>
       <use xlink:href="#mcd4671405a" x="415.261815" y="291.28" style="stroke: #000000; stroke-width: 0.6"/>
      </g>
     </g>
    </g>
    <g id="xtick_28">
     <g id="line2d_31">
      <g>
       <use xlink:href="#mcd4671405a" x="438.48554" y="291.28" style="stroke: #000000; stroke-width: 0.6"/>
      </g>
     </g>
    </g>
    <g id="text_4">
     <!-- log10 of FEvals ratio -->
     <g transform="translate(141.371312 336.833125)scale(0.2 -0.2)">
      <defs>
       <path id="DejaVuSans-6c" d="M 603 4863 
L 1178 4863 
L 1178 0 
L 603 0 
L 603 4863 
z
" transform="scale(0.015625)"/>
       <path id="DejaVuSans-6f" d="M 1959 3097 
Q 1497 3097 1228 2736 
Q 959 2375 959 1747 
Q 959 1119 1226 758 
Q 1494 397 1959 397 
Q 2419 397 2687 759 
Q 2956 1122 2956 1747 
Q 2956 2369 2687 2733 
Q 2419 3097 1959 3097 
z
M 1959 3584 
Q 2709 3584 3137 3096 
Q 3566 2609 3566 1747 
Q 3566 888 3137 398 
Q 2709 -91 1959 -91 
Q 1206 -91 779 398 
Q 353 888 353 1747 
Q 353 2609 779 3096 
Q 1206 3584 1959 3584 
z
" transform="scale(0.015625)"/>
       <path id="DejaVuSans-67" d="M 2906 1791 
Q 2906 2416 2648 2759 
Q 2391 3103 1925 3103 
Q 1463 3103 1205 2759 
Q 947 2416 947 1791 
Q 947 1169 1205 825 
Q 1463 481 1925 481 
Q 2391 481 2648 825 
Q 2906 1169 2906 1791 
z
M 3481 434 
Q 3481 -459 3084 -895 
Q 2688 -1331 1869 -1331 
Q 1566 -1331 1297 -1286 
Q 1028 -1241 775 -1147 
L 775 -588 
Q 1028 -725 1275 -790 
Q 1522 -856 1778 -856 
Q 2344 -856 2625 -561 
Q 2906 -266 2906 331 
L 2906 616 
Q 2728 306 2450 153 
Q 2172 0 1784 0 
Q 1141 0 747 490 
Q 353 981 353 1791 
Q 353 2603 747 3093 
Q 1141 3584 1784 3584 
Q 2172 3584 2450 3431 
Q 2728 3278 2906 2969 
L 2906 3500 
L 3481 3500 
L 3481 434 
z
" transform="scale(0.015625)"/>
       <path id="DejaVuSans-20" transform="scale(0.015625)"/>
       <path id="DejaVuSans-66" d="M 2375 4863 
L 2375 4384 
L 1825 4384 
Q 1516 4384 1395 4259 
Q 1275 4134 1275 3809 
L 1275 3500 
L 2222 3500 
L 2222 3053 
L 1275 3053 
L 1275 0 
L 697 0 
L 697 3053 
L 147 3053 
L 147 3500 
L 697 3500 
L 697 3744 
Q 697 4328 969 4595 
Q 1241 4863 1831 4863 
L 2375 4863 
z
" transform="scale(0.015625)"/>
       <path id="DejaVuSans-46" d="M 628 4666 
L 3309 4666 
L 3309 4134 
L 1259 4134 
L 1259 2759 
L 3109 2759 
L 3109 2228 
L 1259 2228 
L 1259 0 
L 628 0 
L 628 4666 
z
" transform="scale(0.015625)"/>
       <path id="DejaVuSans-45" d="M 628 4666 
L 3578 4666 
L 3578 4134 
L 1259 4134 
L 1259 2753 
L 3481 2753 
L 3481 2222 
L 1259 2222 
L 1259 531 
L 3634 531 
L 3634 0 
L 628 0 
L 628 4666 
z
" transform="scale(0.015625)"/>
       <path id="DejaVuSans-76" d="M 191 3500 
L 800 3500 
L 1894 563 
L 2988 3500 
L 3597 3500 
L 2284 0 
L 1503 0 
L 191 3500 
z
" transform="scale(0.015625)"/>
       <path id="DejaVuSans-61" d="M 2194 1759 
Q 1497 1759 1228 1600 
Q 959 1441 959 1056 
Q 959 750 1161 570 
Q 1363 391 1709 391 
Q 2188 391 2477 730 
Q 2766 1069 2766 1631 
L 2766 1759 
L 2194 1759 
z
M 3341 1997 
L 3341 0 
L 2766 0 
L 2766 531 
Q 2569 213 2275 61 
Q 1981 -91 1556 -91 
Q 1019 -91 701 211 
Q 384 513 384 1019 
Q 384 1609 779 1909 
Q 1175 2209 1959 2209 
L 2766 2209 
L 2766 2266 
Q 2766 2663 2505 2880 
Q 2244 3097 1772 3097 
Q 1472 3097 1187 3025 
Q 903 2953 641 2809 
L 641 3341 
Q 956 3463 1253 3523 
Q 1550 3584 1831 3584 
Q 2591 3584 2966 3190 
Q 3341 2797 3341 1997 
z
" transform="scale(0.015625)"/>
       <path id="DejaVuSans-73" d="M 2834 3397 
L 2834 2853 
Q 2591 2978 2328 3040 
Q 2066 3103 1784 3103 
Q 1356 3103 1142 2972 
Q 928 2841 928 2578 
Q 928 2378 1081 2264 
Q 1234 2150 1697 2047 
L 1894 2003 
Q 2506 1872 2764 1633 
Q 3022 1394 3022 966 
Q 3022 478 2636 193 
Q 2250 -91 1575 -91 
Q 1294 -91 989 -36 
Q 684 19 347 128 
L 347 722 
Q 666 556 975 473 
Q 1284 391 1588 391 
Q 1994 391 2212 530 
Q 2431 669 2431 922 
Q 2431 1156 2273 1281 
Q 2116 1406 1581 1522 
L 1381 1569 
Q 847 1681 609 1914 
Q 372 2147 372 2553 
Q 372 3047 722 3315 
Q 1072 3584 1716 3584 
Q 2034 3584 2315 3537 
Q 2597 3491 2834 3397 
z
" transform="scale(0.015625)"/>
       <path id="DejaVuSans-72" d="M 2631 2963 
Q 2534 3019 2420 3045 
Q 2306 3072 2169 3072 
Q 1681 3072 1420 2755 
Q 1159 2438 1159 1844 
L 1159 0 
L 581 0 
L 581 3500 
L 1159 3500 
L 1159 2956 
Q 1341 3275 1631 3429 
Q 1922 3584 2338 3584 
Q 2397 3584 2469 3576 
Q 2541 3569 2628 3553 
L 2631 2963 
z
" transform="scale(0.015625)"/>
       <path id="DejaVuSans-74" d="M 1172 4494 
L 1172 3500 
L 2356 3500 
L 2356 3053 
L 1172 3053 
L 1172 1153 
Q 1172 725 1289 603 
Q 1406 481 1766 481 
L 2356 481 
L 2356 0 
L 1766 0 
Q 1100 0 847 248 
Q 594 497 594 1153 
L 594 3053 
L 172 3053 
L 172 3500 
L 594 3500 
L 594 4494 
L 1172 4494 
z
" transform="scale(0.015625)"/>
       <path id="DejaVuSans-69" d="M 603 3500 
L 1178 3500 
L 1178 0 
L 603 0 
L 603 3500 
z
M 603 4863 
L 1178 4863 
L 1178 4134 
L 603 4134 
L 603 4863 
z
" transform="scale(0.015625)"/>
      </defs>
      <use xlink:href="#DejaVuSans-6c"/>
      <use xlink:href="#DejaVuSans-6f" x="27.783203"/>
      <use xlink:href="#DejaVuSans-67" x="88.964844"/>
      <use xlink:href="#DejaVuSans-31" x="152.441406"/>
      <use xlink:href="#DejaVuSans-30" x="216.064453"/>
      <use xlink:href="#DejaVuSans-20" x="279.6875"/>
      <use xlink:href="#DejaVuSans-6f" x="311.474609"/>
      <use xlink:href="#DejaVuSans-66" x="372.65625"/>
      <use xlink:href="#DejaVuSans-20" x="407.861328"/>
      <use xlink:href="#DejaVuSans-46" x="439.648438"/>
      <use xlink:href="#DejaVuSans-45" x="497.167969"/>
      <use xlink:href="#DejaVuSans-76" x="560.351562"/>
      <use xlink:href="#DejaVuSans-61" x="619.53125"/>
      <use xlink:href="#DejaVuSans-6c" x="680.810547"/>
      <use xlink:href="#DejaVuSans-73" x="708.59375"/>
      <use xlink:href="#DejaVuSans-20" x="760.693359"/>
      <use xlink:href="#DejaVuSans-72" x="792.480469"/>
      <use xlink:href="#DejaVuSans-61" x="833.59375"/>
      <use xlink:href="#DejaVuSans-74" x="894.873047"/>
      <use xlink:href="#DejaVuSans-69" x="934.082031"/>
      <use xlink:href="#DejaVuSans-6f" x="961.865234"/>
     </g>
    </g>
   </g>
   <g id="matplotlib.axis_2">
    <g id="ytick_1">
     <g id="line2d_32">
      <path d="M 34.16 288.453725 
L 453.192 288.453725 
" clip-path="url(#p4c17b52097)" style="fill: none; stroke: #b0b0b0; stroke-width: 0.8; stroke-linecap: square"/>
     </g>
     <g id="line2d_33">
      <defs>
       <path id="m42884f9796" d="M 0 0 
L -3.5 0 
" style="stroke: #000000; stroke-width: 0.8"/>
      </defs>
      <g>
       <use xlink:href="#m42884f9796" x="34.16" y="288.453725" style="stroke: #000000; stroke-width: 0.8"/>
      </g>
     </g>
    </g>
    <g id="ytick_2">
     <g id="line2d_34">
      <path d="M 34.16 217.796863 
L 453.192 217.796863 
" clip-path="url(#p4c17b52097)" style="fill: none; stroke: #b0b0b0; stroke-width: 0.8; stroke-linecap: square"/>
     </g>
     <g id="line2d_35">
      <g>
       <use xlink:href="#m42884f9796" x="34.16" y="217.796863" style="stroke: #000000; stroke-width: 0.8"/>
      </g>
     </g>
    </g>
    <g id="ytick_3">
     <g id="line2d_36">
      <path d="M 34.16 147.14 
L 453.192 147.14 
" clip-path="url(#p4c17b52097)" style="fill: none; stroke: #b0b0b0; stroke-width: 0.8; stroke-linecap: square"/>
     </g>
     <g id="line2d_37">
      <g>
       <use xlink:href="#m42884f9796" x="34.16" y="147.14" style="stroke: #000000; stroke-width: 0.8"/>
      </g>
     </g>
    </g>
    <g id="ytick_4">
     <g id="line2d_38">
      <path d="M 34.16 76.483137 
L 453.192 76.483137 
" clip-path="url(#p4c17b52097)" style="fill: none; stroke: #b0b0b0; stroke-width: 0.8; stroke-linecap: square"/>
     </g>
     <g id="line2d_39">
      <g>
       <use xlink:href="#m42884f9796" x="34.16" y="76.483137" style="stroke: #000000; stroke-width: 0.8"/>
      </g>
     </g>
    </g>
    <g id="ytick_5">
     <g id="line2d_40">
      <path d="M 34.16 5.826275 
L 453.192 5.826275 
" clip-path="url(#p4c17b52097)" style="fill: none; stroke: #b0b0b0; stroke-width: 0.8; stroke-linecap: square"/>
     </g>
     <g id="line2d_41">
      <g>
       <use xlink:href="#m42884f9796" x="34.16" y="5.826275" style="stroke: #000000; stroke-width: 0.8"/>
      </g>
     </g>
    </g>
    <g id="text_5">
     <!-- proportion of trials -->
     <g transform="translate(19.000625 240.14625)rotate(-90)scale(0.2 -0.2)">
      <defs>
       <path id="DejaVuSans-70" d="M 1159 525 
L 1159 -1331 
L 581 -1331 
L 581 3500 
L 1159 3500 
L 1159 2969 
Q 1341 3281 1617 3432 
Q 1894 3584 2278 3584 
Q 2916 3584 3314 3078 
Q 3713 2572 3713 1747 
Q 3713 922 3314 415 
Q 2916 -91 2278 -91 
Q 1894 -91 1617 61 
Q 1341 213 1159 525 
z
M 3116 1747 
Q 3116 2381 2855 2742 
Q 2594 3103 2138 3103 
Q 1681 3103 1420 2742 
Q 1159 2381 1159 1747 
Q 1159 1113 1420 752 
Q 1681 391 2138 391 
Q 2594 391 2855 752 
Q 3116 1113 3116 1747 
z
" transform="scale(0.015625)"/>
       <path id="DejaVuSans-6e" d="M 3513 2113 
L 3513 0 
L 2938 0 
L 2938 2094 
Q 2938 2591 2744 2837 
Q 2550 3084 2163 3084 
Q 1697 3084 1428 2787 
Q 1159 2491 1159 1978 
L 1159 0 
L 581 0 
L 581 3500 
L 1159 3500 
L 1159 2956 
Q 1366 3272 1645 3428 
Q 1925 3584 2291 3584 
Q 2894 3584 3203 3211 
Q 3513 2838 3513 2113 
z
" transform="scale(0.015625)"/>
      </defs>
      <use xlink:href="#DejaVuSans-70"/>
      <use xlink:href="#DejaVuSans-72" x="63.476562"/>
      <use xlink:href="#DejaVuSans-6f" x="102.339844"/>
      <use xlink:href="#DejaVuSans-70" x="163.521484"/>
      <use xlink:href="#DejaVuSans-6f" x="226.998047"/>
      <use xlink:href="#DejaVuSans-72" x="288.179688"/>
      <use xlink:href="#DejaVuSans-74" x="329.292969"/>
      <use xlink:href="#DejaVuSans-69" x="368.501953"/>
      <use xlink:href="#DejaVuSans-6f" x="396.285156"/>
      <use xlink:href="#DejaVuSans-6e" x="457.466797"/>
      <use xlink:href="#DejaVuSans-20" x="520.845703"/>
      <use xlink:href="#DejaVuSans-6f" x="552.632812"/>
      <use xlink:href="#DejaVuSans-66" x="613.814453"/>
      <use xlink:href="#DejaVuSans-20" x="649.019531"/>
      <use xlink:href="#DejaVuSans-74" x="680.806641"/>
      <use xlink:href="#DejaVuSans-72" x="720.015625"/>
      <use xlink:href="#DejaVuSans-69" x="761.128906"/>
      <use xlink:href="#DejaVuSans-61" x="788.912109"/>
      <use xlink:href="#DejaVuSans-6c" x="850.191406"/>
      <use xlink:href="#DejaVuSans-73" x="877.974609"/>
     </g>
    </g>
   </g>
   <g id="line2d_42">
    <path d="M 34.16 270.188686 
L 50.808231 270.188686 
L 50.808231 269.868247 
L 75.028098 269.868247 
L 75.028098 269.547808 
L 78.124893 269.547808 
L 78.124893 269.227368 
L 88.56768 269.227368 
L 88.56768 268.906929 
L 90.50945 268.906929 
L 90.50945 268.58649 
L 92.519367 268.58649 
L 92.519367 268.26605 
L 106.332347 268.26605 
L 106.332347 267.945611 
L 113.733175 267.945611 
L 113.733175 266.984293 
L 114.729318 266.984293 
L 114.729318 266.663854 
L 117.826112 266.663854 
L 117.826112 266.343415 
L 128.268899 266.343415 
L 128.268899 266.022975 
L 130.21067 266.022975 
L 130.21067 265.382097 
L 132.220587 265.382097 
L 132.220587 264.741218 
L 137.953042 264.741218 
L 137.953042 263.7799 
L 141.049837 263.7799 
L 141.049837 262.818583 
L 142.991608 262.818583 
L 142.991608 262.177704 
L 146.033566 262.177704 
L 146.033566 261.857265 
L 151.492624 261.857265 
L 151.492624 260.255068 
L 153.434394 260.255068 
L 153.434394 258.973311 
L 154.430537 258.973311 
L 154.430537 258.332433 
L 155.444311 258.332433 
L 155.444311 257.371115 
L 157.527332 257.371115 
L 157.527332 256.730236 
L 158.060565 256.730236 
L 158.060565 256.409797 
L 164.273561 256.409797 
L 164.273561 256.089358 
L 167.211475 256.089358 
L 167.211475 255.448479 
L 167.970118 255.448479 
L 167.970118 254.8076 
L 169.25729 254.8076 
L 169.25729 253.846283 
L 170.30827 253.846283 
L 170.30827 253.205404 
L 171.921806 253.205404 
L 171.921806 252.244086 
L 175.476318 252.244086 
L 175.476318 251.923647 
L 177.654261 251.923647 
L 177.654261 250.64189 
L 180.751056 250.64189 
L 180.751056 248.078375 
L 182.692827 248.078375 
L 182.692827 247.437497 
L 184.702744 247.437497 
L 184.702744 246.796618 
L 185.734785 246.796618 
L 185.734785 246.15574 
L 187.912638 246.15574 
L 187.912638 245.8353 
L 190.536058 245.8353 
L 190.536058 245.514861 
L 191.154677 245.514861 
L 191.193843 243.271786 
L 193.856899 243.271786 
L 193.856899 242.951347 
L 195.14553 242.951347 
L 195.14553 240.708272 
L 196.234721 240.708272 
L 196.234721 240.387832 
L 198.515723 240.387832 
L 198.515723 239.746954 
L 203.974781 239.746954 
L 203.974781 238.785636 
L 204.183956 238.785636 
L 204.183956 238.465197 
L 205.32839 238.465197 
L 205.32839 238.144757 
L 206.797321 238.144757 
L 206.797321 237.824318 
L 206.912694 237.824318 
L 206.912694 237.18344 
L 207.951811 237.18344 
L 207.951811 236.863 
L 208.076342 236.863 
L 208.076342 236.542561 
L 208.95851 236.542561 
L 208.95851 235.260804 
L 210.009489 235.260804 
L 210.009489 234.619925 
L 211.272651 234.619925 
L 211.345999 233.979047 
L 211.623025 233.979047 
L 211.623025 233.338168 
L 213.650474 233.338168 
L 213.650474 233.017729 
L 214.417567 233.017729 
L 214.417567 231.095093 
L 215.135167 231.095093 
L 215.135167 230.774654 
L 215.549808 230.774654 
L 215.549808 230.454215 
L 216.813824 230.454215 
L 216.813824 230.133775 
L 218.406798 230.133775 
L 218.412052 229.492897 
L 218.550136 229.492897 
L 218.550136 229.172457 
L 218.955711 229.172457 
L 218.955711 228.852018 
L 219.649236 228.852018 
L 219.649236 228.531579 
L 220.452275 228.531579 
L 220.452275 227.249822 
L 221.00675 227.249822 
L 221.00675 226.929382 
L 221.599708 226.929382 
L 221.599708 226.608943 
L 223.283566 226.608943 
L 223.283566 226.288504 
L 223.630171 226.288504 
L 223.630171 225.968065 
L 223.829927 225.968065 
L 223.829927 225.647625 
L 224.213074 225.647625 
L 224.213074 225.327186 
L 224.403963 225.327186 
L 224.403963 224.045429 
L 225.207593 224.045429 
L 225.207593 223.72499 
L 225.492095 223.72499 
L 225.492095 223.40455 
L 225.957563 223.40455 
L 225.957563 223.084111 
L 226.951011 223.084111 
L 226.951011 222.763672 
L 227.198505 222.763672 
L 227.198505 221.802354 
L 228.055084 221.802354 
L 228.055084 221.481915 
L 228.360943 221.481915 
L 228.360943 221.161475 
L 229.328833 221.161475 
L 229.328833 220.841036 
L 230.895062 220.841036 
L 230.895062 219.559279 
L 231.044364 219.559279 
L 231.083486 218.9184 
L 231.610474 218.9184 
L 231.610474 218.597961 
L 232.042675 218.597961 
L 232.042675 218.277522 
L 234.229577 218.277522 
L 234.229577 217.957082 
L 234.498455 217.957082 
L 234.498455 217.636643 
L 234.84675 217.636643 
L 234.904031 216.034447 
L 235.82255 216.034447 
L 235.827804 215.393568 
L 236.931445 215.393568 
L 236.931445 215.073129 
L 237.278068 215.073129 
L 237.278068 214.75269 
L 238.216942 214.75269 
L 238.216942 214.111811 
L 239.231885 214.111811 
L 239.231885 213.791372 
L 239.891434 213.791372 
L 239.891434 213.470932 
L 241.155912 213.470932 
L 241.198071 212.509615 
L 242.085909 212.509615 
L 242.085909 212.189175 
L 243.676 212.189175 
L 243.676 207.382586 
L 243.821492 207.382586 
L 243.821492 207.062147 
L 244.023637 207.062147 
L 244.023637 206.741707 
L 244.309262 206.741707 
L 244.309262 206.421268 
L 245.401881 206.421268 
L 245.470836 205.780389 
L 246.092611 205.780389 
L 246.170704 205.139511 
L 246.724749 205.139511 
L 246.724749 204.819072 
L 246.992683 204.819072 
L 246.992683 204.498632 
L 247.142332 204.498632 
L 247.142332 204.178193 
L 247.449684 204.178193 
L 247.558793 203.216875 
L 248.025302 203.216875 
L 248.025302 202.896436 
L 249.501308 202.896436 
L 249.520155 201.935118 
L 249.907937 201.935118 
L 249.913155 201.294239 
L 250.139718 201.294239 
L 250.139718 200.9738 
L 250.545293 200.9738 
L 250.617049 200.332922 
L 251.346142 200.332922 
L 251.346142 200.012482 
L 251.50091 200.012482 
L 251.506164 199.371604 
L 252.124729 199.371604 
L 252.124729 199.051164 
L 253.682 199.051164 
L 253.723964 198.410286 
L 254.118787 198.410286 
L 254.118787 195.846772 
L 254.24101 195.846772 
L 254.24101 195.526332 
L 254.873148 195.526332 
L 254.873148 195.205893 
L 255.445569 195.205893 
L 255.445569 194.885454 
L 255.809636 194.885454 
L 255.809636 194.565014 
L 256.165037 194.565014 
L 256.165037 194.244575 
L 256.30542 194.244575 
L 256.30542 193.924136 
L 256.456938 193.924136 
L 256.456938 193.283257 
L 256.797175 193.283257 
L 256.797175 192.962818 
L 257.469389 192.962818 
L 257.517472 192.0015 
L 257.823392 192.0015 
L 257.823392 191.681061 
L 258.433056 191.681061 
L 258.433056 191.360622 
L 259.318387 191.360622 
L 259.318387 191.040182 
L 259.626261 191.040182 
L 259.626261 190.719743 
L 259.950525 190.719743 
L 259.99408 190.078864 
L 260.082755 190.078864 
L 260.153495 188.476668 
L 260.885659 188.476668 
L 260.885659 188.156229 
L 261.149196 188.156229 
L 261.149196 187.835789 
L 261.291234 187.835789 
L 261.361776 187.194911 
L 261.673199 187.194911 
L 261.753897 186.554032 
L 261.894748 186.554032 
L 262.004083 185.592714 
L 262.567918 185.592714 
L 262.633946 184.951836 
L 263.200056 184.951836 
L 263.200056 184.631397 
L 263.398003 184.631397 
L 263.501964 183.670079 
L 263.814624 183.670079 
L 263.814624 183.349639 
L 264.105182 183.349639 
L 264.131719 182.388322 
L 264.286565 182.388322 
L 264.296551 181.747443 
L 264.518168 181.747443 
L 264.518168 181.427004 
L 265.565586 181.427004 
L 265.619088 180.786125 
L 265.772626 180.786125 
L 265.824021 180.145247 
L 266.565368 180.145247 
L 266.565368 179.824807 
L 266.783517 179.824807 
L 266.783517 179.504368 
L 266.899725 179.504368 
L 266.899725 176.299975 
L 267.543115 176.299975 
L 267.543115 175.979536 
L 267.71152 175.979536 
L 267.71152 175.659097 
L 267.839009 175.659097 
L 267.839009 175.338657 
L 268.117095 175.338657 
L 268.142479 174.697779 
L 268.385992 174.697779 
L 268.385992 174.377339 
L 269.023642 174.377339 
L 269.023642 174.0569 
L 269.238991 174.0569 
L 269.342734 173.416022 
L 269.406938 173.416022 
L 269.406938 173.095582 
L 269.644566 173.095582 
L 269.665013 172.454704 
L 269.953318 172.454704 
L 269.953318 172.134264 
L 270.066506 172.134264 
L 270.099258 171.493386 
L 270.216831 171.493386 
L 270.216831 171.172947 
L 270.353696 171.172947 
L 270.353696 170.852507 
L 270.696465 170.852507 
L 270.696465 170.532068 
L 271.692231 170.532068 
L 271.697485 169.891189 
L 271.937982 169.891189 
L 271.937982 169.57075 
L 272.080953 169.57075 
L 272.080953 169.250311 
L 272.44495 169.250311 
L 272.44495 168.929872 
L 272.566683 168.929872 
L 272.566683 168.609432 
L 272.727778 168.609432 
L 272.727778 168.288993 
L 272.934433 168.288993 
L 272.934433 167.007236 
L 273.219856 167.007236 
L 273.219856 166.686796 
L 273.379886 166.686796 
L 273.465791 166.045918 
L 273.558602 166.045918 
L 273.558602 165.725479 
L 273.768666 165.725479 
L 273.875709 164.764161 
L 273.945996 164.764161 
L 273.97242 164.123282 
L 274.174241 164.123282 
L 274.174241 163.802843 
L 274.303068 163.802843 
L 274.368977 163.161964 
L 274.561402 163.161964 
L 274.561402 162.841525 
L 274.694319 162.841525 
L 274.694319 162.521086 
L 275.105601 162.521086 
L 275.105601 162.200646 
L 275.896041 162.200646 
L 275.97334 160.59845 
L 276.022777 160.59845 
L 276.022777 160.278011 
L 276.469386 160.278011 
L 276.49913 159.637132 
L 276.663803 159.637132 
L 276.663803 159.316693 
L 276.973571 159.316693 
L 276.973571 158.996254 
L 277.379146 158.996254 
L 277.379146 158.675814 
L 277.522327 158.675814 
L 277.522327 158.355375 
L 277.882243 158.355375 
L 277.882243 158.034936 
L 278.166066 158.034936 
L 278.166066 157.714496 
L 278.402495 157.714496 
L 278.511089 156.432739 
L 278.646198 156.432739 
L 278.646198 156.1123 
L 278.783199 156.1123 
L 278.783199 155.791861 
L 279.039266 155.791861 
L 279.143227 154.830543 
L 279.81997 154.830543 
L 279.81997 154.510104 
L 279.995468 154.510104 
L 280.078773 153.548786 
L 280.137053 153.548786 
L 280.205748 152.907907 
L 280.260065 152.907907 
L 280.260065 152.587468 
L 280.426122 152.587468 
L 280.484348 151.62615 
L 280.771857 151.62615 
L 280.779431 150.985271 
L 281.340517 150.985271 
L 281.340517 150.664832 
L 281.574493 150.664832 
L 281.574493 150.344393 
L 281.707001 150.344393 
L 281.733218 149.703514 
L 281.967038 149.703514 
L 282.058452 149.062636 
L 282.197793 149.062636 
L 282.299328 148.101318 
L 282.583186 148.101318 
L 282.583186 147.780879 
L 283.054835 147.780879 
L 283.054835 147.460439 
L 283.377219 147.460439 
L 283.409031 141.692532 
L 283.579472 141.692532 
L 283.631028 141.051654 
L 283.728122 141.051654 
L 283.828704 140.410775 
L 284.17616 140.410775 
L 284.181414 139.769896 
L 284.34486 139.769896 
L 284.34486 139.449457 
L 284.710822 139.449457 
L 284.812203 138.808579 
L 285.544327 138.808579 
L 285.544327 138.488139 
L 285.668201 138.488139 
L 285.668201 138.1677 
L 286.262893 138.1677 
L 286.30905 137.206382 
L 286.73623 137.206382 
L 286.829003 136.245064 
L 286.947222 136.245064 
L 286.947222 135.924625 
L 288.2093 135.924625 
L 288.2093 135.604186 
L 288.474916 135.604186 
L 288.474916 135.283746 
L 289.107054 135.283746 
L 289.107054 134.963307 
L 289.467799 134.963307 
L 289.467799 134.642868 
L 289.643754 134.642868 
L 289.643754 134.322429 
L 289.785206 134.322429 
L 289.88958 133.361111 
L 289.89661 133.361111 
L 289.89661 133.040671 
L 290.033908 133.040671 
L 290.033908 132.720232 
L 290.147027 132.720232 
L 290.147027 132.399793 
L 290.630326 132.399793 
L 290.630326 132.079354 
L 290.795934 132.079354 
L 290.822665 131.438475 
L 290.949418 131.438475 
L 291.019624 130.797596 
L 291.488723 130.797596 
L 291.488723 130.477157 
L 292.101686 130.477157 
L 292.151985 129.836279 
L 292.294095 129.836279 
L 292.394162 128.554521 
L 292.412558 128.554521 
L 292.412558 128.234082 
L 292.573001 128.234082 
L 292.573001 127.913643 
L 292.760393 127.913643 
L 292.760393 127.593204 
L 292.952571 127.593204 
L 292.952571 127.272764 
L 293.13911 127.272764 
L 293.168588 126.631886 
L 293.824446 126.631886 
L 293.824446 126.311446 
L 294.039414 126.311446 
L 294.039414 125.991007 
L 294.907461 125.991007 
L 294.942115 125.350128 
L 295.475962 125.350128 
L 295.475962 125.029689 
L 295.684704 125.029689 
L 295.684704 124.70925 
L 295.952082 124.70925 
L 295.952082 124.388811 
L 296.158157 124.388811 
L 296.186482 122.145736 
L 296.611067 122.145736 
L 296.715028 121.504857 
L 297.277677 121.504857 
L 297.282931 120.863978 
L 297.441935 120.863978 
L 297.441935 120.543539 
L 297.761026 120.543539 
L 297.761026 120.2231 
L 298.138538 120.2231 
L 298.242499 119.261782 
L 299.778433 119.261782 
L 299.852994 118.620903 
L 300.223846 118.620903 
L 300.223846 118.300464 
L 300.389883 118.300464 
L 300.389883 117.980025 
L 300.839168 117.980025 
L 300.839168 117.659586 
L 301.219988 117.659586 
L 301.305903 117.018707 
L 302.037194 117.018707 
L 302.133035 116.377828 
L 302.261556 116.377828 
L 302.261556 116.057389 
L 302.376385 116.057389 
L 302.437396 115.096071 
L 302.580648 115.096071 
L 302.668213 114.134753 
L 302.772174 114.134753 
L 302.776896 113.493875 
L 303.265396 113.493875 
L 303.265396 113.173436 
L 304.369869 113.173436 
L 304.375123 112.532557 
L 304.923964 112.532557 
L 304.923964 112.212118 
L 305.405012 112.212118 
L 305.435388 111.571239 
L 305.835578 111.571239 
L 305.874112 110.289482 
L 305.97708 110.289482 
L 305.97708 109.969043 
L 306.516937 109.969043 
L 306.622153 104.842014 
L 306.678856 104.842014 
L 306.728084 104.201136 
L 306.925963 104.201136 
L 306.941245 103.239818 
L 307.047176 103.239818 
L 307.047176 102.919378 
L 307.201492 102.919378 
L 307.201492 102.598939 
L 307.465981 102.598939 
L 307.465981 102.2785 
L 308.206326 102.2785 
L 308.206326 101.958061 
L 308.470862 101.958061 
L 308.470862 101.637621 
L 308.97832 101.637621 
L 309.082281 100.355864 
L 309.349756 100.355864 
L 309.349756 100.035425 
L 310.666632 100.035425 
L 310.733369 99.394546 
L 311.05246 99.394546 
L 311.05246 99.074107 
L 311.337257 99.074107 
L 311.337257 98.753668 
L 312.021113 98.753668 
L 312.080428 98.112789 
L 312.145685 98.112789 
L 312.246997 97.471911 
L 312.333399 97.471911 
L 312.333399 97.151471 
L 312.626308 97.151471 
L 312.736001 94.908396 
L 313.011991 94.908396 
L 313.095407 94.267518 
L 313.758669 94.267518 
L 313.758669 93.947078 
L 314.018155 93.947078 
L 314.018155 93.626639 
L 314.609234 93.626639 
L 314.609234 93.3062 
L 315.605377 93.3062 
L 315.605377 92.985761 
L 315.940907 92.985761 
L 315.940907 92.665321 
L 316.165223 92.665321 
L 316.165223 92.344882 
L 316.336752 92.344882 
L 316.38171 90.742686 
L 316.487641 90.742686 
L 316.487641 90.422246 
L 316.669196 90.422246 
L 316.687087 89.781368 
L 316.983152 89.781368 
L 317.066618 89.140489 
L 318.579392 89.140489 
L 318.579392 88.82005 
L 318.790221 88.82005 
L 318.790221 88.499611 
L 319.046109 88.499611 
L 319.046109 88.179171 
L 319.437916 88.179171 
L 319.437916 87.858732 
L 319.584273 87.858732 
L 319.584273 87.538293 
L 319.907016 87.538293 
L 319.907016 87.217853 
L 320.25513 87.217853 
L 320.25513 86.897414 
L 320.492926 86.897414 
L 320.570278 86.256536 
L 321.427216 86.256536 
L 321.533146 85.295218 
L 321.780043 85.295218 
L 321.85137 84.3339 
L 322.452457 84.3339 
L 322.452457 84.01346 
L 322.826672 84.01346 
L 322.856251 83.372582 
L 323.078439 83.372582 
L 323.094347 82.411264 
L 323.413438 82.411264 
L 323.413438 82.090825 
L 323.835727 82.090825 
L 323.835727 81.770385 
L 324.257537 81.770385 
L 324.257537 81.449946 
L 324.726637 81.449946 
L 324.726637 81.129507 
L 325.052021 81.129507 
L 325.052021 80.809068 
L 325.389899 80.809068 
L 325.389899 80.488628 
L 325.538431 80.488628 
L 325.538431 80.168189 
L 326.109662 80.168189 
L 326.127552 79.52731 
L 327.450162 79.52731 
L 327.497962 78.565993 
L 328.618135 78.565993 
L 328.724066 77.284235 
L 329.072665 77.284235 
L 329.087234 76.322918 
L 329.193165 76.322918 
L 329.193165 76.002478 
L 329.638281 76.002478 
L 329.702151 75.3616 
L 329.750496 75.3616 
L 329.856427 74.400282 
L 330.077546 74.400282 
L 330.077546 74.079843 
L 330.72214 74.079843 
L 330.72214 73.759403 
L 331.026646 73.759403 
L 331.026646 73.438964 
L 331.155167 73.438964 
L 331.173058 72.798085 
L 331.495746 72.798085 
L 331.495746 72.477646 
L 332.159007 72.477646 
L 332.159007 72.157207 
L 332.273316 72.157207 
L 332.273316 71.836768 
L 332.72935 71.836768 
L 332.72935 71.516328 
L 332.853903 71.516328 
L 332.853903 71.195889 
L 333.19845 71.195889 
L 333.19845 70.87545 
L 333.46176 70.87545 
L 333.46176 70.55501 
L 333.861711 70.55501 
L 333.861711 70.234571 
L 334.288034 70.234571 
L 334.288034 69.914132 
L 334.457902 69.914132 
L 334.457902 69.593693 
L 334.688881 69.593693 
L 334.688881 69.273253 
L 335.157981 69.273253 
L 335.157981 68.952814 
L 335.821243 68.952814 
L 335.884274 66.3893 
L 336.889155 66.3893 
L 336.889155 66.06886 
L 337.822357 66.06886 
L 337.928288 64.787103 
L 337.943435 64.787103 
L 337.943435 64.466664 
L 338.346086 64.466664 
L 338.363977 63.825785 
L 338.815186 63.825785 
L 338.92443 62.223589 
L 339.084925 62.223589 
L 339.107655 61.58271 
L 339.478448 61.58271 
L 339.496338 60.941832 
L 340.230868 60.941832 
L 340.230868 60.621393 
L 340.703895 60.621393 
L 340.703895 60.300953 
L 340.815562 60.300953 
L 340.815562 59.980514 
L 341.227011 59.980514 
L 341.227011 59.660075 
L 341.708776 59.660075 
L 341.708776 59.339635 
L 341.933572 59.339635 
L 341.933572 59.019196 
L 342.929715 59.019196 
L 342.929715 58.698757 
L 343.468252 58.698757 
L 343.574183 57.737439 
L 343.893104 57.737439 
L 343.904546 57.09656 
L 344.08754 57.09656 
L 344.08754 56.776121 
L 344.755044 56.776121 
L 344.755044 56.455682 
L 344.889246 56.455682 
L 344.889246 56.135243 
L 345.064492 56.135243 
L 345.170423 54.853485 
L 345.559428 54.853485 
L 345.559428 54.533046 
L 345.876764 54.533046 
L 345.876764 54.212607 
L 346.069373 54.212607 
L 346.175304 53.251289 
L 346.222689 53.251289 
L 346.302163 51.649093 
L 347.473004 51.649093 
L 347.579468 50.367335 
L 348.265144 50.367335 
L 348.371074 49.406018 
L 348.477885 49.406018 
L 348.564342 48.4447 
L 349.175708 48.4447 
L 349.175708 48.12426 
L 349.538999 48.12426 
L 349.574665 47.483382 
L 350.180589 47.483382 
L 350.180589 47.162943 
L 350.673655 47.162943 
L 350.673655 46.842503 
L 351.135239 46.842503 
L 351.135239 46.522064 
L 351.308835 46.522064 
L 351.308835 46.201625 
L 352.14012 46.201625 
L 352.14012 45.881185 
L 352.376359 45.881185 
L 352.376359 45.560746 
L 353.196204 45.560746 
L 353.214094 44.919868 
L 353.935263 44.919868 
L 354.041193 43.95855 
L 354.29455 43.95855 
L 354.33589 43.317671 
L 354.792444 43.317671 
L 354.810335 42.676792 
L 355.290693 42.676792 
L 355.290693 42.356353 
L 355.797325 42.356353 
L 355.815216 41.715475 
L 356.343774 41.715475 
L 356.343774 41.395035 
L 357.993095 41.395035 
L 358.046478 40.433717 
L 358.120444 40.433717 
L 358.120444 40.113278 
L 359.940445 40.113278 
L 360.006009 39.4724 
L 361.536685 39.4724 
L 361.536685 39.15196 
L 362.541567 39.15196 
L 362.541567 38.831521 
L 362.940065 38.831521 
L 362.940065 38.511082 
L 363.663214 38.511082 
L 363.681105 37.870203 
L 364.737337 37.870203 
L 364.737337 37.549764 
L 367.300662 37.549764 
L 367.406593 36.588446 
L 369.709173 36.588446 
L 369.709173 36.268007 
L 370.407456 36.268007 
L 370.407456 35.947567 
L 371.411878 35.947567 
L 371.411878 35.627128 
L 373.371409 35.627128 
L 373.371409 35.306689 
L 375.560596 35.306689 
L 375.560596 34.66581 
L 377.028614 34.66581 
L 377.046504 34.024932 
L 383.772855 34.024932 
L 383.772855 33.704492 
L 453.192 33.704492 
L 453.192 33.704492 
" clip-path="url(#p4c17b52097)" style="fill: none; stroke: #000000; stroke-width: 3; stroke-linecap: square"/>
   </g>
   <g id="line2d_43">
    <path clip-path="url(#p4c17b52097)" style="fill: none; stroke: #000000; stroke-width: 3; stroke-linecap: square"/>
   </g>
   <g id="line2d_44">
    <path d="M 44.964778 288.453725 
L 34.16 288.453725 
L 453.192 288.453725 
L 461.8 288.453725 
" clip-path="url(#p4c17b52097)" style="fill: none; stroke: #00bfbf; stroke-width: 3; stroke-linecap: square"/>
   </g>
   <g id="line2d_45"/>
   <g id="line2d_46"/>
   <g id="line2d_47">
    <path d="M 243.676 291.28 
L 243.676 3 
" clip-path="url(#p4c17b52097)" style="fill: none; stroke: #000000; stroke-width: 1.5; stroke-linecap: square"/>
   </g>
   <g id="line2d_48">
    <path d="M 34.16 147.14 
L 453.192 147.14 
" clip-path="url(#p4c17b52097)" style="fill: none; stroke-dasharray: 2,3.3; stroke-dashoffset: 0; stroke: #000000; stroke-width: 2"/>
   </g>
   <g id="patch_3">
    <path d="M 34.16 291.28 
L 34.16 3 
" style="fill: none; stroke: #000000; stroke-width: 0.8; stroke-linejoin: miter; stroke-linecap: square"/>
   </g>
   <g id="patch_4">
    <path d="M 453.192 291.28 
L 453.192 3 
" style="fill: none; stroke: #000000; stroke-width: 0.8; stroke-linejoin: miter; stroke-linecap: square"/>
   </g>
   <g id="patch_5">
    <path d="M 34.16 291.28 
L 453.192 291.28 
" style="fill: none; stroke: #000000; stroke-width: 0.8; stroke-linejoin: miter; stroke-linecap: square"/>
   </g>
   <g id="patch_6">
    <path d="M 34.16 3 
L 453.192 3 
" style="fill: none; stroke: #000000; stroke-width: 0.8; stroke-linejoin: miter; stroke-linecap: square"/>
   </g>
   <g id="text_6">
    <!-- f20-f24,20-D -->
    <g transform="translate(318.19261 285.5144)scale(0.2 -0.2)">
     <defs>
      <path id="DejaVuSans-32" d="M 1228 531 
L 3431 531 
L 3431 0 
L 469 0 
L 469 531 
Q 828 903 1448 1529 
Q 2069 2156 2228 2338 
Q 2531 2678 2651 2914 
Q 2772 3150 2772 3378 
Q 2772 3750 2511 3984 
Q 2250 4219 1831 4219 
Q 1534 4219 1204 4116 
Q 875 4013 500 3803 
L 500 4441 
Q 881 4594 1212 4672 
Q 1544 4750 1819 4750 
Q 2544 4750 2975 4387 
Q 3406 4025 3406 3419 
Q 3406 3131 3298 2873 
Q 3191 2616 2906 2266 
Q 2828 2175 2409 1742 
Q 1991 1309 1228 531 
z
" transform="scale(0.015625)"/>
      <path id="DejaVuSans-34" d="M 2419 4116 
L 825 1625 
L 2419 1625 
L 2419 4116 
z
M 2253 4666 
L 3047 4666 
L 3047 1625 
L 3713 1625 
L 3713 1100 
L 3047 1100 
L 3047 0 
L 2419 0 
L 2419 1100 
L 313 1100 
L 313 1709 
L 2253 4666 
z
" transform="scale(0.015625)"/>
      <path id="DejaVuSans-2c" d="M 750 794 
L 1409 794 
L 1409 256 
L 897 -744 
L 494 -744 
L 750 256 
L 750 794 
z
" transform="scale(0.015625)"/>
      <path id="DejaVuSans-44" d="M 1259 4147 
L 1259 519 
L 2022 519 
Q 2988 519 3436 956 
Q 3884 1394 3884 2338 
Q 3884 3275 3436 3711 
Q 2988 4147 2022 4147 
L 1259 4147 
z
M 628 4666 
L 1925 4666 
Q 3281 4666 3915 4102 
Q 4550 3538 4550 2338 
Q 4550 1131 3912 565 
Q 3275 0 1925 0 
L 628 0 
L 628 4666 
z
" transform="scale(0.015625)"/>
     </defs>
     <use xlink:href="#DejaVuSans-66"/>
     <use xlink:href="#DejaVuSans-32" x="35.205078"/>
     <use xlink:href="#DejaVuSans-30" x="98.828125"/>
     <use xlink:href="#DejaVuSans-2d" x="162.451172"/>
     <use xlink:href="#DejaVuSans-66" x="198.535156"/>
     <use xlink:href="#DejaVuSans-32" x="233.740234"/>
     <use xlink:href="#DejaVuSans-34" x="297.363281"/>
     <use xlink:href="#DejaVuSans-2c" x="360.986328"/>
     <use xlink:href="#DejaVuSans-32" x="392.773438"/>
     <use xlink:href="#DejaVuSans-30" x="456.396484"/>
     <use xlink:href="#DejaVuSans-2d" x="520.019531"/>
     <use xlink:href="#DejaVuSans-44" x="556.103516"/>
    </g>
   </g>
   <g id="text_7">
    <!-- v2.6.3 -->
    <g style="fill: #808080" transform="translate(227.99475 286.317512)scale(0.1 -0.1)">
     <defs>
      <path id="DejaVuSans-2e" d="M 684 794 
L 1344 794 
L 1344 0 
L 684 0 
L 684 794 
z
" transform="scale(0.015625)"/>
      <path id="DejaVuSans-36" d="M 2113 2584 
Q 1688 2584 1439 2293 
Q 1191 2003 1191 1497 
Q 1191 994 1439 701 
Q 1688 409 2113 409 
Q 2538 409 2786 701 
Q 3034 994 3034 1497 
Q 3034 2003 2786 2293 
Q 2538 2584 2113 2584 
z
M 3366 4563 
L 3366 3988 
Q 3128 4100 2886 4159 
Q 2644 4219 2406 4219 
Q 1781 4219 1451 3797 
Q 1122 3375 1075 2522 
Q 1259 2794 1537 2939 
Q 1816 3084 2150 3084 
Q 2853 3084 3261 2657 
Q 3669 2231 3669 1497 
Q 3669 778 3244 343 
Q 2819 -91 2113 -91 
Q 1303 -91 875 529 
Q 447 1150 447 2328 
Q 447 3434 972 4092 
Q 1497 4750 2381 4750 
Q 2619 4750 2861 4703 
Q 3103 4656 3366 4563 
z
" transform="scale(0.015625)"/>
      <path id="DejaVuSans-33" d="M 2597 2516 
Q 3050 2419 3304 2112 
Q 3559 1806 3559 1356 
Q 3559 666 3084 287 
Q 2609 -91 1734 -91 
Q 1441 -91 1130 -33 
Q 819 25 488 141 
L 488 750 
Q 750 597 1062 519 
Q 1375 441 1716 441 
Q 2309 441 2620 675 
Q 2931 909 2931 1356 
Q 2931 1769 2642 2001 
Q 2353 2234 1838 2234 
L 1294 2234 
L 1294 2753 
L 1863 2753 
Q 2328 2753 2575 2939 
Q 2822 3125 2822 3475 
Q 2822 3834 2567 4026 
Q 2313 4219 1838 4219 
Q 1578 4219 1281 4162 
Q 984 4106 628 3988 
L 628 4550 
Q 988 4650 1302 4700 
Q 1616 4750 1894 4750 
Q 2613 4750 3031 4423 
Q 3450 4097 3450 3541 
Q 3450 3153 3228 2886 
Q 3006 2619 2597 2516 
z
" transform="scale(0.015625)"/>
     </defs>
     <use xlink:href="#DejaVuSans-76"/>
     <use xlink:href="#DejaVuSans-32" x="59.179688"/>
     <use xlink:href="#DejaVuSans-2e" x="122.802734"/>
     <use xlink:href="#DejaVuSans-36" x="154.589844"/>
     <use xlink:href="#DejaVuSans-2e" x="218.212891"/>
     <use xlink:href="#DejaVuSans-33" x="250"/>
    </g>
   </g>
   <g id="legend_1">
    <g id="patch_7">
     <path d="M 48.16 136.425 
L 177.381875 136.425 
Q 181.381875 136.425 181.381875 132.425 
L 181.381875 17 
Q 181.381875 13 177.381875 13 
L 48.16 13 
Q 44.16 13 44.16 17 
L 44.16 132.425 
Q 44.16 136.425 48.16 136.425 
z
" style="fill: #ffffff; opacity: 0.2; stroke: #cccccc; stroke-linejoin: miter"/>
    </g>
    <g id="line2d_49">
     <path d="M 52.16 29.196875 
L 72.16 29.196875 
L 92.16 29.196875 
" style="fill: none; stroke: #000000; stroke-width: 3; stroke-linecap: square"/>
    </g>
    <g id="text_8">
     <!-- 1: 4/4 -->
     <g transform="translate(108.16 36.196875)scale(0.2 -0.2)">
      <defs>
       <path id="DejaVuSans-3a" d="M 750 794 
L 1409 794 
L 1409 0 
L 750 0 
L 750 794 
z
M 750 3309 
L 1409 3309 
L 1409 2516 
L 750 2516 
L 750 3309 
z
" transform="scale(0.015625)"/>
       <path id="DejaVuSans-2f" d="M 1625 4666 
L 2156 4666 
L 531 -594 
L 0 -594 
L 1625 4666 
z
" transform="scale(0.015625)"/>
      </defs>
      <use xlink:href="#DejaVuSans-31"/>
      <use xlink:href="#DejaVuSans-3a" x="63.623047"/>
      <use xlink:href="#DejaVuSans-20" x="97.314453"/>
      <use xlink:href="#DejaVuSans-34" x="129.101562"/>
      <use xlink:href="#DejaVuSans-2f" x="192.724609"/>
      <use xlink:href="#DejaVuSans-34" x="226.416016"/>
     </g>
    </g>
    <g id="line2d_50">
     <path d="M 52.16 58.553125 
L 72.16 58.553125 
L 92.16 58.553125 
" style="fill: none; stroke: #00bfbf; stroke-width: 3; stroke-linecap: square"/>
    </g>
    <g id="text_9">
     <!-- -1: 0/2 -->
     <g transform="translate(108.16 65.553125)scale(0.2 -0.2)">
      <use xlink:href="#DejaVuSans-2d"/>
      <use xlink:href="#DejaVuSans-31" x="36.083984"/>
      <use xlink:href="#DejaVuSans-3a" x="99.707031"/>
      <use xlink:href="#DejaVuSans-20" x="133.398438"/>
      <use xlink:href="#DejaVuSans-30" x="165.185547"/>
      <use xlink:href="#DejaVuSans-2f" x="228.808594"/>
      <use xlink:href="#DejaVuSans-32" x="262.5"/>
     </g>
    </g>
    <g id="line2d_51">
     <path d="M 52.16 87.909375 
L 72.16 87.909375 
L 92.16 87.909375 
" style="fill: none; stroke: #bf00bf; stroke-width: 3; stroke-linecap: square"/>
    </g>
    <g id="text_10">
     <!-- -4: 0/0 -->
     <g transform="translate(108.16 94.909375)scale(0.2 -0.2)">
      <use xlink:href="#DejaVuSans-2d"/>
      <use xlink:href="#DejaVuSans-34" x="36.083984"/>
      <use xlink:href="#DejaVuSans-3a" x="99.707031"/>
      <use xlink:href="#DejaVuSans-20" x="133.398438"/>
      <use xlink:href="#DejaVuSans-30" x="165.185547"/>
      <use xlink:href="#DejaVuSans-2f" x="228.808594"/>
      <use xlink:href="#DejaVuSans-30" x="262.5"/>
     </g>
    </g>
    <g id="line2d_52">
     <path d="M 52.16 117.265625 
L 72.16 117.265625 
L 92.16 117.265625 
" style="fill: none; stroke: #ff0000; stroke-width: 3; stroke-linecap: square"/>
    </g>
    <g id="text_11">
     <!-- -8: 0/0 -->
     <g transform="translate(108.16 124.265625)scale(0.2 -0.2)">
      <defs>
       <path id="DejaVuSans-38" d="M 2034 2216 
Q 1584 2216 1326 1975 
Q 1069 1734 1069 1313 
Q 1069 891 1326 650 
Q 1584 409 2034 409 
Q 2484 409 2743 651 
Q 3003 894 3003 1313 
Q 3003 1734 2745 1975 
Q 2488 2216 2034 2216 
z
M 1403 2484 
Q 997 2584 770 2862 
Q 544 3141 544 3541 
Q 544 4100 942 4425 
Q 1341 4750 2034 4750 
Q 2731 4750 3128 4425 
Q 3525 4100 3525 3541 
Q 3525 3141 3298 2862 
Q 3072 2584 2669 2484 
Q 3125 2378 3379 2068 
Q 3634 1759 3634 1313 
Q 3634 634 3220 271 
Q 2806 -91 2034 -91 
Q 1263 -91 848 271 
Q 434 634 434 1313 
Q 434 1759 690 2068 
Q 947 2378 1403 2484 
z
M 1172 3481 
Q 1172 3119 1398 2916 
Q 1625 2713 2034 2713 
Q 2441 2713 2670 2916 
Q 2900 3119 2900 3481 
Q 2900 3844 2670 4047 
Q 2441 4250 2034 4250 
Q 1625 4250 1398 4047 
Q 1172 3844 1172 3481 
z
" transform="scale(0.015625)"/>
      </defs>
      <use xlink:href="#DejaVuSans-2d"/>
      <use xlink:href="#DejaVuSans-38" x="36.083984"/>
      <use xlink:href="#DejaVuSans-3a" x="99.707031"/>
      <use xlink:href="#DejaVuSans-20" x="133.398438"/>
      <use xlink:href="#DejaVuSans-30" x="165.185547"/>
      <use xlink:href="#DejaVuSans-2f" x="228.808594"/>
      <use xlink:href="#DejaVuSans-30" x="262.5"/>
     </g>
    </g>
   </g>
  </g>
 </g>
 <defs>
  <clipPath id="p4c17b52097">
   <rect x="34.16" y="3" width="419.032" height="288.28"/>
  </clipPath>
 </defs>
</svg>
