<?xml version="1.0" encoding="utf-8" standalone="no"?>
<!DOCTYPE svg PUBLIC "-//W3C//DTD SVG 1.1//EN"
  "http://www.w3.org/Graphics/SVG/1.1/DTD/svg11.dtd">
<svg xmlns:xlink="http://www.w3.org/1999/xlink" width="460.8pt" height="345.6pt" viewBox="0 0 460.8 345.6" xmlns="http://www.w3.org/2000/svg" version="1.1">
 <metadata>
  <rdf:RDF xmlns:dc="http://purl.org/dc/elements/1.1/" xmlns:cc="http://creativecommons.org/ns#" xmlns:rdf="http://www.w3.org/1999/02/22-rdf-syntax-ns#">
   <cc:Work>
    <dc:type rdf:resource="http://purl.org/dc/dcmitype/StillImage"/>
    <dc:date>2024-01-05T10:26:02.183454</dc:date>
    <dc:format>image/svg+xml</dc:format>
    <dc:creator>
     <cc:Agent>
      <dc:title>Matplotlib v3.5.1, https://matplotlib.org/</dc:title>
     </cc:Agent>
    </dc:creator>
   </cc:Work>
  </rdf:RDF>
 </metadata>
 <defs>
  <style type="text/css">*{stroke-linejoin: round; stroke-linecap: butt}</style>
 </defs>
 <g id="figure_1">
  <g id="patch_1">
   <path d="M 0 345.6 
L 460.8 345.6 
L 460.8 0 
L 0 0 
z
" style="fill: #ffffff"/>
  </g>
  <g id="axes_1">
   <g id="patch_2">
    <path d="M 62.208 293.76 
L 460.8 293.76 
L 460.8 3.456 
L 62.208 3.456 
z
" style="fill: #ffffff"/>
   </g>
   <g id="line2d_1">
    <path d="M 350.764423 293.76 
L 350.764423 288.969505 
L 355.105863 288.969505 
L 355.105863 284.17901 
L 356.750686 284.17901 
L 356.750686 279.388515 
L 356.750686 279.388515 
L 356.750686 274.59802 
L 357.554985 274.59802 
L 357.554985 269.807525 
L 357.820488 269.807525 
L 357.820488 265.01703 
L 358.084713 265.01703 
L 358.084713 260.226535 
L 359.3871 260.226535 
L 359.3871 255.43604 
L 360.153959 255.43604 
L 360.153959 250.645545 
L 360.407217 250.645545 
L 360.407217 245.85505 
L 360.407217 245.85505 
L 360.407217 241.064554 
L 360.659313 241.064554 
L 360.659313 236.274059 
L 360.659313 236.274059 
L 360.659313 231.483564 
L 361.408729 231.483564 
L 361.408729 226.693069 
L 361.408729 226.693069 
L 361.408729 221.902574 
L 363.118592 221.902574 
L 363.118592 217.112079 
L 363.597503 217.112079 
L 363.597503 212.321584 
L 363.835401 212.321584 
L 363.835401 207.531089 
L 364.072273 207.531089 
L 364.072273 202.740594 
L 364.308128 202.740594 
L 364.308128 197.950099 
L 365.009674 197.950099 
L 365.009674 193.159604 
L 365.009674 193.159604 
L 365.009674 188.369109 
L 365.241545 188.369109 
L 365.241545 183.578614 
L 369.256046 183.578614 
L 369.256046 178.788119 
L 371.365706 178.788119 
L 371.365706 173.997624 
L 371.778084 173.997624 
L 371.778084 169.207129 
L 396.890513 169.207129 
L 396.890513 164.416634 
L 401.416861 164.416634 
L 401.416861 159.626139 
L 406.30709 159.626139 
L 406.30709 154.835644 
L 417.136388 154.835644 
L 417.136388 150.045149 
L 417.136388 150.045149 
L 417.136388 150.045149 
L 460.8 150.045149 
" clip-path="url(#p9645a6c37f)" style="fill: none; stroke: #f5deb3; stroke-width: 1.5; stroke-linecap: square"/>
   </g>
   <g id="line2d_2"/>
   <g id="line2d_3">
    <path d="M 351.646492 293.76 
L 351.646492 288.969505 
L 360.874477 288.969505 
L 360.874477 284.17901 
L 365.351617 284.17901 
L 365.351617 279.388515 
L 372.506858 279.388515 
L 372.506858 274.59802 
L 373.368809 274.59802 
L 373.368809 269.807525 
L 373.813618 269.807525 
L 373.813618 265.01703 
L 373.851309 265.01703 
L 373.851309 260.226535 
L 374.001812 260.226535 
L 374.001812 255.43604 
L 375.246339 255.43604 
L 375.246339 250.645545 
L 376.138985 250.645545 
L 376.138985 245.85505 
L 376.391384 245.85505 
L 376.391384 241.064554 
L 376.848151 241.064554 
L 376.848151 236.274059 
L 377.132822 236.274059 
L 377.132822 231.483564 
L 377.20376 231.483564 
L 377.20376 226.693069 
L 377.24805 226.693069 
L 377.24805 221.902574 
L 377.292303 221.902574 
L 377.292303 217.112079 
L 377.433677 217.112079 
L 377.433677 212.321584 
L 379.833665 212.321584 
L 379.833665 207.531089 
L 380.680265 207.531089 
L 380.680265 202.740594 
L 381.489428 202.740594 
L 381.489428 197.950099 
L 382.173631 197.950099 
L 382.173631 193.159604 
L 383.540674 193.159604 
L 383.540674 188.369109 
L 384.16092 188.369109 
L 384.16092 183.578614 
L 394.115778 183.578614 
L 394.115778 178.788119 
L 395.135256 178.788119 
L 395.135256 173.997624 
L 395.751889 173.997624 
L 395.751889 169.207129 
L 396.704445 169.207129 
L 396.704445 164.416634 
L 396.797558 164.416634 
L 396.797558 159.626139 
L 396.834759 159.626139 
L 396.834759 154.835644 
L 398.717316 154.835644 
L 398.717316 150.045149 
L 398.902668 150.045149 
L 398.902668 145.254653 
L 400.322676 145.254653 
L 400.322676 140.464158 
L 401.176858 140.464158 
L 401.176858 135.673663 
L 401.331266 135.673663 
L 401.331266 130.883168 
L 402.355307 130.883168 
L 402.355307 126.092673 
L 403.106851 126.092673 
L 403.106851 121.302178 
L 404.789296 121.302178 
L 404.789296 116.511683 
L 408.092925 116.511683 
L 408.092925 111.721188 
L 410.763568 111.721188 
L 410.763568 106.930693 
L 420.528264 106.930693 
L 420.528264 102.140198 
L 424.451025 102.140198 
L 424.451025 97.349703 
L 424.716522 97.349703 
L 424.716522 92.559208 
L 426.19965 92.559208 
L 426.19965 87.768713 
L 426.640851 87.768713 
L 426.640851 82.978218 
L 427.292517 82.978218 
L 427.292517 78.187723 
L 427.292517 78.187723 
L 427.292517 78.187723 
L 460.8 78.187723 
" clip-path="url(#p9645a6c37f)" style="fill: none; stroke: #f5deb3; stroke-width: 1.5; stroke-linecap: square"/>
   </g>
   <g id="line2d_4">
    <path d="M 421.703275 293.76 
L 421.703275 288.969505 
L 428.16473 288.969505 
L 428.16473 284.17901 
L 432.062418 284.17901 
L 432.062418 279.388515 
L 432.743469 279.388515 
L 432.743469 274.59802 
L 437.23164 274.59802 
L 437.23164 269.807525 
L 437.258365 269.807525 
L 437.258365 265.01703 
L 439.554928 265.01703 
L 439.554928 260.226535 
L 440.542477 260.226535 
L 440.542477 255.43604 
L 440.564843 255.43604 
L 440.564843 250.645545 
L 441.157019 250.645545 
L 441.157019 245.85505 
L 441.93133 245.85505 
L 441.93133 241.064554 
L 442.468543 241.064554 
L 442.468543 236.274059 
L 444.075581 236.274059 
L 444.075581 231.483564 
L 444.644245 231.483564 
L 444.644245 226.693069 
L 444.892811 226.693069 
L 444.892811 221.902574 
L 448.028205 221.902574 
L 448.028205 217.112079 
L 449.804759 217.112079 
L 449.804759 212.321584 
L 450.553219 212.321584 
L 450.553219 207.531089 
L 451.047354 207.531089 
L 451.047354 202.740594 
L 455.281688 202.740594 
L 455.281688 197.950099 
L 461.8 197.950099 
" clip-path="url(#p9645a6c37f)" style="fill: none; stroke: #f5deb3; stroke-width: 1.5; stroke-linecap: square"/>
   </g>
   <g id="line2d_5"/>
   <g id="line2d_6"/>
   <g id="line2d_7">
    <path d="M 400.647445 293.76 
L 400.647445 288.969505 
L 401.256976 288.969505 
L 401.256976 284.17901 
L 403.815509 284.17901 
L 403.815509 279.388515 
L 404.601296 279.388515 
L 404.601296 274.59802 
L 405.040745 274.59802 
L 405.040745 269.807525 
L 405.418423 269.807525 
L 405.418423 265.01703 
L 406.380066 265.01703 
L 406.380066 260.226535 
L 406.841733 260.226535 
L 406.841733 255.43604 
L 407.248301 255.43604 
L 407.248301 250.645545 
L 408.680523 250.645545 
L 408.680523 245.85505 
L 408.760391 245.85505 
L 408.760391 241.064554 
L 409.944689 241.064554 
L 409.944689 236.274059 
L 411.910591 236.274059 
L 411.910591 231.483564 
L 412.126828 231.483564 
L 412.126828 226.693069 
L 414.702144 226.693069 
L 414.702144 221.902574 
L 443.09673 221.902574 
L 443.09673 217.112079 
L 445.695511 217.112079 
L 445.695511 212.321584 
L 446.398745 212.321584 
L 446.398745 207.531089 
L 447.795914 207.531089 
L 447.795914 202.740594 
L 447.959842 202.740594 
L 447.959842 197.950099 
L 448.851602 197.950099 
L 448.851602 193.159604 
L 449.134508 193.159604 
L 449.134508 188.369109 
L 451.438568 188.369109 
L 451.438568 183.578614 
L 451.965731 183.578614 
L 451.965731 178.788119 
L 453.218644 178.788119 
L 453.218644 173.997624 
L 453.336176 173.997624 
L 453.336176 169.207129 
L 453.473346 169.207129 
L 453.473346 164.416634 
L 453.55063 164.416634 
L 453.55063 159.626139 
L 455.622722 159.626139 
L 455.622722 154.835644 
L 456.668748 154.835644 
L 456.668748 150.045149 
L 456.995085 150.045149 
L 456.995085 145.254653 
L 458.698842 145.254653 
L 458.698842 140.464158 
L 458.931404 140.464158 
L 458.931404 135.673663 
L 459.658789 135.673663 
L 459.658789 130.883168 
L 459.846026 130.883168 
L 459.846026 126.092673 
L 460.47401 126.092673 
L 460.47401 121.302178 
L 461.321378 121.302178 
L 461.321378 116.511683 
L 461.8 116.511683 
" clip-path="url(#p9645a6c37f)" style="fill: none; stroke: #f5deb3; stroke-width: 1.5; stroke-linecap: square"/>
   </g>
   <g id="line2d_8">
    <path clip-path="url(#p9645a6c37f)" style="fill: none; stroke: #f5deb3; stroke-width: 1.5; stroke-linecap: square"/>
   </g>
   <g id="line2d_9">
    <path d="M 399.283361 293.76 
L 399.283361 288.969505 
L 402.51203 288.969505 
L 402.51203 284.17901 
L 402.707308 284.17901 
L 402.707308 279.388515 
L 405.285734 279.388515 
L 405.285734 274.59802 
L 405.667014 274.59802 
L 405.667014 269.807525 
L 405.777724 269.807525 
L 405.777724 265.01703 
L 406.166075 265.01703 
L 406.166075 260.226535 
L 406.717621 260.226535 
L 406.717621 255.43604 
L 407.702757 255.43604 
L 407.702757 250.645545 
L 407.905788 250.645545 
L 407.905788 245.85505 
L 408.374953 245.85505 
L 408.374953 241.064554 
L 410.614271 241.064554 
L 410.614271 236.274059 
L 411.17086 236.274059 
L 411.17086 231.483564 
L 412.556765 231.483564 
L 412.556765 226.693069 
L 415.665079 226.693069 
L 415.665079 221.902574 
L 416.930442 221.902574 
L 416.930442 217.112079 
L 438.106759 217.112079 
L 438.106759 212.321584 
L 438.415744 212.321584 
L 438.415744 207.531089 
L 439.149145 207.531089 
L 439.149145 202.740594 
L 439.154881 202.740594 
L 439.154881 197.950099 
L 440.000112 197.950099 
L 440.000112 193.159604 
L 440.12705 193.159604 
L 440.12705 188.369109 
L 441.630591 188.369109 
L 441.630591 183.578614 
L 442.178884 183.578614 
L 442.178884 178.788119 
L 442.290055 178.788119 
L 442.290055 173.997624 
L 442.398299 173.997624 
L 442.398299 169.207129 
L 442.460443 169.207129 
L 442.460443 164.416634 
L 442.665288 164.416634 
L 442.665288 159.626139 
L 443.01392 159.626139 
L 443.01392 154.835644 
L 443.783753 154.835644 
L 443.783753 150.045149 
L 443.957459 150.045149 
L 443.957459 145.254653 
L 444.750541 145.254653 
L 444.750541 140.464158 
L 445.396831 140.464158 
L 445.396831 135.673663 
L 446.053312 135.673663 
L 446.053312 130.883168 
L 446.098822 130.883168 
L 446.098822 126.092673 
L 446.652022 126.092673 
L 446.652022 121.302178 
L 447.395048 121.302178 
L 447.395048 116.511683 
L 449.014811 116.511683 
L 449.014811 111.721188 
L 449.743304 111.721188 
L 449.743304 106.930693 
L 451.063517 106.930693 
L 451.063517 102.140198 
L 451.815629 102.140198 
L 451.815629 97.349703 
L 454.456632 97.349703 
L 454.456632 92.559208 
L 455.563194 92.559208 
L 455.563194 87.768713 
L 455.614222 87.768713 
L 455.614222 82.978218 
L 461.8 82.978218 
" clip-path="url(#p9645a6c37f)" style="fill: none; stroke: #f5deb3; stroke-width: 1.5; stroke-linecap: square"/>
   </g>
   <g id="line2d_10">
    <path clip-path="url(#p9645a6c37f)" style="fill: none; stroke: #f5deb3; stroke-width: 1.5; stroke-linecap: square"/>
   </g>
   <g id="line2d_11">
    <path d="M 414.297763 293.76 
L 414.297763 288.969505 
L 418.677674 288.969505 
L 418.677674 284.17901 
L 424.872974 284.17901 
L 424.872974 279.388515 
L 434.143619 279.388515 
L 434.143619 274.59802 
L 435.478299 274.59802 
L 435.478299 269.807525 
L 436.173046 269.807525 
L 436.173046 265.01703 
L 440.860339 265.01703 
L 440.860339 260.226535 
L 440.932577 260.226535 
L 440.932577 255.43604 
L 441.707299 255.43604 
L 441.707299 250.645545 
L 456.993012 250.645545 
L 456.993012 245.85505 
L 457.770878 245.85505 
L 457.770878 241.064554 
L 461.8 241.064554 
" clip-path="url(#p9645a6c37f)" style="fill: none; stroke: #f5deb3; stroke-width: 1.5; stroke-linecap: square"/>
   </g>
   <g id="line2d_12">
    <path d="M 355.026295 293.76 
L 355.026295 288.969505 
L 361.83242 288.969505 
L 361.83242 284.17901 
L 362.078071 284.17901 
L 362.078071 279.388515 
L 364.240844 279.388515 
L 364.240844 274.59802 
L 364.710108 274.59802 
L 364.710108 269.807525 
L 365.636775 269.807525 
L 365.636775 265.01703 
L 366.321655 265.01703 
L 366.321655 260.226535 
L 366.321655 260.226535 
L 366.321655 255.43604 
L 366.773542 255.43604 
L 366.773542 250.645545 
L 366.773542 250.645545 
L 366.773542 245.85505 
L 366.998099 245.85505 
L 366.998099 241.064554 
L 367.221741 241.064554 
L 367.221741 236.274059 
L 367.444476 236.274059 
L 367.444476 231.483564 
L 367.666311 231.483564 
L 367.666311 226.693069 
L 367.666311 226.693069 
L 367.666311 221.902574 
L 368.326491 221.902574 
L 368.326491 217.112079 
L 368.326491 217.112079 
L 368.326491 212.321584 
L 368.326491 212.321584 
L 368.326491 207.531089 
L 368.978828 207.531089 
L 368.978828 202.740594 
L 368.978828 202.740594 
L 368.978828 197.950099 
L 368.978828 197.950099 
L 368.978828 193.159604 
L 369.623506 193.159604 
L 369.623506 188.369109 
L 369.836728 188.369109 
L 369.836728 183.578614 
L 373.539587 183.578614 
L 373.539587 178.788119 
L 379.918072 178.788119 
L 379.918072 173.997624 
L 403.349593 173.997624 
L 403.349593 169.207129 
L 407.253429 169.207129 
L 407.253429 164.416634 
L 407.789136 164.416634 
L 407.789136 159.626139 
L 408.425163 159.626139 
L 408.425163 154.835644 
L 421.990201 154.835644 
L 421.990201 150.045149 
L 421.990201 150.045149 
L 421.990201 150.045149 
L 460.8 150.045149 
" clip-path="url(#p9645a6c37f)" style="fill: none; stroke: #f5deb3; stroke-width: 1.5; stroke-linecap: square"/>
   </g>
   <g id="line2d_13"/>
   <g id="line2d_14"/>
   <g id="line2d_15"/>
   <g id="line2d_16">
    <path clip-path="url(#p9645a6c37f)" style="fill: none; stroke: #f5deb3; stroke-width: 1.5; stroke-linecap: square"/>
   </g>
   <g id="line2d_17">
    <path clip-path="url(#p9645a6c37f)" style="fill: none; stroke: #f5deb3; stroke-width: 1.5; stroke-linecap: square"/>
   </g>
   <g id="line2d_18">
    <path d="M 321.421082 293.76 
L 321.421082 288.969505 
L 333.889881 288.969505 
L 333.889881 284.17901 
L 334.103974 284.17901 
L 334.103974 279.388515 
L 334.932964 279.388515 
L 334.932964 274.59802 
L 335.238259 274.59802 
L 335.238259 269.807525 
L 338.899984 269.807525 
L 338.899984 265.01703 
L 339.024447 265.01703 
L 339.024447 260.226535 
L 339.148628 260.226535 
L 339.148628 255.43604 
L 339.219463 255.43604 
L 339.219463 250.645545 
L 339.80039 250.645545 
L 339.80039 245.85505 
L 340.236432 245.85505 
L 340.236432 241.064554 
L 340.409883 241.064554 
L 340.409883 236.274059 
L 340.461812 236.274059 
L 340.461812 231.483564 
L 340.720722 231.483564 
L 340.720722 226.693069 
L 341.149545 226.693069 
L 341.149545 221.902574 
L 341.354196 221.902574 
L 341.354196 217.112079 
L 342.865244 217.112079 
L 342.865244 212.321584 
L 343.326992 212.321584 
L 343.326992 207.531089 
L 343.359826 207.531089 
L 343.359826 202.740594 
L 343.441825 202.740594 
L 343.441825 197.950099 
L 344.625273 197.950099 
L 344.625273 193.159604 
L 347.621365 193.159604 
L 347.621365 188.369109 
L 347.999724 188.369109 
L 347.999724 183.578614 
L 354.786899 183.578614 
L 354.786899 178.788119 
L 374.151903 178.788119 
L 374.151903 173.997624 
L 380.271168 173.997624 
L 380.271168 169.207129 
L 382.64113 169.207129 
L 382.64113 164.416634 
L 384.004557 164.416634 
L 384.004557 159.626139 
L 386.274464 159.626139 
L 386.274464 154.835644 
L 386.775494 154.835644 
L 386.775494 150.045149 
L 387.742107 150.045149 
L 387.742107 145.254653 
L 388.324144 145.254653 
L 388.324144 140.464158 
L 389.668128 140.464158 
L 389.668128 135.673663 
L 392.119624 135.673663 
L 392.119624 130.883168 
L 398.169579 130.883168 
L 398.169579 126.092673 
L 400.635879 126.092673 
L 400.635879 121.302178 
L 404.288329 121.302178 
L 404.288329 116.511683 
L 404.891084 116.511683 
L 404.891084 111.721188 
L 409.449406 111.721188 
L 409.449406 106.930693 
L 409.900736 106.930693 
L 409.900736 102.140198 
L 412.34689 102.140198 
L 412.34689 97.349703 
L 421.081061 97.349703 
L 421.081061 92.559208 
L 437.020355 92.559208 
L 437.020355 87.768713 
L 439.770882 87.768713 
L 439.770882 82.978218 
L 449.187092 82.978218 
L 449.187092 78.187723 
L 449.187092 78.187723 
L 449.187092 78.187723 
L 460.8 78.187723 
" clip-path="url(#p9645a6c37f)" style="fill: none; stroke: #f5deb3; stroke-width: 1.5; stroke-linecap: square"/>
   </g>
   <g id="line2d_19"/>
   <g id="line2d_20">
    <path d="M 432.691876 293.76 
L 432.691876 288.969505 
L 438.074594 288.969505 
L 438.074594 284.17901 
L 443.941691 284.17901 
L 443.941691 279.388515 
L 449.598851 279.388515 
L 449.598851 274.59802 
L 452.278262 274.59802 
L 452.278262 269.807525 
L 454.32625 269.807525 
L 454.32625 265.01703 
L 456.937026 265.01703 
L 456.937026 260.226535 
L 458.102936 260.226535 
L 458.102936 255.43604 
L 459.954136 255.43604 
L 459.954136 250.645545 
L 460.464283 250.645545 
L 460.464283 245.85505 
L 460.763082 245.85505 
L 460.763082 241.064554 
L 461.8 241.064554 
" clip-path="url(#p9645a6c37f)" style="fill: none; stroke: #f5deb3; stroke-width: 1.5; stroke-linecap: square"/>
   </g>
   <g id="line2d_21"/>
   <g id="line2d_22">
    <path d="M 438.803877 293.76 
L 438.803877 288.969505 
L 439.134802 288.969505 
L 439.134802 284.17901 
L 440.935354 284.17901 
L 440.935354 279.388515 
L 442.15445 279.388515 
L 442.15445 274.59802 
L 442.692185 274.59802 
L 442.692185 269.807525 
L 442.810374 269.807525 
L 442.810374 265.01703 
L 443.421418 265.01703 
L 443.421418 260.226535 
L 443.952204 260.226535 
L 443.952204 255.43604 
L 444.706492 255.43604 
L 444.706492 250.645545 
L 445.253297 250.645545 
L 445.253297 245.85505 
L 446.461546 245.85505 
L 446.461546 241.064554 
L 447.692903 241.064554 
L 447.692903 236.274059 
L 447.822861 236.274059 
L 447.822861 231.483564 
L 449.51817 231.483564 
L 449.51817 226.693069 
L 449.920391 226.693069 
L 449.920391 221.902574 
L 450.692862 221.902574 
L 450.692862 217.112079 
L 450.732363 217.112079 
L 450.732363 212.321584 
L 451.077369 212.321584 
L 451.077369 207.531089 
L 452.210472 207.531089 
L 452.210472 202.740594 
L 453.387102 202.740594 
L 453.387102 197.950099 
L 453.926662 197.950099 
L 453.926662 193.159604 
L 454.508699 193.159604 
L 454.508699 188.369109 
L 455.441812 188.369109 
L 455.441812 183.578614 
L 457.656331 183.578614 
L 457.656331 178.788119 
L 459.188878 178.788119 
L 459.188878 173.997624 
L 460.444825 173.997624 
L 460.444825 169.207129 
L 460.450663 169.207129 
L 460.450663 164.416634 
L 461.8 164.416634 
" clip-path="url(#p9645a6c37f)" style="fill: none; stroke: #f5deb3; stroke-width: 1.5; stroke-linecap: square"/>
   </g>
   <g id="line2d_23">
    <path clip-path="url(#p9645a6c37f)" style="fill: none; stroke: #f5deb3; stroke-width: 1.5; stroke-linecap: square"/>
   </g>
   <g id="line2d_24">
    <path d="M 413.621671 293.76 
L 413.621671 288.969505 
L 425.908402 288.969505 
L 425.908402 284.17901 
L 428.073568 284.17901 
L 428.073568 279.388515 
L 430.681133 279.388515 
L 430.681133 274.59802 
L 430.731306 274.59802 
L 430.731306 269.807525 
L 431.764652 269.807525 
L 431.764652 265.01703 
L 432.804673 265.01703 
L 432.804673 260.226535 
L 437.610507 260.226535 
L 437.610507 255.43604 
L 438.783669 255.43604 
L 438.783669 250.645545 
L 439.200748 250.645545 
L 439.200748 245.85505 
L 440.623511 245.85505 
L 440.623511 241.064554 
L 441.220583 241.064554 
L 441.220583 236.274059 
L 441.242674 236.274059 
L 441.242674 231.483564 
L 443.783753 231.483564 
L 443.783753 226.693069 
L 444.017864 226.693069 
L 444.017864 221.902574 
L 461.8 221.902574 
" clip-path="url(#p9645a6c37f)" style="fill: none; stroke: #f5deb3; stroke-width: 1.5; stroke-linecap: square"/>
   </g>
   <g id="line2d_25">
    <path clip-path="url(#p9645a6c37f)" style="fill: none; stroke: #f5deb3; stroke-width: 1.5; stroke-linecap: square"/>
   </g>
   <g id="line2d_26">
    <path d="M 459.328089 293.76 
L 459.328089 288.969505 
L 461.8 288.969505 
" clip-path="url(#p9645a6c37f)" style="fill: none; stroke: #f5deb3; stroke-width: 1.5; stroke-linecap: square"/>
   </g>
   <g id="line2d_27">
    <path d="M 405.888211 293.76 
L 405.888211 288.969505 
L 409.014201 288.969505 
L 409.014201 284.17901 
L 412.117444 284.17901 
L 412.117444 279.388515 
L 412.360907 279.388515 
L 412.360907 274.59802 
L 414.621506 274.59802 
L 414.621506 269.807525 
L 415.218993 269.807525 
L 415.218993 265.01703 
L 417.652143 265.01703 
L 417.652143 260.226535 
L 418.247099 260.226535 
L 418.247099 255.43604 
L 418.335161 255.43604 
L 418.335161 250.645545 
L 418.402161 250.645545 
L 418.402161 245.85505 
L 419.241077 245.85505 
L 419.241077 241.064554 
L 421.509836 241.064554 
L 421.509836 236.274059 
L 421.915665 236.274059 
L 421.915665 231.483564 
L 422.61776 231.483564 
L 422.61776 226.693069 
L 422.625511 226.693069 
L 422.625511 221.902574 
L 423.000119 221.902574 
L 423.000119 217.112079 
L 423.150018 217.112079 
L 423.150018 212.321584 
L 423.745554 212.321584 
L 423.745554 207.531089 
L 423.91615 207.531089 
L 423.91615 202.740594 
L 424.233184 202.740594 
L 424.233184 197.950099 
L 424.285845 197.950099 
L 424.285845 193.159604 
L 424.39477 193.159604 
L 424.39477 188.369109 
L 424.958462 188.369109 
L 424.958462 183.578614 
L 425.114228 183.578614 
L 425.114228 178.788119 
L 425.707269 178.788119 
L 425.707269 173.997624 
L 427.431159 173.997624 
L 427.431159 169.207129 
L 428.017393 169.207129 
L 428.017393 164.416634 
L 428.154219 164.416634 
L 428.154219 159.626139 
L 428.437313 159.626139 
L 428.437313 154.835644 
L 429.016408 154.835644 
L 429.016408 150.045149 
L 431.240473 150.045149 
L 431.240473 145.254653 
L 432.361823 145.254653 
L 432.361823 140.464158 
L 432.530333 140.464158 
L 432.530333 135.673663 
L 433.619565 135.673663 
L 433.619565 130.883168 
L 433.983146 130.883168 
L 433.983146 126.092673 
L 438.057042 126.092673 
L 438.057042 121.302178 
L 438.153509 121.302178 
L 438.153509 116.511683 
L 438.852922 116.511683 
L 438.852922 111.721188 
L 461.8 111.721188 
" clip-path="url(#p9645a6c37f)" style="fill: none; stroke: #f5deb3; stroke-width: 1.5; stroke-linecap: square"/>
   </g>
   <g id="line2d_28">
    <path d="M 381.160596 293.76 
L 381.160596 288.969505 
L 384.074975 288.969505 
L 384.074975 284.17901 
L 385.426577 284.17901 
L 385.426577 279.388515 
L 386.116479 279.388515 
L 386.116479 274.59802 
L 389.064547 274.59802 
L 389.064547 269.807525 
L 389.349412 269.807525 
L 389.349412 265.01703 
L 389.879583 265.01703 
L 389.879583 260.226535 
L 390.383777 260.226535 
L 390.383777 255.43604 
L 460.915733 255.43604 
L 460.915733 250.645545 
L 460.998643 250.645545 
L 460.998643 245.85505 
L 461.260051 245.85505 
L 461.260051 241.064554 
L 461.428536 241.064554 
L 461.428536 236.274059 
L 461.8 236.274059 
" clip-path="url(#p9645a6c37f)" style="fill: none; stroke: #f5deb3; stroke-width: 1.5; stroke-linecap: square"/>
   </g>
   <g id="line2d_29">
    <path d="M 330.179105 293.76 
L 330.179105 288.969505 
L 330.179105 288.969505 
L 330.179105 284.17901 
L 330.179105 284.17901 
L 330.179105 279.388515 
L 346.06569 279.388515 
L 346.06569 274.59802 
L 346.06569 274.59802 
L 346.06569 269.807525 
L 346.06569 269.807525 
L 346.06569 265.01703 
L 371.836743 265.01703 
L 371.836743 260.226535 
L 371.836743 260.226535 
L 371.836743 255.43604 
L 371.836743 255.43604 
L 371.836743 250.645545 
L 372.766867 250.645545 
L 372.766867 245.85505 
L 372.766867 245.85505 
L 372.766867 241.064554 
L 372.766867 241.064554 
L 372.766867 236.274059 
L 389.406208 236.274059 
L 389.406208 231.483564 
L 389.406208 231.483564 
L 389.406208 226.693069 
L 389.406208 226.693069 
L 389.406208 221.902574 
L 391.583469 221.902574 
L 391.583469 217.112079 
L 391.583469 217.112079 
L 391.583469 212.321584 
L 391.583469 212.321584 
L 391.583469 207.531089 
L 392.045282 207.531089 
L 392.045282 202.740594 
L 392.045282 202.740594 
L 392.045282 197.950099 
L 392.045282 197.950099 
L 392.045282 193.159604 
L 393.585703 193.159604 
L 393.585703 188.369109 
L 393.585703 188.369109 
L 393.585703 183.578614 
L 393.585703 183.578614 
L 393.585703 178.788119 
L 393.664556 178.788119 
L 393.664556 173.997624 
L 393.664556 173.997624 
L 393.664556 169.207129 
L 393.664556 169.207129 
L 393.664556 164.416634 
L 422.017635 164.416634 
L 422.017635 159.626139 
L 422.017635 159.626139 
L 422.017635 154.835644 
L 422.017635 154.835644 
L 422.017635 150.045149 
L 422.017635 150.045149 
L 422.017635 150.045149 
L 460.8 150.045149 
" clip-path="url(#p9645a6c37f)" style="fill: none; stroke: #f5deb3; stroke-width: 1.5; stroke-linecap: square"/>
   </g>
   <g id="line2d_30"/>
   <g id="matplotlib.axis_1">
    <g id="xtick_1">
     <g id="line2d_31">
      <path d="M 188.653846 293.76 
L 188.653846 3.456 
" clip-path="url(#p9645a6c37f)" style="fill: none; stroke: #b0b0b0; stroke-width: 0.8; stroke-linecap: square"/>
     </g>
     <g id="line2d_32">
      <defs>
       <path id="m601d290208" d="M 0 0 
L 0 3.5 
" style="stroke: #000000; stroke-width: 0.8"/>
      </defs>
      <g>
       <use xlink:href="#m601d290208" x="188.653846" y="293.76" style="stroke: #000000; stroke-width: 0.8"/>
      </g>
     </g>
     <g id="text_1">
      <!-- 1 -->
      <g transform="translate(182.291346 315.956875)scale(0.2 -0.2)">
       <defs>
        <path id="DejaVuSans-31" d="M 794 531 
L 1825 531 
L 1825 4091 
L 703 3866 
L 703 4441 
L 1819 4666 
L 2450 4666 
L 2450 531 
L 3481 531 
L 3481 0 
L 794 0 
L 794 531 
z
" transform="scale(0.015625)"/>
       </defs>
       <use xlink:href="#DejaVuSans-31"/>
      </g>
     </g>
    </g>
    <g id="xtick_2">
     <g id="line2d_33">
      <path d="M 441.545539 293.76 
L 441.545539 3.456 
" clip-path="url(#p9645a6c37f)" style="fill: none; stroke: #b0b0b0; stroke-width: 0.8; stroke-linecap: square"/>
     </g>
     <g id="line2d_34">
      <g>
       <use xlink:href="#m601d290208" x="441.545539" y="293.76" style="stroke: #000000; stroke-width: 0.8"/>
      </g>
     </g>
     <g id="text_2">
      <!-- 3 -->
      <g transform="translate(435.183039 315.956875)scale(0.2 -0.2)">
       <defs>
        <path id="DejaVuSans-33" d="M 2597 2516 
Q 3050 2419 3304 2112 
Q 3559 1806 3559 1356 
Q 3559 666 3084 287 
Q 2609 -91 1734 -91 
Q 1441 -91 1130 -33 
Q 819 25 488 141 
L 488 750 
Q 750 597 1062 519 
Q 1375 441 1716 441 
Q 2309 441 2620 675 
Q 2931 909 2931 1356 
Q 2931 1769 2642 2001 
Q 2353 2234 1838 2234 
L 1294 2234 
L 1294 2753 
L 1863 2753 
Q 2328 2753 2575 2939 
Q 2822 3125 2822 3475 
Q 2822 3834 2567 4026 
Q 2313 4219 1838 4219 
Q 1578 4219 1281 4162 
Q 984 4106 628 3988 
L 628 4550 
Q 988 4650 1302 4700 
Q 1616 4750 1894 4750 
Q 2613 4750 3031 4423 
Q 3450 4097 3450 3541 
Q 3450 3153 3228 2886 
Q 3006 2619 2597 2516 
z
" transform="scale(0.015625)"/>
       </defs>
       <use xlink:href="#DejaVuSans-33"/>
      </g>
     </g>
    </g>
    <g id="xtick_3">
     <g id="line2d_35">
      <path d="M 100.271993 293.76 
L 100.271993 3.456 
" clip-path="url(#p9645a6c37f)" style="fill: none; stroke: #b0b0b0; stroke-width: 0.8; stroke-linecap: square"/>
     </g>
     <g id="line2d_36">
      <defs>
       <path id="ma616baca9a" d="M 0 0 
L 0 2 
" style="stroke: #000000; stroke-width: 0.6"/>
      </defs>
      <g>
       <use xlink:href="#ma616baca9a" x="100.271993" y="293.76" style="stroke: #000000; stroke-width: 0.6"/>
      </g>
     </g>
    </g>
    <g id="xtick_4">
     <g id="line2d_37">
      <path d="M 122.538001 293.76 
L 122.538001 3.456 
" clip-path="url(#p9645a6c37f)" style="fill: none; stroke: #b0b0b0; stroke-width: 0.8; stroke-linecap: square"/>
     </g>
     <g id="line2d_38">
      <g>
       <use xlink:href="#ma616baca9a" x="122.538001" y="293.76" style="stroke: #000000; stroke-width: 0.6"/>
      </g>
     </g>
    </g>
    <g id="xtick_5">
     <g id="line2d_39">
      <path d="M 138.335985 293.76 
L 138.335985 3.456 
" clip-path="url(#p9645a6c37f)" style="fill: none; stroke: #b0b0b0; stroke-width: 0.8; stroke-linecap: square"/>
     </g>
     <g id="line2d_40">
      <g>
       <use xlink:href="#ma616baca9a" x="138.335985" y="293.76" style="stroke: #000000; stroke-width: 0.6"/>
      </g>
     </g>
    </g>
    <g id="xtick_6">
     <g id="line2d_41">
      <path d="M 150.589854 293.76 
L 150.589854 3.456 
" clip-path="url(#p9645a6c37f)" style="fill: none; stroke: #b0b0b0; stroke-width: 0.8; stroke-linecap: square"/>
     </g>
     <g id="line2d_42">
      <g>
       <use xlink:href="#ma616baca9a" x="150.589854" y="293.76" style="stroke: #000000; stroke-width: 0.6"/>
      </g>
     </g>
    </g>
    <g id="xtick_7">
     <g id="line2d_43">
      <path d="M 160.601993 293.76 
L 160.601993 3.456 
" clip-path="url(#p9645a6c37f)" style="fill: none; stroke: #b0b0b0; stroke-width: 0.8; stroke-linecap: square"/>
     </g>
     <g id="line2d_44">
      <g>
       <use xlink:href="#ma616baca9a" x="160.601993" y="293.76" style="stroke: #000000; stroke-width: 0.6"/>
      </g>
     </g>
    </g>
    <g id="xtick_8">
     <g id="line2d_45">
      <path d="M 169.067137 293.76 
L 169.067137 3.456 
" clip-path="url(#p9645a6c37f)" style="fill: none; stroke: #b0b0b0; stroke-width: 0.8; stroke-linecap: square"/>
     </g>
     <g id="line2d_46">
      <g>
       <use xlink:href="#ma616baca9a" x="169.067137" y="293.76" style="stroke: #000000; stroke-width: 0.6"/>
      </g>
     </g>
    </g>
    <g id="xtick_9">
     <g id="line2d_47">
      <path d="M 176.399978 293.76 
L 176.399978 3.456 
" clip-path="url(#p9645a6c37f)" style="fill: none; stroke: #b0b0b0; stroke-width: 0.8; stroke-linecap: square"/>
     </g>
     <g id="line2d_48">
      <g>
       <use xlink:href="#ma616baca9a" x="176.399978" y="293.76" style="stroke: #000000; stroke-width: 0.6"/>
      </g>
     </g>
    </g>
    <g id="xtick_10">
     <g id="line2d_49">
      <path d="M 182.868002 293.76 
L 182.868002 3.456 
" clip-path="url(#p9645a6c37f)" style="fill: none; stroke: #b0b0b0; stroke-width: 0.8; stroke-linecap: square"/>
     </g>
     <g id="line2d_50">
      <g>
       <use xlink:href="#ma616baca9a" x="182.868002" y="293.76" style="stroke: #000000; stroke-width: 0.6"/>
      </g>
     </g>
    </g>
    <g id="xtick_11">
     <g id="line2d_51">
      <path d="M 226.717839 293.76 
L 226.717839 3.456 
" clip-path="url(#p9645a6c37f)" style="fill: none; stroke: #b0b0b0; stroke-width: 0.8; stroke-linecap: square"/>
     </g>
     <g id="line2d_52">
      <g>
       <use xlink:href="#ma616baca9a" x="226.717839" y="293.76" style="stroke: #000000; stroke-width: 0.6"/>
      </g>
     </g>
    </g>
    <g id="xtick_12">
     <g id="line2d_53">
      <path d="M 248.983847 293.76 
L 248.983847 3.456 
" clip-path="url(#p9645a6c37f)" style="fill: none; stroke: #b0b0b0; stroke-width: 0.8; stroke-linecap: square"/>
     </g>
     <g id="line2d_54">
      <g>
       <use xlink:href="#ma616baca9a" x="248.983847" y="293.76" style="stroke: #000000; stroke-width: 0.6"/>
      </g>
     </g>
    </g>
    <g id="xtick_13">
     <g id="line2d_55">
      <path d="M 264.781832 293.76 
L 264.781832 3.456 
" clip-path="url(#p9645a6c37f)" style="fill: none; stroke: #b0b0b0; stroke-width: 0.8; stroke-linecap: square"/>
     </g>
     <g id="line2d_56">
      <g>
       <use xlink:href="#ma616baca9a" x="264.781832" y="293.76" style="stroke: #000000; stroke-width: 0.6"/>
      </g>
     </g>
    </g>
    <g id="xtick_14">
     <g id="line2d_57">
      <path d="M 277.0357 293.76 
L 277.0357 3.456 
" clip-path="url(#p9645a6c37f)" style="fill: none; stroke: #b0b0b0; stroke-width: 0.8; stroke-linecap: square"/>
     </g>
     <g id="line2d_58">
      <g>
       <use xlink:href="#ma616baca9a" x="277.0357" y="293.76" style="stroke: #000000; stroke-width: 0.6"/>
      </g>
     </g>
    </g>
    <g id="xtick_15">
     <g id="line2d_59">
      <path d="M 287.04784 293.76 
L 287.04784 3.456 
" clip-path="url(#p9645a6c37f)" style="fill: none; stroke: #b0b0b0; stroke-width: 0.8; stroke-linecap: square"/>
     </g>
     <g id="line2d_60">
      <g>
       <use xlink:href="#ma616baca9a" x="287.04784" y="293.76" style="stroke: #000000; stroke-width: 0.6"/>
      </g>
     </g>
    </g>
    <g id="xtick_16">
     <g id="line2d_61">
      <path d="M 295.512983 293.76 
L 295.512983 3.456 
" clip-path="url(#p9645a6c37f)" style="fill: none; stroke: #b0b0b0; stroke-width: 0.8; stroke-linecap: square"/>
     </g>
     <g id="line2d_62">
      <g>
       <use xlink:href="#ma616baca9a" x="295.512983" y="293.76" style="stroke: #000000; stroke-width: 0.6"/>
      </g>
     </g>
    </g>
    <g id="xtick_17">
     <g id="line2d_63">
      <path d="M 302.845824 293.76 
L 302.845824 3.456 
" clip-path="url(#p9645a6c37f)" style="fill: none; stroke: #b0b0b0; stroke-width: 0.8; stroke-linecap: square"/>
     </g>
     <g id="line2d_64">
      <g>
       <use xlink:href="#ma616baca9a" x="302.845824" y="293.76" style="stroke: #000000; stroke-width: 0.6"/>
      </g>
     </g>
    </g>
    <g id="xtick_18">
     <g id="line2d_65">
      <path d="M 309.313848 293.76 
L 309.313848 3.456 
" clip-path="url(#p9645a6c37f)" style="fill: none; stroke: #b0b0b0; stroke-width: 0.8; stroke-linecap: square"/>
     </g>
     <g id="line2d_66">
      <g>
       <use xlink:href="#ma616baca9a" x="309.313848" y="293.76" style="stroke: #000000; stroke-width: 0.6"/>
      </g>
     </g>
    </g>
    <g id="xtick_19">
     <g id="line2d_67">
      <path d="M 353.163685 293.76 
L 353.163685 3.456 
" clip-path="url(#p9645a6c37f)" style="fill: none; stroke: #b0b0b0; stroke-width: 0.8; stroke-linecap: square"/>
     </g>
     <g id="line2d_68">
      <g>
       <use xlink:href="#ma616baca9a" x="353.163685" y="293.76" style="stroke: #000000; stroke-width: 0.6"/>
      </g>
     </g>
    </g>
    <g id="xtick_20">
     <g id="line2d_69">
      <path d="M 375.429694 293.76 
L 375.429694 3.456 
" clip-path="url(#p9645a6c37f)" style="fill: none; stroke: #b0b0b0; stroke-width: 0.8; stroke-linecap: square"/>
     </g>
     <g id="line2d_70">
      <g>
       <use xlink:href="#ma616baca9a" x="375.429694" y="293.76" style="stroke: #000000; stroke-width: 0.6"/>
      </g>
     </g>
    </g>
    <g id="xtick_21">
     <g id="line2d_71">
      <path d="M 391.227678 293.76 
L 391.227678 3.456 
" clip-path="url(#p9645a6c37f)" style="fill: none; stroke: #b0b0b0; stroke-width: 0.8; stroke-linecap: square"/>
     </g>
     <g id="line2d_72">
      <g>
       <use xlink:href="#ma616baca9a" x="391.227678" y="293.76" style="stroke: #000000; stroke-width: 0.6"/>
      </g>
     </g>
    </g>
    <g id="xtick_22">
     <g id="line2d_73">
      <path d="M 403.481546 293.76 
L 403.481546 3.456 
" clip-path="url(#p9645a6c37f)" style="fill: none; stroke: #b0b0b0; stroke-width: 0.8; stroke-linecap: square"/>
     </g>
     <g id="line2d_74">
      <g>
       <use xlink:href="#ma616baca9a" x="403.481546" y="293.76" style="stroke: #000000; stroke-width: 0.6"/>
      </g>
     </g>
    </g>
    <g id="xtick_23">
     <g id="line2d_75">
      <path d="M 413.493686 293.76 
L 413.493686 3.456 
" clip-path="url(#p9645a6c37f)" style="fill: none; stroke: #b0b0b0; stroke-width: 0.8; stroke-linecap: square"/>
     </g>
     <g id="line2d_76">
      <g>
       <use xlink:href="#ma616baca9a" x="413.493686" y="293.76" style="stroke: #000000; stroke-width: 0.6"/>
      </g>
     </g>
    </g>
    <g id="xtick_24">
     <g id="line2d_77">
      <path d="M 421.95883 293.76 
L 421.95883 3.456 
" clip-path="url(#p9645a6c37f)" style="fill: none; stroke: #b0b0b0; stroke-width: 0.8; stroke-linecap: square"/>
     </g>
     <g id="line2d_78">
      <g>
       <use xlink:href="#ma616baca9a" x="421.95883" y="293.76" style="stroke: #000000; stroke-width: 0.6"/>
      </g>
     </g>
    </g>
    <g id="xtick_25">
     <g id="line2d_79">
      <path d="M 429.29167 293.76 
L 429.29167 3.456 
" clip-path="url(#p9645a6c37f)" style="fill: none; stroke: #b0b0b0; stroke-width: 0.8; stroke-linecap: square"/>
     </g>
     <g id="line2d_80">
      <g>
       <use xlink:href="#ma616baca9a" x="429.29167" y="293.76" style="stroke: #000000; stroke-width: 0.6"/>
      </g>
     </g>
    </g>
    <g id="xtick_26">
     <g id="line2d_81">
      <path d="M 435.759694 293.76 
L 435.759694 3.456 
" clip-path="url(#p9645a6c37f)" style="fill: none; stroke: #b0b0b0; stroke-width: 0.8; stroke-linecap: square"/>
     </g>
     <g id="line2d_82">
      <g>
       <use xlink:href="#ma616baca9a" x="435.759694" y="293.76" style="stroke: #000000; stroke-width: 0.6"/>
      </g>
     </g>
    </g>
    <g id="text_3">
     <!-- log10 of FEvals / DIM -->
     <g transform="translate(156.430563 339.313125)scale(0.2 -0.2)">
      <defs>
       <path id="DejaVuSans-6c" d="M 603 4863 
L 1178 4863 
L 1178 0 
L 603 0 
L 603 4863 
z
" transform="scale(0.015625)"/>
       <path id="DejaVuSans-6f" d="M 1959 3097 
Q 1497 3097 1228 2736 
Q 959 2375 959 1747 
Q 959 1119 1226 758 
Q 1494 397 1959 397 
Q 2419 397 2687 759 
Q 2956 1122 2956 1747 
Q 2956 2369 2687 2733 
Q 2419 3097 1959 3097 
z
M 1959 3584 
Q 2709 3584 3137 3096 
Q 3566 2609 3566 1747 
Q 3566 888 3137 398 
Q 2709 -91 1959 -91 
Q 1206 -91 779 398 
Q 353 888 353 1747 
Q 353 2609 779 3096 
Q 1206 3584 1959 3584 
z
" transform="scale(0.015625)"/>
       <path id="DejaVuSans-67" d="M 2906 1791 
Q 2906 2416 2648 2759 
Q 2391 3103 1925 3103 
Q 1463 3103 1205 2759 
Q 947 2416 947 1791 
Q 947 1169 1205 825 
Q 1463 481 1925 481 
Q 2391 481 2648 825 
Q 2906 1169 2906 1791 
z
M 3481 434 
Q 3481 -459 3084 -895 
Q 2688 -1331 1869 -1331 
Q 1566 -1331 1297 -1286 
Q 1028 -1241 775 -1147 
L 775 -588 
Q 1028 -725 1275 -790 
Q 1522 -856 1778 -856 
Q 2344 -856 2625 -561 
Q 2906 -266 2906 331 
L 2906 616 
Q 2728 306 2450 153 
Q 2172 0 1784 0 
Q 1141 0 747 490 
Q 353 981 353 1791 
Q 353 2603 747 3093 
Q 1141 3584 1784 3584 
Q 2172 3584 2450 3431 
Q 2728 3278 2906 2969 
L 2906 3500 
L 3481 3500 
L 3481 434 
z
" transform="scale(0.015625)"/>
       <path id="DejaVuSans-30" d="M 2034 4250 
Q 1547 4250 1301 3770 
Q 1056 3291 1056 2328 
Q 1056 1369 1301 889 
Q 1547 409 2034 409 
Q 2525 409 2770 889 
Q 3016 1369 3016 2328 
Q 3016 3291 2770 3770 
Q 2525 4250 2034 4250 
z
M 2034 4750 
Q 2819 4750 3233 4129 
Q 3647 3509 3647 2328 
Q 3647 1150 3233 529 
Q 2819 -91 2034 -91 
Q 1250 -91 836 529 
Q 422 1150 422 2328 
Q 422 3509 836 4129 
Q 1250 4750 2034 4750 
z
" transform="scale(0.015625)"/>
       <path id="DejaVuSans-20" transform="scale(0.015625)"/>
       <path id="DejaVuSans-66" d="M 2375 4863 
L 2375 4384 
L 1825 4384 
Q 1516 4384 1395 4259 
Q 1275 4134 1275 3809 
L 1275 3500 
L 2222 3500 
L 2222 3053 
L 1275 3053 
L 1275 0 
L 697 0 
L 697 3053 
L 147 3053 
L 147 3500 
L 697 3500 
L 697 3744 
Q 697 4328 969 4595 
Q 1241 4863 1831 4863 
L 2375 4863 
z
" transform="scale(0.015625)"/>
       <path id="DejaVuSans-46" d="M 628 4666 
L 3309 4666 
L 3309 4134 
L 1259 4134 
L 1259 2759 
L 3109 2759 
L 3109 2228 
L 1259 2228 
L 1259 0 
L 628 0 
L 628 4666 
z
" transform="scale(0.015625)"/>
       <path id="DejaVuSans-45" d="M 628 4666 
L 3578 4666 
L 3578 4134 
L 1259 4134 
L 1259 2753 
L 3481 2753 
L 3481 2222 
L 1259 2222 
L 1259 531 
L 3634 531 
L 3634 0 
L 628 0 
L 628 4666 
z
" transform="scale(0.015625)"/>
       <path id="DejaVuSans-76" d="M 191 3500 
L 800 3500 
L 1894 563 
L 2988 3500 
L 3597 3500 
L 2284 0 
L 1503 0 
L 191 3500 
z
" transform="scale(0.015625)"/>
       <path id="DejaVuSans-61" d="M 2194 1759 
Q 1497 1759 1228 1600 
Q 959 1441 959 1056 
Q 959 750 1161 570 
Q 1363 391 1709 391 
Q 2188 391 2477 730 
Q 2766 1069 2766 1631 
L 2766 1759 
L 2194 1759 
z
M 3341 1997 
L 3341 0 
L 2766 0 
L 2766 531 
Q 2569 213 2275 61 
Q 1981 -91 1556 -91 
Q 1019 -91 701 211 
Q 384 513 384 1019 
Q 384 1609 779 1909 
Q 1175 2209 1959 2209 
L 2766 2209 
L 2766 2266 
Q 2766 2663 2505 2880 
Q 2244 3097 1772 3097 
Q 1472 3097 1187 3025 
Q 903 2953 641 2809 
L 641 3341 
Q 956 3463 1253 3523 
Q 1550 3584 1831 3584 
Q 2591 3584 2966 3190 
Q 3341 2797 3341 1997 
z
" transform="scale(0.015625)"/>
       <path id="DejaVuSans-73" d="M 2834 3397 
L 2834 2853 
Q 2591 2978 2328 3040 
Q 2066 3103 1784 3103 
Q 1356 3103 1142 2972 
Q 928 2841 928 2578 
Q 928 2378 1081 2264 
Q 1234 2150 1697 2047 
L 1894 2003 
Q 2506 1872 2764 1633 
Q 3022 1394 3022 966 
Q 3022 478 2636 193 
Q 2250 -91 1575 -91 
Q 1294 -91 989 -36 
Q 684 19 347 128 
L 347 722 
Q 666 556 975 473 
Q 1284 391 1588 391 
Q 1994 391 2212 530 
Q 2431 669 2431 922 
Q 2431 1156 2273 1281 
Q 2116 1406 1581 1522 
L 1381 1569 
Q 847 1681 609 1914 
Q 372 2147 372 2553 
Q 372 3047 722 3315 
Q 1072 3584 1716 3584 
Q 2034 3584 2315 3537 
Q 2597 3491 2834 3397 
z
" transform="scale(0.015625)"/>
       <path id="DejaVuSans-2f" d="M 1625 4666 
L 2156 4666 
L 531 -594 
L 0 -594 
L 1625 4666 
z
" transform="scale(0.015625)"/>
       <path id="DejaVuSans-44" d="M 1259 4147 
L 1259 519 
L 2022 519 
Q 2988 519 3436 956 
Q 3884 1394 3884 2338 
Q 3884 3275 3436 3711 
Q 2988 4147 2022 4147 
L 1259 4147 
z
M 628 4666 
L 1925 4666 
Q 3281 4666 3915 4102 
Q 4550 3538 4550 2338 
Q 4550 1131 3912 565 
Q 3275 0 1925 0 
L 628 0 
L 628 4666 
z
" transform="scale(0.015625)"/>
       <path id="DejaVuSans-49" d="M 628 4666 
L 1259 4666 
L 1259 0 
L 628 0 
L 628 4666 
z
" transform="scale(0.015625)"/>
       <path id="DejaVuSans-4d" d="M 628 4666 
L 1569 4666 
L 2759 1491 
L 3956 4666 
L 4897 4666 
L 4897 0 
L 4281 0 
L 4281 4097 
L 3078 897 
L 2444 897 
L 1241 4097 
L 1241 0 
L 628 0 
L 628 4666 
z
" transform="scale(0.015625)"/>
      </defs>
      <use xlink:href="#DejaVuSans-6c"/>
      <use xlink:href="#DejaVuSans-6f" x="27.783203"/>
      <use xlink:href="#DejaVuSans-67" x="88.964844"/>
      <use xlink:href="#DejaVuSans-31" x="152.441406"/>
      <use xlink:href="#DejaVuSans-30" x="216.064453"/>
      <use xlink:href="#DejaVuSans-20" x="279.6875"/>
      <use xlink:href="#DejaVuSans-6f" x="311.474609"/>
      <use xlink:href="#DejaVuSans-66" x="372.65625"/>
      <use xlink:href="#DejaVuSans-20" x="407.861328"/>
      <use xlink:href="#DejaVuSans-46" x="439.648438"/>
      <use xlink:href="#DejaVuSans-45" x="497.167969"/>
      <use xlink:href="#DejaVuSans-76" x="560.351562"/>
      <use xlink:href="#DejaVuSans-61" x="619.53125"/>
      <use xlink:href="#DejaVuSans-6c" x="680.810547"/>
      <use xlink:href="#DejaVuSans-73" x="708.59375"/>
      <use xlink:href="#DejaVuSans-20" x="760.693359"/>
      <use xlink:href="#DejaVuSans-2f" x="792.480469"/>
      <use xlink:href="#DejaVuSans-20" x="826.171875"/>
      <use xlink:href="#DejaVuSans-44" x="857.958984"/>
      <use xlink:href="#DejaVuSans-49" x="934.960938"/>
      <use xlink:href="#DejaVuSans-4d" x="964.453125"/>
     </g>
    </g>
   </g>
   <g id="matplotlib.axis_2">
    <g id="ytick_1">
     <g id="line2d_83">
      <path d="M 62.208 293.76 
L 460.8 293.76 
" clip-path="url(#p9645a6c37f)" style="fill: none; stroke: #b0b0b0; stroke-width: 0.8; stroke-linecap: square"/>
     </g>
     <g id="line2d_84">
      <defs>
       <path id="m1437846e84" d="M 0 0 
L -3.5 0 
" style="stroke: #000000; stroke-width: 0.8"/>
      </defs>
      <g>
       <use xlink:href="#m1437846e84" x="62.208" y="293.76" style="stroke: #000000; stroke-width: 0.8"/>
      </g>
     </g>
     <g id="text_4">
      <!-- 0.0 -->
      <g transform="translate(29.763 299.83875)scale(0.16 -0.16)">
       <defs>
        <path id="DejaVuSans-2e" d="M 684 794 
L 1344 794 
L 1344 0 
L 684 0 
L 684 794 
z
" transform="scale(0.015625)"/>
       </defs>
       <use xlink:href="#DejaVuSans-30"/>
       <use xlink:href="#DejaVuSans-2e" x="63.623047"/>
       <use xlink:href="#DejaVuSans-30" x="95.410156"/>
      </g>
     </g>
    </g>
    <g id="ytick_2">
     <g id="line2d_85">
      <path d="M 62.208 236.274059 
L 460.8 236.274059 
" clip-path="url(#p9645a6c37f)" style="fill: none; stroke: #b0b0b0; stroke-width: 0.8; stroke-linecap: square"/>
     </g>
     <g id="line2d_86">
      <g>
       <use xlink:href="#m1437846e84" x="62.208" y="236.274059" style="stroke: #000000; stroke-width: 0.8"/>
      </g>
     </g>
     <g id="text_5">
      <!-- 0.2 -->
      <g transform="translate(29.763 242.352809)scale(0.16 -0.16)">
       <defs>
        <path id="DejaVuSans-32" d="M 1228 531 
L 3431 531 
L 3431 0 
L 469 0 
L 469 531 
Q 828 903 1448 1529 
Q 2069 2156 2228 2338 
Q 2531 2678 2651 2914 
Q 2772 3150 2772 3378 
Q 2772 3750 2511 3984 
Q 2250 4219 1831 4219 
Q 1534 4219 1204 4116 
Q 875 4013 500 3803 
L 500 4441 
Q 881 4594 1212 4672 
Q 1544 4750 1819 4750 
Q 2544 4750 2975 4387 
Q 3406 4025 3406 3419 
Q 3406 3131 3298 2873 
Q 3191 2616 2906 2266 
Q 2828 2175 2409 1742 
Q 1991 1309 1228 531 
z
" transform="scale(0.015625)"/>
       </defs>
       <use xlink:href="#DejaVuSans-30"/>
       <use xlink:href="#DejaVuSans-2e" x="63.623047"/>
       <use xlink:href="#DejaVuSans-32" x="95.410156"/>
      </g>
     </g>
    </g>
    <g id="ytick_3">
     <g id="line2d_87">
      <path d="M 62.208 178.788119 
L 460.8 178.788119 
" clip-path="url(#p9645a6c37f)" style="fill: none; stroke: #b0b0b0; stroke-width: 0.8; stroke-linecap: square"/>
     </g>
     <g id="line2d_88">
      <g>
       <use xlink:href="#m1437846e84" x="62.208" y="178.788119" style="stroke: #000000; stroke-width: 0.8"/>
      </g>
     </g>
     <g id="text_6">
      <!-- 0.4 -->
      <g transform="translate(29.763 184.866869)scale(0.16 -0.16)">
       <defs>
        <path id="DejaVuSans-34" d="M 2419 4116 
L 825 1625 
L 2419 1625 
L 2419 4116 
z
M 2253 4666 
L 3047 4666 
L 3047 1625 
L 3713 1625 
L 3713 1100 
L 3047 1100 
L 3047 0 
L 2419 0 
L 2419 1100 
L 313 1100 
L 313 1709 
L 2253 4666 
z
" transform="scale(0.015625)"/>
       </defs>
       <use xlink:href="#DejaVuSans-30"/>
       <use xlink:href="#DejaVuSans-2e" x="63.623047"/>
       <use xlink:href="#DejaVuSans-34" x="95.410156"/>
      </g>
     </g>
    </g>
    <g id="ytick_4">
     <g id="line2d_89">
      <path d="M 62.208 121.302178 
L 460.8 121.302178 
" clip-path="url(#p9645a6c37f)" style="fill: none; stroke: #b0b0b0; stroke-width: 0.8; stroke-linecap: square"/>
     </g>
     <g id="line2d_90">
      <g>
       <use xlink:href="#m1437846e84" x="62.208" y="121.302178" style="stroke: #000000; stroke-width: 0.8"/>
      </g>
     </g>
     <g id="text_7">
      <!-- 0.6 -->
      <g transform="translate(29.763 127.380928)scale(0.16 -0.16)">
       <defs>
        <path id="DejaVuSans-36" d="M 2113 2584 
Q 1688 2584 1439 2293 
Q 1191 2003 1191 1497 
Q 1191 994 1439 701 
Q 1688 409 2113 409 
Q 2538 409 2786 701 
Q 3034 994 3034 1497 
Q 3034 2003 2786 2293 
Q 2538 2584 2113 2584 
z
M 3366 4563 
L 3366 3988 
Q 3128 4100 2886 4159 
Q 2644 4219 2406 4219 
Q 1781 4219 1451 3797 
Q 1122 3375 1075 2522 
Q 1259 2794 1537 2939 
Q 1816 3084 2150 3084 
Q 2853 3084 3261 2657 
Q 3669 2231 3669 1497 
Q 3669 778 3244 343 
Q 2819 -91 2113 -91 
Q 1303 -91 875 529 
Q 447 1150 447 2328 
Q 447 3434 972 4092 
Q 1497 4750 2381 4750 
Q 2619 4750 2861 4703 
Q 3103 4656 3366 4563 
z
" transform="scale(0.015625)"/>
       </defs>
       <use xlink:href="#DejaVuSans-30"/>
       <use xlink:href="#DejaVuSans-2e" x="63.623047"/>
       <use xlink:href="#DejaVuSans-36" x="95.410156"/>
      </g>
     </g>
    </g>
    <g id="ytick_5">
     <g id="line2d_91">
      <path d="M 62.208 63.816238 
L 460.8 63.816238 
" clip-path="url(#p9645a6c37f)" style="fill: none; stroke: #b0b0b0; stroke-width: 0.8; stroke-linecap: square"/>
     </g>
     <g id="line2d_92">
      <g>
       <use xlink:href="#m1437846e84" x="62.208" y="63.816238" style="stroke: #000000; stroke-width: 0.8"/>
      </g>
     </g>
     <g id="text_8">
      <!-- 0.8 -->
      <g transform="translate(29.763 69.894988)scale(0.16 -0.16)">
       <defs>
        <path id="DejaVuSans-38" d="M 2034 2216 
Q 1584 2216 1326 1975 
Q 1069 1734 1069 1313 
Q 1069 891 1326 650 
Q 1584 409 2034 409 
Q 2484 409 2743 651 
Q 3003 894 3003 1313 
Q 3003 1734 2745 1975 
Q 2488 2216 2034 2216 
z
M 1403 2484 
Q 997 2584 770 2862 
Q 544 3141 544 3541 
Q 544 4100 942 4425 
Q 1341 4750 2034 4750 
Q 2731 4750 3128 4425 
Q 3525 4100 3525 3541 
Q 3525 3141 3298 2862 
Q 3072 2584 2669 2484 
Q 3125 2378 3379 2068 
Q 3634 1759 3634 1313 
Q 3634 634 3220 271 
Q 2806 -91 2034 -91 
Q 1263 -91 848 271 
Q 434 634 434 1313 
Q 434 1759 690 2068 
Q 947 2378 1403 2484 
z
M 1172 3481 
Q 1172 3119 1398 2916 
Q 1625 2713 2034 2713 
Q 2441 2713 2670 2916 
Q 2900 3119 2900 3481 
Q 2900 3844 2670 4047 
Q 2441 4250 2034 4250 
Q 1625 4250 1398 4047 
Q 1172 3844 1172 3481 
z
" transform="scale(0.015625)"/>
       </defs>
       <use xlink:href="#DejaVuSans-30"/>
       <use xlink:href="#DejaVuSans-2e" x="63.623047"/>
       <use xlink:href="#DejaVuSans-38" x="95.410156"/>
      </g>
     </g>
    </g>
    <g id="ytick_6">
     <g id="line2d_93">
      <path d="M 62.208 6.330297 
L 460.8 6.330297 
" clip-path="url(#p9645a6c37f)" style="fill: none; stroke: #b0b0b0; stroke-width: 0.8; stroke-linecap: square"/>
     </g>
     <g id="line2d_94">
      <g>
       <use xlink:href="#m1437846e84" x="62.208" y="6.330297" style="stroke: #000000; stroke-width: 0.8"/>
      </g>
     </g>
     <g id="text_9">
      <!-- 1.0 -->
      <g transform="translate(29.763 12.409047)scale(0.16 -0.16)">
       <use xlink:href="#DejaVuSans-31"/>
       <use xlink:href="#DejaVuSans-2e" x="63.623047"/>
       <use xlink:href="#DejaVuSans-30" x="95.410156"/>
      </g>
     </g>
    </g>
    <g id="text_10">
     <!-- proportion of trials -->
     <g transform="translate(21.603625 241.61425)rotate(-90)scale(0.2 -0.2)">
      <defs>
       <path id="DejaVuSans-70" d="M 1159 525 
L 1159 -1331 
L 581 -1331 
L 581 3500 
L 1159 3500 
L 1159 2969 
Q 1341 3281 1617 3432 
Q 1894 3584 2278 3584 
Q 2916 3584 3314 3078 
Q 3713 2572 3713 1747 
Q 3713 922 3314 415 
Q 2916 -91 2278 -91 
Q 1894 -91 1617 61 
Q 1341 213 1159 525 
z
M 3116 1747 
Q 3116 2381 2855 2742 
Q 2594 3103 2138 3103 
Q 1681 3103 1420 2742 
Q 1159 2381 1159 1747 
Q 1159 1113 1420 752 
Q 1681 391 2138 391 
Q 2594 391 2855 752 
Q 3116 1113 3116 1747 
z
" transform="scale(0.015625)"/>
       <path id="DejaVuSans-72" d="M 2631 2963 
Q 2534 3019 2420 3045 
Q 2306 3072 2169 3072 
Q 1681 3072 1420 2755 
Q 1159 2438 1159 1844 
L 1159 0 
L 581 0 
L 581 3500 
L 1159 3500 
L 1159 2956 
Q 1341 3275 1631 3429 
Q 1922 3584 2338 3584 
Q 2397 3584 2469 3576 
Q 2541 3569 2628 3553 
L 2631 2963 
z
" transform="scale(0.015625)"/>
       <path id="DejaVuSans-74" d="M 1172 4494 
L 1172 3500 
L 2356 3500 
L 2356 3053 
L 1172 3053 
L 1172 1153 
Q 1172 725 1289 603 
Q 1406 481 1766 481 
L 2356 481 
L 2356 0 
L 1766 0 
Q 1100 0 847 248 
Q 594 497 594 1153 
L 594 3053 
L 172 3053 
L 172 3500 
L 594 3500 
L 594 4494 
L 1172 4494 
z
" transform="scale(0.015625)"/>
       <path id="DejaVuSans-69" d="M 603 3500 
L 1178 3500 
L 1178 0 
L 603 0 
L 603 3500 
z
M 603 4863 
L 1178 4863 
L 1178 4134 
L 603 4134 
L 603 4863 
z
" transform="scale(0.015625)"/>
       <path id="DejaVuSans-6e" d="M 3513 2113 
L 3513 0 
L 2938 0 
L 2938 2094 
Q 2938 2591 2744 2837 
Q 2550 3084 2163 3084 
Q 1697 3084 1428 2787 
Q 1159 2491 1159 1978 
L 1159 0 
L 581 0 
L 581 3500 
L 1159 3500 
L 1159 2956 
Q 1366 3272 1645 3428 
Q 1925 3584 2291 3584 
Q 2894 3584 3203 3211 
Q 3513 2838 3513 2113 
z
" transform="scale(0.015625)"/>
      </defs>
      <use xlink:href="#DejaVuSans-70"/>
      <use xlink:href="#DejaVuSans-72" x="63.476562"/>
      <use xlink:href="#DejaVuSans-6f" x="102.339844"/>
      <use xlink:href="#DejaVuSans-70" x="163.521484"/>
      <use xlink:href="#DejaVuSans-6f" x="226.998047"/>
      <use xlink:href="#DejaVuSans-72" x="288.179688"/>
      <use xlink:href="#DejaVuSans-74" x="329.292969"/>
      <use xlink:href="#DejaVuSans-69" x="368.501953"/>
      <use xlink:href="#DejaVuSans-6f" x="396.285156"/>
      <use xlink:href="#DejaVuSans-6e" x="457.466797"/>
      <use xlink:href="#DejaVuSans-20" x="520.845703"/>
      <use xlink:href="#DejaVuSans-6f" x="552.632812"/>
      <use xlink:href="#DejaVuSans-66" x="613.814453"/>
      <use xlink:href="#DejaVuSans-20" x="649.019531"/>
      <use xlink:href="#DejaVuSans-74" x="680.806641"/>
      <use xlink:href="#DejaVuSans-72" x="720.015625"/>
      <use xlink:href="#DejaVuSans-69" x="761.128906"/>
      <use xlink:href="#DejaVuSans-61" x="788.912109"/>
      <use xlink:href="#DejaVuSans-6c" x="850.191406"/>
      <use xlink:href="#DejaVuSans-73" x="877.974609"/>
     </g>
    </g>
   </g>
   <g id="line2d_95">
    <path d="M 411.470798 293.76 
L 411.470798 288.969505 
L 413.530284 288.969505 
L 413.530284 284.17901 
L 414.351853 284.17901 
L 414.351853 279.388515 
L 420.48396 279.388515 
L 420.48396 274.59802 
L 421.789903 274.59802 
L 421.789903 269.807525 
L 423.855554 269.807525 
L 423.855554 265.01703 
L 427.781533 265.01703 
L 427.781533 260.226535 
L 429.432209 260.226535 
L 429.432209 255.43604 
L 429.558729 255.43604 
L 429.558729 250.645545 
L 431.567436 250.645545 
L 431.567436 245.85505 
L 432.823987 245.85505 
L 432.823987 241.064554 
L 435.300154 241.064554 
L 435.300154 236.274059 
L 436.160933 236.274059 
L 436.160933 231.483564 
L 439.594772 231.483564 
L 439.594772 226.693069 
L 440.39407 226.693069 
L 440.39407 221.902574 
L 440.668169 221.902574 
L 440.668169 217.112079 
L 440.668169 217.112079 
L 440.668169 217.112079 
L 460.8 217.112079 
" clip-path="url(#p9645a6c37f)" style="fill: none; stroke: #000000; stroke-width: 1.5; stroke-linecap: square"/>
   </g>
   <g id="line2d_96">
    <defs>
     <path id="m99bc70a778" d="M -0 14.142136 
L 8.485281 0 
L -0 -14.142136 
L -8.485281 -0 
z
" style="stroke: #000000; stroke-width: 1.5; stroke-linejoin: miter"/>
    </defs>
    <g clip-path="url(#p9645a6c37f)">
     <use xlink:href="#m99bc70a778" x="421.789903" y="274.59802" style="fill-opacity: 0; stroke: #000000; stroke-width: 1.5; stroke-linejoin: miter"/>
     <use xlink:href="#m99bc70a778" x="436.160933" y="236.274059" style="fill-opacity: 0; stroke: #000000; stroke-width: 1.5; stroke-linejoin: miter"/>
     <use xlink:href="#m99bc70a778" x="440.668169" y="217.112079" style="fill-opacity: 0; stroke: #000000; stroke-width: 1.5; stroke-linejoin: miter"/>
    </g>
   </g>
   <g id="line2d_97">
    <path clip-path="url(#p9645a6c37f)" style="fill: none; stroke: #000000; stroke-width: 1.5; stroke-linecap: square"/>
    <g clip-path="url(#p9645a6c37f)">
     <use xlink:href="#m99bc70a778" x="-1" y="581.189703" style="fill-opacity: 0; stroke: #000000; stroke-width: 1.5; stroke-linejoin: miter"/>
     <use xlink:href="#m99bc70a778" x="460.8" y="581.189703" style="fill-opacity: 0; stroke: #000000; stroke-width: 1.5; stroke-linejoin: miter"/>
    </g>
   </g>
   <g id="line2d_98">
    <path d="M 436.72738 293.76 
L 436.72738 288.969505 
L 436.72738 288.969505 
L 436.72738 288.969505 
L 460.8 288.969505 
" clip-path="url(#p9645a6c37f)" style="fill: none; stroke: #000000; stroke-width: 1.5; stroke-linecap: square"/>
   </g>
   <g id="line2d_99">
    <defs>
     <path id="m20b81e0179" d="M 0 7.5 
C 1.989023 7.5 3.896849 6.709753 5.303301 5.303301 
C 6.709753 3.896849 7.5 1.989023 7.5 0 
C 7.5 -1.989023 6.709753 -3.896849 5.303301 -5.303301 
C 3.896849 -6.709753 1.989023 -7.5 0 -7.5 
C -1.989023 -7.5 -3.896849 -6.709753 -5.303301 -5.303301 
C -6.709753 -3.896849 -7.5 -1.989023 -7.5 0 
C -7.5 1.989023 -6.709753 3.896849 -5.303301 5.303301 
C -3.896849 6.709753 -1.989023 7.5 0 7.5 
z
" style="stroke: #000000; stroke-width: 1.5"/>
    </defs>
    <g clip-path="url(#p9645a6c37f)">
     <use xlink:href="#m20b81e0179" x="436.72738" y="293.76" style="fill-opacity: 0; stroke: #000000; stroke-width: 1.5"/>
     <use xlink:href="#m20b81e0179" x="436.72738" y="293.76" style="fill-opacity: 0; stroke: #000000; stroke-width: 1.5"/>
     <use xlink:href="#m20b81e0179" x="436.72738" y="288.969505" style="fill-opacity: 0; stroke: #000000; stroke-width: 1.5"/>
    </g>
   </g>
   <g id="line2d_100">
    <path clip-path="url(#p9645a6c37f)" style="fill: none; stroke: #000000; stroke-width: 1.5; stroke-linecap: square"/>
   </g>
   <g id="line2d_101"/>
   <g id="line2d_102"/>
   <g id="line2d_103"/>
   <g id="line2d_104"/>
   <g id="line2d_105"/>
   <g id="line2d_106"/>
   <g id="line2d_107">
    <path d="M 441.270277 293.76 
L 441.270277 3.456 
" clip-path="url(#p9645a6c37f)" style="fill: none; stroke: #000000; stroke-width: 1.5; stroke-linecap: square"/>
    <defs>
     <path id="ma2e4c3c313" d="M -10 0 
L 10 0 
M 0 10 
L 0 -10 
" style="stroke: #000000; stroke-width: 3"/>
    </defs>
    <g clip-path="url(#p9645a6c37f)">
     <use xlink:href="#ma2e4c3c313" x="441.270277" y="293.76" style="stroke: #000000; stroke-width: 3"/>
     <use xlink:href="#ma2e4c3c313" x="441.270277" y="3.456" style="stroke: #000000; stroke-width: 3"/>
    </g>
   </g>
   <g id="line2d_108">
    <path d="M 441.819429 293.76 
L 441.819429 3.456 
" clip-path="url(#p9645a6c37f)" style="fill: none; stroke: #000000; stroke-width: 1.5; stroke-linecap: square"/>
    <defs>
     <path id="md7e13443b7" d="M 0 7.5 
C 1.989023 7.5 3.896849 6.709753 5.303301 5.303301 
C 6.709753 3.896849 7.5 1.989023 7.5 0 
C 7.5 -1.989023 6.709753 -3.896849 5.303301 -5.303301 
C 3.896849 -6.709753 1.989023 -7.5 0 -7.5 
C -1.989023 -7.5 -3.896849 -6.709753 -5.303301 -5.303301 
C -6.709753 -3.896849 -7.5 -1.989023 -7.5 0 
C -7.5 1.989023 -6.709753 3.896849 -5.303301 5.303301 
C -3.896849 6.709753 -1.989023 7.5 0 7.5 
z
" style="stroke: #000000; stroke-width: 3"/>
    </defs>
    <g clip-path="url(#p9645a6c37f)">
     <use xlink:href="#md7e13443b7" x="441.819429" y="293.76" style="fill-opacity: 0; stroke: #000000; stroke-width: 3"/>
     <use xlink:href="#md7e13443b7" x="441.819429" y="3.456" style="fill-opacity: 0; stroke: #000000; stroke-width: 3"/>
    </g>
   </g>
   <g id="patch_3">
    <path d="M 62.208 293.76 
L 62.208 3.456 
" style="fill: none; stroke: #000000; stroke-width: 0.8; stroke-linejoin: miter; stroke-linecap: square"/>
   </g>
   <g id="patch_4">
    <path d="M 460.8 293.76 
L 460.8 3.456 
" style="fill: none; stroke: #000000; stroke-width: 0.8; stroke-linejoin: miter; stroke-linecap: square"/>
   </g>
   <g id="patch_5">
    <path d="M 62.208 293.76 
L 460.8 293.76 
" style="fill: none; stroke: #000000; stroke-width: 0.8; stroke-linejoin: miter; stroke-linecap: square"/>
   </g>
   <g id="patch_6">
    <path d="M 62.208 3.456 
L 460.8 3.456 
" style="fill: none; stroke: #000000; stroke-width: 0.8; stroke-linejoin: miter; stroke-linecap: square"/>
   </g>
   <g id="text_11">
    <!-- f6-f9 -->
    <g transform="translate(238.130563 24.458955)scale(0.2 -0.2)">
     <defs>
      <path id="DejaVuSans-2d" d="M 313 2009 
L 1997 2009 
L 1997 1497 
L 313 1497 
L 313 2009 
z
" transform="scale(0.015625)"/>
      <path id="DejaVuSans-39" d="M 703 97 
L 703 672 
Q 941 559 1184 500 
Q 1428 441 1663 441 
Q 2288 441 2617 861 
Q 2947 1281 2994 2138 
Q 2813 1869 2534 1725 
Q 2256 1581 1919 1581 
Q 1219 1581 811 2004 
Q 403 2428 403 3163 
Q 403 3881 828 4315 
Q 1253 4750 1959 4750 
Q 2769 4750 3195 4129 
Q 3622 3509 3622 2328 
Q 3622 1225 3098 567 
Q 2575 -91 1691 -91 
Q 1453 -91 1209 -44 
Q 966 3 703 97 
z
M 1959 2075 
Q 2384 2075 2632 2365 
Q 2881 2656 2881 3163 
Q 2881 3666 2632 3958 
Q 2384 4250 1959 4250 
Q 1534 4250 1286 3958 
Q 1038 3666 1038 3163 
Q 1038 2656 1286 2365 
Q 1534 2075 1959 2075 
z
" transform="scale(0.015625)"/>
     </defs>
     <use xlink:href="#DejaVuSans-66"/>
     <use xlink:href="#DejaVuSans-36" x="35.205078"/>
     <use xlink:href="#DejaVuSans-2d" x="98.828125"/>
     <use xlink:href="#DejaVuSans-66" x="134.912109"/>
     <use xlink:href="#DejaVuSans-39" x="170.117188"/>
    </g>
   </g>
   <g id="text_12">
    <!-- absolute targets -->
    <g transform="translate(62.208 609.932673)scale(0.14 -0.14)">
     <defs>
      <path id="DejaVuSans-62" d="M 3116 1747 
Q 3116 2381 2855 2742 
Q 2594 3103 2138 3103 
Q 1681 3103 1420 2742 
Q 1159 2381 1159 1747 
Q 1159 1113 1420 752 
Q 1681 391 2138 391 
Q 2594 391 2855 752 
Q 3116 1113 3116 1747 
z
M 1159 2969 
Q 1341 3281 1617 3432 
Q 1894 3584 2278 3584 
Q 2916 3584 3314 3078 
Q 3713 2572 3713 1747 
Q 3713 922 3314 415 
Q 2916 -91 2278 -91 
Q 1894 -91 1617 61 
Q 1341 213 1159 525 
L 1159 0 
L 581 0 
L 581 4863 
L 1159 4863 
L 1159 2969 
z
" transform="scale(0.015625)"/>
      <path id="DejaVuSans-75" d="M 544 1381 
L 544 3500 
L 1119 3500 
L 1119 1403 
Q 1119 906 1312 657 
Q 1506 409 1894 409 
Q 2359 409 2629 706 
Q 2900 1003 2900 1516 
L 2900 3500 
L 3475 3500 
L 3475 0 
L 2900 0 
L 2900 538 
Q 2691 219 2414 64 
Q 2138 -91 1772 -91 
Q 1169 -91 856 284 
Q 544 659 544 1381 
z
M 1991 3584 
L 1991 3584 
z
" transform="scale(0.015625)"/>
      <path id="DejaVuSans-65" d="M 3597 1894 
L 3597 1613 
L 953 1613 
Q 991 1019 1311 708 
Q 1631 397 2203 397 
Q 2534 397 2845 478 
Q 3156 559 3463 722 
L 3463 178 
Q 3153 47 2828 -22 
Q 2503 -91 2169 -91 
Q 1331 -91 842 396 
Q 353 884 353 1716 
Q 353 2575 817 3079 
Q 1281 3584 2069 3584 
Q 2775 3584 3186 3129 
Q 3597 2675 3597 1894 
z
M 3022 2063 
Q 3016 2534 2758 2815 
Q 2500 3097 2075 3097 
Q 1594 3097 1305 2825 
Q 1016 2553 972 2059 
L 3022 2063 
z
" transform="scale(0.015625)"/>
     </defs>
     <use xlink:href="#DejaVuSans-61"/>
     <use xlink:href="#DejaVuSans-62" x="61.279297"/>
     <use xlink:href="#DejaVuSans-73" x="124.755859"/>
     <use xlink:href="#DejaVuSans-6f" x="176.855469"/>
     <use xlink:href="#DejaVuSans-6c" x="238.037109"/>
     <use xlink:href="#DejaVuSans-75" x="265.820312"/>
     <use xlink:href="#DejaVuSans-74" x="329.199219"/>
     <use xlink:href="#DejaVuSans-65" x="368.408203"/>
     <use xlink:href="#DejaVuSans-20" x="429.931641"/>
     <use xlink:href="#DejaVuSans-74" x="461.71875"/>
     <use xlink:href="#DejaVuSans-61" x="500.927734"/>
     <use xlink:href="#DejaVuSans-72" x="562.207031"/>
     <use xlink:href="#DejaVuSans-67" x="601.570312"/>
     <use xlink:href="#DejaVuSans-65" x="665.046875"/>
     <use xlink:href="#DejaVuSans-74" x="726.570312"/>
     <use xlink:href="#DejaVuSans-73" x="765.779297"/>
    </g>
   </g>
   <g id="text_13">
    <!-- v2.6.3 -->
    <g style="fill: #808080" transform="translate(245.82275 288.777272)scale(0.1 -0.1)">
     <use xlink:href="#DejaVuSans-76"/>
     <use xlink:href="#DejaVuSans-32" x="59.179688"/>
     <use xlink:href="#DejaVuSans-2e" x="122.802734"/>
     <use xlink:href="#DejaVuSans-36" x="154.589844"/>
     <use xlink:href="#DejaVuSans-2e" x="218.212891"/>
     <use xlink:href="#DejaVuSans-33" x="250"/>
    </g>
   </g>
   <g id="legend_1">
    <g id="patch_7">
     <path d="M 76.208 136.881 
L 160.148625 136.881 
Q 164.148625 136.881 164.148625 132.881 
L 164.148625 17.456 
Q 164.148625 13.456 160.148625 13.456 
L 76.208 13.456 
Q 72.208 13.456 72.208 17.456 
L 72.208 132.881 
Q 72.208 136.881 76.208 136.881 
z
" style="fill: #ffffff; opacity: 0.2; stroke: #cccccc; stroke-linejoin: miter"/>
    </g>
    <g id="line2d_109">
     <path d="M 80.208 29.652875 
L 80.208 29.652875 
L 100.208 29.652875 
L 100.208 29.652875 
L 120.208 29.652875 
" style="fill: none; stroke: #000000; stroke-width: 1.5; stroke-linecap: square"/>
    </g>
    <g id="text_14">
     <!-- 1 -->
     <g transform="translate(136.208 36.652875)scale(0.2 -0.2)">
      <use xlink:href="#DejaVuSans-31"/>
     </g>
    </g>
    <g id="line2d_110">
     <path d="M 80.208 59.009125 
L 100.208 59.009125 
L 120.208 59.009125 
" style="fill: none; stroke: #00bfbf; stroke-width: 1.5; stroke-linecap: square"/>
    </g>
    <g id="text_15">
     <!-- -1 -->
     <g transform="translate(136.208 66.009125)scale(0.2 -0.2)">
      <use xlink:href="#DejaVuSans-2d"/>
      <use xlink:href="#DejaVuSans-31" x="36.083984"/>
     </g>
    </g>
    <g id="line2d_111">
     <path d="M 80.208 88.365375 
L 100.208 88.365375 
L 120.208 88.365375 
" style="fill: none; stroke: #bf00bf; stroke-width: 1.5; stroke-linecap: square"/>
    </g>
    <g id="text_16">
     <!-- -4 -->
     <g transform="translate(136.208 95.365375)scale(0.2 -0.2)">
      <use xlink:href="#DejaVuSans-2d"/>
      <use xlink:href="#DejaVuSans-34" x="36.083984"/>
     </g>
    </g>
    <g id="line2d_112">
     <path d="M 80.208 117.721625 
L 100.208 117.721625 
L 120.208 117.721625 
" style="fill: none; stroke: #ff0000; stroke-width: 3; stroke-linecap: square"/>
    </g>
    <g id="text_17">
     <!-- -8 -->
     <g transform="translate(136.208 124.721625)scale(0.2 -0.2)">
      <use xlink:href="#DejaVuSans-2d"/>
      <use xlink:href="#DejaVuSans-38" x="36.083984"/>
     </g>
    </g>
   </g>
  </g>
 </g>
 <defs>
  <clipPath id="p9645a6c37f">
   <rect x="62.208" y="3.456" width="398.592" height="290.304"/>
  </clipPath>
 </defs>
</svg>
