<?xml version="1.0" encoding="utf-8" standalone="no"?>
<!DOCTYPE svg PUBLIC "-//W3C//DTD SVG 1.1//EN"
  "http://www.w3.org/Graphics/SVG/1.1/DTD/svg11.dtd">
<svg xmlns:xlink="http://www.w3.org/1999/xlink" width="460.8pt" height="345.6pt" viewBox="0 0 460.8 345.6" xmlns="http://www.w3.org/2000/svg" version="1.1">
 <metadata>
  <rdf:RDF xmlns:dc="http://purl.org/dc/elements/1.1/" xmlns:cc="http://creativecommons.org/ns#" xmlns:rdf="http://www.w3.org/1999/02/22-rdf-syntax-ns#">
   <cc:Work>
    <dc:type rdf:resource="http://purl.org/dc/dcmitype/StillImage"/>
    <dc:date>2024-01-05T10:26:05.690520</dc:date>
    <dc:format>image/svg+xml</dc:format>
    <dc:creator>
     <cc:Agent>
      <dc:title>Matplotlib v3.5.1, https://matplotlib.org/</dc:title>
     </cc:Agent>
    </dc:creator>
   </cc:Work>
  </rdf:RDF>
 </metadata>
 <defs>
  <style type="text/css">*{stroke-linejoin: round; stroke-linecap: butt}</style>
 </defs>
 <g id="figure_1">
  <g id="patch_1">
   <path d="M 0 345.6 
L 460.8 345.6 
L 460.8 0 
L 0 0 
z
" style="fill: #ffffff"/>
  </g>
  <g id="axes_1">
   <g id="patch_2">
    <path d="M 62.208 293.76 
L 460.8 293.76 
L 460.8 3.456 
L 62.208 3.456 
z
" style="fill: #ffffff"/>
   </g>
   <g id="line2d_1">
    <path d="M 218.275572 293.76 
L 218.275572 289.927604 
L 218.275572 289.927604 
L 218.275572 286.095208 
L 218.275572 286.095208 
L 218.275572 282.262812 
L 218.275572 282.262812 
L 218.275572 278.430416 
L 218.275572 278.430416 
L 218.275572 274.59802 
L 218.275572 274.59802 
L 218.275572 270.765624 
L 218.275572 270.765624 
L 218.275572 266.933228 
L 218.275572 266.933228 
L 218.275572 263.100832 
L 218.275572 263.100832 
L 218.275572 259.268436 
L 218.275572 259.268436 
L 218.275572 255.43604 
L 218.275572 255.43604 
L 218.275572 251.603644 
L 218.275572 251.603644 
L 218.275572 247.771248 
L 218.275572 247.771248 
L 218.275572 243.938851 
L 218.275572 243.938851 
L 218.275572 240.106455 
L 218.275572 240.106455 
L 218.275572 236.274059 
L 224.618931 236.274059 
L 224.618931 232.441663 
L 227.535443 232.441663 
L 227.535443 228.609267 
L 227.535443 228.609267 
L 227.535443 224.776871 
L 230.30484 224.776871 
L 230.30484 220.944475 
L 230.30484 220.944475 
L 230.30484 217.112079 
L 230.30484 217.112079 
L 230.30484 213.279683 
L 230.30484 213.279683 
L 230.30484 209.447287 
L 232.941253 209.447287 
L 232.941253 205.614891 
L 232.941253 205.614891 
L 232.941253 201.782495 
L 232.941253 201.782495 
L 232.941253 197.950099 
L 235.456872 197.950099 
L 235.456872 194.117703 
L 235.456872 194.117703 
L 235.456872 190.285307 
L 235.456872 190.285307 
L 235.456872 186.452911 
L 235.456872 186.452911 
L 235.456872 182.620515 
L 237.862281 182.620515 
L 237.862281 178.788119 
L 401.022015 178.788119 
L 401.022015 174.955723 
L 401.978465 174.955723 
L 401.978465 171.123327 
L 402.685026 171.123327 
L 402.685026 167.290931 
L 403.034926 167.290931 
L 403.034926 163.458535 
L 403.382611 163.458535 
L 403.382611 159.626139 
L 404.638947 159.626139 
L 404.638947 155.793743 
L 441.021355 155.793743 
L 441.021355 151.961347 
L 441.4851 151.961347 
L 441.4851 148.12895 
L 441.94496 148.12895 
L 441.94496 144.296554 
L 461.8 144.296554 
" clip-path="url(#pd501502794)" style="fill: none; stroke: #f5deb3; stroke-width: 1.5; stroke-linecap: square"/>
   </g>
   <g id="line2d_2">
    <path d="M 398.699346 293.76 
L 398.699346 282.262812 
L 398.699346 282.262812 
L 398.699346 270.765624 
L 398.705337 270.765624 
L 398.705337 259.268436 
L 398.705337 259.268436 
L 398.705337 247.771248 
L 398.705337 247.771248 
L 398.705337 236.274059 
L 461.8 236.274059 
" clip-path="url(#pd501502794)" style="fill: none; stroke: #f5deb3; stroke-width: 1.5; stroke-linecap: square"/>
   </g>
   <g id="line2d_3">
    <path d="M 197.040484 293.76 
L 197.040484 289.927604 
L 197.040484 289.927604 
L 197.040484 286.095208 
L 197.040484 286.095208 
L 197.040484 282.262812 
L 197.040484 282.262812 
L 197.040484 278.430416 
L 197.275665 278.430416 
L 197.275665 274.59802 
L 197.509844 274.59802 
L 197.509844 270.765624 
L 197.509844 270.765624 
L 197.509844 266.933228 
L 197.509844 266.933228 
L 197.509844 263.100832 
L 197.509844 263.100832 
L 197.509844 259.268436 
L 197.509844 259.268436 
L 197.509844 255.43604 
L 197.509844 255.43604 
L 197.509844 251.603644 
L 197.509844 251.603644 
L 197.509844 247.771248 
L 197.509844 247.771248 
L 197.509844 243.938851 
L 197.509844 243.938851 
L 197.509844 240.106455 
L 197.743028 240.106455 
L 197.743028 236.274059 
L 197.975226 236.274059 
L 197.975226 232.441663 
L 198.436697 232.441663 
L 198.436697 228.609267 
L 200.687616 228.609267 
L 200.687616 224.776871 
L 201.562769 224.776871 
L 201.562769 220.944475 
L 203.272315 220.944475 
L 203.272315 217.112079 
L 203.272315 217.112079 
L 203.272315 213.279683 
L 203.899919 213.279683 
L 203.899919 209.447287 
L 204.107537 209.447287 
L 204.107537 205.614891 
L 204.314372 205.614891 
L 204.314372 201.782495 
L 205.337022 201.782495 
L 205.337022 197.950099 
L 205.539287 197.950099 
L 205.539287 194.117703 
L 206.141648 194.117703 
L 206.141648 190.285307 
L 207.910075 190.285307 
L 207.910075 186.452911 
L 210.919855 186.452911 
L 210.919855 182.620515 
L 213.249377 182.620515 
L 213.249377 178.788119 
L 213.249377 178.788119 
L 213.249377 178.788119 
L 460.8 178.788119 
" clip-path="url(#pd501502794)" style="fill: none; stroke: #f5deb3; stroke-width: 1.5; stroke-linecap: square"/>
   </g>
   <g id="line2d_4">
    <path d="M 157.301402 293.76 
L 157.301402 289.927604 
L 158.264844 289.927604 
L 158.264844 286.095208 
L 159.679035 286.095208 
L 159.679035 282.262812 
L 161.509696 282.262812 
L 161.509696 278.430416 
L 163.281292 278.430416 
L 163.281292 274.59802 
L 169.457991 274.59802 
L 169.457991 270.765624 
L 169.457991 270.765624 
L 169.457991 266.933228 
L 169.846082 266.933228 
L 169.846082 263.100832 
L 172.488538 263.100832 
L 172.488538 259.268436 
L 172.488538 259.268436 
L 172.488538 255.43604 
L 175.709217 255.43604 
L 175.709217 251.603644 
L 179.405181 251.603644 
L 179.405181 247.771248 
L 180.051244 247.771248 
L 180.051244 243.938851 
L 181.321006 243.938851 
L 181.321006 240.106455 
L 203.272315 240.106455 
L 203.272315 236.274059 
L 303.051369 236.274059 
L 303.051369 232.441663 
L 305.525123 232.441663 
L 305.525123 228.609267 
L 305.883512 228.609267 
L 305.883512 224.776871 
L 306.304068 224.776871 
L 306.304068 220.944475 
L 306.912992 220.944475 
L 306.912992 217.112079 
L 308.328804 217.112079 
L 308.328804 213.279683 
L 308.514851 213.279683 
L 308.514851 209.447287 
L 308.607638 209.447287 
L 308.607638 205.614891 
L 308.700269 205.614891 
L 308.700269 201.782495 
L 309.038586 201.782495 
L 309.038586 197.950099 
L 309.222247 197.950099 
L 309.222247 194.117703 
L 309.283331 194.117703 
L 309.283331 190.285307 
L 310.669836 190.285307 
L 310.669836 186.452911 
L 310.907434 186.452911 
L 310.907434 182.620515 
L 311.173509 182.620515 
L 311.173509 178.788119 
L 431.09785 178.788119 
L 431.09785 174.955723 
L 431.101171 174.955723 
L 431.101171 171.123327 
L 431.754808 171.123327 
L 431.754808 167.290931 
L 432.875456 167.290931 
L 432.875456 163.458535 
L 433.441642 163.458535 
L 433.441642 159.626139 
L 433.989448 159.626139 
L 433.989448 155.793743 
L 434.039837 155.793743 
L 434.039837 151.961347 
L 434.181309 151.961347 
L 434.181309 148.12895 
L 434.218974 148.12895 
L 434.218974 144.296554 
L 434.300492 144.296554 
L 434.300492 140.464158 
L 434.400655 140.464158 
L 434.400655 136.631762 
L 435.146116 136.631762 
L 435.146116 132.799366 
L 435.704752 132.799366 
L 435.704752 128.96697 
L 436.185157 128.96697 
L 436.185157 125.134574 
L 437.489435 125.134574 
L 437.489435 121.302178 
L 437.489435 121.302178 
L 437.489435 121.302178 
L 460.8 121.302178 
" clip-path="url(#pd501502794)" style="fill: none; stroke: #f5deb3; stroke-width: 1.5; stroke-linecap: square"/>
   </g>
   <g id="line2d_5">
    <path d="M 388.070262 293.76 
L 388.070262 289.927604 
L 388.237231 289.927604 
L 388.237231 286.095208 
L 388.735114 286.095208 
L 388.735114 282.262812 
L 389.221405 282.262812 
L 389.221405 278.430416 
L 389.264107 278.430416 
L 389.264107 274.59802 
L 389.654002 274.59802 
L 389.654002 270.765624 
L 390.069199 270.765624 
L 390.069199 266.933228 
L 391.392175 266.933228 
L 391.392175 263.100832 
L 392.133129 263.100832 
L 392.133129 259.268436 
L 392.817559 259.268436 
L 392.817559 255.43604 
L 393.341857 255.43604 
L 393.341857 251.603644 
L 395.549228 251.603644 
L 395.549228 247.771248 
L 396.255294 247.771248 
L 396.255294 243.938851 
L 397.579648 243.938851 
L 397.579648 240.106455 
L 415.085791 240.106455 
L 415.085791 236.274059 
L 415.085791 236.274059 
L 415.085791 236.274059 
L 460.8 236.274059 
" clip-path="url(#pd501502794)" style="fill: none; stroke: #f5deb3; stroke-width: 1.5; stroke-linecap: square"/>
   </g>
   <g id="line2d_6"/>
   <g id="line2d_7">
    <path d="M 195.849228 293.76 
L 195.849228 289.927604 
L 207.13113 289.927604 
L 207.13113 286.095208 
L 208.103097 286.095208 
L 208.103097 282.262812 
L 208.868472 282.262812 
L 208.868472 278.430416 
L 209.05816 278.430416 
L 209.05816 274.59802 
L 209.623325 274.59802 
L 209.623325 270.765624 
L 210.552531 270.765624 
L 210.552531 266.933228 
L 210.552531 266.933228 
L 210.552531 263.100832 
L 210.919855 263.100832 
L 210.919855 259.268436 
L 215.819959 259.268436 
L 215.819959 255.43604 
L 217.469174 255.43604 
L 217.469174 251.603644 
L 218.912272 251.603644 
L 218.912272 247.771248 
L 220.318415 247.771248 
L 220.318415 243.938851 
L 228.073827 243.938851 
L 228.073827 240.106455 
L 228.073827 240.106455 
L 228.073827 236.274059 
L 330.553383 236.274059 
L 330.553383 232.441663 
L 331.233004 232.441663 
L 331.233004 228.609267 
L 332.60746 228.609267 
L 332.60746 224.776871 
L 332.945765 224.776871 
L 332.945765 220.944475 
L 333.104249 220.944475 
L 333.104249 217.112079 
L 333.360815 217.112079 
L 333.360815 213.279683 
L 333.49847 213.279683 
L 333.49847 209.447287 
L 333.850865 209.447287 
L 333.850865 205.614891 
L 333.870377 205.614891 
L 333.870377 201.782495 
L 334.683656 201.782495 
L 334.683656 197.950099 
L 335.219227 197.950099 
L 335.219227 194.117703 
L 335.730771 194.117703 
L 335.730771 190.285307 
L 337.072039 190.285307 
L 337.072039 186.452911 
L 337.566687 186.452911 
L 337.566687 182.620515 
L 337.821428 182.620515 
L 337.821428 178.788119 
L 443.487716 178.788119 
L 443.487716 174.955723 
L 443.981104 174.955723 
L 443.981104 171.123327 
L 445.85059 171.123327 
L 445.85059 167.290931 
L 446.222518 167.290931 
L 446.222518 163.458535 
L 446.779472 163.458535 
L 446.779472 159.626139 
L 447.083158 159.626139 
L 447.083158 155.793743 
L 447.26902 155.793743 
L 447.26902 151.961347 
L 447.842451 151.961347 
L 447.842451 148.12895 
L 449.215753 148.12895 
L 449.215753 144.296554 
L 449.69125 144.296554 
L 449.69125 140.464158 
L 452.278262 140.464158 
L 452.278262 136.631762 
L 461.8 136.631762 
" clip-path="url(#pd501502794)" style="fill: none; stroke: #f5deb3; stroke-width: 1.5; stroke-linecap: square"/>
   </g>
   <g id="line2d_8">
    <path d="M 415.858287 293.76 
L 415.858287 289.927604 
L 417.567228 289.927604 
L 417.571477 282.262812 
L 417.872311 282.262812 
L 417.872311 278.430416 
L 419.745695 278.430416 
L 419.745695 274.59802 
L 420.588621 274.59802 
L 420.588621 270.765624 
L 422.115505 270.765624 
L 422.115505 266.933228 
L 422.575111 266.933228 
L 422.575111 263.100832 
L 423.038594 263.100832 
L 423.038594 259.268436 
L 423.927504 259.268436 
L 423.927504 255.43604 
L 426.514639 255.43604 
L 426.514639 251.603644 
L 427.512759 251.603644 
L 427.512759 247.771248 
L 428.874799 247.771248 
L 428.874799 243.938851 
L 429.284806 243.938851 
L 429.284806 240.106455 
L 433.45437 240.106455 
L 433.45437 236.274059 
L 461.8 236.274059 
L 461.8 236.274059 
" clip-path="url(#pd501502794)" style="fill: none; stroke: #f5deb3; stroke-width: 1.5; stroke-linecap: square"/>
   </g>
   <g id="line2d_9">
    <path d="M 190.27706 293.76 
L 190.27706 289.927604 
L 192.112091 289.927604 
L 192.112091 286.095208 
L 195.607845 286.095208 
L 195.607845 282.262812 
L 196.567078 282.262812 
L 196.567078 278.430416 
L 196.804291 278.430416 
L 196.804291 274.59802 
L 197.509844 274.59802 
L 197.509844 270.765624 
L 198.894322 270.765624 
L 198.894322 266.933228 
L 199.121713 266.933228 
L 199.121713 263.100832 
L 200.46663 263.100832 
L 200.46663 259.268436 
L 204.72572 259.268436 
L 204.72572 255.43604 
L 205.740809 255.43604 
L 205.740809 251.603644 
L 209.623325 251.603644 
L 209.623325 247.771248 
L 210.919855 247.771248 
L 210.919855 243.938851 
L 213.249377 243.938851 
L 213.249377 240.106455 
L 215.14615 240.106455 
L 215.14615 236.274059 
L 327.089336 236.274059 
L 327.089336 232.441663 
L 329.970065 232.441663 
L 329.970065 228.609267 
L 330.324961 228.609267 
L 330.324961 224.776871 
L 330.842735 224.776871 
L 330.842735 220.944475 
L 331.069018 220.944475 
L 331.069018 217.112079 
L 331.985133 217.112079 
L 331.985133 213.279683 
L 332.045667 213.279683 
L 332.045667 209.447287 
L 332.567522 209.447287 
L 332.567522 205.614891 
L 332.985429 205.614891 
L 332.985429 201.782495 
L 333.537737 201.782495 
L 333.537737 197.950099 
L 333.811822 197.950099 
L 333.811822 194.117703 
L 334.278522 194.117703 
L 334.278522 190.285307 
L 334.990336 190.285307 
L 334.990336 186.452911 
L 335.066739 186.452911 
L 335.066739 182.620515 
L 338.453157 182.620515 
L 338.453157 178.788119 
L 437.931087 178.788119 
L 437.931087 174.955723 
L 437.998495 174.955723 
L 437.998495 171.123327 
L 439.315249 171.123327 
L 439.315249 167.290931 
L 439.466597 167.290931 
L 439.466597 163.458535 
L 439.594772 163.458535 
L 439.594772 159.626139 
L 440.281799 159.626139 
L 440.281799 155.793743 
L 440.323927 155.793743 
L 440.323927 151.961347 
L 440.874239 151.961347 
L 440.874239 148.12895 
L 440.97421 148.12895 
L 440.97421 144.296554 
L 441.278555 144.296554 
L 441.278555 140.464158 
L 442.589908 140.464158 
L 442.589908 136.631762 
L 442.638379 136.631762 
L 442.638379 132.799366 
L 442.823788 132.799366 
L 442.823788 128.96697 
L 443.166087 128.96697 
L 443.166087 125.134574 
L 443.37629 125.134574 
L 443.37629 121.302178 
L 443.37629 121.302178 
L 443.37629 121.302178 
L 460.8 121.302178 
" clip-path="url(#pd501502794)" style="fill: none; stroke: #f5deb3; stroke-width: 1.5; stroke-linecap: square"/>
   </g>
   <g id="line2d_10">
    <path d="M 231.951772 293.76 
L 231.951772 289.927604 
L 233.671837 289.927604 
L 233.671837 286.095208 
L 241.231006 286.095208 
L 241.231006 282.262812 
L 241.231006 282.262812 
L 241.231006 278.430416 
L 245.293097 278.430416 
L 245.293097 274.59802 
L 251.663146 274.59802 
L 251.663146 270.765624 
L 256.018425 270.765624 
L 256.018425 266.933228 
L 405.110091 266.933228 
L 405.110091 263.100832 
L 405.243205 263.100832 
L 405.243205 259.268436 
L 405.439623 259.268436 
L 405.439623 255.43604 
L 405.645901 255.43604 
L 405.645901 251.603644 
L 405.661736 251.603644 
L 405.661736 247.771248 
L 406.390483 247.771248 
L 406.390483 243.938851 
L 407.001632 243.938851 
L 407.001632 240.106455 
L 443.078042 240.106455 
L 443.078042 236.274059 
L 461.8 236.274059 
" clip-path="url(#pd501502794)" style="fill: none; stroke: #f5deb3; stroke-width: 1.5; stroke-linecap: square"/>
   </g>
   <g id="line2d_11">
    <path d="M 148.348125 293.76 
L 148.348125 289.927604 
L 156.813268 289.927604 
L 156.813268 286.095208 
L 158.264844 286.095208 
L 158.264844 282.262812 
L 159.211673 282.262812 
L 159.211673 278.430416 
L 160.601993 278.430416 
L 160.601993 274.59802 
L 161.957982 274.59802 
L 161.957982 270.765624 
L 165.418322 270.765624 
L 165.418322 266.933228 
L 169.067137 266.933228 
L 169.067137 263.100832 
L 169.457991 263.100832 
L 169.457991 259.268436 
L 171.746436 259.268436 
L 171.746436 255.43604 
L 176.399978 255.43604 
L 176.399978 251.603644 
L 181.321006 251.603644 
L 181.321006 247.771248 
L 181.633911 247.771248 
L 181.633911 243.938851 
L 191.071022 243.938851 
L 191.071022 240.106455 
L 199.121713 240.106455 
L 199.121713 236.274059 
L 293.393695 236.274059 
L 293.393695 232.441663 
L 294.162878 232.441663 
L 294.162878 228.609267 
L 295.434478 228.609267 
L 295.434478 224.776871 
L 295.552194 224.776871 
L 295.552194 220.944475 
L 296.945454 220.944475 
L 296.945454 217.112079 
L 297.250325 217.112079 
L 297.250325 213.279683 
L 298.37875 213.279683 
L 298.37875 209.447287 
L 298.897517 209.447287 
L 298.897517 205.614891 
L 299.008046 205.614891 
L 299.008046 201.782495 
L 300.101275 201.782495 
L 300.101275 197.950099 
L 300.496735 197.950099 
L 300.496735 194.117703 
L 300.782564 194.117703 
L 300.782564 190.285307 
L 301.561007 190.285307 
L 301.561007 186.452911 
L 302.50153 186.452911 
L 302.50153 182.620515 
L 303.460166 182.620515 
L 303.460166 178.788119 
L 303.460166 178.788119 
L 303.460166 178.788119 
L 460.8 178.788119 
" clip-path="url(#pd501502794)" style="fill: none; stroke: #f5deb3; stroke-width: 1.5; stroke-linecap: square"/>
   </g>
   <g id="line2d_12">
    <path d="M 104.243462 293.76 
L 104.243462 289.927604 
L 104.243462 289.927604 
L 104.243462 286.095208 
L 104.243462 286.095208 
L 104.243462 282.262812 
L 104.243462 282.262812 
L 104.243462 278.430416 
L 104.243462 278.430416 
L 104.243462 274.59802 
L 104.243462 274.59802 
L 104.243462 270.765624 
L 104.243462 270.765624 
L 104.243462 266.933228 
L 104.243462 266.933228 
L 104.243462 263.100832 
L 104.243462 263.100832 
L 104.243462 259.268436 
L 104.243462 259.268436 
L 104.243462 255.43604 
L 104.243462 255.43604 
L 104.243462 251.603644 
L 104.243462 251.603644 
L 104.243462 247.771248 
L 104.243462 247.771248 
L 104.243462 243.938851 
L 104.243462 243.938851 
L 104.243462 240.106455 
L 104.243462 240.106455 
L 104.243462 236.274059 
L 141.66517 236.274059 
L 141.66517 232.441663 
L 153.789675 232.441663 
L 153.789675 228.609267 
L 153.789675 228.609267 
L 153.789675 224.776871 
L 153.789675 224.776871 
L 153.789675 220.944475 
L 153.789675 220.944475 
L 153.789675 217.112079 
L 153.789675 217.112079 
L 153.789675 213.279683 
L 153.789675 213.279683 
L 153.789675 209.447287 
L 153.789675 209.447287 
L 153.789675 205.614891 
L 153.789675 205.614891 
L 153.789675 201.782495 
L 153.789675 201.782495 
L 153.789675 197.950099 
L 163.715403 197.950099 
L 163.715403 194.117703 
L 163.715403 194.117703 
L 163.715403 190.285307 
L 163.715403 190.285307 
L 163.715403 186.452911 
L 163.715403 186.452911 
L 163.715403 182.620515 
L 179.405181 182.620515 
L 179.405181 178.788119 
L 396.592501 178.788119 
L 396.592501 174.955723 
L 398.519317 174.955723 
L 398.519317 171.123327 
L 401.587651 171.123327 
L 401.587651 167.290931 
L 408.815234 167.290931 
L 408.815234 163.458535 
L 408.944644 163.458535 
L 408.944644 159.626139 
L 409.778458 159.626139 
L 409.778458 155.793743 
L 410.878874 155.793743 
L 410.878874 151.961347 
L 411.099204 151.961347 
L 411.099204 148.12895 
L 411.399533 148.12895 
L 411.399533 144.296554 
L 411.679311 144.296554 
L 411.679311 140.464158 
L 411.896459 140.464158 
L 411.896459 136.631762 
L 411.995307 136.631762 
L 411.995307 132.799366 
L 412.093978 132.799366 
L 412.093978 128.96697 
L 412.192471 128.96697 
L 412.192471 125.134574 
L 415.71784 125.134574 
L 415.71784 121.302178 
L 415.71784 121.302178 
L 415.71784 121.302178 
L 460.8 121.302178 
" clip-path="url(#pd501502794)" style="fill: none; stroke: #f5deb3; stroke-width: 1.5; stroke-linecap: square"/>
   </g>
   <g id="line2d_13">
    <path d="M 311.055413 293.76 
L 311.055413 289.927604 
L 311.055413 289.927604 
L 311.055413 286.095208 
L 311.935005 286.095208 
L 311.935005 282.262812 
L 311.935005 282.262812 
L 311.935005 278.430416 
L 313.256931 278.430416 
L 313.256931 274.59802 
L 313.39872 274.59802 
L 313.39872 270.765624 
L 313.39872 270.765624 
L 313.39872 266.933228 
L 313.39872 266.933228 
L 313.39872 263.100832 
L 314.158116 263.100832 
L 314.158116 259.268436 
L 316.402079 259.268436 
L 316.402079 255.43604 
L 316.402079 255.43604 
L 316.402079 251.603644 
L 316.402079 251.603644 
L 316.402079 247.771248 
L 316.50923 247.771248 
L 316.50923 243.938851 
L 316.50923 243.938851 
L 316.50923 240.106455 
L 316.50923 240.106455 
L 316.50923 236.274059 
L 316.50923 236.274059 
L 316.50923 236.274059 
L 460.8 236.274059 
" clip-path="url(#pd501502794)" style="fill: none; stroke: #f5deb3; stroke-width: 1.5; stroke-linecap: square"/>
   </g>
   <g id="line2d_14">
    <path d="M 176.742127 293.76 
L 176.742127 289.927604 
L 178.421607 289.927604 
L 178.421607 286.095208 
L 179.405181 286.095208 
L 179.405181 282.262812 
L 180.689795 282.262812 
L 180.689795 278.430416 
L 181.006307 278.430416 
L 181.006307 274.59802 
L 181.006307 274.59802 
L 181.006307 270.765624 
L 181.321006 270.765624 
L 181.321006 266.933228 
L 181.633911 266.933228 
L 181.633911 263.100832 
L 182.254423 263.100832 
L 182.254423 259.268436 
L 182.254423 259.268436 
L 182.254423 255.43604 
L 182.254423 255.43604 
L 182.254423 251.603644 
L 182.254423 251.603644 
L 182.254423 247.771248 
L 182.562069 247.771248 
L 182.562069 243.938851 
L 182.868002 243.938851 
L 182.868002 240.106455 
L 182.868002 240.106455 
L 182.868002 236.274059 
L 260.12829 236.274059 
L 260.12829 232.441663 
L 261.237716 232.441663 
L 261.237716 228.609267 
L 262.825375 228.609267 
L 262.825375 224.776871 
L 263.391511 224.776871 
L 263.391511 220.944475 
L 263.882137 220.944475 
L 263.882137 217.112079 
L 266.471649 217.112079 
L 266.471649 213.279683 
L 266.670977 213.279683 
L 266.670977 209.447287 
L 266.803461 209.447287 
L 266.803461 205.614891 
L 267.330225 205.614891 
L 267.330225 201.782495 
L 268.111016 201.782495 
L 268.111016 197.950099 
L 268.304492 197.950099 
L 268.304492 194.117703 
L 268.433098 194.117703 
L 268.433098 190.285307 
L 269.765583 190.285307 
L 269.765583 186.452911 
L 270.140429 186.452911 
L 270.140429 182.620515 
L 270.388913 182.620515 
L 270.388913 178.788119 
L 279.975877 178.788119 
L 279.975877 174.955723 
L 283.259115 174.955723 
L 283.259115 171.123327 
L 283.649969 171.123327 
L 283.649969 167.290931 
L 285.233465 167.290931 
L 285.233465 163.458535 
L 285.657519 163.458535 
L 285.657519 159.626139 
L 286.1714 159.626139 
L 286.1714 155.793743 
L 287.04784 155.793743 
L 287.04784 151.961347 
L 288.000536 151.961347 
L 288.000536 148.12895 
L 288.403828 148.12895 
L 288.403828 144.296554 
L 290.591955 144.296554 
L 290.591955 140.464158 
L 297.402128 140.464158 
L 297.402128 136.631762 
L 299.992927 136.631762 
L 299.992927 132.799366 
L 303.865941 132.799366 
L 303.865941 128.96697 
L 461.8 128.96697 
" clip-path="url(#pd501502794)" style="fill: none; stroke: #f5deb3; stroke-width: 1.5; stroke-linecap: square"/>
   </g>
   <g id="line2d_15"/>
   <g id="line2d_16">
    <path d="M 322.607296 293.76 
L 322.607296 289.927604 
L 323.060449 289.927604 
L 323.060449 286.095208 
L 324.095719 286.095208 
L 324.095719 282.262812 
L 324.559921 282.262812 
L 324.559921 278.430416 
L 328.655948 278.430416 
L 328.655948 274.59802 
L 332.126276 274.59802 
L 332.126276 270.765624 
L 334.336582 270.765624 
L 334.336582 266.933228 
L 336.031674 266.933228 
L 336.031674 263.100832 
L 336.850757 263.100832 
L 336.850757 259.268436 
L 337.12722 259.268436 
L 337.12722 255.43604 
L 338.165268 255.43604 
L 338.165268 251.603644 
L 338.560728 251.603644 
L 338.560728 247.771248 
L 342.114917 247.771248 
L 342.114917 243.938851 
L 343.19546 243.938851 
L 343.19546 240.106455 
L 354.035366 240.106455 
L 354.035366 236.274059 
L 415.409354 236.274059 
L 415.409354 232.441663 
L 416.111935 232.441663 
L 416.111935 228.609267 
L 419.348131 228.609267 
L 419.348131 224.776871 
L 420.338715 224.776871 
L 420.338715 220.944475 
L 420.568509 220.944475 
L 420.568509 217.112079 
L 421.228333 217.112079 
L 421.228333 213.279683 
L 422.454739 213.279683 
L 422.454739 209.447287 
L 423.650549 209.447287 
L 423.650549 205.614891 
L 424.61571 205.614891 
L 424.61571 201.782495 
L 425.310161 201.782495 
L 425.310161 197.950099 
L 427.897829 197.950099 
L 427.897829 194.117703 
L 428.764021 194.117703 
L 428.764021 190.285307 
L 430.321894 190.285307 
L 430.321894 186.452911 
L 431.111133 186.452911 
L 431.111133 182.620515 
L 431.276899 182.620515 
L 431.276899 178.788119 
L 440.098867 178.788119 
L 440.098867 174.955723 
L 441.043527 174.955723 
L 441.043527 171.123327 
L 442.498235 171.123327 
L 442.498235 167.290931 
L 443.01392 167.290931 
L 443.01392 163.458535 
L 443.516862 163.458535 
L 443.516862 159.626139 
L 443.744198 159.626139 
L 443.744198 155.793743 
L 443.925917 155.793743 
L 444.030987 148.12895 
L 444.548143 148.12895 
L 444.548143 144.296554 
L 445.160826 144.296554 
L 445.160826 140.464158 
L 445.888658 140.464158 
L 445.888658 136.631762 
L 446.033074 136.631762 
L 446.033074 132.799366 
L 446.909117 132.799366 
L 446.909117 128.96697 
L 447.137743 128.96697 
L 447.137743 125.134574 
L 447.935407 125.134574 
L 447.935407 121.302178 
L 452.336946 121.302178 
L 452.336946 117.469782 
L 461.8 117.469782 
L 461.8 117.469782 
" clip-path="url(#pd501502794)" style="fill: none; stroke: #f5deb3; stroke-width: 1.5; stroke-linecap: square"/>
   </g>
   <g id="line2d_17">
    <path d="M 349.281722 293.76 
L 349.281722 289.927604 
L 355.633386 289.927604 
L 355.633386 286.095208 
L 355.633386 286.095208 
L 355.633386 282.262812 
L 355.764478 282.262812 
L 355.764478 278.430416 
L 358.472451 278.430416 
L 358.472451 274.59802 
L 371.778084 274.59802 
L 371.778084 270.765624 
L 377.820588 270.765624 
L 377.820588 266.933228 
L 381.946509 266.933228 
L 381.946509 263.100832 
L 383.603804 263.100832 
L 383.603804 259.268436 
L 383.934048 259.268436 
L 383.934048 255.43604 
L 391.042027 255.43604 
L 391.042027 251.603644 
L 393.638284 251.603644 
L 393.638284 247.771248 
L 397.075952 247.771248 
L 397.075952 243.938851 
L 407.57548 243.938851 
L 407.57548 240.106455 
L 412.584687 240.106455 
L 412.584687 236.274059 
L 461.8 236.274059 
" clip-path="url(#pd501502794)" style="fill: none; stroke: #f5deb3; stroke-width: 1.5; stroke-linecap: square"/>
   </g>
   <g id="line2d_18">
    <path d="M 104.243462 293.76 
L 104.243462 289.927604 
L 104.243462 289.927604 
L 104.243462 286.095208 
L 104.243462 286.095208 
L 104.243462 282.262812 
L 104.243462 282.262812 
L 104.243462 278.430416 
L 104.243462 278.430416 
L 104.243462 274.59802 
L 104.243462 274.59802 
L 104.243462 270.765624 
L 104.243462 270.765624 
L 104.243462 266.933228 
L 104.243462 266.933228 
L 104.243462 263.100832 
L 105.505926 263.100832 
L 105.505926 259.268436 
L 105.505926 259.268436 
L 105.505926 255.43604 
L 105.505926 255.43604 
L 105.505926 251.603644 
L 105.505926 251.603644 
L 105.505926 247.771248 
L 105.505926 247.771248 
L 105.505926 243.938851 
L 105.505926 243.938851 
L 105.505926 240.106455 
L 107.946982 240.106455 
L 107.946982 236.274059 
L 109.12799 236.274059 
L 109.12799 232.441663 
L 109.12799 232.441663 
L 109.12799 228.609267 
L 112.525861 228.609267 
L 112.525861 224.776871 
L 113.613317 224.776871 
L 113.613317 220.944475 
L 115.725683 220.944475 
L 115.725683 217.112079 
L 121.615042 217.112079 
L 121.615042 213.279683 
L 122.538001 213.279683 
L 122.538001 209.447287 
L 122.538001 209.447287 
L 122.538001 205.614891 
L 125.2173 205.614891 
L 125.2173 201.782495 
L 136.237077 201.782495 
L 136.237077 197.950099 
L 136.945664 197.950099 
L 136.945664 194.117703 
L 136.945664 194.117703 
L 136.945664 190.285307 
L 141.015284 190.285307 
L 141.015284 186.452911 
L 142.307455 186.452911 
L 142.307455 182.620515 
L 144.19043 182.620515 
L 144.19043 178.788119 
L 461.8 178.788119 
" clip-path="url(#pd501502794)" style="fill: none; stroke: #f5deb3; stroke-width: 1.5; stroke-linecap: square"/>
   </g>
   <g id="line2d_19">
    <path d="M 400.066146 293.76 
L 400.066146 289.927604 
L 407.011932 289.927604 
L 407.011932 286.095208 
L 410.362922 286.095208 
L 410.362922 282.262812 
L 411.910591 282.262812 
L 411.910591 278.430416 
L 413.420418 278.430416 
L 413.420418 274.59802 
L 414.715572 274.59802 
L 414.715572 270.765624 
L 420.128235 270.765624 
L 420.128235 266.933228 
L 420.136346 266.933228 
L 420.136346 263.100832 
L 422.699089 263.100832 
L 422.699089 259.268436 
L 423.904793 259.268436 
L 423.904793 255.43604 
L 423.931288 255.43604 
L 423.931288 251.603644 
L 423.938856 251.603644 
L 423.938856 247.771248 
L 423.946422 247.771248 
L 423.946422 243.938851 
L 426.228691 243.938851 
L 426.228691 240.106455 
L 436.942779 240.106455 
L 436.942779 236.274059 
L 461.8 236.274059 
" clip-path="url(#pd501502794)" style="fill: none; stroke: #f5deb3; stroke-width: 1.5; stroke-linecap: square"/>
   </g>
   <g id="line2d_20">
    <path d="M 174.30107 293.76 
L 174.30107 289.927604 
L 181.321006 289.927604 
L 181.321006 286.095208 
L 181.945043 286.095208 
L 181.945043 282.262812 
L 186.125356 282.262812 
L 186.125356 278.430416 
L 194.136826 278.430416 
L 194.136826 274.59802 
L 197.275665 274.59802 
L 197.275665 270.765624 
L 198.665986 270.765624 
L 198.665986 266.933228 
L 199.348165 266.933228 
L 199.348165 263.100832 
L 205.539287 263.100832 
L 205.539287 259.268436 
L 208.103097 259.268436 
L 208.103097 255.43604 
L 209.810428 255.43604 
L 209.810428 251.603644 
L 212.365063 251.603644 
L 212.365063 247.771248 
L 214.806119 247.771248 
L 214.806119 243.938851 
L 218.594844 243.938851 
L 218.594844 240.106455 
L 227.939725 240.106455 
L 227.939725 236.274059 
L 302.189809 236.274059 
L 302.189809 232.441663 
L 303.460166 232.441663 
L 303.460166 228.609267 
L 305.851027 228.609267 
L 305.851027 224.776871 
L 306.400664 224.776871 
L 306.400664 220.944475 
L 310.071305 220.944475 
L 310.071305 217.112079 
L 312.34071 217.112079 
L 312.34071 213.279683 
L 312.34071 213.279683 
L 312.34071 209.447287 
L 312.628674 209.447287 
L 312.628674 205.614891 
L 312.628674 205.614891 
L 312.628674 201.782495 
L 312.772092 201.782495 
L 312.772092 197.950099 
L 313.200113 197.950099 
L 313.200113 194.117703 
L 316.133284 194.117703 
L 316.133284 190.285307 
L 316.749558 190.285307 
L 316.749558 186.452911 
L 318.377169 186.452911 
L 318.377169 182.620515 
L 326.288945 182.620515 
L 326.288945 178.788119 
L 411.013093 178.788119 
L 411.013093 174.955723 
L 411.385269 174.955723 
L 411.385269 171.123327 
L 415.774939 171.123327 
L 415.774939 167.290931 
L 420.801352 167.290931 
L 420.801352 163.458535 
L 421.915665 163.458535 
L 421.915665 159.626139 
L 422.017635 159.626139 
L 422.017635 155.793743 
L 422.158513 155.793743 
L 422.158513 151.961347 
L 422.404182 151.961347 
L 422.404182 148.12895 
L 425.637615 148.12895 
L 425.637615 144.296554 
L 461.8 144.296554 
" clip-path="url(#pd501502794)" style="fill: none; stroke: #f5deb3; stroke-width: 1.5; stroke-linecap: square"/>
   </g>
   <g id="line2d_21">
    <path d="M 380.346537 293.76 
L 380.446869 263.100832 
L 380.471923 263.100832 
L 380.513655 255.43604 
L 380.954072 255.43604 
L 380.954072 251.603644 
L 381.759239 251.603644 
L 381.759239 247.771248 
L 386.768049 247.771248 
L 386.768049 243.938851 
L 388.418145 243.938851 
L 388.526409 174.955723 
L 388.533619 174.955723 
L 388.540828 128.96697 
L 388.713561 128.96697 
L 388.806898 90.64301 
L 388.835586 90.64301 
L 388.928716 48.486653 
L 390.013084 48.486653 
L 390.013084 44.654257 
L 390.314026 44.654257 
L 390.314026 40.821861 
L 390.578609 40.821861 
L 390.578609 36.989465 
L 392.670657 36.989465 
L 392.670657 33.157069 
L 398.561377 33.157069 
L 398.561377 29.324673 
L 398.561377 29.324673 
L 460.8 29.324673 
L 460.8 29.324673 
" clip-path="url(#pd501502794)" style="fill: none; stroke: #f5deb3; stroke-width: 1.5; stroke-linecap: square"/>
   </g>
   <g id="line2d_22">
    <path d="M 200.244752 293.76 
L 200.244752 289.927604 
L 204.314372 289.927604 
L 204.314372 286.095208 
L 209.810428 286.095208 
L 209.810428 282.262812 
L 213.07365 282.262812 
L 213.07365 278.430416 
L 216.979589 278.430416 
L 216.979589 274.59802 
L 220.626062 274.59802 
L 220.626062 270.765624 
L 220.779241 270.765624 
L 220.779241 266.933228 
L 221.538793 266.933228 
L 221.538793 263.100832 
L 222.880061 263.100832 
L 222.880061 259.268436 
L 223.319968 259.268436 
L 223.319968 255.43604 
L 227.264259 255.43604 
L 227.264259 251.603644 
L 227.535443 251.603644 
L 227.535443 247.771248 
L 228.474179 247.771248 
L 228.474179 243.938851 
L 233.185863 243.938851 
L 233.185863 240.106455 
L 251.488536 240.106455 
L 251.488536 236.274059 
L 306.753402 236.274059 
L 306.753402 232.441663 
L 316.562727 232.441663 
L 316.562727 228.609267 
L 316.562727 228.609267 
L 316.562727 224.776871 
L 317.437987 224.776871 
L 317.437987 220.944475 
L 318.273605 220.944475 
L 318.273605 217.112079 
L 319.122222 217.112079 
L 319.122222 213.279683 
L 322.439397 213.279683 
L 322.439397 209.447287 
L 322.72691 209.447287 
L 322.72691 205.614891 
L 323.036692 205.614891 
L 323.036692 201.782495 
L 323.838726 201.782495 
L 323.838726 197.950099 
L 325.612924 197.950099 
L 325.612924 194.117703 
L 329.886225 194.117703 
L 329.886225 190.285307 
L 330.283327 190.285307 
L 330.283327 186.452911 
L 332.766922 186.452911 
L 332.766922 182.620515 
L 336.087911 182.620515 
L 336.087911 178.788119 
L 353.682913 178.788119 
L 353.682913 174.955723 
L 356.116874 174.955723 
L 356.116874 171.123327 
L 361.254923 171.123327 
L 361.254923 167.290931 
L 361.656279 167.290931 
L 361.656279 163.458535 
L 362.078071 163.458535 
L 362.078071 159.626139 
L 364.698981 159.626139 
L 364.698981 155.793743 
L 365.053915 155.793743 
L 365.053915 151.961347 
L 365.767888 151.961347 
L 365.767888 148.12895 
L 365.942221 148.12895 
L 365.942221 144.296554 
L 366.050898 144.296554 
L 366.050898 140.464158 
L 366.256795 140.464158 
L 366.256795 136.631762 
L 366.880588 136.631762 
L 366.880588 132.799366 
L 369.52168 132.799366 
L 369.52168 128.96697 
L 372.51651 128.96697 
L 372.51651 125.134574 
L 376.337396 125.134574 
L 376.337396 121.302178 
L 376.337396 121.302178 
L 376.337396 121.302178 
L 460.8 121.302178 
" clip-path="url(#pd501502794)" style="fill: none; stroke: #f5deb3; stroke-width: 1.5; stroke-linecap: square"/>
   </g>
   <g id="line2d_23">
    <path d="M 256.179229 293.76 
L 256.179229 289.927604 
L 265.531765 289.927604 
L 265.531765 286.095208 
L 267.526466 286.095208 
L 267.526466 282.262812 
L 268.497288 282.262812 
L 268.497288 278.430416 
L 270.140429 278.430416 
L 270.140429 274.59802 
L 272.754463 274.59802 
L 272.754463 270.765624 
L 274.851144 270.765624 
L 274.851144 266.933228 
L 287.093583 266.933228 
L 287.093583 263.100832 
L 443.828548 263.100832 
L 443.828548 259.268436 
L 446.594448 259.268436 
L 446.594448 255.43604 
L 446.707037 255.43604 
L 446.707037 251.603644 
L 447.530637 251.603644 
L 447.530637 247.771248 
L 448.930867 247.771248 
L 448.930867 243.938851 
L 449.129725 243.938851 
L 449.129725 240.106455 
L 450.609118 240.106455 
L 450.609118 236.274059 
L 450.653332 236.274059 
L 450.653332 232.441663 
L 451.0127 232.441663 
L 451.0127 228.609267 
L 451.204174 228.609267 
L 451.204174 224.776871 
L 451.824738 224.776871 
L 451.824738 220.944475 
L 452.246637 220.944475 
L 452.246637 217.112079 
L 455.15111 217.112079 
L 455.15111 213.279683 
L 457.133761 213.279683 
L 457.133761 209.447287 
L 461.8 209.447287 
" clip-path="url(#pd501502794)" style="fill: none; stroke: #f5deb3; stroke-width: 1.5; stroke-linecap: square"/>
   </g>
   <g id="line2d_24">
    <path d="M 315.917297 293.76 
L 315.917297 289.927604 
L 323.012925 289.927604 
L 323.012925 286.095208 
L 334.39458 286.095208 
L 334.39458 282.262812 
L 334.452517 282.262812 
L 334.452517 278.430416 
L 334.471816 278.430416 
L 334.471816 274.59802 
L 337.657801 274.59802 
L 337.657801 270.765624 
L 339.677676 270.765624 
L 339.677676 266.933228 
L 339.782877 266.933228 
L 339.782877 263.100832 
L 344.400278 263.100832 
L 344.400278 259.268436 
L 344.673367 259.268436 
L 344.673367 255.43604 
L 348.793325 255.43604 
L 348.793325 251.603644 
L 348.897288 251.603644 
L 348.897288 247.771248 
L 352.874623 247.771248 
L 352.874623 243.938851 
L 356.660588 243.938851 
L 356.660588 240.106455 
L 356.712091 240.106455 
L 356.712091 236.274059 
L 444.057223 236.274059 
L 444.057223 232.441663 
L 446.524275 232.441663 
L 446.524275 228.609267 
L 447.82531 228.609267 
L 447.82531 224.776871 
L 451.176532 224.776871 
L 451.176532 220.944475 
L 452.528362 220.944475 
L 452.528362 217.112079 
L 453.311803 217.112079 
L 453.311803 213.279683 
L 454.619176 213.279683 
L 454.619176 209.447287 
L 455.118953 209.447287 
L 455.118953 205.614891 
L 456.233397 205.614891 
L 456.233397 201.782495 
L 457.799477 201.782495 
L 457.799477 197.950099 
L 458.021635 197.950099 
L 458.021635 194.117703 
L 458.060268 194.117703 
L 458.060268 190.285307 
L 458.216555 190.285307 
L 458.216555 186.452911 
L 460.464283 186.452911 
L 460.464283 182.620515 
L 461.8 182.620515 
" clip-path="url(#pd501502794)" style="fill: none; stroke: #f5deb3; stroke-width: 1.5; stroke-linecap: square"/>
   </g>
   <g id="line2d_25">
    <path d="M 262.253341 293.76 
L 262.253341 289.927604 
L 265.599436 289.927604 
L 265.599436 286.095208 
L 266.271595 286.095208 
L 266.271595 282.262812 
L 267.330225 282.262812 
L 267.330225 278.430416 
L 279.767274 278.430416 
L 279.767274 274.59802 
L 281.160207 274.59802 
L 281.160207 270.765624 
L 281.465007 270.765624 
L 281.465007 266.933228 
L 285.375181 266.933228 
L 285.375181 263.100832 
L 292.861135 263.100832 
L 292.861135 259.268436 
L 297.930159 259.268436 
L 297.930159 255.43604 
L 299.081609 255.43604 
L 299.081609 251.603644 
L 304.402353 251.603644 
L 304.402353 247.771248 
L 305.263 247.771248 
L 305.263 243.938851 
L 308.731112 243.938851 
L 308.731112 240.106455 
L 383.398367 240.106455 
L 383.398367 236.274059 
L 461.8 236.274059 
" clip-path="url(#pd501502794)" style="fill: none; stroke: #f5deb3; stroke-width: 1.5; stroke-linecap: square"/>
   </g>
   <g id="line2d_26">
    <path d="M 303.595758 293.76 
L 303.595758 289.927604 
L 304.469038 289.927604 
L 304.469038 286.095208 
L 307.578249 286.095208 
L 307.578249 282.262812 
L 308.328804 282.262812 
L 308.328804 278.430416 
L 308.452905 278.430416 
L 308.452905 274.59802 
L 308.731112 274.59802 
L 308.731112 270.765624 
L 308.761937 270.765624 
L 308.761937 266.933228 
L 309.587738 266.933228 
L 309.587738 263.100832 
L 309.587738 263.100832 
L 309.587738 259.268436 
L 310.640064 259.268436 
L 310.640064 255.43604 
L 311.701821 255.43604 
L 311.701821 251.603644 
L 312.254025 251.603644 
L 312.254025 247.771248 
L 313.511888 247.771248 
L 313.511888 243.938851 
L 313.765666 243.938851 
L 313.765666 240.106455 
L 327.485199 240.106455 
L 327.485199 236.274059 
L 383.056911 236.274059 
L 383.056911 232.441663 
L 388.627262 232.441663 
L 388.627262 228.609267 
L 395.231066 228.609267 
L 395.231066 224.776871 
L 395.644319 224.776871 
L 395.644319 220.944475 
L 396.136152 220.944475 
L 396.136152 217.112079 
L 396.511511 217.112079 
L 396.511511 213.279683 
L 396.952396 213.279683 
L 396.952396 209.447287 
L 397.309947 209.447287 
L 397.309947 205.614891 
L 400.595379 205.614891 
L 400.595379 201.782495 
L 400.659008 201.782495 
L 400.659008 197.950099 
L 401.073678 197.950099 
L 401.073678 194.117703 
L 402.64601 194.117703 
L 402.64601 190.285307 
L 402.690597 190.285307 
L 402.690597 186.452911 
L 406.676187 186.452911 
L 406.676187 182.620515 
L 407.02223 182.620515 
L 407.02223 178.788119 
L 439.031422 178.788119 
L 439.031422 174.955723 
L 441.740141 174.955723 
L 441.740141 171.123327 
L 441.863124 171.123327 
L 441.863124 167.290931 
L 442.284638 167.290931 
L 442.284638 163.458535 
L 442.333378 163.458535 
L 442.333378 159.626139 
L 444.078203 159.626139 
L 444.078203 155.793743 
L 444.688344 155.793743 
L 444.688344 151.961347 
L 444.887644 151.961347 
L 444.887644 148.12895 
L 444.905726 148.12895 
L 444.905726 144.296554 
L 445.029559 144.296554 
L 445.029559 140.464158 
L 447.587239 140.464158 
L 447.587239 136.631762 
L 449.430236 136.631762 
L 449.430236 132.799366 
L 449.969874 132.799366 
L 449.969874 128.96697 
L 461.8 128.96697 
" clip-path="url(#pd501502794)" style="fill: none; stroke: #f5deb3; stroke-width: 1.5; stroke-linecap: square"/>
   </g>
   <g id="line2d_27">
    <path d="M 257.917683 293.76 
L 257.917683 289.927604 
L 257.917683 289.927604 
L 257.917683 286.095208 
L 261.747876 286.095208 
L 261.747876 282.262812 
L 263.321062 282.262812 
L 263.321062 278.430416 
L 265.396173 278.430416 
L 265.396173 274.59802 
L 276.094123 274.59802 
L 276.094123 270.765624 
L 281.566233 270.765624 
L 281.566233 266.933228 
L 281.616775 266.933228 
L 281.616775 263.100832 
L 281.919059 263.100832 
L 281.919059 259.268436 
L 284.231082 259.268436 
L 284.231082 255.43604 
L 288.090412 255.43604 
L 288.090412 251.603644 
L 293.475171 251.603644 
L 293.475171 247.771248 
L 297.591294 247.771248 
L 297.591294 243.938851 
L 298.005179 243.938851 
L 298.005179 240.106455 
L 302.363206 240.106455 
L 302.363206 236.274059 
L 316.402079 236.274059 
L 316.402079 232.441663 
L 320.706774 232.441663 
L 320.706774 228.609267 
L 320.929452 228.609267 
L 320.929452 224.776871 
L 321.175817 224.776871 
L 321.175817 220.944475 
L 321.323107 220.944475 
L 321.323107 217.112079 
L 321.470004 217.112079 
L 321.470004 213.279683 
L 321.470004 213.279683 
L 321.470004 209.447287 
L 321.640888 209.447287 
L 321.640888 205.614891 
L 322.005287 205.614891 
L 322.005287 201.782495 
L 322.174516 201.782495 
L 322.174516 197.950099 
L 322.41537 197.950099 
L 322.41537 194.117703 
L 323.62756 194.117703 
L 323.62756 190.285307 
L 323.674556 190.285307 
L 323.674556 186.452911 
L 324.142316 186.452911 
L 324.142316 182.620515 
L 325.134709 182.620515 
L 325.134709 178.788119 
L 461.8 178.788119 
" clip-path="url(#pd501502794)" style="fill: none; stroke: #f5deb3; stroke-width: 1.5; stroke-linecap: square"/>
   </g>
   <g id="line2d_28">
    <path d="M 225.18653 293.76 
L 225.18653 289.927604 
L 225.327518 289.927604 
L 225.327518 286.095208 
L 225.468145 286.095208 
L 225.468145 282.262812 
L 225.608413 282.262812 
L 225.608413 278.430416 
L 230.944134 278.430416 
L 230.944134 274.59802 
L 230.944134 274.59802 
L 230.944134 270.765624 
L 230.944134 270.765624 
L 230.944134 266.933228 
L 230.944134 266.933228 
L 230.944134 263.100832 
L 231.071105 263.100832 
L 231.071105 259.268436 
L 236.15495 259.268436 
L 236.15495 255.43604 
L 236.15495 255.43604 
L 236.15495 251.603644 
L 236.500689 251.603644 
L 236.500689 247.771248 
L 241.441408 247.771248 
L 241.441408 243.938851 
L 245.390897 243.938851 
L 245.390897 240.106455 
L 253.46379 240.106455 
L 253.46379 236.274059 
L 415.475604 236.274059 
L 415.475604 232.441663 
L 415.651881 232.441663 
L 415.651881 228.609267 
L 415.783719 228.609267 
L 415.783719 224.776871 
L 415.906482 224.776871 
L 415.906482 220.944475 
L 415.980884 220.944475 
L 415.980884 217.112079 
L 416.728034 217.112079 
L 416.728034 213.279683 
L 417.080687 213.279683 
L 417.080687 209.447287 
L 417.166358 209.447287 
L 417.166358 205.614891 
L 417.187754 205.614891 
L 417.187754 201.782495 
L 417.868085 201.782495 
L 417.868085 197.950099 
L 417.960975 197.950099 
L 417.960975 194.117703 
L 418.677674 194.117703 
L 418.677674 190.285307 
L 419.302865 190.285307 
L 419.302865 186.452911 
L 419.598481 186.452911 
L 419.598481 182.620515 
L 419.876221 182.620515 
L 419.876221 178.788119 
L 438.723001 178.788119 
L 438.723001 174.955723 
L 440.968661 174.955723 
L 440.968661 171.123327 
L 441.12936 171.123327 
L 441.12936 167.290931 
L 441.994004 167.290931 
L 441.994004 163.458535 
L 442.043003 163.458535 
L 442.043003 159.626139 
L 442.711005 159.626139 
L 442.711005 155.793743 
L 443.115412 155.793743 
L 443.115412 151.961347 
L 443.214052 151.961347 
L 443.214052 148.12895 
L 443.264637 148.12895 
L 443.264637 144.296554 
L 443.620073 144.296554 
L 443.620073 140.464158 
L 443.633291 140.464158 
L 443.633291 136.631762 
L 443.981104 136.631762 
L 443.981104 132.799366 
L 444.227453 132.799366 
L 444.227453 128.96697 
L 445.034713 128.96697 
L 445.034713 125.134574 
L 448.634843 125.134574 
L 448.634843 121.302178 
L 448.634843 121.302178 
L 448.634843 121.302178 
L 460.8 121.302178 
" clip-path="url(#pd501502794)" style="fill: none; stroke: #f5deb3; stroke-width: 1.5; stroke-linecap: square"/>
   </g>
   <g id="line2d_29">
    <path d="M 100.271993 293.76 
L 100.271993 289.927604 
L 100.271993 289.927604 
L 100.271993 286.095208 
L 100.271993 286.095208 
L 100.271993 282.262812 
L 100.271993 282.262812 
L 100.271993 278.430416 
L 100.271993 278.430416 
L 100.271993 274.59802 
L 100.271993 274.59802 
L 100.271993 270.765624 
L 101.627981 270.765624 
L 101.627981 266.933228 
L 101.627981 266.933228 
L 101.627981 263.100832 
L 101.627981 263.100832 
L 101.627981 259.268436 
L 101.627981 259.268436 
L 101.627981 255.43604 
L 101.627981 255.43604 
L 101.627981 251.603644 
L 101.627981 251.603644 
L 101.627981 247.771248 
L 101.627981 247.771248 
L 101.627981 243.938851 
L 101.627981 243.938851 
L 101.627981 240.106455 
L 101.627981 240.106455 
L 101.627981 236.274059 
L 127.771934 236.274059 
L 127.771934 232.441663 
L 127.771934 232.441663 
L 127.771934 228.609267 
L 127.771934 228.609267 
L 127.771934 224.776871 
L 219.541674 224.776871 
L 219.541674 220.944475 
L 219.541674 220.944475 
L 219.541674 217.112079 
L 219.541674 217.112079 
L 219.541674 213.279683 
L 220.318415 213.279683 
L 220.318415 209.447287 
L 220.318415 209.447287 
L 220.318415 205.614891 
L 220.318415 205.614891 
L 220.318415 201.782495 
L 220.931994 201.782495 
L 220.931994 197.950099 
L 220.931994 197.950099 
L 220.931994 194.117703 
L 220.931994 194.117703 
L 220.931994 190.285307 
L 221.236232 190.285307 
L 221.236232 186.452911 
L 221.236232 186.452911 
L 221.236232 182.620515 
L 221.236232 182.620515 
L 221.236232 178.788119 
L 221.236232 178.788119 
L 221.236232 178.788119 
L 460.8 178.788119 
" clip-path="url(#pd501502794)" style="fill: none; stroke: #f5deb3; stroke-width: 1.5; stroke-linecap: square"/>
   </g>
   <g id="line2d_30">
    <path d="M 221.084324 293.76 
L 221.084324 289.927604 
L 221.084324 289.927604 
L 221.084324 286.095208 
L 221.839697 286.095208 
L 221.839697 282.262812 
L 223.173723 282.262812 
L 223.173723 278.430416 
L 223.756378 278.430416 
L 223.756378 274.59802 
L 223.756378 274.59802 
L 223.756378 270.765624 
L 224.618931 270.765624 
L 224.618931 266.933228 
L 224.903464 266.933228 
L 224.903464 263.100832 
L 225.04518 263.100832 
L 225.04518 259.268436 
L 225.18653 259.268436 
L 225.18653 255.43604 
L 225.608413 255.43604 
L 225.608413 251.603644 
L 226.442577 251.603644 
L 226.442577 247.771248 
L 227.128163 247.771248 
L 227.128163 243.938851 
L 227.264259 243.938851 
L 227.264259 240.106455 
L 228.474179 240.106455 
L 228.474179 236.274059 
L 228.739468 236.274059 
L 228.739468 232.441663 
L 229.135014 232.441663 
L 229.135014 228.609267 
L 230.047024 228.609267 
L 230.047024 224.776871 
L 230.433296 224.776871 
L 230.433296 220.944475 
L 230.944134 220.944475 
L 230.944134 217.112079 
L 231.826824 217.112079 
L 231.826824 213.279683 
L 232.200819 213.279683 
L 232.200819 209.447287 
L 233.429388 209.447287 
L 233.429388 205.614891 
L 234.749805 205.614891 
L 234.749805 201.782495 
L 235.104477 201.782495 
L 235.104477 197.950099 
L 235.339658 197.950099 
L 235.339658 194.117703 
L 236.270438 194.117703 
L 236.270438 190.285307 
L 236.958315 190.285307 
L 236.958315 186.452911 
L 237.185705 186.452911 
L 237.185705 182.620515 
L 249.348731 182.620515 
L 249.348731 178.788119 
L 253.54808 178.788119 
L 253.54808 174.955723 
L 253.54808 174.955723 
L 253.54808 171.123327 
L 253.54808 171.123327 
L 253.54808 167.290931 
L 253.54808 167.290931 
L 253.54808 163.458535 
L 253.54808 163.458535 
L 253.54808 159.626139 
L 253.54808 159.626139 
L 253.54808 155.793743 
L 253.54808 155.793743 
L 253.54808 151.961347 
L 253.54808 151.961347 
L 253.54808 148.12895 
L 253.54808 148.12895 
L 253.54808 144.296554 
L 253.54808 144.296554 
L 253.54808 140.464158 
L 253.54808 140.464158 
L 253.54808 136.631762 
L 253.54808 136.631762 
L 253.54808 132.799366 
L 253.54808 132.799366 
L 253.54808 128.96697 
L 253.54808 128.96697 
L 253.54808 125.134574 
L 253.54808 125.134574 
L 253.54808 121.302178 
L 253.54808 121.302178 
L 253.54808 121.302178 
L 460.8 121.302178 
" clip-path="url(#pd501502794)" style="fill: none; stroke: #f5deb3; stroke-width: 1.5; stroke-linecap: square"/>
   </g>
   <g id="matplotlib.axis_1">
    <g id="xtick_1">
     <g id="line2d_31">
      <path d="M 188.653846 293.76 
L 188.653846 3.456 
" clip-path="url(#pd501502794)" style="fill: none; stroke: #b0b0b0; stroke-width: 0.8; stroke-linecap: square"/>
     </g>
     <g id="line2d_32">
      <defs>
       <path id="mc89244caa0" d="M 0 0 
L 0 3.5 
" style="stroke: #000000; stroke-width: 0.8"/>
      </defs>
      <g>
       <use xlink:href="#mc89244caa0" x="188.653846" y="293.76" style="stroke: #000000; stroke-width: 0.8"/>
      </g>
     </g>
     <g id="text_1">
      <!-- 1 -->
      <g transform="translate(182.291346 315.956875)scale(0.2 -0.2)">
       <defs>
        <path id="DejaVuSans-31" d="M 794 531 
L 1825 531 
L 1825 4091 
L 703 3866 
L 703 4441 
L 1819 4666 
L 2450 4666 
L 2450 531 
L 3481 531 
L 3481 0 
L 794 0 
L 794 531 
z
" transform="scale(0.015625)"/>
       </defs>
       <use xlink:href="#DejaVuSans-31"/>
      </g>
     </g>
    </g>
    <g id="xtick_2">
     <g id="line2d_33">
      <path d="M 441.545539 293.76 
L 441.545539 3.456 
" clip-path="url(#pd501502794)" style="fill: none; stroke: #b0b0b0; stroke-width: 0.8; stroke-linecap: square"/>
     </g>
     <g id="line2d_34">
      <g>
       <use xlink:href="#mc89244caa0" x="441.545539" y="293.76" style="stroke: #000000; stroke-width: 0.8"/>
      </g>
     </g>
     <g id="text_2">
      <!-- 3 -->
      <g transform="translate(435.183039 315.956875)scale(0.2 -0.2)">
       <defs>
        <path id="DejaVuSans-33" d="M 2597 2516 
Q 3050 2419 3304 2112 
Q 3559 1806 3559 1356 
Q 3559 666 3084 287 
Q 2609 -91 1734 -91 
Q 1441 -91 1130 -33 
Q 819 25 488 141 
L 488 750 
Q 750 597 1062 519 
Q 1375 441 1716 441 
Q 2309 441 2620 675 
Q 2931 909 2931 1356 
Q 2931 1769 2642 2001 
Q 2353 2234 1838 2234 
L 1294 2234 
L 1294 2753 
L 1863 2753 
Q 2328 2753 2575 2939 
Q 2822 3125 2822 3475 
Q 2822 3834 2567 4026 
Q 2313 4219 1838 4219 
Q 1578 4219 1281 4162 
Q 984 4106 628 3988 
L 628 4550 
Q 988 4650 1302 4700 
Q 1616 4750 1894 4750 
Q 2613 4750 3031 4423 
Q 3450 4097 3450 3541 
Q 3450 3153 3228 2886 
Q 3006 2619 2597 2516 
z
" transform="scale(0.015625)"/>
       </defs>
       <use xlink:href="#DejaVuSans-33"/>
      </g>
     </g>
    </g>
    <g id="xtick_3">
     <g id="line2d_35">
      <path d="M 100.271993 293.76 
L 100.271993 3.456 
" clip-path="url(#pd501502794)" style="fill: none; stroke: #b0b0b0; stroke-width: 0.8; stroke-linecap: square"/>
     </g>
     <g id="line2d_36">
      <defs>
       <path id="m6ddcfcb334" d="M 0 0 
L 0 2 
" style="stroke: #000000; stroke-width: 0.6"/>
      </defs>
      <g>
       <use xlink:href="#m6ddcfcb334" x="100.271993" y="293.76" style="stroke: #000000; stroke-width: 0.6"/>
      </g>
     </g>
    </g>
    <g id="xtick_4">
     <g id="line2d_37">
      <path d="M 122.538001 293.76 
L 122.538001 3.456 
" clip-path="url(#pd501502794)" style="fill: none; stroke: #b0b0b0; stroke-width: 0.8; stroke-linecap: square"/>
     </g>
     <g id="line2d_38">
      <g>
       <use xlink:href="#m6ddcfcb334" x="122.538001" y="293.76" style="stroke: #000000; stroke-width: 0.6"/>
      </g>
     </g>
    </g>
    <g id="xtick_5">
     <g id="line2d_39">
      <path d="M 138.335985 293.76 
L 138.335985 3.456 
" clip-path="url(#pd501502794)" style="fill: none; stroke: #b0b0b0; stroke-width: 0.8; stroke-linecap: square"/>
     </g>
     <g id="line2d_40">
      <g>
       <use xlink:href="#m6ddcfcb334" x="138.335985" y="293.76" style="stroke: #000000; stroke-width: 0.6"/>
      </g>
     </g>
    </g>
    <g id="xtick_6">
     <g id="line2d_41">
      <path d="M 150.589854 293.76 
L 150.589854 3.456 
" clip-path="url(#pd501502794)" style="fill: none; stroke: #b0b0b0; stroke-width: 0.8; stroke-linecap: square"/>
     </g>
     <g id="line2d_42">
      <g>
       <use xlink:href="#m6ddcfcb334" x="150.589854" y="293.76" style="stroke: #000000; stroke-width: 0.6"/>
      </g>
     </g>
    </g>
    <g id="xtick_7">
     <g id="line2d_43">
      <path d="M 160.601993 293.76 
L 160.601993 3.456 
" clip-path="url(#pd501502794)" style="fill: none; stroke: #b0b0b0; stroke-width: 0.8; stroke-linecap: square"/>
     </g>
     <g id="line2d_44">
      <g>
       <use xlink:href="#m6ddcfcb334" x="160.601993" y="293.76" style="stroke: #000000; stroke-width: 0.6"/>
      </g>
     </g>
    </g>
    <g id="xtick_8">
     <g id="line2d_45">
      <path d="M 169.067137 293.76 
L 169.067137 3.456 
" clip-path="url(#pd501502794)" style="fill: none; stroke: #b0b0b0; stroke-width: 0.8; stroke-linecap: square"/>
     </g>
     <g id="line2d_46">
      <g>
       <use xlink:href="#m6ddcfcb334" x="169.067137" y="293.76" style="stroke: #000000; stroke-width: 0.6"/>
      </g>
     </g>
    </g>
    <g id="xtick_9">
     <g id="line2d_47">
      <path d="M 176.399978 293.76 
L 176.399978 3.456 
" clip-path="url(#pd501502794)" style="fill: none; stroke: #b0b0b0; stroke-width: 0.8; stroke-linecap: square"/>
     </g>
     <g id="line2d_48">
      <g>
       <use xlink:href="#m6ddcfcb334" x="176.399978" y="293.76" style="stroke: #000000; stroke-width: 0.6"/>
      </g>
     </g>
    </g>
    <g id="xtick_10">
     <g id="line2d_49">
      <path d="M 182.868002 293.76 
L 182.868002 3.456 
" clip-path="url(#pd501502794)" style="fill: none; stroke: #b0b0b0; stroke-width: 0.8; stroke-linecap: square"/>
     </g>
     <g id="line2d_50">
      <g>
       <use xlink:href="#m6ddcfcb334" x="182.868002" y="293.76" style="stroke: #000000; stroke-width: 0.6"/>
      </g>
     </g>
    </g>
    <g id="xtick_11">
     <g id="line2d_51">
      <path d="M 226.717839 293.76 
L 226.717839 3.456 
" clip-path="url(#pd501502794)" style="fill: none; stroke: #b0b0b0; stroke-width: 0.8; stroke-linecap: square"/>
     </g>
     <g id="line2d_52">
      <g>
       <use xlink:href="#m6ddcfcb334" x="226.717839" y="293.76" style="stroke: #000000; stroke-width: 0.6"/>
      </g>
     </g>
    </g>
    <g id="xtick_12">
     <g id="line2d_53">
      <path d="M 248.983847 293.76 
L 248.983847 3.456 
" clip-path="url(#pd501502794)" style="fill: none; stroke: #b0b0b0; stroke-width: 0.8; stroke-linecap: square"/>
     </g>
     <g id="line2d_54">
      <g>
       <use xlink:href="#m6ddcfcb334" x="248.983847" y="293.76" style="stroke: #000000; stroke-width: 0.6"/>
      </g>
     </g>
    </g>
    <g id="xtick_13">
     <g id="line2d_55">
      <path d="M 264.781832 293.76 
L 264.781832 3.456 
" clip-path="url(#pd501502794)" style="fill: none; stroke: #b0b0b0; stroke-width: 0.8; stroke-linecap: square"/>
     </g>
     <g id="line2d_56">
      <g>
       <use xlink:href="#m6ddcfcb334" x="264.781832" y="293.76" style="stroke: #000000; stroke-width: 0.6"/>
      </g>
     </g>
    </g>
    <g id="xtick_14">
     <g id="line2d_57">
      <path d="M 277.0357 293.76 
L 277.0357 3.456 
" clip-path="url(#pd501502794)" style="fill: none; stroke: #b0b0b0; stroke-width: 0.8; stroke-linecap: square"/>
     </g>
     <g id="line2d_58">
      <g>
       <use xlink:href="#m6ddcfcb334" x="277.0357" y="293.76" style="stroke: #000000; stroke-width: 0.6"/>
      </g>
     </g>
    </g>
    <g id="xtick_15">
     <g id="line2d_59">
      <path d="M 287.04784 293.76 
L 287.04784 3.456 
" clip-path="url(#pd501502794)" style="fill: none; stroke: #b0b0b0; stroke-width: 0.8; stroke-linecap: square"/>
     </g>
     <g id="line2d_60">
      <g>
       <use xlink:href="#m6ddcfcb334" x="287.04784" y="293.76" style="stroke: #000000; stroke-width: 0.6"/>
      </g>
     </g>
    </g>
    <g id="xtick_16">
     <g id="line2d_61">
      <path d="M 295.512983 293.76 
L 295.512983 3.456 
" clip-path="url(#pd501502794)" style="fill: none; stroke: #b0b0b0; stroke-width: 0.8; stroke-linecap: square"/>
     </g>
     <g id="line2d_62">
      <g>
       <use xlink:href="#m6ddcfcb334" x="295.512983" y="293.76" style="stroke: #000000; stroke-width: 0.6"/>
      </g>
     </g>
    </g>
    <g id="xtick_17">
     <g id="line2d_63">
      <path d="M 302.845824 293.76 
L 302.845824 3.456 
" clip-path="url(#pd501502794)" style="fill: none; stroke: #b0b0b0; stroke-width: 0.8; stroke-linecap: square"/>
     </g>
     <g id="line2d_64">
      <g>
       <use xlink:href="#m6ddcfcb334" x="302.845824" y="293.76" style="stroke: #000000; stroke-width: 0.6"/>
      </g>
     </g>
    </g>
    <g id="xtick_18">
     <g id="line2d_65">
      <path d="M 309.313848 293.76 
L 309.313848 3.456 
" clip-path="url(#pd501502794)" style="fill: none; stroke: #b0b0b0; stroke-width: 0.8; stroke-linecap: square"/>
     </g>
     <g id="line2d_66">
      <g>
       <use xlink:href="#m6ddcfcb334" x="309.313848" y="293.76" style="stroke: #000000; stroke-width: 0.6"/>
      </g>
     </g>
    </g>
    <g id="xtick_19">
     <g id="line2d_67">
      <path d="M 353.163685 293.76 
L 353.163685 3.456 
" clip-path="url(#pd501502794)" style="fill: none; stroke: #b0b0b0; stroke-width: 0.8; stroke-linecap: square"/>
     </g>
     <g id="line2d_68">
      <g>
       <use xlink:href="#m6ddcfcb334" x="353.163685" y="293.76" style="stroke: #000000; stroke-width: 0.6"/>
      </g>
     </g>
    </g>
    <g id="xtick_20">
     <g id="line2d_69">
      <path d="M 375.429694 293.76 
L 375.429694 3.456 
" clip-path="url(#pd501502794)" style="fill: none; stroke: #b0b0b0; stroke-width: 0.8; stroke-linecap: square"/>
     </g>
     <g id="line2d_70">
      <g>
       <use xlink:href="#m6ddcfcb334" x="375.429694" y="293.76" style="stroke: #000000; stroke-width: 0.6"/>
      </g>
     </g>
    </g>
    <g id="xtick_21">
     <g id="line2d_71">
      <path d="M 391.227678 293.76 
L 391.227678 3.456 
" clip-path="url(#pd501502794)" style="fill: none; stroke: #b0b0b0; stroke-width: 0.8; stroke-linecap: square"/>
     </g>
     <g id="line2d_72">
      <g>
       <use xlink:href="#m6ddcfcb334" x="391.227678" y="293.76" style="stroke: #000000; stroke-width: 0.6"/>
      </g>
     </g>
    </g>
    <g id="xtick_22">
     <g id="line2d_73">
      <path d="M 403.481546 293.76 
L 403.481546 3.456 
" clip-path="url(#pd501502794)" style="fill: none; stroke: #b0b0b0; stroke-width: 0.8; stroke-linecap: square"/>
     </g>
     <g id="line2d_74">
      <g>
       <use xlink:href="#m6ddcfcb334" x="403.481546" y="293.76" style="stroke: #000000; stroke-width: 0.6"/>
      </g>
     </g>
    </g>
    <g id="xtick_23">
     <g id="line2d_75">
      <path d="M 413.493686 293.76 
L 413.493686 3.456 
" clip-path="url(#pd501502794)" style="fill: none; stroke: #b0b0b0; stroke-width: 0.8; stroke-linecap: square"/>
     </g>
     <g id="line2d_76">
      <g>
       <use xlink:href="#m6ddcfcb334" x="413.493686" y="293.76" style="stroke: #000000; stroke-width: 0.6"/>
      </g>
     </g>
    </g>
    <g id="xtick_24">
     <g id="line2d_77">
      <path d="M 421.95883 293.76 
L 421.95883 3.456 
" clip-path="url(#pd501502794)" style="fill: none; stroke: #b0b0b0; stroke-width: 0.8; stroke-linecap: square"/>
     </g>
     <g id="line2d_78">
      <g>
       <use xlink:href="#m6ddcfcb334" x="421.95883" y="293.76" style="stroke: #000000; stroke-width: 0.6"/>
      </g>
     </g>
    </g>
    <g id="xtick_25">
     <g id="line2d_79">
      <path d="M 429.29167 293.76 
L 429.29167 3.456 
" clip-path="url(#pd501502794)" style="fill: none; stroke: #b0b0b0; stroke-width: 0.8; stroke-linecap: square"/>
     </g>
     <g id="line2d_80">
      <g>
       <use xlink:href="#m6ddcfcb334" x="429.29167" y="293.76" style="stroke: #000000; stroke-width: 0.6"/>
      </g>
     </g>
    </g>
    <g id="xtick_26">
     <g id="line2d_81">
      <path d="M 435.759694 293.76 
L 435.759694 3.456 
" clip-path="url(#pd501502794)" style="fill: none; stroke: #b0b0b0; stroke-width: 0.8; stroke-linecap: square"/>
     </g>
     <g id="line2d_82">
      <g>
       <use xlink:href="#m6ddcfcb334" x="435.759694" y="293.76" style="stroke: #000000; stroke-width: 0.6"/>
      </g>
     </g>
    </g>
    <g id="text_3">
     <!-- log10 of FEvals / DIM -->
     <g transform="translate(156.430563 339.313125)scale(0.2 -0.2)">
      <defs>
       <path id="DejaVuSans-6c" d="M 603 4863 
L 1178 4863 
L 1178 0 
L 603 0 
L 603 4863 
z
" transform="scale(0.015625)"/>
       <path id="DejaVuSans-6f" d="M 1959 3097 
Q 1497 3097 1228 2736 
Q 959 2375 959 1747 
Q 959 1119 1226 758 
Q 1494 397 1959 397 
Q 2419 397 2687 759 
Q 2956 1122 2956 1747 
Q 2956 2369 2687 2733 
Q 2419 3097 1959 3097 
z
M 1959 3584 
Q 2709 3584 3137 3096 
Q 3566 2609 3566 1747 
Q 3566 888 3137 398 
Q 2709 -91 1959 -91 
Q 1206 -91 779 398 
Q 353 888 353 1747 
Q 353 2609 779 3096 
Q 1206 3584 1959 3584 
z
" transform="scale(0.015625)"/>
       <path id="DejaVuSans-67" d="M 2906 1791 
Q 2906 2416 2648 2759 
Q 2391 3103 1925 3103 
Q 1463 3103 1205 2759 
Q 947 2416 947 1791 
Q 947 1169 1205 825 
Q 1463 481 1925 481 
Q 2391 481 2648 825 
Q 2906 1169 2906 1791 
z
M 3481 434 
Q 3481 -459 3084 -895 
Q 2688 -1331 1869 -1331 
Q 1566 -1331 1297 -1286 
Q 1028 -1241 775 -1147 
L 775 -588 
Q 1028 -725 1275 -790 
Q 1522 -856 1778 -856 
Q 2344 -856 2625 -561 
Q 2906 -266 2906 331 
L 2906 616 
Q 2728 306 2450 153 
Q 2172 0 1784 0 
Q 1141 0 747 490 
Q 353 981 353 1791 
Q 353 2603 747 3093 
Q 1141 3584 1784 3584 
Q 2172 3584 2450 3431 
Q 2728 3278 2906 2969 
L 2906 3500 
L 3481 3500 
L 3481 434 
z
" transform="scale(0.015625)"/>
       <path id="DejaVuSans-30" d="M 2034 4250 
Q 1547 4250 1301 3770 
Q 1056 3291 1056 2328 
Q 1056 1369 1301 889 
Q 1547 409 2034 409 
Q 2525 409 2770 889 
Q 3016 1369 3016 2328 
Q 3016 3291 2770 3770 
Q 2525 4250 2034 4250 
z
M 2034 4750 
Q 2819 4750 3233 4129 
Q 3647 3509 3647 2328 
Q 3647 1150 3233 529 
Q 2819 -91 2034 -91 
Q 1250 -91 836 529 
Q 422 1150 422 2328 
Q 422 3509 836 4129 
Q 1250 4750 2034 4750 
z
" transform="scale(0.015625)"/>
       <path id="DejaVuSans-20" transform="scale(0.015625)"/>
       <path id="DejaVuSans-66" d="M 2375 4863 
L 2375 4384 
L 1825 4384 
Q 1516 4384 1395 4259 
Q 1275 4134 1275 3809 
L 1275 3500 
L 2222 3500 
L 2222 3053 
L 1275 3053 
L 1275 0 
L 697 0 
L 697 3053 
L 147 3053 
L 147 3500 
L 697 3500 
L 697 3744 
Q 697 4328 969 4595 
Q 1241 4863 1831 4863 
L 2375 4863 
z
" transform="scale(0.015625)"/>
       <path id="DejaVuSans-46" d="M 628 4666 
L 3309 4666 
L 3309 4134 
L 1259 4134 
L 1259 2759 
L 3109 2759 
L 3109 2228 
L 1259 2228 
L 1259 0 
L 628 0 
L 628 4666 
z
" transform="scale(0.015625)"/>
       <path id="DejaVuSans-45" d="M 628 4666 
L 3578 4666 
L 3578 4134 
L 1259 4134 
L 1259 2753 
L 3481 2753 
L 3481 2222 
L 1259 2222 
L 1259 531 
L 3634 531 
L 3634 0 
L 628 0 
L 628 4666 
z
" transform="scale(0.015625)"/>
       <path id="DejaVuSans-76" d="M 191 3500 
L 800 3500 
L 1894 563 
L 2988 3500 
L 3597 3500 
L 2284 0 
L 1503 0 
L 191 3500 
z
" transform="scale(0.015625)"/>
       <path id="DejaVuSans-61" d="M 2194 1759 
Q 1497 1759 1228 1600 
Q 959 1441 959 1056 
Q 959 750 1161 570 
Q 1363 391 1709 391 
Q 2188 391 2477 730 
Q 2766 1069 2766 1631 
L 2766 1759 
L 2194 1759 
z
M 3341 1997 
L 3341 0 
L 2766 0 
L 2766 531 
Q 2569 213 2275 61 
Q 1981 -91 1556 -91 
Q 1019 -91 701 211 
Q 384 513 384 1019 
Q 384 1609 779 1909 
Q 1175 2209 1959 2209 
L 2766 2209 
L 2766 2266 
Q 2766 2663 2505 2880 
Q 2244 3097 1772 3097 
Q 1472 3097 1187 3025 
Q 903 2953 641 2809 
L 641 3341 
Q 956 3463 1253 3523 
Q 1550 3584 1831 3584 
Q 2591 3584 2966 3190 
Q 3341 2797 3341 1997 
z
" transform="scale(0.015625)"/>
       <path id="DejaVuSans-73" d="M 2834 3397 
L 2834 2853 
Q 2591 2978 2328 3040 
Q 2066 3103 1784 3103 
Q 1356 3103 1142 2972 
Q 928 2841 928 2578 
Q 928 2378 1081 2264 
Q 1234 2150 1697 2047 
L 1894 2003 
Q 2506 1872 2764 1633 
Q 3022 1394 3022 966 
Q 3022 478 2636 193 
Q 2250 -91 1575 -91 
Q 1294 -91 989 -36 
Q 684 19 347 128 
L 347 722 
Q 666 556 975 473 
Q 1284 391 1588 391 
Q 1994 391 2212 530 
Q 2431 669 2431 922 
Q 2431 1156 2273 1281 
Q 2116 1406 1581 1522 
L 1381 1569 
Q 847 1681 609 1914 
Q 372 2147 372 2553 
Q 372 3047 722 3315 
Q 1072 3584 1716 3584 
Q 2034 3584 2315 3537 
Q 2597 3491 2834 3397 
z
" transform="scale(0.015625)"/>
       <path id="DejaVuSans-2f" d="M 1625 4666 
L 2156 4666 
L 531 -594 
L 0 -594 
L 1625 4666 
z
" transform="scale(0.015625)"/>
       <path id="DejaVuSans-44" d="M 1259 4147 
L 1259 519 
L 2022 519 
Q 2988 519 3436 956 
Q 3884 1394 3884 2338 
Q 3884 3275 3436 3711 
Q 2988 4147 2022 4147 
L 1259 4147 
z
M 628 4666 
L 1925 4666 
Q 3281 4666 3915 4102 
Q 4550 3538 4550 2338 
Q 4550 1131 3912 565 
Q 3275 0 1925 0 
L 628 0 
L 628 4666 
z
" transform="scale(0.015625)"/>
       <path id="DejaVuSans-49" d="M 628 4666 
L 1259 4666 
L 1259 0 
L 628 0 
L 628 4666 
z
" transform="scale(0.015625)"/>
       <path id="DejaVuSans-4d" d="M 628 4666 
L 1569 4666 
L 2759 1491 
L 3956 4666 
L 4897 4666 
L 4897 0 
L 4281 0 
L 4281 4097 
L 3078 897 
L 2444 897 
L 1241 4097 
L 1241 0 
L 628 0 
L 628 4666 
z
" transform="scale(0.015625)"/>
      </defs>
      <use xlink:href="#DejaVuSans-6c"/>
      <use xlink:href="#DejaVuSans-6f" x="27.783203"/>
      <use xlink:href="#DejaVuSans-67" x="88.964844"/>
      <use xlink:href="#DejaVuSans-31" x="152.441406"/>
      <use xlink:href="#DejaVuSans-30" x="216.064453"/>
      <use xlink:href="#DejaVuSans-20" x="279.6875"/>
      <use xlink:href="#DejaVuSans-6f" x="311.474609"/>
      <use xlink:href="#DejaVuSans-66" x="372.65625"/>
      <use xlink:href="#DejaVuSans-20" x="407.861328"/>
      <use xlink:href="#DejaVuSans-46" x="439.648438"/>
      <use xlink:href="#DejaVuSans-45" x="497.167969"/>
      <use xlink:href="#DejaVuSans-76" x="560.351562"/>
      <use xlink:href="#DejaVuSans-61" x="619.53125"/>
      <use xlink:href="#DejaVuSans-6c" x="680.810547"/>
      <use xlink:href="#DejaVuSans-73" x="708.59375"/>
      <use xlink:href="#DejaVuSans-20" x="760.693359"/>
      <use xlink:href="#DejaVuSans-2f" x="792.480469"/>
      <use xlink:href="#DejaVuSans-20" x="826.171875"/>
      <use xlink:href="#DejaVuSans-44" x="857.958984"/>
      <use xlink:href="#DejaVuSans-49" x="934.960938"/>
      <use xlink:href="#DejaVuSans-4d" x="964.453125"/>
     </g>
    </g>
   </g>
   <g id="matplotlib.axis_2">
    <g id="ytick_1">
     <g id="line2d_83">
      <path d="M 62.208 293.76 
L 460.8 293.76 
" clip-path="url(#pd501502794)" style="fill: none; stroke: #b0b0b0; stroke-width: 0.8; stroke-linecap: square"/>
     </g>
     <g id="line2d_84">
      <defs>
       <path id="m67fb4ac0f0" d="M 0 0 
L -3.5 0 
" style="stroke: #000000; stroke-width: 0.8"/>
      </defs>
      <g>
       <use xlink:href="#m67fb4ac0f0" x="62.208" y="293.76" style="stroke: #000000; stroke-width: 0.8"/>
      </g>
     </g>
     <g id="text_4">
      <!-- 0.0 -->
      <g transform="translate(29.763 299.83875)scale(0.16 -0.16)">
       <defs>
        <path id="DejaVuSans-2e" d="M 684 794 
L 1344 794 
L 1344 0 
L 684 0 
L 684 794 
z
" transform="scale(0.015625)"/>
       </defs>
       <use xlink:href="#DejaVuSans-30"/>
       <use xlink:href="#DejaVuSans-2e" x="63.623047"/>
       <use xlink:href="#DejaVuSans-30" x="95.410156"/>
      </g>
     </g>
    </g>
    <g id="ytick_2">
     <g id="line2d_85">
      <path d="M 62.208 236.274059 
L 460.8 236.274059 
" clip-path="url(#pd501502794)" style="fill: none; stroke: #b0b0b0; stroke-width: 0.8; stroke-linecap: square"/>
     </g>
     <g id="line2d_86">
      <g>
       <use xlink:href="#m67fb4ac0f0" x="62.208" y="236.274059" style="stroke: #000000; stroke-width: 0.8"/>
      </g>
     </g>
     <g id="text_5">
      <!-- 0.2 -->
      <g transform="translate(29.763 242.352809)scale(0.16 -0.16)">
       <defs>
        <path id="DejaVuSans-32" d="M 1228 531 
L 3431 531 
L 3431 0 
L 469 0 
L 469 531 
Q 828 903 1448 1529 
Q 2069 2156 2228 2338 
Q 2531 2678 2651 2914 
Q 2772 3150 2772 3378 
Q 2772 3750 2511 3984 
Q 2250 4219 1831 4219 
Q 1534 4219 1204 4116 
Q 875 4013 500 3803 
L 500 4441 
Q 881 4594 1212 4672 
Q 1544 4750 1819 4750 
Q 2544 4750 2975 4387 
Q 3406 4025 3406 3419 
Q 3406 3131 3298 2873 
Q 3191 2616 2906 2266 
Q 2828 2175 2409 1742 
Q 1991 1309 1228 531 
z
" transform="scale(0.015625)"/>
       </defs>
       <use xlink:href="#DejaVuSans-30"/>
       <use xlink:href="#DejaVuSans-2e" x="63.623047"/>
       <use xlink:href="#DejaVuSans-32" x="95.410156"/>
      </g>
     </g>
    </g>
    <g id="ytick_3">
     <g id="line2d_87">
      <path d="M 62.208 178.788119 
L 460.8 178.788119 
" clip-path="url(#pd501502794)" style="fill: none; stroke: #b0b0b0; stroke-width: 0.8; stroke-linecap: square"/>
     </g>
     <g id="line2d_88">
      <g>
       <use xlink:href="#m67fb4ac0f0" x="62.208" y="178.788119" style="stroke: #000000; stroke-width: 0.8"/>
      </g>
     </g>
     <g id="text_6">
      <!-- 0.4 -->
      <g transform="translate(29.763 184.866869)scale(0.16 -0.16)">
       <defs>
        <path id="DejaVuSans-34" d="M 2419 4116 
L 825 1625 
L 2419 1625 
L 2419 4116 
z
M 2253 4666 
L 3047 4666 
L 3047 1625 
L 3713 1625 
L 3713 1100 
L 3047 1100 
L 3047 0 
L 2419 0 
L 2419 1100 
L 313 1100 
L 313 1709 
L 2253 4666 
z
" transform="scale(0.015625)"/>
       </defs>
       <use xlink:href="#DejaVuSans-30"/>
       <use xlink:href="#DejaVuSans-2e" x="63.623047"/>
       <use xlink:href="#DejaVuSans-34" x="95.410156"/>
      </g>
     </g>
    </g>
    <g id="ytick_4">
     <g id="line2d_89">
      <path d="M 62.208 121.302178 
L 460.8 121.302178 
" clip-path="url(#pd501502794)" style="fill: none; stroke: #b0b0b0; stroke-width: 0.8; stroke-linecap: square"/>
     </g>
     <g id="line2d_90">
      <g>
       <use xlink:href="#m67fb4ac0f0" x="62.208" y="121.302178" style="stroke: #000000; stroke-width: 0.8"/>
      </g>
     </g>
     <g id="text_7">
      <!-- 0.6 -->
      <g transform="translate(29.763 127.380928)scale(0.16 -0.16)">
       <defs>
        <path id="DejaVuSans-36" d="M 2113 2584 
Q 1688 2584 1439 2293 
Q 1191 2003 1191 1497 
Q 1191 994 1439 701 
Q 1688 409 2113 409 
Q 2538 409 2786 701 
Q 3034 994 3034 1497 
Q 3034 2003 2786 2293 
Q 2538 2584 2113 2584 
z
M 3366 4563 
L 3366 3988 
Q 3128 4100 2886 4159 
Q 2644 4219 2406 4219 
Q 1781 4219 1451 3797 
Q 1122 3375 1075 2522 
Q 1259 2794 1537 2939 
Q 1816 3084 2150 3084 
Q 2853 3084 3261 2657 
Q 3669 2231 3669 1497 
Q 3669 778 3244 343 
Q 2819 -91 2113 -91 
Q 1303 -91 875 529 
Q 447 1150 447 2328 
Q 447 3434 972 4092 
Q 1497 4750 2381 4750 
Q 2619 4750 2861 4703 
Q 3103 4656 3366 4563 
z
" transform="scale(0.015625)"/>
       </defs>
       <use xlink:href="#DejaVuSans-30"/>
       <use xlink:href="#DejaVuSans-2e" x="63.623047"/>
       <use xlink:href="#DejaVuSans-36" x="95.410156"/>
      </g>
     </g>
    </g>
    <g id="ytick_5">
     <g id="line2d_91">
      <path d="M 62.208 63.816238 
L 460.8 63.816238 
" clip-path="url(#pd501502794)" style="fill: none; stroke: #b0b0b0; stroke-width: 0.8; stroke-linecap: square"/>
     </g>
     <g id="line2d_92">
      <g>
       <use xlink:href="#m67fb4ac0f0" x="62.208" y="63.816238" style="stroke: #000000; stroke-width: 0.8"/>
      </g>
     </g>
     <g id="text_8">
      <!-- 0.8 -->
      <g transform="translate(29.763 69.894988)scale(0.16 -0.16)">
       <defs>
        <path id="DejaVuSans-38" d="M 2034 2216 
Q 1584 2216 1326 1975 
Q 1069 1734 1069 1313 
Q 1069 891 1326 650 
Q 1584 409 2034 409 
Q 2484 409 2743 651 
Q 3003 894 3003 1313 
Q 3003 1734 2745 1975 
Q 2488 2216 2034 2216 
z
M 1403 2484 
Q 997 2584 770 2862 
Q 544 3141 544 3541 
Q 544 4100 942 4425 
Q 1341 4750 2034 4750 
Q 2731 4750 3128 4425 
Q 3525 4100 3525 3541 
Q 3525 3141 3298 2862 
Q 3072 2584 2669 2484 
Q 3125 2378 3379 2068 
Q 3634 1759 3634 1313 
Q 3634 634 3220 271 
Q 2806 -91 2034 -91 
Q 1263 -91 848 271 
Q 434 634 434 1313 
Q 434 1759 690 2068 
Q 947 2378 1403 2484 
z
M 1172 3481 
Q 1172 3119 1398 2916 
Q 1625 2713 2034 2713 
Q 2441 2713 2670 2916 
Q 2900 3119 2900 3481 
Q 2900 3844 2670 4047 
Q 2441 4250 2034 4250 
Q 1625 4250 1398 4047 
Q 1172 3844 1172 3481 
z
" transform="scale(0.015625)"/>
       </defs>
       <use xlink:href="#DejaVuSans-30"/>
       <use xlink:href="#DejaVuSans-2e" x="63.623047"/>
       <use xlink:href="#DejaVuSans-38" x="95.410156"/>
      </g>
     </g>
    </g>
    <g id="ytick_6">
     <g id="line2d_93">
      <path d="M 62.208 6.330297 
L 460.8 6.330297 
" clip-path="url(#pd501502794)" style="fill: none; stroke: #b0b0b0; stroke-width: 0.8; stroke-linecap: square"/>
     </g>
     <g id="line2d_94">
      <g>
       <use xlink:href="#m67fb4ac0f0" x="62.208" y="6.330297" style="stroke: #000000; stroke-width: 0.8"/>
      </g>
     </g>
     <g id="text_9">
      <!-- 1.0 -->
      <g transform="translate(29.763 12.409047)scale(0.16 -0.16)">
       <use xlink:href="#DejaVuSans-31"/>
       <use xlink:href="#DejaVuSans-2e" x="63.623047"/>
       <use xlink:href="#DejaVuSans-30" x="95.410156"/>
      </g>
     </g>
    </g>
    <g id="text_10">
     <!-- proportion of trials -->
     <g transform="translate(21.603625 241.61425)rotate(-90)scale(0.2 -0.2)">
      <defs>
       <path id="DejaVuSans-70" d="M 1159 525 
L 1159 -1331 
L 581 -1331 
L 581 3500 
L 1159 3500 
L 1159 2969 
Q 1341 3281 1617 3432 
Q 1894 3584 2278 3584 
Q 2916 3584 3314 3078 
Q 3713 2572 3713 1747 
Q 3713 922 3314 415 
Q 2916 -91 2278 -91 
Q 1894 -91 1617 61 
Q 1341 213 1159 525 
z
M 3116 1747 
Q 3116 2381 2855 2742 
Q 2594 3103 2138 3103 
Q 1681 3103 1420 2742 
Q 1159 2381 1159 1747 
Q 1159 1113 1420 752 
Q 1681 391 2138 391 
Q 2594 391 2855 752 
Q 3116 1113 3116 1747 
z
" transform="scale(0.015625)"/>
       <path id="DejaVuSans-72" d="M 2631 2963 
Q 2534 3019 2420 3045 
Q 2306 3072 2169 3072 
Q 1681 3072 1420 2755 
Q 1159 2438 1159 1844 
L 1159 0 
L 581 0 
L 581 3500 
L 1159 3500 
L 1159 2956 
Q 1341 3275 1631 3429 
Q 1922 3584 2338 3584 
Q 2397 3584 2469 3576 
Q 2541 3569 2628 3553 
L 2631 2963 
z
" transform="scale(0.015625)"/>
       <path id="DejaVuSans-74" d="M 1172 4494 
L 1172 3500 
L 2356 3500 
L 2356 3053 
L 1172 3053 
L 1172 1153 
Q 1172 725 1289 603 
Q 1406 481 1766 481 
L 2356 481 
L 2356 0 
L 1766 0 
Q 1100 0 847 248 
Q 594 497 594 1153 
L 594 3053 
L 172 3053 
L 172 3500 
L 594 3500 
L 594 4494 
L 1172 4494 
z
" transform="scale(0.015625)"/>
       <path id="DejaVuSans-69" d="M 603 3500 
L 1178 3500 
L 1178 0 
L 603 0 
L 603 3500 
z
M 603 4863 
L 1178 4863 
L 1178 4134 
L 603 4134 
L 603 4863 
z
" transform="scale(0.015625)"/>
       <path id="DejaVuSans-6e" d="M 3513 2113 
L 3513 0 
L 2938 0 
L 2938 2094 
Q 2938 2591 2744 2837 
Q 2550 3084 2163 3084 
Q 1697 3084 1428 2787 
Q 1159 2491 1159 1978 
L 1159 0 
L 581 0 
L 581 3500 
L 1159 3500 
L 1159 2956 
Q 1366 3272 1645 3428 
Q 1925 3584 2291 3584 
Q 2894 3584 3203 3211 
Q 3513 2838 3513 2113 
z
" transform="scale(0.015625)"/>
      </defs>
      <use xlink:href="#DejaVuSans-70"/>
      <use xlink:href="#DejaVuSans-72" x="63.476562"/>
      <use xlink:href="#DejaVuSans-6f" x="102.339844"/>
      <use xlink:href="#DejaVuSans-70" x="163.521484"/>
      <use xlink:href="#DejaVuSans-6f" x="226.998047"/>
      <use xlink:href="#DejaVuSans-72" x="288.179688"/>
      <use xlink:href="#DejaVuSans-74" x="329.292969"/>
      <use xlink:href="#DejaVuSans-69" x="368.501953"/>
      <use xlink:href="#DejaVuSans-6f" x="396.285156"/>
      <use xlink:href="#DejaVuSans-6e" x="457.466797"/>
      <use xlink:href="#DejaVuSans-20" x="520.845703"/>
      <use xlink:href="#DejaVuSans-6f" x="552.632812"/>
      <use xlink:href="#DejaVuSans-66" x="613.814453"/>
      <use xlink:href="#DejaVuSans-20" x="649.019531"/>
      <use xlink:href="#DejaVuSans-74" x="680.806641"/>
      <use xlink:href="#DejaVuSans-72" x="720.015625"/>
      <use xlink:href="#DejaVuSans-69" x="761.128906"/>
      <use xlink:href="#DejaVuSans-61" x="788.912109"/>
      <use xlink:href="#DejaVuSans-6c" x="850.191406"/>
      <use xlink:href="#DejaVuSans-73" x="877.974609"/>
     </g>
    </g>
   </g>
   <g id="line2d_95">
    <path d="M 319.832118 293.76 
L 319.832118 289.927604 
L 329.232094 289.927604 
L 329.232094 286.095208 
L 333.537737 286.095208 
L 333.537737 282.262812 
L 344.07725 282.262812 
L 344.07725 278.430416 
L 355.593997 278.430416 
L 355.593997 274.59802 
L 356.660588 274.59802 
L 356.660588 270.765624 
L 361.278614 270.765624 
L 361.278614 266.933228 
L 364.072273 266.933228 
L 364.072273 263.100832 
L 366.634069 263.100832 
L 366.634069 259.268436 
L 370.671452 259.268436 
L 370.671452 255.43604 
L 372.574386 255.43604 
L 372.574386 251.603644 
L 372.891618 251.603644 
L 372.891618 247.771248 
L 377.592288 247.771248 
L 377.592288 243.938851 
L 382.568848 243.938851 
L 382.568848 240.106455 
L 388.598466 240.106455 
L 388.598466 236.274059 
L 388.598466 236.274059 
L 388.598466 236.274059 
L 460.8 236.274059 
" clip-path="url(#pd501502794)" style="fill: none; stroke: #000000; stroke-width: 1.5; stroke-linecap: square"/>
   </g>
   <g id="line2d_96">
    <defs>
     <path id="mb1f1555c80" d="M -0 14.142136 
L 8.485281 0 
L -0 -14.142136 
L -8.485281 -0 
z
" style="stroke: #000000; stroke-width: 1.5; stroke-linejoin: miter"/>
    </defs>
    <g clip-path="url(#pd501502794)">
     <use xlink:href="#mb1f1555c80" x="333.537737" y="286.095208" style="fill-opacity: 0; stroke: #000000; stroke-width: 1.5; stroke-linejoin: miter"/>
     <use xlink:href="#mb1f1555c80" x="372.891618" y="251.603644" style="fill-opacity: 0; stroke: #000000; stroke-width: 1.5; stroke-linejoin: miter"/>
     <use xlink:href="#mb1f1555c80" x="388.598466" y="236.274059" style="fill-opacity: 0; stroke: #000000; stroke-width: 1.5; stroke-linejoin: miter"/>
    </g>
   </g>
   <g id="line2d_97">
    <path clip-path="url(#pd501502794)" style="fill: none; stroke: #000000; stroke-width: 1.5; stroke-linecap: square"/>
    <g clip-path="url(#pd501502794)">
     <use xlink:href="#mb1f1555c80" x="-1" y="581.189703" style="fill-opacity: 0; stroke: #000000; stroke-width: 1.5; stroke-linejoin: miter"/>
     <use xlink:href="#mb1f1555c80" x="460.8" y="581.189703" style="fill-opacity: 0; stroke: #000000; stroke-width: 1.5; stroke-linejoin: miter"/>
    </g>
   </g>
   <g id="line2d_98">
    <path d="M 369.654017 293.76 
L 369.654017 289.927604 
L 371.650774 289.927604 
L 371.650774 286.095208 
L 375.438845 286.095208 
L 375.438845 282.262812 
L 380.086496 282.262812 
L 380.086496 278.430416 
L 381.530394 278.430416 
L 381.530394 274.59802 
L 383.136509 274.59802 
L 383.136509 270.765624 
L 385.457085 270.765624 
L 385.457085 266.933228 
L 385.457085 266.933228 
L 385.457085 263.100832 
L 385.472333 263.100832 
L 385.472333 259.268436 
L 386.953861 259.268436 
L 386.953861 255.43604 
L 389.844397 255.43604 
L 389.844397 251.603644 
L 391.916636 251.603644 
L 391.916636 247.771248 
L 400.089517 247.771248 
L 400.089517 243.938851 
L 400.670569 243.938851 
L 400.670569 240.106455 
L 401.245538 240.106455 
L 401.245538 236.274059 
L 425.014144 236.274059 
L 425.014144 232.441663 
L 434.839838 232.441663 
L 434.839838 228.609267 
L 438.731672 228.609267 
L 438.731672 224.776871 
L 438.731672 224.776871 
L 438.731672 224.776871 
L 460.8 224.776871 
" clip-path="url(#pd501502794)" style="fill: none; stroke: #000000; stroke-width: 1.5; stroke-linecap: square"/>
   </g>
   <g id="line2d_99">
    <defs>
     <path id="mc430cd0fc8" d="M 0 7.5 
C 1.989023 7.5 3.896849 6.709753 5.303301 5.303301 
C 6.709753 3.896849 7.5 1.989023 7.5 0 
C 7.5 -1.989023 6.709753 -3.896849 5.303301 -5.303301 
C 3.896849 -6.709753 1.989023 -7.5 0 -7.5 
C -1.989023 -7.5 -3.896849 -6.709753 -5.303301 -5.303301 
C -6.709753 -3.896849 -7.5 -1.989023 -7.5 0 
C -7.5 1.989023 -6.709753 3.896849 -5.303301 5.303301 
C -3.896849 6.709753 -1.989023 7.5 0 7.5 
z
" style="stroke: #000000; stroke-width: 1.5"/>
    </defs>
    <g clip-path="url(#pd501502794)">
     <use xlink:href="#mc430cd0fc8" x="386.953861" y="259.268436" style="fill-opacity: 0; stroke: #000000; stroke-width: 1.5"/>
     <use xlink:href="#mc430cd0fc8" x="401.245538" y="240.106455" style="fill-opacity: 0; stroke: #000000; stroke-width: 1.5"/>
     <use xlink:href="#mc430cd0fc8" x="438.731672" y="224.776871" style="fill-opacity: 0; stroke: #000000; stroke-width: 1.5"/>
    </g>
   </g>
   <g id="line2d_100">
    <path clip-path="url(#pd501502794)" style="fill: none; stroke: #000000; stroke-width: 1.5; stroke-linecap: square"/>
   </g>
   <g id="line2d_101">
    <path d="M 378.664042 293.76 
L 378.664042 289.927604 
L 386.387033 289.927604 
L 386.387033 286.095208 
L 386.782937 286.095208 
L 386.782937 282.262812 
L 390.620269 282.262812 
L 390.620269 278.430416 
L 395.199148 278.430416 
L 395.199148 274.59802 
L 395.713947 274.59802 
L 395.713947 270.765624 
L 397.395905 270.765624 
L 397.395905 266.933228 
L 401.291276 266.933228 
L 401.291276 263.100832 
L 401.411158 263.100832 
L 401.411158 259.268436 
L 403.222839 259.268436 
L 403.222839 255.43604 
L 404.353227 255.43604 
L 404.353227 251.603644 
L 405.381302 251.603644 
L 405.381302 247.771248 
L 406.996481 247.771248 
L 406.996481 243.938851 
L 410.411348 243.938851 
L 410.411348 240.106455 
L 414.827347 240.106455 
L 414.827347 236.274059 
L 414.827347 236.274059 
L 414.827347 236.274059 
L 460.8 236.274059 
" clip-path="url(#pd501502794)" style="fill: none; stroke: #00bfbf; stroke-width: 1.5; stroke-linecap: square"/>
   </g>
   <g id="line2d_102">
    <defs>
     <path id="mebd18d4eb7" d="M -0 14.142136 
L 8.485281 0 
L -0 -14.142136 
L -8.485281 -0 
z
" style="stroke: #00bfbf; stroke-width: 1.5; stroke-linejoin: miter"/>
    </defs>
    <g clip-path="url(#pd501502794)">
     <use xlink:href="#mebd18d4eb7" x="386.387033" y="289.927604" style="fill-opacity: 0; stroke: #00bfbf; stroke-width: 1.5; stroke-linejoin: miter"/>
     <use xlink:href="#mebd18d4eb7" x="405.381302" y="251.603644" style="fill-opacity: 0; stroke: #00bfbf; stroke-width: 1.5; stroke-linejoin: miter"/>
     <use xlink:href="#mebd18d4eb7" x="414.827347" y="236.274059" style="fill-opacity: 0; stroke: #00bfbf; stroke-width: 1.5; stroke-linejoin: miter"/>
    </g>
   </g>
   <g id="line2d_103">
    <path clip-path="url(#pd501502794)" style="fill: none; stroke: #00bfbf; stroke-width: 1.5; stroke-linecap: square"/>
    <g clip-path="url(#pd501502794)">
     <use xlink:href="#mebd18d4eb7" x="-1" y="581.189703" style="fill-opacity: 0; stroke: #00bfbf; stroke-width: 1.5; stroke-linejoin: miter"/>
     <use xlink:href="#mebd18d4eb7" x="460.8" y="581.189703" style="fill-opacity: 0; stroke: #00bfbf; stroke-width: 1.5; stroke-linejoin: miter"/>
    </g>
   </g>
   <g id="line2d_104"/>
   <g id="line2d_105"/>
   <g id="line2d_106"/>
   <g id="line2d_107"/>
   <g id="line2d_108"/>
   <g id="line2d_109">
    <path d="M 441.270277 293.76 
L 441.270277 3.456 
" clip-path="url(#pd501502794)" style="fill: none; stroke: #000000; stroke-width: 1.5; stroke-linecap: square"/>
    <defs>
     <path id="m52f356d363" d="M -10 0 
L 10 0 
M 0 10 
L 0 -10 
" style="stroke: #000000; stroke-width: 3"/>
    </defs>
    <g clip-path="url(#pd501502794)">
     <use xlink:href="#m52f356d363" x="441.270277" y="293.76" style="stroke: #000000; stroke-width: 3"/>
     <use xlink:href="#m52f356d363" x="441.270277" y="3.456" style="stroke: #000000; stroke-width: 3"/>
    </g>
   </g>
   <g id="line2d_110">
    <path d="M 441.819429 293.76 
L 441.819429 3.456 
" clip-path="url(#pd501502794)" style="fill: none; stroke: #000000; stroke-width: 1.5; stroke-linecap: square"/>
    <defs>
     <path id="m98e0eea2dc" d="M 0 7.5 
C 1.989023 7.5 3.896849 6.709753 5.303301 5.303301 
C 6.709753 3.896849 7.5 1.989023 7.5 0 
C 7.5 -1.989023 6.709753 -3.896849 5.303301 -5.303301 
C 3.896849 -6.709753 1.989023 -7.5 0 -7.5 
C -1.989023 -7.5 -3.896849 -6.709753 -5.303301 -5.303301 
C -6.709753 -3.896849 -7.5 -1.989023 -7.5 0 
C -7.5 1.989023 -6.709753 3.896849 -5.303301 5.303301 
C -3.896849 6.709753 -1.989023 7.5 0 7.5 
z
" style="stroke: #000000; stroke-width: 3"/>
    </defs>
    <g clip-path="url(#pd501502794)">
     <use xlink:href="#m98e0eea2dc" x="441.819429" y="293.76" style="fill-opacity: 0; stroke: #000000; stroke-width: 3"/>
     <use xlink:href="#m98e0eea2dc" x="441.819429" y="3.456" style="fill-opacity: 0; stroke: #000000; stroke-width: 3"/>
    </g>
   </g>
   <g id="patch_3">
    <path d="M 62.208 293.76 
L 62.208 3.456 
" style="fill: none; stroke: #000000; stroke-width: 0.8; stroke-linejoin: miter; stroke-linecap: square"/>
   </g>
   <g id="patch_4">
    <path d="M 460.8 293.76 
L 460.8 3.456 
" style="fill: none; stroke: #000000; stroke-width: 0.8; stroke-linejoin: miter; stroke-linecap: square"/>
   </g>
   <g id="patch_5">
    <path d="M 62.208 293.76 
L 460.8 293.76 
" style="fill: none; stroke: #000000; stroke-width: 0.8; stroke-linejoin: miter; stroke-linecap: square"/>
   </g>
   <g id="patch_6">
    <path d="M 62.208 3.456 
L 460.8 3.456 
" style="fill: none; stroke: #000000; stroke-width: 0.8; stroke-linejoin: miter; stroke-linecap: square"/>
   </g>
   <g id="text_11">
    <!-- f1-f5 -->
    <g transform="translate(238.130563 24.458955)scale(0.2 -0.2)">
     <defs>
      <path id="DejaVuSans-2d" d="M 313 2009 
L 1997 2009 
L 1997 1497 
L 313 1497 
L 313 2009 
z
" transform="scale(0.015625)"/>
      <path id="DejaVuSans-35" d="M 691 4666 
L 3169 4666 
L 3169 4134 
L 1269 4134 
L 1269 2991 
Q 1406 3038 1543 3061 
Q 1681 3084 1819 3084 
Q 2600 3084 3056 2656 
Q 3513 2228 3513 1497 
Q 3513 744 3044 326 
Q 2575 -91 1722 -91 
Q 1428 -91 1123 -41 
Q 819 9 494 109 
L 494 744 
Q 775 591 1075 516 
Q 1375 441 1709 441 
Q 2250 441 2565 725 
Q 2881 1009 2881 1497 
Q 2881 1984 2565 2268 
Q 2250 2553 1709 2553 
Q 1456 2553 1204 2497 
Q 953 2441 691 2322 
L 691 4666 
z
" transform="scale(0.015625)"/>
     </defs>
     <use xlink:href="#DejaVuSans-66"/>
     <use xlink:href="#DejaVuSans-31" x="35.205078"/>
     <use xlink:href="#DejaVuSans-2d" x="98.828125"/>
     <use xlink:href="#DejaVuSans-66" x="134.912109"/>
     <use xlink:href="#DejaVuSans-35" x="170.117188"/>
    </g>
   </g>
   <g id="text_12">
    <!-- absolute targets -->
    <g transform="translate(62.208 609.166194)scale(0.14 -0.14)">
     <defs>
      <path id="DejaVuSans-62" d="M 3116 1747 
Q 3116 2381 2855 2742 
Q 2594 3103 2138 3103 
Q 1681 3103 1420 2742 
Q 1159 2381 1159 1747 
Q 1159 1113 1420 752 
Q 1681 391 2138 391 
Q 2594 391 2855 752 
Q 3116 1113 3116 1747 
z
M 1159 2969 
Q 1341 3281 1617 3432 
Q 1894 3584 2278 3584 
Q 2916 3584 3314 3078 
Q 3713 2572 3713 1747 
Q 3713 922 3314 415 
Q 2916 -91 2278 -91 
Q 1894 -91 1617 61 
Q 1341 213 1159 525 
L 1159 0 
L 581 0 
L 581 4863 
L 1159 4863 
L 1159 2969 
z
" transform="scale(0.015625)"/>
      <path id="DejaVuSans-75" d="M 544 1381 
L 544 3500 
L 1119 3500 
L 1119 1403 
Q 1119 906 1312 657 
Q 1506 409 1894 409 
Q 2359 409 2629 706 
Q 2900 1003 2900 1516 
L 2900 3500 
L 3475 3500 
L 3475 0 
L 2900 0 
L 2900 538 
Q 2691 219 2414 64 
Q 2138 -91 1772 -91 
Q 1169 -91 856 284 
Q 544 659 544 1381 
z
M 1991 3584 
L 1991 3584 
z
" transform="scale(0.015625)"/>
      <path id="DejaVuSans-65" d="M 3597 1894 
L 3597 1613 
L 953 1613 
Q 991 1019 1311 708 
Q 1631 397 2203 397 
Q 2534 397 2845 478 
Q 3156 559 3463 722 
L 3463 178 
Q 3153 47 2828 -22 
Q 2503 -91 2169 -91 
Q 1331 -91 842 396 
Q 353 884 353 1716 
Q 353 2575 817 3079 
Q 1281 3584 2069 3584 
Q 2775 3584 3186 3129 
Q 3597 2675 3597 1894 
z
M 3022 2063 
Q 3016 2534 2758 2815 
Q 2500 3097 2075 3097 
Q 1594 3097 1305 2825 
Q 1016 2553 972 2059 
L 3022 2063 
z
" transform="scale(0.015625)"/>
     </defs>
     <use xlink:href="#DejaVuSans-61"/>
     <use xlink:href="#DejaVuSans-62" x="61.279297"/>
     <use xlink:href="#DejaVuSans-73" x="124.755859"/>
     <use xlink:href="#DejaVuSans-6f" x="176.855469"/>
     <use xlink:href="#DejaVuSans-6c" x="238.037109"/>
     <use xlink:href="#DejaVuSans-75" x="265.820312"/>
     <use xlink:href="#DejaVuSans-74" x="329.199219"/>
     <use xlink:href="#DejaVuSans-65" x="368.408203"/>
     <use xlink:href="#DejaVuSans-20" x="429.931641"/>
     <use xlink:href="#DejaVuSans-74" x="461.71875"/>
     <use xlink:href="#DejaVuSans-61" x="500.927734"/>
     <use xlink:href="#DejaVuSans-72" x="562.207031"/>
     <use xlink:href="#DejaVuSans-67" x="601.570312"/>
     <use xlink:href="#DejaVuSans-65" x="665.046875"/>
     <use xlink:href="#DejaVuSans-74" x="726.570312"/>
     <use xlink:href="#DejaVuSans-73" x="765.779297"/>
    </g>
   </g>
   <g id="text_13">
    <!-- v2.6.3 -->
    <g style="fill: #808080" transform="translate(245.82275 288.777272)scale(0.1 -0.1)">
     <use xlink:href="#DejaVuSans-76"/>
     <use xlink:href="#DejaVuSans-32" x="59.179688"/>
     <use xlink:href="#DejaVuSans-2e" x="122.802734"/>
     <use xlink:href="#DejaVuSans-36" x="154.589844"/>
     <use xlink:href="#DejaVuSans-2e" x="218.212891"/>
     <use xlink:href="#DejaVuSans-33" x="250"/>
    </g>
   </g>
   <g id="legend_1">
    <g id="patch_7">
     <path d="M 76.208 136.881 
L 160.148625 136.881 
Q 164.148625 136.881 164.148625 132.881 
L 164.148625 17.456 
Q 164.148625 13.456 160.148625 13.456 
L 76.208 13.456 
Q 72.208 13.456 72.208 17.456 
L 72.208 132.881 
Q 72.208 136.881 76.208 136.881 
z
" style="fill: #ffffff; opacity: 0.2; stroke: #cccccc; stroke-linejoin: miter"/>
    </g>
    <g id="line2d_111">
     <path d="M 80.208 29.652875 
L 80.208 29.652875 
L 100.208 29.652875 
L 100.208 29.652875 
L 120.208 29.652875 
" style="fill: none; stroke: #000000; stroke-width: 1.5; stroke-linecap: square"/>
    </g>
    <g id="text_14">
     <!-- 1 -->
     <g transform="translate(136.208 36.652875)scale(0.2 -0.2)">
      <use xlink:href="#DejaVuSans-31"/>
     </g>
    </g>
    <g id="line2d_112">
     <path d="M 80.208 59.009125 
L 100.208 59.009125 
L 120.208 59.009125 
" style="fill: none; stroke: #00bfbf; stroke-width: 1.5; stroke-linecap: square"/>
    </g>
    <g id="text_15">
     <!-- -1 -->
     <g transform="translate(136.208 66.009125)scale(0.2 -0.2)">
      <use xlink:href="#DejaVuSans-2d"/>
      <use xlink:href="#DejaVuSans-31" x="36.083984"/>
     </g>
    </g>
    <g id="line2d_113">
     <path d="M 80.208 88.365375 
L 100.208 88.365375 
L 120.208 88.365375 
" style="fill: none; stroke: #bf00bf; stroke-width: 1.5; stroke-linecap: square"/>
    </g>
    <g id="text_16">
     <!-- -4 -->
     <g transform="translate(136.208 95.365375)scale(0.2 -0.2)">
      <use xlink:href="#DejaVuSans-2d"/>
      <use xlink:href="#DejaVuSans-34" x="36.083984"/>
     </g>
    </g>
    <g id="line2d_114">
     <path d="M 80.208 117.721625 
L 100.208 117.721625 
L 120.208 117.721625 
" style="fill: none; stroke: #ff0000; stroke-width: 3; stroke-linecap: square"/>
    </g>
    <g id="text_17">
     <!-- -8 -->
     <g transform="translate(136.208 124.721625)scale(0.2 -0.2)">
      <use xlink:href="#DejaVuSans-2d"/>
      <use xlink:href="#DejaVuSans-38" x="36.083984"/>
     </g>
    </g>
   </g>
  </g>
 </g>
 <defs>
  <clipPath id="pd501502794">
   <rect x="62.208" y="3.456" width="398.592" height="290.304"/>
  </clipPath>
 </defs>
</svg>
