<?xml version="1.0" encoding="utf-8" standalone="no"?>
<!DOCTYPE svg PUBLIC "-//W3C//DTD SVG 1.1//EN"
  "http://www.w3.org/Graphics/SVG/1.1/DTD/svg11.dtd">
<svg xmlns:xlink="http://www.w3.org/1999/xlink" width="460.8pt" height="345.6pt" viewBox="0 0 460.8 345.6" xmlns="http://www.w3.org/2000/svg" version="1.1">
 <metadata>
  <rdf:RDF xmlns:dc="http://purl.org/dc/elements/1.1/" xmlns:cc="http://creativecommons.org/ns#" xmlns:rdf="http://www.w3.org/1999/02/22-rdf-syntax-ns#">
   <cc:Work>
    <dc:type rdf:resource="http://purl.org/dc/dcmitype/StillImage"/>
    <dc:date>2024-01-05T10:25:53.681185</dc:date>
    <dc:format>image/svg+xml</dc:format>
    <dc:creator>
     <cc:Agent>
      <dc:title>Matplotlib v3.5.1, https://matplotlib.org/</dc:title>
     </cc:Agent>
    </dc:creator>
   </cc:Work>
  </rdf:RDF>
 </metadata>
 <defs>
  <style type="text/css">*{stroke-linejoin: round; stroke-linecap: butt}</style>
 </defs>
 <g id="figure_1">
  <g id="patch_1">
   <path d="M 0 345.6 
L 460.8 345.6 
L 460.8 0 
L 0 0 
z
" style="fill: #ffffff"/>
  </g>
  <g id="axes_1">
   <g id="patch_2">
    <path d="M 62.208 293.76 
L 460.8 293.76 
L 460.8 3.456 
L 62.208 3.456 
z
" style="fill: #ffffff"/>
   </g>
   <g id="line2d_1">
    <path d="M 330.596368 293.76 
L 330.596368 288.969505 
L 331.48872 288.969505 
L 331.48872 284.17901 
L 333.69668 284.17901 
L 333.69668 279.388515 
L 335.446082 279.388515 
L 335.446082 274.59802 
L 339.1368 274.59802 
L 339.1368 269.807525 
L 341.062122 269.807525 
L 341.062122 265.01703 
L 343.052558 265.01703 
L 343.052558 260.226535 
L 343.700287 260.226535 
L 343.700287 255.43604 
L 344.085282 255.43604 
L 344.085282 250.645545 
L 344.276769 250.645545 
L 344.276769 245.85505 
L 344.46759 245.85505 
L 344.46759 241.064554 
L 345.660931 241.064554 
L 345.660931 236.274059 
L 346.094113 236.274059 
L 346.094113 231.483564 
L 346.094113 231.483564 
L 346.094113 226.693069 
L 347.553839 226.693069 
L 347.553839 221.902574 
L 348.564778 221.902574 
L 348.564778 217.112079 
L 348.858598 217.112079 
L 348.858598 212.321584 
L 348.917173 212.321584 
L 348.917173 207.531089 
L 350.645938 207.531089 
L 350.645938 202.740594 
L 352.211681 202.740594 
L 352.211681 197.950099 
L 355.319301 197.950099 
L 355.319301 193.159604 
L 368.291954 193.159604 
L 368.291954 188.369109 
L 370.743873 188.369109 
L 370.743873 183.578614 
L 370.979224 183.578614 
L 370.979224 178.788119 
L 379.882864 178.788119 
L 379.882864 173.997624 
L 381.165308 173.997624 
L 381.165308 169.207129 
L 399.174241 169.207129 
L 399.174241 164.416634 
L 415.01443 164.416634 
L 415.01443 159.626139 
L 433.166063 159.626139 
L 433.166063 154.835644 
L 433.166063 154.835644 
L 433.166063 154.835644 
L 460.8 154.835644 
" clip-path="url(#pa6dd7f9992)" style="fill: none; stroke: #f5deb3; stroke-width: 1.5; stroke-linecap: square"/>
   </g>
   <g id="line2d_2">
    <path clip-path="url(#pa6dd7f9992)" style="fill: none; stroke: #f5deb3; stroke-width: 1.5; stroke-linecap: square"/>
   </g>
   <g id="line2d_3">
    <path d="M 222.975418 293.76 
L 222.975418 288.969505 
L 274.794093 288.969505 
L 274.794093 284.17901 
L 275.020061 284.17901 
L 275.020061 279.388515 
L 276.136134 279.388515 
L 276.136134 274.59802 
L 278.935819 274.59802 
L 278.935819 269.807525 
L 280.793532 269.807525 
L 280.793532 265.01703 
L 282.786381 265.01703 
L 282.786381 260.226535 
L 285.085905 260.226535 
L 285.085905 255.43604 
L 286.384041 255.43604 
L 286.384041 250.645545 
L 286.749357 250.645545 
L 286.749357 245.85505 
L 287.112255 245.85505 
L 287.112255 241.064554 
L 288.540278 241.064554 
L 288.540278 236.274059 
L 289.414257 236.274059 
L 289.414257 231.483564 
L 291.456628 231.483564 
L 291.456628 226.693069 
L 293.264199 226.693069 
L 293.264199 221.902574 
L 293.264199 221.902574 
L 293.264199 217.112079 
L 297.762116 217.112079 
L 297.762116 212.321584 
L 298.059121 212.321584 
L 298.059121 207.531089 
L 299.520469 207.531089 
L 299.520469 202.740594 
L 301.641919 202.740594 
L 301.641919 197.950099 
L 303.81778 197.950099 
L 303.81778 193.159604 
L 309.870525 193.159604 
L 309.870525 188.369109 
L 310.227512 188.369109 
L 310.227512 183.578614 
L 310.464217 183.578614 
L 310.464217 178.788119 
L 310.464217 178.788119 
L 310.464217 173.997624 
L 311.168261 173.997624 
L 311.168261 169.207129 
L 322.02651 169.207129 
L 322.02651 164.416634 
L 330.759699 164.416634 
L 330.759699 159.626139 
L 331.084906 159.626139 
L 331.084906 154.835644 
L 338.57405 154.835644 
L 338.57405 150.045149 
L 339.34635 150.045149 
L 339.34635 145.254653 
L 340.994513 145.254653 
L 340.994513 140.464158 
L 341.733666 140.464158 
L 341.733666 135.673663 
L 342.265038 135.673663 
L 342.265038 130.883168 
L 344.276769 130.883168 
L 344.276769 126.092673 
L 346.094113 126.092673 
L 346.094113 121.302178 
L 346.646077 121.302178 
L 346.646077 116.511683 
L 359.190136 116.511683 
L 359.190136 111.721188 
L 365.983032 111.721188 
L 365.983032 106.930693 
L 366.791706 106.930693 
L 366.791706 102.140198 
L 368.003438 102.140198 
L 368.003438 97.349703 
L 375.268916 97.349703 
L 375.268916 92.559208 
L 418.526866 92.559208 
L 418.526866 87.768713 
L 425.796751 87.768713 
L 425.796751 82.978218 
L 432.393097 82.978218 
L 432.393097 78.187723 
L 461.8 78.187723 
" clip-path="url(#pa6dd7f9992)" style="fill: none; stroke: #f5deb3; stroke-width: 1.5; stroke-linecap: square"/>
   </g>
   <g id="line2d_4">
    <path d="M 289.414257 293.76 
L 289.414257 288.969505 
L 347.010988 288.969505 
L 347.010988 284.17901 
L 348.564778 284.17901 
L 348.564778 279.388515 
L 357.863736 279.388515 
L 357.863736 274.59802 
L 358.946917 274.59802 
L 358.946917 269.807525 
L 359.238651 269.807525 
L 359.238651 265.01703 
L 359.817501 265.01703 
L 359.817501 260.226535 
L 360.0091 260.226535 
L 360.0091 255.43604 
L 360.104649 255.43604 
L 360.104649 250.645545 
L 360.152361 250.645545 
L 360.152361 245.85505 
L 360.57991 245.85505 
L 360.57991 241.064554 
L 360.863101 241.064554 
L 360.863101 236.274059 
L 361.051085 236.274059 
L 361.051085 231.483564 
L 362.94163 231.483564 
L 362.94163 226.693069 
L 363.303031 226.693069 
L 363.303031 221.902574 
L 367.128662 221.902574 
L 367.128662 217.112079 
L 369.067496 217.112079 
L 369.067496 212.321584 
L 370.822436 212.321584 
L 370.822436 207.531089 
L 371.640612 207.531089 
L 371.640612 202.740594 
L 371.87215 202.740594 
L 371.87215 197.950099 
L 373.203632 197.950099 
L 373.203632 193.159604 
L 373.353762 193.159604 
L 373.353762 188.369109 
L 373.615503 188.369109 
L 373.615503 183.578614 
L 374.503527 183.578614 
L 374.503527 178.788119 
L 376.237535 178.788119 
L 376.237535 173.997624 
L 376.308608 173.997624 
L 376.308608 169.207129 
L 379.247041 169.207129 
L 379.247041 164.416634 
L 380.313689 164.416634 
L 380.313689 159.626139 
L 381.971876 159.626139 
L 381.971876 154.835644 
L 382.003893 154.835644 
L 382.003893 150.045149 
L 382.386647 150.045149 
L 382.386647 145.254653 
L 386.103663 145.254653 
L 386.103663 140.464158 
L 388.741862 140.464158 
L 388.741862 135.673663 
L 390.331918 135.673663 
L 390.331918 130.883168 
L 391.957266 130.883168 
L 391.957266 126.092673 
L 393.587632 126.092673 
L 393.587632 121.302178 
L 393.639426 121.302178 
L 393.639426 116.511683 
L 398.349143 116.511683 
L 398.349143 111.721188 
L 398.963257 111.721188 
L 398.963257 106.930693 
L 400.537601 106.930693 
L 400.537601 102.140198 
L 404.0299 102.140198 
L 404.0299 97.349703 
L 409.448904 97.349703 
L 409.448904 92.559208 
L 412.815451 92.559208 
L 412.815451 87.768713 
L 416.432874 87.768713 
L 416.432874 82.978218 
L 421.267702 82.978218 
L 421.267702 78.187723 
L 421.298961 78.187723 
L 421.298961 73.397228 
L 422.961012 73.397228 
L 422.961012 68.606733 
L 423.323609 68.606733 
L 423.323609 63.816238 
L 426.341005 63.816238 
L 426.341005 59.025743 
L 427.664539 59.025743 
L 427.664539 54.235248 
L 429.846357 54.235248 
L 429.846357 49.444752 
L 430.787391 49.444752 
L 430.787391 44.654257 
L 431.751285 44.654257 
L 431.751285 39.863762 
L 450.487055 39.863762 
L 450.487055 35.073267 
L 453.580949 35.073267 
L 453.580949 30.282772 
L 461.8 30.282772 
" clip-path="url(#pa6dd7f9992)" style="fill: none; stroke: #f5deb3; stroke-width: 1.5; stroke-linecap: square"/>
   </g>
   <g id="line2d_5"/>
   <g id="line2d_6"/>
   <g id="line2d_7">
    <path d="M 335.670203 293.76 
L 335.670203 288.969505 
L 339.276589 288.969505 
L 339.276589 284.17901 
L 341.600014 284.17901 
L 341.600014 279.388515 
L 385.325959 279.388515 
L 385.325959 274.59802 
L 386.987509 274.59802 
L 386.987509 269.807525 
L 388.058311 269.807525 
L 388.058311 265.01703 
L 389.361048 265.01703 
L 389.361048 260.226535 
L 390.249372 260.226535 
L 390.249372 255.43604 
L 390.304417 255.43604 
L 390.304417 250.645545 
L 391.25886 250.645545 
L 391.25886 245.85505 
L 391.582308 245.85505 
L 391.582308 241.064554 
L 391.983951 241.064554 
L 391.983951 236.274059 
L 391.983951 236.274059 
L 391.983951 231.483564 
L 392.40915 231.483564 
L 392.40915 226.693069 
L 392.673234 226.693069 
L 392.673234 221.902574 
L 392.857339 221.902574 
L 392.857339 217.112079 
L 392.909827 217.112079 
L 392.909827 212.321584 
L 392.988464 212.321584 
L 392.988464 207.531089 
L 393.249777 207.531089 
L 393.249777 202.740594 
L 393.613535 202.740594 
L 393.613535 197.950099 
L 393.717024 197.950099 
L 393.717024 193.159604 
L 394.282745 193.159604 
L 394.282745 188.369109 
L 395.24635 188.369109 
L 395.24635 183.578614 
L 395.396961 183.578614 
L 395.396961 178.788119 
L 395.597134 178.788119 
L 395.597134 173.997624 
L 396.685203 173.997624 
L 396.685203 169.207129 
L 396.734151 169.207129 
L 396.734151 164.416634 
L 396.783055 164.416634 
L 396.783055 159.626139 
L 397.63189 159.626139 
L 397.63189 154.835644 
L 399.663402 154.835644 
L 399.663402 150.045149 
L 403.014106 150.045149 
L 403.014106 145.254653 
L 403.318657 145.254653 
L 403.318657 140.464158 
L 405.612832 140.464158 
L 405.612832 135.673663 
L 407.994371 135.673663 
L 407.994371 130.883168 
L 408.411082 130.883168 
L 408.411082 126.092673 
L 408.569 126.092673 
L 408.569 121.302178 
L 408.844265 121.302178 
L 408.844265 116.511683 
L 410.581556 116.511683 
L 410.581556 111.721188 
L 411.355089 111.721188 
L 411.355089 106.930693 
L 411.728496 106.930693 
L 411.728496 102.140198 
L 413.033912 102.140198 
L 413.033912 97.349703 
L 415.119473 97.349703 
L 415.119473 92.559208 
L 439.110391 92.559208 
L 439.110391 87.768713 
L 443.418304 87.768713 
L 443.418304 82.978218 
L 448.942843 82.978218 
L 448.942843 78.187723 
L 450.770672 78.187723 
L 450.770672 73.397228 
L 459.328407 73.397228 
L 459.328407 68.606733 
L 460.677687 68.606733 
L 460.677687 63.816238 
L 461.8 63.816238 
" clip-path="url(#pa6dd7f9992)" style="fill: none; stroke: #f5deb3; stroke-width: 1.5; stroke-linecap: square"/>
   </g>
   <g id="line2d_8">
    <path clip-path="url(#pa6dd7f9992)" style="fill: none; stroke: #f5deb3; stroke-width: 1.5; stroke-linecap: square"/>
   </g>
   <g id="line2d_9">
    <path d="M 299.808119 293.76 
L 299.808119 288.969505 
L 324.091036 288.969505 
L 324.091036 284.17901 
L 338.005461 284.17901 
L 338.005461 279.388515 
L 360.104649 279.388515 
L 360.104649 274.59802 
L 363.527703 274.59802 
L 363.527703 269.807525 
L 364.417289 269.807525 
L 364.417289 265.01703 
L 365.59577 265.01703 
L 365.59577 260.226535 
L 365.811254 260.226535 
L 365.811254 255.43604 
L 374.466812 255.43604 
L 374.466812 250.645545 
L 376.095111 250.645545 
L 376.095111 245.85505 
L 379.515656 245.85505 
L 379.515656 241.064554 
L 379.716256 241.064554 
L 379.716256 236.274059 
L 380.048967 236.274059 
L 380.048967 231.483564 
L 382.829839 231.483564 
L 382.829839 226.693069 
L 382.861359 226.693069 
L 382.861359 221.902574 
L 383.612447 221.902574 
L 383.612447 217.112079 
L 383.922388 217.112079 
L 383.922388 212.321584 
L 384.138308 212.321584 
L 384.138308 207.531089 
L 384.230585 207.531089 
L 384.230585 202.740594 
L 384.4759 202.740594 
L 384.4759 197.950099 
L 384.781009 197.950099 
L 384.781009 193.159604 
L 385.054161 193.159604 
L 385.054161 188.369109 
L 385.114677 188.369109 
L 385.114677 183.578614 
L 386.665085 183.578614 
L 386.665085 178.788119 
L 386.987509 178.788119 
L 386.987509 173.997624 
L 387.191705 173.997624 
L 387.191705 169.207129 
L 388.115601 169.207129 
L 388.115601 164.416634 
L 388.628528 164.416634 
L 388.628528 159.626139 
L 389.024178 159.626139 
L 389.024178 154.835644 
L 390.1667 154.835644 
L 390.1667 150.045149 
L 390.221828 150.045149 
L 390.221828 145.254653 
L 390.414341 145.254653 
L 390.414341 140.464158 
L 390.469221 140.464158 
L 390.469221 135.673663 
L 391.312901 135.673663 
L 391.312901 130.883168 
L 391.555427 130.883168 
L 391.555427 126.092673 
L 392.170382 126.092673 
L 392.170382 121.302178 
L 393.509851 121.302178 
L 393.509851 116.511683 
L 394.18032 116.511683 
L 394.18032 111.721188 
L 394.231556 111.721188 
L 394.231556 106.930693 
L 394.918599 106.930693 
L 394.918599 102.140198 
L 395.2966 102.140198 
L 395.2966 97.349703 
L 395.522155 97.349703 
L 395.522155 92.559208 
L 396.094391 92.559208 
L 396.094391 87.768713 
L 396.587175 87.768713 
L 396.587175 82.978218 
L 397.824078 82.978218 
L 397.824078 78.187723 
L 398.538835 78.187723 
L 398.538835 73.397228 
L 398.751457 73.397228 
L 398.751457 68.606733 
L 399.384417 68.606733 
L 399.384417 63.816238 
L 400.423368 63.816238 
L 400.423368 59.025743 
L 402.289467 59.025743 
L 402.289467 54.235248 
L 402.92678 54.235248 
L 402.92678 49.444752 
L 407.029817 49.444752 
L 407.029817 44.654257 
L 407.171543 44.654257 
L 407.171543 39.863762 
L 407.211969 39.863762 
L 407.211969 35.073267 
L 411.073354 35.073267 
L 411.073354 30.282772 
L 415.01443 30.282772 
L 415.01443 25.492277 
L 419.471951 25.492277 
L 419.471951 20.701782 
L 420.749335 20.701782 
L 420.749335 15.911287 
L 441.582537 15.911287 
L 441.582537 11.120792 
L 446.482557 11.120792 
L 446.482557 6.330297 
L 446.482557 6.330297 
L 446.482557 6.330297 
L 460.8 6.330297 
" clip-path="url(#pa6dd7f9992)" style="fill: none; stroke: #f5deb3; stroke-width: 1.5; stroke-linecap: square"/>
   </g>
   <g id="line2d_10">
    <path clip-path="url(#pa6dd7f9992)" style="fill: none; stroke: #f5deb3; stroke-width: 1.5; stroke-linecap: square"/>
   </g>
   <g id="line2d_11">
    <path d="M 301.641919 293.76 
L 301.641919 288.969505 
L 350.361571 288.969505 
L 350.361571 284.17901 
L 353.195109 284.17901 
L 353.195109 279.388515 
L 354.690644 279.388515 
L 354.690644 274.59802 
L 360.437764 274.59802 
L 360.437764 269.807525 
L 362.25751 269.807525 
L 362.25751 265.01703 
L 366.239694 265.01703 
L 366.239694 260.226535 
L 366.452665 260.226535 
L 366.452665 255.43604 
L 369.108012 255.43604 
L 369.108012 250.645545 
L 369.712178 250.645545 
L 369.712178 245.85505 
L 370.940069 245.85505 
L 370.940069 241.064554 
L 371.640612 241.064554 
L 371.640612 236.274059 
L 383.175565 236.274059 
L 383.175565 231.483564 
L 390.688191 231.483564 
L 390.688191 226.693069 
L 401.577515 226.693069 
L 401.577515 221.902574 
L 401.756372 221.902574 
L 401.756372 217.112079 
L 425.203403 217.112079 
L 425.203403 212.321584 
L 461.8 212.321584 
" clip-path="url(#pa6dd7f9992)" style="fill: none; stroke: #f5deb3; stroke-width: 1.5; stroke-linecap: square"/>
   </g>
   <g id="line2d_12">
    <path d="M 283.370372 293.76 
L 283.370372 288.969505 
L 289.93203 288.969505 
L 289.93203 284.17901 
L 291.955545 284.17901 
L 291.955545 279.388515 
L 292.939954 279.388515 
L 292.939954 274.59802 
L 292.939954 274.59802 
L 292.939954 269.807525 
L 296.709735 269.807525 
L 296.709735 265.01703 
L 298.501632 265.01703 
L 298.501632 260.226535 
L 298.501632 260.226535 
L 298.501632 255.43604 
L 299.376075 255.43604 
L 299.376075 250.645545 
L 301.918674 250.645545 
L 301.918674 245.85505 
L 302.740649 245.85505 
L 302.740649 241.064554 
L 304.348509 241.064554 
L 304.348509 236.274059 
L 304.348509 236.274059 
L 304.348509 231.483564 
L 311.748132 231.483564 
L 311.748132 226.693069 
L 312.435973 226.693069 
L 312.435973 221.902574 
L 312.435973 221.902574 
L 312.435973 217.112079 
L 313.115287 217.112079 
L 313.115287 212.321584 
L 315.751336 212.321584 
L 315.751336 207.531089 
L 316.391001 207.531089 
L 316.391001 202.740594 
L 317.648355 202.740594 
L 317.648355 197.950099 
L 319.481893 197.950099 
L 319.481893 193.159604 
L 324.640846 193.159604 
L 324.640846 188.369109 
L 326.257933 188.369109 
L 326.257933 183.578614 
L 335.520891 183.578614 
L 335.520891 178.788119 
L 338.996653 178.788119 
L 338.996653 173.997624 
L 342.660213 173.997624 
L 342.660213 169.207129 
L 342.660213 169.207129 
L 342.660213 164.416634 
L 343.052558 164.416634 
L 343.052558 159.626139 
L 348.623668 159.626139 
L 348.623668 154.835644 
L 389.500801 154.835644 
L 389.500801 150.045149 
L 403.987056 150.045149 
L 403.987056 145.254653 
L 455.806439 145.254653 
L 455.806439 140.464158 
L 461.8 140.464158 
" clip-path="url(#pa6dd7f9992)" style="fill: none; stroke: #f5deb3; stroke-width: 1.5; stroke-linecap: square"/>
   </g>
   <g id="line2d_13">
    <path d="M 417.077955 293.76 
L 417.077955 288.969505 
L 421.595037 288.969505 
L 421.595037 284.17901 
L 432.226948 284.17901 
L 432.226948 279.388515 
L 432.226948 279.388515 
L 432.226948 274.59802 
L 440.470638 274.59802 
L 440.470638 269.807525 
L 445.867296 269.807525 
L 445.867296 265.01703 
L 445.867296 265.01703 
L 445.867296 260.226535 
L 461.8 260.226535 
" clip-path="url(#pa6dd7f9992)" style="fill: none; stroke: #f5deb3; stroke-width: 1.5; stroke-linecap: square"/>
   </g>
   <g id="line2d_14">
    <path d="M 325.991711 293.76 
L 325.991711 288.969505 
L 331.327551 288.969505 
L 331.327551 284.17901 
L 346.767984 284.17901 
L 346.767984 279.388515 
L 351.210282 279.388515 
L 351.210282 274.59802 
L 354.953462 274.59802 
L 354.953462 269.807525 
L 356.860095 269.807525 
L 356.860095 265.01703 
L 360.056895 265.01703 
L 360.056895 260.226535 
L 364.063185 260.226535 
L 364.063185 255.43604 
L 365.940138 255.43604 
L 365.940138 250.645545 
L 370.58641 250.645545 
L 370.58641 245.85505 
L 370.822436 245.85505 
L 370.822436 241.064554 
L 371.446913 241.064554 
L 371.446913 236.274059 
L 372.750759 236.274059 
L 372.750759 231.483564 
L 375.485649 231.483564 
L 375.485649 226.693069 
L 378.193541 226.693069 
L 378.193541 221.902574 
L 384.506488 221.902574 
L 384.506488 217.112079 
L 386.429397 217.112079 
L 386.429397 212.321584 
L 387.914825 212.321584 
L 387.914825 207.531089 
L 393.040827 207.531089 
L 393.040827 202.740594 
L 397.872019 202.740594 
L 397.872019 197.950099 
L 404.0299 197.950099 
L 404.0299 193.159604 
L 404.328873 193.159604 
L 404.328873 188.369109 
L 404.837633 188.369109 
L 404.837633 183.578614 
L 410.391221 183.578614 
L 410.391221 178.788119 
L 410.733349 178.788119 
L 410.733349 173.997624 
L 411.579438 173.997624 
L 411.579438 169.207129 
L 418.919914 169.207129 
L 418.919914 164.416634 
L 425.072292 164.416634 
L 425.072292 159.626139 
L 429.725909 159.626139 
L 429.725909 154.835644 
L 434.680034 154.835644 
L 434.680034 150.045149 
L 437.401957 150.045149 
L 437.401957 145.254653 
L 441.474519 145.254653 
L 441.474519 140.464158 
L 444.544138 140.464158 
L 444.544138 135.673663 
L 453.137032 135.673663 
L 453.137032 130.883168 
L 456.361333 130.883168 
L 456.361333 126.092673 
L 461.8 126.092673 
" clip-path="url(#pa6dd7f9992)" style="fill: none; stroke: #f5deb3; stroke-width: 1.5; stroke-linecap: square"/>
   </g>
   <g id="line2d_15">
    <path clip-path="url(#pa6dd7f9992)" style="fill: none; stroke: #f5deb3; stroke-width: 1.5; stroke-linecap: square"/>
   </g>
   <g id="line2d_16">
    <path clip-path="url(#pa6dd7f9992)" style="fill: none; stroke: #f5deb3; stroke-width: 1.5; stroke-linecap: square"/>
   </g>
   <g id="line2d_17">
    <path d="M 422.611257 293.76 
L 422.611257 288.969505 
L 446.630378 288.969505 
L 446.630378 284.17901 
L 448.820053 284.17901 
L 448.820053 279.388515 
L 450.340096 279.388515 
L 450.340096 274.59802 
L 453.005781 274.59802 
L 453.005781 269.807525 
L 453.276688 269.807525 
L 453.276688 265.01703 
L 453.49419 265.01703 
L 453.49419 260.226535 
L 454.704992 260.226535 
L 454.704992 255.43604 
L 456.080447 255.43604 
L 456.080447 250.645545 
L 456.869858 250.645545 
L 456.869858 245.85505 
L 456.951438 245.85505 
L 456.951438 241.064554 
L 457.977075 241.064554 
L 457.977075 236.274059 
L 461.8 236.274059 
" clip-path="url(#pa6dd7f9992)" style="fill: none; stroke: #f5deb3; stroke-width: 1.5; stroke-linecap: square"/>
   </g>
   <g id="line2d_18">
    <path d="M 289.414257 293.76 
L 289.414257 288.969505 
L 289.587392 288.969505 
L 289.587392 284.17901 
L 291.456628 284.17901 
L 291.456628 279.388515 
L 294.22558 279.388515 
L 294.22558 274.59802 
L 297.163233 274.59802 
L 297.163233 269.807525 
L 297.762116 269.807525 
L 297.762116 265.01703 
L 298.501632 265.01703 
L 298.501632 260.226535 
L 299.808119 260.226535 
L 299.808119 255.43604 
L 301.224149 255.43604 
L 301.224149 250.645545 
L 302.468025 250.645545 
L 302.468025 245.85505 
L 304.083787 245.85505 
L 304.083787 241.064554 
L 304.348509 241.064554 
L 304.348509 236.274059 
L 307.053507 236.274059 
L 307.053507 231.483564 
L 307.802457 231.483564 
L 307.802457 226.693069 
L 308.049849 226.693069 
L 308.049849 221.902574 
L 310.464217 221.902574 
L 310.464217 217.112079 
L 310.464217 217.112079 
L 310.464217 212.321584 
L 311.863373 212.321584 
L 311.863373 207.531089 
L 313.227692 207.531089 
L 313.227692 202.740594 
L 315.965389 202.740594 
L 315.965389 197.950099 
L 318.266376 197.950099 
L 318.266376 193.159604 
L 324.183055 193.159604 
L 324.183055 188.369109 
L 332.682608 188.369109 
L 332.682608 183.578614 
L 340.039119 183.578614 
L 340.039119 178.788119 
L 341.398923 178.788119 
L 341.398923 173.997624 
L 348.623668 173.997624 
L 348.623668 169.207129 
L 352.705601 169.207129 
L 352.705601 164.416634 
L 352.869257 164.416634 
L 352.869257 159.626139 
L 363.885272 159.626139 
L 363.885272 154.835644 
L 368.619837 154.835644 
L 368.619837 150.045149 
L 380.544276 150.045149 
L 380.544276 145.254653 
L 406.500174 145.254653 
L 406.500174 140.464158 
L 415.049467 140.464158 
L 415.049467 135.673663 
L 425.174295 135.673663 
L 425.174295 130.883168 
L 426.851674 130.883168 
L 426.851674 126.092673 
L 429.079007 126.092673 
L 429.079007 121.302178 
L 429.9532 121.302178 
L 429.9532 116.511683 
L 432.431368 116.511683 
L 432.431368 111.721188 
L 433.140892 111.721188 
L 433.140892 106.930693 
L 435.32493 106.930693 
L 435.32493 102.140198 
L 436.568746 102.140198 
L 436.568746 97.349703 
L 440.448609 97.349703 
L 440.448609 92.559208 
L 442.883487 92.559208 
L 442.883487 87.768713 
L 447.702385 87.768713 
L 447.702385 82.978218 
L 461.8 82.978218 
" clip-path="url(#pa6dd7f9992)" style="fill: none; stroke: #f5deb3; stroke-width: 1.5; stroke-linecap: square"/>
   </g>
   <g id="line2d_19">
    <path d="M 0 0 
" clip-path="url(#pa6dd7f9992)" style="fill: none; stroke: #f5deb3; stroke-width: 1.5; stroke-linecap: square"/>
   </g>
   <g id="line2d_20">
    <path d="M 311.978373 293.76 
L 311.978373 288.969505 
L 316.918409 288.969505 
L 316.918409 284.17901 
L 318.9787 284.17901 
L 318.9787 279.388515 
L 323.162246 279.388515 
L 323.162246 274.59802 
L 324.731947 274.59802 
L 324.731947 269.807525 
L 325.634724 269.807525 
L 325.634724 265.01703 
L 326.169336 265.01703 
L 326.169336 260.226535 
L 326.786528 260.226535 
L 326.786528 255.43604 
L 328.427547 255.43604 
L 328.427547 250.645545 
L 329.019956 250.645545 
L 329.019956 245.85505 
L 333.541885 245.85505 
L 333.541885 241.064554 
L 334.235043 241.064554 
L 334.235043 236.274059 
L 335.520891 236.274059 
L 335.520891 231.483564 
L 336.704144 231.483564 
L 336.704144 226.693069 
L 336.777256 226.693069 
L 336.777256 221.902574 
L 337.647073 221.902574 
L 337.647073 217.112079 
L 337.790709 217.112079 
L 337.790709 212.321584 
L 342.066377 212.321584 
L 342.066377 207.531089 
L 344.657748 207.531089 
L 344.657748 202.740594 
L 348.091364 202.740594 
L 348.091364 197.950099 
L 350.304521 197.950099 
L 350.304521 193.159604 
L 355.423379 193.159604 
L 355.423379 188.369109 
L 355.992304 188.369109 
L 355.992304 183.578614 
L 364.856724 183.578614 
L 364.856724 178.788119 
L 367.170636 178.788119 
L 367.170636 173.997624 
L 370.151037 173.997624 
L 370.151037 169.207129 
L 373.316268 169.207129 
L 373.316268 164.416634 
L 376.34411 164.416634 
L 376.34411 159.626139 
L 383.456817 159.626139 
L 383.456817 154.835644 
L 387.278985 154.835644 
L 387.278985 150.045149 
L 431.647894 150.045149 
L 431.647894 145.254653 
L 439.738962 145.254653 
L 439.738962 140.464158 
L 446.502289 140.464158 
L 446.502289 135.673663 
L 461.8 135.673663 
" clip-path="url(#pa6dd7f9992)" style="fill: none; stroke: #f5deb3; stroke-width: 1.5; stroke-linecap: square"/>
   </g>
   <g id="line2d_21"/>
   <g id="line2d_22">
    <path d="M 301.36376 293.76 
L 301.36376 288.969505 
L 305.004772 288.969505 
L 305.004772 284.17901 
L 305.265092 284.17901 
L 305.265092 279.388515 
L 310.699905 279.388515 
L 310.699905 274.59802 
L 316.813333 274.59802 
L 316.813333 269.807525 
L 317.232434 269.807525 
L 317.232434 265.01703 
L 318.470844 265.01703 
L 318.470844 260.226535 
L 320.474625 260.226535 
L 320.474625 255.43604 
L 322.40771 255.43604 
L 322.40771 250.645545 
L 325.455354 250.645545 
L 325.455354 245.85505 
L 326.874134 245.85505 
L 326.874134 241.064554 
L 332.128696 241.064554 
L 332.128696 236.274059 
L 332.366773 236.274059 
L 332.366773 231.483564 
L 339.832206 231.483564 
L 339.832206 226.693069 
L 345.411852 226.693069 
L 345.411852 221.902574 
L 348.446807 221.902574 
L 348.446807 217.112079 
L 349.092525 217.112079 
L 349.092525 212.321584 
L 350.815852 212.321584 
L 350.815852 207.531089 
L 353.411272 207.531089 
L 353.411272 202.740594 
L 354.426561 202.740594 
L 354.426561 197.950099 
L 355.940827 197.950099 
L 355.940827 193.159604 
L 357.764195 193.159604 
L 357.764195 188.369109 
L 360.3903 188.369109 
L 360.3903 183.578614 
L 388.514958 183.578614 
L 388.514958 178.788119 
L 388.967831 178.788119 
L 388.967831 173.997624 
L 402.773623 173.997624 
L 402.773623 169.207129 
L 407.009541 169.207129 
L 407.009541 164.416634 
L 409.739093 164.416634 
L 409.739093 159.626139 
L 411.392544 159.626139 
L 411.392544 154.835644 
L 412.651031 154.835644 
L 412.651031 150.045149 
L 413.70207 150.045149 
L 413.70207 145.254653 
L 416.347426 145.254653 
L 416.347426 140.464158 
L 418.08129 140.464158 
L 418.08129 135.673663 
L 420.512083 135.673663 
L 420.512083 130.883168 
L 434.422395 130.883168 
L 434.422395 126.092673 
L 434.802295 126.092673 
L 434.802295 121.302178 
L 439.008695 121.302178 
L 439.008695 116.511683 
L 440.734298 116.511683 
L 440.734298 111.721188 
L 446.807239 111.721188 
L 446.807239 106.930693 
L 450.257258 106.930693 
L 450.257258 102.140198 
L 452.193824 102.140198 
L 452.193824 97.349703 
L 455.001446 97.349703 
L 455.001446 92.559208 
L 455.997559 92.559208 
L 455.997559 87.768713 
L 457.52719 87.768713 
L 457.52719 82.978218 
L 460.844984 82.978218 
L 460.844984 78.187723 
L 461.8 78.187723 
" clip-path="url(#pa6dd7f9992)" style="fill: none; stroke: #f5deb3; stroke-width: 1.5; stroke-linecap: square"/>
   </g>
   <g id="line2d_23">
    <path d="M 447.721683 293.76 
L 447.721683 288.969505 
L 461.8 288.969505 
" clip-path="url(#pa6dd7f9992)" style="fill: none; stroke: #f5deb3; stroke-width: 1.5; stroke-linecap: square"/>
   </g>
   <g id="line2d_24">
    <path d="M 333.928055 293.76 
L 333.928055 288.969505 
L 337.286326 288.969505 
L 337.286326 284.17901 
L 338.432455 284.17901 
L 338.432455 279.388515 
L 348.975686 279.388515 
L 348.975686 274.59802 
L 349.092525 274.59802 
L 349.092525 269.807525 
L 352.760207 269.807525 
L 352.760207 265.01703 
L 357.163122 265.01703 
L 357.163122 260.226535 
L 362.94163 260.226535 
L 362.94163 255.43604 
L 378.705829 255.43604 
L 378.705829 250.645545 
L 384.414674 250.645545 
L 384.414674 245.85505 
L 388.258563 245.85505 
L 388.258563 241.064554 
L 397.655951 241.064554 
L 397.655951 236.274059 
L 409.758385 236.274059 
L 409.758385 231.483564 
L 418.559728 231.483564 
L 418.559728 226.693069 
L 418.805566 226.693069 
L 418.805566 221.902574 
L 419.455794 221.902574 
L 419.455794 217.112079 
L 419.488104 217.112079 
L 419.488104 212.321584 
L 424.823778 212.321584 
L 424.823778 207.531089 
L 426.098191 207.531089 
L 426.098191 202.740594 
L 426.269701 202.740594 
L 426.269701 197.950099 
L 428.820817 197.950099 
L 428.820817 193.159604 
L 431.453508 193.159604 
L 431.453508 188.369109 
L 431.51838 188.369109 
L 431.51838 183.578614 
L 432.380334 183.578614 
L 432.380334 178.788119 
L 432.558744 178.788119 
L 432.558744 173.997624 
L 433.166063 173.997624 
L 433.166063 169.207129 
L 433.990286 169.207129 
L 433.990286 164.416634 
L 435.009514 164.416634 
L 435.009514 159.626139 
L 435.49402 159.626139 
L 435.49402 154.835644 
L 437.981215 154.835644 
L 437.981215 150.045149 
L 438.165292 150.045149 
L 438.165292 145.254653 
L 438.245632 145.254653 
L 438.245632 140.464158 
L 438.634186 140.464158 
L 438.634186 135.673663 
L 439.414352 135.673663 
L 439.414352 130.883168 
L 439.872722 130.883168 
L 439.872722 126.092673 
L 440.789068 126.092673 
L 440.789068 121.302178 
L 440.974877 121.302178 
L 440.974877 116.511683 
L 440.996696 116.511683 
L 440.996696 111.721188 
L 441.797935 111.721188 
L 441.797935 106.930693 
L 445.17435 106.930693 
L 445.17435 102.140198 
L 447.460582 102.140198 
L 447.460582 97.349703 
L 447.83733 97.349703 
L 447.83733 92.559208 
L 449.196992 92.559208 
L 449.196992 87.768713 
L 450.12815 87.768713 
L 450.12815 82.978218 
L 451.441815 82.978218 
L 451.441815 78.187723 
L 452.548328 78.187723 
L 452.548328 73.397228 
L 452.645416 73.397228 
L 452.645416 68.606733 
L 457.317052 68.606733 
L 457.317052 63.816238 
L 458.470891 63.816238 
L 458.470891 59.025743 
L 459.841188 59.025743 
L 459.841188 54.235248 
L 460.807007 54.235248 
L 460.807007 49.444752 
L 461.8 49.444752 
" clip-path="url(#pa6dd7f9992)" style="fill: none; stroke: #f5deb3; stroke-width: 1.5; stroke-linecap: square"/>
   </g>
   <g id="line2d_25">
    <path clip-path="url(#pa6dd7f9992)" style="fill: none; stroke: #f5deb3; stroke-width: 1.5; stroke-linecap: square"/>
   </g>
   <g id="line2d_26">
    <path d="M 422.733164 293.76 
L 422.733164 288.969505 
L 425.479168 288.969505 
L 425.479168 284.17901 
L 428.14929 284.17901 
L 428.14929 279.388515 
L 435.32493 279.388515 
L 435.32493 274.59802 
L 435.878564 274.59802 
L 435.878564 269.807525 
L 435.986233 269.807525 
L 435.986233 265.01703 
L 436.296092 265.01703 
L 436.296092 260.226535 
L 436.35548 260.226535 
L 436.35548 255.43604 
L 436.840049 255.43604 
L 436.840049 250.645545 
L 437.39031 250.645545 
L 437.39031 245.85505 
L 438.050317 245.85505 
L 438.050317 241.064554 
L 438.084835 241.064554 
L 438.084835 236.274059 
L 438.417392 236.274059 
L 438.417392 231.483564 
L 438.872806 231.483564 
L 438.872806 226.693069 
L 439.008695 226.693069 
L 439.008695 221.902574 
L 439.076513 221.902574 
L 439.076513 217.112079 
L 439.256953 217.112079 
L 439.256953 212.321584 
L 440.23889 212.321584 
L 440.23889 207.531089 
L 445.827364 207.531089 
L 445.827364 202.740594 
L 445.877275 202.740594 
L 445.877275 197.950099 
L 445.947074 197.950099 
L 445.947074 193.159604 
L 446.225385 193.159604 
L 446.225385 188.369109 
L 446.472688 188.369109 
L 446.472688 183.578614 
L 446.846464 183.578614 
L 446.846464 178.788119 
L 446.954188 178.788119 
L 446.954188 173.997624 
L 447.081226 173.997624 
L 447.081226 169.207129 
L 447.246909 169.207129 
L 447.246909 164.416634 
L 447.25664 164.416634 
L 447.25664 159.626139 
L 447.412093 159.626139 
L 447.412093 154.835644 
L 447.441192 154.835644 
L 447.441192 150.045149 
L 447.885444 150.045149 
L 447.885444 145.254653 
L 447.943126 145.254653 
L 447.943126 140.464158 
L 448.058306 140.464158 
L 448.058306 135.673663 
L 448.096646 135.673663 
L 448.096646 130.883168 
L 448.221066 130.883168 
L 448.221066 126.092673 
L 448.488091 126.092673 
L 448.488091 121.302178 
L 449.645923 121.302178 
L 449.645923 116.511683 
L 449.785463 116.511683 
L 449.785463 111.721188 
L 449.869017 111.721188 
L 449.869017 106.930693 
L 449.933915 106.930693 
L 449.933915 102.140198 
L 449.952443 102.140198 
L 449.952443 97.349703 
L 450.376873 97.349703 
L 450.376873 92.559208 
L 455.856361 92.559208 
L 455.856361 87.768713 
L 456.353092 87.768713 
L 456.353092 82.978218 
L 461.8 82.978218 
" clip-path="url(#pa6dd7f9992)" style="fill: none; stroke: #f5deb3; stroke-width: 1.5; stroke-linecap: square"/>
   </g>
   <g id="line2d_27">
    <path d="M 358.457215 293.76 
L 358.457215 288.969505 
L 381.100266 288.969505 
L 381.100266 284.17901 
L 385.77598 284.17901 
L 385.77598 279.388515 
L 391.716516 279.388515 
L 391.716516 274.59802 
L 394.461529 274.59802 
L 394.461529 269.807525 
L 396.316692 269.807525 
L 396.316692 265.01703 
L 402.729785 265.01703 
L 402.729785 260.226535 
L 403.643094 260.226535 
L 403.643094 255.43604 
L 404.879817 255.43604 
L 404.879817 250.645545 
L 405.903315 250.645545 
L 405.903315 245.85505 
L 407.292731 245.85505 
L 407.292731 241.064554 
L 410.104474 241.064554 
L 410.104474 236.274059 
L 411.167427 236.274059 
L 411.167427 231.483564 
L 411.988375 231.483564 
L 411.988375 226.693069 
L 414.006351 226.693069 
L 414.006351 221.902574 
L 415.607027 221.902574 
L 415.607027 217.112079 
L 416.790304 217.112079 
L 416.790304 212.321584 
L 417.848816 212.321584 
L 417.848816 207.531089 
L 421.548395 207.531089 
L 421.548395 202.740594 
L 423.263343 202.740594 
L 423.263343 197.950099 
L 423.78844 197.950099 
L 423.78844 193.159604 
L 428.341996 193.159604 
L 428.341996 188.369109 
L 429.966541 188.369109 
L 429.966541 183.578614 
L 433.779168 183.578614 
L 433.779168 178.788119 
L 445.697382 178.788119 
L 445.697382 173.997624 
L 447.003083 173.997624 
L 447.003083 169.207129 
L 447.373271 169.207129 
L 447.373271 164.416634 
L 453.49419 164.416634 
L 453.49419 159.626139 
L 460.118878 159.626139 
L 460.118878 154.835644 
L 461.403991 154.835644 
L 461.403991 150.045149 
L 461.8 150.045149 
" clip-path="url(#pa6dd7f9992)" style="fill: none; stroke: #f5deb3; stroke-width: 1.5; stroke-linecap: square"/>
   </g>
   <g id="line2d_28">
    <path d="M 317.440789 293.76 
L 317.440789 288.969505 
L 319.481893 288.969505 
L 319.481893 284.17901 
L 325.902682 284.17901 
L 325.902682 279.388515 
L 335.520891 279.388515 
L 335.520891 274.59802 
L 364.284768 274.59802 
L 364.284768 269.807525 
L 386.488414 269.807525 
L 386.488414 265.01703 
L 392.909827 265.01703 
L 392.909827 260.226535 
L 394.461529 260.226535 
L 394.461529 255.43604 
L 394.715927 255.43604 
L 394.715927 250.645545 
L 397.68 250.645545 
L 397.68 245.85505 
L 398.680675 245.85505 
L 398.680675 241.064554 
L 399.640207 241.064554 
L 399.640207 236.274059 
L 401.599904 236.274059 
L 401.599904 231.483564 
L 402.311567 231.483564 
L 402.311567 226.693069 
L 402.883064 226.693069 
L 402.883064 221.902574 
L 403.057717 221.902574 
L 403.057717 217.112079 
L 403.858324 217.112079 
L 403.858324 212.321584 
L 405.320802 212.321584 
L 405.320802 207.531089 
L 408.667467 207.531089 
L 408.667467 202.740594 
L 408.922659 202.740594 
L 408.922659 197.950099 
L 409.176667 197.950099 
L 409.176667 193.159604 
L 410.104474 193.159604 
L 410.104474 188.369109 
L 410.884723 188.369109 
L 410.884723 183.578614 
L 410.97912 183.578614 
L 410.97912 178.788119 
L 411.092181 178.788119 
L 411.092181 173.997624 
L 413.684118 173.997624 
L 413.684118 169.207129 
L 413.970641 169.207129 
L 413.970641 164.416634 
L 414.556903 164.416634 
L 414.556903 159.626139 
L 414.574571 159.626139 
L 414.574571 154.835644 
L 415.10198 154.835644 
L 415.10198 150.045149 
L 416.158972 150.045149 
L 416.158972 145.254653 
L 417.548465 145.254653 
L 417.548465 140.464158 
L 417.931956 140.464158 
L 417.931956 135.673663 
L 418.756487 135.673663 
L 418.756487 130.883168 
L 419.277749 130.883168 
L 419.277749 126.092673 
L 420.178194 126.092673 
L 420.178194 121.302178 
L 422.120898 121.302178 
L 422.120898 116.511683 
L 422.33597 116.511683 
L 422.33597 111.721188 
L 424.204926 111.721188 
L 424.204926 106.930693 
L 425.247038 106.930693 
L 425.247038 102.140198 
L 425.868673 102.140198 
L 425.868673 97.349703 
L 426.069554 97.349703 
L 426.069554 92.559208 
L 426.724452 92.559208 
L 426.724452 87.768713 
L 436.034018 87.768713 
L 436.034018 82.978218 
L 454.713484 82.978218 
L 454.713484 78.187723 
L 455.556147 78.187723 
L 455.556147 73.397228 
L 456.295371 73.397228 
L 456.295371 68.606733 
L 456.468351 68.606733 
L 456.468351 63.816238 
L 457.559447 63.816238 
L 457.559447 59.025743 
L 458.510522 59.025743 
L 458.510522 54.235248 
L 458.968155 54.235248 
L 458.968155 49.444752 
L 459.125077 49.444752 
L 459.125077 44.654257 
L 459.957063 44.654257 
L 459.957063 39.863762 
L 461.004202 39.863762 
L 461.004202 35.073267 
L 461.8 35.073267 
" clip-path="url(#pa6dd7f9992)" style="fill: none; stroke: #f5deb3; stroke-width: 1.5; stroke-linecap: square"/>
   </g>
   <g id="line2d_29">
    <path d="M 271.045808 293.76 
L 271.045808 288.969505 
L 271.045808 288.969505 
L 271.045808 284.17901 
L 271.045808 284.17901 
L 271.045808 279.388515 
L 291.955545 279.388515 
L 291.955545 274.59802 
L 291.955545 274.59802 
L 291.955545 269.807525 
L 291.955545 269.807525 
L 291.955545 265.01703 
L 293.90699 265.01703 
L 293.90699 260.226535 
L 293.90699 260.226535 
L 293.90699 255.43604 
L 293.90699 255.43604 
L 293.90699 250.645545 
L 294.384183 250.645545 
L 294.384183 245.85505 
L 294.384183 245.85505 
L 294.384183 241.064554 
L 294.384183 241.064554 
L 294.384183 236.274059 
L 297.463492 236.274059 
L 297.463492 231.483564 
L 297.463492 231.483564 
L 297.463492 226.693069 
L 297.463492 226.693069 
L 297.463492 221.902574 
L 302.468025 221.902574 
L 302.468025 217.112079 
L 302.468025 217.112079 
L 302.468025 212.321584 
L 302.468025 212.321584 
L 302.468025 207.531089 
L 302.876454 207.531089 
L 302.876454 202.740594 
L 302.876454 202.740594 
L 302.876454 197.950099 
L 302.876454 197.950099 
L 302.876454 193.159604 
L 305.004772 193.159604 
L 305.004772 188.369109 
L 305.004772 188.369109 
L 305.004772 183.578614 
L 305.004772 183.578614 
L 305.004772 178.788119 
L 319.180532 178.788119 
L 319.180532 173.997624 
L 319.180532 173.997624 
L 319.180532 169.207129 
L 319.180532 169.207129 
L 319.180532 164.416634 
L 347.613825 164.416634 
L 347.613825 159.626139 
L 347.613825 159.626139 
L 347.613825 154.835644 
L 347.613825 154.835644 
L 347.613825 150.045149 
L 396.316692 150.045149 
L 396.316692 145.254653 
L 396.316692 145.254653 
L 396.316692 140.464158 
L 396.316692 140.464158 
L 396.316692 135.673663 
L 461.8 135.673663 
" clip-path="url(#pa6dd7f9992)" style="fill: none; stroke: #f5deb3; stroke-width: 1.5; stroke-linecap: square"/>
   </g>
   <g id="line2d_30">
    <path d="M 441.765679 293.76 
L 441.765679 288.969505 
L 461.8 288.969505 
" clip-path="url(#pa6dd7f9992)" style="fill: none; stroke: #f5deb3; stroke-width: 1.5; stroke-linecap: square"/>
   </g>
   <g id="matplotlib.axis_1">
    <g id="xtick_1">
     <g id="line2d_31">
      <path d="M 62.208 293.76 
L 62.208 3.456 
" clip-path="url(#pa6dd7f9992)" style="fill: none; stroke: #b0b0b0; stroke-width: 0.8; stroke-linecap: square"/>
     </g>
     <g id="line2d_32">
      <defs>
       <path id="ma65eb6cd6e" d="M 0 0 
L 0 3.5 
" style="stroke: #000000; stroke-width: 0.8"/>
      </defs>
      <g>
       <use xlink:href="#ma65eb6cd6e" x="62.208" y="293.76" style="stroke: #000000; stroke-width: 0.8"/>
      </g>
     </g>
     <g id="text_1">
      <!-- 0 -->
      <g transform="translate(55.8455 315.956875)scale(0.2 -0.2)">
       <defs>
        <path id="DejaVuSans-30" d="M 2034 4250 
Q 1547 4250 1301 3770 
Q 1056 3291 1056 2328 
Q 1056 1369 1301 889 
Q 1547 409 2034 409 
Q 2525 409 2770 889 
Q 3016 1369 3016 2328 
Q 3016 3291 2770 3770 
Q 2525 4250 2034 4250 
z
M 2034 4750 
Q 2819 4750 3233 4129 
Q 3647 3509 3647 2328 
Q 3647 1150 3233 529 
Q 2819 -91 2034 -91 
Q 1250 -91 836 529 
Q 422 1150 422 2328 
Q 422 3509 836 4129 
Q 1250 4750 2034 4750 
z
" transform="scale(0.015625)"/>
       </defs>
       <use xlink:href="#DejaVuSans-30"/>
      </g>
     </g>
    </g>
    <g id="xtick_2">
     <g id="line2d_33">
      <path d="M 314.558865 293.76 
L 314.558865 3.456 
" clip-path="url(#pa6dd7f9992)" style="fill: none; stroke: #b0b0b0; stroke-width: 0.8; stroke-linecap: square"/>
     </g>
     <g id="line2d_34">
      <g>
       <use xlink:href="#ma65eb6cd6e" x="314.558865" y="293.76" style="stroke: #000000; stroke-width: 0.8"/>
      </g>
     </g>
     <g id="text_2">
      <!-- 2 -->
      <g transform="translate(308.196365 315.956875)scale(0.2 -0.2)">
       <defs>
        <path id="DejaVuSans-32" d="M 1228 531 
L 3431 531 
L 3431 0 
L 469 0 
L 469 531 
Q 828 903 1448 1529 
Q 2069 2156 2228 2338 
Q 2531 2678 2651 2914 
Q 2772 3150 2772 3378 
Q 2772 3750 2511 3984 
Q 2250 4219 1831 4219 
Q 1534 4219 1204 4116 
Q 875 4013 500 3803 
L 500 4441 
Q 881 4594 1212 4672 
Q 1544 4750 1819 4750 
Q 2544 4750 2975 4387 
Q 3406 4025 3406 3419 
Q 3406 3131 3298 2873 
Q 3191 2616 2906 2266 
Q 2828 2175 2409 1742 
Q 1991 1309 1228 531 
z
" transform="scale(0.015625)"/>
       </defs>
       <use xlink:href="#DejaVuSans-32"/>
      </g>
     </g>
    </g>
    <g id="xtick_3">
     <g id="line2d_35">
      <path d="M 100.19059 293.76 
L 100.19059 3.456 
" clip-path="url(#pa6dd7f9992)" style="fill: none; stroke: #b0b0b0; stroke-width: 0.8; stroke-linecap: square"/>
     </g>
     <g id="line2d_36">
      <defs>
       <path id="m4d8f05b26b" d="M 0 0 
L 0 2 
" style="stroke: #000000; stroke-width: 0.6"/>
      </defs>
      <g>
       <use xlink:href="#m4d8f05b26b" x="100.19059" y="293.76" style="stroke: #000000; stroke-width: 0.6"/>
      </g>
     </g>
    </g>
    <g id="xtick_4">
     <g id="line2d_37">
      <path d="M 122.408981 293.76 
L 122.408981 3.456 
" clip-path="url(#pa6dd7f9992)" style="fill: none; stroke: #b0b0b0; stroke-width: 0.8; stroke-linecap: square"/>
     </g>
     <g id="line2d_38">
      <g>
       <use xlink:href="#m4d8f05b26b" x="122.408981" y="293.76" style="stroke: #000000; stroke-width: 0.6"/>
      </g>
     </g>
    </g>
    <g id="xtick_5">
     <g id="line2d_39">
      <path d="M 138.17318 293.76 
L 138.17318 3.456 
" clip-path="url(#pa6dd7f9992)" style="fill: none; stroke: #b0b0b0; stroke-width: 0.8; stroke-linecap: square"/>
     </g>
     <g id="line2d_40">
      <g>
       <use xlink:href="#m4d8f05b26b" x="138.17318" y="293.76" style="stroke: #000000; stroke-width: 0.6"/>
      </g>
     </g>
    </g>
    <g id="xtick_6">
     <g id="line2d_41">
      <path d="M 150.400843 293.76 
L 150.400843 3.456 
" clip-path="url(#pa6dd7f9992)" style="fill: none; stroke: #b0b0b0; stroke-width: 0.8; stroke-linecap: square"/>
     </g>
     <g id="line2d_42">
      <g>
       <use xlink:href="#m4d8f05b26b" x="150.400843" y="293.76" style="stroke: #000000; stroke-width: 0.6"/>
      </g>
     </g>
    </g>
    <g id="xtick_7">
     <g id="line2d_43">
      <path d="M 160.391571 293.76 
L 160.391571 3.456 
" clip-path="url(#pa6dd7f9992)" style="fill: none; stroke: #b0b0b0; stroke-width: 0.8; stroke-linecap: square"/>
     </g>
     <g id="line2d_44">
      <g>
       <use xlink:href="#m4d8f05b26b" x="160.391571" y="293.76" style="stroke: #000000; stroke-width: 0.6"/>
      </g>
     </g>
    </g>
    <g id="xtick_8">
     <g id="line2d_45">
      <path d="M 168.838611 293.76 
L 168.838611 3.456 
" clip-path="url(#pa6dd7f9992)" style="fill: none; stroke: #b0b0b0; stroke-width: 0.8; stroke-linecap: square"/>
     </g>
     <g id="line2d_46">
      <g>
       <use xlink:href="#m4d8f05b26b" x="168.838611" y="293.76" style="stroke: #000000; stroke-width: 0.6"/>
      </g>
     </g>
    </g>
    <g id="xtick_9">
     <g id="line2d_47">
      <path d="M 176.15577 293.76 
L 176.15577 3.456 
" clip-path="url(#pa6dd7f9992)" style="fill: none; stroke: #b0b0b0; stroke-width: 0.8; stroke-linecap: square"/>
     </g>
     <g id="line2d_48">
      <g>
       <use xlink:href="#m4d8f05b26b" x="176.15577" y="293.76" style="stroke: #000000; stroke-width: 0.6"/>
      </g>
     </g>
    </g>
    <g id="xtick_10">
     <g id="line2d_49">
      <path d="M 182.609962 293.76 
L 182.609962 3.456 
" clip-path="url(#pa6dd7f9992)" style="fill: none; stroke: #b0b0b0; stroke-width: 0.8; stroke-linecap: square"/>
     </g>
     <g id="line2d_50">
      <g>
       <use xlink:href="#m4d8f05b26b" x="182.609962" y="293.76" style="stroke: #000000; stroke-width: 0.6"/>
      </g>
     </g>
    </g>
    <g id="xtick_11">
     <g id="line2d_51">
      <path d="M 226.366023 293.76 
L 226.366023 3.456 
" clip-path="url(#pa6dd7f9992)" style="fill: none; stroke: #b0b0b0; stroke-width: 0.8; stroke-linecap: square"/>
     </g>
     <g id="line2d_52">
      <g>
       <use xlink:href="#m4d8f05b26b" x="226.366023" y="293.76" style="stroke: #000000; stroke-width: 0.6"/>
      </g>
     </g>
    </g>
    <g id="xtick_12">
     <g id="line2d_53">
      <path d="M 248.584414 293.76 
L 248.584414 3.456 
" clip-path="url(#pa6dd7f9992)" style="fill: none; stroke: #b0b0b0; stroke-width: 0.8; stroke-linecap: square"/>
     </g>
     <g id="line2d_54">
      <g>
       <use xlink:href="#m4d8f05b26b" x="248.584414" y="293.76" style="stroke: #000000; stroke-width: 0.6"/>
      </g>
     </g>
    </g>
    <g id="xtick_13">
     <g id="line2d_55">
      <path d="M 264.348613 293.76 
L 264.348613 3.456 
" clip-path="url(#pa6dd7f9992)" style="fill: none; stroke: #b0b0b0; stroke-width: 0.8; stroke-linecap: square"/>
     </g>
     <g id="line2d_56">
      <g>
       <use xlink:href="#m4d8f05b26b" x="264.348613" y="293.76" style="stroke: #000000; stroke-width: 0.6"/>
      </g>
     </g>
    </g>
    <g id="xtick_14">
     <g id="line2d_57">
      <path d="M 276.576275 293.76 
L 276.576275 3.456 
" clip-path="url(#pa6dd7f9992)" style="fill: none; stroke: #b0b0b0; stroke-width: 0.8; stroke-linecap: square"/>
     </g>
     <g id="line2d_58">
      <g>
       <use xlink:href="#m4d8f05b26b" x="276.576275" y="293.76" style="stroke: #000000; stroke-width: 0.6"/>
      </g>
     </g>
    </g>
    <g id="xtick_15">
     <g id="line2d_59">
      <path d="M 286.567003 293.76 
L 286.567003 3.456 
" clip-path="url(#pa6dd7f9992)" style="fill: none; stroke: #b0b0b0; stroke-width: 0.8; stroke-linecap: square"/>
     </g>
     <g id="line2d_60">
      <g>
       <use xlink:href="#m4d8f05b26b" x="286.567003" y="293.76" style="stroke: #000000; stroke-width: 0.6"/>
      </g>
     </g>
    </g>
    <g id="xtick_16">
     <g id="line2d_61">
      <path d="M 295.014044 293.76 
L 295.014044 3.456 
" clip-path="url(#pa6dd7f9992)" style="fill: none; stroke: #b0b0b0; stroke-width: 0.8; stroke-linecap: square"/>
     </g>
     <g id="line2d_62">
      <g>
       <use xlink:href="#m4d8f05b26b" x="295.014044" y="293.76" style="stroke: #000000; stroke-width: 0.6"/>
      </g>
     </g>
    </g>
    <g id="xtick_17">
     <g id="line2d_63">
      <path d="M 302.331203 293.76 
L 302.331203 3.456 
" clip-path="url(#pa6dd7f9992)" style="fill: none; stroke: #b0b0b0; stroke-width: 0.8; stroke-linecap: square"/>
     </g>
     <g id="line2d_64">
      <g>
       <use xlink:href="#m4d8f05b26b" x="302.331203" y="293.76" style="stroke: #000000; stroke-width: 0.6"/>
      </g>
     </g>
    </g>
    <g id="xtick_18">
     <g id="line2d_65">
      <path d="M 308.785394 293.76 
L 308.785394 3.456 
" clip-path="url(#pa6dd7f9992)" style="fill: none; stroke: #b0b0b0; stroke-width: 0.8; stroke-linecap: square"/>
     </g>
     <g id="line2d_66">
      <g>
       <use xlink:href="#m4d8f05b26b" x="308.785394" y="293.76" style="stroke: #000000; stroke-width: 0.6"/>
      </g>
     </g>
    </g>
    <g id="xtick_19">
     <g id="line2d_67">
      <path d="M 352.541455 293.76 
L 352.541455 3.456 
" clip-path="url(#pa6dd7f9992)" style="fill: none; stroke: #b0b0b0; stroke-width: 0.8; stroke-linecap: square"/>
     </g>
     <g id="line2d_68">
      <g>
       <use xlink:href="#m4d8f05b26b" x="352.541455" y="293.76" style="stroke: #000000; stroke-width: 0.6"/>
      </g>
     </g>
    </g>
    <g id="xtick_20">
     <g id="line2d_69">
      <path d="M 374.759846 293.76 
L 374.759846 3.456 
" clip-path="url(#pa6dd7f9992)" style="fill: none; stroke: #b0b0b0; stroke-width: 0.8; stroke-linecap: square"/>
     </g>
     <g id="line2d_70">
      <g>
       <use xlink:href="#m4d8f05b26b" x="374.759846" y="293.76" style="stroke: #000000; stroke-width: 0.6"/>
      </g>
     </g>
    </g>
    <g id="xtick_21">
     <g id="line2d_71">
      <path d="M 390.524045 293.76 
L 390.524045 3.456 
" clip-path="url(#pa6dd7f9992)" style="fill: none; stroke: #b0b0b0; stroke-width: 0.8; stroke-linecap: square"/>
     </g>
     <g id="line2d_72">
      <g>
       <use xlink:href="#m4d8f05b26b" x="390.524045" y="293.76" style="stroke: #000000; stroke-width: 0.6"/>
      </g>
     </g>
    </g>
    <g id="xtick_22">
     <g id="line2d_73">
      <path d="M 402.751708 293.76 
L 402.751708 3.456 
" clip-path="url(#pa6dd7f9992)" style="fill: none; stroke: #b0b0b0; stroke-width: 0.8; stroke-linecap: square"/>
     </g>
     <g id="line2d_74">
      <g>
       <use xlink:href="#m4d8f05b26b" x="402.751708" y="293.76" style="stroke: #000000; stroke-width: 0.6"/>
      </g>
     </g>
    </g>
    <g id="xtick_23">
     <g id="line2d_75">
      <path d="M 412.742436 293.76 
L 412.742436 3.456 
" clip-path="url(#pa6dd7f9992)" style="fill: none; stroke: #b0b0b0; stroke-width: 0.8; stroke-linecap: square"/>
     </g>
     <g id="line2d_76">
      <g>
       <use xlink:href="#m4d8f05b26b" x="412.742436" y="293.76" style="stroke: #000000; stroke-width: 0.6"/>
      </g>
     </g>
    </g>
    <g id="xtick_24">
     <g id="line2d_77">
      <path d="M 421.189476 293.76 
L 421.189476 3.456 
" clip-path="url(#pa6dd7f9992)" style="fill: none; stroke: #b0b0b0; stroke-width: 0.8; stroke-linecap: square"/>
     </g>
     <g id="line2d_78">
      <g>
       <use xlink:href="#m4d8f05b26b" x="421.189476" y="293.76" style="stroke: #000000; stroke-width: 0.6"/>
      </g>
     </g>
    </g>
    <g id="xtick_25">
     <g id="line2d_79">
      <path d="M 428.506635 293.76 
L 428.506635 3.456 
" clip-path="url(#pa6dd7f9992)" style="fill: none; stroke: #b0b0b0; stroke-width: 0.8; stroke-linecap: square"/>
     </g>
     <g id="line2d_80">
      <g>
       <use xlink:href="#m4d8f05b26b" x="428.506635" y="293.76" style="stroke: #000000; stroke-width: 0.6"/>
      </g>
     </g>
    </g>
    <g id="xtick_26">
     <g id="line2d_81">
      <path d="M 434.960827 293.76 
L 434.960827 3.456 
" clip-path="url(#pa6dd7f9992)" style="fill: none; stroke: #b0b0b0; stroke-width: 0.8; stroke-linecap: square"/>
     </g>
     <g id="line2d_82">
      <g>
       <use xlink:href="#m4d8f05b26b" x="434.960827" y="293.76" style="stroke: #000000; stroke-width: 0.6"/>
      </g>
     </g>
    </g>
    <g id="text_3">
     <!-- log10 of FEvals / DIM -->
     <g transform="translate(156.430563 339.313125)scale(0.2 -0.2)">
      <defs>
       <path id="DejaVuSans-6c" d="M 603 4863 
L 1178 4863 
L 1178 0 
L 603 0 
L 603 4863 
z
" transform="scale(0.015625)"/>
       <path id="DejaVuSans-6f" d="M 1959 3097 
Q 1497 3097 1228 2736 
Q 959 2375 959 1747 
Q 959 1119 1226 758 
Q 1494 397 1959 397 
Q 2419 397 2687 759 
Q 2956 1122 2956 1747 
Q 2956 2369 2687 2733 
Q 2419 3097 1959 3097 
z
M 1959 3584 
Q 2709 3584 3137 3096 
Q 3566 2609 3566 1747 
Q 3566 888 3137 398 
Q 2709 -91 1959 -91 
Q 1206 -91 779 398 
Q 353 888 353 1747 
Q 353 2609 779 3096 
Q 1206 3584 1959 3584 
z
" transform="scale(0.015625)"/>
       <path id="DejaVuSans-67" d="M 2906 1791 
Q 2906 2416 2648 2759 
Q 2391 3103 1925 3103 
Q 1463 3103 1205 2759 
Q 947 2416 947 1791 
Q 947 1169 1205 825 
Q 1463 481 1925 481 
Q 2391 481 2648 825 
Q 2906 1169 2906 1791 
z
M 3481 434 
Q 3481 -459 3084 -895 
Q 2688 -1331 1869 -1331 
Q 1566 -1331 1297 -1286 
Q 1028 -1241 775 -1147 
L 775 -588 
Q 1028 -725 1275 -790 
Q 1522 -856 1778 -856 
Q 2344 -856 2625 -561 
Q 2906 -266 2906 331 
L 2906 616 
Q 2728 306 2450 153 
Q 2172 0 1784 0 
Q 1141 0 747 490 
Q 353 981 353 1791 
Q 353 2603 747 3093 
Q 1141 3584 1784 3584 
Q 2172 3584 2450 3431 
Q 2728 3278 2906 2969 
L 2906 3500 
L 3481 3500 
L 3481 434 
z
" transform="scale(0.015625)"/>
       <path id="DejaVuSans-31" d="M 794 531 
L 1825 531 
L 1825 4091 
L 703 3866 
L 703 4441 
L 1819 4666 
L 2450 4666 
L 2450 531 
L 3481 531 
L 3481 0 
L 794 0 
L 794 531 
z
" transform="scale(0.015625)"/>
       <path id="DejaVuSans-20" transform="scale(0.015625)"/>
       <path id="DejaVuSans-66" d="M 2375 4863 
L 2375 4384 
L 1825 4384 
Q 1516 4384 1395 4259 
Q 1275 4134 1275 3809 
L 1275 3500 
L 2222 3500 
L 2222 3053 
L 1275 3053 
L 1275 0 
L 697 0 
L 697 3053 
L 147 3053 
L 147 3500 
L 697 3500 
L 697 3744 
Q 697 4328 969 4595 
Q 1241 4863 1831 4863 
L 2375 4863 
z
" transform="scale(0.015625)"/>
       <path id="DejaVuSans-46" d="M 628 4666 
L 3309 4666 
L 3309 4134 
L 1259 4134 
L 1259 2759 
L 3109 2759 
L 3109 2228 
L 1259 2228 
L 1259 0 
L 628 0 
L 628 4666 
z
" transform="scale(0.015625)"/>
       <path id="DejaVuSans-45" d="M 628 4666 
L 3578 4666 
L 3578 4134 
L 1259 4134 
L 1259 2753 
L 3481 2753 
L 3481 2222 
L 1259 2222 
L 1259 531 
L 3634 531 
L 3634 0 
L 628 0 
L 628 4666 
z
" transform="scale(0.015625)"/>
       <path id="DejaVuSans-76" d="M 191 3500 
L 800 3500 
L 1894 563 
L 2988 3500 
L 3597 3500 
L 2284 0 
L 1503 0 
L 191 3500 
z
" transform="scale(0.015625)"/>
       <path id="DejaVuSans-61" d="M 2194 1759 
Q 1497 1759 1228 1600 
Q 959 1441 959 1056 
Q 959 750 1161 570 
Q 1363 391 1709 391 
Q 2188 391 2477 730 
Q 2766 1069 2766 1631 
L 2766 1759 
L 2194 1759 
z
M 3341 1997 
L 3341 0 
L 2766 0 
L 2766 531 
Q 2569 213 2275 61 
Q 1981 -91 1556 -91 
Q 1019 -91 701 211 
Q 384 513 384 1019 
Q 384 1609 779 1909 
Q 1175 2209 1959 2209 
L 2766 2209 
L 2766 2266 
Q 2766 2663 2505 2880 
Q 2244 3097 1772 3097 
Q 1472 3097 1187 3025 
Q 903 2953 641 2809 
L 641 3341 
Q 956 3463 1253 3523 
Q 1550 3584 1831 3584 
Q 2591 3584 2966 3190 
Q 3341 2797 3341 1997 
z
" transform="scale(0.015625)"/>
       <path id="DejaVuSans-73" d="M 2834 3397 
L 2834 2853 
Q 2591 2978 2328 3040 
Q 2066 3103 1784 3103 
Q 1356 3103 1142 2972 
Q 928 2841 928 2578 
Q 928 2378 1081 2264 
Q 1234 2150 1697 2047 
L 1894 2003 
Q 2506 1872 2764 1633 
Q 3022 1394 3022 966 
Q 3022 478 2636 193 
Q 2250 -91 1575 -91 
Q 1294 -91 989 -36 
Q 684 19 347 128 
L 347 722 
Q 666 556 975 473 
Q 1284 391 1588 391 
Q 1994 391 2212 530 
Q 2431 669 2431 922 
Q 2431 1156 2273 1281 
Q 2116 1406 1581 1522 
L 1381 1569 
Q 847 1681 609 1914 
Q 372 2147 372 2553 
Q 372 3047 722 3315 
Q 1072 3584 1716 3584 
Q 2034 3584 2315 3537 
Q 2597 3491 2834 3397 
z
" transform="scale(0.015625)"/>
       <path id="DejaVuSans-2f" d="M 1625 4666 
L 2156 4666 
L 531 -594 
L 0 -594 
L 1625 4666 
z
" transform="scale(0.015625)"/>
       <path id="DejaVuSans-44" d="M 1259 4147 
L 1259 519 
L 2022 519 
Q 2988 519 3436 956 
Q 3884 1394 3884 2338 
Q 3884 3275 3436 3711 
Q 2988 4147 2022 4147 
L 1259 4147 
z
M 628 4666 
L 1925 4666 
Q 3281 4666 3915 4102 
Q 4550 3538 4550 2338 
Q 4550 1131 3912 565 
Q 3275 0 1925 0 
L 628 0 
L 628 4666 
z
" transform="scale(0.015625)"/>
       <path id="DejaVuSans-49" d="M 628 4666 
L 1259 4666 
L 1259 0 
L 628 0 
L 628 4666 
z
" transform="scale(0.015625)"/>
       <path id="DejaVuSans-4d" d="M 628 4666 
L 1569 4666 
L 2759 1491 
L 3956 4666 
L 4897 4666 
L 4897 0 
L 4281 0 
L 4281 4097 
L 3078 897 
L 2444 897 
L 1241 4097 
L 1241 0 
L 628 0 
L 628 4666 
z
" transform="scale(0.015625)"/>
      </defs>
      <use xlink:href="#DejaVuSans-6c"/>
      <use xlink:href="#DejaVuSans-6f" x="27.783203"/>
      <use xlink:href="#DejaVuSans-67" x="88.964844"/>
      <use xlink:href="#DejaVuSans-31" x="152.441406"/>
      <use xlink:href="#DejaVuSans-30" x="216.064453"/>
      <use xlink:href="#DejaVuSans-20" x="279.6875"/>
      <use xlink:href="#DejaVuSans-6f" x="311.474609"/>
      <use xlink:href="#DejaVuSans-66" x="372.65625"/>
      <use xlink:href="#DejaVuSans-20" x="407.861328"/>
      <use xlink:href="#DejaVuSans-46" x="439.648438"/>
      <use xlink:href="#DejaVuSans-45" x="497.167969"/>
      <use xlink:href="#DejaVuSans-76" x="560.351562"/>
      <use xlink:href="#DejaVuSans-61" x="619.53125"/>
      <use xlink:href="#DejaVuSans-6c" x="680.810547"/>
      <use xlink:href="#DejaVuSans-73" x="708.59375"/>
      <use xlink:href="#DejaVuSans-20" x="760.693359"/>
      <use xlink:href="#DejaVuSans-2f" x="792.480469"/>
      <use xlink:href="#DejaVuSans-20" x="826.171875"/>
      <use xlink:href="#DejaVuSans-44" x="857.958984"/>
      <use xlink:href="#DejaVuSans-49" x="934.960938"/>
      <use xlink:href="#DejaVuSans-4d" x="964.453125"/>
     </g>
    </g>
   </g>
   <g id="matplotlib.axis_2">
    <g id="ytick_1">
     <g id="line2d_83">
      <path d="M 62.208 293.76 
L 460.8 293.76 
" clip-path="url(#pa6dd7f9992)" style="fill: none; stroke: #b0b0b0; stroke-width: 0.8; stroke-linecap: square"/>
     </g>
     <g id="line2d_84">
      <defs>
       <path id="m68ceca79db" d="M 0 0 
L -3.5 0 
" style="stroke: #000000; stroke-width: 0.8"/>
      </defs>
      <g>
       <use xlink:href="#m68ceca79db" x="62.208" y="293.76" style="stroke: #000000; stroke-width: 0.8"/>
      </g>
     </g>
     <g id="text_4">
      <!-- 0.0 -->
      <g transform="translate(29.763 299.83875)scale(0.16 -0.16)">
       <defs>
        <path id="DejaVuSans-2e" d="M 684 794 
L 1344 794 
L 1344 0 
L 684 0 
L 684 794 
z
" transform="scale(0.015625)"/>
       </defs>
       <use xlink:href="#DejaVuSans-30"/>
       <use xlink:href="#DejaVuSans-2e" x="63.623047"/>
       <use xlink:href="#DejaVuSans-30" x="95.410156"/>
      </g>
     </g>
    </g>
    <g id="ytick_2">
     <g id="line2d_85">
      <path d="M 62.208 236.274059 
L 460.8 236.274059 
" clip-path="url(#pa6dd7f9992)" style="fill: none; stroke: #b0b0b0; stroke-width: 0.8; stroke-linecap: square"/>
     </g>
     <g id="line2d_86">
      <g>
       <use xlink:href="#m68ceca79db" x="62.208" y="236.274059" style="stroke: #000000; stroke-width: 0.8"/>
      </g>
     </g>
     <g id="text_5">
      <!-- 0.2 -->
      <g transform="translate(29.763 242.352809)scale(0.16 -0.16)">
       <use xlink:href="#DejaVuSans-30"/>
       <use xlink:href="#DejaVuSans-2e" x="63.623047"/>
       <use xlink:href="#DejaVuSans-32" x="95.410156"/>
      </g>
     </g>
    </g>
    <g id="ytick_3">
     <g id="line2d_87">
      <path d="M 62.208 178.788119 
L 460.8 178.788119 
" clip-path="url(#pa6dd7f9992)" style="fill: none; stroke: #b0b0b0; stroke-width: 0.8; stroke-linecap: square"/>
     </g>
     <g id="line2d_88">
      <g>
       <use xlink:href="#m68ceca79db" x="62.208" y="178.788119" style="stroke: #000000; stroke-width: 0.8"/>
      </g>
     </g>
     <g id="text_6">
      <!-- 0.4 -->
      <g transform="translate(29.763 184.866869)scale(0.16 -0.16)">
       <defs>
        <path id="DejaVuSans-34" d="M 2419 4116 
L 825 1625 
L 2419 1625 
L 2419 4116 
z
M 2253 4666 
L 3047 4666 
L 3047 1625 
L 3713 1625 
L 3713 1100 
L 3047 1100 
L 3047 0 
L 2419 0 
L 2419 1100 
L 313 1100 
L 313 1709 
L 2253 4666 
z
" transform="scale(0.015625)"/>
       </defs>
       <use xlink:href="#DejaVuSans-30"/>
       <use xlink:href="#DejaVuSans-2e" x="63.623047"/>
       <use xlink:href="#DejaVuSans-34" x="95.410156"/>
      </g>
     </g>
    </g>
    <g id="ytick_4">
     <g id="line2d_89">
      <path d="M 62.208 121.302178 
L 460.8 121.302178 
" clip-path="url(#pa6dd7f9992)" style="fill: none; stroke: #b0b0b0; stroke-width: 0.8; stroke-linecap: square"/>
     </g>
     <g id="line2d_90">
      <g>
       <use xlink:href="#m68ceca79db" x="62.208" y="121.302178" style="stroke: #000000; stroke-width: 0.8"/>
      </g>
     </g>
     <g id="text_7">
      <!-- 0.6 -->
      <g transform="translate(29.763 127.380928)scale(0.16 -0.16)">
       <defs>
        <path id="DejaVuSans-36" d="M 2113 2584 
Q 1688 2584 1439 2293 
Q 1191 2003 1191 1497 
Q 1191 994 1439 701 
Q 1688 409 2113 409 
Q 2538 409 2786 701 
Q 3034 994 3034 1497 
Q 3034 2003 2786 2293 
Q 2538 2584 2113 2584 
z
M 3366 4563 
L 3366 3988 
Q 3128 4100 2886 4159 
Q 2644 4219 2406 4219 
Q 1781 4219 1451 3797 
Q 1122 3375 1075 2522 
Q 1259 2794 1537 2939 
Q 1816 3084 2150 3084 
Q 2853 3084 3261 2657 
Q 3669 2231 3669 1497 
Q 3669 778 3244 343 
Q 2819 -91 2113 -91 
Q 1303 -91 875 529 
Q 447 1150 447 2328 
Q 447 3434 972 4092 
Q 1497 4750 2381 4750 
Q 2619 4750 2861 4703 
Q 3103 4656 3366 4563 
z
" transform="scale(0.015625)"/>
       </defs>
       <use xlink:href="#DejaVuSans-30"/>
       <use xlink:href="#DejaVuSans-2e" x="63.623047"/>
       <use xlink:href="#DejaVuSans-36" x="95.410156"/>
      </g>
     </g>
    </g>
    <g id="ytick_5">
     <g id="line2d_91">
      <path d="M 62.208 63.816238 
L 460.8 63.816238 
" clip-path="url(#pa6dd7f9992)" style="fill: none; stroke: #b0b0b0; stroke-width: 0.8; stroke-linecap: square"/>
     </g>
     <g id="line2d_92">
      <g>
       <use xlink:href="#m68ceca79db" x="62.208" y="63.816238" style="stroke: #000000; stroke-width: 0.8"/>
      </g>
     </g>
     <g id="text_8">
      <!-- 0.8 -->
      <g transform="translate(29.763 69.894988)scale(0.16 -0.16)">
       <defs>
        <path id="DejaVuSans-38" d="M 2034 2216 
Q 1584 2216 1326 1975 
Q 1069 1734 1069 1313 
Q 1069 891 1326 650 
Q 1584 409 2034 409 
Q 2484 409 2743 651 
Q 3003 894 3003 1313 
Q 3003 1734 2745 1975 
Q 2488 2216 2034 2216 
z
M 1403 2484 
Q 997 2584 770 2862 
Q 544 3141 544 3541 
Q 544 4100 942 4425 
Q 1341 4750 2034 4750 
Q 2731 4750 3128 4425 
Q 3525 4100 3525 3541 
Q 3525 3141 3298 2862 
Q 3072 2584 2669 2484 
Q 3125 2378 3379 2068 
Q 3634 1759 3634 1313 
Q 3634 634 3220 271 
Q 2806 -91 2034 -91 
Q 1263 -91 848 271 
Q 434 634 434 1313 
Q 434 1759 690 2068 
Q 947 2378 1403 2484 
z
M 1172 3481 
Q 1172 3119 1398 2916 
Q 1625 2713 2034 2713 
Q 2441 2713 2670 2916 
Q 2900 3119 2900 3481 
Q 2900 3844 2670 4047 
Q 2441 4250 2034 4250 
Q 1625 4250 1398 4047 
Q 1172 3844 1172 3481 
z
" transform="scale(0.015625)"/>
       </defs>
       <use xlink:href="#DejaVuSans-30"/>
       <use xlink:href="#DejaVuSans-2e" x="63.623047"/>
       <use xlink:href="#DejaVuSans-38" x="95.410156"/>
      </g>
     </g>
    </g>
    <g id="ytick_6">
     <g id="line2d_93">
      <path d="M 62.208 6.330297 
L 460.8 6.330297 
" clip-path="url(#pa6dd7f9992)" style="fill: none; stroke: #b0b0b0; stroke-width: 0.8; stroke-linecap: square"/>
     </g>
     <g id="line2d_94">
      <g>
       <use xlink:href="#m68ceca79db" x="62.208" y="6.330297" style="stroke: #000000; stroke-width: 0.8"/>
      </g>
     </g>
     <g id="text_9">
      <!-- 1.0 -->
      <g transform="translate(29.763 12.409047)scale(0.16 -0.16)">
       <use xlink:href="#DejaVuSans-31"/>
       <use xlink:href="#DejaVuSans-2e" x="63.623047"/>
       <use xlink:href="#DejaVuSans-30" x="95.410156"/>
      </g>
     </g>
    </g>
    <g id="text_10">
     <!-- proportion of trials -->
     <g transform="translate(21.603625 241.61425)rotate(-90)scale(0.2 -0.2)">
      <defs>
       <path id="DejaVuSans-70" d="M 1159 525 
L 1159 -1331 
L 581 -1331 
L 581 3500 
L 1159 3500 
L 1159 2969 
Q 1341 3281 1617 3432 
Q 1894 3584 2278 3584 
Q 2916 3584 3314 3078 
Q 3713 2572 3713 1747 
Q 3713 922 3314 415 
Q 2916 -91 2278 -91 
Q 1894 -91 1617 61 
Q 1341 213 1159 525 
z
M 3116 1747 
Q 3116 2381 2855 2742 
Q 2594 3103 2138 3103 
Q 1681 3103 1420 2742 
Q 1159 2381 1159 1747 
Q 1159 1113 1420 752 
Q 1681 391 2138 391 
Q 2594 391 2855 752 
Q 3116 1113 3116 1747 
z
" transform="scale(0.015625)"/>
       <path id="DejaVuSans-72" d="M 2631 2963 
Q 2534 3019 2420 3045 
Q 2306 3072 2169 3072 
Q 1681 3072 1420 2755 
Q 1159 2438 1159 1844 
L 1159 0 
L 581 0 
L 581 3500 
L 1159 3500 
L 1159 2956 
Q 1341 3275 1631 3429 
Q 1922 3584 2338 3584 
Q 2397 3584 2469 3576 
Q 2541 3569 2628 3553 
L 2631 2963 
z
" transform="scale(0.015625)"/>
       <path id="DejaVuSans-74" d="M 1172 4494 
L 1172 3500 
L 2356 3500 
L 2356 3053 
L 1172 3053 
L 1172 1153 
Q 1172 725 1289 603 
Q 1406 481 1766 481 
L 2356 481 
L 2356 0 
L 1766 0 
Q 1100 0 847 248 
Q 594 497 594 1153 
L 594 3053 
L 172 3053 
L 172 3500 
L 594 3500 
L 594 4494 
L 1172 4494 
z
" transform="scale(0.015625)"/>
       <path id="DejaVuSans-69" d="M 603 3500 
L 1178 3500 
L 1178 0 
L 603 0 
L 603 3500 
z
M 603 4863 
L 1178 4863 
L 1178 4134 
L 603 4134 
L 603 4863 
z
" transform="scale(0.015625)"/>
       <path id="DejaVuSans-6e" d="M 3513 2113 
L 3513 0 
L 2938 0 
L 2938 2094 
Q 2938 2591 2744 2837 
Q 2550 3084 2163 3084 
Q 1697 3084 1428 2787 
Q 1159 2491 1159 1978 
L 1159 0 
L 581 0 
L 581 3500 
L 1159 3500 
L 1159 2956 
Q 1366 3272 1645 3428 
Q 1925 3584 2291 3584 
Q 2894 3584 3203 3211 
Q 3513 2838 3513 2113 
z
" transform="scale(0.015625)"/>
      </defs>
      <use xlink:href="#DejaVuSans-70"/>
      <use xlink:href="#DejaVuSans-72" x="63.476562"/>
      <use xlink:href="#DejaVuSans-6f" x="102.339844"/>
      <use xlink:href="#DejaVuSans-70" x="163.521484"/>
      <use xlink:href="#DejaVuSans-6f" x="226.998047"/>
      <use xlink:href="#DejaVuSans-72" x="288.179688"/>
      <use xlink:href="#DejaVuSans-74" x="329.292969"/>
      <use xlink:href="#DejaVuSans-69" x="368.501953"/>
      <use xlink:href="#DejaVuSans-6f" x="396.285156"/>
      <use xlink:href="#DejaVuSans-6e" x="457.466797"/>
      <use xlink:href="#DejaVuSans-20" x="520.845703"/>
      <use xlink:href="#DejaVuSans-6f" x="552.632812"/>
      <use xlink:href="#DejaVuSans-66" x="613.814453"/>
      <use xlink:href="#DejaVuSans-20" x="649.019531"/>
      <use xlink:href="#DejaVuSans-74" x="680.806641"/>
      <use xlink:href="#DejaVuSans-72" x="720.015625"/>
      <use xlink:href="#DejaVuSans-69" x="761.128906"/>
      <use xlink:href="#DejaVuSans-61" x="788.912109"/>
      <use xlink:href="#DejaVuSans-6c" x="850.191406"/>
      <use xlink:href="#DejaVuSans-73" x="877.974609"/>
     </g>
    </g>
   </g>
   <g id="line2d_95">
    <path d="M 178.829339 293.76 
L 178.829339 288.969505 
L 190.532622 288.969505 
L 190.532622 284.17901 
L 207.59848 284.17901 
L 207.59848 279.388515 
L 230.073534 279.388515 
L 230.073534 274.59802 
L 232.084669 274.59802 
L 232.084669 269.807525 
L 240.742874 269.807525 
L 240.742874 265.01703 
L 246.7267 265.01703 
L 246.7267 260.226535 
L 251.777392 260.226535 
L 251.777392 255.43604 
L 267.282502 255.43604 
L 267.282502 250.645545 
L 273.185671 250.645545 
L 273.185671 245.85505 
L 274.339341 245.85505 
L 274.339341 241.064554 
L 277.446092 241.064554 
L 277.446092 236.274059 
L 279.975647 236.274059 
L 279.975647 231.483564 
L 288.363797 231.483564 
L 288.363797 226.693069 
L 292.939954 226.693069 
L 292.939954 221.902574 
L 293.264199 221.902574 
L 293.264199 217.112079 
L 293.425605 217.112079 
L 293.425605 212.321584 
L 296.252453 212.321584 
L 296.252453 207.531089 
L 300.66212 207.531089 
L 300.66212 202.740594 
L 305.910533 202.740594 
L 305.910533 197.950099 
L 306.801565 197.950099 
L 306.801565 193.159604 
L 307.179045 193.159604 
L 307.179045 188.369109 
L 308.418856 188.369109 
L 308.418856 183.578614 
L 309.870525 183.578614 
L 309.870525 178.788119 
L 310.345992 178.788119 
L 310.345992 173.997624 
L 311.978373 173.997624 
L 311.978373 169.207129 
L 314.339237 169.207129 
L 314.339237 164.416634 
L 315.643996 164.416634 
L 315.643996 159.626139 
L 316.072102 159.626139 
L 316.072102 154.835644 
L 317.127959 154.835644 
L 317.127959 150.045149 
L 317.336711 150.045149 
L 317.336711 145.254653 
L 317.336711 145.254653 
L 317.336711 140.464158 
L 317.336711 140.464158 
L 317.336711 135.673663 
L 320.178689 135.673663 
L 320.178689 130.883168 
L 322.02651 130.883168 
L 322.02651 126.092673 
L 326.698782 126.092673 
L 326.698782 121.302178 
L 328.000442 121.302178 
L 328.000442 116.511683 
L 328.935717 116.511683 
L 328.935717 111.721188 
L 329.439218 111.721188 
L 329.439218 106.930693 
L 329.938135 106.930693 
L 329.938135 102.140198 
L 331.408195 102.140198 
L 331.408195 97.349703 
L 333.773913 97.349703 
L 333.773913 92.559208 
L 334.081764 92.559208 
L 334.081764 87.768713 
L 339.763061 87.768713 
L 339.763061 82.978218 
L 339.763061 82.978218 
L 339.763061 78.187723 
L 346.889621 78.187723 
L 346.889621 73.397228 
L 346.950338 73.397228 
L 346.950338 68.606733 
L 355.682714 68.606733 
L 355.682714 63.816238 
L 357.564569 63.816238 
L 357.564569 59.025743 
L 359.52884 59.025743 
L 359.52884 54.235248 
L 369.229379 54.235248 
L 369.229379 49.444752 
L 371.563214 49.444752 
L 371.563214 44.654257 
L 372.560952 44.654257 
L 372.560952 39.863762 
L 382.131775 39.863762 
L 382.131775 35.073267 
L 404.179591 35.073267 
L 404.179591 30.282772 
L 407.373375 30.282772 
L 407.373375 25.492277 
L 408.470355 25.492277 
L 408.470355 20.701782 
L 415.797386 20.701782 
L 415.797386 15.911287 
L 417.26328 15.911287 
L 417.26328 11.120792 
L 423.937549 11.120792 
L 423.937549 6.330297 
L 423.937549 6.330297 
L 423.937549 6.330297 
L 460.8 6.330297 
" clip-path="url(#pa6dd7f9992)" style="fill: none; stroke: #000000; stroke-width: 1.5; stroke-linecap: square"/>
   </g>
   <g id="line2d_96">
    <defs>
     <path id="m405a52862e" d="M -0 14.142136 
L 8.485281 0 
L -0 -14.142136 
L -8.485281 -0 
z
" style="stroke: #000000; stroke-width: 1.5; stroke-linejoin: miter"/>
    </defs>
    <g clip-path="url(#pa6dd7f9992)">
     <use xlink:href="#m405a52862e" x="288.363797" y="231.483564" style="fill-opacity: 0; stroke: #000000; stroke-width: 1.5; stroke-linejoin: miter"/>
     <use xlink:href="#m405a52862e" x="326.698782" y="126.092673" style="fill-opacity: 0; stroke: #000000; stroke-width: 1.5; stroke-linejoin: miter"/>
     <use xlink:href="#m405a52862e" x="404.179591" y="35.073267" style="fill-opacity: 0; stroke: #000000; stroke-width: 1.5; stroke-linejoin: miter"/>
     <use xlink:href="#m405a52862e" x="423.937549" y="6.330297" style="fill-opacity: 0; stroke: #000000; stroke-width: 1.5; stroke-linejoin: miter"/>
    </g>
   </g>
   <g id="line2d_97">
    <path clip-path="url(#pa6dd7f9992)" style="fill: none; stroke: #000000; stroke-width: 1.5; stroke-linecap: square"/>
    <g clip-path="url(#pa6dd7f9992)">
     <use xlink:href="#m405a52862e" x="-1" y="581.189703" style="fill-opacity: 0; stroke: #000000; stroke-width: 1.5; stroke-linejoin: miter"/>
     <use xlink:href="#m405a52862e" x="460.8" y="581.189703" style="fill-opacity: 0; stroke: #000000; stroke-width: 1.5; stroke-linejoin: miter"/>
    </g>
   </g>
   <g id="line2d_98">
    <path d="M 239.03032 293.76 
L 239.03032 288.969505 
L 239.893287 288.969505 
L 239.893287 284.17901 
L 244.015327 284.17901 
L 244.015327 279.388515 
L 265.164468 279.388515 
L 265.164468 274.59802 
L 265.968355 274.59802 
L 265.968355 269.807525 
L 267.282502 269.807525 
L 267.282502 265.01703 
L 286.749357 265.01703 
L 286.749357 260.226535 
L 286.749357 260.226535 
L 286.749357 255.43604 
L 286.931106 255.43604 
L 286.931106 250.645545 
L 287.112255 250.645545 
L 287.112255 245.85505 
L 287.292806 245.85505 
L 287.292806 241.064554 
L 296.557731 241.064554 
L 296.557731 236.274059 
L 302.468025 236.274059 
L 302.468025 231.483564 
L 302.468025 231.483564 
L 302.468025 226.693069 
L 302.468025 226.693069 
L 302.468025 221.902574 
L 302.468025 221.902574 
L 302.468025 217.112079 
L 302.604506 217.112079 
L 302.604506 212.321584 
L 307.926293 212.321584 
L 307.926293 207.531089 
L 314.668351 207.531089 
L 314.668351 202.740594 
L 314.668351 202.740594 
L 314.668351 197.950099 
L 314.668351 197.950099 
L 314.668351 193.159604 
L 314.668351 193.159604 
L 314.668351 188.369109 
L 324.640846 188.369109 
L 324.640846 183.578614 
L 324.822897 183.578614 
L 324.822897 178.788119 
L 333.07486 178.788119 
L 333.07486 173.997624 
L 333.152974 173.997624 
L 333.152974 169.207129 
L 333.30887 169.207129 
L 333.30887 164.416634 
L 346.889621 164.416634 
L 346.889621 159.626139 
L 357.813988 159.626139 
L 357.813988 154.835644 
L 358.062277 154.835644 
L 358.062277 150.045149 
L 362.850906 150.045149 
L 362.850906 145.254653 
L 371.018351 145.254653 
L 371.018351 140.464158 
L 378.33062 140.464158 
L 378.33062 135.673663 
L 381.650672 135.673663 
L 381.650672 130.883168 
L 381.715064 130.883168 
L 381.715064 126.092673 
L 384.872211 126.092673 
L 384.872211 121.302178 
L 393.353955 121.302178 
L 393.353955 116.511683 
L 393.457935 116.511683 
L 393.457935 111.721188 
L 395.771688 111.721188 
L 395.771688 106.930693 
L 400.537601 106.930693 
L 400.537601 102.140198 
L 400.651596 102.140198 
L 400.651596 97.349703 
L 402.773623 97.349703 
L 402.773623 92.559208 
L 407.4539 92.559208 
L 407.4539 87.768713 
L 408.98138 87.768713 
L 408.98138 82.978218 
L 409.020493 82.978218 
L 409.020493 78.187723 
L 409.235117 78.187723 
L 409.235117 73.397228 
L 412.760699 73.397228 
L 412.760699 68.606733 
L 412.760699 68.606733 
L 412.760699 63.816238 
L 414.148959 63.816238 
L 414.148959 59.025743 
L 416.31321 59.025743 
L 416.31321 54.235248 
L 416.347426 54.235248 
L 416.347426 49.444752 
L 417.981779 49.444752 
L 417.981779 44.654257 
L 418.246741 44.654257 
L 418.246741 39.863762 
L 421.377031 39.863762 
L 421.377031 35.073267 
L 422.763599 35.073267 
L 422.763599 30.282772 
L 425.811143 30.282772 
L 425.811143 25.492277 
L 427.133337 25.492277 
L 427.133337 20.701782 
L 432.482354 20.701782 
L 432.482354 15.911287 
L 433.754278 15.911287 
L 433.754278 11.120792 
L 438.543009 11.120792 
L 438.543009 6.330297 
L 438.543009 6.330297 
L 438.543009 6.330297 
L 460.8 6.330297 
" clip-path="url(#pa6dd7f9992)" style="fill: none; stroke: #000000; stroke-width: 1.5; stroke-linecap: square"/>
   </g>
   <g id="line2d_99">
    <defs>
     <path id="m34ca4900be" d="M 0 7.5 
C 1.989023 7.5 3.896849 6.709753 5.303301 5.303301 
C 6.709753 3.896849 7.5 1.989023 7.5 0 
C 7.5 -1.989023 6.709753 -3.896849 5.303301 -5.303301 
C 3.896849 -6.709753 1.989023 -7.5 0 -7.5 
C -1.989023 -7.5 -3.896849 -6.709753 -5.303301 -5.303301 
C -6.709753 -3.896849 -7.5 -1.989023 -7.5 0 
C -7.5 1.989023 -6.709753 3.896849 -5.303301 5.303301 
C -3.896849 6.709753 -1.989023 7.5 0 7.5 
z
" style="stroke: #000000; stroke-width: 1.5"/>
    </defs>
    <g clip-path="url(#pa6dd7f9992)">
     <use xlink:href="#m34ca4900be" x="324.640846" y="188.369109" style="fill-opacity: 0; stroke: #000000; stroke-width: 1.5"/>
     <use xlink:href="#m34ca4900be" x="402.773623" y="97.349703" style="fill-opacity: 0; stroke: #000000; stroke-width: 1.5"/>
     <use xlink:href="#m34ca4900be" x="438.543009" y="11.120792" style="fill-opacity: 0; stroke: #000000; stroke-width: 1.5"/>
     <use xlink:href="#m34ca4900be" x="438.543009" y="6.330297" style="fill-opacity: 0; stroke: #000000; stroke-width: 1.5"/>
    </g>
   </g>
   <g id="line2d_100">
    <path clip-path="url(#pa6dd7f9992)" style="fill: none; stroke: #000000; stroke-width: 1.5; stroke-linecap: square"/>
   </g>
   <g id="line2d_101">
    <path d="M 326.874134 293.76 
L 326.874134 288.969505 
L 343.893123 288.969505 
L 343.893123 284.17901 
L 346.767984 284.17901 
L 346.767984 279.388515 
L 348.091364 279.388515 
L 348.091364 274.59802 
L 393.665304 274.59802 
L 393.665304 269.807525 
L 413.486261 269.807525 
L 413.486261 265.01703 
L 416.722402 265.01703 
L 416.722402 260.226535 
L 431.583175 260.226535 
L 431.583175 255.43604 
L 434.24996 255.43604 
L 434.24996 250.645545 
L 438.142316 250.645545 
L 438.142316 245.85505 
L 438.850125 245.85505 
L 438.850125 241.064554 
L 438.850125 241.064554 
L 438.850125 241.064554 
L 460.8 241.064554 
" clip-path="url(#pa6dd7f9992)" style="fill: none; stroke: #00bfbf; stroke-width: 1.5; stroke-linecap: square"/>
   </g>
   <g id="line2d_102">
    <defs>
     <path id="mcd1f674819" d="M -0 14.142136 
L 8.485281 0 
L -0 -14.142136 
L -8.485281 -0 
z
" style="stroke: #00bfbf; stroke-width: 1.5; stroke-linejoin: miter"/>
    </defs>
    <g clip-path="url(#pa6dd7f9992)">
     <use xlink:href="#mcd1f674819" x="348.091364" y="279.388515" style="fill-opacity: 0; stroke: #00bfbf; stroke-width: 1.5; stroke-linejoin: miter"/>
     <use xlink:href="#mcd1f674819" x="434.24996" y="255.43604" style="fill-opacity: 0; stroke: #00bfbf; stroke-width: 1.5; stroke-linejoin: miter"/>
     <use xlink:href="#mcd1f674819" x="438.850125" y="241.064554" style="fill-opacity: 0; stroke: #00bfbf; stroke-width: 1.5; stroke-linejoin: miter"/>
    </g>
   </g>
   <g id="line2d_103">
    <path clip-path="url(#pa6dd7f9992)" style="fill: none; stroke: #00bfbf; stroke-width: 1.5; stroke-linecap: square"/>
    <g clip-path="url(#pa6dd7f9992)">
     <use xlink:href="#mcd1f674819" x="-1" y="581.189703" style="fill-opacity: 0; stroke: #00bfbf; stroke-width: 1.5; stroke-linejoin: miter"/>
     <use xlink:href="#mcd1f674819" x="460.8" y="581.189703" style="fill-opacity: 0; stroke: #00bfbf; stroke-width: 1.5; stroke-linejoin: miter"/>
    </g>
   </g>
   <g id="line2d_104"/>
   <g id="line2d_105">
    <path d="M 381.650672 293.76 
L 381.650672 288.969505 
L 391.474704 288.969505 
L 391.474704 284.17901 
L 391.474704 284.17901 
L 391.474704 284.17901 
L 460.8 284.17901 
" clip-path="url(#pa6dd7f9992)" style="fill: none; stroke: #bf00bf; stroke-width: 1.5; stroke-linecap: square"/>
   </g>
   <g id="line2d_106">
    <defs>
     <path id="m7e18075992" d="M -0 14.142136 
L 8.485281 0 
L -0 -14.142136 
L -8.485281 -0 
z
" style="stroke: #bf00bf; stroke-width: 1.5; stroke-linejoin: miter"/>
    </defs>
    <g clip-path="url(#pa6dd7f9992)">
     <use xlink:href="#m7e18075992" x="381.650672" y="293.76" style="fill-opacity: 0; stroke: #bf00bf; stroke-width: 1.5; stroke-linejoin: miter"/>
     <use xlink:href="#m7e18075992" x="391.474704" y="288.969505" style="fill-opacity: 0; stroke: #bf00bf; stroke-width: 1.5; stroke-linejoin: miter"/>
     <use xlink:href="#m7e18075992" x="391.474704" y="284.17901" style="fill-opacity: 0; stroke: #bf00bf; stroke-width: 1.5; stroke-linejoin: miter"/>
    </g>
   </g>
   <g id="line2d_107">
    <path clip-path="url(#pa6dd7f9992)" style="fill: none; stroke: #bf00bf; stroke-width: 1.5; stroke-linecap: square"/>
    <g clip-path="url(#pa6dd7f9992)">
     <use xlink:href="#m7e18075992" x="-1" y="581.189703" style="fill-opacity: 0; stroke: #bf00bf; stroke-width: 1.5; stroke-linejoin: miter"/>
     <use xlink:href="#m7e18075992" x="460.8" y="581.189703" style="fill-opacity: 0; stroke: #bf00bf; stroke-width: 1.5; stroke-linejoin: miter"/>
    </g>
   </g>
   <g id="line2d_108"/>
   <g id="line2d_109"/>
   <g id="line2d_110"/>
   <g id="line2d_111">
    <path d="M 441.279549 293.76 
L 441.279549 3.456 
" clip-path="url(#pa6dd7f9992)" style="fill: none; stroke: #000000; stroke-width: 1.5; stroke-linecap: square"/>
    <defs>
     <path id="mb7bbcf442d" d="M -10 0 
L 10 0 
M 0 10 
L 0 -10 
" style="stroke: #000000; stroke-width: 3"/>
    </defs>
    <g clip-path="url(#pa6dd7f9992)">
     <use xlink:href="#mb7bbcf442d" x="441.279549" y="293.76" style="stroke: #000000; stroke-width: 3"/>
     <use xlink:href="#mb7bbcf442d" x="441.279549" y="3.456" style="stroke: #000000; stroke-width: 3"/>
    </g>
   </g>
   <g id="line2d_112">
    <path d="M 441.819429 293.76 
L 441.819429 3.456 
" clip-path="url(#pa6dd7f9992)" style="fill: none; stroke: #000000; stroke-width: 1.5; stroke-linecap: square"/>
    <defs>
     <path id="md8e35bfe8a" d="M 0 7.5 
C 1.989023 7.5 3.896849 6.709753 5.303301 5.303301 
C 6.709753 3.896849 7.5 1.989023 7.5 0 
C 7.5 -1.989023 6.709753 -3.896849 5.303301 -5.303301 
C 3.896849 -6.709753 1.989023 -7.5 0 -7.5 
C -1.989023 -7.5 -3.896849 -6.709753 -5.303301 -5.303301 
C -6.709753 -3.896849 -7.5 -1.989023 -7.5 0 
C -7.5 1.989023 -6.709753 3.896849 -5.303301 5.303301 
C -3.896849 6.709753 -1.989023 7.5 0 7.5 
z
" style="stroke: #000000; stroke-width: 3"/>
    </defs>
    <g clip-path="url(#pa6dd7f9992)">
     <use xlink:href="#md8e35bfe8a" x="441.819429" y="293.76" style="fill-opacity: 0; stroke: #000000; stroke-width: 3"/>
     <use xlink:href="#md8e35bfe8a" x="441.819429" y="3.456" style="fill-opacity: 0; stroke: #000000; stroke-width: 3"/>
    </g>
   </g>
   <g id="patch_3">
    <path d="M 62.208 293.76 
L 62.208 3.456 
" style="fill: none; stroke: #000000; stroke-width: 0.8; stroke-linejoin: miter; stroke-linecap: square"/>
   </g>
   <g id="patch_4">
    <path d="M 460.8 293.76 
L 460.8 3.456 
" style="fill: none; stroke: #000000; stroke-width: 0.8; stroke-linejoin: miter; stroke-linecap: square"/>
   </g>
   <g id="patch_5">
    <path d="M 62.208 293.76 
L 460.8 293.76 
" style="fill: none; stroke: #000000; stroke-width: 0.8; stroke-linejoin: miter; stroke-linecap: square"/>
   </g>
   <g id="patch_6">
    <path d="M 62.208 3.456 
L 460.8 3.456 
" style="fill: none; stroke: #000000; stroke-width: 0.8; stroke-linejoin: miter; stroke-linecap: square"/>
   </g>
   <g id="text_11">
    <!-- f6-f9 -->
    <g transform="translate(238.130563 24.458955)scale(0.2 -0.2)">
     <defs>
      <path id="DejaVuSans-2d" d="M 313 2009 
L 1997 2009 
L 1997 1497 
L 313 1497 
L 313 2009 
z
" transform="scale(0.015625)"/>
      <path id="DejaVuSans-39" d="M 703 97 
L 703 672 
Q 941 559 1184 500 
Q 1428 441 1663 441 
Q 2288 441 2617 861 
Q 2947 1281 2994 2138 
Q 2813 1869 2534 1725 
Q 2256 1581 1919 1581 
Q 1219 1581 811 2004 
Q 403 2428 403 3163 
Q 403 3881 828 4315 
Q 1253 4750 1959 4750 
Q 2769 4750 3195 4129 
Q 3622 3509 3622 2328 
Q 3622 1225 3098 567 
Q 2575 -91 1691 -91 
Q 1453 -91 1209 -44 
Q 966 3 703 97 
z
M 1959 2075 
Q 2384 2075 2632 2365 
Q 2881 2656 2881 3163 
Q 2881 3666 2632 3958 
Q 2384 4250 1959 4250 
Q 1534 4250 1286 3958 
Q 1038 3666 1038 3163 
Q 1038 2656 1286 2365 
Q 1534 2075 1959 2075 
z
" transform="scale(0.015625)"/>
     </defs>
     <use xlink:href="#DejaVuSans-66"/>
     <use xlink:href="#DejaVuSans-36" x="35.205078"/>
     <use xlink:href="#DejaVuSans-2d" x="98.828125"/>
     <use xlink:href="#DejaVuSans-66" x="134.912109"/>
     <use xlink:href="#DejaVuSans-39" x="170.117188"/>
    </g>
   </g>
   <g id="text_12">
    <!-- absolute targets -->
    <g transform="translate(62.208 609.932673)scale(0.14 -0.14)">
     <defs>
      <path id="DejaVuSans-62" d="M 3116 1747 
Q 3116 2381 2855 2742 
Q 2594 3103 2138 3103 
Q 1681 3103 1420 2742 
Q 1159 2381 1159 1747 
Q 1159 1113 1420 752 
Q 1681 391 2138 391 
Q 2594 391 2855 752 
Q 3116 1113 3116 1747 
z
M 1159 2969 
Q 1341 3281 1617 3432 
Q 1894 3584 2278 3584 
Q 2916 3584 3314 3078 
Q 3713 2572 3713 1747 
Q 3713 922 3314 415 
Q 2916 -91 2278 -91 
Q 1894 -91 1617 61 
Q 1341 213 1159 525 
L 1159 0 
L 581 0 
L 581 4863 
L 1159 4863 
L 1159 2969 
z
" transform="scale(0.015625)"/>
      <path id="DejaVuSans-75" d="M 544 1381 
L 544 3500 
L 1119 3500 
L 1119 1403 
Q 1119 906 1312 657 
Q 1506 409 1894 409 
Q 2359 409 2629 706 
Q 2900 1003 2900 1516 
L 2900 3500 
L 3475 3500 
L 3475 0 
L 2900 0 
L 2900 538 
Q 2691 219 2414 64 
Q 2138 -91 1772 -91 
Q 1169 -91 856 284 
Q 544 659 544 1381 
z
M 1991 3584 
L 1991 3584 
z
" transform="scale(0.015625)"/>
      <path id="DejaVuSans-65" d="M 3597 1894 
L 3597 1613 
L 953 1613 
Q 991 1019 1311 708 
Q 1631 397 2203 397 
Q 2534 397 2845 478 
Q 3156 559 3463 722 
L 3463 178 
Q 3153 47 2828 -22 
Q 2503 -91 2169 -91 
Q 1331 -91 842 396 
Q 353 884 353 1716 
Q 353 2575 817 3079 
Q 1281 3584 2069 3584 
Q 2775 3584 3186 3129 
Q 3597 2675 3597 1894 
z
M 3022 2063 
Q 3016 2534 2758 2815 
Q 2500 3097 2075 3097 
Q 1594 3097 1305 2825 
Q 1016 2553 972 2059 
L 3022 2063 
z
" transform="scale(0.015625)"/>
     </defs>
     <use xlink:href="#DejaVuSans-61"/>
     <use xlink:href="#DejaVuSans-62" x="61.279297"/>
     <use xlink:href="#DejaVuSans-73" x="124.755859"/>
     <use xlink:href="#DejaVuSans-6f" x="176.855469"/>
     <use xlink:href="#DejaVuSans-6c" x="238.037109"/>
     <use xlink:href="#DejaVuSans-75" x="265.820312"/>
     <use xlink:href="#DejaVuSans-74" x="329.199219"/>
     <use xlink:href="#DejaVuSans-65" x="368.408203"/>
     <use xlink:href="#DejaVuSans-20" x="429.931641"/>
     <use xlink:href="#DejaVuSans-74" x="461.71875"/>
     <use xlink:href="#DejaVuSans-61" x="500.927734"/>
     <use xlink:href="#DejaVuSans-72" x="562.207031"/>
     <use xlink:href="#DejaVuSans-67" x="601.570312"/>
     <use xlink:href="#DejaVuSans-65" x="665.046875"/>
     <use xlink:href="#DejaVuSans-74" x="726.570312"/>
     <use xlink:href="#DejaVuSans-73" x="765.779297"/>
    </g>
   </g>
   <g id="text_13">
    <!-- v2.6.3 -->
    <g style="fill: #808080" transform="translate(245.82275 288.777272)scale(0.1 -0.1)">
     <defs>
      <path id="DejaVuSans-33" d="M 2597 2516 
Q 3050 2419 3304 2112 
Q 3559 1806 3559 1356 
Q 3559 666 3084 287 
Q 2609 -91 1734 -91 
Q 1441 -91 1130 -33 
Q 819 25 488 141 
L 488 750 
Q 750 597 1062 519 
Q 1375 441 1716 441 
Q 2309 441 2620 675 
Q 2931 909 2931 1356 
Q 2931 1769 2642 2001 
Q 2353 2234 1838 2234 
L 1294 2234 
L 1294 2753 
L 1863 2753 
Q 2328 2753 2575 2939 
Q 2822 3125 2822 3475 
Q 2822 3834 2567 4026 
Q 2313 4219 1838 4219 
Q 1578 4219 1281 4162 
Q 984 4106 628 3988 
L 628 4550 
Q 988 4650 1302 4700 
Q 1616 4750 1894 4750 
Q 2613 4750 3031 4423 
Q 3450 4097 3450 3541 
Q 3450 3153 3228 2886 
Q 3006 2619 2597 2516 
z
" transform="scale(0.015625)"/>
     </defs>
     <use xlink:href="#DejaVuSans-76"/>
     <use xlink:href="#DejaVuSans-32" x="59.179688"/>
     <use xlink:href="#DejaVuSans-2e" x="122.802734"/>
     <use xlink:href="#DejaVuSans-36" x="154.589844"/>
     <use xlink:href="#DejaVuSans-2e" x="218.212891"/>
     <use xlink:href="#DejaVuSans-33" x="250"/>
    </g>
   </g>
   <g id="legend_1">
    <g id="patch_7">
     <path d="M 76.208 136.881 
L 160.148625 136.881 
Q 164.148625 136.881 164.148625 132.881 
L 164.148625 17.456 
Q 164.148625 13.456 160.148625 13.456 
L 76.208 13.456 
Q 72.208 13.456 72.208 17.456 
L 72.208 132.881 
Q 72.208 136.881 76.208 136.881 
z
" style="fill: #ffffff; opacity: 0.2; stroke: #cccccc; stroke-linejoin: miter"/>
    </g>
    <g id="line2d_113">
     <path d="M 80.208 29.652875 
L 80.208 29.652875 
L 100.208 29.652875 
L 100.208 29.652875 
L 120.208 29.652875 
" style="fill: none; stroke: #000000; stroke-width: 1.5; stroke-linecap: square"/>
    </g>
    <g id="text_14">
     <!-- 1 -->
     <g transform="translate(136.208 36.652875)scale(0.2 -0.2)">
      <use xlink:href="#DejaVuSans-31"/>
     </g>
    </g>
    <g id="line2d_114">
     <path d="M 80.208 59.009125 
L 100.208 59.009125 
L 120.208 59.009125 
" style="fill: none; stroke: #00bfbf; stroke-width: 1.5; stroke-linecap: square"/>
    </g>
    <g id="text_15">
     <!-- -1 -->
     <g transform="translate(136.208 66.009125)scale(0.2 -0.2)">
      <use xlink:href="#DejaVuSans-2d"/>
      <use xlink:href="#DejaVuSans-31" x="36.083984"/>
     </g>
    </g>
    <g id="line2d_115">
     <path d="M 80.208 88.365375 
L 100.208 88.365375 
L 120.208 88.365375 
" style="fill: none; stroke: #bf00bf; stroke-width: 1.5; stroke-linecap: square"/>
    </g>
    <g id="text_16">
     <!-- -4 -->
     <g transform="translate(136.208 95.365375)scale(0.2 -0.2)">
      <use xlink:href="#DejaVuSans-2d"/>
      <use xlink:href="#DejaVuSans-34" x="36.083984"/>
     </g>
    </g>
    <g id="line2d_116">
     <path d="M 80.208 117.721625 
L 100.208 117.721625 
L 120.208 117.721625 
" style="fill: none; stroke: #ff0000; stroke-width: 3; stroke-linecap: square"/>
    </g>
    <g id="text_17">
     <!-- -8 -->
     <g transform="translate(136.208 124.721625)scale(0.2 -0.2)">
      <use xlink:href="#DejaVuSans-2d"/>
      <use xlink:href="#DejaVuSans-38" x="36.083984"/>
     </g>
    </g>
   </g>
  </g>
 </g>
 <defs>
  <clipPath id="pa6dd7f9992">
   <rect x="62.208" y="3.456" width="398.592" height="290.304"/>
  </clipPath>
 </defs>
</svg>
