<?xml version="1.0" encoding="utf-8" standalone="no"?>
<!DOCTYPE svg PUBLIC "-//W3C//DTD SVG 1.1//EN"
  "http://www.w3.org/Graphics/SVG/1.1/DTD/svg11.dtd">
<svg xmlns:xlink="http://www.w3.org/1999/xlink" width="460.8pt" height="345.6pt" viewBox="0 0 460.8 345.6" xmlns="http://www.w3.org/2000/svg" version="1.1">
 <metadata>
  <rdf:RDF xmlns:dc="http://purl.org/dc/elements/1.1/" xmlns:cc="http://creativecommons.org/ns#" xmlns:rdf="http://www.w3.org/1999/02/22-rdf-syntax-ns#">
   <cc:Work>
    <dc:type rdf:resource="http://purl.org/dc/dcmitype/StillImage"/>
    <dc:date>2024-01-05T10:25:54.846428</dc:date>
    <dc:format>image/svg+xml</dc:format>
    <dc:creator>
     <cc:Agent>
      <dc:title>Matplotlib v3.5.1, https://matplotlib.org/</dc:title>
     </cc:Agent>
    </dc:creator>
   </cc:Work>
  </rdf:RDF>
 </metadata>
 <defs>
  <style type="text/css">*{stroke-linejoin: round; stroke-linecap: butt}</style>
 </defs>
 <g id="figure_1">
  <g id="patch_1">
   <path d="M 0 345.6 
L 460.8 345.6 
L 460.8 0 
L 0 0 
z
" style="fill: #ffffff"/>
  </g>
  <g id="axes_1">
   <g id="patch_2">
    <path d="M 62.208 293.76 
L 460.8 293.76 
L 460.8 3.456 
L 62.208 3.456 
z
" style="fill: #ffffff"/>
   </g>
   <g id="line2d_1">
    <path d="M 302.331203 293.76 
L 302.331203 289.927604 
L 307.429262 289.927604 
L 307.429262 286.095208 
L 309.028398 286.095208 
L 309.028398 282.262812 
L 310.934583 282.262812 
L 310.934583 278.430416 
L 311.168261 278.430416 
L 311.168261 274.59802 
L 311.632647 274.59802 
L 311.632647 270.765624 
L 317.958237 270.765624 
L 317.958237 266.933228 
L 320.768971 266.933228 
L 320.768971 263.100832 
L 324.549593 263.100832 
L 324.549593 259.268436 
L 330.103436 259.268436 
L 330.103436 255.43604 
L 331.649416 255.43604 
L 331.649416 251.603644 
L 340.994513 251.603644 
L 340.994513 247.771248 
L 351.713269 247.771248 
L 351.713269 243.938851 
L 359.238651 243.938851 
L 359.238651 240.106455 
L 360.342795 240.106455 
L 360.342795 236.274059 
L 361.378514 236.274059 
L 361.378514 232.441663 
L 362.440778 232.441663 
L 362.440778 228.609267 
L 362.850906 228.609267 
L 362.850906 224.776871 
L 366.833939 224.776871 
L 366.833939 220.944475 
L 368.127273 220.944475 
L 368.127273 217.112079 
L 386.899763 217.112079 
L 386.899763 213.279683 
L 388.315643 213.279683 
L 388.315643 209.447287 
L 390.056278 209.447287 
L 390.056278 205.614891 
L 393.742866 205.614891 
L 393.742866 201.782495 
L 406.948666 201.782495 
L 406.948666 197.950099 
L 412.815451 197.950099 
L 412.815451 194.117703 
L 417.296908 194.117703 
L 417.296908 190.285307 
L 433.741828 190.285307 
L 433.741828 186.452911 
L 433.741828 186.452911 
L 433.741828 186.452911 
L 460.8 186.452911 
" clip-path="url(#pc81408b3aa)" style="fill: none; stroke: #f5deb3; stroke-width: 1.5; stroke-linecap: square"/>
   </g>
   <g id="line2d_2">
    <path d="M 409.37126 293.76 
L 409.37126 282.262812 
L 435.082464 282.262812 
L 435.082464 270.765624 
L 454.278684 270.765624 
L 454.278684 259.268436 
L 461.8 259.268436 
" clip-path="url(#pc81408b3aa)" style="fill: none; stroke: #f5deb3; stroke-width: 1.5; stroke-linecap: square"/>
   </g>
   <g id="line2d_3">
    <path d="M 248.217875 293.76 
L 248.217875 289.927604 
L 254.794519 289.927604 
L 254.794519 286.095208 
L 306.548459 286.095208 
L 306.548459 282.262812 
L 308.663487 282.262812 
L 308.663487 278.430416 
L 311.863373 278.430416 
L 311.863373 274.59802 
L 321.158989 274.59802 
L 321.158989 270.765624 
L 326.786528 270.765624 
L 326.786528 266.933228 
L 331.649416 266.933228 
L 331.649416 263.100832 
L 335.744706 263.100832 
L 335.744706 259.268436 
L 336.410718 259.268436 
L 336.410718 255.43604 
L 342.594548 255.43604 
L 342.594548 251.603644 
L 345.660931 251.603644 
L 345.660931 247.771248 
L 354.690644 247.771248 
L 354.690644 243.938851 
L 357.31401 243.938851 
L 357.31401 240.106455 
L 366.918307 240.106455 
L 366.918307 236.274059 
L 378.399031 236.274059 
L 378.399031 232.441663 
L 390.77008 232.441663 
L 390.77008 228.609267 
L 406.068616 228.609267 
L 406.068616 224.776871 
L 406.989257 224.776871 
L 406.989257 220.944475 
L 409.893235 220.944475 
L 409.893235 217.112079 
L 415.346377 217.112079 
L 415.346377 213.279683 
L 421.330203 213.279683 
L 421.330203 209.447287 
L 422.595999 209.447287 
L 422.595999 205.614891 
L 441.20354 205.614891 
L 441.20354 201.782495 
L 445.996876 201.782495 
L 445.996876 197.950099 
L 461.8 197.950099 
" clip-path="url(#pc81408b3aa)" style="fill: none; stroke: #f5deb3; stroke-width: 1.5; stroke-linecap: square"/>
   </g>
   <g id="line2d_4">
    <path d="M 290.614871 293.76 
L 290.614871 289.927604 
L 319.079709 289.927604 
L 319.079709 286.095208 
L 319.180532 286.095208 
L 319.180532 282.262812 
L 323.068495 282.262812 
L 323.068495 278.430416 
L 366.410137 278.430416 
L 366.410137 274.59802 
L 368.003438 274.59802 
L 368.003438 270.765624 
L 373.913113 270.765624 
L 373.913113 266.933228 
L 374.282866 266.933228 
L 374.282866 263.100832 
L 379.78296 263.100832 
L 379.78296 259.268436 
L 395.321707 259.268436 
L 395.321707 255.43604 
L 397.366528 255.43604 
L 397.366528 251.603644 
L 401.689369 251.603644 
L 401.689369 247.771248 
L 401.845582 247.771248 
L 401.845582 243.938851 
L 407.353225 243.938851 
L 407.353225 240.106455 
L 408.391311 240.106455 
L 408.391311 236.274059 
L 410.429341 236.274059 
L 410.429341 232.441663 
L 417.162271 232.441663 
L 417.162271 228.609267 
L 438.165292 228.609267 
L 438.165292 224.776871 
L 452.856649 224.776871 
L 452.856649 220.944475 
L 453.49419 220.944475 
L 453.49419 217.112079 
L 460.943602 217.112079 
L 460.943602 213.279683 
L 461.8 213.279683 
" clip-path="url(#pc81408b3aa)" style="fill: none; stroke: #f5deb3; stroke-width: 1.5; stroke-linecap: square"/>
   </g>
   <g id="line2d_5">
    <path d="M 444.26741 293.76 
L 444.26741 289.927604 
L 444.26741 289.927604 
L 444.26741 289.927604 
L 460.8 289.927604 
" clip-path="url(#pc81408b3aa)" style="fill: none; stroke: #f5deb3; stroke-width: 1.5; stroke-linecap: square"/>
   </g>
   <g id="line2d_6"/>
   <g id="line2d_7">
    <path d="M 323.814048 293.76 
L 323.814048 289.927604 
L 333.386652 289.927604 
L 333.386652 286.095208 
L 336.189612 286.095208 
L 336.189612 282.262812 
L 341.999996 282.262812 
L 341.999996 278.430416 
L 354.107971 278.430416 
L 354.107971 274.59802 
L 433.115709 274.59802 
L 433.115709 270.765624 
L 453.389896 270.765624 
L 453.389896 266.933228 
L 458.391543 266.933228 
L 458.391543 263.100832 
L 459.593166 263.100832 
L 459.593166 259.268436 
L 461.8 259.268436 
" clip-path="url(#pc81408b3aa)" style="fill: none; stroke: #f5deb3; stroke-width: 1.5; stroke-linecap: square"/>
   </g>
   <g id="line2d_8">
    <path clip-path="url(#pc81408b3aa)" style="fill: none; stroke: #f5deb3; stroke-width: 1.5; stroke-linecap: square"/>
   </g>
   <g id="line2d_9">
    <path d="M 310.81737 293.76 
L 310.81737 289.927604 
L 317.440789 289.927604 
L 317.440789 286.095208 
L 335.145823 286.095208 
L 335.145823 282.262812 
L 336.557628 282.262812 
L 336.557628 278.430416 
L 389.973314 278.430416 
L 389.973314 274.59802 
L 396.439805 274.59802 
L 396.439805 270.765624 
L 402.97046 270.765624 
L 402.97046 266.933228 
L 407.974448 266.933228 
L 407.974448 263.100832 
L 416.364526 263.100832 
L 416.364526 259.268436 
L 437.145131 259.268436 
L 437.145131 255.43604 
L 438.997384 255.43604 
L 438.997384 251.603644 
L 439.042615 251.603644 
L 439.042615 247.771248 
L 455.094287 247.771248 
L 455.094287 243.938851 
L 459.304984 243.938851 
L 459.304984 240.106455 
L 461.8 240.106455 
" clip-path="url(#pc81408b3aa)" style="fill: none; stroke: #f5deb3; stroke-width: 1.5; stroke-linecap: square"/>
   </g>
   <g id="line2d_10">
    <path clip-path="url(#pc81408b3aa)" style="fill: none; stroke: #f5deb3; stroke-width: 1.5; stroke-linecap: square"/>
   </g>
   <g id="line2d_11">
    <path d="M 404.900897 293.76 
L 404.900897 289.927604 
L 451.034668 289.927604 
L 451.034668 286.095208 
L 461.8 286.095208 
" clip-path="url(#pc81408b3aa)" style="fill: none; stroke: #f5deb3; stroke-width: 1.5; stroke-linecap: square"/>
   </g>
   <g id="line2d_12">
    <path d="M 315.751336 293.76 
L 315.751336 289.927604 
L 320.671031 289.927604 
L 320.671031 286.095208 
L 322.974584 286.095208 
L 322.974584 282.262812 
L 343.052558 282.262812 
L 343.052558 278.430416 
L 343.442114 278.430416 
L 343.442114 274.59802 
L 364.461391 274.59802 
L 364.461391 270.765624 
L 367.296366 270.765624 
L 367.296366 266.933228 
L 369.269775 266.933228 
L 369.269775 263.100832 
L 370.468014 263.100832 
L 370.468014 259.268436 
L 377.363787 259.268436 
L 377.363787 255.43604 
L 386.929027 255.43604 
L 386.929027 251.603644 
L 389.834762 251.603644 
L 389.834762 247.771248 
L 391.957266 247.771248 
L 391.957266 243.938851 
L 394.61431 243.938851 
L 394.61431 240.106455 
L 394.766665 240.106455 
L 394.766665 236.274059 
L 395.070112 236.274059 
L 395.070112 232.441663 
L 397.728068 232.441663 
L 397.728068 228.609267 
L 403.858324 228.609267 
L 403.858324 224.776871 
L 415.537642 224.776871 
L 415.537642 220.944475 
L 427.553134 220.944475 
L 427.553134 217.112079 
L 439.99505 217.112079 
L 439.99505 213.279683 
L 446.34423 213.279683 
L 446.34423 209.447287 
L 451.711576 209.447287 
L 451.711576 205.614891 
L 455.355086 205.614891 
L 455.355086 201.782495 
L 461.8 201.782495 
" clip-path="url(#pc81408b3aa)" style="fill: none; stroke: #f5deb3; stroke-width: 1.5; stroke-linecap: square"/>
   </g>
   <g id="line2d_13">
    <path d="M 405.132243 293.76 
L 405.132243 289.927604 
L 424.086253 289.927604 
L 424.086253 286.095208 
L 431.271457 286.095208 
L 431.271457 282.262812 
L 432.901189 282.262812 
L 432.901189 278.430416 
L 440.316248 278.430416 
L 440.316248 274.59802 
L 446.284839 274.59802 
L 446.284839 270.765624 
L 451.19789 270.765624 
L 451.19789 266.933228 
L 451.585853 266.933228 
L 451.585853 263.100832 
L 451.585853 263.100832 
L 451.585853 259.268436 
L 455.068982 259.268436 
L 455.068982 255.43604 
L 461.8 255.43604 
" clip-path="url(#pc81408b3aa)" style="fill: none; stroke: #f5deb3; stroke-width: 1.5; stroke-linecap: square"/>
   </g>
   <g id="line2d_14">
    <path d="M 265.968355 293.76 
L 265.968355 289.927604 
L 281.399033 289.927604 
L 281.399033 286.095208 
L 363.39301 286.095208 
L 363.39301 282.262812 
L 415.710941 282.262812 
L 415.710941 278.430416 
L 428.506635 278.430416 
L 428.506635 274.59802 
L 434.960827 274.59802 
L 434.960827 270.765624 
L 436.686869 270.765624 
L 436.686869 266.933228 
L 447.120255 266.933228 
L 447.120255 263.100832 
L 448.373811 263.100832 
L 448.373811 259.268436 
L 455.161709 259.268436 
L 455.161709 255.43604 
L 458.952438 255.43604 
L 458.952438 251.603644 
L 459.709566 251.603644 
L 459.709566 247.771248 
L 460.134264 247.771248 
L 460.134264 243.938851 
L 461.8 243.938851 
" clip-path="url(#pc81408b3aa)" style="fill: none; stroke: #f5deb3; stroke-width: 1.5; stroke-linecap: square"/>
   </g>
   <g id="line2d_15">
    <path clip-path="url(#pc81408b3aa)" style="fill: none; stroke: #f5deb3; stroke-width: 1.5; stroke-linecap: square"/>
   </g>
   <g id="line2d_16">
    <path d="M 413.305769 293.76 
L 413.305769 289.927604 
L 461.8 289.927604 
" clip-path="url(#pc81408b3aa)" style="fill: none; stroke: #f5deb3; stroke-width: 1.5; stroke-linecap: square"/>
   </g>
   <g id="line2d_17">
    <path d="M 426.383743 293.76 
L 426.383743 289.927604 
L 429.658878 289.927604 
L 429.658878 286.095208 
L 455.673092 286.095208 
L 455.673092 282.262812 
L 461.8 282.262812 
" clip-path="url(#pc81408b3aa)" style="fill: none; stroke: #f5deb3; stroke-width: 1.5; stroke-linecap: square"/>
   </g>
   <g id="line2d_18">
    <path d="M 279.975647 293.76 
L 279.975647 289.927604 
L 305.910533 289.927604 
L 305.910533 286.095208 
L 316.708054 286.095208 
L 316.708054 282.262812 
L 318.9787 282.262812 
L 318.9787 278.430416 
L 319.481893 278.430416 
L 319.481893 274.59802 
L 336.189612 274.59802 
L 336.189612 270.765624 
L 346.462706 270.765624 
L 346.462706 266.933228 
L 348.446807 266.933228 
L 348.446807 263.100832 
L 352.431751 263.100832 
L 352.431751 259.268436 
L 358.01271 259.268436 
L 358.01271 255.43604 
L 369.87217 255.43604 
L 369.87217 251.603644 
L 371.096521 251.603644 
L 371.096521 247.771248 
L 373.428672 247.771248 
L 373.428672 243.938851 
L 374.246003 243.938851 
L 374.246003 240.106455 
L 390.276901 240.106455 
L 390.276901 236.274059 
L 392.699573 236.274059 
L 392.699573 232.441663 
L 393.27584 232.441663 
L 393.27584 228.609267 
L 393.949162 228.609267 
L 393.949162 224.776871 
L 395.321707 224.776871 
L 395.321707 220.944475 
L 411.336352 220.944475 
L 411.336352 217.112079 
L 412.339109 217.112079 
L 412.339109 213.279683 
L 420.257876 213.279683 
L 420.257876 209.447287 
L 424.382455 209.447287 
L 424.382455 205.614891 
L 433.529749 205.614891 
L 433.529749 201.782495 
L 447.634788 201.782495 
L 447.634788 197.950099 
L 452.865433 197.950099 
L 452.865433 194.117703 
L 457.365617 194.117703 
L 457.365617 190.285307 
L 461.8 190.285307 
" clip-path="url(#pc81408b3aa)" style="fill: none; stroke: #f5deb3; stroke-width: 1.5; stroke-linecap: square"/>
   </g>
   <g id="line2d_19">
    <path d="M 0 0 
" clip-path="url(#pc81408b3aa)" style="fill: none; stroke: #f5deb3; stroke-width: 1.5; stroke-linecap: square"/>
   </g>
   <g id="line2d_20">
    <path d="M 273.418356 293.76 
L 273.418356 289.927604 
L 273.418356 289.927604 
L 273.418356 286.095208 
L 279.145369 286.095208 
L 279.145369 282.262812 
L 282.196099 282.262812 
L 282.196099 278.430416 
L 300.236784 278.430416 
L 300.236784 274.59802 
L 325.275396 274.59802 
L 325.275396 270.765624 
L 331.569127 270.765624 
L 331.569127 266.933228 
L 341.197091 266.933228 
L 341.197091 263.100832 
L 353.032425 263.100832 
L 353.032425 259.268436 
L 366.537622 259.268436 
L 366.537622 255.43604 
L 368.374108 255.43604 
L 368.374108 251.603644 
L 371.213567 251.603644 
L 371.213567 247.771248 
L 373.428672 247.771248 
L 373.428672 243.938851 
L 378.124873 243.938851 
L 378.124873 240.106455 
L 378.262124 240.106455 
L 378.262124 236.274059 
L 387.511054 236.274059 
L 387.511054 232.441663 
L 391.877134 232.441663 
L 391.877134 228.609267 
L 392.857339 228.609267 
L 392.857339 224.776871 
L 393.846111 224.776871 
L 393.846111 220.944475 
L 395.24635 220.944475 
L 395.24635 217.112079 
L 399.640207 217.112079 
L 399.640207 213.279683 
L 404.774296 213.279683 
L 404.774296 209.447287 
L 413.414136 209.447287 
L 413.414136 205.614891 
L 413.432176 205.614891 
L 413.432176 201.782495 
L 415.659009 201.782495 
L 415.659009 197.950099 
L 430.813666 197.950099 
L 430.813666 194.117703 
L 432.393097 194.117703 
L 432.393097 190.285307 
L 434.496129 190.285307 
L 434.496129 186.452911 
L 461.516611 186.452911 
L 461.516611 182.620515 
L 461.8 182.620515 
" clip-path="url(#pc81408b3aa)" style="fill: none; stroke: #f5deb3; stroke-width: 1.5; stroke-linecap: square"/>
   </g>
   <g id="line2d_21">
    <path clip-path="url(#pc81408b3aa)" style="fill: none; stroke: #f5deb3; stroke-width: 1.5; stroke-linecap: square"/>
   </g>
   <g id="line2d_22">
    <path d="M 253.138885 293.76 
L 253.138885 289.927604 
L 261.537879 289.927604 
L 261.537879 286.095208 
L 272.481627 286.095208 
L 272.481627 282.262812 
L 273.880783 282.262812 
L 273.880783 278.430416 
L 282.196099 278.430416 
L 282.196099 274.59802 
L 286.749357 274.59802 
L 286.749357 270.765624 
L 355.630945 270.765624 
L 355.630945 266.933228 
L 390.056278 266.933228 
L 390.056278 263.100832 
L 392.857339 263.100832 
L 392.857339 259.268436 
L 398.039485 259.268436 
L 398.039485 255.43604 
L 401.30813 255.43604 
L 401.30813 251.603644 
L 411.616741 251.603644 
L 411.616741 247.771248 
L 416.31321 247.771248 
L 416.31321 243.938851 
L 426.908123 243.938851 
L 426.908123 240.106455 
L 432.92647 240.106455 
L 432.92647 236.274059 
L 439.369427 236.274059 
L 439.369427 232.441663 
L 461.8 232.441663 
" clip-path="url(#pc81408b3aa)" style="fill: none; stroke: #f5deb3; stroke-width: 1.5; stroke-linecap: square"/>
   </g>
   <g id="line2d_23">
    <path d="M 416.535235 293.76 
L 416.535235 289.927604 
L 425.130602 289.927604 
L 425.130602 286.095208 
L 429.065449 286.095208 
L 429.065449 282.262812 
L 430.126378 282.262812 
L 430.126378 278.430416 
L 432.137274 278.430416 
L 432.137274 274.59802 
L 436.153298 274.59802 
L 436.153298 270.765624 
L 456.788156 270.765624 
L 456.788156 266.933228 
L 461.8 266.933228 
" clip-path="url(#pc81408b3aa)" style="fill: none; stroke: #f5deb3; stroke-width: 1.5; stroke-linecap: square"/>
   </g>
   <g id="line2d_24">
    <path d="M 358.210713 293.76 
L 358.210713 289.927604 
L 360.056895 289.927604 
L 360.056895 286.095208 
L 368.783045 286.095208 
L 368.783045 282.262812 
L 370.270119 282.262812 
L 370.270119 278.430416 
L 378.603754 278.430416 
L 378.603754 274.59802 
L 379.849583 274.59802 
L 379.849583 270.765624 
L 392.356181 270.765624 
L 392.356181 266.933228 
L 425.116031 266.933228 
L 425.116031 263.100832 
L 461.261005 263.100832 
L 461.261005 259.268436 
L 461.8 259.268436 
" clip-path="url(#pc81408b3aa)" style="fill: none; stroke: #f5deb3; stroke-width: 1.5; stroke-linecap: square"/>
   </g>
   <g id="line2d_25">
    <path clip-path="url(#pc81408b3aa)" style="fill: none; stroke: #f5deb3; stroke-width: 1.5; stroke-linecap: square"/>
   </g>
   <g id="line2d_26">
    <path d="M 379.78296 293.76 
L 379.78296 289.927604 
L 381.77938 289.927604 
L 381.77938 286.095208 
L 382.259359 286.095208 
L 382.259359 282.262812 
L 382.892861 282.262812 
L 382.892861 278.430416 
L 383.144225 278.430416 
L 383.144225 274.59802 
L 384.567611 274.59802 
L 384.567611 270.765624 
L 385.596415 270.765624 
L 385.596415 266.933228 
L 385.954959 266.933228 
L 385.954959 263.100832 
L 390.359406 263.100832 
L 390.359406 259.268436 
L 403.362026 259.268436 
L 403.362026 255.43604 
L 404.626223 255.43604 
L 404.626223 251.603644 
L 406.171676 251.603644 
L 406.171676 247.771248 
L 406.745261 247.771248 
L 406.745261 243.938851 
L 410.828007 243.938851 
L 410.828007 240.106455 
L 421.657166 240.106455 
L 421.657166 236.274059 
L 422.672244 236.274059 
L 422.672244 232.441663 
L 422.702713 232.441663 
L 422.702713 228.609267 
L 423.473986 228.609267 
L 423.473986 224.776871 
L 425.854296 224.776871 
L 425.854296 220.944475 
L 426.21259 220.944475 
L 426.21259 217.112079 
L 427.483391 217.112079 
L 427.483391 213.279683 
L 442.851864 213.279683 
L 442.851864 209.447287 
L 446.571297 209.447287 
L 446.571297 205.614891 
L 446.709053 205.614891 
L 446.709053 201.782495 
L 448.010344 201.782495 
L 448.010344 197.950099 
L 450.183519 197.950099 
L 450.183519 194.117703 
L 457.591686 194.117703 
L 457.591686 190.285307 
L 457.872966 190.285307 
L 457.872966 186.452911 
L 461.8 186.452911 
" clip-path="url(#pc81408b3aa)" style="fill: none; stroke: #f5deb3; stroke-width: 1.5; stroke-linecap: square"/>
   </g>
   <g id="line2d_27">
    <path d="M 304.216308 293.76 
L 304.216308 289.927604 
L 317.127959 289.927604 
L 317.127959 286.095208 
L 366.452665 286.095208 
L 366.452665 282.262812 
L 384.628667 282.262812 
L 384.628667 278.430416 
L 418.772851 278.430416 
L 418.772851 274.59802 
L 440.470638 274.59802 
L 440.470638 270.765624 
L 447.769899 270.765624 
L 447.769899 266.933228 
L 449.140617 266.933228 
L 449.140617 263.100832 
L 449.711086 263.100832 
L 449.711086 259.268436 
L 461.599053 259.268436 
L 461.599053 255.43604 
L 461.8 255.43604 
" clip-path="url(#pc81408b3aa)" style="fill: none; stroke: #f5deb3; stroke-width: 1.5; stroke-linecap: square"/>
   </g>
   <g id="line2d_28">
    <path d="M 326.610896 293.76 
L 326.610896 289.927604 
L 327.483483 289.927604 
L 327.483483 286.095208 
L 338.926445 286.095208 
L 338.926445 282.262812 
L 351.990724 282.262812 
L 351.990724 278.430416 
L 378.467357 278.430416 
L 378.467357 274.59802 
L 411.504757 274.59802 
L 411.504757 270.765624 
L 431.180204 270.765624 
L 431.180204 266.933228 
L 461.8 266.933228 
" clip-path="url(#pc81408b3aa)" style="fill: none; stroke: #f5deb3; stroke-width: 1.5; stroke-linecap: square"/>
   </g>
   <g id="line2d_29">
    <path d="M 321.061744 293.76 
L 321.061744 289.927604 
L 321.061744 289.927604 
L 321.061744 286.095208 
L 321.061744 286.095208 
L 321.061744 282.262812 
L 359.480582 282.262812 
L 359.480582 278.430416 
L 359.480582 278.430416 
L 359.480582 274.59802 
L 359.480582 274.59802 
L 359.480582 270.765624 
L 367.546964 270.765624 
L 367.546964 266.933228 
L 367.546964 266.933228 
L 367.546964 263.100832 
L 367.546964 263.100832 
L 367.546964 259.268436 
L 415.607027 259.268436 
L 415.607027 255.43604 
L 415.607027 255.43604 
L 415.607027 251.603644 
L 415.607027 251.603644 
L 415.607027 247.771248 
L 461.8 247.771248 
" clip-path="url(#pc81408b3aa)" style="fill: none; stroke: #f5deb3; stroke-width: 1.5; stroke-linecap: square"/>
   </g>
   <g id="line2d_30">
    <path d="M 455.656401 293.76 
L 455.656401 289.927604 
L 459.078047 289.927604 
L 459.078047 286.095208 
L 461.8 286.095208 
" clip-path="url(#pc81408b3aa)" style="fill: none; stroke: #f5deb3; stroke-width: 1.5; stroke-linecap: square"/>
   </g>
   <g id="matplotlib.axis_1">
    <g id="xtick_1">
     <g id="line2d_31">
      <path d="M 62.208 293.76 
L 62.208 3.456 
" clip-path="url(#pc81408b3aa)" style="fill: none; stroke: #b0b0b0; stroke-width: 0.8; stroke-linecap: square"/>
     </g>
     <g id="line2d_32">
      <defs>
       <path id="m551f0e56d8" d="M 0 0 
L 0 3.5 
" style="stroke: #000000; stroke-width: 0.8"/>
      </defs>
      <g>
       <use xlink:href="#m551f0e56d8" x="62.208" y="293.76" style="stroke: #000000; stroke-width: 0.8"/>
      </g>
     </g>
     <g id="text_1">
      <!-- 0 -->
      <g transform="translate(55.8455 315.956875)scale(0.2 -0.2)">
       <defs>
        <path id="DejaVuSans-30" d="M 2034 4250 
Q 1547 4250 1301 3770 
Q 1056 3291 1056 2328 
Q 1056 1369 1301 889 
Q 1547 409 2034 409 
Q 2525 409 2770 889 
Q 3016 1369 3016 2328 
Q 3016 3291 2770 3770 
Q 2525 4250 2034 4250 
z
M 2034 4750 
Q 2819 4750 3233 4129 
Q 3647 3509 3647 2328 
Q 3647 1150 3233 529 
Q 2819 -91 2034 -91 
Q 1250 -91 836 529 
Q 422 1150 422 2328 
Q 422 3509 836 4129 
Q 1250 4750 2034 4750 
z
" transform="scale(0.015625)"/>
       </defs>
       <use xlink:href="#DejaVuSans-30"/>
      </g>
     </g>
    </g>
    <g id="xtick_2">
     <g id="line2d_33">
      <path d="M 314.558865 293.76 
L 314.558865 3.456 
" clip-path="url(#pc81408b3aa)" style="fill: none; stroke: #b0b0b0; stroke-width: 0.8; stroke-linecap: square"/>
     </g>
     <g id="line2d_34">
      <g>
       <use xlink:href="#m551f0e56d8" x="314.558865" y="293.76" style="stroke: #000000; stroke-width: 0.8"/>
      </g>
     </g>
     <g id="text_2">
      <!-- 2 -->
      <g transform="translate(308.196365 315.956875)scale(0.2 -0.2)">
       <defs>
        <path id="DejaVuSans-32" d="M 1228 531 
L 3431 531 
L 3431 0 
L 469 0 
L 469 531 
Q 828 903 1448 1529 
Q 2069 2156 2228 2338 
Q 2531 2678 2651 2914 
Q 2772 3150 2772 3378 
Q 2772 3750 2511 3984 
Q 2250 4219 1831 4219 
Q 1534 4219 1204 4116 
Q 875 4013 500 3803 
L 500 4441 
Q 881 4594 1212 4672 
Q 1544 4750 1819 4750 
Q 2544 4750 2975 4387 
Q 3406 4025 3406 3419 
Q 3406 3131 3298 2873 
Q 3191 2616 2906 2266 
Q 2828 2175 2409 1742 
Q 1991 1309 1228 531 
z
" transform="scale(0.015625)"/>
       </defs>
       <use xlink:href="#DejaVuSans-32"/>
      </g>
     </g>
    </g>
    <g id="xtick_3">
     <g id="line2d_35">
      <path d="M 100.19059 293.76 
L 100.19059 3.456 
" clip-path="url(#pc81408b3aa)" style="fill: none; stroke: #b0b0b0; stroke-width: 0.8; stroke-linecap: square"/>
     </g>
     <g id="line2d_36">
      <defs>
       <path id="mba6ce1f0fb" d="M 0 0 
L 0 2 
" style="stroke: #000000; stroke-width: 0.6"/>
      </defs>
      <g>
       <use xlink:href="#mba6ce1f0fb" x="100.19059" y="293.76" style="stroke: #000000; stroke-width: 0.6"/>
      </g>
     </g>
    </g>
    <g id="xtick_4">
     <g id="line2d_37">
      <path d="M 122.408981 293.76 
L 122.408981 3.456 
" clip-path="url(#pc81408b3aa)" style="fill: none; stroke: #b0b0b0; stroke-width: 0.8; stroke-linecap: square"/>
     </g>
     <g id="line2d_38">
      <g>
       <use xlink:href="#mba6ce1f0fb" x="122.408981" y="293.76" style="stroke: #000000; stroke-width: 0.6"/>
      </g>
     </g>
    </g>
    <g id="xtick_5">
     <g id="line2d_39">
      <path d="M 138.17318 293.76 
L 138.17318 3.456 
" clip-path="url(#pc81408b3aa)" style="fill: none; stroke: #b0b0b0; stroke-width: 0.8; stroke-linecap: square"/>
     </g>
     <g id="line2d_40">
      <g>
       <use xlink:href="#mba6ce1f0fb" x="138.17318" y="293.76" style="stroke: #000000; stroke-width: 0.6"/>
      </g>
     </g>
    </g>
    <g id="xtick_6">
     <g id="line2d_41">
      <path d="M 150.400843 293.76 
L 150.400843 3.456 
" clip-path="url(#pc81408b3aa)" style="fill: none; stroke: #b0b0b0; stroke-width: 0.8; stroke-linecap: square"/>
     </g>
     <g id="line2d_42">
      <g>
       <use xlink:href="#mba6ce1f0fb" x="150.400843" y="293.76" style="stroke: #000000; stroke-width: 0.6"/>
      </g>
     </g>
    </g>
    <g id="xtick_7">
     <g id="line2d_43">
      <path d="M 160.391571 293.76 
L 160.391571 3.456 
" clip-path="url(#pc81408b3aa)" style="fill: none; stroke: #b0b0b0; stroke-width: 0.8; stroke-linecap: square"/>
     </g>
     <g id="line2d_44">
      <g>
       <use xlink:href="#mba6ce1f0fb" x="160.391571" y="293.76" style="stroke: #000000; stroke-width: 0.6"/>
      </g>
     </g>
    </g>
    <g id="xtick_8">
     <g id="line2d_45">
      <path d="M 168.838611 293.76 
L 168.838611 3.456 
" clip-path="url(#pc81408b3aa)" style="fill: none; stroke: #b0b0b0; stroke-width: 0.8; stroke-linecap: square"/>
     </g>
     <g id="line2d_46">
      <g>
       <use xlink:href="#mba6ce1f0fb" x="168.838611" y="293.76" style="stroke: #000000; stroke-width: 0.6"/>
      </g>
     </g>
    </g>
    <g id="xtick_9">
     <g id="line2d_47">
      <path d="M 176.15577 293.76 
L 176.15577 3.456 
" clip-path="url(#pc81408b3aa)" style="fill: none; stroke: #b0b0b0; stroke-width: 0.8; stroke-linecap: square"/>
     </g>
     <g id="line2d_48">
      <g>
       <use xlink:href="#mba6ce1f0fb" x="176.15577" y="293.76" style="stroke: #000000; stroke-width: 0.6"/>
      </g>
     </g>
    </g>
    <g id="xtick_10">
     <g id="line2d_49">
      <path d="M 182.609962 293.76 
L 182.609962 3.456 
" clip-path="url(#pc81408b3aa)" style="fill: none; stroke: #b0b0b0; stroke-width: 0.8; stroke-linecap: square"/>
     </g>
     <g id="line2d_50">
      <g>
       <use xlink:href="#mba6ce1f0fb" x="182.609962" y="293.76" style="stroke: #000000; stroke-width: 0.6"/>
      </g>
     </g>
    </g>
    <g id="xtick_11">
     <g id="line2d_51">
      <path d="M 226.366023 293.76 
L 226.366023 3.456 
" clip-path="url(#pc81408b3aa)" style="fill: none; stroke: #b0b0b0; stroke-width: 0.8; stroke-linecap: square"/>
     </g>
     <g id="line2d_52">
      <g>
       <use xlink:href="#mba6ce1f0fb" x="226.366023" y="293.76" style="stroke: #000000; stroke-width: 0.6"/>
      </g>
     </g>
    </g>
    <g id="xtick_12">
     <g id="line2d_53">
      <path d="M 248.584414 293.76 
L 248.584414 3.456 
" clip-path="url(#pc81408b3aa)" style="fill: none; stroke: #b0b0b0; stroke-width: 0.8; stroke-linecap: square"/>
     </g>
     <g id="line2d_54">
      <g>
       <use xlink:href="#mba6ce1f0fb" x="248.584414" y="293.76" style="stroke: #000000; stroke-width: 0.6"/>
      </g>
     </g>
    </g>
    <g id="xtick_13">
     <g id="line2d_55">
      <path d="M 264.348613 293.76 
L 264.348613 3.456 
" clip-path="url(#pc81408b3aa)" style="fill: none; stroke: #b0b0b0; stroke-width: 0.8; stroke-linecap: square"/>
     </g>
     <g id="line2d_56">
      <g>
       <use xlink:href="#mba6ce1f0fb" x="264.348613" y="293.76" style="stroke: #000000; stroke-width: 0.6"/>
      </g>
     </g>
    </g>
    <g id="xtick_14">
     <g id="line2d_57">
      <path d="M 276.576275 293.76 
L 276.576275 3.456 
" clip-path="url(#pc81408b3aa)" style="fill: none; stroke: #b0b0b0; stroke-width: 0.8; stroke-linecap: square"/>
     </g>
     <g id="line2d_58">
      <g>
       <use xlink:href="#mba6ce1f0fb" x="276.576275" y="293.76" style="stroke: #000000; stroke-width: 0.6"/>
      </g>
     </g>
    </g>
    <g id="xtick_15">
     <g id="line2d_59">
      <path d="M 286.567003 293.76 
L 286.567003 3.456 
" clip-path="url(#pc81408b3aa)" style="fill: none; stroke: #b0b0b0; stroke-width: 0.8; stroke-linecap: square"/>
     </g>
     <g id="line2d_60">
      <g>
       <use xlink:href="#mba6ce1f0fb" x="286.567003" y="293.76" style="stroke: #000000; stroke-width: 0.6"/>
      </g>
     </g>
    </g>
    <g id="xtick_16">
     <g id="line2d_61">
      <path d="M 295.014044 293.76 
L 295.014044 3.456 
" clip-path="url(#pc81408b3aa)" style="fill: none; stroke: #b0b0b0; stroke-width: 0.8; stroke-linecap: square"/>
     </g>
     <g id="line2d_62">
      <g>
       <use xlink:href="#mba6ce1f0fb" x="295.014044" y="293.76" style="stroke: #000000; stroke-width: 0.6"/>
      </g>
     </g>
    </g>
    <g id="xtick_17">
     <g id="line2d_63">
      <path d="M 302.331203 293.76 
L 302.331203 3.456 
" clip-path="url(#pc81408b3aa)" style="fill: none; stroke: #b0b0b0; stroke-width: 0.8; stroke-linecap: square"/>
     </g>
     <g id="line2d_64">
      <g>
       <use xlink:href="#mba6ce1f0fb" x="302.331203" y="293.76" style="stroke: #000000; stroke-width: 0.6"/>
      </g>
     </g>
    </g>
    <g id="xtick_18">
     <g id="line2d_65">
      <path d="M 308.785394 293.76 
L 308.785394 3.456 
" clip-path="url(#pc81408b3aa)" style="fill: none; stroke: #b0b0b0; stroke-width: 0.8; stroke-linecap: square"/>
     </g>
     <g id="line2d_66">
      <g>
       <use xlink:href="#mba6ce1f0fb" x="308.785394" y="293.76" style="stroke: #000000; stroke-width: 0.6"/>
      </g>
     </g>
    </g>
    <g id="xtick_19">
     <g id="line2d_67">
      <path d="M 352.541455 293.76 
L 352.541455 3.456 
" clip-path="url(#pc81408b3aa)" style="fill: none; stroke: #b0b0b0; stroke-width: 0.8; stroke-linecap: square"/>
     </g>
     <g id="line2d_68">
      <g>
       <use xlink:href="#mba6ce1f0fb" x="352.541455" y="293.76" style="stroke: #000000; stroke-width: 0.6"/>
      </g>
     </g>
    </g>
    <g id="xtick_20">
     <g id="line2d_69">
      <path d="M 374.759846 293.76 
L 374.759846 3.456 
" clip-path="url(#pc81408b3aa)" style="fill: none; stroke: #b0b0b0; stroke-width: 0.8; stroke-linecap: square"/>
     </g>
     <g id="line2d_70">
      <g>
       <use xlink:href="#mba6ce1f0fb" x="374.759846" y="293.76" style="stroke: #000000; stroke-width: 0.6"/>
      </g>
     </g>
    </g>
    <g id="xtick_21">
     <g id="line2d_71">
      <path d="M 390.524045 293.76 
L 390.524045 3.456 
" clip-path="url(#pc81408b3aa)" style="fill: none; stroke: #b0b0b0; stroke-width: 0.8; stroke-linecap: square"/>
     </g>
     <g id="line2d_72">
      <g>
       <use xlink:href="#mba6ce1f0fb" x="390.524045" y="293.76" style="stroke: #000000; stroke-width: 0.6"/>
      </g>
     </g>
    </g>
    <g id="xtick_22">
     <g id="line2d_73">
      <path d="M 402.751708 293.76 
L 402.751708 3.456 
" clip-path="url(#pc81408b3aa)" style="fill: none; stroke: #b0b0b0; stroke-width: 0.8; stroke-linecap: square"/>
     </g>
     <g id="line2d_74">
      <g>
       <use xlink:href="#mba6ce1f0fb" x="402.751708" y="293.76" style="stroke: #000000; stroke-width: 0.6"/>
      </g>
     </g>
    </g>
    <g id="xtick_23">
     <g id="line2d_75">
      <path d="M 412.742436 293.76 
L 412.742436 3.456 
" clip-path="url(#pc81408b3aa)" style="fill: none; stroke: #b0b0b0; stroke-width: 0.8; stroke-linecap: square"/>
     </g>
     <g id="line2d_76">
      <g>
       <use xlink:href="#mba6ce1f0fb" x="412.742436" y="293.76" style="stroke: #000000; stroke-width: 0.6"/>
      </g>
     </g>
    </g>
    <g id="xtick_24">
     <g id="line2d_77">
      <path d="M 421.189476 293.76 
L 421.189476 3.456 
" clip-path="url(#pc81408b3aa)" style="fill: none; stroke: #b0b0b0; stroke-width: 0.8; stroke-linecap: square"/>
     </g>
     <g id="line2d_78">
      <g>
       <use xlink:href="#mba6ce1f0fb" x="421.189476" y="293.76" style="stroke: #000000; stroke-width: 0.6"/>
      </g>
     </g>
    </g>
    <g id="xtick_25">
     <g id="line2d_79">
      <path d="M 428.506635 293.76 
L 428.506635 3.456 
" clip-path="url(#pc81408b3aa)" style="fill: none; stroke: #b0b0b0; stroke-width: 0.8; stroke-linecap: square"/>
     </g>
     <g id="line2d_80">
      <g>
       <use xlink:href="#mba6ce1f0fb" x="428.506635" y="293.76" style="stroke: #000000; stroke-width: 0.6"/>
      </g>
     </g>
    </g>
    <g id="xtick_26">
     <g id="line2d_81">
      <path d="M 434.960827 293.76 
L 434.960827 3.456 
" clip-path="url(#pc81408b3aa)" style="fill: none; stroke: #b0b0b0; stroke-width: 0.8; stroke-linecap: square"/>
     </g>
     <g id="line2d_82">
      <g>
       <use xlink:href="#mba6ce1f0fb" x="434.960827" y="293.76" style="stroke: #000000; stroke-width: 0.6"/>
      </g>
     </g>
    </g>
    <g id="text_3">
     <!-- log10 of FEvals / DIM -->
     <g transform="translate(156.430563 339.313125)scale(0.2 -0.2)">
      <defs>
       <path id="DejaVuSans-6c" d="M 603 4863 
L 1178 4863 
L 1178 0 
L 603 0 
L 603 4863 
z
" transform="scale(0.015625)"/>
       <path id="DejaVuSans-6f" d="M 1959 3097 
Q 1497 3097 1228 2736 
Q 959 2375 959 1747 
Q 959 1119 1226 758 
Q 1494 397 1959 397 
Q 2419 397 2687 759 
Q 2956 1122 2956 1747 
Q 2956 2369 2687 2733 
Q 2419 3097 1959 3097 
z
M 1959 3584 
Q 2709 3584 3137 3096 
Q 3566 2609 3566 1747 
Q 3566 888 3137 398 
Q 2709 -91 1959 -91 
Q 1206 -91 779 398 
Q 353 888 353 1747 
Q 353 2609 779 3096 
Q 1206 3584 1959 3584 
z
" transform="scale(0.015625)"/>
       <path id="DejaVuSans-67" d="M 2906 1791 
Q 2906 2416 2648 2759 
Q 2391 3103 1925 3103 
Q 1463 3103 1205 2759 
Q 947 2416 947 1791 
Q 947 1169 1205 825 
Q 1463 481 1925 481 
Q 2391 481 2648 825 
Q 2906 1169 2906 1791 
z
M 3481 434 
Q 3481 -459 3084 -895 
Q 2688 -1331 1869 -1331 
Q 1566 -1331 1297 -1286 
Q 1028 -1241 775 -1147 
L 775 -588 
Q 1028 -725 1275 -790 
Q 1522 -856 1778 -856 
Q 2344 -856 2625 -561 
Q 2906 -266 2906 331 
L 2906 616 
Q 2728 306 2450 153 
Q 2172 0 1784 0 
Q 1141 0 747 490 
Q 353 981 353 1791 
Q 353 2603 747 3093 
Q 1141 3584 1784 3584 
Q 2172 3584 2450 3431 
Q 2728 3278 2906 2969 
L 2906 3500 
L 3481 3500 
L 3481 434 
z
" transform="scale(0.015625)"/>
       <path id="DejaVuSans-31" d="M 794 531 
L 1825 531 
L 1825 4091 
L 703 3866 
L 703 4441 
L 1819 4666 
L 2450 4666 
L 2450 531 
L 3481 531 
L 3481 0 
L 794 0 
L 794 531 
z
" transform="scale(0.015625)"/>
       <path id="DejaVuSans-20" transform="scale(0.015625)"/>
       <path id="DejaVuSans-66" d="M 2375 4863 
L 2375 4384 
L 1825 4384 
Q 1516 4384 1395 4259 
Q 1275 4134 1275 3809 
L 1275 3500 
L 2222 3500 
L 2222 3053 
L 1275 3053 
L 1275 0 
L 697 0 
L 697 3053 
L 147 3053 
L 147 3500 
L 697 3500 
L 697 3744 
Q 697 4328 969 4595 
Q 1241 4863 1831 4863 
L 2375 4863 
z
" transform="scale(0.015625)"/>
       <path id="DejaVuSans-46" d="M 628 4666 
L 3309 4666 
L 3309 4134 
L 1259 4134 
L 1259 2759 
L 3109 2759 
L 3109 2228 
L 1259 2228 
L 1259 0 
L 628 0 
L 628 4666 
z
" transform="scale(0.015625)"/>
       <path id="DejaVuSans-45" d="M 628 4666 
L 3578 4666 
L 3578 4134 
L 1259 4134 
L 1259 2753 
L 3481 2753 
L 3481 2222 
L 1259 2222 
L 1259 531 
L 3634 531 
L 3634 0 
L 628 0 
L 628 4666 
z
" transform="scale(0.015625)"/>
       <path id="DejaVuSans-76" d="M 191 3500 
L 800 3500 
L 1894 563 
L 2988 3500 
L 3597 3500 
L 2284 0 
L 1503 0 
L 191 3500 
z
" transform="scale(0.015625)"/>
       <path id="DejaVuSans-61" d="M 2194 1759 
Q 1497 1759 1228 1600 
Q 959 1441 959 1056 
Q 959 750 1161 570 
Q 1363 391 1709 391 
Q 2188 391 2477 730 
Q 2766 1069 2766 1631 
L 2766 1759 
L 2194 1759 
z
M 3341 1997 
L 3341 0 
L 2766 0 
L 2766 531 
Q 2569 213 2275 61 
Q 1981 -91 1556 -91 
Q 1019 -91 701 211 
Q 384 513 384 1019 
Q 384 1609 779 1909 
Q 1175 2209 1959 2209 
L 2766 2209 
L 2766 2266 
Q 2766 2663 2505 2880 
Q 2244 3097 1772 3097 
Q 1472 3097 1187 3025 
Q 903 2953 641 2809 
L 641 3341 
Q 956 3463 1253 3523 
Q 1550 3584 1831 3584 
Q 2591 3584 2966 3190 
Q 3341 2797 3341 1997 
z
" transform="scale(0.015625)"/>
       <path id="DejaVuSans-73" d="M 2834 3397 
L 2834 2853 
Q 2591 2978 2328 3040 
Q 2066 3103 1784 3103 
Q 1356 3103 1142 2972 
Q 928 2841 928 2578 
Q 928 2378 1081 2264 
Q 1234 2150 1697 2047 
L 1894 2003 
Q 2506 1872 2764 1633 
Q 3022 1394 3022 966 
Q 3022 478 2636 193 
Q 2250 -91 1575 -91 
Q 1294 -91 989 -36 
Q 684 19 347 128 
L 347 722 
Q 666 556 975 473 
Q 1284 391 1588 391 
Q 1994 391 2212 530 
Q 2431 669 2431 922 
Q 2431 1156 2273 1281 
Q 2116 1406 1581 1522 
L 1381 1569 
Q 847 1681 609 1914 
Q 372 2147 372 2553 
Q 372 3047 722 3315 
Q 1072 3584 1716 3584 
Q 2034 3584 2315 3537 
Q 2597 3491 2834 3397 
z
" transform="scale(0.015625)"/>
       <path id="DejaVuSans-2f" d="M 1625 4666 
L 2156 4666 
L 531 -594 
L 0 -594 
L 1625 4666 
z
" transform="scale(0.015625)"/>
       <path id="DejaVuSans-44" d="M 1259 4147 
L 1259 519 
L 2022 519 
Q 2988 519 3436 956 
Q 3884 1394 3884 2338 
Q 3884 3275 3436 3711 
Q 2988 4147 2022 4147 
L 1259 4147 
z
M 628 4666 
L 1925 4666 
Q 3281 4666 3915 4102 
Q 4550 3538 4550 2338 
Q 4550 1131 3912 565 
Q 3275 0 1925 0 
L 628 0 
L 628 4666 
z
" transform="scale(0.015625)"/>
       <path id="DejaVuSans-49" d="M 628 4666 
L 1259 4666 
L 1259 0 
L 628 0 
L 628 4666 
z
" transform="scale(0.015625)"/>
       <path id="DejaVuSans-4d" d="M 628 4666 
L 1569 4666 
L 2759 1491 
L 3956 4666 
L 4897 4666 
L 4897 0 
L 4281 0 
L 4281 4097 
L 3078 897 
L 2444 897 
L 1241 4097 
L 1241 0 
L 628 0 
L 628 4666 
z
" transform="scale(0.015625)"/>
      </defs>
      <use xlink:href="#DejaVuSans-6c"/>
      <use xlink:href="#DejaVuSans-6f" x="27.783203"/>
      <use xlink:href="#DejaVuSans-67" x="88.964844"/>
      <use xlink:href="#DejaVuSans-31" x="152.441406"/>
      <use xlink:href="#DejaVuSans-30" x="216.064453"/>
      <use xlink:href="#DejaVuSans-20" x="279.6875"/>
      <use xlink:href="#DejaVuSans-6f" x="311.474609"/>
      <use xlink:href="#DejaVuSans-66" x="372.65625"/>
      <use xlink:href="#DejaVuSans-20" x="407.861328"/>
      <use xlink:href="#DejaVuSans-46" x="439.648438"/>
      <use xlink:href="#DejaVuSans-45" x="497.167969"/>
      <use xlink:href="#DejaVuSans-76" x="560.351562"/>
      <use xlink:href="#DejaVuSans-61" x="619.53125"/>
      <use xlink:href="#DejaVuSans-6c" x="680.810547"/>
      <use xlink:href="#DejaVuSans-73" x="708.59375"/>
      <use xlink:href="#DejaVuSans-20" x="760.693359"/>
      <use xlink:href="#DejaVuSans-2f" x="792.480469"/>
      <use xlink:href="#DejaVuSans-20" x="826.171875"/>
      <use xlink:href="#DejaVuSans-44" x="857.958984"/>
      <use xlink:href="#DejaVuSans-49" x="934.960938"/>
      <use xlink:href="#DejaVuSans-4d" x="964.453125"/>
     </g>
    </g>
   </g>
   <g id="matplotlib.axis_2">
    <g id="ytick_1">
     <g id="line2d_83">
      <path d="M 62.208 293.76 
L 460.8 293.76 
" clip-path="url(#pc81408b3aa)" style="fill: none; stroke: #b0b0b0; stroke-width: 0.8; stroke-linecap: square"/>
     </g>
     <g id="line2d_84">
      <defs>
       <path id="me2efab73e2" d="M 0 0 
L -3.5 0 
" style="stroke: #000000; stroke-width: 0.8"/>
      </defs>
      <g>
       <use xlink:href="#me2efab73e2" x="62.208" y="293.76" style="stroke: #000000; stroke-width: 0.8"/>
      </g>
     </g>
     <g id="text_4">
      <!-- 0.0 -->
      <g transform="translate(29.763 299.83875)scale(0.16 -0.16)">
       <defs>
        <path id="DejaVuSans-2e" d="M 684 794 
L 1344 794 
L 1344 0 
L 684 0 
L 684 794 
z
" transform="scale(0.015625)"/>
       </defs>
       <use xlink:href="#DejaVuSans-30"/>
       <use xlink:href="#DejaVuSans-2e" x="63.623047"/>
       <use xlink:href="#DejaVuSans-30" x="95.410156"/>
      </g>
     </g>
    </g>
    <g id="ytick_2">
     <g id="line2d_85">
      <path d="M 62.208 236.274059 
L 460.8 236.274059 
" clip-path="url(#pc81408b3aa)" style="fill: none; stroke: #b0b0b0; stroke-width: 0.8; stroke-linecap: square"/>
     </g>
     <g id="line2d_86">
      <g>
       <use xlink:href="#me2efab73e2" x="62.208" y="236.274059" style="stroke: #000000; stroke-width: 0.8"/>
      </g>
     </g>
     <g id="text_5">
      <!-- 0.2 -->
      <g transform="translate(29.763 242.352809)scale(0.16 -0.16)">
       <use xlink:href="#DejaVuSans-30"/>
       <use xlink:href="#DejaVuSans-2e" x="63.623047"/>
       <use xlink:href="#DejaVuSans-32" x="95.410156"/>
      </g>
     </g>
    </g>
    <g id="ytick_3">
     <g id="line2d_87">
      <path d="M 62.208 178.788119 
L 460.8 178.788119 
" clip-path="url(#pc81408b3aa)" style="fill: none; stroke: #b0b0b0; stroke-width: 0.8; stroke-linecap: square"/>
     </g>
     <g id="line2d_88">
      <g>
       <use xlink:href="#me2efab73e2" x="62.208" y="178.788119" style="stroke: #000000; stroke-width: 0.8"/>
      </g>
     </g>
     <g id="text_6">
      <!-- 0.4 -->
      <g transform="translate(29.763 184.866869)scale(0.16 -0.16)">
       <defs>
        <path id="DejaVuSans-34" d="M 2419 4116 
L 825 1625 
L 2419 1625 
L 2419 4116 
z
M 2253 4666 
L 3047 4666 
L 3047 1625 
L 3713 1625 
L 3713 1100 
L 3047 1100 
L 3047 0 
L 2419 0 
L 2419 1100 
L 313 1100 
L 313 1709 
L 2253 4666 
z
" transform="scale(0.015625)"/>
       </defs>
       <use xlink:href="#DejaVuSans-30"/>
       <use xlink:href="#DejaVuSans-2e" x="63.623047"/>
       <use xlink:href="#DejaVuSans-34" x="95.410156"/>
      </g>
     </g>
    </g>
    <g id="ytick_4">
     <g id="line2d_89">
      <path d="M 62.208 121.302178 
L 460.8 121.302178 
" clip-path="url(#pc81408b3aa)" style="fill: none; stroke: #b0b0b0; stroke-width: 0.8; stroke-linecap: square"/>
     </g>
     <g id="line2d_90">
      <g>
       <use xlink:href="#me2efab73e2" x="62.208" y="121.302178" style="stroke: #000000; stroke-width: 0.8"/>
      </g>
     </g>
     <g id="text_7">
      <!-- 0.6 -->
      <g transform="translate(29.763 127.380928)scale(0.16 -0.16)">
       <defs>
        <path id="DejaVuSans-36" d="M 2113 2584 
Q 1688 2584 1439 2293 
Q 1191 2003 1191 1497 
Q 1191 994 1439 701 
Q 1688 409 2113 409 
Q 2538 409 2786 701 
Q 3034 994 3034 1497 
Q 3034 2003 2786 2293 
Q 2538 2584 2113 2584 
z
M 3366 4563 
L 3366 3988 
Q 3128 4100 2886 4159 
Q 2644 4219 2406 4219 
Q 1781 4219 1451 3797 
Q 1122 3375 1075 2522 
Q 1259 2794 1537 2939 
Q 1816 3084 2150 3084 
Q 2853 3084 3261 2657 
Q 3669 2231 3669 1497 
Q 3669 778 3244 343 
Q 2819 -91 2113 -91 
Q 1303 -91 875 529 
Q 447 1150 447 2328 
Q 447 3434 972 4092 
Q 1497 4750 2381 4750 
Q 2619 4750 2861 4703 
Q 3103 4656 3366 4563 
z
" transform="scale(0.015625)"/>
       </defs>
       <use xlink:href="#DejaVuSans-30"/>
       <use xlink:href="#DejaVuSans-2e" x="63.623047"/>
       <use xlink:href="#DejaVuSans-36" x="95.410156"/>
      </g>
     </g>
    </g>
    <g id="ytick_5">
     <g id="line2d_91">
      <path d="M 62.208 63.816238 
L 460.8 63.816238 
" clip-path="url(#pc81408b3aa)" style="fill: none; stroke: #b0b0b0; stroke-width: 0.8; stroke-linecap: square"/>
     </g>
     <g id="line2d_92">
      <g>
       <use xlink:href="#me2efab73e2" x="62.208" y="63.816238" style="stroke: #000000; stroke-width: 0.8"/>
      </g>
     </g>
     <g id="text_8">
      <!-- 0.8 -->
      <g transform="translate(29.763 69.894988)scale(0.16 -0.16)">
       <defs>
        <path id="DejaVuSans-38" d="M 2034 2216 
Q 1584 2216 1326 1975 
Q 1069 1734 1069 1313 
Q 1069 891 1326 650 
Q 1584 409 2034 409 
Q 2484 409 2743 651 
Q 3003 894 3003 1313 
Q 3003 1734 2745 1975 
Q 2488 2216 2034 2216 
z
M 1403 2484 
Q 997 2584 770 2862 
Q 544 3141 544 3541 
Q 544 4100 942 4425 
Q 1341 4750 2034 4750 
Q 2731 4750 3128 4425 
Q 3525 4100 3525 3541 
Q 3525 3141 3298 2862 
Q 3072 2584 2669 2484 
Q 3125 2378 3379 2068 
Q 3634 1759 3634 1313 
Q 3634 634 3220 271 
Q 2806 -91 2034 -91 
Q 1263 -91 848 271 
Q 434 634 434 1313 
Q 434 1759 690 2068 
Q 947 2378 1403 2484 
z
M 1172 3481 
Q 1172 3119 1398 2916 
Q 1625 2713 2034 2713 
Q 2441 2713 2670 2916 
Q 2900 3119 2900 3481 
Q 2900 3844 2670 4047 
Q 2441 4250 2034 4250 
Q 1625 4250 1398 4047 
Q 1172 3844 1172 3481 
z
" transform="scale(0.015625)"/>
       </defs>
       <use xlink:href="#DejaVuSans-30"/>
       <use xlink:href="#DejaVuSans-2e" x="63.623047"/>
       <use xlink:href="#DejaVuSans-38" x="95.410156"/>
      </g>
     </g>
    </g>
    <g id="ytick_6">
     <g id="line2d_93">
      <path d="M 62.208 6.330297 
L 460.8 6.330297 
" clip-path="url(#pc81408b3aa)" style="fill: none; stroke: #b0b0b0; stroke-width: 0.8; stroke-linecap: square"/>
     </g>
     <g id="line2d_94">
      <g>
       <use xlink:href="#me2efab73e2" x="62.208" y="6.330297" style="stroke: #000000; stroke-width: 0.8"/>
      </g>
     </g>
     <g id="text_9">
      <!-- 1.0 -->
      <g transform="translate(29.763 12.409047)scale(0.16 -0.16)">
       <use xlink:href="#DejaVuSans-31"/>
       <use xlink:href="#DejaVuSans-2e" x="63.623047"/>
       <use xlink:href="#DejaVuSans-30" x="95.410156"/>
      </g>
     </g>
    </g>
    <g id="text_10">
     <!-- proportion of trials -->
     <g transform="translate(21.603625 241.61425)rotate(-90)scale(0.2 -0.2)">
      <defs>
       <path id="DejaVuSans-70" d="M 1159 525 
L 1159 -1331 
L 581 -1331 
L 581 3500 
L 1159 3500 
L 1159 2969 
Q 1341 3281 1617 3432 
Q 1894 3584 2278 3584 
Q 2916 3584 3314 3078 
Q 3713 2572 3713 1747 
Q 3713 922 3314 415 
Q 2916 -91 2278 -91 
Q 1894 -91 1617 61 
Q 1341 213 1159 525 
z
M 3116 1747 
Q 3116 2381 2855 2742 
Q 2594 3103 2138 3103 
Q 1681 3103 1420 2742 
Q 1159 2381 1159 1747 
Q 1159 1113 1420 752 
Q 1681 391 2138 391 
Q 2594 391 2855 752 
Q 3116 1113 3116 1747 
z
" transform="scale(0.015625)"/>
       <path id="DejaVuSans-72" d="M 2631 2963 
Q 2534 3019 2420 3045 
Q 2306 3072 2169 3072 
Q 1681 3072 1420 2755 
Q 1159 2438 1159 1844 
L 1159 0 
L 581 0 
L 581 3500 
L 1159 3500 
L 1159 2956 
Q 1341 3275 1631 3429 
Q 1922 3584 2338 3584 
Q 2397 3584 2469 3576 
Q 2541 3569 2628 3553 
L 2631 2963 
z
" transform="scale(0.015625)"/>
       <path id="DejaVuSans-74" d="M 1172 4494 
L 1172 3500 
L 2356 3500 
L 2356 3053 
L 1172 3053 
L 1172 1153 
Q 1172 725 1289 603 
Q 1406 481 1766 481 
L 2356 481 
L 2356 0 
L 1766 0 
Q 1100 0 847 248 
Q 594 497 594 1153 
L 594 3053 
L 172 3053 
L 172 3500 
L 594 3500 
L 594 4494 
L 1172 4494 
z
" transform="scale(0.015625)"/>
       <path id="DejaVuSans-69" d="M 603 3500 
L 1178 3500 
L 1178 0 
L 603 0 
L 603 3500 
z
M 603 4863 
L 1178 4863 
L 1178 4134 
L 603 4134 
L 603 4863 
z
" transform="scale(0.015625)"/>
       <path id="DejaVuSans-6e" d="M 3513 2113 
L 3513 0 
L 2938 0 
L 2938 2094 
Q 2938 2591 2744 2837 
Q 2550 3084 2163 3084 
Q 1697 3084 1428 2787 
Q 1159 2491 1159 1978 
L 1159 0 
L 581 0 
L 581 3500 
L 1159 3500 
L 1159 2956 
Q 1366 3272 1645 3428 
Q 1925 3584 2291 3584 
Q 2894 3584 3203 3211 
Q 3513 2838 3513 2113 
z
" transform="scale(0.015625)"/>
      </defs>
      <use xlink:href="#DejaVuSans-70"/>
      <use xlink:href="#DejaVuSans-72" x="63.476562"/>
      <use xlink:href="#DejaVuSans-6f" x="102.339844"/>
      <use xlink:href="#DejaVuSans-70" x="163.521484"/>
      <use xlink:href="#DejaVuSans-6f" x="226.998047"/>
      <use xlink:href="#DejaVuSans-72" x="288.179688"/>
      <use xlink:href="#DejaVuSans-74" x="329.292969"/>
      <use xlink:href="#DejaVuSans-69" x="368.501953"/>
      <use xlink:href="#DejaVuSans-6f" x="396.285156"/>
      <use xlink:href="#DejaVuSans-6e" x="457.466797"/>
      <use xlink:href="#DejaVuSans-20" x="520.845703"/>
      <use xlink:href="#DejaVuSans-6f" x="552.632812"/>
      <use xlink:href="#DejaVuSans-66" x="613.814453"/>
      <use xlink:href="#DejaVuSans-20" x="649.019531"/>
      <use xlink:href="#DejaVuSans-74" x="680.806641"/>
      <use xlink:href="#DejaVuSans-72" x="720.015625"/>
      <use xlink:href="#DejaVuSans-69" x="761.128906"/>
      <use xlink:href="#DejaVuSans-61" x="788.912109"/>
      <use xlink:href="#DejaVuSans-6c" x="850.191406"/>
      <use xlink:href="#DejaVuSans-73" x="877.974609"/>
     </g>
    </g>
   </g>
   <g id="line2d_95">
    <path d="M -1 286.095208 
L 34.216138 286.095208 
L 34.216138 282.262812 
L 49.980337 282.262812 
L 49.980337 274.59802 
L 72.198728 274.59802 
L 72.198728 255.43604 
L 87.962927 255.43604 
L 87.962927 251.603644 
L 94.417119 251.603644 
L 94.417119 240.106455 
L 105.41333 240.106455 
L 105.41333 236.274059 
L 110.181318 236.274059 
L 110.181318 232.441663 
L 122.408981 232.441663 
L 122.408981 228.609267 
L 132.399709 228.609267 
L 132.399709 224.776871 
L 140.846749 224.776871 
L 140.846749 217.112079 
L 156.610948 217.112079 
L 156.610948 213.279683 
L 186.146498 213.279683 
L 186.146498 209.447287 
L 208.364889 209.447287 
L 208.364889 205.614891 
L 212.751012 205.614891 
L 212.751012 201.782495 
L 221.198053 201.782495 
L 221.198053 197.950099 
L 224.696941 197.950099 
L 224.696941 194.117703 
L 226.911274 194.117703 
L 226.911274 190.285307 
L 231.088327 190.285307 
L 231.088327 186.452911 
L 232.084669 186.452911 
L 232.084669 182.620515 
L 235.435766 182.620515 
L 235.435766 178.788119 
L 237.262512 178.788119 
L 237.262512 174.955723 
L 238.153544 174.955723 
L 238.153544 167.290931 
L 240.319727 167.290931 
L 240.319727 163.458535 
L 241.162779 163.458535 
L 241.162779 159.626139 
L 243.215352 159.626139 
L 243.215352 155.793743 
L 243.616799 155.793743 
L 243.616799 151.961347 
L 244.015327 151.961347 
L 244.015327 148.12895 
L 245.965614 148.12895 
L 245.965614 144.296554 
L 247.103315 144.296554 
L 247.103315 140.464158 
L 247.47736 140.464158 
L 247.47736 136.631762 
L 247.848868 136.631762 
L 247.848868 132.799366 
L 252.12095 132.799366 
L 252.12095 128.96697 
L 254.138256 128.96697 
L 254.138256 125.134574 
L 257.962875 125.134574 
L 257.962875 121.302178 
L 259.180643 121.302178 
L 259.180643 117.469782 
L 259.480903 117.469782 
L 259.480903 113.637386 
L 259.779526 113.637386 
L 259.779526 109.80499 
L 262.111678 109.80499 
L 262.111678 105.972594 
L 264.348613 105.972594 
L 264.348613 102.140198 
L 264.621916 102.140198 
L 264.621916 98.307802 
L 271.045808 98.307802 
L 271.045808 94.475406 
L 271.287739 94.475406 
L 271.287739 90.64301 
L 276.356647 90.64301 
L 276.356647 86.810614 
L 280.181266 86.810614 
L 280.181266 82.978218 
L 289.93203 82.978218 
L 289.93203 79.145822 
L 292.44996 79.145822 
L 292.44996 75.313426 
L 295.014044 75.313426 
L 295.014044 71.48103 
L 302.468025 71.48103 
L 302.468025 67.648634 
L 306.421467 67.648634 
L 306.421467 63.816238 
L 379.381513 63.816238 
L 379.381513 59.983842 
L 383.394441 59.983842 
L 383.394441 56.151446 
L 392.831076 56.151446 
L 392.831076 52.31905 
L 403.987056 52.31905 
L 403.987056 48.486653 
L 407.413652 48.486653 
L 407.413652 44.654257 
L 413.17907 44.654257 
L 413.17907 40.821861 
L 419.810157 40.821861 
L 419.810157 36.989465 
L 423.413885 36.989465 
L 423.413885 33.157069 
L 426.696141 33.157069 
L 426.696141 29.324673 
L 431.660828 29.324673 
L 431.660828 25.492277 
L 432.265335 25.492277 
L 432.265335 21.659881 
L 432.265335 21.659881 
L 460.8 21.659881 
L 460.8 21.659881 
" clip-path="url(#pc81408b3aa)" style="fill: none; stroke: #000000; stroke-width: 1.5; stroke-linecap: square"/>
   </g>
   <g id="line2d_96">
    <defs>
     <path id="m5a4e5808e4" d="M -0 14.142136 
L 8.485281 0 
L -0 -14.142136 
L -8.485281 -0 
z
" style="stroke: #000000; stroke-width: 1.5; stroke-linejoin: miter"/>
    </defs>
    <g clip-path="url(#pc81408b3aa)">
     <use xlink:href="#m5a4e5808e4" x="72.198728" y="263.100832" style="fill-opacity: 0; stroke: #000000; stroke-width: 1.5; stroke-linejoin: miter"/>
     <use xlink:href="#m5a4e5808e4" x="156.610948" y="217.112079" style="fill-opacity: 0; stroke: #000000; stroke-width: 1.5; stroke-linejoin: miter"/>
     <use xlink:href="#m5a4e5808e4" x="257.962875" y="125.134574" style="fill-opacity: 0; stroke: #000000; stroke-width: 1.5; stroke-linejoin: miter"/>
     <use xlink:href="#m5a4e5808e4" x="302.468025" y="71.48103" style="fill-opacity: 0; stroke: #000000; stroke-width: 1.5; stroke-linejoin: miter"/>
     <use xlink:href="#m5a4e5808e4" x="419.810157" y="40.821861" style="fill-opacity: 0; stroke: #000000; stroke-width: 1.5; stroke-linejoin: miter"/>
     <use xlink:href="#m5a4e5808e4" x="432.265335" y="21.659881" style="fill-opacity: 0; stroke: #000000; stroke-width: 1.5; stroke-linejoin: miter"/>
    </g>
   </g>
   <g id="line2d_97">
    <path clip-path="url(#pc81408b3aa)" style="fill: none; stroke: #000000; stroke-width: 1.5; stroke-linecap: square"/>
    <g clip-path="url(#pc81408b3aa)">
     <use xlink:href="#m5a4e5808e4" x="-1" y="581.189703" style="fill-opacity: 0; stroke: #000000; stroke-width: 1.5; stroke-linejoin: miter"/>
     <use xlink:href="#m5a4e5808e4" x="460.8" y="581.189703" style="fill-opacity: 0; stroke: #000000; stroke-width: 1.5; stroke-linejoin: miter"/>
    </g>
   </g>
   <g id="line2d_98">
    <path d="M -1 289.927604 
L 11.997747 289.927604 
L 11.997747 286.095208 
L 34.216138 286.095208 
L 34.216138 282.262812 
L 34.216138 282.262812 
L 34.216138 278.430416 
L 34.216138 278.430416 
L 34.216138 274.59802 
L 34.216138 274.59802 
L 34.216138 270.765624 
L 62.208 270.765624 
L 62.208 266.933228 
L 62.208 266.933228 
L 62.208 263.100832 
L 72.198728 263.100832 
L 72.198728 259.268436 
L 80.645768 259.268436 
L 80.645768 255.43604 
L 94.417119 255.43604 
L 94.417119 251.603644 
L 94.417119 251.603644 
L 94.417119 247.771248 
L 94.417119 247.771248 
L 94.417119 243.938851 
L 94.417119 243.938851 
L 94.417119 240.106455 
L 105.41333 240.106455 
L 105.41333 236.274059 
L 114.567442 236.274059 
L 114.567442 232.441663 
L 140.846749 232.441663 
L 140.846749 228.609267 
L 143.39592 228.609267 
L 143.39592 224.776871 
L 148.163908 224.776871 
L 148.163908 220.944475 
L 150.400843 220.944475 
L 150.400843 217.112079 
L 174.768423 217.112079 
L 174.768423 213.279683 
L 178.829339 213.279683 
L 178.829339 209.447287 
L 208.364889 209.447287 
L 208.364889 205.614891 
L 212.043941 205.614891 
L 212.043941 201.782495 
L 214.13836 201.782495 
L 214.13836 197.950099 
L 216.811929 197.950099 
L 216.811929 194.117703 
L 224.696941 194.117703 
L 224.696941 190.285307 
L 227.451153 190.285307 
L 227.451153 186.452911 
L 227.451153 186.452911 
L 227.451153 182.620515 
L 227.985765 182.620515 
L 227.985765 178.788119 
L 239.03032 178.788119 
L 239.03032 174.955723 
L 239.463502 174.955723 
L 239.463502 171.123327 
L 239.463502 171.123327 
L 239.463502 167.290931 
L 239.893287 167.290931 
L 239.893287 163.458535 
L 239.893287 163.458535 
L 239.893287 159.626139 
L 240.742874 159.626139 
L 240.742874 155.793743 
L 264.621916 155.793743 
L 264.621916 151.961347 
L 264.621916 151.961347 
L 264.621916 148.12895 
L 264.621916 148.12895 
L 264.621916 144.296554 
L 264.893864 144.296554 
L 264.893864 140.464158 
L 265.164468 140.464158 
L 265.164468 136.631762 
L 266.233718 136.631762 
L 266.233718 132.799366 
L 274.110542 132.799366 
L 274.110542 128.96697 
L 286.749357 128.96697 
L 286.749357 125.134574 
L 287.472764 125.134574 
L 287.472764 121.302178 
L 290.614871 121.302178 
L 290.614871 117.469782 
L 302.468025 117.469782 
L 302.468025 113.637386 
L 311.400946 113.637386 
L 311.400946 109.80499 
L 314.777617 109.80499 
L 314.777617 105.972594 
L 324.731947 105.972594 
L 324.731947 102.140198 
L 333.386652 102.140198 
L 333.386652 98.307802 
L 340.382246 98.307802 
L 340.382246 94.475406 
L 366.960443 94.475406 
L 366.960443 90.64301 
L 371.135564 90.64301 
L 371.135564 86.810614 
L 374.796366 86.810614 
L 374.796366 82.978218 
L 378.33062 82.978218 
L 378.33062 79.145822 
L 387.742145 79.145822 
L 387.742145 75.313426 
L 422.748384 75.313426 
L 422.748384 71.48103 
L 422.748384 71.48103 
L 422.748384 71.48103 
L 460.8 71.48103 
" clip-path="url(#pc81408b3aa)" style="fill: none; stroke: #000000; stroke-width: 1.5; stroke-linecap: square"/>
   </g>
   <g id="line2d_99">
    <defs>
     <path id="m8085c35398" d="M 0 7.5 
C 1.989023 7.5 3.896849 6.709753 5.303301 5.303301 
C 6.709753 3.896849 7.5 1.989023 7.5 0 
C 7.5 -1.989023 6.709753 -3.896849 5.303301 -5.303301 
C 3.896849 -6.709753 1.989023 -7.5 0 -7.5 
C -1.989023 -7.5 -3.896849 -6.709753 -5.303301 -5.303301 
C -6.709753 -3.896849 -7.5 -1.989023 -7.5 0 
C -7.5 1.989023 -6.709753 3.896849 -5.303301 5.303301 
C -3.896849 6.709753 -1.989023 7.5 0 7.5 
z
" style="stroke: #000000; stroke-width: 1.5"/>
    </defs>
    <g clip-path="url(#pc81408b3aa)">
     <use xlink:href="#m8085c35398" x="94.417119" y="247.771248" style="fill-opacity: 0; stroke: #000000; stroke-width: 1.5"/>
     <use xlink:href="#m8085c35398" x="208.364889" y="209.447287" style="fill-opacity: 0; stroke: #000000; stroke-width: 1.5"/>
     <use xlink:href="#m8085c35398" x="287.472764" y="125.134574" style="fill-opacity: 0; stroke: #000000; stroke-width: 1.5"/>
     <use xlink:href="#m8085c35398" x="371.135564" y="90.64301" style="fill-opacity: 0; stroke: #000000; stroke-width: 1.5"/>
     <use xlink:href="#m8085c35398" x="422.748384" y="71.48103" style="fill-opacity: 0; stroke: #000000; stroke-width: 1.5"/>
    </g>
   </g>
   <g id="line2d_100">
    <path clip-path="url(#pc81408b3aa)" style="fill: none; stroke: #000000; stroke-width: 1.5; stroke-linecap: square"/>
   </g>
   <g id="line2d_101">
    <path d="M 312.321931 293.76 
L 312.321931 289.927604 
L 317.544671 289.927604 
L 317.544671 286.095208 
L 324.366631 286.095208 
L 324.366631 282.262812 
L 325.545113 282.262812 
L 325.545113 278.430416 
L 328.51257 278.430416 
L 328.51257 274.59802 
L 336.263413 274.59802 
L 336.263413 270.765624 
L 347.313235 270.765624 
L 347.313235 266.933228 
L 347.613825 266.933228 
L 347.613825 263.100832 
L 383.767637 263.100832 
L 383.767637 259.268436 
L 390.77008 259.268436 
L 390.77008 255.43604 
L 408.23288 255.43604 
L 408.23288 251.603644 
L 412.486117 251.603644 
L 412.486117 247.771248 
L 434.899907 247.771248 
L 434.899907 243.938851 
L 439.403124 243.938851 
L 439.403124 240.106455 
L 439.403124 240.106455 
L 439.403124 240.106455 
L 460.8 240.106455 
" clip-path="url(#pc81408b3aa)" style="fill: none; stroke: #00bfbf; stroke-width: 1.5; stroke-linecap: square"/>
   </g>
   <g id="line2d_102">
    <defs>
     <path id="mf1b4667fc1" d="M -0 14.142136 
L 8.485281 0 
L -0 -14.142136 
L -8.485281 -0 
z
" style="stroke: #00bfbf; stroke-width: 1.5; stroke-linejoin: miter"/>
    </defs>
    <g clip-path="url(#pc81408b3aa)">
     <use xlink:href="#mf1b4667fc1" x="324.366631" y="286.095208" style="fill-opacity: 0; stroke: #00bfbf; stroke-width: 1.5; stroke-linejoin: miter"/>
     <use xlink:href="#mf1b4667fc1" x="347.613825" y="266.933228" style="fill-opacity: 0; stroke: #00bfbf; stroke-width: 1.5; stroke-linejoin: miter"/>
     <use xlink:href="#mf1b4667fc1" x="408.23288" y="255.43604" style="fill-opacity: 0; stroke: #00bfbf; stroke-width: 1.5; stroke-linejoin: miter"/>
     <use xlink:href="#mf1b4667fc1" x="439.403124" y="240.106455" style="fill-opacity: 0; stroke: #00bfbf; stroke-width: 1.5; stroke-linejoin: miter"/>
    </g>
   </g>
   <g id="line2d_103">
    <path clip-path="url(#pc81408b3aa)" style="fill: none; stroke: #00bfbf; stroke-width: 1.5; stroke-linecap: square"/>
    <g clip-path="url(#pc81408b3aa)">
     <use xlink:href="#mf1b4667fc1" x="-1" y="581.189703" style="fill-opacity: 0; stroke: #00bfbf; stroke-width: 1.5; stroke-linejoin: miter"/>
     <use xlink:href="#mf1b4667fc1" x="460.8" y="581.189703" style="fill-opacity: 0; stroke: #00bfbf; stroke-width: 1.5; stroke-linejoin: miter"/>
    </g>
   </g>
   <g id="line2d_104">
    <path d="M 404.921969 293.76 
L 404.921969 289.927604 
L 419.617152 289.927604 
L 419.617152 286.095208 
L 422.748384 286.095208 
L 422.748384 282.262812 
L 425.71032 282.262812 
L 425.71032 278.430416 
L 432.507829 278.430416 
L 432.507829 274.59802 
L 432.507829 274.59802 
L 432.507829 274.59802 
L 460.8 274.59802 
" clip-path="url(#pc81408b3aa)" style="fill: none; stroke: #00bfbf; stroke-width: 1.5; stroke-linecap: square"/>
   </g>
   <g id="line2d_105">
    <defs>
     <path id="m0f617cd6ee" d="M 0 7.5 
C 1.989023 7.5 3.896849 6.709753 5.303301 5.303301 
C 6.709753 3.896849 7.5 1.989023 7.5 0 
C 7.5 -1.989023 6.709753 -3.896849 5.303301 -5.303301 
C 3.896849 -6.709753 1.989023 -7.5 0 -7.5 
C -1.989023 -7.5 -3.896849 -6.709753 -5.303301 -5.303301 
C -6.709753 -3.896849 -7.5 -1.989023 -7.5 0 
C -7.5 1.989023 -6.709753 3.896849 -5.303301 5.303301 
C -3.896849 6.709753 -1.989023 7.5 0 7.5 
z
" style="stroke: #00bfbf; stroke-width: 1.5"/>
    </defs>
    <g clip-path="url(#pc81408b3aa)">
     <use xlink:href="#m0f617cd6ee" x="404.921969" y="293.76" style="fill-opacity: 0; stroke: #00bfbf; stroke-width: 1.5"/>
     <use xlink:href="#m0f617cd6ee" x="425.71032" y="282.262812" style="fill-opacity: 0; stroke: #00bfbf; stroke-width: 1.5"/>
     <use xlink:href="#m0f617cd6ee" x="432.507829" y="274.59802" style="fill-opacity: 0; stroke: #00bfbf; stroke-width: 1.5"/>
    </g>
   </g>
   <g id="line2d_106">
    <path clip-path="url(#pc81408b3aa)" style="fill: none; stroke: #00bfbf; stroke-width: 1.5; stroke-linecap: square"/>
   </g>
   <g id="line2d_107">
    <path d="M 353.411272 293.76 
L 353.411272 289.927604 
L 363.212904 289.927604 
L 363.212904 286.095208 
L 370.900886 286.095208 
L 370.900886 282.262812 
L 377.468196 282.262812 
L 377.468196 278.430416 
L 389.779243 278.430416 
L 389.779243 274.59802 
L 405.675208 274.59802 
L 405.675208 270.765624 
L 409.70049 270.765624 
L 409.70049 266.933228 
L 411.877149 266.933228 
L 411.877149 263.100832 
L 420.43277 263.100832 
L 420.43277 259.268436 
L 434.089354 259.268436 
L 434.089354 255.43604 
L 434.089354 255.43604 
L 434.089354 255.43604 
L 460.8 255.43604 
" clip-path="url(#pc81408b3aa)" style="fill: none; stroke: #bf00bf; stroke-width: 1.5; stroke-linecap: square"/>
   </g>
   <g id="line2d_108">
    <defs>
     <path id="mdccc61d658" d="M -0 14.142136 
L 8.485281 0 
L -0 -14.142136 
L -8.485281 -0 
z
" style="stroke: #bf00bf; stroke-width: 1.5; stroke-linejoin: miter"/>
    </defs>
    <g clip-path="url(#pc81408b3aa)">
     <use xlink:href="#mdccc61d658" x="377.468196" y="282.262812" style="fill-opacity: 0; stroke: #bf00bf; stroke-width: 1.5; stroke-linejoin: miter"/>
     <use xlink:href="#mdccc61d658" x="420.43277" y="263.100832" style="fill-opacity: 0; stroke: #bf00bf; stroke-width: 1.5; stroke-linejoin: miter"/>
     <use xlink:href="#mdccc61d658" x="434.089354" y="255.43604" style="fill-opacity: 0; stroke: #bf00bf; stroke-width: 1.5; stroke-linejoin: miter"/>
    </g>
   </g>
   <g id="line2d_109">
    <path clip-path="url(#pc81408b3aa)" style="fill: none; stroke: #bf00bf; stroke-width: 1.5; stroke-linecap: square"/>
    <g clip-path="url(#pc81408b3aa)">
     <use xlink:href="#mdccc61d658" x="-1" y="581.189703" style="fill-opacity: 0; stroke: #bf00bf; stroke-width: 1.5; stroke-linejoin: miter"/>
     <use xlink:href="#mdccc61d658" x="460.8" y="581.189703" style="fill-opacity: 0; stroke: #bf00bf; stroke-width: 1.5; stroke-linejoin: miter"/>
    </g>
   </g>
   <g id="line2d_110"/>
   <g id="line2d_111"/>
   <g id="line2d_112"/>
   <g id="line2d_113">
    <path d="M 441.279549 293.76 
L 441.279549 3.456 
" clip-path="url(#pc81408b3aa)" style="fill: none; stroke: #000000; stroke-width: 1.5; stroke-linecap: square"/>
    <defs>
     <path id="m32165270cc" d="M -10 0 
L 10 0 
M 0 10 
L 0 -10 
" style="stroke: #000000; stroke-width: 3"/>
    </defs>
    <g clip-path="url(#pc81408b3aa)">
     <use xlink:href="#m32165270cc" x="441.279549" y="293.76" style="stroke: #000000; stroke-width: 3"/>
     <use xlink:href="#m32165270cc" x="441.279549" y="3.456" style="stroke: #000000; stroke-width: 3"/>
    </g>
   </g>
   <g id="line2d_114">
    <path d="M 441.819429 293.76 
L 441.819429 3.456 
" clip-path="url(#pc81408b3aa)" style="fill: none; stroke: #000000; stroke-width: 1.5; stroke-linecap: square"/>
    <defs>
     <path id="m676845302b" d="M 0 7.5 
C 1.989023 7.5 3.896849 6.709753 5.303301 5.303301 
C 6.709753 3.896849 7.5 1.989023 7.5 0 
C 7.5 -1.989023 6.709753 -3.896849 5.303301 -5.303301 
C 3.896849 -6.709753 1.989023 -7.5 0 -7.5 
C -1.989023 -7.5 -3.896849 -6.709753 -5.303301 -5.303301 
C -6.709753 -3.896849 -7.5 -1.989023 -7.5 0 
C -7.5 1.989023 -6.709753 3.896849 -5.303301 5.303301 
C -3.896849 6.709753 -1.989023 7.5 0 7.5 
z
" style="stroke: #000000; stroke-width: 3"/>
    </defs>
    <g clip-path="url(#pc81408b3aa)">
     <use xlink:href="#m676845302b" x="441.819429" y="293.76" style="fill-opacity: 0; stroke: #000000; stroke-width: 3"/>
     <use xlink:href="#m676845302b" x="441.819429" y="3.456" style="fill-opacity: 0; stroke: #000000; stroke-width: 3"/>
    </g>
   </g>
   <g id="patch_3">
    <path d="M 62.208 293.76 
L 62.208 3.456 
" style="fill: none; stroke: #000000; stroke-width: 0.8; stroke-linejoin: miter; stroke-linecap: square"/>
   </g>
   <g id="patch_4">
    <path d="M 460.8 293.76 
L 460.8 3.456 
" style="fill: none; stroke: #000000; stroke-width: 0.8; stroke-linejoin: miter; stroke-linecap: square"/>
   </g>
   <g id="patch_5">
    <path d="M 62.208 293.76 
L 460.8 293.76 
" style="fill: none; stroke: #000000; stroke-width: 0.8; stroke-linejoin: miter; stroke-linecap: square"/>
   </g>
   <g id="patch_6">
    <path d="M 62.208 3.456 
L 460.8 3.456 
" style="fill: none; stroke: #000000; stroke-width: 0.8; stroke-linejoin: miter; stroke-linecap: square"/>
   </g>
   <g id="text_11">
    <!-- f20-f24 -->
    <g transform="translate(225.405563 24.458955)scale(0.2 -0.2)">
     <defs>
      <path id="DejaVuSans-2d" d="M 313 2009 
L 1997 2009 
L 1997 1497 
L 313 1497 
L 313 2009 
z
" transform="scale(0.015625)"/>
     </defs>
     <use xlink:href="#DejaVuSans-66"/>
     <use xlink:href="#DejaVuSans-32" x="35.205078"/>
     <use xlink:href="#DejaVuSans-30" x="98.828125"/>
     <use xlink:href="#DejaVuSans-2d" x="162.451172"/>
     <use xlink:href="#DejaVuSans-66" x="198.535156"/>
     <use xlink:href="#DejaVuSans-32" x="233.740234"/>
     <use xlink:href="#DejaVuSans-34" x="297.363281"/>
    </g>
   </g>
   <g id="text_12">
    <!-- absolute targets -->
    <g transform="translate(62.208 609.166194)scale(0.14 -0.14)">
     <defs>
      <path id="DejaVuSans-62" d="M 3116 1747 
Q 3116 2381 2855 2742 
Q 2594 3103 2138 3103 
Q 1681 3103 1420 2742 
Q 1159 2381 1159 1747 
Q 1159 1113 1420 752 
Q 1681 391 2138 391 
Q 2594 391 2855 752 
Q 3116 1113 3116 1747 
z
M 1159 2969 
Q 1341 3281 1617 3432 
Q 1894 3584 2278 3584 
Q 2916 3584 3314 3078 
Q 3713 2572 3713 1747 
Q 3713 922 3314 415 
Q 2916 -91 2278 -91 
Q 1894 -91 1617 61 
Q 1341 213 1159 525 
L 1159 0 
L 581 0 
L 581 4863 
L 1159 4863 
L 1159 2969 
z
" transform="scale(0.015625)"/>
      <path id="DejaVuSans-75" d="M 544 1381 
L 544 3500 
L 1119 3500 
L 1119 1403 
Q 1119 906 1312 657 
Q 1506 409 1894 409 
Q 2359 409 2629 706 
Q 2900 1003 2900 1516 
L 2900 3500 
L 3475 3500 
L 3475 0 
L 2900 0 
L 2900 538 
Q 2691 219 2414 64 
Q 2138 -91 1772 -91 
Q 1169 -91 856 284 
Q 544 659 544 1381 
z
M 1991 3584 
L 1991 3584 
z
" transform="scale(0.015625)"/>
      <path id="DejaVuSans-65" d="M 3597 1894 
L 3597 1613 
L 953 1613 
Q 991 1019 1311 708 
Q 1631 397 2203 397 
Q 2534 397 2845 478 
Q 3156 559 3463 722 
L 3463 178 
Q 3153 47 2828 -22 
Q 2503 -91 2169 -91 
Q 1331 -91 842 396 
Q 353 884 353 1716 
Q 353 2575 817 3079 
Q 1281 3584 2069 3584 
Q 2775 3584 3186 3129 
Q 3597 2675 3597 1894 
z
M 3022 2063 
Q 3016 2534 2758 2815 
Q 2500 3097 2075 3097 
Q 1594 3097 1305 2825 
Q 1016 2553 972 2059 
L 3022 2063 
z
" transform="scale(0.015625)"/>
     </defs>
     <use xlink:href="#DejaVuSans-61"/>
     <use xlink:href="#DejaVuSans-62" x="61.279297"/>
     <use xlink:href="#DejaVuSans-73" x="124.755859"/>
     <use xlink:href="#DejaVuSans-6f" x="176.855469"/>
     <use xlink:href="#DejaVuSans-6c" x="238.037109"/>
     <use xlink:href="#DejaVuSans-75" x="265.820312"/>
     <use xlink:href="#DejaVuSans-74" x="329.199219"/>
     <use xlink:href="#DejaVuSans-65" x="368.408203"/>
     <use xlink:href="#DejaVuSans-20" x="429.931641"/>
     <use xlink:href="#DejaVuSans-74" x="461.71875"/>
     <use xlink:href="#DejaVuSans-61" x="500.927734"/>
     <use xlink:href="#DejaVuSans-72" x="562.207031"/>
     <use xlink:href="#DejaVuSans-67" x="601.570312"/>
     <use xlink:href="#DejaVuSans-65" x="665.046875"/>
     <use xlink:href="#DejaVuSans-74" x="726.570312"/>
     <use xlink:href="#DejaVuSans-73" x="765.779297"/>
    </g>
   </g>
   <g id="text_13">
    <!-- v2.6.3 -->
    <g style="fill: #808080" transform="translate(245.82275 288.777272)scale(0.1 -0.1)">
     <defs>
      <path id="DejaVuSans-33" d="M 2597 2516 
Q 3050 2419 3304 2112 
Q 3559 1806 3559 1356 
Q 3559 666 3084 287 
Q 2609 -91 1734 -91 
Q 1441 -91 1130 -33 
Q 819 25 488 141 
L 488 750 
Q 750 597 1062 519 
Q 1375 441 1716 441 
Q 2309 441 2620 675 
Q 2931 909 2931 1356 
Q 2931 1769 2642 2001 
Q 2353 2234 1838 2234 
L 1294 2234 
L 1294 2753 
L 1863 2753 
Q 2328 2753 2575 2939 
Q 2822 3125 2822 3475 
Q 2822 3834 2567 4026 
Q 2313 4219 1838 4219 
Q 1578 4219 1281 4162 
Q 984 4106 628 3988 
L 628 4550 
Q 988 4650 1302 4700 
Q 1616 4750 1894 4750 
Q 2613 4750 3031 4423 
Q 3450 4097 3450 3541 
Q 3450 3153 3228 2886 
Q 3006 2619 2597 2516 
z
" transform="scale(0.015625)"/>
     </defs>
     <use xlink:href="#DejaVuSans-76"/>
     <use xlink:href="#DejaVuSans-32" x="59.179688"/>
     <use xlink:href="#DejaVuSans-2e" x="122.802734"/>
     <use xlink:href="#DejaVuSans-36" x="154.589844"/>
     <use xlink:href="#DejaVuSans-2e" x="218.212891"/>
     <use xlink:href="#DejaVuSans-33" x="250"/>
    </g>
   </g>
   <g id="legend_1">
    <g id="patch_7">
     <path d="M 76.208 136.881 
L 160.148625 136.881 
Q 164.148625 136.881 164.148625 132.881 
L 164.148625 17.456 
Q 164.148625 13.456 160.148625 13.456 
L 76.208 13.456 
Q 72.208 13.456 72.208 17.456 
L 72.208 132.881 
Q 72.208 136.881 76.208 136.881 
z
" style="fill: #ffffff; opacity: 0.2; stroke: #cccccc; stroke-linejoin: miter"/>
    </g>
    <g id="line2d_115">
     <path d="M 80.208 29.652875 
L 80.208 29.652875 
L 100.208 29.652875 
L 100.208 29.652875 
L 120.208 29.652875 
" style="fill: none; stroke: #000000; stroke-width: 1.5; stroke-linecap: square"/>
    </g>
    <g id="text_14">
     <!-- 1 -->
     <g transform="translate(136.208 36.652875)scale(0.2 -0.2)">
      <use xlink:href="#DejaVuSans-31"/>
     </g>
    </g>
    <g id="line2d_116">
     <path d="M 80.208 59.009125 
L 80.208 59.009125 
L 100.208 59.009125 
L 100.208 59.009125 
L 120.208 59.009125 
" style="fill: none; stroke: #00bfbf; stroke-width: 1.5; stroke-linecap: square"/>
    </g>
    <g id="text_15">
     <!-- -1 -->
     <g transform="translate(136.208 66.009125)scale(0.2 -0.2)">
      <use xlink:href="#DejaVuSans-2d"/>
      <use xlink:href="#DejaVuSans-31" x="36.083984"/>
     </g>
    </g>
    <g id="line2d_117">
     <path d="M 80.208 88.365375 
L 100.208 88.365375 
L 120.208 88.365375 
" style="fill: none; stroke: #bf00bf; stroke-width: 1.5; stroke-linecap: square"/>
    </g>
    <g id="text_16">
     <!-- -4 -->
     <g transform="translate(136.208 95.365375)scale(0.2 -0.2)">
      <use xlink:href="#DejaVuSans-2d"/>
      <use xlink:href="#DejaVuSans-34" x="36.083984"/>
     </g>
    </g>
    <g id="line2d_118">
     <path d="M 80.208 117.721625 
L 100.208 117.721625 
L 120.208 117.721625 
" style="fill: none; stroke: #ff0000; stroke-width: 3; stroke-linecap: square"/>
    </g>
    <g id="text_17">
     <!-- -8 -->
     <g transform="translate(136.208 124.721625)scale(0.2 -0.2)">
      <use xlink:href="#DejaVuSans-2d"/>
      <use xlink:href="#DejaVuSans-38" x="36.083984"/>
     </g>
    </g>
   </g>
  </g>
 </g>
 <defs>
  <clipPath id="pc81408b3aa">
   <rect x="62.208" y="3.456" width="398.592" height="290.304"/>
  </clipPath>
 </defs>
</svg>
