<?xml version="1.0" encoding="utf-8" standalone="no"?>
<!DOCTYPE svg PUBLIC "-//W3C//DTD SVG 1.1//EN"
  "http://www.w3.org/Graphics/SVG/1.1/DTD/svg11.dtd">
<svg xmlns:xlink="http://www.w3.org/1999/xlink" width="460.8pt" height="345.6pt" viewBox="0 0 460.8 345.6" xmlns="http://www.w3.org/2000/svg" version="1.1">
 <metadata>
  <rdf:RDF xmlns:dc="http://purl.org/dc/elements/1.1/" xmlns:cc="http://creativecommons.org/ns#" xmlns:rdf="http://www.w3.org/1999/02/22-rdf-syntax-ns#">
   <cc:Work>
    <dc:type rdf:resource="http://purl.org/dc/dcmitype/StillImage"/>
    <dc:date>2024-01-05T10:25:52.471020</dc:date>
    <dc:format>image/svg+xml</dc:format>
    <dc:creator>
     <cc:Agent>
      <dc:title>Matplotlib v3.5.1, https://matplotlib.org/</dc:title>
     </cc:Agent>
    </dc:creator>
   </cc:Work>
  </rdf:RDF>
 </metadata>
 <defs>
  <style type="text/css">*{stroke-linejoin: round; stroke-linecap: butt}</style>
 </defs>
 <g id="figure_1">
  <g id="patch_1">
   <path d="M 0 345.6 
L 460.8 345.6 
L 460.8 0 
L 0 0 
z
" style="fill: #ffffff"/>
  </g>
  <g id="axes_1">
   <g id="patch_2">
    <path d="M 62.208 293.76 
L 460.8 293.76 
L 460.8 3.456 
L 62.208 3.456 
z
" style="fill: #ffffff"/>
   </g>
   <g id="line2d_1">
    <path d="M 341.264451 293.76 
L 341.264451 289.927604 
L 345.411852 289.927604 
L 345.411852 286.095208 
L 346.889621 286.095208 
L 346.889621 282.262812 
L 347.433669 282.262812 
L 347.433669 278.430416 
L 347.912774 278.430416 
L 347.912774 274.59802 
L 348.858598 274.59802 
L 348.858598 270.765624 
L 348.917173 270.765624 
L 348.917173 266.933228 
L 349.267317 266.933228 
L 349.267317 263.100832 
L 351.601892 263.100832 
L 351.601892 259.268436 
L 353.032425 259.268436 
L 353.032425 255.43604 
L 353.626586 255.43604 
L 353.626586 251.603644 
L 354.001361 251.603644 
L 354.001361 247.771248 
L 372.408631 247.771248 
L 372.408631 243.938851 
L 379.749618 243.938851 
L 379.749618 240.106455 
L 380.148388 240.106455 
L 380.148388 236.274059 
L 386.133355 236.274059 
L 386.133355 232.441663 
L 386.576821 232.441663 
L 386.576821 228.609267 
L 393.974894 228.609267 
L 393.974894 224.776871 
L 407.413652 224.776871 
L 407.413652 220.944475 
L 408.054095 220.944475 
L 408.054095 217.112079 
L 412.357506 217.112079 
L 412.357506 213.279683 
L 425.71032 213.279683 
L 425.71032 209.447287 
L 436.722256 209.447287 
L 436.722256 205.614891 
L 461.8 205.614891 
" clip-path="url(#p6aedd815e3)" style="fill: none; stroke: #f5deb3; stroke-width: 1.5; stroke-linecap: square"/>
   </g>
   <g id="line2d_2"/>
   <g id="line2d_3">
    <path d="M 206.821201 293.76 
L 206.821201 289.927604 
L 208.364889 289.927604 
L 208.364889 286.095208 
L 222.389345 286.095208 
L 222.389345 282.262812 
L 313.227692 282.262812 
L 313.227692 278.430416 
L 336.189612 278.430416 
L 336.189612 274.59802 
L 385.536429 274.59802 
L 385.536429 270.765624 
L 398.963257 270.765624 
L 398.963257 266.933228 
L 405.779011 266.933228 
L 405.779011 263.100832 
L 420.19414 263.100832 
L 420.19414 259.268436 
L 422.733164 259.268436 
L 422.733164 255.43604 
L 429.632043 255.43604 
L 429.632043 251.603644 
L 438.084835 251.603644 
L 438.084835 247.771248 
L 444.768592 247.771248 
L 444.768592 243.938851 
L 447.818072 243.938851 
L 447.818072 240.106455 
L 453.935234 240.106455 
L 453.935234 236.274059 
L 461.8 236.274059 
" clip-path="url(#p6aedd815e3)" style="fill: none; stroke: #f5deb3; stroke-width: 1.5; stroke-linecap: square"/>
   </g>
   <g id="line2d_4">
    <path d="M 356.860095 293.76 
L 356.860095 289.927604 
L 364.54949 289.927604 
L 364.54949 286.095208 
L 366.025893 286.095208 
L 366.025893 282.262812 
L 366.154274 282.262812 
L 366.154274 278.430416 
L 366.324982 278.430416 
L 366.324982 274.59802 
L 368.53805 274.59802 
L 368.53805 270.765624 
L 369.47131 270.765624 
L 369.47131 266.933228 
L 371.408091 266.933228 
L 371.408091 263.100832 
L 371.7179 263.100832 
L 371.7179 259.268436 
L 373.690057 259.268436 
L 373.690057 255.43604 
L 375.014972 255.43604 
L 375.014972 251.603644 
L 375.80915 251.603644 
L 375.80915 247.771248 
L 376.662597 247.771248 
L 376.662597 243.938851 
L 376.909035 243.938851 
L 376.909035 240.106455 
L 377.398612 240.106455 
L 377.398612 236.274059 
L 377.745651 236.274059 
L 377.849336 228.609267 
L 377.883854 228.609267 
L 377.883854 224.776871 
L 378.262124 224.776871 
L 378.262124 220.944475 
L 378.399031 220.944475 
L 378.399031 217.112079 
L 378.671825 217.112079 
L 378.671825 213.279683 
L 379.982586 213.279683 
L 379.982586 209.447287 
L 381.035148 209.447287 
L 381.035148 205.614891 
L 381.457042 205.614891 
L 381.457042 201.782495 
L 381.650672 201.782495 
L 381.650672 197.950099 
L 382.545342 197.950099 
L 382.545342 194.117703 
L 382.671967 194.117703 
L 382.671967 190.285307 
L 384.811426 190.285307 
L 384.811426 186.452911 
L 385.356075 186.452911 
L 385.356075 182.620515 
L 385.77598 182.620515 
L 385.77598 178.788119 
L 386.311172 178.788119 
L 386.311172 174.955723 
L 387.133441 174.955723 
L 387.133441 171.123327 
L 387.249907 171.123327 
L 387.249907 167.290931 
L 387.568918 167.290931 
L 387.568918 163.458535 
L 388.543373 163.458535 
L 388.543373 159.626139 
L 389.389027 159.626139 
L 389.389027 155.793743 
L 389.834762 155.793743 
L 389.834762 151.961347 
L 389.973314 151.961347 
L 390.028637 144.296554 
L 390.469221 144.296554 
L 390.49664 136.631762 
L 391.285887 136.631762 
L 391.366888 128.96697 
L 391.823647 128.96697 
L 391.877134 121.302178 
L 392.646883 121.302178 
L 392.673234 113.637386 
L 392.988464 113.637386 
L 393.040827 105.972594 
L 393.949162 105.972594 
L 393.949162 102.140198 
L 394.308321 102.140198 
L 394.308321 98.307802 
L 397.196989 98.307802 
L 397.196989 94.475406 
L 400.583227 94.475406 
L 400.583227 90.64301 
L 402.532079 90.64301 
L 402.532079 86.810614 
L 404.371451 86.810614 
L 404.371451 82.978218 
L 409.70049 82.978218 
L 409.70049 79.145822 
L 420.512083 79.145822 
L 420.512083 75.313426 
L 420.969848 75.313426 
L 420.969848 71.48103 
L 422.717941 71.48103 
L 422.717941 67.648634 
L 423.338665 67.648634 
L 423.338665 63.816238 
L 423.683823 63.816238 
L 423.683823 59.983842 
L 427.7896 59.983842 
L 427.7896 56.151446 
L 432.226948 56.151446 
L 432.226948 52.31905 
L 443.324303 52.31905 
L 443.324303 48.486653 
L 449.375134 48.486653 
L 449.375134 44.654257 
L 456.943285 44.654257 
L 456.943285 40.821861 
L 457.195452 40.821861 
L 457.195452 36.989465 
L 461.8 36.989465 
L 461.8 36.989465 
" clip-path="url(#p6aedd815e3)" style="fill: none; stroke: #f5deb3; stroke-width: 1.5; stroke-linecap: square"/>
   </g>
   <g id="line2d_5"/>
   <g id="line2d_6"/>
   <g id="line2d_7">
    <path d="M 394.61431 293.76 
L 394.61431 289.927604 
L 395.497139 289.927604 
L 395.497139 286.095208 
L 396.26737 286.095208 
L 396.26737 282.262812 
L 397.075568 282.262812 
L 397.075568 278.430416 
L 397.245482 278.430416 
L 397.245482 274.59802 
L 399.871713 274.59802 
L 399.871713 270.765624 
L 400.079235 270.765624 
L 400.079235 266.933228 
L 400.901553 266.933228 
L 400.901553 263.100832 
L 401.398072 263.100832 
L 401.442988 255.43604 
L 401.734047 255.43604 
L 401.823293 243.938851 
L 401.934647 243.938851 
L 401.934647 240.106455 
L 402.067974 240.106455 
L 402.067974 236.274059 
L 402.532079 236.274059 
L 402.620037 228.609267 
L 402.707853 228.609267 
L 402.773623 220.944475 
L 402.992287 220.944475 
L 403.057717 205.614891 
L 403.772333 205.614891 
L 403.772333 201.782495 
L 403.987056 201.782495 
L 403.987056 197.950099 
L 404.392727 197.950099 
L 404.392727 194.117703 
L 405.341713 194.117703 
L 405.341713 190.285307 
L 405.675208 190.285307 
L 405.675208 186.452911 
L 406.027337 186.452911 
L 406.068616 178.788119 
L 406.23342 178.788119 
L 406.23342 174.955723 
L 406.418234 174.955723 
L 406.418234 171.123327 
L 406.887724 171.123327 
L 406.989257 163.458535 
L 407.674736 163.458535 
L 407.694768 155.793743 
L 408.014286 155.793743 
L 408.014286 151.961347 
L 409.254587 151.961347 
L 409.254587 148.12895 
L 410.085304 148.12895 
L 410.085304 144.296554 
L 410.752294 144.296554 
L 410.752294 140.464158 
L 410.884723 140.464158 
L 410.922501 132.799366 
L 411.186222 132.799366 
L 411.186222 128.96697 
L 411.448679 128.96697 
L 411.448679 125.134574 
L 412.742436 125.134574 
L 412.833689 117.469782 
L 413.988499 117.469782 
L 413.988499 113.637386 
L 418.230218 113.637386 
L 418.230218 109.80499 
L 418.59257 109.80499 
L 418.59257 105.972594 
L 424.041684 105.972594 
L 424.041684 102.140198 
L 424.249362 102.140198 
L 424.249362 98.307802 
L 426.667814 98.307802 
L 426.667814 94.475406 
L 428.273251 94.475406 
L 428.273251 90.64301 
L 428.47923 90.64301 
L 428.47923 86.810614 
L 430.086462 86.810614 
L 430.192839 79.145822 
L 431.075729 79.145822 
L 431.075729 75.313426 
L 431.297501 75.313426 
L 431.349553 67.648634 
L 432.393097 67.648634 
L 432.393097 63.816238 
L 434.01507 63.816238 
L 434.01507 59.983842 
L 434.53296 59.983842 
L 434.53296 56.151446 
L 436.35548 56.151446 
L 436.35548 52.31905 
L 439.61606 52.31905 
L 439.61606 48.486653 
L 440.404524 48.486653 
L 440.404524 44.654257 
L 443.345206 44.654257 
L 443.345206 40.821861 
L 446.44307 40.821861 
L 446.44307 36.989465 
L 454.679506 36.989465 
L 454.679506 33.157069 
L 461.8 33.157069 
L 461.8 33.157069 
" clip-path="url(#p6aedd815e3)" style="fill: none; stroke: #f5deb3; stroke-width: 1.5; stroke-linecap: square"/>
   </g>
   <g id="line2d_8">
    <path clip-path="url(#p6aedd815e3)" style="fill: none; stroke: #f5deb3; stroke-width: 1.5; stroke-linecap: square"/>
   </g>
   <g id="line2d_9">
    <path d="M 387.568918 293.76 
L 387.568918 289.927604 
L 388.939636 289.927604 
L 388.939636 286.095208 
L 390.000983 286.095208 
L 390.000983 282.262812 
L 391.743319 282.262812 
L 391.743319 278.430416 
L 392.196963 278.430416 
L 392.196963 274.59802 
L 392.356181 274.59802 
L 392.356181 270.765624 
L 393.223702 270.765624 
L 393.223702 266.933228 
L 394.154684 266.933228 
L 394.154684 263.100832 
L 394.766665 263.100832 
L 394.766665 259.268436 
L 395.070112 259.268436 
L 395.170889 251.603644 
L 395.221208 251.603644 
L 395.24635 243.938851 
L 396.044867 243.938851 
L 396.044867 240.106455 
L 396.36597 240.106455 
L 396.36597 236.274059 
L 396.611699 236.274059 
L 396.636211 228.609267 
L 396.831916 228.609267 
L 396.831916 224.776871 
L 397.002586 224.776871 
L 397.002586 220.944475 
L 397.34234 220.944475 
L 397.34234 217.112079 
L 397.463172 217.112079 
L 397.463172 213.279683 
L 398.182622 213.279683 
L 398.182622 209.447287 
L 398.775031 209.447287 
L 398.775031 205.614891 
L 399.057128 205.614891 
L 399.057128 201.782495 
L 399.291105 201.782495 
L 399.291105 197.950099 
L 399.663402 197.950099 
L 399.709762 190.285307 
L 399.779228 190.285307 
L 399.779228 186.452911 
L 400.102245 186.452911 
L 400.194187 174.955723 
L 400.217148 174.955723 
L 400.285974 163.458535 
L 400.651596 163.458535 
L 400.651596 159.626139 
L 400.992164 159.626139 
L 401.014794 151.961347 
L 401.845582 151.961347 
L 401.912394 144.296554 
L 402.554082 144.296554 
L 402.554082 140.464158 
L 403.035916 140.464158 
L 403.144835 132.799366 
L 403.750815 132.799366 
L 403.750815 128.96697 
L 403.8798 128.96697 
L 403.8798 125.134574 
L 404.243619 125.134574 
L 404.243619 121.302178 
L 405.612832 121.302178 
L 405.716753 113.637386 
L 405.737513 113.637386 
L 405.737513 109.80499 
L 407.110848 109.80499 
L 407.110848 105.972594 
L 408.054095 105.972594 
L 408.054095 102.140198 
L 415.171919 102.140198 
L 415.171919 98.307802 
L 416.073096 98.307802 
L 416.073096 94.475406 
L 417.061076 94.475406 
L 417.061076 90.64301 
L 418.707363 90.64301 
L 418.707363 86.810614 
L 419.034024 86.810614 
L 419.034024 82.978218 
L 420.969848 82.978218 
L 420.969848 79.145822 
L 423.036751 79.145822 
L 423.036751 75.313426 
L 423.323609 75.313426 
L 423.323609 71.48103 
L 423.818295 71.48103 
L 423.818295 67.648634 
L 426.383743 67.648634 
L 426.383743 63.816238 
L 427.734052 63.816238 
L 427.734052 59.983842 
L 428.629791 59.983842 
L 428.629791 56.151446 
L 431.867367 56.151446 
L 431.867367 52.31905 
L 442.183532 52.31905 
L 442.183532 48.486653 
L 442.417845 48.486653 
L 442.417845 44.654257 
L 443.740856 44.654257 
L 443.740856 40.821861 
L 450.971061 40.821861 
L 450.971061 36.989465 
L 458.565956 36.989465 
L 458.565956 33.157069 
L 460.356877 33.157069 
L 460.356877 29.324673 
L 461.5541 29.324673 
L 461.5541 25.492277 
L 461.8 25.492277 
L 461.8 25.492277 
" clip-path="url(#p6aedd815e3)" style="fill: none; stroke: #f5deb3; stroke-width: 1.5; stroke-linecap: square"/>
   </g>
   <g id="line2d_10">
    <path clip-path="url(#p6aedd815e3)" style="fill: none; stroke: #f5deb3; stroke-width: 1.5; stroke-linecap: square"/>
   </g>
   <g id="line2d_11">
    <path clip-path="url(#p6aedd815e3)" style="fill: none; stroke: #f5deb3; stroke-width: 1.5; stroke-linecap: square"/>
   </g>
   <g id="line2d_12">
    <path d="M 342.660213 293.76 
L 342.660213 289.927604 
L 408.549285 289.927604 
L 408.549285 286.095208 
L 411.877149 286.095208 
L 411.877149 282.262812 
L 461.8 282.262812 
" clip-path="url(#p6aedd815e3)" style="fill: none; stroke: #f5deb3; stroke-width: 1.5; stroke-linecap: square"/>
   </g>
   <g id="line2d_13"/>
   <g id="line2d_14">
    <path d="M 379.247041 293.76 
L 379.247041 289.927604 
L 386.635679 289.927604 
L 386.635679 286.095208 
L 402.023568 286.095208 
L 402.023568 282.262812 
L 403.8798 282.262812 
L 403.8798 278.430416 
L 410.372151 278.430416 
L 410.372151 274.59802 
L 410.828007 274.59802 
L 410.828007 270.765624 
L 414.433068 270.765624 
L 414.433068 266.933228 
L 418.805566 266.933228 
L 418.805566 263.100832 
L 419.970477 263.100832 
L 419.970477 259.268436 
L 426.184013 259.268436 
L 426.184013 255.43604 
L 427.553134 255.43604 
L 427.553134 251.603644 
L 429.484215 251.603644 
L 429.484215 247.771248 
L 430.813666 247.771248 
L 430.813666 243.938851 
L 436.745835 243.938851 
L 436.745835 240.106455 
L 441.463706 240.106455 
L 441.463706 236.274059 
L 442.108767 236.274059 
L 442.108767 232.441663 
L 443.823788 232.441663 
L 443.823788 228.609267 
L 444.554361 228.609267 
L 444.554361 224.776871 
L 455.723136 224.776871 
L 455.723136 220.944475 
L 457.114234 220.944475 
L 457.114234 217.112079 
L 461.8 217.112079 
" clip-path="url(#p6aedd815e3)" style="fill: none; stroke: #f5deb3; stroke-width: 1.5; stroke-linecap: square"/>
   </g>
   <g id="line2d_15"/>
   <g id="line2d_16"/>
   <g id="line2d_17">
    <path d="M 0 0 
" clip-path="url(#p6aedd815e3)" style="fill: none; stroke: #f5deb3; stroke-width: 1.5; stroke-linecap: square"/>
   </g>
   <g id="line2d_18">
    <path d="M 288.186746 293.76 
L 288.186746 289.927604 
L 326.434699 289.927604 
L 326.434699 286.095208 
L 328.171684 286.095208 
L 328.171684 282.262812 
L 337.358665 282.262812 
L 337.358665 278.430416 
L 338.432455 278.430416 
L 338.432455 274.59802 
L 355.267187 274.59802 
L 355.267187 270.765624 
L 359.913384 270.765624 
L 359.913384 266.933228 
L 378.433205 266.933228 
L 378.433205 263.100832 
L 382.95581 263.100832 
L 382.95581 259.268436 
L 401.060025 259.268436 
L 401.060025 255.43604 
L 401.756372 255.43604 
L 401.756372 251.603644 
L 409.873991 251.603644 
L 409.873991 247.771248 
L 414.891625 247.771248 
L 414.891625 243.938851 
L 417.044192 243.938851 
L 417.044192 240.106455 
L 417.26328 240.106455 
L 417.26328 236.274059 
L 417.397669 236.274059 
L 417.397669 232.441663 
L 423.428916 232.441663 
L 423.428916 228.609267 
L 424.426747 228.609267 
L 424.426747 224.776871 
L 425.174295 224.776871 
L 425.174295 220.944475 
L 425.319684 220.944475 
L 425.319684 217.112079 
L 426.055229 217.112079 
L 426.055229 213.279683 
L 426.879906 213.279683 
L 426.879906 209.447287 
L 432.749255 209.447287 
L 432.749255 205.614891 
L 438.463104 205.614891 
L 438.463104 201.782495 
L 438.691094 201.782495 
L 438.691094 197.950099 
L 443.292933 197.950099 
L 443.292933 194.117703 
L 445.184455 194.117703 
L 445.184455 190.285307 
L 446.738527 190.285307 
L 446.738527 186.452911 
L 461.8 186.452911 
" clip-path="url(#p6aedd815e3)" style="fill: none; stroke: #f5deb3; stroke-width: 1.5; stroke-linecap: square"/>
   </g>
   <g id="line2d_19">
    <path clip-path="url(#p6aedd815e3)" style="fill: none; stroke: #f5deb3; stroke-width: 1.5; stroke-linecap: square"/>
   </g>
   <g id="line2d_20">
    <path d="M 308.296129 293.76 
L 308.296129 289.927604 
L 314.339237 289.927604 
L 314.339237 286.095208 
L 319.079709 286.095208 
L 319.079709 282.262812 
L 320.178689 282.262812 
L 320.178689 278.430416 
L 322.40771 278.430416 
L 322.40771 270.765624 
L 322.786277 270.765624 
L 322.786277 266.933228 
L 323.721407 266.933228 
L 323.721407 263.100832 
L 324.183055 263.100832 
L 324.183055 259.268436 
L 326.080595 259.268436 
L 326.169336 251.603644 
L 327.569982 251.603644 
L 327.569982 247.771248 
L 328.682221 247.771248 
L 328.682221 243.938851 
L 332.20817 243.938851 
L 332.20817 240.106455 
L 333.386652 240.106455 
L 333.386652 232.441663 
L 336.115711 232.441663 
L 336.115711 228.609267 
L 338.64471 228.609267 
L 338.64471 224.776871 
L 342.594548 224.776871 
L 342.594548 217.112079 
L 343.052558 217.112079 
L 343.052558 213.279683 
L 343.82892 213.279683 
L 343.82892 209.447287 
L 344.404057 209.447287 
L 344.404057 205.614891 
L 345.349404 205.614891 
L 345.349404 201.782495 
L 348.150765 201.782495 
L 348.150765 197.950099 
L 349.034137 197.950099 
L 349.034137 194.117703 
L 350.075722 194.117703 
L 350.075722 190.285307 
L 351.154108 190.285307 
L 351.154108 186.452911 
L 354.637929 186.452911 
L 354.637929 182.620515 
L 354.795923 182.620515 
L 354.848486 174.955723 
L 355.371365 174.955723 
L 355.371365 171.123327 
L 356.555383 171.123327 
L 356.606286 163.458535 
L 358.946917 163.458535 
L 358.946917 159.626139 
L 362.805487 159.626139 
L 362.805487 155.793743 
L 363.39301 155.793743 
L 363.39301 151.961347 
L 365.811254 151.961347 
L 365.811254 148.12895 
L 365.940138 148.12895 
L 365.940138 144.296554 
L 372.217633 144.296554 
L 372.217633 140.464158 
L 373.05309 140.464158 
L 373.05309 136.631762 
L 373.241203 136.631762 
L 373.241203 132.799366 
L 374.172202 132.799366 
L 374.172202 128.96697 
L 374.650142 128.96697 
L 374.759846 121.302178 
L 382.987258 121.302178 
L 382.987258 117.469782 
L 389.751462 117.469782 
L 389.751462 113.637386 
L 390.60618 113.637386 
L 390.60618 109.80499 
L 393.587632 109.80499 
L 393.587632 105.972594 
L 399.033675 105.972594 
L 399.033675 102.140198 
L 399.779228 102.140198 
L 399.779228 98.307802 
L 402.598061 98.307802 
L 402.598061 94.475406 
L 408.23288 94.475406 
L 408.23288 90.64301 
L 411.280101 90.64301 
L 411.280101 86.810614 
L 414.237901 86.810614 
L 414.237901 82.978218 
L 414.733328 82.978218 
L 414.733328 79.145822 
L 419.665467 79.145822 
L 419.665467 75.313426 
L 419.906405 75.313426 
L 419.906405 71.48103 
L 421.920429 71.48103 
L 421.920429 67.648634 
L 423.848132 67.648634 
L 423.848132 63.816238 
L 425.954855 63.816238 
L 425.954855 59.983842 
L 428.328254 59.983842 
L 428.328254 56.151446 
L 441.948212 56.151446 
L 441.948212 52.31905 
L 446.699225 52.31905 
L 446.699225 48.486653 
L 447.324705 48.486653 
L 447.324705 44.654257 
L 454.933826 44.654257 
L 454.933826 40.821861 
L 461.748629 40.821861 
L 461.748629 36.989465 
L 461.8 36.989465 
" clip-path="url(#p6aedd815e3)" style="fill: none; stroke: #f5deb3; stroke-width: 1.5; stroke-linecap: square"/>
   </g>
   <g id="line2d_21"/>
   <g id="line2d_22">
    <path d="M 306.421467 293.76 
L 306.421467 289.927604 
L 309.149497 289.927604 
L 309.149497 286.095208 
L 314.886667 286.095208 
L 314.886667 282.262812 
L 315.536445 282.262812 
L 315.536445 278.430416 
L 316.391001 278.430416 
L 316.391001 274.59802 
L 316.602574 274.59802 
L 316.602574 270.765624 
L 317.127959 270.765624 
L 317.127959 266.933228 
L 317.751844 266.933228 
L 317.855138 259.268436 
L 319.079709 259.268436 
L 319.079709 255.43604 
L 320.277512 255.43604 
L 320.277512 251.603644 
L 322.40771 251.603644 
L 322.40771 247.771248 
L 323.906533 247.771248 
L 323.906533 243.938851 
L 325.634724 243.938851 
L 325.634724 240.106455 
L 326.434699 240.106455 
L 326.434699 236.274059 
L 326.610896 236.274059 
L 326.610896 232.441663 
L 326.9616 232.441663 
L 326.9616 228.609267 
L 329.938135 228.609267 
L 329.938135 224.776871 
L 331.327551 224.776871 
L 331.327551 220.944475 
L 332.366773 220.944475 
L 332.366773 217.112079 
L 333.619337 217.112079 
L 333.619337 213.279683 
L 342.331099 213.279683 
L 342.331099 209.447287 
L 343.052558 209.447287 
L 343.052558 205.614891 
L 343.764641 205.614891 
L 343.764641 201.782495 
L 346.523898 201.782495 
L 346.523898 197.950099 
L 348.79996 197.950099 
L 348.79996 194.117703 
L 351.657609 194.117703 
L 351.657609 190.285307 
L 352.97809 190.285307 
L 352.97809 186.452911 
L 355.267187 186.452911 
L 355.267187 182.620515 
L 359.961263 182.620515 
L 359.961263 178.788119 
L 361.935307 178.788119 
L 361.935307 174.955723 
L 362.577829 174.955723 
L 362.577829 171.123327 
L 363.617314 171.123327 
L 363.617314 167.290931 
L 363.974301 167.290931 
L 363.974301 163.458535 
L 365.89721 163.458535 
L 365.89721 159.626139 
L 367.086655 159.626139 
L 367.086655 155.793743 
L 371.096521 155.793743 
L 371.096521 151.961347 
L 376.130752 151.961347 
L 376.130752 148.12895 
L 377.049361 148.12895 
L 377.049361 144.296554 
L 377.849336 144.296554 
L 377.849336 140.464158 
L 380.544276 140.464158 
L 380.544276 136.631762 
L 383.23819 136.631762 
L 383.23819 132.799366 
L 386.163031 132.799366 
L 386.163031 128.96697 
L 387.482099 128.96697 
L 387.482099 125.134574 
L 388.911426 125.134574 
L 388.911426 121.302178 
L 390.49664 121.302178 
L 390.60618 113.637386 
L 390.688191 113.637386 
L 390.688191 109.80499 
L 391.930568 109.80499 
L 391.930568 105.972594 
L 392.804801 105.972594 
L 392.804801 102.140198 
L 393.846111 102.140198 
L 393.846111 98.307802 
L 398.467777 98.307802 
L 398.491473 90.64301 
L 401.823293 90.64301 
L 401.823293 86.810614 
L 403.448663 86.810614 
L 403.448663 82.978218 
L 404.072711 82.978218 
L 404.072711 79.145822 
L 407.333068 79.145822 
L 407.333068 75.313426 
L 408.133627 75.313426 
L 408.133627 71.48103 
L 408.726463 71.48103 
L 408.726463 67.648634 
L 409.157169 67.648634 
L 409.157169 63.816238 
L 409.487685 63.816238 
L 409.487685 59.983842 
L 410.027754 59.983842 
L 410.104474 52.31905 
L 413.737955 52.31905 
L 413.737955 48.486653 
L 422.33597 48.486653 
L 422.33597 44.654257 
L 423.848132 44.654257 
L 423.848132 40.821861 
L 430.033196 40.821861 
L 430.033196 36.989465 
L 430.56354 36.989465 
L 430.56354 33.157069 
L 434.225282 33.157069 
L 434.225282 29.324673 
L 435.167449 29.324673 
L 435.167449 25.492277 
L 436.792962 25.492277 
L 436.792962 21.659881 
L 446.55159 21.659881 
L 446.55159 17.827485 
L 447.392685 17.827485 
L 447.392685 13.995089 
L 461.8 13.995089 
L 461.8 13.995089 
" clip-path="url(#p6aedd815e3)" style="fill: none; stroke: #f5deb3; stroke-width: 1.5; stroke-linecap: square"/>
   </g>
   <g id="line2d_23">
    <path clip-path="url(#p6aedd815e3)" style="fill: none; stroke: #f5deb3; stroke-width: 1.5; stroke-linecap: square"/>
   </g>
   <g id="line2d_24">
    <path d="M 369.712178 293.76 
L 369.712178 289.927604 
L 372.255886 289.927604 
L 372.255886 286.095208 
L 378.705829 286.095208 
L 378.705829 282.262812 
L 379.482151 282.262812 
L 379.482151 278.430416 
L 379.616048 278.430416 
L 379.616048 274.59802 
L 379.78296 274.59802 
L 379.78296 270.765624 
L 380.445572 270.765624 
L 380.445572 266.933228 
L 380.969952 266.933228 
L 380.969952 263.100832 
L 384.689654 263.100832 
L 384.720123 255.43604 
L 385.175126 255.43604 
L 385.175126 251.603644 
L 385.626383 251.603644 
L 385.626383 247.771248 
L 386.251964 247.771248 
L 386.251964 243.938851 
L 387.220813 243.938851 
L 387.220813 240.106455 
L 387.770963 240.106455 
L 387.770963 236.274059 
L 389.024178 236.274059 
L 389.024178 232.441663 
L 389.528709 232.441663 
L 389.528709 228.609267 
L 391.096417 228.609267 
L 391.096417 224.776871 
L 392.117181 224.776871 
L 392.196963 217.112079 
L 393.871892 217.112079 
L 393.871892 213.279683 
L 395.472112 213.279683 
L 395.472112 209.447287 
L 396.415204 209.447287 
L 396.415204 205.614891 
L 398.277839 205.614891 
L 398.277839 201.782495 
L 398.515159 201.782495 
L 398.515159 197.950099 
L 398.633435 197.950099 
L 398.633435 194.117703 
L 398.98674 194.117703 
L 398.98674 190.285307 
L 399.686587 190.285307 
L 399.686587 186.452911 
L 399.82549 186.452911 
L 399.82549 182.620515 
L 400.194187 182.620515 
L 400.285974 174.955723 
L 400.992164 174.955723 
L 400.992164 171.123327 
L 401.867862 171.123327 
L 401.867862 167.290931 
L 402.178832 167.290931 
L 402.178832 163.458535 
L 403.491929 163.458535 
L 403.491929 159.626139 
L 404.562641 159.626139 
L 404.562641 155.793743 
L 404.964088 155.793743 
L 405.04823 148.12895 
L 406.704489 148.12895 
L 406.704489 144.296554 
L 408.252709 144.296554 
L 408.252709 140.464158 
L 408.94224 140.464158 
L 408.94224 136.631762 
L 410.161944 136.631762 
L 410.161944 132.799366 
L 410.828007 132.799366 
L 410.828007 128.96697 
L 410.997979 128.96697 
L 410.997979 125.134574 
L 413.86337 125.134574 
L 413.86337 121.302178 
L 414.821327 121.302178 
L 414.821327 117.469782 
L 417.077955 117.469782 
L 417.077955 113.637386 
L 417.815525 113.637386 
L 417.815525 109.80499 
L 418.576151 109.80499 
L 418.576151 105.972594 
L 419.455794 105.972594 
L 419.455794 102.140198 
L 419.906405 102.140198 
L 419.906405 98.307802 
L 420.369237 98.307802 
L 420.369237 94.475406 
L 422.33597 94.475406 
L 422.33597 90.64301 
L 423.952437 90.64301 
L 423.997079 82.978218 
L 424.130785 82.978218 
L 424.130785 79.145822 
L 424.853073 79.145822 
L 424.853073 75.313426 
L 425.580417 75.313426 
L 425.580417 71.48103 
L 426.738603 71.48103 
L 426.738603 67.648634 
L 427.105236 67.648634 
L 427.105236 63.816238 
L 428.218192 63.816238 
L 428.218192 59.983842 
L 428.355735 59.983842 
L 428.355735 56.151446 
L 433.953089 56.151446 
L 433.953089 52.31905 
L 435.758684 52.31905 
L 435.758684 48.486653 
L 437.250342 48.486653 
L 437.250342 44.654257 
L 437.796518 44.654257 
L 437.796518 40.821861 
L 448.838962 40.821861 
L 448.838962 36.989465 
L 453.788613 36.989465 
L 453.788613 33.157069 
L 460.708143 33.157069 
L 460.708143 29.324673 
L 461.8 29.324673 
L 461.8 29.324673 
" clip-path="url(#p6aedd815e3)" style="fill: none; stroke: #f5deb3; stroke-width: 1.5; stroke-linecap: square"/>
   </g>
   <g id="line2d_25"/>
   <g id="line2d_26">
    <path d="M 436.828281 293.76 
L 436.828281 289.927604 
L 438.782025 289.927604 
L 438.782025 286.095208 
L 439.99505 286.095208 
L 440.094934 278.430416 
L 440.150346 278.430416 
L 440.150346 274.59802 
L 440.32729 274.59802 
L 440.32729 270.765624 
L 440.481649 270.765624 
L 440.481649 266.933228 
L 446.086406 266.933228 
L 446.12615 259.268436 
L 446.393672 259.268436 
L 446.393672 255.43604 
L 446.944403 255.43604 
L 446.944403 251.603644 
L 447.081226 251.603644 
L 447.081226 247.771248 
L 447.382979 247.771248 
L 447.489655 240.106455 
L 447.615459 240.106455 
L 447.615459 236.274059 
L 447.808441 236.274059 
L 447.885444 228.609267 
L 448.173246 228.609267 
L 448.173246 224.776871 
L 448.297492 224.776871 
L 448.297492 220.944475 
L 448.696988 220.944475 
L 448.696988 217.112079 
L 448.895649 217.112079 
L 448.895649 213.279683 
L 449.084183 213.279683 
L 449.084183 209.447287 
L 449.506027 209.447287 
L 449.562028 197.950099 
L 449.906111 197.950099 
L 449.906111 194.117703 
L 450.294091 194.117703 
L 450.358488 182.620515 
L 450.413625 182.620515 
L 450.413625 178.788119 
L 454.976098 178.788119 
L 455.035224 167.290931 
L 455.413805 167.290931 
L 455.49758 159.626139 
L 456.030729 159.626139 
L 456.030729 155.793743 
L 456.311869 155.793743 
L 456.394283 148.12895 
L 457.122362 148.12895 
L 457.122362 144.296554 
L 457.599742 144.296554 
L 457.599742 140.464158 
L 458.320032 140.464158 
L 458.320032 136.631762 
L 461.8 136.631762 
L 461.8 136.631762 
" clip-path="url(#p6aedd815e3)" style="fill: none; stroke: #f5deb3; stroke-width: 1.5; stroke-linecap: square"/>
   </g>
   <g id="line2d_27">
    <path d="M 420.130329 293.76 
L 420.130329 289.927604 
L 421.719224 289.927604 
L 421.719224 286.095208 
L 436.450367 286.095208 
L 436.450367 282.262812 
L 437.367007 282.262812 
L 437.367007 278.430416 
L 437.750247 278.430416 
L 437.750247 274.59802 
L 448.297492 274.59802 
L 448.297492 270.765624 
L 457.648057 270.765624 
L 457.648057 266.933228 
L 461.8 266.933228 
" clip-path="url(#p6aedd815e3)" style="fill: none; stroke: #f5deb3; stroke-width: 1.5; stroke-linecap: square"/>
   </g>
   <g id="line2d_28">
    <path d="M 360.957174 293.76 
L 360.957174 289.927604 
L 361.518243 289.927604 
L 361.518243 286.095208 
L 362.94163 286.095208 
L 362.94163 282.262812 
L 365.292663 282.262812 
L 365.292663 278.430416 
L 365.682065 278.430416 
L 365.682065 274.59802 
L 366.239694 274.59802 
L 366.239694 270.765624 
L 368.127273 270.765624 
L 368.127273 266.933228 
L 370.309755 266.933228 
L 370.309755 263.100832 
L 370.507508 263.100832 
L 370.507508 259.268436 
L 372.217633 259.268436 
L 372.217633 255.43604 
L 372.902133 255.43604 
L 372.902133 251.603644 
L 373.203632 251.603644 
L 373.203632 247.771248 
L 374.576883 247.771248 
L 374.576883 243.938851 
L 375.80915 243.938851 
L 375.80915 240.106455 
L 376.023761 240.106455 
L 376.023761 236.274059 
L 376.450478 236.274059 
L 376.450478 232.441663 
L 376.662597 232.441663 
L 376.662597 228.609267 
L 377.189329 228.609267 
L 377.189329 224.776871 
L 377.607099 224.776871 
L 377.607099 220.944475 
L 377.987278 220.944475 
L 377.987278 217.112079 
L 378.227843 217.112079 
L 378.227843 213.279683 
L 379.112238 213.279683 
L 379.112238 209.447287 
L 379.381513 209.447287 
L 379.381513 205.614891 
L 379.582604 205.614891 
L 379.582604 201.782495 
L 380.937324 201.782495 
L 380.937324 197.950099 
L 381.682877 197.950099 
L 381.682877 194.117703 
L 381.93984 194.117703 
L 381.93984 190.285307 
L 383.300744 190.285307 
L 383.300744 186.452911 
L 384.261309 186.452911 
L 384.261309 182.620515 
L 385.446326 182.620515 
L 385.446326 178.788119 
L 386.014489 178.788119 
L 386.014489 174.955723 
L 387.191705 174.955723 
L 387.191705 171.123327 
L 388.77016 171.123327 
L 388.77016 167.290931 
L 389.472879 167.290931 
L 389.472879 163.458535 
L 389.80701 163.458535 
L 389.80701 159.626139 
L 390.056278 159.626139 
L 390.056278 155.793743 
L 391.743319 155.793743 
L 391.743319 151.961347 
L 391.957266 151.961347 
L 391.957266 148.12895 
L 392.594143 148.12895 
L 392.594143 144.296554 
L 392.804801 144.296554 
L 392.804801 140.464158 
L 393.327929 140.464158 
L 393.327929 136.631762 
L 393.587632 136.631762 
L 393.587632 132.799366 
L 393.794512 132.799366 
L 393.794512 128.96697 
L 394.436024 128.96697 
L 394.436024 125.134574 
L 395.396961 125.134574 
L 395.396961 121.302178 
L 395.9953 121.302178 
L 395.9953 117.469782 
L 396.488972 117.469782 
L 396.488972 113.637386 
L 396.636211 113.637386 
L 396.734151 102.140198 
L 397.70404 102.140198 
L 397.70404 98.307802 
L 399.033675 98.307802 
L 399.033675 94.475406 
L 400.423368 94.475406 
L 400.423368 90.64301 
L 400.833496 90.64301 
L 400.833496 86.810614 
L 401.800995 86.810614 
L 401.800995 82.978218 
L 402.112344 82.978218 
L 402.112344 79.145822 
L 403.815345 79.145822 
L 403.815345 75.313426 
L 404.710885 75.313426 
L 404.710885 71.48103 
L 405.237078 71.48103 
L 405.237078 67.648634 
L 405.654424 67.648634 
L 405.654424 63.816238 
L 407.211969 63.816238 
L 407.211969 59.983842 
L 407.674736 59.983842 
L 407.674736 56.151446 
L 408.1932 56.151446 
L 408.1932 52.31905 
L 408.844265 52.31905 
L 408.844265 48.486653 
L 409.27405 48.486653 
L 409.27405 44.654257 
L 410.486471 44.654257 
L 410.486471 40.821861 
L 412.833689 40.821861 
L 412.833689 36.989465 
L 413.287687 36.989465 
L 413.287687 33.157069 
L 413.881263 33.157069 
L 413.881263 29.324673 
L 433.040092 29.324673 
L 433.040092 25.492277 
L 434.002679 25.492277 
L 434.002679 21.659881 
L 437.669177 21.659881 
L 437.669177 17.827485 
L 440.90937 17.827485 
L 440.90937 13.995089 
L 444.092453 13.995089 
L 444.092453 10.162693 
L 461.8 10.162693 
L 461.8 10.162693 
" clip-path="url(#p6aedd815e3)" style="fill: none; stroke: #f5deb3; stroke-width: 1.5; stroke-linecap: square"/>
   </g>
   <g id="line2d_29">
    <path d="M 451.098201 293.76 
L 451.098201 289.927604 
L 451.098201 289.927604 
L 451.098201 286.095208 
L 451.098201 286.095208 
L 451.098201 282.262812 
L 461.8 282.262812 
" clip-path="url(#p6aedd815e3)" style="fill: none; stroke: #f5deb3; stroke-width: 1.5; stroke-linecap: square"/>
   </g>
   <g id="line2d_30"/>
   <g id="matplotlib.axis_1">
    <g id="xtick_1">
     <g id="line2d_31">
      <path d="M 62.208 293.76 
L 62.208 3.456 
" clip-path="url(#p6aedd815e3)" style="fill: none; stroke: #b0b0b0; stroke-width: 0.8; stroke-linecap: square"/>
     </g>
     <g id="line2d_32">
      <defs>
       <path id="m392c49de9f" d="M 0 0 
L 0 3.5 
" style="stroke: #000000; stroke-width: 0.8"/>
      </defs>
      <g>
       <use xlink:href="#m392c49de9f" x="62.208" y="293.76" style="stroke: #000000; stroke-width: 0.8"/>
      </g>
     </g>
     <g id="text_1">
      <!-- 0 -->
      <g transform="translate(55.8455 315.956875)scale(0.2 -0.2)">
       <defs>
        <path id="DejaVuSans-30" d="M 2034 4250 
Q 1547 4250 1301 3770 
Q 1056 3291 1056 2328 
Q 1056 1369 1301 889 
Q 1547 409 2034 409 
Q 2525 409 2770 889 
Q 3016 1369 3016 2328 
Q 3016 3291 2770 3770 
Q 2525 4250 2034 4250 
z
M 2034 4750 
Q 2819 4750 3233 4129 
Q 3647 3509 3647 2328 
Q 3647 1150 3233 529 
Q 2819 -91 2034 -91 
Q 1250 -91 836 529 
Q 422 1150 422 2328 
Q 422 3509 836 4129 
Q 1250 4750 2034 4750 
z
" transform="scale(0.015625)"/>
       </defs>
       <use xlink:href="#DejaVuSans-30"/>
      </g>
     </g>
    </g>
    <g id="xtick_2">
     <g id="line2d_33">
      <path d="M 314.558865 293.76 
L 314.558865 3.456 
" clip-path="url(#p6aedd815e3)" style="fill: none; stroke: #b0b0b0; stroke-width: 0.8; stroke-linecap: square"/>
     </g>
     <g id="line2d_34">
      <g>
       <use xlink:href="#m392c49de9f" x="314.558865" y="293.76" style="stroke: #000000; stroke-width: 0.8"/>
      </g>
     </g>
     <g id="text_2">
      <!-- 2 -->
      <g transform="translate(308.196365 315.956875)scale(0.2 -0.2)">
       <defs>
        <path id="DejaVuSans-32" d="M 1228 531 
L 3431 531 
L 3431 0 
L 469 0 
L 469 531 
Q 828 903 1448 1529 
Q 2069 2156 2228 2338 
Q 2531 2678 2651 2914 
Q 2772 3150 2772 3378 
Q 2772 3750 2511 3984 
Q 2250 4219 1831 4219 
Q 1534 4219 1204 4116 
Q 875 4013 500 3803 
L 500 4441 
Q 881 4594 1212 4672 
Q 1544 4750 1819 4750 
Q 2544 4750 2975 4387 
Q 3406 4025 3406 3419 
Q 3406 3131 3298 2873 
Q 3191 2616 2906 2266 
Q 2828 2175 2409 1742 
Q 1991 1309 1228 531 
z
" transform="scale(0.015625)"/>
       </defs>
       <use xlink:href="#DejaVuSans-32"/>
      </g>
     </g>
    </g>
    <g id="xtick_3">
     <g id="line2d_35">
      <path d="M 100.19059 293.76 
L 100.19059 3.456 
" clip-path="url(#p6aedd815e3)" style="fill: none; stroke: #b0b0b0; stroke-width: 0.8; stroke-linecap: square"/>
     </g>
     <g id="line2d_36">
      <defs>
       <path id="mdde66bf7c8" d="M 0 0 
L 0 2 
" style="stroke: #000000; stroke-width: 0.6"/>
      </defs>
      <g>
       <use xlink:href="#mdde66bf7c8" x="100.19059" y="293.76" style="stroke: #000000; stroke-width: 0.6"/>
      </g>
     </g>
    </g>
    <g id="xtick_4">
     <g id="line2d_37">
      <path d="M 122.408981 293.76 
L 122.408981 3.456 
" clip-path="url(#p6aedd815e3)" style="fill: none; stroke: #b0b0b0; stroke-width: 0.8; stroke-linecap: square"/>
     </g>
     <g id="line2d_38">
      <g>
       <use xlink:href="#mdde66bf7c8" x="122.408981" y="293.76" style="stroke: #000000; stroke-width: 0.6"/>
      </g>
     </g>
    </g>
    <g id="xtick_5">
     <g id="line2d_39">
      <path d="M 138.17318 293.76 
L 138.17318 3.456 
" clip-path="url(#p6aedd815e3)" style="fill: none; stroke: #b0b0b0; stroke-width: 0.8; stroke-linecap: square"/>
     </g>
     <g id="line2d_40">
      <g>
       <use xlink:href="#mdde66bf7c8" x="138.17318" y="293.76" style="stroke: #000000; stroke-width: 0.6"/>
      </g>
     </g>
    </g>
    <g id="xtick_6">
     <g id="line2d_41">
      <path d="M 150.400843 293.76 
L 150.400843 3.456 
" clip-path="url(#p6aedd815e3)" style="fill: none; stroke: #b0b0b0; stroke-width: 0.8; stroke-linecap: square"/>
     </g>
     <g id="line2d_42">
      <g>
       <use xlink:href="#mdde66bf7c8" x="150.400843" y="293.76" style="stroke: #000000; stroke-width: 0.6"/>
      </g>
     </g>
    </g>
    <g id="xtick_7">
     <g id="line2d_43">
      <path d="M 160.391571 293.76 
L 160.391571 3.456 
" clip-path="url(#p6aedd815e3)" style="fill: none; stroke: #b0b0b0; stroke-width: 0.8; stroke-linecap: square"/>
     </g>
     <g id="line2d_44">
      <g>
       <use xlink:href="#mdde66bf7c8" x="160.391571" y="293.76" style="stroke: #000000; stroke-width: 0.6"/>
      </g>
     </g>
    </g>
    <g id="xtick_8">
     <g id="line2d_45">
      <path d="M 168.838611 293.76 
L 168.838611 3.456 
" clip-path="url(#p6aedd815e3)" style="fill: none; stroke: #b0b0b0; stroke-width: 0.8; stroke-linecap: square"/>
     </g>
     <g id="line2d_46">
      <g>
       <use xlink:href="#mdde66bf7c8" x="168.838611" y="293.76" style="stroke: #000000; stroke-width: 0.6"/>
      </g>
     </g>
    </g>
    <g id="xtick_9">
     <g id="line2d_47">
      <path d="M 176.15577 293.76 
L 176.15577 3.456 
" clip-path="url(#p6aedd815e3)" style="fill: none; stroke: #b0b0b0; stroke-width: 0.8; stroke-linecap: square"/>
     </g>
     <g id="line2d_48">
      <g>
       <use xlink:href="#mdde66bf7c8" x="176.15577" y="293.76" style="stroke: #000000; stroke-width: 0.6"/>
      </g>
     </g>
    </g>
    <g id="xtick_10">
     <g id="line2d_49">
      <path d="M 182.609962 293.76 
L 182.609962 3.456 
" clip-path="url(#p6aedd815e3)" style="fill: none; stroke: #b0b0b0; stroke-width: 0.8; stroke-linecap: square"/>
     </g>
     <g id="line2d_50">
      <g>
       <use xlink:href="#mdde66bf7c8" x="182.609962" y="293.76" style="stroke: #000000; stroke-width: 0.6"/>
      </g>
     </g>
    </g>
    <g id="xtick_11">
     <g id="line2d_51">
      <path d="M 226.366023 293.76 
L 226.366023 3.456 
" clip-path="url(#p6aedd815e3)" style="fill: none; stroke: #b0b0b0; stroke-width: 0.8; stroke-linecap: square"/>
     </g>
     <g id="line2d_52">
      <g>
       <use xlink:href="#mdde66bf7c8" x="226.366023" y="293.76" style="stroke: #000000; stroke-width: 0.6"/>
      </g>
     </g>
    </g>
    <g id="xtick_12">
     <g id="line2d_53">
      <path d="M 248.584414 293.76 
L 248.584414 3.456 
" clip-path="url(#p6aedd815e3)" style="fill: none; stroke: #b0b0b0; stroke-width: 0.8; stroke-linecap: square"/>
     </g>
     <g id="line2d_54">
      <g>
       <use xlink:href="#mdde66bf7c8" x="248.584414" y="293.76" style="stroke: #000000; stroke-width: 0.6"/>
      </g>
     </g>
    </g>
    <g id="xtick_13">
     <g id="line2d_55">
      <path d="M 264.348613 293.76 
L 264.348613 3.456 
" clip-path="url(#p6aedd815e3)" style="fill: none; stroke: #b0b0b0; stroke-width: 0.8; stroke-linecap: square"/>
     </g>
     <g id="line2d_56">
      <g>
       <use xlink:href="#mdde66bf7c8" x="264.348613" y="293.76" style="stroke: #000000; stroke-width: 0.6"/>
      </g>
     </g>
    </g>
    <g id="xtick_14">
     <g id="line2d_57">
      <path d="M 276.576275 293.76 
L 276.576275 3.456 
" clip-path="url(#p6aedd815e3)" style="fill: none; stroke: #b0b0b0; stroke-width: 0.8; stroke-linecap: square"/>
     </g>
     <g id="line2d_58">
      <g>
       <use xlink:href="#mdde66bf7c8" x="276.576275" y="293.76" style="stroke: #000000; stroke-width: 0.6"/>
      </g>
     </g>
    </g>
    <g id="xtick_15">
     <g id="line2d_59">
      <path d="M 286.567003 293.76 
L 286.567003 3.456 
" clip-path="url(#p6aedd815e3)" style="fill: none; stroke: #b0b0b0; stroke-width: 0.8; stroke-linecap: square"/>
     </g>
     <g id="line2d_60">
      <g>
       <use xlink:href="#mdde66bf7c8" x="286.567003" y="293.76" style="stroke: #000000; stroke-width: 0.6"/>
      </g>
     </g>
    </g>
    <g id="xtick_16">
     <g id="line2d_61">
      <path d="M 295.014044 293.76 
L 295.014044 3.456 
" clip-path="url(#p6aedd815e3)" style="fill: none; stroke: #b0b0b0; stroke-width: 0.8; stroke-linecap: square"/>
     </g>
     <g id="line2d_62">
      <g>
       <use xlink:href="#mdde66bf7c8" x="295.014044" y="293.76" style="stroke: #000000; stroke-width: 0.6"/>
      </g>
     </g>
    </g>
    <g id="xtick_17">
     <g id="line2d_63">
      <path d="M 302.331203 293.76 
L 302.331203 3.456 
" clip-path="url(#p6aedd815e3)" style="fill: none; stroke: #b0b0b0; stroke-width: 0.8; stroke-linecap: square"/>
     </g>
     <g id="line2d_64">
      <g>
       <use xlink:href="#mdde66bf7c8" x="302.331203" y="293.76" style="stroke: #000000; stroke-width: 0.6"/>
      </g>
     </g>
    </g>
    <g id="xtick_18">
     <g id="line2d_65">
      <path d="M 308.785394 293.76 
L 308.785394 3.456 
" clip-path="url(#p6aedd815e3)" style="fill: none; stroke: #b0b0b0; stroke-width: 0.8; stroke-linecap: square"/>
     </g>
     <g id="line2d_66">
      <g>
       <use xlink:href="#mdde66bf7c8" x="308.785394" y="293.76" style="stroke: #000000; stroke-width: 0.6"/>
      </g>
     </g>
    </g>
    <g id="xtick_19">
     <g id="line2d_67">
      <path d="M 352.541455 293.76 
L 352.541455 3.456 
" clip-path="url(#p6aedd815e3)" style="fill: none; stroke: #b0b0b0; stroke-width: 0.8; stroke-linecap: square"/>
     </g>
     <g id="line2d_68">
      <g>
       <use xlink:href="#mdde66bf7c8" x="352.541455" y="293.76" style="stroke: #000000; stroke-width: 0.6"/>
      </g>
     </g>
    </g>
    <g id="xtick_20">
     <g id="line2d_69">
      <path d="M 374.759846 293.76 
L 374.759846 3.456 
" clip-path="url(#p6aedd815e3)" style="fill: none; stroke: #b0b0b0; stroke-width: 0.8; stroke-linecap: square"/>
     </g>
     <g id="line2d_70">
      <g>
       <use xlink:href="#mdde66bf7c8" x="374.759846" y="293.76" style="stroke: #000000; stroke-width: 0.6"/>
      </g>
     </g>
    </g>
    <g id="xtick_21">
     <g id="line2d_71">
      <path d="M 390.524045 293.76 
L 390.524045 3.456 
" clip-path="url(#p6aedd815e3)" style="fill: none; stroke: #b0b0b0; stroke-width: 0.8; stroke-linecap: square"/>
     </g>
     <g id="line2d_72">
      <g>
       <use xlink:href="#mdde66bf7c8" x="390.524045" y="293.76" style="stroke: #000000; stroke-width: 0.6"/>
      </g>
     </g>
    </g>
    <g id="xtick_22">
     <g id="line2d_73">
      <path d="M 402.751708 293.76 
L 402.751708 3.456 
" clip-path="url(#p6aedd815e3)" style="fill: none; stroke: #b0b0b0; stroke-width: 0.8; stroke-linecap: square"/>
     </g>
     <g id="line2d_74">
      <g>
       <use xlink:href="#mdde66bf7c8" x="402.751708" y="293.76" style="stroke: #000000; stroke-width: 0.6"/>
      </g>
     </g>
    </g>
    <g id="xtick_23">
     <g id="line2d_75">
      <path d="M 412.742436 293.76 
L 412.742436 3.456 
" clip-path="url(#p6aedd815e3)" style="fill: none; stroke: #b0b0b0; stroke-width: 0.8; stroke-linecap: square"/>
     </g>
     <g id="line2d_76">
      <g>
       <use xlink:href="#mdde66bf7c8" x="412.742436" y="293.76" style="stroke: #000000; stroke-width: 0.6"/>
      </g>
     </g>
    </g>
    <g id="xtick_24">
     <g id="line2d_77">
      <path d="M 421.189476 293.76 
L 421.189476 3.456 
" clip-path="url(#p6aedd815e3)" style="fill: none; stroke: #b0b0b0; stroke-width: 0.8; stroke-linecap: square"/>
     </g>
     <g id="line2d_78">
      <g>
       <use xlink:href="#mdde66bf7c8" x="421.189476" y="293.76" style="stroke: #000000; stroke-width: 0.6"/>
      </g>
     </g>
    </g>
    <g id="xtick_25">
     <g id="line2d_79">
      <path d="M 428.506635 293.76 
L 428.506635 3.456 
" clip-path="url(#p6aedd815e3)" style="fill: none; stroke: #b0b0b0; stroke-width: 0.8; stroke-linecap: square"/>
     </g>
     <g id="line2d_80">
      <g>
       <use xlink:href="#mdde66bf7c8" x="428.506635" y="293.76" style="stroke: #000000; stroke-width: 0.6"/>
      </g>
     </g>
    </g>
    <g id="xtick_26">
     <g id="line2d_81">
      <path d="M 434.960827 293.76 
L 434.960827 3.456 
" clip-path="url(#p6aedd815e3)" style="fill: none; stroke: #b0b0b0; stroke-width: 0.8; stroke-linecap: square"/>
     </g>
     <g id="line2d_82">
      <g>
       <use xlink:href="#mdde66bf7c8" x="434.960827" y="293.76" style="stroke: #000000; stroke-width: 0.6"/>
      </g>
     </g>
    </g>
    <g id="text_3">
     <!-- log10 of FEvals / DIM -->
     <g transform="translate(156.430563 339.313125)scale(0.2 -0.2)">
      <defs>
       <path id="DejaVuSans-6c" d="M 603 4863 
L 1178 4863 
L 1178 0 
L 603 0 
L 603 4863 
z
" transform="scale(0.015625)"/>
       <path id="DejaVuSans-6f" d="M 1959 3097 
Q 1497 3097 1228 2736 
Q 959 2375 959 1747 
Q 959 1119 1226 758 
Q 1494 397 1959 397 
Q 2419 397 2687 759 
Q 2956 1122 2956 1747 
Q 2956 2369 2687 2733 
Q 2419 3097 1959 3097 
z
M 1959 3584 
Q 2709 3584 3137 3096 
Q 3566 2609 3566 1747 
Q 3566 888 3137 398 
Q 2709 -91 1959 -91 
Q 1206 -91 779 398 
Q 353 888 353 1747 
Q 353 2609 779 3096 
Q 1206 3584 1959 3584 
z
" transform="scale(0.015625)"/>
       <path id="DejaVuSans-67" d="M 2906 1791 
Q 2906 2416 2648 2759 
Q 2391 3103 1925 3103 
Q 1463 3103 1205 2759 
Q 947 2416 947 1791 
Q 947 1169 1205 825 
Q 1463 481 1925 481 
Q 2391 481 2648 825 
Q 2906 1169 2906 1791 
z
M 3481 434 
Q 3481 -459 3084 -895 
Q 2688 -1331 1869 -1331 
Q 1566 -1331 1297 -1286 
Q 1028 -1241 775 -1147 
L 775 -588 
Q 1028 -725 1275 -790 
Q 1522 -856 1778 -856 
Q 2344 -856 2625 -561 
Q 2906 -266 2906 331 
L 2906 616 
Q 2728 306 2450 153 
Q 2172 0 1784 0 
Q 1141 0 747 490 
Q 353 981 353 1791 
Q 353 2603 747 3093 
Q 1141 3584 1784 3584 
Q 2172 3584 2450 3431 
Q 2728 3278 2906 2969 
L 2906 3500 
L 3481 3500 
L 3481 434 
z
" transform="scale(0.015625)"/>
       <path id="DejaVuSans-31" d="M 794 531 
L 1825 531 
L 1825 4091 
L 703 3866 
L 703 4441 
L 1819 4666 
L 2450 4666 
L 2450 531 
L 3481 531 
L 3481 0 
L 794 0 
L 794 531 
z
" transform="scale(0.015625)"/>
       <path id="DejaVuSans-20" transform="scale(0.015625)"/>
       <path id="DejaVuSans-66" d="M 2375 4863 
L 2375 4384 
L 1825 4384 
Q 1516 4384 1395 4259 
Q 1275 4134 1275 3809 
L 1275 3500 
L 2222 3500 
L 2222 3053 
L 1275 3053 
L 1275 0 
L 697 0 
L 697 3053 
L 147 3053 
L 147 3500 
L 697 3500 
L 697 3744 
Q 697 4328 969 4595 
Q 1241 4863 1831 4863 
L 2375 4863 
z
" transform="scale(0.015625)"/>
       <path id="DejaVuSans-46" d="M 628 4666 
L 3309 4666 
L 3309 4134 
L 1259 4134 
L 1259 2759 
L 3109 2759 
L 3109 2228 
L 1259 2228 
L 1259 0 
L 628 0 
L 628 4666 
z
" transform="scale(0.015625)"/>
       <path id="DejaVuSans-45" d="M 628 4666 
L 3578 4666 
L 3578 4134 
L 1259 4134 
L 1259 2753 
L 3481 2753 
L 3481 2222 
L 1259 2222 
L 1259 531 
L 3634 531 
L 3634 0 
L 628 0 
L 628 4666 
z
" transform="scale(0.015625)"/>
       <path id="DejaVuSans-76" d="M 191 3500 
L 800 3500 
L 1894 563 
L 2988 3500 
L 3597 3500 
L 2284 0 
L 1503 0 
L 191 3500 
z
" transform="scale(0.015625)"/>
       <path id="DejaVuSans-61" d="M 2194 1759 
Q 1497 1759 1228 1600 
Q 959 1441 959 1056 
Q 959 750 1161 570 
Q 1363 391 1709 391 
Q 2188 391 2477 730 
Q 2766 1069 2766 1631 
L 2766 1759 
L 2194 1759 
z
M 3341 1997 
L 3341 0 
L 2766 0 
L 2766 531 
Q 2569 213 2275 61 
Q 1981 -91 1556 -91 
Q 1019 -91 701 211 
Q 384 513 384 1019 
Q 384 1609 779 1909 
Q 1175 2209 1959 2209 
L 2766 2209 
L 2766 2266 
Q 2766 2663 2505 2880 
Q 2244 3097 1772 3097 
Q 1472 3097 1187 3025 
Q 903 2953 641 2809 
L 641 3341 
Q 956 3463 1253 3523 
Q 1550 3584 1831 3584 
Q 2591 3584 2966 3190 
Q 3341 2797 3341 1997 
z
" transform="scale(0.015625)"/>
       <path id="DejaVuSans-73" d="M 2834 3397 
L 2834 2853 
Q 2591 2978 2328 3040 
Q 2066 3103 1784 3103 
Q 1356 3103 1142 2972 
Q 928 2841 928 2578 
Q 928 2378 1081 2264 
Q 1234 2150 1697 2047 
L 1894 2003 
Q 2506 1872 2764 1633 
Q 3022 1394 3022 966 
Q 3022 478 2636 193 
Q 2250 -91 1575 -91 
Q 1294 -91 989 -36 
Q 684 19 347 128 
L 347 722 
Q 666 556 975 473 
Q 1284 391 1588 391 
Q 1994 391 2212 530 
Q 2431 669 2431 922 
Q 2431 1156 2273 1281 
Q 2116 1406 1581 1522 
L 1381 1569 
Q 847 1681 609 1914 
Q 372 2147 372 2553 
Q 372 3047 722 3315 
Q 1072 3584 1716 3584 
Q 2034 3584 2315 3537 
Q 2597 3491 2834 3397 
z
" transform="scale(0.015625)"/>
       <path id="DejaVuSans-2f" d="M 1625 4666 
L 2156 4666 
L 531 -594 
L 0 -594 
L 1625 4666 
z
" transform="scale(0.015625)"/>
       <path id="DejaVuSans-44" d="M 1259 4147 
L 1259 519 
L 2022 519 
Q 2988 519 3436 956 
Q 3884 1394 3884 2338 
Q 3884 3275 3436 3711 
Q 2988 4147 2022 4147 
L 1259 4147 
z
M 628 4666 
L 1925 4666 
Q 3281 4666 3915 4102 
Q 4550 3538 4550 2338 
Q 4550 1131 3912 565 
Q 3275 0 1925 0 
L 628 0 
L 628 4666 
z
" transform="scale(0.015625)"/>
       <path id="DejaVuSans-49" d="M 628 4666 
L 1259 4666 
L 1259 0 
L 628 0 
L 628 4666 
z
" transform="scale(0.015625)"/>
       <path id="DejaVuSans-4d" d="M 628 4666 
L 1569 4666 
L 2759 1491 
L 3956 4666 
L 4897 4666 
L 4897 0 
L 4281 0 
L 4281 4097 
L 3078 897 
L 2444 897 
L 1241 4097 
L 1241 0 
L 628 0 
L 628 4666 
z
" transform="scale(0.015625)"/>
      </defs>
      <use xlink:href="#DejaVuSans-6c"/>
      <use xlink:href="#DejaVuSans-6f" x="27.783203"/>
      <use xlink:href="#DejaVuSans-67" x="88.964844"/>
      <use xlink:href="#DejaVuSans-31" x="152.441406"/>
      <use xlink:href="#DejaVuSans-30" x="216.064453"/>
      <use xlink:href="#DejaVuSans-20" x="279.6875"/>
      <use xlink:href="#DejaVuSans-6f" x="311.474609"/>
      <use xlink:href="#DejaVuSans-66" x="372.65625"/>
      <use xlink:href="#DejaVuSans-20" x="407.861328"/>
      <use xlink:href="#DejaVuSans-46" x="439.648438"/>
      <use xlink:href="#DejaVuSans-45" x="497.167969"/>
      <use xlink:href="#DejaVuSans-76" x="560.351562"/>
      <use xlink:href="#DejaVuSans-61" x="619.53125"/>
      <use xlink:href="#DejaVuSans-6c" x="680.810547"/>
      <use xlink:href="#DejaVuSans-73" x="708.59375"/>
      <use xlink:href="#DejaVuSans-20" x="760.693359"/>
      <use xlink:href="#DejaVuSans-2f" x="792.480469"/>
      <use xlink:href="#DejaVuSans-20" x="826.171875"/>
      <use xlink:href="#DejaVuSans-44" x="857.958984"/>
      <use xlink:href="#DejaVuSans-49" x="934.960938"/>
      <use xlink:href="#DejaVuSans-4d" x="964.453125"/>
     </g>
    </g>
   </g>
   <g id="matplotlib.axis_2">
    <g id="ytick_1">
     <g id="line2d_83">
      <path d="M 62.208 293.76 
L 460.8 293.76 
" clip-path="url(#p6aedd815e3)" style="fill: none; stroke: #b0b0b0; stroke-width: 0.8; stroke-linecap: square"/>
     </g>
     <g id="line2d_84">
      <defs>
       <path id="m9da87dae4f" d="M 0 0 
L -3.5 0 
" style="stroke: #000000; stroke-width: 0.8"/>
      </defs>
      <g>
       <use xlink:href="#m9da87dae4f" x="62.208" y="293.76" style="stroke: #000000; stroke-width: 0.8"/>
      </g>
     </g>
     <g id="text_4">
      <!-- 0.0 -->
      <g transform="translate(29.763 299.83875)scale(0.16 -0.16)">
       <defs>
        <path id="DejaVuSans-2e" d="M 684 794 
L 1344 794 
L 1344 0 
L 684 0 
L 684 794 
z
" transform="scale(0.015625)"/>
       </defs>
       <use xlink:href="#DejaVuSans-30"/>
       <use xlink:href="#DejaVuSans-2e" x="63.623047"/>
       <use xlink:href="#DejaVuSans-30" x="95.410156"/>
      </g>
     </g>
    </g>
    <g id="ytick_2">
     <g id="line2d_85">
      <path d="M 62.208 236.274059 
L 460.8 236.274059 
" clip-path="url(#p6aedd815e3)" style="fill: none; stroke: #b0b0b0; stroke-width: 0.8; stroke-linecap: square"/>
     </g>
     <g id="line2d_86">
      <g>
       <use xlink:href="#m9da87dae4f" x="62.208" y="236.274059" style="stroke: #000000; stroke-width: 0.8"/>
      </g>
     </g>
     <g id="text_5">
      <!-- 0.2 -->
      <g transform="translate(29.763 242.352809)scale(0.16 -0.16)">
       <use xlink:href="#DejaVuSans-30"/>
       <use xlink:href="#DejaVuSans-2e" x="63.623047"/>
       <use xlink:href="#DejaVuSans-32" x="95.410156"/>
      </g>
     </g>
    </g>
    <g id="ytick_3">
     <g id="line2d_87">
      <path d="M 62.208 178.788119 
L 460.8 178.788119 
" clip-path="url(#p6aedd815e3)" style="fill: none; stroke: #b0b0b0; stroke-width: 0.8; stroke-linecap: square"/>
     </g>
     <g id="line2d_88">
      <g>
       <use xlink:href="#m9da87dae4f" x="62.208" y="178.788119" style="stroke: #000000; stroke-width: 0.8"/>
      </g>
     </g>
     <g id="text_6">
      <!-- 0.4 -->
      <g transform="translate(29.763 184.866869)scale(0.16 -0.16)">
       <defs>
        <path id="DejaVuSans-34" d="M 2419 4116 
L 825 1625 
L 2419 1625 
L 2419 4116 
z
M 2253 4666 
L 3047 4666 
L 3047 1625 
L 3713 1625 
L 3713 1100 
L 3047 1100 
L 3047 0 
L 2419 0 
L 2419 1100 
L 313 1100 
L 313 1709 
L 2253 4666 
z
" transform="scale(0.015625)"/>
       </defs>
       <use xlink:href="#DejaVuSans-30"/>
       <use xlink:href="#DejaVuSans-2e" x="63.623047"/>
       <use xlink:href="#DejaVuSans-34" x="95.410156"/>
      </g>
     </g>
    </g>
    <g id="ytick_4">
     <g id="line2d_89">
      <path d="M 62.208 121.302178 
L 460.8 121.302178 
" clip-path="url(#p6aedd815e3)" style="fill: none; stroke: #b0b0b0; stroke-width: 0.8; stroke-linecap: square"/>
     </g>
     <g id="line2d_90">
      <g>
       <use xlink:href="#m9da87dae4f" x="62.208" y="121.302178" style="stroke: #000000; stroke-width: 0.8"/>
      </g>
     </g>
     <g id="text_7">
      <!-- 0.6 -->
      <g transform="translate(29.763 127.380928)scale(0.16 -0.16)">
       <defs>
        <path id="DejaVuSans-36" d="M 2113 2584 
Q 1688 2584 1439 2293 
Q 1191 2003 1191 1497 
Q 1191 994 1439 701 
Q 1688 409 2113 409 
Q 2538 409 2786 701 
Q 3034 994 3034 1497 
Q 3034 2003 2786 2293 
Q 2538 2584 2113 2584 
z
M 3366 4563 
L 3366 3988 
Q 3128 4100 2886 4159 
Q 2644 4219 2406 4219 
Q 1781 4219 1451 3797 
Q 1122 3375 1075 2522 
Q 1259 2794 1537 2939 
Q 1816 3084 2150 3084 
Q 2853 3084 3261 2657 
Q 3669 2231 3669 1497 
Q 3669 778 3244 343 
Q 2819 -91 2113 -91 
Q 1303 -91 875 529 
Q 447 1150 447 2328 
Q 447 3434 972 4092 
Q 1497 4750 2381 4750 
Q 2619 4750 2861 4703 
Q 3103 4656 3366 4563 
z
" transform="scale(0.015625)"/>
       </defs>
       <use xlink:href="#DejaVuSans-30"/>
       <use xlink:href="#DejaVuSans-2e" x="63.623047"/>
       <use xlink:href="#DejaVuSans-36" x="95.410156"/>
      </g>
     </g>
    </g>
    <g id="ytick_5">
     <g id="line2d_91">
      <path d="M 62.208 63.816238 
L 460.8 63.816238 
" clip-path="url(#p6aedd815e3)" style="fill: none; stroke: #b0b0b0; stroke-width: 0.8; stroke-linecap: square"/>
     </g>
     <g id="line2d_92">
      <g>
       <use xlink:href="#m9da87dae4f" x="62.208" y="63.816238" style="stroke: #000000; stroke-width: 0.8"/>
      </g>
     </g>
     <g id="text_8">
      <!-- 0.8 -->
      <g transform="translate(29.763 69.894988)scale(0.16 -0.16)">
       <defs>
        <path id="DejaVuSans-38" d="M 2034 2216 
Q 1584 2216 1326 1975 
Q 1069 1734 1069 1313 
Q 1069 891 1326 650 
Q 1584 409 2034 409 
Q 2484 409 2743 651 
Q 3003 894 3003 1313 
Q 3003 1734 2745 1975 
Q 2488 2216 2034 2216 
z
M 1403 2484 
Q 997 2584 770 2862 
Q 544 3141 544 3541 
Q 544 4100 942 4425 
Q 1341 4750 2034 4750 
Q 2731 4750 3128 4425 
Q 3525 4100 3525 3541 
Q 3525 3141 3298 2862 
Q 3072 2584 2669 2484 
Q 3125 2378 3379 2068 
Q 3634 1759 3634 1313 
Q 3634 634 3220 271 
Q 2806 -91 2034 -91 
Q 1263 -91 848 271 
Q 434 634 434 1313 
Q 434 1759 690 2068 
Q 947 2378 1403 2484 
z
M 1172 3481 
Q 1172 3119 1398 2916 
Q 1625 2713 2034 2713 
Q 2441 2713 2670 2916 
Q 2900 3119 2900 3481 
Q 2900 3844 2670 4047 
Q 2441 4250 2034 4250 
Q 1625 4250 1398 4047 
Q 1172 3844 1172 3481 
z
" transform="scale(0.015625)"/>
       </defs>
       <use xlink:href="#DejaVuSans-30"/>
       <use xlink:href="#DejaVuSans-2e" x="63.623047"/>
       <use xlink:href="#DejaVuSans-38" x="95.410156"/>
      </g>
     </g>
    </g>
    <g id="ytick_6">
     <g id="line2d_93">
      <path d="M 62.208 6.330297 
L 460.8 6.330297 
" clip-path="url(#p6aedd815e3)" style="fill: none; stroke: #b0b0b0; stroke-width: 0.8; stroke-linecap: square"/>
     </g>
     <g id="line2d_94">
      <g>
       <use xlink:href="#m9da87dae4f" x="62.208" y="6.330297" style="stroke: #000000; stroke-width: 0.8"/>
      </g>
     </g>
     <g id="text_9">
      <!-- 1.0 -->
      <g transform="translate(29.763 12.409047)scale(0.16 -0.16)">
       <use xlink:href="#DejaVuSans-31"/>
       <use xlink:href="#DejaVuSans-2e" x="63.623047"/>
       <use xlink:href="#DejaVuSans-30" x="95.410156"/>
      </g>
     </g>
    </g>
    <g id="text_10">
     <!-- proportion of trials -->
     <g transform="translate(21.603625 241.61425)rotate(-90)scale(0.2 -0.2)">
      <defs>
       <path id="DejaVuSans-70" d="M 1159 525 
L 1159 -1331 
L 581 -1331 
L 581 3500 
L 1159 3500 
L 1159 2969 
Q 1341 3281 1617 3432 
Q 1894 3584 2278 3584 
Q 2916 3584 3314 3078 
Q 3713 2572 3713 1747 
Q 3713 922 3314 415 
Q 2916 -91 2278 -91 
Q 1894 -91 1617 61 
Q 1341 213 1159 525 
z
M 3116 1747 
Q 3116 2381 2855 2742 
Q 2594 3103 2138 3103 
Q 1681 3103 1420 2742 
Q 1159 2381 1159 1747 
Q 1159 1113 1420 752 
Q 1681 391 2138 391 
Q 2594 391 2855 752 
Q 3116 1113 3116 1747 
z
" transform="scale(0.015625)"/>
       <path id="DejaVuSans-72" d="M 2631 2963 
Q 2534 3019 2420 3045 
Q 2306 3072 2169 3072 
Q 1681 3072 1420 2755 
Q 1159 2438 1159 1844 
L 1159 0 
L 581 0 
L 581 3500 
L 1159 3500 
L 1159 2956 
Q 1341 3275 1631 3429 
Q 1922 3584 2338 3584 
Q 2397 3584 2469 3576 
Q 2541 3569 2628 3553 
L 2631 2963 
z
" transform="scale(0.015625)"/>
       <path id="DejaVuSans-74" d="M 1172 4494 
L 1172 3500 
L 2356 3500 
L 2356 3053 
L 1172 3053 
L 1172 1153 
Q 1172 725 1289 603 
Q 1406 481 1766 481 
L 2356 481 
L 2356 0 
L 1766 0 
Q 1100 0 847 248 
Q 594 497 594 1153 
L 594 3053 
L 172 3053 
L 172 3500 
L 594 3500 
L 594 4494 
L 1172 4494 
z
" transform="scale(0.015625)"/>
       <path id="DejaVuSans-69" d="M 603 3500 
L 1178 3500 
L 1178 0 
L 603 0 
L 603 3500 
z
M 603 4863 
L 1178 4863 
L 1178 4134 
L 603 4134 
L 603 4863 
z
" transform="scale(0.015625)"/>
       <path id="DejaVuSans-6e" d="M 3513 2113 
L 3513 0 
L 2938 0 
L 2938 2094 
Q 2938 2591 2744 2837 
Q 2550 3084 2163 3084 
Q 1697 3084 1428 2787 
Q 1159 2491 1159 1978 
L 1159 0 
L 581 0 
L 581 3500 
L 1159 3500 
L 1159 2956 
Q 1366 3272 1645 3428 
Q 1925 3584 2291 3584 
Q 2894 3584 3203 3211 
Q 3513 2838 3513 2113 
z
" transform="scale(0.015625)"/>
      </defs>
      <use xlink:href="#DejaVuSans-70"/>
      <use xlink:href="#DejaVuSans-72" x="63.476562"/>
      <use xlink:href="#DejaVuSans-6f" x="102.339844"/>
      <use xlink:href="#DejaVuSans-70" x="163.521484"/>
      <use xlink:href="#DejaVuSans-6f" x="226.998047"/>
      <use xlink:href="#DejaVuSans-72" x="288.179688"/>
      <use xlink:href="#DejaVuSans-74" x="329.292969"/>
      <use xlink:href="#DejaVuSans-69" x="368.501953"/>
      <use xlink:href="#DejaVuSans-6f" x="396.285156"/>
      <use xlink:href="#DejaVuSans-6e" x="457.466797"/>
      <use xlink:href="#DejaVuSans-20" x="520.845703"/>
      <use xlink:href="#DejaVuSans-6f" x="552.632812"/>
      <use xlink:href="#DejaVuSans-66" x="613.814453"/>
      <use xlink:href="#DejaVuSans-20" x="649.019531"/>
      <use xlink:href="#DejaVuSans-74" x="680.806641"/>
      <use xlink:href="#DejaVuSans-72" x="720.015625"/>
      <use xlink:href="#DejaVuSans-69" x="761.128906"/>
      <use xlink:href="#DejaVuSans-61" x="788.912109"/>
      <use xlink:href="#DejaVuSans-6c" x="850.191406"/>
      <use xlink:href="#DejaVuSans-73" x="877.974609"/>
     </g>
    </g>
   </g>
   <g id="line2d_95">
    <path d="M -1 286.095208 
L 11.997747 286.095208 
L 11.997747 282.262812 
L 34.216138 282.262812 
L 34.216138 278.430416 
L 34.216138 278.430416 
L 34.216138 274.59802 
L 34.216138 274.59802 
L 34.216138 270.765624 
L 62.208 270.765624 
L 62.208 266.933228 
L 62.208 266.933228 
L 62.208 263.100832 
L 94.417119 263.100832 
L 94.417119 259.268436 
L 110.181318 259.268436 
L 110.181318 255.43604 
L 114.567442 255.43604 
L 114.567442 251.603644 
L 114.567442 251.603644 
L 114.567442 247.771248 
L 125.945517 247.771248 
L 125.945517 243.938851 
L 160.391571 243.938851 
L 160.391571 240.106455 
L 181.37851 240.106455 
L 181.37851 236.274059 
L 310.464217 236.274059 
L 310.464217 232.441663 
L 314.229091 232.441663 
L 314.229091 228.609267 
L 315.643996 228.609267 
L 315.643996 224.776871 
L 323.628609 224.776871 
L 323.628609 220.944475 
L 340.450615 220.944475 
L 340.450615 217.112079 
L 340.92682 217.112079 
L 340.92682 213.279683 
L 342.132677 213.279683 
L 342.132677 209.447287 
L 347.972369 209.447287 
L 347.972369 205.614891 
L 351.041588 205.614891 
L 351.041588 201.782495 
L 370.58641 201.782495 
L 370.58641 197.950099 
L 381.197799 197.950099 
L 381.197799 194.117703 
L 381.84362 194.117703 
L 381.84362 190.285307 
L 392.356181 190.285307 
L 392.356181 186.452911 
L 393.69117 186.452911 
L 393.69117 182.620515 
L 407.594535 182.620515 
L 407.594535 178.788119 
L 409.410096 178.788119 
L 409.410096 174.955723 
L 414.131153 174.955723 
L 414.131153 171.123327 
L 420.337443 171.123327 
L 420.337443 167.290931 
L 428.766306 167.290931 
L 428.766306 163.458535 
L 428.766306 163.458535 
L 428.766306 163.458535 
L 460.8 163.458535 
" clip-path="url(#p6aedd815e3)" style="fill: none; stroke: #000000; stroke-width: 1.5; stroke-linecap: square"/>
   </g>
   <g id="line2d_96">
    <defs>
     <path id="m3020747609" d="M -0 14.142136 
L 8.485281 0 
L -0 -14.142136 
L -8.485281 -0 
z
" style="stroke: #000000; stroke-width: 1.5; stroke-linejoin: miter"/>
    </defs>
    <g clip-path="url(#p6aedd815e3)">
     <use xlink:href="#m3020747609" x="160.391571" y="243.938851" style="fill-opacity: 0; stroke: #000000; stroke-width: 1.5; stroke-linejoin: miter"/>
     <use xlink:href="#m3020747609" x="310.464217" y="236.274059" style="fill-opacity: 0; stroke: #000000; stroke-width: 1.5; stroke-linejoin: miter"/>
     <use xlink:href="#m3020747609" x="392.356181" y="190.285307" style="fill-opacity: 0; stroke: #000000; stroke-width: 1.5; stroke-linejoin: miter"/>
     <use xlink:href="#m3020747609" x="428.766306" y="167.290931" style="fill-opacity: 0; stroke: #000000; stroke-width: 1.5; stroke-linejoin: miter"/>
     <use xlink:href="#m3020747609" x="428.766306" y="163.458535" style="fill-opacity: 0; stroke: #000000; stroke-width: 1.5; stroke-linejoin: miter"/>
    </g>
   </g>
   <g id="line2d_97">
    <path clip-path="url(#p6aedd815e3)" style="fill: none; stroke: #000000; stroke-width: 1.5; stroke-linecap: square"/>
    <g clip-path="url(#p6aedd815e3)">
     <use xlink:href="#m3020747609" x="-1" y="581.189703" style="fill-opacity: 0; stroke: #000000; stroke-width: 1.5; stroke-linejoin: miter"/>
     <use xlink:href="#m3020747609" x="460.8" y="581.189703" style="fill-opacity: 0; stroke: #000000; stroke-width: 1.5; stroke-linejoin: miter"/>
    </g>
   </g>
   <g id="line2d_98">
    <path d="M -1 286.095208 
L 11.997747 286.095208 
L 11.997747 282.262812 
L 11.997747 282.262812 
L 11.997747 278.430416 
L 34.216138 278.430416 
L 34.216138 274.59802 
L 49.980337 274.59802 
L 49.980337 270.765624 
L 72.198728 270.765624 
L 72.198728 266.933228 
L 94.417119 266.933228 
L 94.417119 263.100832 
L 94.417119 263.100832 
L 94.417119 259.268436 
L 118.628358 259.268436 
L 118.628358 255.43604 
L 135.362446 255.43604 
L 135.362446 251.603644 
L 154.6181 251.603644 
L 154.6181 247.771248 
L 178.829339 247.771248 
L 178.829339 243.938851 
L 181.37851 243.938851 
L 181.37851 240.106455 
L 184.992828 240.106455 
L 184.992828 236.274059 
L 374.978598 236.274059 
L 374.978598 232.441663 
L 378.705829 232.441663 
L 378.705829 228.609267 
L 433.741828 228.609267 
L 433.741828 224.776871 
L 439.716636 224.776871 
L 439.716636 220.944475 
L 439.716636 220.944475 
L 439.716636 220.944475 
L 460.8 220.944475 
" clip-path="url(#p6aedd815e3)" style="fill: none; stroke: #000000; stroke-width: 1.5; stroke-linecap: square"/>
   </g>
   <g id="line2d_99">
    <defs>
     <path id="md6de807226" d="M 0 7.5 
C 1.989023 7.5 3.896849 6.709753 5.303301 5.303301 
C 6.709753 3.896849 7.5 1.989023 7.5 0 
C 7.5 -1.989023 6.709753 -3.896849 5.303301 -5.303301 
C 3.896849 -6.709753 1.989023 -7.5 0 -7.5 
C -1.989023 -7.5 -3.896849 -6.709753 -5.303301 -5.303301 
C -6.709753 -3.896849 -7.5 -1.989023 -7.5 0 
C -7.5 1.989023 -6.709753 3.896849 -5.303301 5.303301 
C -3.896849 6.709753 -1.989023 7.5 0 7.5 
z
" style="stroke: #000000; stroke-width: 1.5"/>
    </defs>
    <g clip-path="url(#p6aedd815e3)">
     <use xlink:href="#md6de807226" x="154.6181" y="251.603644" style="fill-opacity: 0; stroke: #000000; stroke-width: 1.5"/>
     <use xlink:href="#md6de807226" x="181.37851" y="243.938851" style="fill-opacity: 0; stroke: #000000; stroke-width: 1.5"/>
     <use xlink:href="#md6de807226" x="184.992828" y="240.106455" style="fill-opacity: 0; stroke: #000000; stroke-width: 1.5"/>
     <use xlink:href="#md6de807226" x="433.741828" y="228.609267" style="fill-opacity: 0; stroke: #000000; stroke-width: 1.5"/>
     <use xlink:href="#md6de807226" x="439.716636" y="220.944475" style="fill-opacity: 0; stroke: #000000; stroke-width: 1.5"/>
    </g>
   </g>
   <g id="line2d_100">
    <path clip-path="url(#p6aedd815e3)" style="fill: none; stroke: #000000; stroke-width: 1.5; stroke-linecap: square"/>
   </g>
   <g id="line2d_101">
    <path d="M 304.743209 293.76 
L 304.743209 289.927604 
L 306.675158 289.927604 
L 306.675158 286.095208 
L 316.602574 286.095208 
L 316.602574 282.262812 
L 326.9616 282.262812 
L 326.9616 278.430416 
L 327.310073 278.430416 
L 327.310073 274.59802 
L 339.763061 274.59802 
L 339.763061 270.765624 
L 357.963097 270.765624 
L 357.963097 266.933228 
L 358.260102 266.933228 
L 358.260102 263.100832 
L 370.270119 263.100832 
L 370.270119 259.268436 
L 375.4135 259.268436 
L 375.4135 255.43604 
L 388.77016 255.43604 
L 388.77016 251.603644 
L 390.824605 251.603644 
L 390.824605 247.771248 
L 401.30813 247.771248 
L 401.30813 243.938851 
L 409.603863 243.938851 
L 409.603863 240.106455 
L 413.648197 240.106455 
L 413.648197 236.274059 
L 413.648197 236.274059 
L 413.648197 236.274059 
L 460.8 236.274059 
" clip-path="url(#p6aedd815e3)" style="fill: none; stroke: #00bfbf; stroke-width: 1.5; stroke-linecap: square"/>
   </g>
   <g id="line2d_102">
    <defs>
     <path id="m321ffa8f84" d="M -0 14.142136 
L 8.485281 0 
L -0 -14.142136 
L -8.485281 -0 
z
" style="stroke: #00bfbf; stroke-width: 1.5; stroke-linejoin: miter"/>
    </defs>
    <g clip-path="url(#p6aedd815e3)">
     <use xlink:href="#m321ffa8f84" x="375.4135" y="259.268436" style="fill-opacity: 0; stroke: #00bfbf; stroke-width: 1.5; stroke-linejoin: miter"/>
     <use xlink:href="#m321ffa8f84" x="413.648197" y="240.106455" style="fill-opacity: 0; stroke: #00bfbf; stroke-width: 1.5; stroke-linejoin: miter"/>
     <use xlink:href="#m321ffa8f84" x="413.648197" y="236.274059" style="fill-opacity: 0; stroke: #00bfbf; stroke-width: 1.5; stroke-linejoin: miter"/>
    </g>
   </g>
   <g id="line2d_103">
    <path clip-path="url(#p6aedd815e3)" style="fill: none; stroke: #00bfbf; stroke-width: 1.5; stroke-linecap: square"/>
    <g clip-path="url(#p6aedd815e3)">
     <use xlink:href="#m321ffa8f84" x="-1" y="581.189703" style="fill-opacity: 0; stroke: #00bfbf; stroke-width: 1.5; stroke-linejoin: miter"/>
     <use xlink:href="#m321ffa8f84" x="460.8" y="581.189703" style="fill-opacity: 0; stroke: #00bfbf; stroke-width: 1.5; stroke-linejoin: miter"/>
    </g>
   </g>
   <g id="line2d_104">
    <path d="M 381.650672 293.76 
L 381.650672 289.927604 
L 387.742145 289.927604 
L 387.742145 286.095208 
L 393.249777 286.095208 
L 393.249777 282.262812 
L 395.771688 282.262812 
L 395.771688 278.430416 
L 400.537601 278.430416 
L 400.537601 274.59802 
L 407.090602 274.59802 
L 407.090602 270.765624 
L 408.98138 270.765624 
L 408.98138 266.933228 
L 408.98138 266.933228 
L 408.98138 263.100832 
L 414.556903 263.100832 
L 414.556903 259.268436 
L 421.22078 259.268436 
L 421.22078 255.43604 
L 421.392632 255.43604 
L 421.392632 251.603644 
L 428.534027 251.603644 
L 428.534027 247.771248 
L 428.547718 247.771248 
L 428.547718 243.938851 
L 431.19325 243.938851 
L 431.19325 240.106455 
L 431.19325 240.106455 
L 431.19325 240.106455 
L 460.8 240.106455 
" clip-path="url(#p6aedd815e3)" style="fill: none; stroke: #00bfbf; stroke-width: 1.5; stroke-linecap: square"/>
   </g>
   <g id="line2d_105">
    <defs>
     <path id="mc93fe59d27" d="M 0 7.5 
C 1.989023 7.5 3.896849 6.709753 5.303301 5.303301 
C 6.709753 3.896849 7.5 1.989023 7.5 0 
C 7.5 -1.989023 6.709753 -3.896849 5.303301 -5.303301 
C 3.896849 -6.709753 1.989023 -7.5 0 -7.5 
C -1.989023 -7.5 -3.896849 -6.709753 -5.303301 -5.303301 
C -6.709753 -3.896849 -7.5 -1.989023 -7.5 0 
C -7.5 1.989023 -6.709753 3.896849 -5.303301 5.303301 
C -3.896849 6.709753 -1.989023 7.5 0 7.5 
z
" style="stroke: #00bfbf; stroke-width: 1.5"/>
    </defs>
    <g clip-path="url(#p6aedd815e3)">
     <use xlink:href="#mc93fe59d27" x="408.98138" y="266.933228" style="fill-opacity: 0; stroke: #00bfbf; stroke-width: 1.5"/>
     <use xlink:href="#mc93fe59d27" x="431.19325" y="243.938851" style="fill-opacity: 0; stroke: #00bfbf; stroke-width: 1.5"/>
     <use xlink:href="#mc93fe59d27" x="431.19325" y="240.106455" style="fill-opacity: 0; stroke: #00bfbf; stroke-width: 1.5"/>
    </g>
   </g>
   <g id="line2d_106">
    <path clip-path="url(#p6aedd815e3)" style="fill: none; stroke: #00bfbf; stroke-width: 1.5; stroke-linecap: square"/>
   </g>
   <g id="line2d_107"/>
   <g id="line2d_108"/>
   <g id="line2d_109"/>
   <g id="line2d_110"/>
   <g id="line2d_111">
    <path d="M 441.279549 293.76 
L 441.279549 3.456 
" clip-path="url(#p6aedd815e3)" style="fill: none; stroke: #000000; stroke-width: 1.5; stroke-linecap: square"/>
    <defs>
     <path id="mc0fbe2709b" d="M -10 0 
L 10 0 
M 0 10 
L 0 -10 
" style="stroke: #000000; stroke-width: 3"/>
    </defs>
    <g clip-path="url(#p6aedd815e3)">
     <use xlink:href="#mc0fbe2709b" x="441.279549" y="293.76" style="stroke: #000000; stroke-width: 3"/>
     <use xlink:href="#mc0fbe2709b" x="441.279549" y="3.456" style="stroke: #000000; stroke-width: 3"/>
    </g>
   </g>
   <g id="line2d_112">
    <path d="M 441.819429 293.76 
L 441.819429 3.456 
" clip-path="url(#p6aedd815e3)" style="fill: none; stroke: #000000; stroke-width: 1.5; stroke-linecap: square"/>
    <defs>
     <path id="m4c89696583" d="M 0 7.5 
C 1.989023 7.5 3.896849 6.709753 5.303301 5.303301 
C 6.709753 3.896849 7.5 1.989023 7.5 0 
C 7.5 -1.989023 6.709753 -3.896849 5.303301 -5.303301 
C 3.896849 -6.709753 1.989023 -7.5 0 -7.5 
C -1.989023 -7.5 -3.896849 -6.709753 -5.303301 -5.303301 
C -6.709753 -3.896849 -7.5 -1.989023 -7.5 0 
C -7.5 1.989023 -6.709753 3.896849 -5.303301 5.303301 
C -3.896849 6.709753 -1.989023 7.5 0 7.5 
z
" style="stroke: #000000; stroke-width: 3"/>
    </defs>
    <g clip-path="url(#p6aedd815e3)">
     <use xlink:href="#m4c89696583" x="441.819429" y="293.76" style="fill-opacity: 0; stroke: #000000; stroke-width: 3"/>
     <use xlink:href="#m4c89696583" x="441.819429" y="3.456" style="fill-opacity: 0; stroke: #000000; stroke-width: 3"/>
    </g>
   </g>
   <g id="patch_3">
    <path d="M 62.208 293.76 
L 62.208 3.456 
" style="fill: none; stroke: #000000; stroke-width: 0.8; stroke-linejoin: miter; stroke-linecap: square"/>
   </g>
   <g id="patch_4">
    <path d="M 460.8 293.76 
L 460.8 3.456 
" style="fill: none; stroke: #000000; stroke-width: 0.8; stroke-linejoin: miter; stroke-linecap: square"/>
   </g>
   <g id="patch_5">
    <path d="M 62.208 293.76 
L 460.8 293.76 
" style="fill: none; stroke: #000000; stroke-width: 0.8; stroke-linejoin: miter; stroke-linecap: square"/>
   </g>
   <g id="patch_6">
    <path d="M 62.208 3.456 
L 460.8 3.456 
" style="fill: none; stroke: #000000; stroke-width: 0.8; stroke-linejoin: miter; stroke-linecap: square"/>
   </g>
   <g id="text_11">
    <!-- f10-f14 -->
    <g transform="translate(225.405563 24.458955)scale(0.2 -0.2)">
     <defs>
      <path id="DejaVuSans-2d" d="M 313 2009 
L 1997 2009 
L 1997 1497 
L 313 1497 
L 313 2009 
z
" transform="scale(0.015625)"/>
     </defs>
     <use xlink:href="#DejaVuSans-66"/>
     <use xlink:href="#DejaVuSans-31" x="35.205078"/>
     <use xlink:href="#DejaVuSans-30" x="98.828125"/>
     <use xlink:href="#DejaVuSans-2d" x="162.451172"/>
     <use xlink:href="#DejaVuSans-66" x="198.535156"/>
     <use xlink:href="#DejaVuSans-31" x="233.740234"/>
     <use xlink:href="#DejaVuSans-34" x="297.363281"/>
    </g>
   </g>
   <g id="text_12">
    <!-- absolute targets -->
    <g transform="translate(62.208 609.932673)scale(0.14 -0.14)">
     <defs>
      <path id="DejaVuSans-62" d="M 3116 1747 
Q 3116 2381 2855 2742 
Q 2594 3103 2138 3103 
Q 1681 3103 1420 2742 
Q 1159 2381 1159 1747 
Q 1159 1113 1420 752 
Q 1681 391 2138 391 
Q 2594 391 2855 752 
Q 3116 1113 3116 1747 
z
M 1159 2969 
Q 1341 3281 1617 3432 
Q 1894 3584 2278 3584 
Q 2916 3584 3314 3078 
Q 3713 2572 3713 1747 
Q 3713 922 3314 415 
Q 2916 -91 2278 -91 
Q 1894 -91 1617 61 
Q 1341 213 1159 525 
L 1159 0 
L 581 0 
L 581 4863 
L 1159 4863 
L 1159 2969 
z
" transform="scale(0.015625)"/>
      <path id="DejaVuSans-75" d="M 544 1381 
L 544 3500 
L 1119 3500 
L 1119 1403 
Q 1119 906 1312 657 
Q 1506 409 1894 409 
Q 2359 409 2629 706 
Q 2900 1003 2900 1516 
L 2900 3500 
L 3475 3500 
L 3475 0 
L 2900 0 
L 2900 538 
Q 2691 219 2414 64 
Q 2138 -91 1772 -91 
Q 1169 -91 856 284 
Q 544 659 544 1381 
z
M 1991 3584 
L 1991 3584 
z
" transform="scale(0.015625)"/>
      <path id="DejaVuSans-65" d="M 3597 1894 
L 3597 1613 
L 953 1613 
Q 991 1019 1311 708 
Q 1631 397 2203 397 
Q 2534 397 2845 478 
Q 3156 559 3463 722 
L 3463 178 
Q 3153 47 2828 -22 
Q 2503 -91 2169 -91 
Q 1331 -91 842 396 
Q 353 884 353 1716 
Q 353 2575 817 3079 
Q 1281 3584 2069 3584 
Q 2775 3584 3186 3129 
Q 3597 2675 3597 1894 
z
M 3022 2063 
Q 3016 2534 2758 2815 
Q 2500 3097 2075 3097 
Q 1594 3097 1305 2825 
Q 1016 2553 972 2059 
L 3022 2063 
z
" transform="scale(0.015625)"/>
     </defs>
     <use xlink:href="#DejaVuSans-61"/>
     <use xlink:href="#DejaVuSans-62" x="61.279297"/>
     <use xlink:href="#DejaVuSans-73" x="124.755859"/>
     <use xlink:href="#DejaVuSans-6f" x="176.855469"/>
     <use xlink:href="#DejaVuSans-6c" x="238.037109"/>
     <use xlink:href="#DejaVuSans-75" x="265.820312"/>
     <use xlink:href="#DejaVuSans-74" x="329.199219"/>
     <use xlink:href="#DejaVuSans-65" x="368.408203"/>
     <use xlink:href="#DejaVuSans-20" x="429.931641"/>
     <use xlink:href="#DejaVuSans-74" x="461.71875"/>
     <use xlink:href="#DejaVuSans-61" x="500.927734"/>
     <use xlink:href="#DejaVuSans-72" x="562.207031"/>
     <use xlink:href="#DejaVuSans-67" x="601.570312"/>
     <use xlink:href="#DejaVuSans-65" x="665.046875"/>
     <use xlink:href="#DejaVuSans-74" x="726.570312"/>
     <use xlink:href="#DejaVuSans-73" x="765.779297"/>
    </g>
   </g>
   <g id="text_13">
    <!-- v2.6.3 -->
    <g style="fill: #808080" transform="translate(245.82275 288.777272)scale(0.1 -0.1)">
     <defs>
      <path id="DejaVuSans-33" d="M 2597 2516 
Q 3050 2419 3304 2112 
Q 3559 1806 3559 1356 
Q 3559 666 3084 287 
Q 2609 -91 1734 -91 
Q 1441 -91 1130 -33 
Q 819 25 488 141 
L 488 750 
Q 750 597 1062 519 
Q 1375 441 1716 441 
Q 2309 441 2620 675 
Q 2931 909 2931 1356 
Q 2931 1769 2642 2001 
Q 2353 2234 1838 2234 
L 1294 2234 
L 1294 2753 
L 1863 2753 
Q 2328 2753 2575 2939 
Q 2822 3125 2822 3475 
Q 2822 3834 2567 4026 
Q 2313 4219 1838 4219 
Q 1578 4219 1281 4162 
Q 984 4106 628 3988 
L 628 4550 
Q 988 4650 1302 4700 
Q 1616 4750 1894 4750 
Q 2613 4750 3031 4423 
Q 3450 4097 3450 3541 
Q 3450 3153 3228 2886 
Q 3006 2619 2597 2516 
z
" transform="scale(0.015625)"/>
     </defs>
     <use xlink:href="#DejaVuSans-76"/>
     <use xlink:href="#DejaVuSans-32" x="59.179688"/>
     <use xlink:href="#DejaVuSans-2e" x="122.802734"/>
     <use xlink:href="#DejaVuSans-36" x="154.589844"/>
     <use xlink:href="#DejaVuSans-2e" x="218.212891"/>
     <use xlink:href="#DejaVuSans-33" x="250"/>
    </g>
   </g>
   <g id="legend_1">
    <g id="patch_7">
     <path d="M 76.208 136.881 
L 160.148625 136.881 
Q 164.148625 136.881 164.148625 132.881 
L 164.148625 17.456 
Q 164.148625 13.456 160.148625 13.456 
L 76.208 13.456 
Q 72.208 13.456 72.208 17.456 
L 72.208 132.881 
Q 72.208 136.881 76.208 136.881 
z
" style="fill: #ffffff; opacity: 0.2; stroke: #cccccc; stroke-linejoin: miter"/>
    </g>
    <g id="line2d_113">
     <path d="M 80.208 29.652875 
L 80.208 29.652875 
L 100.208 29.652875 
L 100.208 29.652875 
L 120.208 29.652875 
" style="fill: none; stroke: #000000; stroke-width: 1.5; stroke-linecap: square"/>
    </g>
    <g id="text_14">
     <!-- 1 -->
     <g transform="translate(136.208 36.652875)scale(0.2 -0.2)">
      <use xlink:href="#DejaVuSans-31"/>
     </g>
    </g>
    <g id="line2d_114">
     <path d="M 80.208 59.009125 
L 80.208 59.009125 
L 100.208 59.009125 
L 100.208 59.009125 
L 120.208 59.009125 
" style="fill: none; stroke: #00bfbf; stroke-width: 1.5; stroke-linecap: square"/>
    </g>
    <g id="text_15">
     <!-- -1 -->
     <g transform="translate(136.208 66.009125)scale(0.2 -0.2)">
      <use xlink:href="#DejaVuSans-2d"/>
      <use xlink:href="#DejaVuSans-31" x="36.083984"/>
     </g>
    </g>
    <g id="line2d_115">
     <path d="M 80.208 88.365375 
L 100.208 88.365375 
L 120.208 88.365375 
" style="fill: none; stroke: #bf00bf; stroke-width: 1.5; stroke-linecap: square"/>
    </g>
    <g id="text_16">
     <!-- -4 -->
     <g transform="translate(136.208 95.365375)scale(0.2 -0.2)">
      <use xlink:href="#DejaVuSans-2d"/>
      <use xlink:href="#DejaVuSans-34" x="36.083984"/>
     </g>
    </g>
    <g id="line2d_116">
     <path d="M 80.208 117.721625 
L 100.208 117.721625 
L 120.208 117.721625 
" style="fill: none; stroke: #ff0000; stroke-width: 3; stroke-linecap: square"/>
    </g>
    <g id="text_17">
     <!-- -8 -->
     <g transform="translate(136.208 124.721625)scale(0.2 -0.2)">
      <use xlink:href="#DejaVuSans-2d"/>
      <use xlink:href="#DejaVuSans-38" x="36.083984"/>
     </g>
    </g>
   </g>
  </g>
 </g>
 <defs>
  <clipPath id="p6aedd815e3">
   <rect x="62.208" y="3.456" width="398.592" height="290.304"/>
  </clipPath>
 </defs>
</svg>
